<?xml version="1.0" encoding="UTF-8" standalone="no"?>
<!DOCTYPE svg PUBLIC "-//W3C//DTD SVG 1.1//EN"
 "http://www.w3.org/Graphics/SVG/1.1/DTD/svg11.dtd">
<!-- Generated by graphviz version 2.38.0 (20140413.2041)
 -->
<!-- Title: G Pages: 1 -->
<svg width="1184pt" height="462pt"
 viewBox="0.00 0.00 1183.66 462.00" xmlns="http://www.w3.org/2000/svg" xmlns:xlink="http://www.w3.org/1999/xlink">
<filter id = "dropshadow" height = "130%" ><feGaussianBlur in= "SourceAlpha" stdDeviation = "3"/><!--stdDeviation is how much to blur--><feOffset dx = "2" dy = "2" result = "offsetblur"/><!--how much to offset--><feMerge><feMergeNode/><!--this contains the offset blurred image--><feMergeNode in= "SourceGraphic"/><!--this contains the element that the filter is applied to --></feMerge></filter>
<g id="graph0" class="graph" transform="scale(1 1) rotate(0) translate(4 458)">
<title>G</title>
<g id="clust1" class="cluster"><title>clusterCategory</title>
<polygon fill="#4abdac" stroke="black" points="248.656,-140 248.656,-410 1167.66,-410 1167.66,-140 248.656,-140" style="filter: url(#dropshadow)"/>
<text text-anchor="middle" x="708.156" y="-399.6" font-family="Times New Roman,serif" font-size="8.00">Category</text>
</g>
<!-- CategoryProperties -->
<g id="ItemTypeCategoryProperties" class="node"><title></title><polygon fill="#f7b733" stroke="black" points="256.656,-171.5 256.656,-242.5 470.656,-242.5 470.656,-171.5 256.656,-171.5" style="filter: url(#dropshadow)"/>
<text text-anchor="middle" x="283.156" y="-205.1" font-family="Times New Roman,serif" font-size="8.00">Properties</text>
<polyline fill="none" stroke="black" points="309.656,-171.5 309.656,-242.5 "/>
<text text-anchor="start" x="317.656" y="-232.1" font-family="Times New Roman,serif" font-size="8.00">CategoryName : NameType[0...n] </text>
<text text-anchor="start" x="317.656" y="-223.1" font-family="Times New Roman,serif" font-size="8.00">Label : LabelType[0...n] </text>
<text text-anchor="start" x="317.656" y="-214.1" font-family="Times New Roman,serif" font-size="8.00">Description : StructuredStringType[0...1] </text>
<text text-anchor="start" x="317.656" y="-205.1" font-family="Times New Roman,serif" font-size="8.00">ConceptReference : Concept[0...1] </text>
<text text-anchor="start" x="317.656" y="-196.1" font-family="Times New Roman,serif" font-size="8.00">Generation : GenerationType[0...1] </text>
<text text-anchor="start" x="317.656" y="-187.1" font-family="Times New Roman,serif" font-size="8.00">SubCategoryReference : Category[0...n] </text>
<text text-anchor="start" x="317.656" y="-178.1" font-family="Times New Roman,serif" font-size="8.00">IsMissing : boolean[0...1] </text>
</g>
<!-- CategoryProperties&#45;&gt;CategoryProperties -->
<g id="edge10" class="edge"><title>CategoryProperties&#45;&gt;CategoryProperties</title>
<path fill="none" stroke="black" d="M334.493,-242.574C335.501,-252.957 345.222,-261 363.656,-261 382.089,-261 391.81,-252.957 392.818,-242.574"/>
<text text-anchor="middle" x="363.656" y="-263.6" font-family="Times New Roman,serif" font-size="8.00">SubCategoryReference</text>
<text text-anchor="middle" x="384.818" y="-245.174" font-family="Times New Roman,serif" font-size="8.00">0...*</text>
<text text-anchor="middle" x="326.493" y="-245.174" font-family="Times New Roman,serif" font-size="8.00">0...*</text>
</g>
<!-- CategoryNameType -->
<g id="ReusableTypeCategoryNameType" class="node"><title></title><polygon fill="#fc4a1a" stroke="black" points="613.656,-149 613.656,-185 782.656,-185 782.656,-149 613.656,-149" style="filter: url(#dropshadow)"/>
<text text-anchor="middle" x="641.656" y="-165.1" font-family="Times New Roman,serif" font-size="8.00">NameType</text>
<polyline fill="none" stroke="black" points="669.656,-149 669.656,-185 "/>
<text text-anchor="start" x="677.656" y="-169.6" font-family="Times New Roman,serif" font-size="8.00">IsPreferred : boolean[0...1] </text>
<text text-anchor="start" x="677.656" y="-160.6" font-family="Times New Roman,serif" font-size="8.00">Context : string[0...1] </text>
</g>
<!-- CategoryProperties&#45;&gt;CategoryNameType -->
<g id="edge1" class="edge"><title>CategoryProperties&#45;&gt;CategoryNameType</title>
<path fill="none" stroke="black" d="M470.775,-194.234C516.958,-188.678 570.297,-182.261 613.596,-177.052"/>
<text text-anchor="middle" x="520.656" y="-194.6" font-family="Times New Roman,serif" font-size="8.00">CategoryName</text>
</g>
<!-- CategoryLabelType -->
<g id="ReusableTypeCategoryLabelType" class="node"><title></title><polygon fill="#fc4a1a" stroke="black" points="592.656,-204.5 592.656,-257.5 803.656,-257.5 803.656,-204.5 592.656,-204.5" style="filter: url(#dropshadow)"/>
<text text-anchor="middle" x="619.656" y="-229.1" font-family="Times New Roman,serif" font-size="8.00">LabelType</text>
<polyline fill="none" stroke="black" points="646.656,-204.5 646.656,-257.5 "/>
<text text-anchor="start" x="654.656" y="-247.1" font-family="Times New Roman,serif" font-size="8.00">TypeOfLabel : CodeValueType[0...1] </text>
<text text-anchor="start" x="654.656" y="-238.1" font-family="Times New Roman,serif" font-size="8.00">LocationVariant : string[0...1] </text>
<text text-anchor="start" x="654.656" y="-229.1" font-family="Times New Roman,serif" font-size="8.00">ValidForStartDate : cogsDate[0...1] </text>
<text text-anchor="start" x="654.656" y="-220.1" font-family="Times New Roman,serif" font-size="8.00">ValidForEndDate : cogsDate[0...1] </text>
<text text-anchor="start" x="654.656" y="-211.1" font-family="Times New Roman,serif" font-size="8.00">MaxLength : nonNegativeInteger[0...1] </text>
</g>
<!-- CategoryProperties&#45;&gt;CategoryLabelType -->
<g id="edge2" class="edge"><title>CategoryProperties&#45;&gt;CategoryLabelType</title>
<path fill="none" stroke="black" d="M470.775,-214.66C509.736,-217.472 553.79,-220.652 592.612,-223.454"/>
<text text-anchor="middle" x="520.656" y="-223.6" font-family="Times New Roman,serif" font-size="8.00">Label</text>
</g>
<!-- CategoryStructuredStringType -->
<g id="ReusableTypeCategoryStructuredStringType" class="node"><title></title><polygon fill="#fc4a1a" stroke="black" points="946.656,-305 946.656,-341 1159.66,-341 1159.66,-305 946.656,-305" style="filter: url(#dropshadow)"/>
<text text-anchor="middle" x="991.656" y="-321.1" font-family="Times New Roman,serif" font-size="8.00">StructuredStringType</text>
<polyline fill="none" stroke="black" points="1036.66,-305 1036.66,-341 "/>
<text text-anchor="start" x="1044.66" y="-321.1" font-family="Times New Roman,serif" font-size="8.00">Content : ContentType[0...n] </text>
</g>
<!-- CategoryProperties&#45;&gt;CategoryStructuredStringType -->
<g id="edge3" class="edge"><title>CategoryProperties&#45;&gt;CategoryStructuredStringType</title>
<path fill="none" stroke="black" d="M470.726,-241.582C502.58,-250.963 537.796,-260.353 570.656,-267 640.202,-281.069 827.04,-300.901 946.477,-312.799"/>
<text text-anchor="middle" x="698.156" y="-302.6" font-family="Times New Roman,serif" font-size="8.00">Description</text>
</g>
<!-- Concept -->
<g id="ItemTypeConcept" class="node"><title></title><ellipse fill="#f7b733" stroke="black" cx="698.156" cy="-112" rx="27" ry="18" style="filter: url(#dropshadow)"/>
<text text-anchor="middle" x="698.156" y="-110.1" font-family="Times New Roman,serif" font-size="8.00">Concept</text>
</g>
<!-- CategoryProperties&#45;&gt;Concept -->
<g id="edge4" class="edge"><title>CategoryProperties&#45;&gt;Concept</title>
<path fill="none" stroke="black" d="M458.38,-171.498C493.284,-159.127 533.456,-145.884 570.656,-136 605.222,-126.816 645.995,-119.737 671.713,-115.719"/>
<text text-anchor="middle" x="520.656" y="-163.6" font-family="Times New Roman,serif" font-size="8.00">ConceptReference</text>
<text text-anchor="middle" x="663.713" y="-109.319" font-family="Times New Roman,serif" font-size="8.00">0...*</text>
<text text-anchor="middle" x="466.38" y="-165.098" font-family="Times New Roman,serif" font-size="8.00">0...*</text>
</g>
<!-- CategoryGenerationType -->
<g id="ReusableTypeCategoryGenerationType" class="node"><title></title><polygon fill="#fc4a1a" stroke="black" points="570.656,-322 570.656,-384 825.656,-384 825.656,-322 570.656,-322" style="filter: url(#dropshadow)"/>
<text text-anchor="middle" x="607.656" y="-351.1" font-family="Times New Roman,serif" font-size="8.00">GenerationType</text>
<polyline fill="none" stroke="black" points="644.656,-322 644.656,-384 "/>
<text text-anchor="start" x="652.656" y="-373.6" font-family="Times New Roman,serif" font-size="8.00">ComponentReference : Category[0...n] </text>
<text text-anchor="start" x="652.656" y="-364.6" font-family="Times New Roman,serif" font-size="8.00">Description : StructuredStringType[0...1] </text>
<text text-anchor="start" x="652.656" y="-355.6" font-family="Times New Roman,serif" font-size="8.00">CommandCode : CommandCodeType[0...n] </text>
<text text-anchor="start" x="652.656" y="-346.6" font-family="Times New Roman,serif" font-size="8.00">OtherMaterialReference : OtherMaterial[0...n] </text>
<text text-anchor="start" x="652.656" y="-337.6" font-family="Times New Roman,serif" font-size="8.00">IsDerived : boolean[0...1] </text>
<text text-anchor="start" x="652.656" y="-328.6" font-family="Times New Roman,serif" font-size="8.00">Qualification : string[0...1] </text>
</g>
<!-- CategoryProperties&#45;&gt;CategoryGenerationType -->
<g id="edge5" class="edge"><title>CategoryProperties&#45;&gt;CategoryGenerationType</title>
<path fill="none" stroke="black" d="M404.259,-242.583C427.425,-261.741 458.061,-284.377 488.656,-299 514.211,-311.215 542.898,-320.929 570.627,-328.553"/>
<text text-anchor="middle" x="520.656" y="-325.6" font-family="Times New Roman,serif" font-size="8.00">Generation</text>
<text text-anchor="middle" x="562.627" y="-322.153" font-family="Times New Roman,serif" font-size="8.00">0...*</text>
<text text-anchor="middle" x="412.259" y="-245.183" font-family="Times New Roman,serif" font-size="8.00">0...*</text>
</g>
<!-- Category -->
<g id="ItemTypeCategory" class="node"><title></title><ellipse fill="#f7b733" stroke="black" cx="1053.16" cy="-90" rx="27.4558" ry="18" style="filter: url(#dropshadow)"/>
<text text-anchor="middle" x="1053.16" y="-88.1" font-family="Times New Roman,serif" font-size="8.00">Category</text>
</g>
<!-- CategoryProperties&#45;&gt;Category -->
<g id="edge6" class="edge"><title>CategoryProperties&#45;&gt;Category</title>
<path fill="none" stroke="black" d="M404.961,-171.414C444.162,-139.365 506.969,-94.5348 570.656,-76 739.281,-26.925 955.263,-67.7845 1027.44,-84.0528"/>
<text text-anchor="middle" x="698.156" y="-78.6" font-family="Times New Roman,serif" font-size="8.00">SubCategoryReference</text>
<text text-anchor="middle" x="1019.44" y="-77.6528" font-family="Times New Roman,serif" font-size="8.00">0...*</text>
<text text-anchor="middle" x="396.961" y="-165.014" font-family="Times New Roman,serif" font-size="8.00">0...*</text>
</g>
<!-- CategoryGenerationType&#45;&gt;CategoryStructuredStringType -->
<g id="edge8" class="edge"><title>CategoryGenerationType&#45;&gt;CategoryStructuredStringType</title>
<path fill="none" stroke="black" d="M826.098,-342.212C865.531,-338.86 908.556,-335.204 946.386,-331.989"/>
<text text-anchor="middle" x="886.156" y="-343.6" font-family="Times New Roman,serif" font-size="8.00">Description</text>
<text text-anchor="middle" x="938.386" y="-325.589" font-family="Times New Roman,serif" font-size="8.00">0...*</text>
<text text-anchor="middle" x="834.098" y="-335.812" font-family="Times New Roman,serif" font-size="8.00">0...*</text>
</g>
<!-- CategoryGenerationType&#45;&gt;Category -->
<g id="edge7" class="edge"><title>CategoryGenerationType&#45;&gt;Category</title>
<path fill="none" stroke="black" d="M801.806,-321.963C810.233,-317.567 818.318,-312.6 825.656,-307 899.667,-250.517 874.442,-194.765 946.656,-136 970.833,-116.326 1004.72,-103.548 1027.51,-96.5672"/>
<text text-anchor="middle" x="886.156" y="-293.6" font-family="Times New Roman,serif" font-size="8.00">ComponentReference</text>
<text text-anchor="middle" x="1019.51" y="-90.1672" font-family="Times New Roman,serif" font-size="8.00">0...*</text>
<text text-anchor="middle" x="793.806" y="-315.563" font-family="Times New Roman,serif" font-size="8.00">0...*</text>
</g>
<!-- OtherMaterial -->
<g id="ItemTypeOtherMaterial" class="node"><title></title><ellipse fill="#f7b733" stroke="black" cx="1053.16" cy="-436" rx="37.3742" ry="18" style="filter: url(#dropshadow)"/>
<text text-anchor="middle" x="1053.16" y="-434.1" font-family="Times New Roman,serif" font-size="8.00">OtherMaterial</text>
</g>
<!-- CategoryGenerationType&#45;&gt;OtherMaterial -->
<g id="edge9" class="edge"><title>CategoryGenerationType&#45;&gt;OtherMaterial</title>
<path fill="none" stroke="black" d="M821.374,-384.049C861.243,-393.93 905.769,-404.701 946.656,-414 970.556,-419.435 997.621,-425.069 1018.35,-429.274"/>
<text text-anchor="middle" x="886.156" y="-411.6" font-family="Times New Roman,serif" font-size="8.00">OtherMaterialReference</text>
<text text-anchor="middle" x="1010.35" y="-422.874" font-family="Times New Roman,serif" font-size="8.00">0...*</text>
<text text-anchor="middle" x="813.374" y="-386.649" font-family="Times New Roman,serif" font-size="8.00">0...*</text>
</g>
<!-- CategoryGroup -->
<g id="ItemTypeCategoryGroup" class="node"><title></title><ellipse fill="#f7b733" stroke="black" cx="61.8279" cy="-342" rx="39.278" ry="18" style="filter: url(#dropshadow)"/>
<text text-anchor="middle" x="61.8279" y="-340.1" font-family="Times New Roman,serif" font-size="8.00">CategoryGroup</text>
</g>
<!-- CategoryGroup&#45;&gt;CategoryProperties -->
<g id="edge11" class="edge"><title>CategoryGroup&#45;&gt;CategoryProperties</title>
<path fill="none" stroke="black" d="M100.992,-343.739C137.88,-343.953 194.509,-340.34 238.656,-320 242.09,-318.418 245.495,-316.705 248.864,-314.88"/>
<text text-anchor="middle" x="190.156" y="-344.6" font-family="Times New Roman,serif" font-size="8.00">DefiningCategoryReference</text>
<text text-anchor="middle" x="240.864" y="-308.48" font-family="Times New Roman,serif" font-size="8.00">0...*</text>
<text text-anchor="middle" x="108.992" y="-337.339" font-family="Times New Roman,serif" font-size="8.00">0...*</text>
</g>
<!-- CategoryGroup&#45;&gt;CategoryProperties -->
<g id="edge12" class="edge"><title>CategoryGroup&#45;&gt;CategoryProperties</title>
<path fill="none" stroke="black" d="M91.4866,-330.208C106.365,-324.22 124.892,-316.968 141.656,-311 184.294,-295.821 197.343,-298.484 238.656,-280 241.975,-278.515 245.317,-276.963 248.669,-275.356"/>
<text text-anchor="middle" x="190.156" y="-313.6" font-family="Times New Roman,serif" font-size="8.00">CategoryReference</text>
<text text-anchor="middle" x="240.669" y="-268.956" font-family="Times New Roman,serif" font-size="8.00">0...*</text>
<text text-anchor="middle" x="99.4866" y="-323.808" font-family="Times New Roman,serif" font-size="8.00">0...*</text>
</g>
<!-- CategoryScheme -->
<g id="ItemTypeCategoryScheme0" class="node"><title></title><ellipse fill="#f7b733" stroke="black" cx="61.8279" cy="-288" rx="41.9498" ry="18" style="filter: url(#dropshadow)"/>
<text text-anchor="middle" x="61.8279" y="-286.1" font-family="Times New Roman,serif" font-size="8.00">CategoryScheme</text>
</g>
<!-- CategoryScheme&#45;&gt;CategoryProperties -->
<g id="edge13" class="edge"><title>CategoryScheme&#45;&gt;CategoryProperties</title>
<path fill="none" stroke="black" d="M97.8087,-278.55C134.765,-268.566 195.008,-252.291 248.708,-237.784"/>
<text text-anchor="middle" x="190.156" y="-269.6" font-family="Times New Roman,serif" font-size="8.00">CategoryReference</text>
<text text-anchor="middle" x="240.708" y="-231.384" font-family="Times New Roman,serif" font-size="8.00">0...*</text>
<text text-anchor="middle" x="105.809" y="-272.15" font-family="Times New Roman,serif" font-size="8.00">0...*</text>
</g>
<!-- AnchorType -->
<g id="ReusableTypeAnchorType1" class="node"><title></title><ellipse fill="#f7b733" stroke="black" cx="61.8279" cy="-234" rx="35.3371" ry="18" style="filter: url(#dropshadow)"/>
<text text-anchor="middle" x="61.8279" y="-232.1" font-family="Times New Roman,serif" font-size="8.00">AnchorType</text>
</g>
<!-- AnchorType&#45;&gt;CategoryProperties -->
<g id="edge14" class="edge"><title>AnchorType&#45;&gt;CategoryProperties</title>
<path fill="none" stroke="black" d="M96.6391,-230.955C133.574,-227.629 194.737,-222.121 249.108,-217.225"/>
<text text-anchor="middle" x="190.156" y="-229.6" font-family="Times New Roman,serif" font-size="8.00">CategoryReference</text>
<text text-anchor="middle" x="241.108" y="-210.825" font-family="Times New Roman,serif" font-size="8.00">0...*</text>
<text text-anchor="middle" x="104.639" y="-224.555" font-family="Times New Roman,serif" font-size="8.00">0...*</text>
</g>
<!-- AttachmentLocationType -->
<g id="ReusableTypeAttachmentLocationType2" class="node"><title></title><ellipse fill="#f7b733" stroke="black" cx="61.8279" cy="-180" rx="61.6562" ry="18" style="filter: url(#dropshadow)"/>
<text text-anchor="middle" x="61.8279" y="-178.1" font-family="Times New Roman,serif" font-size="8.00">AttachmentLocationType</text>
</g>
<!-- AttachmentLocationType&#45;&gt;CategoryProperties -->
<g id="edge15" class="edge"><title>AttachmentLocationType&#45;&gt;CategoryProperties</title>
<path fill="none" stroke="black" d="M120.993,-185.238C157.295,-188.507 205.259,-192.826 248.882,-196.754"/>
<text text-anchor="middle" x="190.156" y="-198.6" font-family="Times New Roman,serif" font-size="8.00">CategoryReference</text>
<text text-anchor="middle" x="240.882" y="-190.354" font-family="Times New Roman,serif" font-size="8.00">0...*</text>
<text text-anchor="middle" x="128.993" y="-178.838" font-family="Times New Roman,serif" font-size="8.00">0...*</text>
</g>
<!-- CodeType -->
<g id="ReusableTypeCodeType3" class="node"><title></title><ellipse fill="#f7b733" stroke="black" cx="61.8279" cy="-126" rx="30.1263" ry="18" style="filter: url(#dropshadow)"/>
<text text-anchor="middle" x="61.8279" y="-124.1" font-family="Times New Roman,serif" font-size="8.00">CodeType</text>
</g>
<!-- CodeType&#45;&gt;CategoryProperties -->
<g id="edge16" class="edge"><title>CodeType&#45;&gt;CategoryProperties</title>
<path fill="none" stroke="black" d="M89.4356,-133.188C125.17,-142.842 190.895,-160.598 248.927,-176.276"/>
<text text-anchor="middle" x="190.156" y="-174.6" font-family="Times New Roman,serif" font-size="8.00">CategoryReference</text>
<text text-anchor="middle" x="240.927" y="-169.876" font-family="Times New Roman,serif" font-size="8.00">0...*</text>
<text text-anchor="middle" x="97.4356" y="-126.788" font-family="Times New Roman,serif" font-size="8.00">0...*</text>
</g>
<!-- CohortType -->
<g id="ReusableTypeCohortType4" class="node"><title></title><ellipse fill="#f7b733" stroke="black" cx="61.8279" cy="-72" rx="34.0674" ry="18" style="filter: url(#dropshadow)"/>
<text text-anchor="middle" x="61.8279" y="-70.1" font-family="Times New Roman,serif" font-size="8.00">CohortType</text>
</g>
<!-- CohortType&#45;&gt;CategoryProperties -->
<g id="edge17" class="edge"><title>CohortType&#45;&gt;CategoryProperties</title>
<path fill="none" stroke="black" d="M91.7882,-80.5906C127.173,-91.4901 188.52,-111.699 238.656,-135 242.218,-136.656 245.813,-138.381 249.422,-140.161"/>
<text text-anchor="middle" x="190.156" y="-137.6" font-family="Times New Roman,serif" font-size="8.00">CategoryReference</text>
<text text-anchor="middle" x="241.422" y="-133.761" font-family="Times New Roman,serif" font-size="8.00">0...*</text>
<text text-anchor="middle" x="99.7882" y="-74.1906" font-family="Times New Roman,serif" font-size="8.00">0...*</text>
</g>
<!-- GenerationType -->
<g id="ReusableTypeGenerationType5" class="node"><title></title><ellipse fill="#f7b733" stroke="black" cx="61.8279" cy="-18" rx="41.9498" ry="18" style="filter: url(#dropshadow)"/>
<text text-anchor="middle" x="61.8279" y="-16.1" font-family="Times New Roman,serif" font-size="8.00">GenerationType</text>
</g>
<!-- GenerationType&#45;&gt;CategoryProperties -->
<g id="edge18" class="edge"><title>GenerationType&#45;&gt;CategoryProperties</title>
<path fill="none" stroke="black" d="M98.5241,-26.9033C135.54,-37.176 194.121,-56.4128 238.656,-85 262.408,-100.247 285.343,-120.621 304.893,-140.346"/>
<text text-anchor="middle" x="190.156" y="-87.6" font-family="Times New Roman,serif" font-size="8.00">ComponentReference</text>
<text text-anchor="middle" x="296.893" y="-133.946" font-family="Times New Roman,serif" font-size="8.00">0...*</text>
<text text-anchor="middle" x="106.524" y="-20.5033" font-family="Times New Roman,serif" font-size="8.00">0...*</text>
</g>
</g>
</svg>
