<?xml version="1.0" encoding="UTF-8" standalone="no"?>
<!DOCTYPE svg PUBLIC "-//W3C//DTD SVG 1.1//EN"
 "http://www.w3.org/Graphics/SVG/1.1/DTD/svg11.dtd">
<!-- Generated by graphviz version 2.38.0 (20140413.2041)
 -->
<!-- Title: G Pages: 1 -->
<svg width="898pt" height="476pt"
 viewBox="0.00 0.00 898.15 476.00" xmlns="http://www.w3.org/2000/svg" xmlns:xlink="http://www.w3.org/1999/xlink">
<filter id = "dropshadow" height = "130%" ><feGaussianBlur in= "SourceAlpha" stdDeviation = "3"/><!--stdDeviation is how much to blur--><feOffset dx = "2" dy = "2" result = "offsetblur"/><!--how much to offset--><feMerge><feMergeNode/><!--this contains the offset blurred image--><feMergeNode in= "SourceGraphic"/><!--this contains the element that the filter is applied to --></feMerge></filter>
<g id="graph0" class="graph" transform="scale(1 1) rotate(0) translate(4 472)">
<title>G</title>
<g id="clust1" class="cluster"><title>clusterCategoryScheme</title>
<polygon fill="#4abdac" stroke="black" points="274.152,-194 274.152,-393 882.152,-393 882.152,-194 274.152,-194" style="filter: url(#dropshadow)"/>
<text text-anchor="middle" x="578.152" y="-382.6" font-family="Times New Roman,serif" font-size="8.00">CategoryScheme</text>
</g>
<!-- CategorySchemeProperties -->
<g id="ItemTypeCategorySchemeProperties" class="node"><title></title><polygon fill="#f7b733" stroke="black" points="282.152,-203 282.152,-265 532.152,-265 532.152,-203 282.152,-203" style="filter: url(#dropshadow)"/>
<text text-anchor="middle" x="308.652" y="-232.1" font-family="Times New Roman,serif" font-size="8.00">Properties</text>
<polyline fill="none" stroke="black" points="335.152,-203 335.152,-265 "/>
<text text-anchor="start" x="343.152" y="-254.6" font-family="Times New Roman,serif" font-size="8.00">CategorySchemeName : NameType[0...n] </text>
<text text-anchor="start" x="343.152" y="-245.6" font-family="Times New Roman,serif" font-size="8.00">Label : LabelType[0...n] </text>
<text text-anchor="start" x="343.152" y="-236.6" font-family="Times New Roman,serif" font-size="8.00">Description : StructuredStringType[0...1] </text>
<text text-anchor="start" x="343.152" y="-227.6" font-family="Times New Roman,serif" font-size="8.00">CategorySchemeReference : CategoryScheme[0...n] </text>
<text text-anchor="start" x="343.152" y="-218.6" font-family="Times New Roman,serif" font-size="8.00">CategoryReference : Category[0...n] </text>
<text text-anchor="start" x="343.152" y="-209.6" font-family="Times New Roman,serif" font-size="8.00">CategoryGroupReference : CategoryGroup[0...n] </text>
</g>
<!-- CategorySchemeProperties&#45;&gt;CategorySchemeProperties -->
<g id="edge7" class="edge"><title>CategorySchemeProperties&#45;&gt;CategorySchemeProperties</title>
<path fill="none" stroke="black" d="M371.91,-265.419C372.272,-275.506 384.019,-283.5 407.152,-283.5 430.284,-283.5 442.032,-275.506 442.393,-265.419"/>
<text text-anchor="middle" x="407.152" y="-286.1" font-family="Times New Roman,serif" font-size="8.00">CategorySchemeReference</text>
<text text-anchor="middle" x="434.393" y="-268.019" font-family="Times New Roman,serif" font-size="8.00">0...*</text>
<text text-anchor="middle" x="363.91" y="-268.019" font-family="Times New Roman,serif" font-size="8.00">0...*</text>
</g>
<!-- CategorySchemeNameType -->
<g id="ReusableTypeCategorySchemeNameType" class="node"><title></title><polygon fill="#fc4a1a" stroke="black" points="683.152,-203 683.152,-239 852.152,-239 852.152,-203 683.152,-203" style="filter: url(#dropshadow)"/>
<text text-anchor="middle" x="711.152" y="-219.1" font-family="Times New Roman,serif" font-size="8.00">NameType</text>
<polyline fill="none" stroke="black" points="739.152,-203 739.152,-239 "/>
<text text-anchor="start" x="747.152" y="-223.6" font-family="Times New Roman,serif" font-size="8.00">IsPreferred : boolean[0...1] </text>
<text text-anchor="start" x="747.152" y="-214.6" font-family="Times New Roman,serif" font-size="8.00">Context : string[0...1] </text>
</g>
<!-- CategorySchemeProperties&#45;&gt;CategorySchemeNameType -->
<g id="edge1" class="edge"><title>CategorySchemeProperties&#45;&gt;CategorySchemeNameType</title>
<path fill="none" stroke="black" d="M532.28,-229.499C582.049,-227.694 638.097,-225.662 682.902,-224.037"/>
<text text-anchor="middle" x="596.652" y="-231.6" font-family="Times New Roman,serif" font-size="8.00">CategorySchemeName</text>
</g>
<!-- CategorySchemeLabelType -->
<g id="ReusableTypeCategorySchemeLabelType" class="node"><title></title><polygon fill="#fc4a1a" stroke="black" points="662.152,-258.5 662.152,-311.5 873.152,-311.5 873.152,-258.5 662.152,-258.5" style="filter: url(#dropshadow)"/>
<text text-anchor="middle" x="689.152" y="-283.1" font-family="Times New Roman,serif" font-size="8.00">LabelType</text>
<polyline fill="none" stroke="black" points="716.152,-258.5 716.152,-311.5 "/>
<text text-anchor="start" x="724.152" y="-301.1" font-family="Times New Roman,serif" font-size="8.00">TypeOfLabel : CodeValueType[0...1] </text>
<text text-anchor="start" x="724.152" y="-292.1" font-family="Times New Roman,serif" font-size="8.00">LocationVariant : string[0...1] </text>
<text text-anchor="start" x="724.152" y="-283.1" font-family="Times New Roman,serif" font-size="8.00">ValidForStartDate : cogsDate[0...1] </text>
<text text-anchor="start" x="724.152" y="-274.1" font-family="Times New Roman,serif" font-size="8.00">ValidForEndDate : cogsDate[0...1] </text>
<text text-anchor="start" x="724.152" y="-265.1" font-family="Times New Roman,serif" font-size="8.00">MaxLength : nonNegativeInteger[0...1] </text>
</g>
<!-- CategorySchemeProperties&#45;&gt;CategorySchemeLabelType -->
<g id="edge2" class="edge"><title>CategorySchemeProperties&#45;&gt;CategorySchemeLabelType</title>
<path fill="none" stroke="black" d="M532.28,-251.658C574.563,-257.674 621.379,-264.334 661.982,-270.11"/>
<text text-anchor="middle" x="596.652" y="-270.6" font-family="Times New Roman,serif" font-size="8.00">Label</text>
</g>
<!-- CategorySchemeStructuredStringType -->
<g id="ReusableTypeCategorySchemeStructuredStringType" class="node"><title></title><polygon fill="#fc4a1a" stroke="black" points="661.152,-331 661.152,-367 874.152,-367 874.152,-331 661.152,-331" style="filter: url(#dropshadow)"/>
<text text-anchor="middle" x="706.152" y="-347.1" font-family="Times New Roman,serif" font-size="8.00">StructuredStringType</text>
<polyline fill="none" stroke="black" points="751.152,-331 751.152,-367 "/>
<text text-anchor="start" x="759.152" y="-347.1" font-family="Times New Roman,serif" font-size="8.00">Content : ContentType[0...n] </text>
</g>
<!-- CategorySchemeProperties&#45;&gt;CategorySchemeStructuredStringType -->
<g id="edge3" class="edge"><title>CategorySchemeProperties&#45;&gt;CategorySchemeStructuredStringType</title>
<path fill="none" stroke="black" d="M493.432,-265.034C542.257,-282.371 604.827,-303.866 661.152,-321 672.301,-324.392 684.183,-327.77 695.801,-330.945"/>
<text text-anchor="middle" x="596.652" y="-317.6" font-family="Times New Roman,serif" font-size="8.00">Description</text>
</g>
<!-- CategoryScheme -->
<g id="ItemTypeCategoryScheme" class="node"><title></title><ellipse fill="#f7b733" stroke="black" cx="767.652" cy="-166" rx="41.9498" ry="18" style="filter: url(#dropshadow)"/>
<text text-anchor="middle" x="767.652" y="-164.1" font-family="Times New Roman,serif" font-size="8.00">CategoryScheme</text>
</g>
<!-- CategorySchemeProperties&#45;&gt;CategoryScheme -->
<g id="edge4" class="edge"><title>CategorySchemeProperties&#45;&gt;CategoryScheme</title>
<path fill="none" stroke="black" d="M532.28,-210.455C601.268,-197.37 682.324,-181.995 728.771,-173.185"/>
<text text-anchor="middle" x="596.652" y="-209.6" font-family="Times New Roman,serif" font-size="8.00">CategorySchemeReference</text>
<text text-anchor="middle" x="720.771" y="-166.785" font-family="Times New Roman,serif" font-size="8.00">0...*</text>
<text text-anchor="middle" x="540.28" y="-204.055" font-family="Times New Roman,serif" font-size="8.00">0...*</text>
</g>
<!-- Category -->
<g id="ItemTypeCategory" class="node"><title></title><ellipse fill="#f7b733" stroke="black" cx="767.652" cy="-112" rx="27.4558" ry="18" style="filter: url(#dropshadow)"/>
<text text-anchor="middle" x="767.652" y="-110.1" font-family="Times New Roman,serif" font-size="8.00">Category</text>
</g>
<!-- CategorySchemeProperties&#45;&gt;Category -->
<g id="edge5" class="edge"><title>CategorySchemeProperties&#45;&gt;Category</title>
<path fill="none" stroke="black" d="M482.505,-202.983C532.429,-182.928 600.011,-157.258 661.152,-139 688.506,-130.831 720.296,-122.905 741.772,-117.778"/>
<text text-anchor="middle" x="596.652" y="-177.6" font-family="Times New Roman,serif" font-size="8.00">CategoryReference</text>
<text text-anchor="middle" x="733.772" y="-111.378" font-family="Times New Roman,serif" font-size="8.00">0...*</text>
<text text-anchor="middle" x="474.505" y="-196.583" font-family="Times New Roman,serif" font-size="8.00">0...*</text>
</g>
<!-- CategoryGroup -->
<g id="ItemTypeCategoryGroup" class="node"><title></title><ellipse fill="#f7b733" stroke="black" cx="767.652" cy="-58" rx="39.278" ry="18" style="filter: url(#dropshadow)"/>
<text text-anchor="middle" x="767.652" y="-56.1" font-family="Times New Roman,serif" font-size="8.00">CategoryGroup</text>
</g>
<!-- CategorySchemeProperties&#45;&gt;CategoryGroup -->
<g id="edge6" class="edge"><title>CategorySchemeProperties&#45;&gt;CategoryGroup</title>
<path fill="none" stroke="black" d="M447.066,-202.931C474.802,-181.648 513.517,-153.646 550.152,-133 596.976,-106.611 610.292,-102.384 661.152,-85 684.23,-77.1119 710.838,-70.3177 731.559,-65.5178"/>
<text text-anchor="middle" x="596.652" y="-135.6" font-family="Times New Roman,serif" font-size="8.00">CategoryGroupReference</text>
<text text-anchor="middle" x="723.559" y="-59.1178" font-family="Times New Roman,serif" font-size="8.00">0...*</text>
<text text-anchor="middle" x="439.066" y="-196.531" font-family="Times New Roman,serif" font-size="8.00">0...*</text>
</g>
<!-- CodeList -->
<g id="ItemTypeCodeList" class="node"><title></title><ellipse fill="#f7b733" stroke="black" cx="76.5758" cy="-450" rx="27" ry="18" style="filter: url(#dropshadow)"/>
<text text-anchor="middle" x="76.5758" y="-448.1" font-family="Times New Roman,serif" font-size="8.00">CodeList</text>
</g>
<!-- CodeList&#45;&gt;CategorySchemeProperties -->
<g id="edge8" class="edge"><title>CodeList&#45;&gt;CategorySchemeProperties</title>
<path fill="none" stroke="black" d="M100.857,-442.07C115.866,-436.863 135.757,-429.783 153.152,-423 203.064,-403.536 219.724,-405.938 264.152,-376 267.606,-373.672 271.048,-371.252 274.47,-368.753"/>
<text text-anchor="middle" x="217.652" y="-418.6" font-family="Times New Roman,serif" font-size="8.00">CategorySchemeReference</text>
<text text-anchor="middle" x="282.47" y="-362.353" font-family="Times New Roman,serif" font-size="8.00">0...*</text>
<text text-anchor="middle" x="108.857" y="-435.67" font-family="Times New Roman,serif" font-size="8.00">0...*</text>
</g>
<!-- ConceptualVariable -->
<g id="ItemTypeConceptualVariable" class="node"><title></title><ellipse fill="#f7b733" stroke="black" cx="76.5758" cy="-396" rx="47.16" ry="18" style="filter: url(#dropshadow)"/>
<text text-anchor="middle" x="76.5758" y="-394.1" font-family="Times New Roman,serif" font-size="8.00">ConceptualVariable</text>
</g>
<!-- ConceptualVariable&#45;&gt;CategorySchemeProperties -->
<g id="edge9" class="edge"><title>ConceptualVariable&#45;&gt;CategorySchemeProperties</title>
<path fill="none" stroke="black" d="M111.84,-383.846C124.794,-379.228 139.663,-373.9 153.152,-369 202.582,-351.042 217.246,-351.784 264.152,-328 267.489,-326.308 270.843,-324.553 274.205,-322.746"/>
<text text-anchor="middle" x="217.652" y="-365.6" font-family="Times New Roman,serif" font-size="8.00">CategorySchemeReference</text>
<text text-anchor="middle" x="282.205" y="-316.346" font-family="Times New Roman,serif" font-size="8.00">0...*</text>
<text text-anchor="middle" x="119.84" y="-377.446" font-family="Times New Roman,serif" font-size="8.00">0...*</text>
</g>
<!-- LogicalProduct -->
<g id="ItemTypeLogicalProduct0" class="node"><title></title><ellipse fill="#f7b733" stroke="black" cx="76.5758" cy="-342" rx="39.278" ry="18" style="filter: url(#dropshadow)"/>
<text text-anchor="middle" x="76.5758" y="-340.1" font-family="Times New Roman,serif" font-size="8.00">LogicalProduct</text>
</g>
<!-- LogicalProduct&#45;&gt;CategorySchemeProperties -->
<g id="edge10" class="edge"><title>LogicalProduct&#45;&gt;CategorySchemeProperties</title>
<path fill="none" stroke="black" d="M110.453,-332.773C147.871,-322.123 210.724,-303.783 264.152,-286 267.491,-284.888 270.87,-283.751 274.276,-282.593"/>
<text text-anchor="middle" x="217.652" y="-317.6" font-family="Times New Roman,serif" font-size="8.00">CategorySchemeReference</text>
<text text-anchor="middle" x="282.276" y="-276.193" font-family="Times New Roman,serif" font-size="8.00">0...*</text>
<text text-anchor="middle" x="118.453" y="-326.373" font-family="Times New Roman,serif" font-size="8.00">0...*</text>
</g>
<!-- ManagedRepresentationGroup -->
<g id="ItemTypeManagedRepresentationGroup1" class="node"><title></title><ellipse fill="#f7b733" stroke="black" cx="76.5758" cy="-288" rx="68.7695" ry="18" style="filter: url(#dropshadow)"/>
<text text-anchor="middle" x="76.5758" y="-286.1" font-family="Times New Roman,serif" font-size="8.00">ManagedRepresentationGroup</text>
</g>
<!-- ManagedRepresentationGroup&#45;&gt;CategorySchemeProperties -->
<g id="edge11" class="edge"><title>ManagedRepresentationGroup&#45;&gt;CategorySchemeProperties</title>
<path fill="none" stroke="black" d="M135.185,-278.532C173.708,-272.201 226.017,-263.604 274.403,-255.652"/>
<text text-anchor="middle" x="217.652" y="-275.6" font-family="Times New Roman,serif" font-size="8.00">CategorySchemeReference</text>
<text text-anchor="middle" x="266.403" y="-249.252" font-family="Times New Roman,serif" font-size="8.00">0...*</text>
<text text-anchor="middle" x="143.185" y="-272.132" font-family="Times New Roman,serif" font-size="8.00">0...*</text>
</g>
<!-- RepresentedVariable -->
<g id="ItemTypeRepresentedVariable2" class="node"><title></title><ellipse fill="#f7b733" stroke="black" cx="76.5758" cy="-234" rx="48.5642" ry="18" style="filter: url(#dropshadow)"/>
<text text-anchor="middle" x="76.5758" y="-232.1" font-family="Times New Roman,serif" font-size="8.00">RepresentedVariable</text>
</g>
<!-- RepresentedVariable&#45;&gt;CategorySchemeProperties -->
<g id="edge12" class="edge"><title>RepresentedVariable&#45;&gt;CategorySchemeProperties</title>
<path fill="none" stroke="black" d="M125.705,-234C164.782,-234 221.808,-234 274.25,-234"/>
<text text-anchor="middle" x="217.652" y="-236.6" font-family="Times New Roman,serif" font-size="8.00">CategorySchemeReference</text>
<text text-anchor="middle" x="266.25" y="-227.6" font-family="Times New Roman,serif" font-size="8.00">0...*</text>
<text text-anchor="middle" x="133.705" y="-227.6" font-family="Times New Roman,serif" font-size="8.00">0...*</text>
</g>
<!-- ResourcePackage -->
<g id="ItemTypeResourcePackage3" class="node"><title></title><ellipse fill="#f7b733" stroke="black" cx="76.5758" cy="-180" rx="43.219" ry="18" style="filter: url(#dropshadow)"/>
<text text-anchor="middle" x="76.5758" y="-178.1" font-family="Times New Roman,serif" font-size="8.00">ResourcePackage</text>
</g>
<!-- ResourcePackage&#45;&gt;CategorySchemeProperties -->
<g id="edge13" class="edge"><title>ResourcePackage&#45;&gt;CategorySchemeProperties</title>
<path fill="none" stroke="black" d="M116.883,-186.46C155.846,-192.863 217.727,-203.033 274.274,-212.326"/>
<text text-anchor="middle" x="217.652" y="-213.6" font-family="Times New Roman,serif" font-size="8.00">CategorySchemeReference</text>
<text text-anchor="middle" x="266.274" y="-205.926" font-family="Times New Roman,serif" font-size="8.00">0...*</text>
<text text-anchor="middle" x="124.883" y="-180.06" font-family="Times New Roman,serif" font-size="8.00">0...*</text>
</g>
<!-- CategoryRepresentationBaseType -->
<g id="ReusableTypeCategoryRepresentationBaseType4" class="node"><title></title><ellipse fill="#f7b733" stroke="black" cx="76.5758" cy="-126" rx="76.6517" ry="18" style="filter: url(#dropshadow)"/>
<text text-anchor="middle" x="76.5758" y="-124.1" font-family="Times New Roman,serif" font-size="8.00">CategoryRepresentationBaseType</text>
</g>
<!-- CategoryRepresentationBaseType&#45;&gt;CategorySchemeProperties -->
<g id="edge14" class="edge"><title>CategoryRepresentationBaseType&#45;&gt;CategorySchemeProperties</title>
<path fill="none" stroke="black" d="M125.322,-139.895C163.137,-151.066 217.223,-167.414 264.152,-183 274.709,-186.506 285.672,-190.253 296.614,-194.063"/>
<text text-anchor="middle" x="217.652" y="-185.6" font-family="Times New Roman,serif" font-size="8.00">CategorySchemeReference</text>
<text text-anchor="middle" x="288.614" y="-187.663" font-family="Times New Roman,serif" font-size="8.00">0...*</text>
<text text-anchor="middle" x="117.322" y="-142.495" font-family="Times New Roman,serif" font-size="8.00">0...*</text>
</g>
<!-- SourceRepresentationType -->
<g id="ReusableTypeSourceRepresentationType5" class="node"><title></title><ellipse fill="#f7b733" stroke="black" cx="76.5758" cy="-72" rx="62.2904" ry="18" style="filter: url(#dropshadow)"/>
<text text-anchor="middle" x="76.5758" y="-70.1" font-family="Times New Roman,serif" font-size="8.00">SourceRepresentationType</text>
</g>
<!-- SourceRepresentationType&#45;&gt;CategorySchemeProperties -->
<g id="edge15" class="edge"><title>SourceRepresentationType&#45;&gt;CategorySchemeProperties</title>
<path fill="none" stroke="black" d="M116.873,-85.8169C128.57,-89.9896 141.4,-94.6254 153.152,-99 202.733,-117.457 217.036,-117.934 264.152,-142 293.939,-157.215 325.321,-177.096 350.987,-194.483"/>
<text text-anchor="middle" x="217.652" y="-144.6" font-family="Times New Roman,serif" font-size="8.00">CategorySchemeReference</text>
<text text-anchor="middle" x="342.987" y="-188.083" font-family="Times New Roman,serif" font-size="8.00">0...*</text>
<text text-anchor="middle" x="108.873" y="-88.4169" font-family="Times New Roman,serif" font-size="8.00">0...*</text>
</g>
<!-- TargetRepresentationType -->
<g id="ReusableTypeTargetRepresentationType6" class="node"><title></title><ellipse fill="#f7b733" stroke="black" cx="76.5758" cy="-18" rx="62.9247" ry="18" style="filter: url(#dropshadow)"/>
<text text-anchor="middle" x="76.5758" y="-16.1" font-family="Times New Roman,serif" font-size="8.00">TargetRepresentationType</text>
</g>
<!-- TargetRepresentationType&#45;&gt;CategorySchemeProperties -->
<g id="edge16" class="edge"><title>TargetRepresentationType&#45;&gt;CategorySchemeProperties</title>
<path fill="none" stroke="black" d="M117.764,-31.8106C129.251,-35.9058 141.745,-40.5019 153.152,-45 203.152,-64.7184 219.64,-62.8733 264.152,-93 306.361,-121.569 346.827,-163.7 373.686,-194.466"/>
<text text-anchor="middle" x="217.652" y="-95.6" font-family="Times New Roman,serif" font-size="8.00">CategorySchemeReference</text>
<text text-anchor="middle" x="365.686" y="-188.066" font-family="Times New Roman,serif" font-size="8.00">0...*</text>
<text text-anchor="middle" x="109.764" y="-34.4106" font-family="Times New Roman,serif" font-size="8.00">0...*</text>
</g>
</g>
</svg>
