<?xml version="1.0" encoding="UTF-8" standalone="no"?>
<!DOCTYPE svg PUBLIC "-//W3C//DTD SVG 1.1//EN"
 "http://www.w3.org/Graphics/SVG/1.1/DTD/svg11.dtd">
<!-- Generated by graphviz version 2.38.0 (20140413.2041)
 -->
<!-- Title: G Pages: 1 -->
<svg width="1211pt" height="541pt"
 viewBox="0.00 0.00 1211.22 541.00" xmlns="http://www.w3.org/2000/svg" xmlns:xlink="http://www.w3.org/1999/xlink">
<filter id = "dropshadow" height = "130%" ><feGaussianBlur in= "SourceAlpha" stdDeviation = "3"/><!--stdDeviation is how much to blur--><feOffset dx = "2" dy = "2" result = "offsetblur"/><!--how much to offset--><feMerge><feMergeNode/><!--this contains the offset blurred image--><feMergeNode in= "SourceGraphic"/><!--this contains the element that the filter is applied to --></feMerge></filter>
<g id="graph0" class="graph" transform="scale(1 1) rotate(0) translate(4 537)">
<title>G</title>
<g id="clust1" class="cluster"><title>clusterCitationType</title>
<polygon fill="#4abdac" stroke="black" points="143.219,-98 143.219,-525 1195.22,-525 1195.22,-98 143.219,-98" style="filter: url(#dropshadow)"/>
<text text-anchor="middle" x="669.219" y="-514.6" font-family="Times New Roman,serif" font-size="8.00">CitationType</text>
</g>
<!-- CitationTypeProperties -->
<g id="ReusableTypeCitationTypeProperties" class="node"><title></title><polygon fill="#f7b733" stroke="black" points="151.219,-236.5 151.219,-343.5 426.219,-343.5 426.219,-236.5 151.219,-236.5" style="filter: url(#dropshadow)"/>
<text text-anchor="middle" x="177.719" y="-288.1" font-family="Times New Roman,serif" font-size="8.00">Properties</text>
<polyline fill="none" stroke="black" points="204.219,-236.5 204.219,-343.5 "/>
<text text-anchor="start" x="212.219" y="-333.1" font-family="Times New Roman,serif" font-size="8.00">Title : InternationalStringType[0...1] </text>
<text text-anchor="start" x="212.219" y="-324.1" font-family="Times New Roman,serif" font-size="8.00">SubTitle : InternationalStringType[0...n] </text>
<text text-anchor="start" x="212.219" y="-315.1" font-family="Times New Roman,serif" font-size="8.00">AlternateTitle : InternationalStringType[0...n] </text>
<text text-anchor="start" x="212.219" y="-306.1" font-family="Times New Roman,serif" font-size="8.00">Creator : CreatorType[0...n] </text>
<text text-anchor="start" x="212.219" y="-297.1" font-family="Times New Roman,serif" font-size="8.00">Publisher : PublisherType[0...n] </text>
<text text-anchor="start" x="212.219" y="-288.1" font-family="Times New Roman,serif" font-size="8.00">Contributor : ContributorType[0...n] </text>
<text text-anchor="start" x="212.219" y="-279.1" font-family="Times New Roman,serif" font-size="8.00">PublicationDate : DateType[0...1] </text>
<text text-anchor="start" x="212.219" y="-270.1" font-family="Times New Roman,serif" font-size="8.00">Language : CodeValueType[0...n] </text>
<text text-anchor="start" x="212.219" y="-261.1" font-family="Times New Roman,serif" font-size="8.00">InternationalIdentifier : InternationalIdentifierType[0...n] </text>
<text text-anchor="start" x="212.219" y="-252.1" font-family="Times New Roman,serif" font-size="8.00">Copyright : InternationalStringType[0...n] </text>
<text text-anchor="start" x="212.219" y="-243.1" font-family="Times New Roman,serif" font-size="8.00">DcTerms : DcTerms[0...n] </text>
</g>
<!-- CitationTypeInternationalStringType -->
<g id="ReusableTypeCitationTypeInternationalStringType" class="node"><title></title><polygon fill="#fc4a1a" stroke="black" points="574.719,-107 574.719,-143 782.719,-143 782.719,-107 574.719,-107" style="filter: url(#dropshadow)"/>
<text text-anchor="middle" x="625.219" y="-123.1" font-family="Times New Roman,serif" font-size="8.00">InternationalStringType</text>
<polyline fill="none" stroke="black" points="675.719,-107 675.719,-143 "/>
<text text-anchor="start" x="683.719" y="-123.1" font-family="Times New Roman,serif" font-size="8.00">String : StringType[0...n] </text>
</g>
<!-- CitationTypeProperties&#45;&gt;CitationTypeInternationalStringType -->
<g id="edge1" class="edge"><title>CitationTypeProperties&#45;&gt;CitationTypeInternationalStringType</title>
<path fill="none" stroke="black" d="M370.196,-236.375C417.98,-207.001 480.855,-172.501 541.219,-152 551.855,-148.388 563.131,-145.197 574.463,-142.394"/>
<text text-anchor="middle" x="483.719" y="-195.6" font-family="Times New Roman,serif" font-size="8.00">Title</text>
</g>
<!-- CitationTypeCreatorType -->
<g id="ReusableTypeCitationTypeCreatorType" class="node"><title></title><polygon fill="#fc4a1a" stroke="black" points="558.219,-162 558.219,-198 799.219,-198 799.219,-162 558.219,-162" style="filter: url(#dropshadow)"/>
<text text-anchor="middle" x="589.219" y="-178.1" font-family="Times New Roman,serif" font-size="8.00">CreatorType</text>
<polyline fill="none" stroke="black" points="620.219,-162 620.219,-198 "/>
<text text-anchor="start" x="628.219" y="-182.6" font-family="Times New Roman,serif" font-size="8.00">CreatorName : BibliographicNameType[0...1] </text>
<text text-anchor="start" x="628.219" y="-173.6" font-family="Times New Roman,serif" font-size="8.00">CreatorReference : Individual[0...1] </text>
</g>
<!-- CitationTypeProperties&#45;&gt;CitationTypeCreatorType -->
<g id="edge2" class="edge"><title>CitationTypeProperties&#45;&gt;CitationTypeCreatorType</title>
<path fill="none" stroke="black" d="M426.512,-241.457C463.471,-229.276 503.642,-216.876 541.219,-207 553.368,-203.807 566.213,-200.797 578.971,-198.027"/>
<text text-anchor="middle" x="483.719" y="-236.6" font-family="Times New Roman,serif" font-size="8.00">Creator</text>
</g>
<!-- CitationTypePublisherType -->
<g id="ReusableTypeCitationTypePublisherType" class="node"><title></title><polygon fill="#fc4a1a" stroke="black" points="553.219,-217 553.219,-253 804.219,-253 804.219,-217 553.219,-217" style="filter: url(#dropshadow)"/>
<text text-anchor="middle" x="586.719" y="-233.1" font-family="Times New Roman,serif" font-size="8.00">PublisherType</text>
<polyline fill="none" stroke="black" points="620.219,-217 620.219,-253 "/>
<text text-anchor="start" x="628.219" y="-242.1" font-family="Times New Roman,serif" font-size="8.00">PublisherName : BibliographicNameType[0...1] </text>
<text text-anchor="start" x="628.219" y="-233.1" font-family="Times New Roman,serif" font-size="8.00">PublisherRole : CodeValueType[0...n] </text>
<text text-anchor="start" x="628.219" y="-224.1" font-family="Times New Roman,serif" font-size="8.00">PublisherReference : Organization[0...1] </text>
</g>
<!-- CitationTypeProperties&#45;&gt;CitationTypePublisherType -->
<g id="edge3" class="edge"><title>CitationTypeProperties&#45;&gt;CitationTypePublisherType</title>
<path fill="none" stroke="black" d="M426.24,-270.648C467.493,-264.8 512.557,-258.412 552.998,-252.68"/>
<text text-anchor="middle" x="483.719" y="-270.6" font-family="Times New Roman,serif" font-size="8.00">Publisher</text>
</g>
<!-- CitationTypeContributorType -->
<g id="ReusableTypeCitationTypeContributorType" class="node"><title></title><polygon fill="#fc4a1a" stroke="black" points="544.219,-272 544.219,-308 813.219,-308 813.219,-272 544.219,-272" style="filter: url(#dropshadow)"/>
<text text-anchor="middle" x="582.219" y="-288.1" font-family="Times New Roman,serif" font-size="8.00">ContributorType</text>
<polyline fill="none" stroke="black" points="620.219,-272 620.219,-308 "/>
<text text-anchor="start" x="628.219" y="-297.1" font-family="Times New Roman,serif" font-size="8.00">ContributorName : BibliographicNameType[0...1] </text>
<text text-anchor="start" x="628.219" y="-288.1" font-family="Times New Roman,serif" font-size="8.00">ContributorRole : CodeValueType[0...n] </text>
<text text-anchor="start" x="628.219" y="-279.1" font-family="Times New Roman,serif" font-size="8.00">ContributorReference : Individual[0...1] </text>
</g>
<!-- CitationTypeProperties&#45;&gt;CitationTypeContributorType -->
<g id="edge4" class="edge"><title>CitationTypeProperties&#45;&gt;CitationTypeContributorType</title>
<path fill="none" stroke="black" d="M426.24,-290C464.437,-290 505.902,-290 543.938,-290"/>
<text text-anchor="middle" x="483.719" y="-292.6" font-family="Times New Roman,serif" font-size="8.00">Contributor</text>
</g>
<!-- CitationTypeDateType -->
<g id="ReusableTypeCitationTypeDateType" class="node"><title></title><polygon fill="#fc4a1a" stroke="black" points="561.219,-327.5 561.219,-398.5 796.219,-398.5 796.219,-327.5 561.219,-327.5" style="filter: url(#dropshadow)"/>
<text text-anchor="middle" x="587.219" y="-361.1" font-family="Times New Roman,serif" font-size="8.00">DateType</text>
<polyline fill="none" stroke="black" points="613.219,-327.5 613.219,-398.5 "/>
<text text-anchor="start" x="621.219" y="-388.1" font-family="Times New Roman,serif" font-size="8.00">SimpleDate : cogsDate[0...1] </text>
<text text-anchor="start" x="621.219" y="-379.1" font-family="Times New Roman,serif" font-size="8.00">HistoricalDate : HistoricalDateType[0...1] </text>
<text text-anchor="start" x="621.219" y="-370.1" font-family="Times New Roman,serif" font-size="8.00">StartDate : cogsDate[0...1] </text>
<text text-anchor="start" x="621.219" y="-361.1" font-family="Times New Roman,serif" font-size="8.00">HistoricalStartDate : HistoricalDateType[0...1] </text>
<text text-anchor="start" x="621.219" y="-352.1" font-family="Times New Roman,serif" font-size="8.00">EndDate : cogsDate[0...1] </text>
<text text-anchor="start" x="621.219" y="-343.1" font-family="Times New Roman,serif" font-size="8.00">HistoricalEndDate : HistoricalDateType[0...1] </text>
<text text-anchor="start" x="621.219" y="-334.1" font-family="Times New Roman,serif" font-size="8.00">Cycle : int[0...1] </text>
</g>
<!-- CitationTypeProperties&#45;&gt;CitationTypeDateType -->
<g id="edge5" class="edge"><title>CitationTypeProperties&#45;&gt;CitationTypeDateType</title>
<path fill="none" stroke="black" d="M426.24,-315.686C470.221,-323.961 518.535,-333.05 560.958,-341.032"/>
<text text-anchor="middle" x="483.719" y="-336.6" font-family="Times New Roman,serif" font-size="8.00">PublicationDate</text>
</g>
<!-- CitationTypeCodeValueType -->
<g id="ReusableTypeCitationTypeCodeValueType" class="node"><title></title><polygon fill="#fc4a1a" stroke="black" points="928.219,-359.5 928.219,-430.5 1187.22,-430.5 1187.22,-359.5 928.219,-359.5" style="filter: url(#dropshadow)"/>
<text text-anchor="middle" x="963.719" y="-393.1" font-family="Times New Roman,serif" font-size="8.00">CodeValueType</text>
<polyline fill="none" stroke="black" points="999.219,-359.5 999.219,-430.5 "/>
<text text-anchor="start" x="1007.22" y="-420.1" font-family="Times New Roman,serif" font-size="8.00">ControlledVocabularyID : string[0...1] </text>
<text text-anchor="start" x="1007.22" y="-411.1" font-family="Times New Roman,serif" font-size="8.00">ControlledVocabularyName : string[0...1] </text>
<text text-anchor="start" x="1007.22" y="-402.1" font-family="Times New Roman,serif" font-size="8.00">ControlledVocabularyAgencyName : string[0...1] </text>
<text text-anchor="start" x="1007.22" y="-393.1" font-family="Times New Roman,serif" font-size="8.00">ControlledVocabularyVersionID : string[0...1] </text>
<text text-anchor="start" x="1007.22" y="-384.1" font-family="Times New Roman,serif" font-size="8.00">OtherValue : string[0...1] </text>
<text text-anchor="start" x="1007.22" y="-375.1" font-family="Times New Roman,serif" font-size="8.00">ControlledVocabularyURN : string[0...1] </text>
<text text-anchor="start" x="1007.22" y="-366.1" font-family="Times New Roman,serif" font-size="8.00">ControlledVocabularySchemeURN : string[0...1] </text>
</g>
<!-- CitationTypeProperties&#45;&gt;CitationTypeCodeValueType -->
<g id="edge6" class="edge"><title>CitationTypeProperties&#45;&gt;CitationTypeCodeValueType</title>
<path fill="none" stroke="black" d="M378.833,-343.551C425.447,-368.469 484.494,-395.354 541.219,-408 670.65,-436.855 822.886,-427.966 928.204,-415.351"/>
<text text-anchor="middle" x="678.719" y="-429.6" font-family="Times New Roman,serif" font-size="8.00">Language</text>
</g>
<!-- CitationTypeInternationalIdentifierType -->
<g id="ReusableTypeCitationTypeInternationalIdentifierType" class="node"><title></title><polygon fill="#fc4a1a" stroke="black" points="541.219,-463 541.219,-499 816.219,-499 816.219,-463 541.219,-463" style="filter: url(#dropshadow)"/>
<text text-anchor="middle" x="597.719" y="-479.1" font-family="Times New Roman,serif" font-size="8.00">InternationalIdentifierType</text>
<polyline fill="none" stroke="black" points="654.219,-463 654.219,-499 "/>
<text text-anchor="start" x="662.219" y="-483.6" font-family="Times New Roman,serif" font-size="8.00">IdentifierContent : string[0...1] </text>
<text text-anchor="start" x="662.219" y="-474.6" font-family="Times New Roman,serif" font-size="8.00">ManagingAgency : CodeValueType[0...1] </text>
</g>
<!-- CitationTypeProperties&#45;&gt;CitationTypeInternationalIdentifierType -->
<g id="edge7" class="edge"><title>CitationTypeProperties&#45;&gt;CitationTypeInternationalIdentifierType</title>
<path fill="none" stroke="black" d="M330.829,-343.836C359.065,-376.884 399.439,-417.128 444.219,-440 473.908,-455.164 508.187,-464.837 541.177,-470.975"/>
<text text-anchor="middle" x="483.719" y="-467.6" font-family="Times New Roman,serif" font-size="8.00">InternationalIdentifier</text>
</g>
<!-- Individual -->
<g id="ItemTypeIndividual" class="node"><title></title><ellipse fill="#f7b733" stroke="black" cx="1057.72" cy="-72" rx="28.2235" ry="18" style="filter: url(#dropshadow)"/>
<text text-anchor="middle" x="1057.72" y="-70.1" font-family="Times New Roman,serif" font-size="8.00">Individual</text>
</g>
<!-- CitationTypeCreatorType&#45;&gt;Individual -->
<g id="edge8" class="edge"><title>CitationTypeCreatorType&#45;&gt;Individual</title>
<path fill="none" stroke="black" d="M799.22,-164.751C805.38,-161.204 811.118,-156.991 816.219,-152 841.957,-126.814 806.119,-95.521 834.219,-73 891.942,-26.7371 987.811,-49.1283 1032.46,-63.3481"/>
<text text-anchor="middle" x="872.219" y="-75.6" font-family="Times New Roman,serif" font-size="8.00">CreatorReference</text>
<text text-anchor="middle" x="1024.46" y="-56.9481" font-family="Times New Roman,serif" font-size="8.00">0...*</text>
<text text-anchor="middle" x="807.22" y="-158.351" font-family="Times New Roman,serif" font-size="8.00">0...*</text>
</g>
<!-- CitationTypePublisherType&#45;&gt;CitationTypeCodeValueType -->
<g id="edge9" class="edge"><title>CitationTypePublisherType&#45;&gt;CitationTypeCodeValueType</title>
<path fill="none" stroke="black" d="M787.122,-253.033C797.068,-255.662 806.902,-258.639 816.219,-262 884.664,-286.69 956.907,-329.161 1004.14,-359.467"/>
<text text-anchor="middle" x="872.219" y="-305.6" font-family="Times New Roman,serif" font-size="8.00">PublisherRole</text>
<text text-anchor="middle" x="996.135" y="-353.067" font-family="Times New Roman,serif" font-size="8.00">0...*</text>
<text text-anchor="middle" x="779.122" y="-255.633" font-family="Times New Roman,serif" font-size="8.00">0...*</text>
</g>
<!-- Organization -->
<g id="ItemTypeOrganization0" class="node"><title></title><ellipse fill="#f7b733" stroke="black" cx="1057.72" cy="-18" rx="35.3371" ry="18" style="filter: url(#dropshadow)"/>
<text text-anchor="middle" x="1057.72" y="-16.1" font-family="Times New Roman,serif" font-size="8.00">Organization</text>
</g>
<!-- CitationTypePublisherType&#45;&gt;Organization -->
<g id="edge10" class="edge"><title>CitationTypePublisherType&#45;&gt;Organization</title>
<path fill="none" stroke="black" d="M799.189,-216.932C805.165,-214.066 810.889,-210.776 816.219,-207 828.907,-198.012 825.342,-189.766 834.219,-177 865.087,-132.606 881.325,-127.703 910.219,-82 919.991,-66.5428 913.801,-56.2491 928.219,-45 955.088,-24.0359 994.398,-18.3492 1022.46,-17.2459"/>
<text text-anchor="middle" x="872.219" y="-179.6" font-family="Times New Roman,serif" font-size="8.00">PublisherReference</text>
<text text-anchor="middle" x="1014.46" y="-10.8459" font-family="Times New Roman,serif" font-size="8.00">0...*</text>
<text text-anchor="middle" x="791.189" y="-210.532" font-family="Times New Roman,serif" font-size="8.00">0...*</text>
</g>
<!-- CitationTypeContributorType&#45;&gt;CitationTypeCodeValueType -->
<g id="edge11" class="edge"><title>CitationTypeContributorType&#45;&gt;CitationTypeCodeValueType</title>
<path fill="none" stroke="black" d="M777.89,-308.059C790.864,-311.051 803.92,-314.375 816.219,-318 824.452,-320.427 826.12,-322.155 834.219,-325 867.935,-336.845 904.847,-348.842 938.744,-359.479"/>
<text text-anchor="middle" x="872.219" y="-352.6" font-family="Times New Roman,serif" font-size="8.00">ContributorRole</text>
<text text-anchor="middle" x="930.744" y="-353.079" font-family="Times New Roman,serif" font-size="8.00">0...*</text>
<text text-anchor="middle" x="769.89" y="-310.659" font-family="Times New Roman,serif" font-size="8.00">0...*</text>
</g>
<!-- CitationTypeContributorType&#45;&gt;Individual -->
<g id="edge12" class="edge"><title>CitationTypeContributorType&#45;&gt;Individual</title>
<path fill="none" stroke="black" d="M790.719,-271.976C799.519,-269.123 808.125,-265.822 816.219,-262 864.8,-239.062 882.503,-232.023 910.219,-186 931.713,-150.308 898.411,-123.111 928.219,-94 954.936,-67.9069 1000.59,-66.3102 1029.68,-68.4721"/>
<text text-anchor="middle" x="872.219" y="-256.6" font-family="Times New Roman,serif" font-size="8.00">ContributorReference</text>
<text text-anchor="middle" x="1021.68" y="-71.0721" font-family="Times New Roman,serif" font-size="8.00">0...*</text>
<text text-anchor="middle" x="782.719" y="-265.576" font-family="Times New Roman,serif" font-size="8.00">0...*</text>
</g>
<!-- CitationTypeInternationalIdentifierType&#45;&gt;CitationTypeCodeValueType -->
<g id="edge13" class="edge"><title>CitationTypeInternationalIdentifierType&#45;&gt;CitationTypeCodeValueType</title>
<path fill="none" stroke="black" d="M796.964,-462.994C833.443,-456.63 873.673,-448.828 910.219,-440 921.857,-437.189 933.93,-433.975 945.926,-430.588"/>
<text text-anchor="middle" x="872.219" y="-458.6" font-family="Times New Roman,serif" font-size="8.00">ManagingAgency</text>
<text text-anchor="middle" x="937.926" y="-433.188" font-family="Times New Roman,serif" font-size="8.00">0...*</text>
<text text-anchor="middle" x="788.964" y="-456.594" font-family="Times New Roman,serif" font-size="8.00">0...*</text>
</g>
<!-- DDIInstance -->
<g id="ItemTypeDDIInstance1" class="node"><title></title><ellipse fill="#f7b733" stroke="black" cx="43.1093" cy="-506" rx="34.7021" ry="18" style="filter: url(#dropshadow)"/>
<text text-anchor="middle" x="43.1093" y="-504.1" font-family="Times New Roman,serif" font-size="8.00">DDIInstance</text>
</g>
<!-- DDIInstance&#45;&gt;CitationTypeProperties -->
<g id="edge14" class="edge"><title>DDIInstance&#45;&gt;CitationTypeProperties</title>
<path fill="none" stroke="black" d="M66.4866,-492.724C73.0176,-488.566 80.0527,-483.803 86.2187,-479 105.28,-464.152 124.642,-447.829 143.449,-431.187"/>
<text text-anchor="middle" x="118.719" y="-462.6" font-family="Times New Roman,serif" font-size="8.00">Citation</text>
<text text-anchor="middle" x="135.449" y="-424.787" font-family="Times New Roman,serif" font-size="8.00">0...*</text>
<text text-anchor="middle" x="74.4866" y="-486.324" font-family="Times New Roman,serif" font-size="8.00">0...*</text>
</g>
<!-- Group -->
<g id="ItemTypeGroup2" class="node"><title></title><ellipse fill="#f7b733" stroke="black" cx="43.1093" cy="-452" rx="27" ry="18" style="filter: url(#dropshadow)"/>
<text text-anchor="middle" x="43.1093" y="-450.1" font-family="Times New Roman,serif" font-size="8.00">Group</text>
</g>
<!-- Group&#45;&gt;CitationTypeProperties -->
<g id="edge15" class="edge"><title>Group&#45;&gt;CitationTypeProperties</title>
<path fill="none" stroke="black" d="M63.4481,-439.715C70.6205,-435.129 78.8103,-429.856 86.2187,-425 104.728,-412.867 124.131,-400.026 143.28,-387.279"/>
<text text-anchor="middle" x="118.719" y="-413.6" font-family="Times New Roman,serif" font-size="8.00">Citation</text>
<text text-anchor="middle" x="135.28" y="-380.879" font-family="Times New Roman,serif" font-size="8.00">0...*</text>
<text text-anchor="middle" x="71.4481" y="-433.315" font-family="Times New Roman,serif" font-size="8.00">0...*</text>
</g>
<!-- OtherMaterial -->
<g id="ItemTypeOtherMaterial3" class="node"><title></title><ellipse fill="#f7b733" stroke="black" cx="43.1093" cy="-398" rx="37.3742" ry="18" style="filter: url(#dropshadow)"/>
<text text-anchor="middle" x="43.1093" y="-396.1" font-family="Times New Roman,serif" font-size="8.00">OtherMaterial</text>
</g>
<!-- OtherMaterial&#45;&gt;CitationTypeProperties -->
<g id="edge16" class="edge"><title>OtherMaterial&#45;&gt;CitationTypeProperties</title>
<path fill="none" stroke="black" d="M71.1106,-386.029C89.5958,-377.834 115.705,-366.259 143.424,-353.971"/>
<text text-anchor="middle" x="118.719" y="-372.6" font-family="Times New Roman,serif" font-size="8.00">Citation</text>
<text text-anchor="middle" x="135.424" y="-347.571" font-family="Times New Roman,serif" font-size="8.00">0...*</text>
<text text-anchor="middle" x="79.1106" y="-379.629" font-family="Times New Roman,serif" font-size="8.00">0...*</text>
</g>
<!-- PhysicalInstance -->
<g id="ItemTypePhysicalInstance4" class="node"><title></title><ellipse fill="#f7b733" stroke="black" cx="43.1093" cy="-344" rx="42.5843" ry="18" style="filter: url(#dropshadow)"/>
<text text-anchor="middle" x="43.1093" y="-342.1" font-family="Times New Roman,serif" font-size="8.00">PhysicalInstance</text>
</g>
<!-- PhysicalInstance&#45;&gt;CitationTypeProperties -->
<g id="edge17" class="edge"><title>PhysicalInstance&#45;&gt;CitationTypeProperties</title>
<path fill="none" stroke="black" d="M81.1084,-335.799C98.4482,-331.955 120.34,-327.102 143.345,-322.003"/>
<text text-anchor="middle" x="118.719" y="-332.6" font-family="Times New Roman,serif" font-size="8.00">Citation</text>
<text text-anchor="middle" x="135.345" y="-315.603" font-family="Times New Roman,serif" font-size="8.00">0...*</text>
<text text-anchor="middle" x="89.1084" y="-329.399" font-family="Times New Roman,serif" font-size="8.00">0...*</text>
</g>
<!-- ResourcePackage -->
<g id="ItemTypeResourcePackage5" class="node"><title></title><ellipse fill="#f7b733" stroke="black" cx="43.1093" cy="-290" rx="43.219" ry="18" style="filter: url(#dropshadow)"/>
<text text-anchor="middle" x="43.1093" y="-288.1" font-family="Times New Roman,serif" font-size="8.00">ResourcePackage</text>
</g>
<!-- ResourcePackage&#45;&gt;CitationTypeProperties -->
<g id="edge18" class="edge"><title>ResourcePackage&#45;&gt;CitationTypeProperties</title>
<path fill="none" stroke="black" d="M86.2647,-290C102.699,-290 122.578,-290 143.365,-290"/>
<text text-anchor="middle" x="118.719" y="-292.6" font-family="Times New Roman,serif" font-size="8.00">Citation</text>
<text text-anchor="middle" x="135.365" y="-283.6" font-family="Times New Roman,serif" font-size="8.00">0...*</text>
<text text-anchor="middle" x="94.2647" y="-283.6" font-family="Times New Roman,serif" font-size="8.00">0...*</text>
</g>
<!-- StudyUnit -->
<g id="ItemTypeStudyUnit6" class="node"><title></title><ellipse fill="#f7b733" stroke="black" cx="43.1093" cy="-236" rx="28.8574" ry="18" style="filter: url(#dropshadow)"/>
<text text-anchor="middle" x="43.1093" y="-234.1" font-family="Times New Roman,serif" font-size="8.00">StudyUnit</text>
</g>
<!-- StudyUnit&#45;&gt;CitationTypeProperties -->
<g id="edge19" class="edge"><title>StudyUnit&#45;&gt;CitationTypeProperties</title>
<path fill="none" stroke="black" d="M70.6435,-241.882C89.1519,-245.984 115.463,-251.817 143.411,-258.012"/>
<text text-anchor="middle" x="118.719" y="-258.6" font-family="Times New Roman,serif" font-size="8.00">Citation</text>
<text text-anchor="middle" x="135.411" y="-251.612" font-family="Times New Roman,serif" font-size="8.00">0...*</text>
<text text-anchor="middle" x="78.6435" y="-235.482" font-family="Times New Roman,serif" font-size="8.00">0...*</text>
</g>
<!-- CollectionType -->
<g id="ReusableTypeCollectionType7" class="node"><title></title><ellipse fill="#f7b733" stroke="black" cx="43.1093" cy="-182" rx="40.0477" ry="18" style="filter: url(#dropshadow)"/>
<text text-anchor="middle" x="43.1093" y="-180.1" font-family="Times New Roman,serif" font-size="8.00">CollectionType</text>
</g>
<!-- CollectionType&#45;&gt;CitationTypeProperties -->
<g id="edge20" class="edge"><title>CollectionType&#45;&gt;CitationTypeProperties</title>
<path fill="none" stroke="black" d="M72.5312,-194.6C90.9222,-202.754 116.411,-214.054 143.43,-226.032"/>
<text text-anchor="middle" x="118.719" y="-223.6" font-family="Times New Roman,serif" font-size="8.00">Citation</text>
<text text-anchor="middle" x="151.43" y="-219.632" font-family="Times New Roman,serif" font-size="8.00">0...*</text>
<text text-anchor="middle" x="80.5312" y="-197.2" font-family="Times New Roman,serif" font-size="8.00">0...*</text>
</g>
<!-- ItemType -->
<g id="ReusableTypeItemType8" class="node"><title></title><ellipse fill="#f7b733" stroke="black" cx="43.1093" cy="-128" rx="29.4917" ry="18" style="filter: url(#dropshadow)"/>
<text text-anchor="middle" x="43.1093" y="-126.1" font-family="Times New Roman,serif" font-size="8.00">ItemType</text>
</g>
<!-- ItemType&#45;&gt;CitationTypeProperties -->
<g id="edge21" class="edge"><title>ItemType&#45;&gt;CitationTypeProperties</title>
<path fill="none" stroke="black" d="M64.2965,-140.827C71.2617,-145.284 79.1008,-150.334 86.2187,-155 104.728,-167.133 124.131,-179.974 143.28,-192.721"/>
<text text-anchor="middle" x="118.719" y="-187.6" font-family="Times New Roman,serif" font-size="8.00">Citation</text>
<text text-anchor="middle" x="151.28" y="-186.321" font-family="Times New Roman,serif" font-size="8.00">0...*</text>
<text text-anchor="middle" x="72.2965" y="-143.427" font-family="Times New Roman,serif" font-size="8.00">0...*</text>
</g>
<!-- OriginType -->
<g id="ReusableTypeOriginType9" class="node"><title></title><ellipse fill="#f7b733" stroke="black" cx="43.1093" cy="-74" rx="32.1649" ry="18" style="filter: url(#dropshadow)"/>
<text text-anchor="middle" x="43.1093" y="-72.1" font-family="Times New Roman,serif" font-size="8.00">OriginType</text>
</g>
<!-- OriginType&#45;&gt;CitationTypeProperties -->
<g id="edge22" class="edge"><title>OriginType&#45;&gt;CitationTypeProperties</title>
<path fill="none" stroke="black" d="M66.052,-87.0002C72.7045,-91.2223 79.9157,-96.0902 86.2187,-101 105.28,-115.848 124.642,-132.171 143.449,-148.813"/>
<text text-anchor="middle" x="118.719" y="-142.6" font-family="Times New Roman,serif" font-size="8.00">Citation</text>
<text text-anchor="middle" x="151.449" y="-142.413" font-family="Times New Roman,serif" font-size="8.00">0...*</text>
<text text-anchor="middle" x="74.052" y="-89.6002" font-family="Times New Roman,serif" font-size="8.00">0...*</text>
</g>
</g>
</svg>
