<?xml version="1.0" encoding="UTF-8" standalone="no"?>
<!DOCTYPE svg PUBLIC "-//W3C//DTD SVG 1.1//EN"
 "http://www.w3.org/Graphics/SVG/1.1/DTD/svg11.dtd">
<!-- Generated by graphviz version 2.38.0 (20140413.2041)
 -->
<!-- Title: G Pages: 1 -->
<svg width="1626pt" height="620pt"
 viewBox="0.00 0.00 1626.10 620.41" xmlns="http://www.w3.org/2000/svg" xmlns:xlink="http://www.w3.org/1999/xlink">
<filter id = "dropshadow" height = "130%" ><feGaussianBlur in= "SourceAlpha" stdDeviation = "3"/><!--stdDeviation is how much to blur--><feOffset dx = "2" dy = "2" result = "offsetblur"/><!--how much to offset--><feMerge><feMergeNode/><!--this contains the offset blurred image--><feMergeNode in= "SourceGraphic"/><!--this contains the element that the filter is applied to --></feMerge></filter>
<g id="graph0" class="graph" transform="scale(1 1) rotate(0) translate(4 616.412)">
<title>G</title>
<g id="clust1" class="cluster"><title>clusterCollectionType</title>
<polygon fill="#4abdac" stroke="black" points="167.101,-64.4124 167.101,-580.412 1610.1,-580.412 1610.1,-64.4124 167.101,-64.4124" style="filter: url(#dropshadow)"/>
<text text-anchor="middle" x="888.601" y="-570.012" font-family="Times New Roman,serif" font-size="8.00">CollectionType</text>
</g>
<!-- CollectionTypeProperties -->
<g id="ReusableTypeCollectionTypeProperties" class="node"><title></title><polygon fill="#f7b733" stroke="black" points="175.101,-218.912 175.101,-343.912 455.101,-343.912 455.101,-218.912 175.101,-218.912" style="filter: url(#dropshadow)"/>
<text text-anchor="middle" x="201.601" y="-279.512" font-family="Times New Roman,serif" font-size="8.00">Properties</text>
<polyline fill="none" stroke="black" points="228.101,-218.912 228.101,-343.912 "/>
<text text-anchor="start" x="236.101" y="-333.512" font-family="Times New Roman,serif" font-size="8.00">Citation : CitationType[0...1] </text>
<text text-anchor="start" x="236.101" y="-324.512" font-family="Times New Roman,serif" font-size="8.00">LocationInArchive : InternationalStringType[0...n] </text>
<text text-anchor="start" x="236.101" y="-315.512" font-family="Times New Roman,serif" font-size="8.00">CallNumber : string[0...1] </text>
<text text-anchor="start" x="236.101" y="-306.512" font-family="Times New Roman,serif" font-size="8.00">URI : anyURI[0...1] </text>
<text text-anchor="start" x="236.101" y="-297.512" font-family="Times New Roman,serif" font-size="8.00">ItemQuantity : nonNegativeInteger[0...1] </text>
<text text-anchor="start" x="236.101" y="-288.512" font-family="Times New Roman,serif" font-size="8.00">StudyClass : StudyClassType[0...1] </text>
<text text-anchor="start" x="236.101" y="-279.512" font-family="Times New Roman,serif" font-size="8.00">DefaultAccess : AccessType[0...1] </text>
<text text-anchor="start" x="236.101" y="-270.512" font-family="Times New Roman,serif" font-size="8.00">OriginalArchiveOrganizationReference : Organization[0...n] </text>
<text text-anchor="start" x="236.101" y="-261.512" font-family="Times New Roman,serif" font-size="8.00">AvailabilityStatus : StructuredStringType[0...1] </text>
<text text-anchor="start" x="236.101" y="-252.512" font-family="Times New Roman,serif" font-size="8.00">DataFileQuantity : nonNegativeInteger[0...1] </text>
<text text-anchor="start" x="236.101" y="-243.512" font-family="Times New Roman,serif" font-size="8.00">CollectionCompleteness : StructuredStringType[0...1] </text>
<text text-anchor="start" x="236.101" y="-234.512" font-family="Times New Roman,serif" font-size="8.00">Item : ItemType[0...n] </text>
<text text-anchor="start" x="236.101" y="-225.512" font-family="Times New Roman,serif" font-size="8.00">Collection : CollectionType[0...n] </text>
</g>
<!-- CollectionTypeProperties&#45;&gt;CollectionTypeProperties -->
<g id="edge30" class="edge"><title>CollectionTypeProperties&#45;&gt;CollectionTypeProperties</title>
<path fill="none" stroke="black" d="M286.045,-344.243C290.015,-354.976 299.701,-362.412 315.101,-362.412 330.501,-362.412 340.187,-354.976 344.157,-344.243"/>
<text text-anchor="middle" x="315.101" y="-365.012" font-family="Times New Roman,serif" font-size="8.00">Collection</text>
<text text-anchor="middle" x="336.157" y="-346.843" font-family="Times New Roman,serif" font-size="8.00">0...*</text>
<text text-anchor="middle" x="278.045" y="-346.843" font-family="Times New Roman,serif" font-size="8.00">0...*</text>
</g>
<!-- CollectionTypeCitationType -->
<g id="ReusableTypeCollectionTypeCitationType" class="node"><title></title><polygon fill="#fc4a1a" stroke="black" points="959.101,-137.912 959.101,-244.912 1245.1,-244.912 1245.1,-137.912 959.101,-137.912" style="filter: url(#dropshadow)"/>
<text text-anchor="middle" x="991.101" y="-189.512" font-family="Times New Roman,serif" font-size="8.00">CitationType</text>
<polyline fill="none" stroke="black" points="1023.1,-137.912 1023.1,-244.912 "/>
<text text-anchor="start" x="1031.1" y="-234.512" font-family="Times New Roman,serif" font-size="8.00">Title : InternationalStringType[0...1] </text>
<text text-anchor="start" x="1031.1" y="-225.512" font-family="Times New Roman,serif" font-size="8.00">SubTitle : InternationalStringType[0...n] </text>
<text text-anchor="start" x="1031.1" y="-216.512" font-family="Times New Roman,serif" font-size="8.00">AlternateTitle : InternationalStringType[0...n] </text>
<text text-anchor="start" x="1031.1" y="-207.512" font-family="Times New Roman,serif" font-size="8.00">Creator : CreatorType[0...n] </text>
<text text-anchor="start" x="1031.1" y="-198.512" font-family="Times New Roman,serif" font-size="8.00">Publisher : PublisherType[0...n] </text>
<text text-anchor="start" x="1031.1" y="-189.512" font-family="Times New Roman,serif" font-size="8.00">Contributor : ContributorType[0...n] </text>
<text text-anchor="start" x="1031.1" y="-180.512" font-family="Times New Roman,serif" font-size="8.00">PublicationDate : DateType[0...1] </text>
<text text-anchor="start" x="1031.1" y="-171.512" font-family="Times New Roman,serif" font-size="8.00">Language : CodeValueType[0...n] </text>
<text text-anchor="start" x="1031.1" y="-162.512" font-family="Times New Roman,serif" font-size="8.00">InternationalIdentifier : InternationalIdentifierType[0...n] </text>
<text text-anchor="start" x="1031.1" y="-153.512" font-family="Times New Roman,serif" font-size="8.00">Copyright : InternationalStringType[0...n] </text>
<text text-anchor="start" x="1031.1" y="-144.512" font-family="Times New Roman,serif" font-size="8.00">DcTerms : DcTerms[0...n] </text>
</g>
<!-- CollectionTypeProperties&#45;&gt;CollectionTypeCitationType -->
<g id="edge1" class="edge"><title>CollectionTypeProperties&#45;&gt;CollectionTypeCitationType</title>
<path fill="none" stroke="black" d="M445.886,-218.846C466.299,-211.304 487.478,-204.748 508.101,-200.412 659.62,-168.561 837.744,-171.023 958.936,-178.477"/>
<text text-anchor="middle" x="647.601" y="-203.012" font-family="Times New Roman,serif" font-size="8.00">Citation</text>
</g>
<!-- CollectionTypeInternationalStringType -->
<g id="ReusableTypeCollectionTypeInternationalStringType" class="node"><title></title><polygon fill="#fc4a1a" stroke="black" points="1391.6,-132.412 1391.6,-168.412 1599.6,-168.412 1599.6,-132.412 1391.6,-132.412" style="filter: url(#dropshadow)"/>
<text text-anchor="middle" x="1442.1" y="-148.512" font-family="Times New Roman,serif" font-size="8.00">InternationalStringType</text>
<polyline fill="none" stroke="black" points="1492.6,-132.412 1492.6,-168.412 "/>
<text text-anchor="start" x="1500.6" y="-148.512" font-family="Times New Roman,serif" font-size="8.00">String : StringType[0...n] </text>
</g>
<!-- CollectionTypeProperties&#45;&gt;CollectionTypeInternationalStringType -->
<g id="edge2" class="edge"><title>CollectionTypeProperties&#45;&gt;CollectionTypeInternationalStringType</title>
<path fill="none" stroke="black" d="M409.014,-218.713C439.471,-200.654 474.216,-182.57 508.101,-170.412 818.005,-59.2218 916.019,-84.9758 1245.1,-95.4124 1301.19,-97.191 1316.26,-91.5217 1371.1,-103.412 1400.58,-109.805 1432.36,-122.032 1456.3,-132.412"/>
<text text-anchor="middle" x="873.101" y="-96.0124" font-family="Times New Roman,serif" font-size="8.00">LocationInArchive</text>
</g>
<!-- CollectionTypeStudyClassType -->
<g id="ReusableTypeCollectionTypeStudyClassType" class="node"><title></title><polygon fill="#fc4a1a" stroke="black" points="986.101,-498.412 986.101,-534.412 1218.1,-534.412 1218.1,-498.412 986.101,-498.412" style="filter: url(#dropshadow)"/>
<text text-anchor="middle" x="1021.6" y="-514.512" font-family="Times New Roman,serif" font-size="8.00">StudyClassType</text>
<polyline fill="none" stroke="black" points="1057.1,-498.412 1057.1,-534.412 "/>
<text text-anchor="start" x="1065.1" y="-519.012" font-family="Times New Roman,serif" font-size="8.00">Description : StructuredStringType[0...1] </text>
<text text-anchor="start" x="1065.1" y="-510.012" font-family="Times New Roman,serif" font-size="8.00">ClassType : CodeValueType[0...1] </text>
</g>
<!-- CollectionTypeProperties&#45;&gt;CollectionTypeStudyClassType -->
<g id="edge3" class="edge"><title>CollectionTypeProperties&#45;&gt;CollectionTypeStudyClassType</title>
<path fill="none" stroke="black" d="M358.49,-344.341C392.944,-389.744 445.922,-447.877 508.101,-476.412 590.277,-514.125 837.844,-518.949 985.848,-518.24"/>
<text text-anchor="middle" x="647.601" y="-517.012" font-family="Times New Roman,serif" font-size="8.00">StudyClass</text>
</g>
<!-- CollectionTypeAccessType -->
<g id="ReusableTypeCollectionTypeAccessType" class="node"><title></title><polygon fill="#fc4a1a" stroke="black" points="961.601,-308.912 961.601,-433.912 1242.6,-433.912 1242.6,-308.912 961.601,-308.912" style="filter: url(#dropshadow)"/>
<text text-anchor="middle" x="991.101" y="-369.512" font-family="Times New Roman,serif" font-size="8.00">AccessType</text>
<polyline fill="none" stroke="black" points="1020.6,-308.912 1020.6,-433.912 "/>
<text text-anchor="start" x="1028.6" y="-423.512" font-family="Times New Roman,serif" font-size="8.00">TypeOfAccess : CodeValueType[0...1] </text>
<text text-anchor="start" x="1028.6" y="-414.512" font-family="Times New Roman,serif" font-size="8.00">AccessTypeName : NameType[0...n] </text>
<text text-anchor="start" x="1028.6" y="-405.512" font-family="Times New Roman,serif" font-size="8.00">Label : LabelType[0...n] </text>
<text text-anchor="start" x="1028.6" y="-396.512" font-family="Times New Roman,serif" font-size="8.00">Description : StructuredStringType[0...1] </text>
<text text-anchor="start" x="1028.6" y="-387.512" font-family="Times New Roman,serif" font-size="8.00">ConfidentialityStatement : StructuredStringType[0...1] </text>
<text text-anchor="start" x="1028.6" y="-378.512" font-family="Times New Roman,serif" font-size="8.00">AccessPermission : FormType[0...n] </text>
<text text-anchor="start" x="1028.6" y="-369.512" font-family="Times New Roman,serif" font-size="8.00">Restrictions : StructuredStringType[0...1] </text>
<text text-anchor="start" x="1028.6" y="-360.512" font-family="Times New Roman,serif" font-size="8.00">CitationRequirement : StructuredStringType[0...1] </text>
<text text-anchor="start" x="1028.6" y="-351.512" font-family="Times New Roman,serif" font-size="8.00">DepositRequirement : StructuredStringType[0...1] </text>
<text text-anchor="start" x="1028.6" y="-342.512" font-family="Times New Roman,serif" font-size="8.00">AccessConditions : StructuredStringType[0...1] </text>
<text text-anchor="start" x="1028.6" y="-333.512" font-family="Times New Roman,serif" font-size="8.00">Disclaimer : StructuredStringType[0...1] </text>
<text text-anchor="start" x="1028.6" y="-324.512" font-family="Times New Roman,serif" font-size="8.00">AccessRestrictionDate : AccessRestrictionDateType[0...1] </text>
<text text-anchor="start" x="1028.6" y="-315.512" font-family="Times New Roman,serif" font-size="8.00">ContactOrganizationReference : Agent[0...n] </text>
</g>
<!-- CollectionTypeProperties&#45;&gt;CollectionTypeAccessType -->
<g id="edge4" class="edge"><title>CollectionTypeProperties&#45;&gt;CollectionTypeAccessType</title>
<path fill="none" stroke="black" d="M428.618,-344.036C454.305,-357.03 481.795,-369.937 508.101,-380.412 635.773,-431.253 669.041,-447.11 805.101,-466.412 864.946,-474.902 885.258,-489.543 941.101,-466.412 951.554,-462.083 950.034,-455.179 959.101,-448.412 965.731,-443.464 972.719,-438.634 979.894,-433.96"/>
<text text-anchor="middle" x="647.601" y="-466.012" font-family="Times New Roman,serif" font-size="8.00">DefaultAccess</text>
</g>
<!-- Organization -->
<g id="ItemTypeOrganization" class="node"><title></title><ellipse fill="#f7b733" stroke="black" cx="1102.1" cy="-31.4124" rx="35.3371" ry="18" style="filter: url(#dropshadow)"/>
<text text-anchor="middle" x="1102.1" y="-29.5124" font-family="Times New Roman,serif" font-size="8.00">Organization</text>
</g>
<!-- CollectionTypeProperties&#45;&gt;Organization -->
<g id="edge5" class="edge"><title>CollectionTypeProperties&#45;&gt;Organization</title>
<path fill="none" stroke="black" d="M351.423,-218.485C379.081,-174.84 421.465,-118.77 473.101,-85.4124 668.198,40.6212 971.478,-5.21438 1069.44,-24.5618"/>
<text text-anchor="middle" x="647.601" y="-65.0124" font-family="Times New Roman,serif" font-size="8.00">OriginalArchiveOrganizationReference</text>
<text text-anchor="middle" x="1061.44" y="-18.1618" font-family="Times New Roman,serif" font-size="8.00">0...*</text>
<text text-anchor="middle" x="343.423" y="-212.085" font-family="Times New Roman,serif" font-size="8.00">0...*</text>
</g>
<!-- CollectionTypeStructuredStringType -->
<g id="ReusableTypeCollectionTypeStructuredStringType" class="node"><title></title><polygon fill="#fc4a1a" stroke="black" points="1389.1,-395.412 1389.1,-431.412 1602.1,-431.412 1602.1,-395.412 1389.1,-395.412" style="filter: url(#dropshadow)"/>
<text text-anchor="middle" x="1434.1" y="-411.512" font-family="Times New Roman,serif" font-size="8.00">StructuredStringType</text>
<polyline fill="none" stroke="black" points="1479.1,-395.412 1479.1,-431.412 "/>
<text text-anchor="start" x="1487.1" y="-411.512" font-family="Times New Roman,serif" font-size="8.00">Content : ContentType[0...n] </text>
</g>
<!-- CollectionTypeProperties&#45;&gt;CollectionTypeStructuredStringType -->
<g id="edge6" class="edge"><title>CollectionTypeProperties&#45;&gt;CollectionTypeStructuredStringType</title>
<path fill="none" stroke="black" d="M345.024,-343.983C376.095,-403.054 431.533,-488.242 508.101,-527.412 799.79,-676.635 918.112,-565.091 1245.1,-544.412 1301.44,-540.85 1319.98,-552.356 1371.1,-528.412 1419.12,-505.92 1460.98,-457.745 1481.38,-431.449"/>
<text text-anchor="middle" x="873.101" y="-606.012" font-family="Times New Roman,serif" font-size="8.00">AvailabilityStatus</text>
<text text-anchor="middle" x="1489.38" y="-434.049" font-family="Times New Roman,serif" font-size="8.00">0...*</text>
<text text-anchor="middle" x="353.024" y="-346.583" font-family="Times New Roman,serif" font-size="8.00">0...*</text>
</g>
<!-- CollectionTypeItemType -->
<g id="ReusableTypeCollectionTypeItemType" class="node"><title></title><polygon fill="#fc4a1a" stroke="black" points="508.101,-218.912 508.101,-343.912 787.101,-343.912 787.101,-218.912 508.101,-218.912" style="filter: url(#dropshadow)"/>
<text text-anchor="middle" x="534.101" y="-279.512" font-family="Times New Roman,serif" font-size="8.00">ItemType</text>
<polyline fill="none" stroke="black" points="560.101,-218.912 560.101,-343.912 "/>
<text text-anchor="start" x="568.101" y="-333.512" font-family="Times New Roman,serif" font-size="8.00">Citation : CitationType[0...1] </text>
<text text-anchor="start" x="568.101" y="-324.512" font-family="Times New Roman,serif" font-size="8.00">LocationInArchive : InternationalStringType[0...n] </text>
<text text-anchor="start" x="568.101" y="-315.512" font-family="Times New Roman,serif" font-size="8.00">CallNumber : string[0...1] </text>
<text text-anchor="start" x="568.101" y="-306.512" font-family="Times New Roman,serif" font-size="8.00">URI : anyURI[0...1] </text>
<text text-anchor="start" x="568.101" y="-297.512" font-family="Times New Roman,serif" font-size="8.00">ItemFormat : CodeValueType[0...1] </text>
<text text-anchor="start" x="568.101" y="-288.512" font-family="Times New Roman,serif" font-size="8.00">Media : CodeValueType[0...1] </text>
<text text-anchor="start" x="568.101" y="-279.512" font-family="Times New Roman,serif" font-size="8.00">StudyClass : StudyClassType[0...1] </text>
<text text-anchor="start" x="568.101" y="-270.512" font-family="Times New Roman,serif" font-size="8.00">Access : AccessType[0...1] </text>
<text text-anchor="start" x="568.101" y="-261.512" font-family="Times New Roman,serif" font-size="8.00">OriginalArchiveOrganizationReference : Organization[0...n] </text>
<text text-anchor="start" x="568.101" y="-252.512" font-family="Times New Roman,serif" font-size="8.00">AvailabilityStatus : StructuredStringType[0...1] </text>
<text text-anchor="start" x="568.101" y="-243.512" font-family="Times New Roman,serif" font-size="8.00">DataFileQuantity : nonNegativeInteger[0...1] </text>
<text text-anchor="start" x="568.101" y="-234.512" font-family="Times New Roman,serif" font-size="8.00">CollectionCompleteness : StructuredStringType[0...1] </text>
<text text-anchor="start" x="568.101" y="-225.512" font-family="Times New Roman,serif" font-size="8.00">Item : ItemType[0...n] </text>
</g>
<!-- CollectionTypeProperties&#45;&gt;CollectionTypeItemType -->
<g id="edge7" class="edge"><title>CollectionTypeProperties&#45;&gt;CollectionTypeItemType</title>
<path fill="none" stroke="black" d="M455.305,-281.412C472.77,-281.412 490.633,-281.412 508.087,-281.412"/>
<text text-anchor="middle" x="481.601" y="-284.012" font-family="Times New Roman,serif" font-size="8.00">Item</text>
<text text-anchor="middle" x="500.087" y="-275.012" font-family="Times New Roman,serif" font-size="8.00">0...*</text>
<text text-anchor="middle" x="463.305" y="-275.012" font-family="Times New Roman,serif" font-size="8.00">0...*</text>
</g>
<!-- CollectionTypeCitationType&#45;&gt;CollectionTypeInternationalStringType -->
<g id="edge8" class="edge"><title>CollectionTypeCitationType&#45;&gt;CollectionTypeInternationalStringType</title>
<path fill="none" stroke="black" d="M1245.35,-187.469C1286.08,-185.253 1330.45,-181.798 1371.1,-176.412 1386.31,-174.398 1402.43,-171.541 1417.83,-168.454"/>
<text text-anchor="middle" x="1317.1" y="-189.012" font-family="Times New Roman,serif" font-size="8.00">Title</text>
<text text-anchor="middle" x="1409.83" y="-171.054" font-family="Times New Roman,serif" font-size="8.00">0...*</text>
<text text-anchor="middle" x="1253.35" y="-181.069" font-family="Times New Roman,serif" font-size="8.00">0...*</text>
</g>
<!-- CollectionTypeCitationType&#45;&gt;CollectionTypeInternationalStringType -->
<g id="edge9" class="edge"><title>CollectionTypeCitationType&#45;&gt;CollectionTypeInternationalStringType</title>
<path fill="none" stroke="black" d="M1245.19,-207.138C1286.12,-208.577 1330.64,-207.146 1371.1,-199.412 1402.14,-193.48 1435.33,-179.864 1459.47,-168.487"/>
<text text-anchor="middle" x="1317.1" y="-211.012" font-family="Times New Roman,serif" font-size="8.00">SubTitle</text>
<text text-anchor="middle" x="1451.47" y="-171.087" font-family="Times New Roman,serif" font-size="8.00">0...*</text>
<text text-anchor="middle" x="1253.19" y="-200.738" font-family="Times New Roman,serif" font-size="8.00">0...*</text>
</g>
<!-- CollectionTypeCitationType&#45;&gt;CollectionTypeInternationalStringType -->
<g id="edge10" class="edge"><title>CollectionTypeCitationType&#45;&gt;CollectionTypeInternationalStringType</title>
<path fill="none" stroke="black" d="M1245.53,-138.899C1251.43,-137.572 1257.3,-136.399 1263.1,-135.412 1310.42,-127.37 1323.19,-132.513 1371.1,-135.412 1377.78,-135.817 1384.66,-136.343 1391.58,-136.956"/>
<text text-anchor="middle" x="1317.1" y="-138.012" font-family="Times New Roman,serif" font-size="8.00">AlternateTitle</text>
<text text-anchor="middle" x="1383.58" y="-130.556" font-family="Times New Roman,serif" font-size="8.00">0...*</text>
<text text-anchor="middle" x="1253.53" y="-132.499" font-family="Times New Roman,serif" font-size="8.00">0...*</text>
</g>
<!-- CollectionTypeCitationType&#45;&gt;CollectionTypeInternationalStringType -->
<g id="edge11" class="edge"><title>CollectionTypeCitationType&#45;&gt;CollectionTypeInternationalStringType</title>
<path fill="none" stroke="black" d="M1245.23,-169.524C1251.26,-168.774 1257.24,-168.066 1263.1,-167.412 1305.05,-162.732 1351.43,-159.036 1391.59,-156.302"/>
<text text-anchor="middle" x="1317.1" y="-170.012" font-family="Times New Roman,serif" font-size="8.00">Copyright</text>
<text text-anchor="middle" x="1383.59" y="-149.902" font-family="Times New Roman,serif" font-size="8.00">0...*</text>
<text text-anchor="middle" x="1253.23" y="-163.124" font-family="Times New Roman,serif" font-size="8.00">0...*</text>
</g>
<!-- CollectionTypeStudyClassType&#45;&gt;CollectionTypeStructuredStringType -->
<g id="edge12" class="edge"><title>CollectionTypeStudyClassType&#45;&gt;CollectionTypeStructuredStringType</title>
<path fill="none" stroke="black" d="M1218.13,-519.389C1266.48,-517.492 1322.65,-511.073 1371.1,-494.412 1411.11,-480.655 1450.85,-450.983 1474.05,-431.626"/>
<text text-anchor="middle" x="1317.1" y="-518.012" font-family="Times New Roman,serif" font-size="8.00">Description</text>
<text text-anchor="middle" x="1466.05" y="-434.226" font-family="Times New Roman,serif" font-size="8.00">0...*</text>
<text text-anchor="middle" x="1226.13" y="-512.989" font-family="Times New Roman,serif" font-size="8.00">0...*</text>
</g>
<!-- CollectionTypeAccessType&#45;&gt;CollectionTypeStructuredStringType -->
<g id="edge13" class="edge"><title>CollectionTypeAccessType&#45;&gt;CollectionTypeStructuredStringType</title>
<path fill="none" stroke="black" d="M1242.81,-344.055C1284.51,-340.276 1330.03,-340.543 1371.1,-350.412 1406.91,-359.018 1444.03,-379.84 1468.1,-395.203"/>
<text text-anchor="middle" x="1317.1" y="-353.012" font-family="Times New Roman,serif" font-size="8.00">Description</text>
<text text-anchor="middle" x="1460.1" y="-388.803" font-family="Times New Roman,serif" font-size="8.00">0...*</text>
<text text-anchor="middle" x="1250.81" y="-337.655" font-family="Times New Roman,serif" font-size="8.00">0...*</text>
</g>
<!-- CollectionTypeAccessType&#45;&gt;CollectionTypeStructuredStringType -->
<g id="edge14" class="edge"><title>CollectionTypeAccessType&#45;&gt;CollectionTypeStructuredStringType</title>
<path fill="none" stroke="black" d="M1242.7,-371.731C1284.18,-373.281 1329.62,-376.42 1371.1,-382.412 1391.56,-385.368 1413.55,-390.3 1433.22,-395.37"/>
<text text-anchor="middle" x="1317.1" y="-385.012" font-family="Times New Roman,serif" font-size="8.00">ConfidentialityStatement</text>
<text text-anchor="middle" x="1425.22" y="-388.97" font-family="Times New Roman,serif" font-size="8.00">0...*</text>
<text text-anchor="middle" x="1250.7" y="-365.331" font-family="Times New Roman,serif" font-size="8.00">0...*</text>
</g>
<!-- CollectionTypeAccessType&#45;&gt;CollectionTypeStructuredStringType -->
<g id="edge15" class="edge"><title>CollectionTypeAccessType&#45;&gt;CollectionTypeStructuredStringType</title>
<path fill="none" stroke="black" d="M1242.69,-389.108C1249.59,-389.905 1256.42,-390.678 1263.1,-391.412 1304.23,-395.937 1349.54,-400.365 1389.09,-404.049"/>
<text text-anchor="middle" x="1317.1" y="-405.012" font-family="Times New Roman,serif" font-size="8.00">Restrictions</text>
<text text-anchor="middle" x="1381.09" y="-397.649" font-family="Times New Roman,serif" font-size="8.00">0...*</text>
<text text-anchor="middle" x="1250.69" y="-382.708" font-family="Times New Roman,serif" font-size="8.00">0...*</text>
</g>
<!-- CollectionTypeAccessType&#45;&gt;CollectionTypeStructuredStringType -->
<g id="edge16" class="edge"><title>CollectionTypeAccessType&#45;&gt;CollectionTypeStructuredStringType</title>
<path fill="none" stroke="black" d="M1242.7,-412.127C1249.57,-413.396 1256.39,-414.507 1263.1,-415.412 1310.67,-421.834 1323.1,-415.801 1371.1,-415.412 1376.89,-415.365 1382.83,-415.306 1388.83,-415.238"/>
<text text-anchor="middle" x="1317.1" y="-421.012" font-family="Times New Roman,serif" font-size="8.00">CitationRequirement</text>
<text text-anchor="middle" x="1380.83" y="-408.838" font-family="Times New Roman,serif" font-size="8.00">0...*</text>
<text text-anchor="middle" x="1250.7" y="-405.727" font-family="Times New Roman,serif" font-size="8.00">0...*</text>
</g>
<!-- CollectionTypeAccessType&#45;&gt;CollectionTypeStructuredStringType -->
<g id="edge17" class="edge"><title>CollectionTypeAccessType&#45;&gt;CollectionTypeStructuredStringType</title>
<path fill="none" stroke="black" d="M1242.77,-427.021C1249.59,-428.712 1256.39,-430.195 1263.1,-431.412 1308.42,-439.63 1359.4,-436.928 1401.95,-431.415"/>
<text text-anchor="middle" x="1317.1" y="-440.012" font-family="Times New Roman,serif" font-size="8.00">DepositRequirement</text>
<text text-anchor="middle" x="1393.95" y="-434.015" font-family="Times New Roman,serif" font-size="8.00">0...*</text>
<text text-anchor="middle" x="1250.77" y="-420.621" font-family="Times New Roman,serif" font-size="8.00">0...*</text>
</g>
<!-- CollectionTypeAccessType&#45;&gt;CollectionTypeStructuredStringType -->
<g id="edge18" class="edge"><title>CollectionTypeAccessType&#45;&gt;CollectionTypeStructuredStringType</title>
<path fill="none" stroke="black" d="M1218.8,-308.723C1241.79,-296.525 1259.92,-287.206 1263.1,-286.412 1309.68,-274.808 1326.88,-267.734 1371.1,-286.412 1423.8,-308.672 1465.11,-365.628 1483.77,-395.112"/>
<text text-anchor="middle" x="1317.1" y="-289.012" font-family="Times New Roman,serif" font-size="8.00">AccessConditions</text>
<text text-anchor="middle" x="1491.77" y="-388.712" font-family="Times New Roman,serif" font-size="8.00">0...*</text>
<text text-anchor="middle" x="1210.8" y="-302.323" font-family="Times New Roman,serif" font-size="8.00">0...*</text>
</g>
<!-- CollectionTypeAccessType&#45;&gt;CollectionTypeStructuredStringType -->
<g id="edge19" class="edge"><title>CollectionTypeAccessType&#45;&gt;CollectionTypeStructuredStringType</title>
<path fill="none" stroke="black" d="M1242.88,-325.785C1284.69,-318.456 1330.25,-316.837 1371.1,-329.412 1412.98,-342.306 1453.39,-374.784 1476.02,-395.369"/>
<text text-anchor="middle" x="1317.1" y="-332.012" font-family="Times New Roman,serif" font-size="8.00">Disclaimer</text>
<text text-anchor="middle" x="1484.02" y="-388.969" font-family="Times New Roman,serif" font-size="8.00">0...*</text>
<text text-anchor="middle" x="1250.88" y="-319.385" font-family="Times New Roman,serif" font-size="8.00">0...*</text>
</g>
<!-- Agent -->
<g id="ItemTypeAgent" class="node"><title></title><ellipse fill="#f7b733" stroke="black" cx="1495.6" cy="-38.4124" rx="27" ry="18" style="filter: url(#dropshadow)"/>
<text text-anchor="middle" x="1495.6" y="-36.5124" font-family="Times New Roman,serif" font-size="8.00">Agent</text>
</g>
<!-- CollectionTypeAccessType&#45;&gt;Agent -->
<g id="edge20" class="edge"><title>CollectionTypeAccessType&#45;&gt;Agent</title>
<path fill="none" stroke="black" d="M1233.56,-308.889C1237.8,-304.366 1241.68,-299.546 1245.1,-294.412 1288.71,-228.984 1217.37,-182.378 1263.1,-118.412 1310.95,-51.476 1418.73,-40.0227 1468.5,-38.42"/>
<text text-anchor="middle" x="1317.1" y="-121.012" font-family="Times New Roman,serif" font-size="8.00">ContactOrganizationReference</text>
<text text-anchor="middle" x="1460.5" y="-32.02" font-family="Times New Roman,serif" font-size="8.00">0...*</text>
<text text-anchor="middle" x="1241.56" y="-302.489" font-family="Times New Roman,serif" font-size="8.00">0...*</text>
</g>
<!-- CollectionTypeItemType&#45;&gt;CollectionTypeCitationType -->
<g id="edge21" class="edge"><title>CollectionTypeItemType&#45;&gt;CollectionTypeCitationType</title>
<path fill="none" stroke="black" d="M787.133,-253.859C841.571,-243.031 904.027,-230.609 958.824,-219.711"/>
<text text-anchor="middle" x="873.101" y="-253.012" font-family="Times New Roman,serif" font-size="8.00">Citation</text>
<text text-anchor="middle" x="950.824" y="-213.311" font-family="Times New Roman,serif" font-size="8.00">0...*</text>
<text text-anchor="middle" x="795.133" y="-247.459" font-family="Times New Roman,serif" font-size="8.00">0...*</text>
</g>
<!-- CollectionTypeItemType&#45;&gt;CollectionTypeInternationalStringType -->
<g id="edge22" class="edge"><title>CollectionTypeItemType&#45;&gt;CollectionTypeInternationalStringType</title>
<path fill="none" stroke="black" d="M776.612,-218.815C780.151,-217.003 783.653,-215.2 787.101,-213.412 864.441,-173.317 874.695,-140.972 959.101,-119.412 1120.38,-78.2165 1317.52,-109.664 1421.8,-132.394"/>
<text text-anchor="middle" x="1102.1" y="-122.012" font-family="Times New Roman,serif" font-size="8.00">LocationInArchive</text>
<text text-anchor="middle" x="1413.8" y="-125.994" font-family="Times New Roman,serif" font-size="8.00">0...*</text>
<text text-anchor="middle" x="784.612" y="-212.415" font-family="Times New Roman,serif" font-size="8.00">0...*</text>
</g>
<!-- CollectionTypeItemType&#45;&gt;CollectionTypeStudyClassType -->
<g id="edge23" class="edge"><title>CollectionTypeItemType&#45;&gt;CollectionTypeStudyClassType</title>
<path fill="none" stroke="black" d="M700.037,-344.044C728.267,-374.963 765.529,-410.634 805.101,-434.412 860.064,-467.439 928.702,-487.531 986.041,-499.554"/>
<text text-anchor="middle" x="873.101" y="-490.012" font-family="Times New Roman,serif" font-size="8.00">StudyClass</text>
<text text-anchor="middle" x="978.041" y="-493.154" font-family="Times New Roman,serif" font-size="8.00">0...*</text>
<text text-anchor="middle" x="692.037" y="-346.644" font-family="Times New Roman,serif" font-size="8.00">0...*</text>
</g>
<!-- CollectionTypeItemType&#45;&gt;CollectionTypeAccessType -->
<g id="edge24" class="edge"><title>CollectionTypeItemType&#45;&gt;CollectionTypeAccessType</title>
<path fill="none" stroke="black" d="M787.133,-308.966C842.481,-319.974 906.116,-332.631 961.564,-343.659"/>
<text text-anchor="middle" x="873.101" y="-340.012" font-family="Times New Roman,serif" font-size="8.00">Access</text>
<text text-anchor="middle" x="953.564" y="-337.259" font-family="Times New Roman,serif" font-size="8.00">0...*</text>
<text text-anchor="middle" x="795.133" y="-302.566" font-family="Times New Roman,serif" font-size="8.00">0...*</text>
</g>
<!-- CollectionTypeItemType&#45;&gt;Organization -->
<g id="edge25" class="edge"><title>CollectionTypeItemType&#45;&gt;Organization</title>
<path fill="none" stroke="black" d="M725.216,-218.595C748.216,-196.142 771.461,-169.208 787.101,-140.412 804.702,-108.006 777.454,-83.8184 805.101,-59.4124 824.377,-42.3958 992.959,-34.906 1066.75,-32.4215"/>
<text text-anchor="middle" x="873.101" y="-62.0124" font-family="Times New Roman,serif" font-size="8.00">OriginalArchiveOrganizationReference</text>
<text text-anchor="middle" x="1058.75" y="-35.0215" font-family="Times New Roman,serif" font-size="8.00">0...*</text>
<text text-anchor="middle" x="717.216" y="-212.195" font-family="Times New Roman,serif" font-size="8.00">0...*</text>
</g>
<!-- CollectionTypeItemType&#45;&gt;CollectionTypeStructuredStringType -->
<g id="edge26" class="edge"><title>CollectionTypeItemType&#45;&gt;CollectionTypeStructuredStringType</title>
<path fill="none" stroke="black" d="M762.307,-343.946C841.977,-387.204 937.867,-437.946 959.101,-443.412 1136.46,-489.068 1189.9,-476.973 1371.1,-450.412 1396.46,-446.696 1423.84,-438.902 1446.36,-431.422"/>
<text text-anchor="middle" x="1102.1" y="-477.012" font-family="Times New Roman,serif" font-size="8.00">AvailabilityStatus</text>
<text text-anchor="middle" x="1438.36" y="-434.022" font-family="Times New Roman,serif" font-size="8.00">0...*</text>
<text text-anchor="middle" x="754.307" y="-346.546" font-family="Times New Roman,serif" font-size="8.00">0...*</text>
</g>
<!-- CollectionTypeItemType&#45;&gt;CollectionTypeStructuredStringType -->
<g id="edge27" class="edge"><title>CollectionTypeItemType&#45;&gt;CollectionTypeStructuredStringType</title>
<path fill="none" stroke="black" d="M787.43,-273.148C982.472,-262.501 1319.66,-247.976 1371.1,-271.412 1427.74,-297.216 1468.47,-363.248 1485.61,-395.349"/>
<text text-anchor="middle" x="1102.1" y="-268.012" font-family="Times New Roman,serif" font-size="8.00">CollectionCompleteness</text>
<text text-anchor="middle" x="1477.61" y="-388.949" font-family="Times New Roman,serif" font-size="8.00">0...*</text>
<text text-anchor="middle" x="795.43" y="-266.748" font-family="Times New Roman,serif" font-size="8.00">0...*</text>
</g>
<!-- CollectionTypeItemType&#45;&gt;CollectionTypeItemType -->
<g id="edge28" class="edge"><title>CollectionTypeItemType&#45;&gt;CollectionTypeItemType</title>
<path fill="none" stroke="black" d="M618.545,-344.243C622.515,-354.976 632.201,-362.412 647.601,-362.412 663.001,-362.412 672.687,-354.976 676.657,-344.243"/>
<text text-anchor="middle" x="647.601" y="-365.012" font-family="Times New Roman,serif" font-size="8.00">Item</text>
<text text-anchor="middle" x="668.657" y="-346.843" font-family="Times New Roman,serif" font-size="8.00">0...*</text>
<text text-anchor="middle" x="610.545" y="-346.843" font-family="Times New Roman,serif" font-size="8.00">0...*</text>
</g>
<!-- ArchiveSpecificType -->
<g id="ReusableTypeArchiveSpecificType0" class="node"><title></title><ellipse fill="#f7b733" stroke="black" cx="51.0505" cy="-281.412" rx="51.1011" ry="18" style="filter: url(#dropshadow)"/>
<text text-anchor="middle" x="51.0505" y="-279.512" font-family="Times New Roman,serif" font-size="8.00">ArchiveSpecificType</text>
</g>
<!-- ArchiveSpecificType&#45;&gt;CollectionTypeProperties -->
<g id="edge29" class="edge"><title>ArchiveSpecificType&#45;&gt;CollectionTypeProperties</title>
<path fill="none" stroke="black" d="M102.266,-281.412C121.324,-281.412 144.123,-281.412 167.595,-281.412"/>
<text text-anchor="middle" x="138.601" y="-284.012" font-family="Times New Roman,serif" font-size="8.00">Collection</text>
<text text-anchor="middle" x="159.595" y="-275.012" font-family="Times New Roman,serif" font-size="8.00">0...*</text>
<text text-anchor="middle" x="110.266" y="-275.012" font-family="Times New Roman,serif" font-size="8.00">0...*</text>
</g>
</g>
</svg>
