<?xml version="1.0" encoding="UTF-8" standalone="no"?>
<!DOCTYPE svg PUBLIC "-//W3C//DTD SVG 1.1//EN"
 "http://www.w3.org/Graphics/SVG/1.1/DTD/svg11.dtd">
<!-- Generated by graphviz version 2.38.0 (20140413.2041)
 -->
<!-- Title: G Pages: 1 -->
<svg width="878pt" height="962pt"
 viewBox="0.00 0.00 878.45 962.00" xmlns="http://www.w3.org/2000/svg" xmlns:xlink="http://www.w3.org/1999/xlink">
<filter id = "dropshadow" height = "130%" ><feGaussianBlur in= "SourceAlpha" stdDeviation = "3"/><!--stdDeviation is how much to blur--><feOffset dx = "2" dy = "2" result = "offsetblur"/><!--how much to offset--><feMerge><feMergeNode/><!--this contains the offset blurred image--><feMergeNode in= "SourceGraphic"/><!--this contains the element that the filter is applied to --></feMerge></filter>
<g id="graph0" class="graph" transform="scale(1 1) rotate(0) translate(4 958)">
<title>G</title>
<g id="clust1" class="cluster"><title>clusterCommandCodeType</title>
<polygon fill="#4abdac" stroke="black" points="234.446,-413 234.446,-693 862.446,-693 862.446,-413 234.446,-413" style="filter: url(#dropshadow)"/>
<text text-anchor="middle" x="548.446" y="-682.6" font-family="Times New Roman,serif" font-size="8.00">CommandCodeType</text>
</g>
<!-- CommandCodeTypeProperties -->
<g id="ReusableTypeCommandCodeTypeProperties" class="node"><title></title><polygon fill="#f7b733" stroke="black" points="242.446,-509 242.446,-553 501.446,-553 501.446,-509 242.446,-509" style="filter: url(#dropshadow)"/>
<text text-anchor="middle" x="268.946" y="-529.1" font-family="Times New Roman,serif" font-size="8.00">Properties</text>
<polyline fill="none" stroke="black" points="295.446,-509 295.446,-553 "/>
<text text-anchor="start" x="303.446" y="-542.6" font-family="Times New Roman,serif" font-size="8.00">Description : StructuredStringType[0...1] </text>
<text text-anchor="start" x="303.446" y="-533.6" font-family="Times New Roman,serif" font-size="8.00">Command : CommandType[0...n] </text>
<text text-anchor="start" x="303.446" y="-524.6" font-family="Times New Roman,serif" font-size="8.00">CommandFile : CommandFileType[0...n] </text>
<text text-anchor="start" x="303.446" y="-515.6" font-family="Times New Roman,serif" font-size="8.00">StructuredCommand : StructuredCommandType[0...1] </text>
</g>
<!-- CommandCodeTypeStructuredStringType -->
<g id="ReusableTypeCommandCodeTypeStructuredStringType" class="node"><title></title><polygon fill="#fc4a1a" stroke="black" points="624.446,-422 624.446,-458 837.446,-458 837.446,-422 624.446,-422" style="filter: url(#dropshadow)"/>
<text text-anchor="middle" x="669.446" y="-438.1" font-family="Times New Roman,serif" font-size="8.00">StructuredStringType</text>
<polyline fill="none" stroke="black" points="714.446,-422 714.446,-458 "/>
<text text-anchor="start" x="722.446" y="-438.1" font-family="Times New Roman,serif" font-size="8.00">Content : ContentType[0...n] </text>
</g>
<!-- CommandCodeTypeProperties&#45;&gt;CommandCodeTypeStructuredStringType -->
<g id="edge1" class="edge"><title>CommandCodeTypeProperties&#45;&gt;CommandCodeTypeStructuredStringType</title>
<path fill="none" stroke="black" d="M451.991,-508.967C497.37,-496.518 555.489,-480.912 607.446,-468 620.89,-464.659 635.201,-461.252 649.123,-458.019"/>
<text text-anchor="middle" x="554.446" y="-492.6" font-family="Times New Roman,serif" font-size="8.00">Description</text>
</g>
<!-- CommandCodeTypeCommandType -->
<g id="ReusableTypeCommandCodeTypeCommandType" class="node"><title></title><polygon fill="#fc4a1a" stroke="black" points="613.446,-477.5 613.446,-530.5 848.446,-530.5 848.446,-477.5 613.446,-477.5" style="filter: url(#dropshadow)"/>
<text text-anchor="middle" x="648.946" y="-502.1" font-family="Times New Roman,serif" font-size="8.00">CommandType</text>
<polyline fill="none" stroke="black" points="684.446,-477.5 684.446,-530.5 "/>
<text text-anchor="start" x="692.446" y="-520.1" font-family="Times New Roman,serif" font-size="8.00">ProgramLanguage : CodeValueType[0...1] </text>
<text text-anchor="start" x="692.446" y="-511.1" font-family="Times New Roman,serif" font-size="8.00">InParameter : InParameterType[0...n] </text>
<text text-anchor="start" x="692.446" y="-502.1" font-family="Times New Roman,serif" font-size="8.00">OutParameter : ParameterType[0...n] </text>
<text text-anchor="start" x="692.446" y="-493.1" font-family="Times New Roman,serif" font-size="8.00">Binding : BindingType[0...n] </text>
<text text-anchor="start" x="692.446" y="-484.1" font-family="Times New Roman,serif" font-size="8.00">CommandContent : string[0...1] </text>
</g>
<!-- CommandCodeTypeProperties&#45;&gt;CommandCodeTypeCommandType -->
<g id="edge2" class="edge"><title>CommandCodeTypeProperties&#45;&gt;CommandCodeTypeCommandType</title>
<path fill="none" stroke="black" d="M501.579,-521.271C538.044,-518.514 577.529,-515.527 613.247,-512.826"/>
<text text-anchor="middle" x="554.446" y="-522.6" font-family="Times New Roman,serif" font-size="8.00">Command</text>
</g>
<!-- CommandCodeTypeCommandFileType -->
<g id="ReusableTypeCommandCodeTypeCommandFileType" class="node"><title></title><polygon fill="#fc4a1a" stroke="black" points="607.446,-550 607.446,-612 854.446,-612 854.446,-550 607.446,-550" style="filter: url(#dropshadow)"/>
<text text-anchor="middle" x="648.946" y="-579.1" font-family="Times New Roman,serif" font-size="8.00">CommandFileType</text>
<polyline fill="none" stroke="black" points="690.446,-550 690.446,-612 "/>
<text text-anchor="start" x="698.446" y="-601.6" font-family="Times New Roman,serif" font-size="8.00">ProgramLanguage : CodeValueType[0...1] </text>
<text text-anchor="start" x="698.446" y="-592.6" font-family="Times New Roman,serif" font-size="8.00">InParameter : InParameterType[0...n] </text>
<text text-anchor="start" x="698.446" y="-583.6" font-family="Times New Roman,serif" font-size="8.00">OutParameter : ParameterType[0...n] </text>
<text text-anchor="start" x="698.446" y="-574.6" font-family="Times New Roman,serif" font-size="8.00">Binding : BindingType[0...n] </text>
<text text-anchor="start" x="698.446" y="-565.6" font-family="Times New Roman,serif" font-size="8.00">Location : InternationalStringType[0...1] </text>
<text text-anchor="start" x="698.446" y="-556.6" font-family="Times New Roman,serif" font-size="8.00">URI : anyURI[0...1] </text>
</g>
<!-- CommandCodeTypeProperties&#45;&gt;CommandCodeTypeCommandFileType -->
<g id="edge3" class="edge"><title>CommandCodeTypeProperties&#45;&gt;CommandCodeTypeCommandFileType</title>
<path fill="none" stroke="black" d="M501.579,-549.016C536.046,-553.843 573.211,-559.048 607.342,-563.829"/>
<text text-anchor="middle" x="554.446" y="-563.6" font-family="Times New Roman,serif" font-size="8.00">CommandFile</text>
</g>
<!-- CommandCodeTypeStructuredCommandType -->
<g id="ReusableTypeCommandCodeTypeStructuredCommandType" class="node"><title></title><polygon fill="#fc4a1a" stroke="black" points="668.946,-631 668.946,-667 792.946,-667 792.946,-631 668.946,-631" style="filter: url(#dropshadow)"/>
<text text-anchor="middle" x="721.446" y="-647.1" font-family="Times New Roman,serif" font-size="8.00">StructuredCommandType</text>
<polyline fill="none" stroke="black" points="773.946,-631 773.946,-667 "/>
<text text-anchor="middle" x="783.446" y="-647.1" font-family="Times New Roman,serif" font-size="8.00"> </text>
</g>
<!-- CommandCodeTypeProperties&#45;&gt;CommandCodeTypeStructuredCommandType -->
<g id="edge4" class="edge"><title>CommandCodeTypeProperties&#45;&gt;CommandCodeTypeStructuredCommandType</title>
<path fill="none" stroke="black" d="M424.366,-553.161C471.392,-572.842 543.203,-601.438 607.446,-621 627.168,-627.005 649.022,-632.393 668.746,-636.8"/>
<text text-anchor="middle" x="554.446" y="-617.6" font-family="Times New Roman,serif" font-size="8.00">StructuredCommand</text>
</g>
<!-- ComputationItem -->
<g id="ItemTypeComputationItem" class="node"><title></title><ellipse fill="#f7b733" stroke="black" cx="56.7228" cy="-936" rx="44.6228" ry="18" style="filter: url(#dropshadow)"/>
<text text-anchor="middle" x="56.7228" y="-934.1" font-family="Times New Roman,serif" font-size="8.00">ComputationItem</text>
</g>
<!-- ComputationItem&#45;&gt;CommandCodeTypeProperties -->
<g id="edge5" class="edge"><title>ComputationItem&#45;&gt;CommandCodeTypeProperties</title>
<path fill="none" stroke="black" d="M101.4,-933.762C138.315,-929.679 190.467,-918.46 224.446,-888 281.055,-837.252 316.264,-761.345 337.921,-692.556"/>
<text text-anchor="middle" x="177.946" y="-932.6" font-family="Times New Roman,serif" font-size="8.00">CommandCode</text>
</g>
<!-- GeneralInstruction -->
<g id="ItemTypeGeneralInstruction" class="node"><title></title><ellipse fill="#f7b733" stroke="black" cx="56.7228" cy="-882" rx="45.891" ry="18" style="filter: url(#dropshadow)"/>
<text text-anchor="middle" x="56.7228" y="-880.1" font-family="Times New Roman,serif" font-size="8.00">GeneralInstruction</text>
</g>
<!-- GeneralInstruction&#45;&gt;CommandCodeTypeProperties -->
<g id="edge6" class="edge"><title>GeneralInstruction&#45;&gt;CommandCodeTypeProperties</title>
<path fill="none" stroke="black" d="M102.402,-879.059C138.94,-874.517 190.016,-863.022 224.446,-834 268.181,-797.134 299.89,-744.155 322.376,-692.777"/>
<text text-anchor="middle" x="177.946" y="-877.6" font-family="Times New Roman,serif" font-size="8.00">CommandCode</text>
</g>
<!-- GenerationInstruction -->
<g id="ItemTypeGenerationInstruction" class="node"><title></title><ellipse fill="#f7b733" stroke="black" cx="56.7228" cy="-828" rx="52.5056" ry="18" style="filter: url(#dropshadow)"/>
<text text-anchor="middle" x="56.7228" y="-826.1" font-family="Times New Roman,serif" font-size="8.00">GenerationInstruction</text>
</g>
<!-- GenerationInstruction&#45;&gt;CommandCodeTypeProperties -->
<g id="edge7" class="edge"><title>GenerationInstruction&#45;&gt;CommandCodeTypeProperties</title>
<path fill="none" stroke="black" d="M108.876,-824.748C144.393,-820.205 191.132,-809.429 224.446,-784 255.965,-759.94 281.891,-727.003 302.701,-692.847"/>
<text text-anchor="middle" x="177.946" y="-823.6" font-family="Times New Roman,serif" font-size="8.00">CommandCode</text>
</g>
<!-- IfThenElse -->
<g id="ItemTypeIfThenElse" class="node"><title></title><ellipse fill="#f7b733" stroke="black" cx="56.7228" cy="-774" rx="31.5313" ry="18" style="filter: url(#dropshadow)"/>
<text text-anchor="middle" x="56.7228" y="-772.1" font-family="Times New Roman,serif" font-size="8.00">IfThenElse</text>
</g>
<!-- IfThenElse&#45;&gt;CommandCodeTypeProperties -->
<g id="edge8" class="edge"><title>IfThenElse&#45;&gt;CommandCodeTypeProperties</title>
<path fill="none" stroke="black" d="M88.5677,-774.355C124.11,-773.349 182.942,-767.21 224.446,-740 244.013,-727.172 261.741,-710.743 277.557,-692.746"/>
<text text-anchor="middle" x="177.946" y="-773.6" font-family="Times New Roman,serif" font-size="8.00">IfCondition</text>
</g>
<!-- Loop -->
<g id="ItemTypeLoop0" class="node"><title></title><ellipse fill="#f7b733" stroke="black" cx="56.7228" cy="-720" rx="27" ry="18" style="filter: url(#dropshadow)"/>
<text text-anchor="middle" x="56.7228" y="-718.1" font-family="Times New Roman,serif" font-size="8.00">Loop</text>
</g>
<!-- Loop&#45;&gt;CommandCodeTypeProperties -->
<g id="edge9" class="edge"><title>Loop&#45;&gt;CommandCodeTypeProperties</title>
<path fill="none" stroke="black" d="M83.0889,-724.068C117.264,-728.289 179.04,-731.387 224.446,-708 232.999,-703.594 241.242,-698.447 249.156,-692.738"/>
<text text-anchor="middle" x="177.946" y="-729.6" font-family="Times New Roman,serif" font-size="8.00">InitialValue</text>
</g>
<!-- Loop&#45;&gt;CommandCodeTypeProperties -->
<g id="edge10" class="edge"><title>Loop&#45;&gt;CommandCodeTypeProperties</title>
<path fill="none" stroke="black" d="M81.9029,-712.881C96.2647,-708.711 114.855,-703.413 131.446,-699 172.593,-688.055 187.313,-696.836 224.446,-676 227.966,-674.024 231.461,-671.941 234.926,-669.764"/>
<text text-anchor="middle" x="177.946" y="-701.6" font-family="Times New Roman,serif" font-size="8.00">LoopWhile</text>
</g>
<!-- Loop&#45;&gt;CommandCodeTypeProperties -->
<g id="edge11" class="edge"><title>Loop&#45;&gt;CommandCodeTypeProperties</title>
<path fill="none" stroke="black" d="M80.9931,-711.885C91.6455,-707.416 103.975,-701.112 113.446,-693 124.12,-683.858 119.877,-674.98 131.446,-667 166.494,-642.823 186.101,-662.51 224.446,-644 227.883,-642.341 231.317,-640.592 234.74,-638.766"/>
<text text-anchor="middle" x="177.946" y="-669.6" font-family="Times New Roman,serif" font-size="8.00">StepValue</text>
</g>
<!-- RepeatUntil -->
<g id="ItemTypeRepeatUntil1" class="node"><title></title><ellipse fill="#f7b733" stroke="black" cx="56.7228" cy="-666" rx="33.433" ry="18" style="filter: url(#dropshadow)"/>
<text text-anchor="middle" x="56.7228" y="-664.1" font-family="Times New Roman,serif" font-size="8.00">RepeatUntil</text>
</g>
<!-- RepeatUntil&#45;&gt;CommandCodeTypeProperties -->
<g id="edge12" class="edge"><title>RepeatUntil&#45;&gt;CommandCodeTypeProperties</title>
<path fill="none" stroke="black" d="M83.0731,-654.632C97.1841,-648.484 115.143,-640.954 131.446,-635 172.115,-620.147 184.363,-622.369 224.446,-606 227.832,-604.617 231.247,-603.185 234.677,-601.711"/>
<text text-anchor="middle" x="177.946" y="-637.6" font-family="Times New Roman,serif" font-size="8.00">UntilCondition</text>
</g>
<!-- RepeatWhile -->
<g id="ItemTypeRepeatWhile2" class="node"><title></title><ellipse fill="#f7b733" stroke="black" cx="56.7228" cy="-612" rx="35.3371" ry="18" style="filter: url(#dropshadow)"/>
<text text-anchor="middle" x="56.7228" y="-610.1" font-family="Times New Roman,serif" font-size="8.00">RepeatWhile</text>
</g>
<!-- RepeatWhile&#45;&gt;CommandCodeTypeProperties -->
<g id="edge13" class="edge"><title>RepeatWhile&#45;&gt;CommandCodeTypeProperties</title>
<path fill="none" stroke="black" d="M88.3262,-604.086C122.504,-595.248 180.185,-580.331 234.559,-566.27"/>
<text text-anchor="middle" x="177.946" y="-595.6" font-family="Times New Roman,serif" font-size="8.00">WhileCondition</text>
</g>
<!-- SampleStep -->
<g id="ItemTypeSampleStep3" class="node"><title></title><ellipse fill="#f7b733" stroke="black" cx="56.7228" cy="-558" rx="31.5313" ry="18" style="filter: url(#dropshadow)"/>
<text text-anchor="middle" x="56.7228" y="-556.1" font-family="Times New Roman,serif" font-size="8.00">SampleStep</text>
</g>
<!-- SampleStep&#45;&gt;CommandCodeTypeProperties -->
<g id="edge14" class="edge"><title>SampleStep&#45;&gt;CommandCodeTypeProperties</title>
<path fill="none" stroke="black" d="M88.3262,-555.362C122.578,-552.409 180.437,-547.422 234.915,-542.726"/>
<text text-anchor="middle" x="177.946" y="-554.6" font-family="Times New Roman,serif" font-size="8.00">CommandCode</text>
</g>
<!-- Universe -->
<g id="ItemTypeUniverse4" class="node"><title></title><ellipse fill="#f7b733" stroke="black" cx="56.7228" cy="-504" rx="27" ry="18" style="filter: url(#dropshadow)"/>
<text text-anchor="middle" x="56.7228" y="-502.1" font-family="Times New Roman,serif" font-size="8.00">Universe</text>
</g>
<!-- Universe&#45;&gt;CommandCodeTypeProperties -->
<g id="edge15" class="edge"><title>Universe&#45;&gt;CommandCodeTypeProperties</title>
<path fill="none" stroke="black" d="M83.6216,-506.232C117.007,-509.11 177.552,-514.329 234.484,-519.237"/>
<text text-anchor="middle" x="177.946" y="-521.6" font-family="Times New Roman,serif" font-size="8.00">UniverseGenerationCode</text>
</g>
<!-- ConditionalTextType -->
<g id="ReusableTypeConditionalTextType5" class="node"><title></title><ellipse fill="#f7b733" stroke="black" cx="56.7228" cy="-450" rx="52.5056" ry="18" style="filter: url(#dropshadow)"/>
<text text-anchor="middle" x="56.7228" y="-448.1" font-family="Times New Roman,serif" font-size="8.00">ConditionalTextType</text>
</g>
<!-- ConditionalTextType&#45;&gt;CommandCodeTypeProperties -->
<g id="edge16" class="edge"><title>ConditionalTextType&#45;&gt;CommandCodeTypeProperties</title>
<path fill="none" stroke="black" d="M99.3164,-460.756C134.085,-469.747 185.709,-483.097 234.642,-495.752"/>
<text text-anchor="middle" x="177.946" y="-495.6" font-family="Times New Roman,serif" font-size="8.00">Expression</text>
</g>
<!-- ElseIfTextType -->
<g id="ReusableTypeElseIfTextType6" class="node"><title></title><ellipse fill="#f7b733" stroke="black" cx="56.7228" cy="-396" rx="41.3155" ry="18" style="filter: url(#dropshadow)"/>
<text text-anchor="middle" x="56.7228" y="-394.1" font-family="Times New Roman,serif" font-size="8.00">ElseIfTextType</text>
</g>
<!-- ElseIfTextType&#45;&gt;CommandCodeTypeProperties -->
<g id="edge17" class="edge"><title>ElseIfTextType&#45;&gt;CommandCodeTypeProperties</title>
<path fill="none" stroke="black" d="M90.4374,-406.703C124.378,-418.1 178.779,-437.193 224.446,-457 227.877,-458.488 231.341,-460.018 234.826,-461.582"/>
<text text-anchor="middle" x="177.946" y="-459.6" font-family="Times New Roman,serif" font-size="8.00">IfCondition</text>
</g>
<!-- ElseIfType -->
<g id="ReusableTypeElseIfType7" class="node"><title></title><ellipse fill="#f7b733" stroke="black" cx="56.7228" cy="-342" rx="31.5313" ry="18" style="filter: url(#dropshadow)"/>
<text text-anchor="middle" x="56.7228" y="-340.1" font-family="Times New Roman,serif" font-size="8.00">ElseIfType</text>
</g>
<!-- ElseIfType&#45;&gt;CommandCodeTypeProperties -->
<g id="edge18" class="edge"><title>ElseIfType&#45;&gt;CommandCodeTypeProperties</title>
<path fill="none" stroke="black" d="M85.2115,-350.116C119.297,-360.825 178.511,-381.574 224.446,-409 227.843,-411.028 231.242,-413.133 234.635,-415.303"/>
<text text-anchor="middle" x="177.946" y="-411.6" font-family="Times New Roman,serif" font-size="8.00">IfCondition</text>
</g>
<!-- GenerationType -->
<g id="ReusableTypeGenerationType8" class="node"><title></title><ellipse fill="#f7b733" stroke="black" cx="56.7228" cy="-288" rx="41.9498" ry="18" style="filter: url(#dropshadow)"/>
<text text-anchor="middle" x="56.7228" y="-286.1" font-family="Times New Roman,serif" font-size="8.00">GenerationType</text>
</g>
<!-- GenerationType&#45;&gt;CommandCodeTypeProperties -->
<g id="edge19" class="edge"><title>GenerationType&#45;&gt;CommandCodeTypeProperties</title>
<path fill="none" stroke="black" d="M93.8077,-296.626C129.438,-306.381 184.271,-324.821 224.446,-354 247.314,-370.61 268.746,-391.584 287.786,-413.235"/>
<text text-anchor="middle" x="177.946" y="-356.6" font-family="Times New Roman,serif" font-size="8.00">CommandCode</text>
</g>
<!-- IfThenElseTextType -->
<g id="ReusableTypeIfThenElseTextType9" class="node"><title></title><ellipse fill="#f7b733" stroke="black" cx="56.7228" cy="-234" rx="52.3706" ry="18" style="filter: url(#dropshadow)"/>
<text text-anchor="middle" x="56.7228" y="-232.1" font-family="Times New Roman,serif" font-size="8.00">IfThenElseTextType</text>
</g>
<!-- IfThenElseTextType&#45;&gt;CommandCodeTypeProperties -->
<g id="edge20" class="edge"><title>IfThenElseTextType&#45;&gt;CommandCodeTypeProperties</title>
<path fill="none" stroke="black" d="M102.791,-242.682C138.832,-251.457 189.021,-267.979 224.446,-297 262.535,-328.204 293.647,-372.048 317.247,-413.361"/>
<text text-anchor="middle" x="177.946" y="-299.6" font-family="Times New Roman,serif" font-size="8.00">IfCondition</text>
</g>
<!-- RestrictionProcessType -->
<g id="ReusableTypeRestrictionProcessType0" class="node"><title></title><ellipse fill="#f7b733" stroke="black" cx="56.7228" cy="-180" rx="56.9465" ry="18" style="filter: url(#dropshadow)"/>
<text text-anchor="middle" x="56.7228" y="-178.1" font-family="Times New Roman,serif" font-size="8.00">RestrictionProcessType</text>
</g>
<!-- RestrictionProcessType&#45;&gt;CommandCodeTypeProperties -->
<g id="edge21" class="edge"><title>RestrictionProcessType&#45;&gt;CommandCodeTypeProperties</title>
<path fill="none" stroke="black" d="M108.394,-187.6C144.367,-195.262 191.867,-210.256 224.446,-239 276.594,-285.011 312.396,-353.935 335.548,-413.267"/>
<text text-anchor="middle" x="177.946" y="-241.6" font-family="Times New Roman,serif" font-size="8.00">CommandCode</text>
</g>
<!-- RosterType -->
<g id="ReusableTypeRosterType1" class="node"><title></title><ellipse fill="#f7b733" stroke="black" cx="56.7228" cy="-126" rx="32.7988" ry="18" style="filter: url(#dropshadow)"/>
<text text-anchor="middle" x="56.7228" y="-124.1" font-family="Times New Roman,serif" font-size="8.00">RosterType</text>
</g>
<!-- RosterType&#45;&gt;CommandCodeTypeProperties -->
<g id="edge22" class="edge"><title>RosterType&#45;&gt;CommandCodeTypeProperties</title>
<path fill="none" stroke="black" d="M89.3005,-128.619C126.087,-133.255 186.634,-146.02 224.446,-181 290.411,-242.025 327.673,-337.402 348.092,-413.189"/>
<text text-anchor="middle" x="177.946" y="-183.6" font-family="Times New Roman,serif" font-size="8.00">ConditionForContinuation</text>
</g>
<!-- SpecificSequenceType -->
<g id="ReusableTypeSpecificSequenceType2" class="node"><title></title><ellipse fill="#f7b733" stroke="black" cx="56.7228" cy="-72" rx="52.5056" ry="18" style="filter: url(#dropshadow)"/>
<text text-anchor="middle" x="56.7228" y="-70.1" font-family="Times New Roman,serif" font-size="8.00">SpecificSequenceType</text>
</g>
<!-- SpecificSequenceType&#45;&gt;CommandCodeTypeProperties -->
<g id="edge23" class="edge"><title>SpecificSequenceType&#45;&gt;CommandCodeTypeProperties</title>
<path fill="none" stroke="black" d="M108.579,-75.9778C145.118,-81.3885 193.242,-94.1153 224.446,-124 303.944,-200.138 340.434,-322.517 357.103,-413.223"/>
<text text-anchor="middle" x="177.946" y="-126.6" font-family="Times New Roman,serif" font-size="8.00">AlternateSequenceType</text>
</g>
<!-- UsageGuideType -->
<g id="ReusableTypeUsageGuideType3" class="node"><title></title><ellipse fill="#f7b733" stroke="black" cx="56.7228" cy="-18" rx="41.9498" ry="18" style="filter: url(#dropshadow)"/>
<text text-anchor="middle" x="56.7228" y="-16.1" font-family="Times New Roman,serif" font-size="8.00">UsageGuideType</text>
</g>
<!-- UsageGuideType&#45;&gt;CommandCodeTypeProperties -->
<g id="edge24" class="edge"><title>UsageGuideType&#45;&gt;CommandCodeTypeProperties</title>
<path fill="none" stroke="black" d="M98.794,-19.7843C136.298,-23.5883 190.862,-34.9186 224.446,-68 317.137,-159.304 351.313,-308.778 363.839,-413.111"/>
<text text-anchor="middle" x="177.946" y="-70.6" font-family="Times New Roman,serif" font-size="8.00">CommandCode</text>
</g>
</g>
</svg>
