<?xml version="1.0" encoding="UTF-8" standalone="no"?>
<!DOCTYPE svg PUBLIC "-//W3C//DTD SVG 1.1//EN"
 "http://www.w3.org/Graphics/SVG/1.1/DTD/svg11.dtd">
<!-- Generated by graphviz version 2.38.0 (20140413.2041)
 -->
<!-- Title: G Pages: 1 -->
<svg width="846pt" height="366pt"
 viewBox="0.00 0.00 846.22 366.00" xmlns="http://www.w3.org/2000/svg" xmlns:xlink="http://www.w3.org/1999/xlink">
<filter id = "dropshadow" height = "130%" ><feGaussianBlur in= "SourceAlpha" stdDeviation = "3"/><!--stdDeviation is how much to blur--><feOffset dx = "2" dy = "2" result = "offsetblur"/><!--how much to offset--><feMerge><feMergeNode/><!--this contains the offset blurred image--><feMergeNode in= "SourceGraphic"/><!--this contains the element that the filter is applied to --></feMerge></filter>
<g id="graph0" class="graph" transform="scale(1 1) rotate(0) translate(4 362)">
<title>G</title>
<g id="clust1" class="cluster"><title>clusterComparison</title>
<polygon fill="#4abdac" stroke="black" points="191.219,-151 191.219,-350 830.219,-350 830.219,-151 191.219,-151" style="filter: url(#dropshadow)"/>
<text text-anchor="middle" x="510.719" y="-339.6" font-family="Times New Roman,serif" font-size="8.00">Comparison</text>
</g>
<!-- ComparisonProperties -->
<g id="ItemTypeComparisonProperties" class="node"><title></title><polygon fill="#f7b733" stroke="black" points="199.219,-160 199.219,-258 470.219,-258 470.219,-160 199.219,-160" style="filter: url(#dropshadow)"/>
<text text-anchor="middle" x="225.719" y="-207.1" font-family="Times New Roman,serif" font-size="8.00">Properties</text>
<polyline fill="none" stroke="black" points="252.219,-160 252.219,-258 "/>
<text text-anchor="start" x="260.219" y="-247.6" font-family="Times New Roman,serif" font-size="8.00">ComparisonName : NameType[0...n] </text>
<text text-anchor="start" x="260.219" y="-238.6" font-family="Times New Roman,serif" font-size="8.00">Label : LabelType[0...n] </text>
<text text-anchor="start" x="260.219" y="-229.6" font-family="Times New Roman,serif" font-size="8.00">Description : StructuredStringType[0...1] </text>
<text text-anchor="start" x="260.219" y="-220.6" font-family="Times New Roman,serif" font-size="8.00">ConceptMapReference : GenericMap[0...n] </text>
<text text-anchor="start" x="260.219" y="-211.6" font-family="Times New Roman,serif" font-size="8.00">VariableMapReference : GenericMap[0...n] </text>
<text text-anchor="start" x="260.219" y="-202.6" font-family="Times New Roman,serif" font-size="8.00">QuestionMapReference : GenericMap[0...n] </text>
<text text-anchor="start" x="260.219" y="-193.6" font-family="Times New Roman,serif" font-size="8.00">CategoryMapReference : GenericMap[0...n] </text>
<text text-anchor="start" x="260.219" y="-184.6" font-family="Times New Roman,serif" font-size="8.00">RepresentationMapReference : RepresentationMap[0...n] </text>
<text text-anchor="start" x="260.219" y="-175.6" font-family="Times New Roman,serif" font-size="8.00">UniverseMapReference : GenericMap[0...n] </text>
<text text-anchor="start" x="260.219" y="-166.6" font-family="Times New Roman,serif" font-size="8.00">ManagedItemMapReference : GenericMap[0...n] </text>
</g>
<!-- ComparisonNameType -->
<g id="ReusableTypeComparisonNameType" class="node"><title></title><polygon fill="#fc4a1a" stroke="black" points="631.219,-160 631.219,-196 800.219,-196 800.219,-160 631.219,-160" style="filter: url(#dropshadow)"/>
<text text-anchor="middle" x="659.219" y="-176.1" font-family="Times New Roman,serif" font-size="8.00">NameType</text>
<polyline fill="none" stroke="black" points="687.219,-160 687.219,-196 "/>
<text text-anchor="start" x="695.219" y="-180.6" font-family="Times New Roman,serif" font-size="8.00">IsPreferred : boolean[0...1] </text>
<text text-anchor="start" x="695.219" y="-171.6" font-family="Times New Roman,serif" font-size="8.00">Context : string[0...1] </text>
</g>
<!-- ComparisonProperties&#45;&gt;ComparisonNameType -->
<g id="edge1" class="edge"><title>ComparisonProperties&#45;&gt;ComparisonNameType</title>
<path fill="none" stroke="black" d="M470.35,-233.198C510.147,-235.486 553.213,-233.04 591.219,-220 600.805,-216.711 600.138,-210.501 609.219,-206 616.774,-202.255 624.891,-198.965 633.145,-196.086"/>
<text text-anchor="middle" x="539.719" y="-236.6" font-family="Times New Roman,serif" font-size="8.00">ComparisonName</text>
</g>
<!-- ComparisonLabelType -->
<g id="ReusableTypeComparisonLabelType" class="node"><title></title><polygon fill="#fc4a1a" stroke="black" points="610.219,-215.5 610.219,-268.5 821.219,-268.5 821.219,-215.5 610.219,-215.5" style="filter: url(#dropshadow)"/>
<text text-anchor="middle" x="637.219" y="-240.1" font-family="Times New Roman,serif" font-size="8.00">LabelType</text>
<polyline fill="none" stroke="black" points="664.219,-215.5 664.219,-268.5 "/>
<text text-anchor="start" x="672.219" y="-258.1" font-family="Times New Roman,serif" font-size="8.00">TypeOfLabel : CodeValueType[0...1] </text>
<text text-anchor="start" x="672.219" y="-249.1" font-family="Times New Roman,serif" font-size="8.00">LocationVariant : string[0...1] </text>
<text text-anchor="start" x="672.219" y="-240.1" font-family="Times New Roman,serif" font-size="8.00">ValidForStartDate : cogsDate[0...1] </text>
<text text-anchor="start" x="672.219" y="-231.1" font-family="Times New Roman,serif" font-size="8.00">ValidForEndDate : cogsDate[0...1] </text>
<text text-anchor="start" x="672.219" y="-222.1" font-family="Times New Roman,serif" font-size="8.00">MaxLength : nonNegativeInteger[0...1] </text>
</g>
<!-- ComparisonProperties&#45;&gt;ComparisonLabelType -->
<g id="edge2" class="edge"><title>ComparisonProperties&#45;&gt;ComparisonLabelType</title>
<path fill="none" stroke="black" d="M470.515,-244.442C476.476,-245.423 482.396,-246.285 488.219,-247 533.656,-252.576 545.45,-247.926 591.219,-247 597.333,-246.876 603.617,-246.718 609.956,-246.535"/>
<text text-anchor="middle" x="539.719" y="-252.6" font-family="Times New Roman,serif" font-size="8.00">Label</text>
</g>
<!-- ComparisonStructuredStringType -->
<g id="ReusableTypeComparisonStructuredStringType" class="node"><title></title><polygon fill="#fc4a1a" stroke="black" points="609.219,-288 609.219,-324 822.219,-324 822.219,-288 609.219,-288" style="filter: url(#dropshadow)"/>
<text text-anchor="middle" x="654.219" y="-304.1" font-family="Times New Roman,serif" font-size="8.00">StructuredStringType</text>
<polyline fill="none" stroke="black" points="699.219,-288 699.219,-324 "/>
<text text-anchor="start" x="707.219" y="-304.1" font-family="Times New Roman,serif" font-size="8.00">Content : ContentType[0...n] </text>
</g>
<!-- ComparisonProperties&#45;&gt;ComparisonStructuredStringType -->
<g id="edge3" class="edge"><title>ComparisonProperties&#45;&gt;ComparisonStructuredStringType</title>
<path fill="none" stroke="black" d="M470.498,-257.955C476.463,-259.733 482.389,-261.424 488.219,-263 527.244,-273.548 570.732,-282.466 609.086,-289.398"/>
<text text-anchor="middle" x="539.719" y="-287.6" font-family="Times New Roman,serif" font-size="8.00">Description</text>
</g>
<!-- GenericMap -->
<g id="ItemTypeGenericMap" class="node"><title></title><ellipse fill="#f7b733" stroke="black" cx="715.719" cy="-118" rx="33.433" ry="18" style="filter: url(#dropshadow)"/>
<text text-anchor="middle" x="715.719" y="-116.1" font-family="Times New Roman,serif" font-size="8.00">GenericMap</text>
</g>
<!-- ComparisonProperties&#45;&gt;GenericMap -->
<g id="edge4" class="edge"><title>ComparisonProperties&#45;&gt;GenericMap</title>
<path fill="none" stroke="black" d="M470.448,-210.184C521.086,-208.117 571.244,-202.247 591.219,-188 607.421,-176.444 594.161,-160.013 609.219,-147 629.483,-129.487 659.43,-122.468 682.245,-119.697"/>
<text text-anchor="middle" x="539.719" y="-212.6" font-family="Times New Roman,serif" font-size="8.00">ConceptMapReference</text>
<text text-anchor="middle" x="674.245" y="-113.297" font-family="Times New Roman,serif" font-size="8.00">0...*</text>
<text text-anchor="middle" x="478.448" y="-203.784" font-family="Times New Roman,serif" font-size="8.00">0...*</text>
</g>
<!-- ComparisonProperties&#45;&gt;GenericMap -->
<g id="edge5" class="edge"><title>ComparisonProperties&#45;&gt;GenericMap</title>
<path fill="none" stroke="black" d="M470.358,-181.831C528.493,-169.964 584.812,-158.224 591.219,-156 599.668,-153.067 600.867,-150.201 609.219,-147 633.874,-137.552 662.858,-129.814 684.201,-124.715"/>
<text text-anchor="middle" x="539.719" y="-179.6" font-family="Times New Roman,serif" font-size="8.00">VariableMapReference</text>
<text text-anchor="middle" x="676.201" y="-127.315" font-family="Times New Roman,serif" font-size="8.00">0...*</text>
<text text-anchor="middle" x="478.358" y="-175.431" font-family="Times New Roman,serif" font-size="8.00">0...*</text>
</g>
<!-- ComparisonProperties&#45;&gt;GenericMap -->
<g id="edge6" class="edge"><title>ComparisonProperties&#45;&gt;GenericMap</title>
<path fill="none" stroke="black" d="M447.028,-159.92C460.726,-155.022 474.673,-150.556 488.219,-147 555.897,-129.232 637.919,-122.179 682.335,-119.513"/>
<text text-anchor="middle" x="539.719" y="-149.6" font-family="Times New Roman,serif" font-size="8.00">QuestionMapReference</text>
<text text-anchor="middle" x="674.335" y="-122.113" font-family="Times New Roman,serif" font-size="8.00">0...*</text>
<text text-anchor="middle" x="439.028" y="-153.52" font-family="Times New Roman,serif" font-size="8.00">0...*</text>
</g>
<!-- ComparisonProperties&#45;&gt;GenericMap -->
<g id="edge7" class="edge"><title>ComparisonProperties&#45;&gt;GenericMap</title>
<path fill="none" stroke="black" d="M398.838,-159.785C424.987,-142.361 456.572,-124.888 488.219,-116 555.798,-97.0194 639.255,-105.48 683.593,-112.342"/>
<text text-anchor="middle" x="539.719" y="-118.6" font-family="Times New Roman,serif" font-size="8.00">CategoryMapReference</text>
<text text-anchor="middle" x="675.593" y="-105.942" font-family="Times New Roman,serif" font-size="8.00">0...*</text>
<text text-anchor="middle" x="390.838" y="-153.385" font-family="Times New Roman,serif" font-size="8.00">0...*</text>
</g>
<!-- ComparisonProperties&#45;&gt;GenericMap -->
<g id="edge9" class="edge"><title>ComparisonProperties&#45;&gt;GenericMap</title>
<path fill="none" stroke="black" d="M382.622,-159.887C410.54,-134.295 448.245,-105.568 488.219,-92 557.559,-68.465 644.966,-92.5235 688.117,-107.679"/>
<text text-anchor="middle" x="539.719" y="-94.6" font-family="Times New Roman,serif" font-size="8.00">UniverseMapReference</text>
<text text-anchor="middle" x="680.117" y="-101.279" font-family="Times New Roman,serif" font-size="8.00">0...*</text>
<text text-anchor="middle" x="374.622" y="-153.487" font-family="Times New Roman,serif" font-size="8.00">0...*</text>
</g>
<!-- ComparisonProperties&#45;&gt;GenericMap -->
<g id="edge10" class="edge"><title>ComparisonProperties&#45;&gt;GenericMap</title>
<path fill="none" stroke="black" d="M373.068,-159.708C400.817,-127.42 441.786,-87.986 488.219,-70 559.81,-42.2686 650.656,-82.6371 692.174,-104.925"/>
<text text-anchor="middle" x="539.719" y="-72.6" font-family="Times New Roman,serif" font-size="8.00">ManagedItemMapReference</text>
<text text-anchor="middle" x="700.174" y="-98.5246" font-family="Times New Roman,serif" font-size="8.00">0...*</text>
<text text-anchor="middle" x="365.068" y="-153.308" font-family="Times New Roman,serif" font-size="8.00">0...*</text>
</g>
<!-- RepresentationMap -->
<g id="ItemTypeRepresentationMap" class="node"><title></title><ellipse fill="#f7b733" stroke="black" cx="715.719" cy="-18" rx="48.4297" ry="18" style="filter: url(#dropshadow)"/>
<text text-anchor="middle" x="715.719" y="-16.1" font-family="Times New Roman,serif" font-size="8.00">RepresentationMap</text>
</g>
<!-- ComparisonProperties&#45;&gt;RepresentationMap -->
<g id="edge8" class="edge"><title>ComparisonProperties&#45;&gt;RepresentationMap</title>
<path fill="none" stroke="black" d="M367.982,-159.909C395.304,-122.668 437.986,-73.6491 488.219,-48 545.096,-18.9582 620.018,-14.5799 667.792,-15.3297"/>
<text text-anchor="middle" x="539.719" y="-50.6" font-family="Times New Roman,serif" font-size="8.00">RepresentationMapReference</text>
<text text-anchor="middle" x="659.792" y="-8.92966" font-family="Times New Roman,serif" font-size="8.00">0...*</text>
<text text-anchor="middle" x="359.982" y="-153.509" font-family="Times New Roman,serif" font-size="8.00">0...*</text>
</g>
<!-- Group -->
<g id="ItemTypeGroup" class="node"><title></title><ellipse fill="#f7b733" stroke="black" cx="43.1093" cy="-236" rx="27" ry="18" style="filter: url(#dropshadow)"/>
<text text-anchor="middle" x="43.1093" y="-234.1" font-family="Times New Roman,serif" font-size="8.00">Group</text>
</g>
<!-- Group&#45;&gt;ComparisonProperties -->
<g id="edge11" class="edge"><title>Group&#45;&gt;ComparisonProperties</title>
<path fill="none" stroke="black" d="M70.0651,-233.58C98.0699,-230.969 144.93,-226.601 191.442,-222.264"/>
<text text-anchor="middle" x="142.719" y="-233.6" font-family="Times New Roman,serif" font-size="8.00">ComparisonReference</text>
<text text-anchor="middle" x="183.442" y="-215.864" font-family="Times New Roman,serif" font-size="8.00">0...*</text>
<text text-anchor="middle" x="78.0651" y="-227.18" font-family="Times New Roman,serif" font-size="8.00">0...*</text>
</g>
<!-- ResourcePackage -->
<g id="ItemTypeResourcePackage" class="node"><title></title><ellipse fill="#f7b733" stroke="black" cx="43.1093" cy="-182" rx="43.219" ry="18" style="filter: url(#dropshadow)"/>
<text text-anchor="middle" x="43.1093" y="-180.1" font-family="Times New Roman,serif" font-size="8.00">ResourcePackage</text>
</g>
<!-- ResourcePackage&#45;&gt;ComparisonProperties -->
<g id="edge12" class="edge"><title>ResourcePackage&#45;&gt;ComparisonProperties</title>
<path fill="none" stroke="black" d="M85.2957,-185.84C113.405,-188.46 152.454,-192.101 191.277,-195.72"/>
<text text-anchor="middle" x="142.719" y="-197.6" font-family="Times New Roman,serif" font-size="8.00">ComparisonReference</text>
<text text-anchor="middle" x="183.277" y="-189.32" font-family="Times New Roman,serif" font-size="8.00">0...*</text>
<text text-anchor="middle" x="93.2957" y="-179.44" font-family="Times New Roman,serif" font-size="8.00">0...*</text>
</g>
</g>
</svg>
