<?xml version="1.0" encoding="UTF-8" standalone="no"?>
<!DOCTYPE svg PUBLIC "-//W3C//DTD SVG 1.1//EN"
 "http://www.w3.org/Graphics/SVG/1.1/DTD/svg11.dtd">
<!-- Generated by graphviz version 2.38.0 (20140413.2041)
 -->
<!-- Title: G Pages: 1 -->
<svg width="555pt" height="692pt"
 viewBox="0.00 0.00 555.30 692.00" xmlns="http://www.w3.org/2000/svg" xmlns:xlink="http://www.w3.org/1999/xlink">
<filter id = "dropshadow" height = "130%" ><feGaussianBlur in= "SourceAlpha" stdDeviation = "3"/><!--stdDeviation is how much to blur--><feOffset dx = "2" dy = "2" result = "offsetblur"/><!--how much to offset--><feMerge><feMergeNode/><!--this contains the offset blurred image--><feMergeNode in= "SourceGraphic"/><!--this contains the element that the filter is applied to --></feMerge></filter>
<g id="graph0" class="graph" transform="scale(1 1) rotate(0) translate(4 688)">
<title>G</title>
<!-- ContentDateOffsetType -->
<g id="ReusableTypeContentDateOffsetType" class="node"><title></title><polygon fill="#f7b733" stroke="black" points="274.303,-324 274.303,-360 547.303,-360 547.303,-324 274.303,-324" style="filter: url(#dropshadow)"/>
<text text-anchor="middle" x="325.303" y="-340.1" font-family="Times New Roman,serif" font-size="8.00">ContentDateOffsetType</text>
<polyline fill="none" stroke="black" points="376.303,-324 376.303,-360 "/>
<text text-anchor="start" x="384.303" y="-344.6" font-family="Times New Roman,serif" font-size="8.00">NumberOfUnits : nonNegativeInteger[0...1] </text>
<text text-anchor="start" x="384.303" y="-335.6" font-family="Times New Roman,serif" font-size="8.00">IsNegativeOffset : boolean[0...1] </text>
</g>
<!-- CategoryDomainType -->
<g id="ReusableTypeCategoryDomainType" class="node"><title></title><ellipse fill="#f7b733" stroke="black" cx="85.6514" cy="-666" rx="53.7736" ry="18" style="filter: url(#dropshadow)"/>
<text text-anchor="middle" x="85.6514" y="-664.1" font-family="Times New Roman,serif" font-size="8.00">CategoryDomainType</text>
</g>
<!-- CategoryDomainType&#45;&gt;ContentDateOffsetType -->
<g id="edge1" class="edge"><title>CategoryDomainType&#45;&gt;ContentDateOffsetType</title>
<path fill="none" stroke="black" d="M129.742,-655.422C167.206,-644.318 220.887,-623.565 256.303,-589 329.651,-517.415 383.194,-404.046 402.221,-360.172"/>
<text text-anchor="middle" x="222.803" y="-633.6" font-family="Times New Roman,serif" font-size="8.00">ContentDateOffset</text>
</g>
<!-- CodeDomainType -->
<g id="ReusableTypeCodeDomainType" class="node"><title></title><ellipse fill="#f7b733" stroke="black" cx="85.6514" cy="-612" rx="45.2568" ry="18" style="filter: url(#dropshadow)"/>
<text text-anchor="middle" x="85.6514" y="-610.1" font-family="Times New Roman,serif" font-size="8.00">CodeDomainType</text>
</g>
<!-- CodeDomainType&#45;&gt;ContentDateOffsetType -->
<g id="edge2" class="edge"><title>CodeDomainType&#45;&gt;ContentDateOffsetType</title>
<path fill="none" stroke="black" d="M124.045,-602.183C139.041,-597.707 156.292,-591.864 171.303,-585 211.578,-566.583 223.05,-562.249 256.303,-533 318.591,-478.212 375.05,-396.069 398.42,-360.033"/>
<text text-anchor="middle" x="222.803" y="-578.6" font-family="Times New Roman,serif" font-size="8.00">ContentDateOffset</text>
</g>
<!-- DateTimeDomainType -->
<g id="ReusableTypeDateTimeDomainType" class="node"><title></title><ellipse fill="#f7b733" stroke="black" cx="85.6514" cy="-558" rx="55.6769" ry="18" style="filter: url(#dropshadow)"/>
<text text-anchor="middle" x="85.6514" y="-556.1" font-family="Times New Roman,serif" font-size="8.00">DateTimeDomainType</text>
</g>
<!-- DateTimeDomainType&#45;&gt;ContentDateOffsetType -->
<g id="edge3" class="edge"><title>DateTimeDomainType&#45;&gt;ContentDateOffsetType</title>
<path fill="none" stroke="black" d="M129.138,-546.558C142.849,-542.311 157.95,-537.037 171.303,-531 266.621,-487.908 357.166,-398.413 393.301,-360.073"/>
<text text-anchor="middle" x="222.803" y="-522.6" font-family="Times New Roman,serif" font-size="8.00">ContentDateOffset</text>
</g>
<!-- DistributionDomainType -->
<g id="ReusableTypeDistributionDomainType" class="node"><title></title><ellipse fill="#f7b733" stroke="black" cx="85.6514" cy="-504" rx="58.9835" ry="18" style="filter: url(#dropshadow)"/>
<text text-anchor="middle" x="85.6514" y="-502.1" font-family="Times New Roman,serif" font-size="8.00">DistributionDomainType</text>
</g>
<!-- DistributionDomainType&#45;&gt;ContentDateOffsetType -->
<g id="edge4" class="edge"><title>DistributionDomainType&#45;&gt;ContentDateOffsetType</title>
<path fill="none" stroke="black" d="M129.912,-492.078C143.387,-487.869 158.154,-482.737 171.303,-477 251.108,-442.181 338.691,-388.157 382.151,-360.178"/>
<text text-anchor="middle" x="222.803" y="-469.6" font-family="Times New Roman,serif" font-size="8.00">ContentDateOffset</text>
</g>
<!-- GeographicLocationCodeDomainType -->
<g id="ReusableTypeGeographicLocationCodeDomainType" class="node"><title></title><ellipse fill="#f7b733" stroke="black" cx="85.6514" cy="-450" rx="85.8032" ry="18" style="filter: url(#dropshadow)"/>
<text text-anchor="middle" x="85.6514" y="-448.1" font-family="Times New Roman,serif" font-size="8.00">GeographicLocationCodeDomainType</text>
</g>
<!-- GeographicLocationCodeDomainType&#45;&gt;ContentDateOffsetType -->
<g id="edge5" class="edge"><title>GeographicLocationCodeDomainType&#45;&gt;ContentDateOffsetType</title>
<path fill="none" stroke="black" d="M134.16,-435.019C146.285,-431.148 159.288,-426.956 171.303,-423 235.475,-401.871 309.059,-376.742 357.32,-360.138"/>
<text text-anchor="middle" x="222.803" y="-418.6" font-family="Times New Roman,serif" font-size="8.00">ContentDateOffset</text>
</g>
<!-- GeographicStructureCodeDomainType -->
<g id="ReusableTypeGeographicStructureCodeDomainType" class="node"><title></title><ellipse fill="#f7b733" stroke="black" cx="85.6514" cy="-396" rx="85.1685" ry="18" style="filter: url(#dropshadow)"/>
<text text-anchor="middle" x="85.6514" y="-394.1" font-family="Times New Roman,serif" font-size="8.00">GeographicStructureCodeDomainType</text>
</g>
<!-- GeographicStructureCodeDomainType&#45;&gt;ContentDateOffsetType -->
<g id="edge6" class="edge"><title>GeographicStructureCodeDomainType&#45;&gt;ContentDateOffsetType</title>
<path fill="none" stroke="black" d="M152.826,-384.942C195.758,-377.768 252.689,-368.254 302.053,-360.005"/>
<text text-anchor="middle" x="222.803" y="-380.6" font-family="Times New Roman,serif" font-size="8.00">ContentDateOffset</text>
</g>
<!-- LocationDomainType -->
<g id="ReusableTypeLocationDomainType" class="node"><title></title><ellipse fill="#f7b733" stroke="black" cx="85.6514" cy="-342" rx="53.7736" ry="18" style="filter: url(#dropshadow)"/>
<text text-anchor="middle" x="85.6514" y="-340.1" font-family="Times New Roman,serif" font-size="8.00">LocationDomainType</text>
</g>
<!-- LocationDomainType&#45;&gt;ContentDateOffsetType -->
<g id="edge7" class="edge"><title>LocationDomainType&#45;&gt;ContentDateOffsetType</title>
<path fill="none" stroke="black" d="M139.651,-342C176.269,-342 226.733,-342 274.141,-342"/>
<text text-anchor="middle" x="222.803" y="-344.6" font-family="Times New Roman,serif" font-size="8.00">ContentDateOffset</text>
</g>
<!-- NominalDomainType -->
<g id="ReusableTypeNominalDomainType" class="node"><title></title><ellipse fill="#f7b733" stroke="black" cx="85.6514" cy="-288" rx="52.5056" ry="18" style="filter: url(#dropshadow)"/>
<text text-anchor="middle" x="85.6514" y="-286.1" font-family="Times New Roman,serif" font-size="8.00">NominalDomainType</text>
</g>
<!-- NominalDomainType&#45;&gt;ContentDateOffsetType -->
<g id="edge8" class="edge"><title>NominalDomainType&#45;&gt;ContentDateOffsetType</title>
<path fill="none" stroke="black" d="M133.295,-295.794C177.254,-303.14 244.745,-314.418 302.042,-323.993"/>
<text text-anchor="middle" x="222.803" y="-317.6" font-family="Times New Roman,serif" font-size="8.00">ContentDateOffset</text>
</g>
<!-- NumericDomainType -->
<g id="ReusableTypeNumericDomainType0" class="node"><title></title><ellipse fill="#f7b733" stroke="black" cx="85.6514" cy="-234" rx="52.3706" ry="18" style="filter: url(#dropshadow)"/>
<text text-anchor="middle" x="85.6514" y="-232.1" font-family="Times New Roman,serif" font-size="8.00">NumericDomainType</text>
</g>
<!-- NumericDomainType&#45;&gt;ContentDateOffsetType -->
<g id="edge9" class="edge"><title>NumericDomainType&#45;&gt;ContentDateOffsetType</title>
<path fill="none" stroke="black" d="M125.048,-246.08C139.56,-250.69 156.211,-256.031 171.303,-261 235.475,-282.129 309.059,-307.258 357.32,-323.862"/>
<text text-anchor="middle" x="222.803" y="-289.6" font-family="Times New Roman,serif" font-size="8.00">ContentDateOffset</text>
</g>
<!-- RankingDomainType -->
<g id="ReusableTypeRankingDomainType1" class="node"><title></title><ellipse fill="#f7b733" stroke="black" cx="85.6514" cy="-180" rx="52.3706" ry="18" style="filter: url(#dropshadow)"/>
<text text-anchor="middle" x="85.6514" y="-178.1" font-family="Times New Roman,serif" font-size="8.00">RankingDomainType</text>
</g>
<!-- RankingDomainType&#45;&gt;ContentDateOffsetType -->
<g id="edge10" class="edge"><title>RankingDomainType&#45;&gt;ContentDateOffsetType</title>
<path fill="none" stroke="black" d="M126.862,-191.058C141.121,-195.439 157.137,-200.895 171.303,-207 251.482,-241.556 339.257,-295.935 382.543,-323.965"/>
<text text-anchor="middle" x="222.803" y="-248.6" font-family="Times New Roman,serif" font-size="8.00">ContentDateOffset</text>
</g>
<!-- ScaleDomainType -->
<g id="ReusableTypeScaleDomainType2" class="node"><title></title><ellipse fill="#f7b733" stroke="black" cx="85.6514" cy="-126" rx="45.2568" ry="18" style="filter: url(#dropshadow)"/>
<text text-anchor="middle" x="85.6514" y="-124.1" font-family="Times New Roman,serif" font-size="8.00">ScaleDomainType</text>
</g>
<!-- ScaleDomainType&#45;&gt;ContentDateOffsetType -->
<g id="edge11" class="edge"><title>ScaleDomainType&#45;&gt;ContentDateOffsetType</title>
<path fill="none" stroke="black" d="M123.985,-135.949C138.973,-140.444 156.233,-146.266 171.303,-153 266.807,-195.677 357.25,-285.399 393.33,-323.863"/>
<text text-anchor="middle" x="222.803" y="-200.6" font-family="Times New Roman,serif" font-size="8.00">ContentDateOffset</text>
</g>
<!-- TextDomainType -->
<g id="ReusableTypeTextDomainType3" class="node"><title></title><ellipse fill="#f7b733" stroke="black" cx="85.6514" cy="-72" rx="45.2568" ry="18" style="filter: url(#dropshadow)"/>
<text text-anchor="middle" x="85.6514" y="-70.1" font-family="Times New Roman,serif" font-size="8.00">TextDomainType</text>
</g>
<!-- TextDomainType&#45;&gt;ContentDateOffsetType -->
<g id="edge12" class="edge"><title>TextDomainType&#45;&gt;ContentDateOffsetType</title>
<path fill="none" stroke="black" d="M124.015,-81.8823C139.007,-86.3682 156.263,-92.2006 171.303,-99 211.447,-117.149 223.135,-121.003 256.303,-150 318.956,-204.773 375.224,-287.504 398.482,-323.821"/>
<text text-anchor="middle" x="222.803" y="-152.6" font-family="Times New Roman,serif" font-size="8.00">ContentDateOffset</text>
</g>
<!-- VariableRepresentationType -->
<g id="ReusableTypeVariableRepresentationType4" class="node"><title></title><ellipse fill="#f7b733" stroke="black" cx="85.6514" cy="-18" rx="65.5975" ry="18" style="filter: url(#dropshadow)"/>
<text text-anchor="middle" x="85.6514" y="-16.1" font-family="Times New Roman,serif" font-size="8.00">VariableRepresentationType</text>
</g>
<!-- VariableRepresentationType&#45;&gt;ContentDateOffsetType -->
<g id="edge13" class="edge"><title>VariableRepresentationType&#45;&gt;ContentDateOffsetType</title>
<path fill="none" stroke="black" d="M135.342,-29.9889C172.39,-41.2368 222.583,-61.3192 256.303,-94 330.115,-165.537 383.387,-279.563 402.28,-323.711"/>
<text text-anchor="middle" x="222.803" y="-96.6" font-family="Times New Roman,serif" font-size="8.00">ContentDateOffset</text>
</g>
</g>
</svg>
