<?xml version="1.0" encoding="UTF-8" standalone="no"?>
<!DOCTYPE svg PUBLIC "-//W3C//DTD SVG 1.1//EN"
 "http://www.w3.org/Graphics/SVG/1.1/DTD/svg11.dtd">
<!-- Generated by graphviz version 2.38.0 (20140413.2041)
 -->
<!-- Title: G Pages: 1 -->
<svg width="846pt" height="1721pt"
 viewBox="0.00 0.00 846.33 1721.00" xmlns="http://www.w3.org/2000/svg" xmlns:xlink="http://www.w3.org/1999/xlink">
<filter id = "dropshadow" height = "130%" ><feGaussianBlur in= "SourceAlpha" stdDeviation = "3"/><!--stdDeviation is how much to blur--><feOffset dx = "2" dy = "2" result = "offsetblur"/><!--how much to offset--><feMerge><feMergeNode/><!--this contains the offset blurred image--><feMergeNode in= "SourceGraphic"/><!--this contains the element that the filter is applied to --></feMerge></filter>
<g id="graph0" class="graph" transform="scale(1 1) rotate(0) translate(4 1717)">
<title>G</title>
<g id="clust1" class="cluster"><title>clusterDateType</title>
<polygon fill="#4abdac" stroke="black" points="227.328,-892 227.328,-997 830.328,-997 830.328,-892 227.328,-892" style="filter: url(#dropshadow)"/>
<text text-anchor="middle" x="528.828" y="-986.6" font-family="Times New Roman,serif" font-size="8.00">DateType</text>
</g>
<!-- DateTypeProperties -->
<g id="ReusableTypeDateTypeProperties" class="node"><title></title><polygon fill="#f7b733" stroke="black" points="235.328,-900.5 235.328,-971.5 471.328,-971.5 471.328,-900.5 235.328,-900.5" style="filter: url(#dropshadow)"/>
<text text-anchor="middle" x="261.828" y="-934.1" font-family="Times New Roman,serif" font-size="8.00">Properties</text>
<polyline fill="none" stroke="black" points="288.328,-900.5 288.328,-971.5 "/>
<text text-anchor="start" x="296.328" y="-961.1" font-family="Times New Roman,serif" font-size="8.00">SimpleDate : cogsDate[0...1] </text>
<text text-anchor="start" x="296.328" y="-952.1" font-family="Times New Roman,serif" font-size="8.00">HistoricalDate : HistoricalDateType[0...1] </text>
<text text-anchor="start" x="296.328" y="-943.1" font-family="Times New Roman,serif" font-size="8.00">StartDate : cogsDate[0...1] </text>
<text text-anchor="start" x="296.328" y="-934.1" font-family="Times New Roman,serif" font-size="8.00">HistoricalStartDate : HistoricalDateType[0...1] </text>
<text text-anchor="start" x="296.328" y="-925.1" font-family="Times New Roman,serif" font-size="8.00">EndDate : cogsDate[0...1] </text>
<text text-anchor="start" x="296.328" y="-916.1" font-family="Times New Roman,serif" font-size="8.00">HistoricalEndDate : HistoricalDateType[0...1] </text>
<text text-anchor="start" x="296.328" y="-907.1" font-family="Times New Roman,serif" font-size="8.00">Cycle : int[0...1] </text>
</g>
<!-- DateTypeHistoricalDateType -->
<g id="ReusableTypeDateTypeHistoricalDateType" class="node"><title></title><polygon fill="#fc4a1a" stroke="black" points="558.328,-918 558.328,-954 822.328,-954 822.328,-918 558.328,-918" style="filter: url(#dropshadow)"/>
<text text-anchor="middle" x="601.328" y="-934.1" font-family="Times New Roman,serif" font-size="8.00">HistoricalDateType</text>
<polyline fill="none" stroke="black" points="644.328,-918 644.328,-954 "/>
<text text-anchor="start" x="652.328" y="-943.1" font-family="Times New Roman,serif" font-size="8.00">NonISODate : string[0...1] </text>
<text text-anchor="start" x="652.328" y="-934.1" font-family="Times New Roman,serif" font-size="8.00">HistoricalDateFormat : CodeValueType[0...1] </text>
<text text-anchor="start" x="652.328" y="-925.1" font-family="Times New Roman,serif" font-size="8.00">Calendar : CodeValueType[0...1] </text>
</g>
<!-- DateTypeProperties&#45;&gt;DateTypeHistoricalDateType -->
<g id="edge1" class="edge"><title>DateTypeProperties&#45;&gt;DateTypeHistoricalDateType</title>
<path fill="none" stroke="black" d="M471.495,-936C499.514,-936 529.604,-936 558.208,-936"/>
<text text-anchor="middle" x="514.828" y="-938.6" font-family="Times New Roman,serif" font-size="8.00">HistoricalDate</text>
</g>
<!-- ApprovalReview -->
<g id="ItemTypeApprovalReview" class="node"><title></title><ellipse fill="#f7b733" stroke="black" cx="64.664" cy="-1692" rx="41.9498" ry="18" style="filter: url(#dropshadow)"/>
<text text-anchor="middle" x="64.664" y="-1690.1" font-family="Times New Roman,serif" font-size="8.00">ApprovalReview</text>
</g>
<!-- ApprovalReview&#45;&gt;DateTypeProperties -->
<g id="edge2" class="edge"><title>ApprovalReview&#45;&gt;DateTypeProperties</title>
<path fill="none" stroke="black" d="M102.04,-1700.43C136.176,-1706.01 186.471,-1707.9 217.328,-1680 318.236,-1588.76 344.24,-1157.59 350.484,-996.716"/>
<text text-anchor="middle" x="182.328" y="-1706.6" font-family="Times New Roman,serif" font-size="8.00">ApplicationDate</text>
</g>
<!-- ApprovalReview&#45;&gt;DateTypeProperties -->
<g id="edge3" class="edge"><title>ApprovalReview&#45;&gt;DateTypeProperties</title>
<path fill="none" stroke="black" d="M100.768,-1682.81C144.298,-1671.26 213.305,-1652.42 217.328,-1648 304.36,-1552.28 338.682,-1150.87 348.816,-996.68"/>
<text text-anchor="middle" x="182.328" y="-1672.6" font-family="Times New Roman,serif" font-size="8.00">ApprovalDate</text>
</g>
<!-- ApprovalReview&#45;&gt;DateTypeProperties -->
<g id="edge4" class="edge"><title>ApprovalReview&#45;&gt;DateTypeProperties</title>
<path fill="none" stroke="black" d="M99.3658,-1681.81C109.667,-1677.66 120.575,-1672.12 129.328,-1665 140.228,-1656.13 136.066,-1647.41 147.328,-1639 173.568,-1619.41 195.62,-1640.52 217.328,-1616 298.821,-1523.95 336.219,-1145.8 348.003,-996.769"/>
<text text-anchor="middle" x="182.328" y="-1641.6" font-family="Times New Roman,serif" font-size="8.00">ApprovedPeriod</text>
</g>
<!-- DevelopmentResults -->
<g id="ItemTypeDevelopmentResults" class="node"><title></title><ellipse fill="#f7b733" stroke="black" cx="64.664" cy="-1638" rx="49.8323" ry="18" style="filter: url(#dropshadow)"/>
<text text-anchor="middle" x="64.664" y="-1636.1" font-family="Times New Roman,serif" font-size="8.00">DevelopmentResults</text>
</g>
<!-- DevelopmentResults&#45;&gt;DateTypeProperties -->
<g id="edge5" class="edge"><title>DevelopmentResults&#45;&gt;DateTypeProperties</title>
<path fill="none" stroke="black" d="M99.3099,-1624.84C113.999,-1619.19 131.459,-1612.62 147.328,-1607 178.199,-1596.08 195.505,-1608.42 217.328,-1584 295.026,-1497.07 334.37,-1140.8 347.345,-996.807"/>
<text text-anchor="middle" x="182.328" y="-1609.6" font-family="Times New Roman,serif" font-size="8.00">ResultsDate</text>
</g>
<!-- DevelopmentStep -->
<g id="ItemTypeDevelopmentStep" class="node"><title></title><ellipse fill="#f7b733" stroke="black" cx="64.664" cy="-1584" rx="44.6228" ry="18" style="filter: url(#dropshadow)"/>
<text text-anchor="middle" x="64.664" y="-1582.1" font-family="Times New Roman,serif" font-size="8.00">DevelopmentStep</text>
</g>
<!-- DevelopmentStep&#45;&gt;DateTypeProperties -->
<g id="edge6" class="edge"><title>DevelopmentStep&#45;&gt;DateTypeProperties</title>
<path fill="none" stroke="black" d="M109.14,-1581.03C143.365,-1576.34 189.746,-1564.38 217.328,-1534 289.105,-1454.95 331.3,-1132.45 346.191,-996.689"/>
<text text-anchor="middle" x="182.328" y="-1576.6" font-family="Times New Roman,serif" font-size="8.00">ActivityDate</text>
</g>
<!-- Relation -->
<g id="ItemTypeRelation" class="node"><title></title><ellipse fill="#f7b733" stroke="black" cx="64.664" cy="-1530" rx="27" ry="18" style="filter: url(#dropshadow)"/>
<text text-anchor="middle" x="64.664" y="-1528.1" font-family="Times New Roman,serif" font-size="8.00">Relation</text>
</g>
<!-- Relation&#45;&gt;DateTypeProperties -->
<g id="edge7" class="edge"><title>Relation&#45;&gt;DateTypeProperties</title>
<path fill="none" stroke="black" d="M91.9337,-1529.77C125.798,-1527.99 184.25,-1519.68 217.328,-1485 284.384,-1414.69 328.463,-1124.8 345,-996.995"/>
<text text-anchor="middle" x="182.328" y="-1523.6" font-family="Times New Roman,serif" font-size="8.00">EffectivePeriod</text>
</g>
<!-- Sample -->
<g id="ItemTypeSample" class="node"><title></title><ellipse fill="#f7b733" stroke="black" cx="64.664" cy="-1476" rx="27" ry="18" style="filter: url(#dropshadow)"/>
<text text-anchor="middle" x="64.664" y="-1474.1" font-family="Times New Roman,serif" font-size="8.00">Sample</text>
</g>
<!-- Sample&#45;&gt;DateTypeProperties -->
<g id="edge8" class="edge"><title>Sample&#45;&gt;DateTypeProperties</title>
<path fill="none" stroke="black" d="M91.6938,-1477.38C125.296,-1477.68 183.461,-1472.91 217.328,-1440 280.828,-1378.29 326.071,-1116.92 343.91,-996.814"/>
<text text-anchor="middle" x="182.328" y="-1474.6" font-family="Times New Roman,serif" font-size="8.00">DateOfSample</text>
</g>
<!-- SampleFrame -->
<g id="ItemTypeSampleFrame" class="node"><title></title><ellipse fill="#f7b733" stroke="black" cx="64.664" cy="-1422" rx="35.9723" ry="18" style="filter: url(#dropshadow)"/>
<text text-anchor="middle" x="64.664" y="-1420.1" font-family="Times New Roman,serif" font-size="8.00">SampleFrame</text>
</g>
<!-- SampleFrame&#45;&gt;DateTypeProperties -->
<g id="edge9" class="edge"><title>SampleFrame&#45;&gt;DateTypeProperties</title>
<path fill="none" stroke="black" d="M99.1521,-1426.75C133.032,-1429.57 184.907,-1428.2 217.328,-1400 278.431,-1346.85 324.15,-1109.99 342.938,-996.725"/>
<text text-anchor="middle" x="182.328" y="-1429.6" font-family="Times New Roman,serif" font-size="8.00">ValidPeriod</text>
</g>
<!-- SampleFrame&#45;&gt;DateTypeProperties -->
<g id="edge10" class="edge"><title>SampleFrame&#45;&gt;DateTypeProperties</title>
<path fill="none" stroke="black" d="M93.5068,-1411.14C136.067,-1394.43 212.88,-1363.84 217.328,-1359 311.85,-1256.11 340.199,-1086.87 348.696,-996.815"/>
<text text-anchor="middle" x="182.328" y="-1392.6" font-family="Times New Roman,serif" font-size="8.00">ReferencePeriod</text>
</g>
<!-- Universe -->
<g id="ItemTypeUniverse" class="node"><title></title><ellipse fill="#f7b733" stroke="black" cx="64.664" cy="-1368" rx="27" ry="18" style="filter: url(#dropshadow)"/>
<text text-anchor="middle" x="64.664" y="-1366.1" font-family="Times New Roman,serif" font-size="8.00">Universe</text>
</g>
<!-- Universe&#45;&gt;DateTypeProperties -->
<g id="edge11" class="edge"><title>Universe&#45;&gt;DateTypeProperties</title>
<path fill="none" stroke="black" d="M90.9716,-1363.59C124.317,-1356.51 182.772,-1339.52 217.328,-1303 299.111,-1216.58 332.189,-1076.47 344.918,-996.698"/>
<text text-anchor="middle" x="182.328" y="-1348.6" font-family="Times New Roman,serif" font-size="8.00">TimePeriod</text>
</g>
<!-- AdditionalInformationType -->
<g id="ReusableTypeAdditionalInformationType0" class="node"><title></title><ellipse fill="#f7b733" stroke="black" cx="64.664" cy="-1314" rx="64.8284" ry="18" style="filter: url(#dropshadow)"/>
<text text-anchor="middle" x="64.664" y="-1312.1" font-family="Times New Roman,serif" font-size="8.00">AdditionalInformationType</text>
</g>
<!-- AdditionalInformationType&#45;&gt;DateTypeProperties -->
<g id="edge12" class="edge"><title>AdditionalInformationType&#45;&gt;DateTypeProperties</title>
<path fill="none" stroke="black" d="M114.198,-1302.37C147.02,-1292.3 189.327,-1274.72 217.328,-1246 285.823,-1175.75 322.425,-1065.09 339.582,-996.726"/>
<text text-anchor="middle" x="182.328" y="-1292.6" font-family="Times New Roman,serif" font-size="8.00">EffectivePeriod</text>
</g>
<!-- AddressType -->
<g id="ReusableTypeAddressType1" class="node"><title></title><ellipse fill="#f7b733" stroke="black" cx="64.664" cy="-1260" rx="35.3371" ry="18" style="filter: url(#dropshadow)"/>
<text text-anchor="middle" x="64.664" y="-1258.1" font-family="Times New Roman,serif" font-size="8.00">AddressType</text>
</g>
<!-- AddressType&#45;&gt;DateTypeProperties -->
<g id="edge13" class="edge"><title>AddressType&#45;&gt;DateTypeProperties</title>
<path fill="none" stroke="black" d="M96.2148,-1252.03C129.595,-1241.98 182.894,-1221.78 217.328,-1188 272.589,-1133.78 310.627,-1052.09 331.914,-996.519"/>
<text text-anchor="middle" x="182.328" y="-1235.6" font-family="Times New Roman,serif" font-size="8.00">EffectivePeriod</text>
</g>
<!-- ApplicationDetailsType -->
<g id="ReusableTypeApplicationDetailsType2" class="node"><title></title><ellipse fill="#f7b733" stroke="black" cx="64.664" cy="-1206" rx="57.0809" ry="18" style="filter: url(#dropshadow)"/>
<text text-anchor="middle" x="64.664" y="-1204.1" font-family="Times New Roman,serif" font-size="8.00">ApplicationDetailsType</text>
</g>
<!-- ApplicationDetailsType&#45;&gt;DateTypeProperties -->
<g id="edge14" class="edge"><title>ApplicationDetailsType&#45;&gt;DateTypeProperties</title>
<path fill="none" stroke="black" d="M104.637,-1192.92C137.515,-1180.41 184.356,-1159.02 217.328,-1129 259.145,-1090.93 295.181,-1037.66 319.477,-996.732"/>
<text text-anchor="middle" x="182.328" y="-1177.6" font-family="Times New Roman,serif" font-size="8.00">DateOfSample</text>
</g>
<!-- CitationType -->
<g id="ReusableTypeCitationType3" class="node"><title></title><ellipse fill="#f7b733" stroke="black" cx="64.664" cy="-1152" rx="36.1063" ry="18" style="filter: url(#dropshadow)"/>
<text text-anchor="middle" x="64.664" y="-1150.1" font-family="Times New Roman,serif" font-size="8.00">CitationType</text>
</g>
<!-- CitationType&#45;&gt;DateTypeProperties -->
<g id="edge15" class="edge"><title>CitationType&#45;&gt;DateTypeProperties</title>
<path fill="none" stroke="black" d="M93.53,-1140.94C104.771,-1136.28 117.787,-1130.64 129.328,-1125 169.547,-1105.34 181.849,-1103.3 217.328,-1076 247.476,-1052.8 277.235,-1022.91 301.108,-996.706"/>
<text text-anchor="middle" x="182.328" y="-1118.6" font-family="Times New Roman,serif" font-size="8.00">PublicationDate</text>
</g>
<!-- CollectionEventType -->
<g id="ReusableTypeCollectionEventType4" class="node"><title></title><ellipse fill="#f7b733" stroke="black" cx="64.664" cy="-1098" rx="52.3706" ry="18" style="filter: url(#dropshadow)"/>
<text text-anchor="middle" x="64.664" y="-1096.1" font-family="Times New Roman,serif" font-size="8.00">CollectionEventType</text>
</g>
<!-- CollectionEventType&#45;&gt;DateTypeProperties -->
<g id="edge16" class="edge"><title>CollectionEventType&#45;&gt;DateTypeProperties</title>
<path fill="none" stroke="black" d="M99.2342,-1084.29C109.002,-1080.16 119.647,-1075.52 129.328,-1071 169.13,-1052.41 179.434,-1048.22 217.328,-1026 232.784,-1016.94 248.895,-1006.82 264.379,-996.735"/>
<text text-anchor="middle" x="182.328" y="-1065.6" font-family="Times New Roman,serif" font-size="8.00">DataCollectionDate</text>
</g>
<!-- DefiningCharacteristicType -->
<g id="ReusableTypeDefiningCharacteristicType5" class="node"><title></title><ellipse fill="#f7b733" stroke="black" cx="64.664" cy="-1044" rx="64.1937" ry="18" style="filter: url(#dropshadow)"/>
<text text-anchor="middle" x="64.664" y="-1042.1" font-family="Times New Roman,serif" font-size="8.00">DefiningCharacteristicType</text>
</g>
<!-- DefiningCharacteristicType&#45;&gt;DateTypeProperties -->
<g id="edge17" class="edge"><title>DefiningCharacteristicType&#45;&gt;DateTypeProperties</title>
<path fill="none" stroke="black" d="M104.684,-1029.76C135.349,-1018.53 179.117,-1002.41 217.328,-988 220.714,-986.723 224.147,-985.424 227.611,-984.112"/>
<text text-anchor="middle" x="182.328" y="-1015.6" font-family="Times New Roman,serif" font-size="8.00">GeographicTime</text>
</g>
<!-- EmailType -->
<g id="ReusableTypeEmailType6" class="node"><title></title><ellipse fill="#f7b733" stroke="black" cx="64.664" cy="-990" rx="31.5313" ry="18" style="filter: url(#dropshadow)"/>
<text text-anchor="middle" x="64.664" y="-988.1" font-family="Times New Roman,serif" font-size="8.00">EmailType</text>
</g>
<!-- EmailType&#45;&gt;DateTypeProperties -->
<g id="edge18" class="edge"><title>EmailType&#45;&gt;DateTypeProperties</title>
<path fill="none" stroke="black" d="M94.9949,-984.475C126.42,-978.555 178.418,-968.76 227.479,-959.518"/>
<text text-anchor="middle" x="182.328" y="-977.6" font-family="Times New Roman,serif" font-size="8.00">EffectivePeriod</text>
</g>
<!-- EmbargoType -->
<g id="ReusableTypeEmbargoType7" class="node"><title></title><ellipse fill="#f7b733" stroke="black" cx="64.664" cy="-936" rx="37.3742" ry="18" style="filter: url(#dropshadow)"/>
<text text-anchor="middle" x="64.664" y="-934.1" font-family="Times New Roman,serif" font-size="8.00">EmbargoType</text>
</g>
<!-- EmbargoType&#45;&gt;DateTypeProperties -->
<g id="edge19" class="edge"><title>EmbargoType&#45;&gt;DateTypeProperties</title>
<path fill="none" stroke="black" d="M102.261,-936C134.14,-936 182.269,-936 227.818,-936"/>
<text text-anchor="middle" x="182.328" y="-938.6" font-family="Times New Roman,serif" font-size="8.00">Date</text>
</g>
<!-- FundingInformationType -->
<g id="ReusableTypeFundingInformationType8" class="node"><title></title><ellipse fill="#f7b733" stroke="black" cx="64.664" cy="-882" rx="59.618" ry="18" style="filter: url(#dropshadow)"/>
<text text-anchor="middle" x="64.664" y="-880.1" font-family="Times New Roman,serif" font-size="8.00">FundingInformationType</text>
</g>
<!-- FundingInformationType&#45;&gt;DateTypeProperties -->
<g id="edge20" class="edge"><title>FundingInformationType&#45;&gt;DateTypeProperties</title>
<path fill="none" stroke="black" d="M115.597,-891.406C146.706,-897.266 188.211,-905.085 227.775,-912.537"/>
<text text-anchor="middle" x="182.328" y="-911.6" font-family="Times New Roman,serif" font-size="8.00">FundingPeriod</text>
</g>
<!-- GeographicBoundaryType -->
<g id="ReusableTypeGeographicBoundaryType9" class="node"><title></title><ellipse fill="#f7b733" stroke="black" cx="64.664" cy="-828" rx="60.8874" ry="18" style="filter: url(#dropshadow)"/>
<text text-anchor="middle" x="64.664" y="-826.1" font-family="Times New Roman,serif" font-size="8.00">GeographicBoundaryType</text>
</g>
<!-- GeographicBoundaryType&#45;&gt;DateTypeProperties -->
<g id="edge21" class="edge"><title>GeographicBoundaryType&#45;&gt;DateTypeProperties</title>
<path fill="none" stroke="black" d="M103.067,-842.037C133.768,-853.564 178.371,-870.321 217.328,-885 223.537,-887.34 229.907,-889.741 236.337,-892.166"/>
<text text-anchor="middle" x="182.328" y="-887.6" font-family="Times New Roman,serif" font-size="8.00">GeographicTime</text>
</g>
<!-- IndividualLanguageType -->
<g id="ReusableTypeIndividualLanguageType0" class="node"><title></title><ellipse fill="#f7b733" stroke="black" cx="64.664" cy="-774" rx="57.0809" ry="18" style="filter: url(#dropshadow)"/>
<text text-anchor="middle" x="64.664" y="-772.1" font-family="Times New Roman,serif" font-size="8.00">IndividualLanguageType</text>
</g>
<!-- IndividualLanguageType&#45;&gt;DateTypeProperties -->
<g id="edge22" class="edge"><title>IndividualLanguageType&#45;&gt;DateTypeProperties</title>
<path fill="none" stroke="black" d="M100.582,-788.212C109.983,-792.199 120.101,-796.641 129.328,-801 169.231,-819.853 179.301,-824.604 217.328,-847 241.105,-861.004 266.526,-877.375 288.824,-892.231"/>
<text text-anchor="middle" x="182.328" y="-849.6" font-family="Times New Roman,serif" font-size="8.00">EffectivePeriod</text>
</g>
<!-- IndividualNameType -->
<g id="ReusableTypeIndividualNameType1" class="node"><title></title><ellipse fill="#f7b733" stroke="black" cx="64.664" cy="-720" rx="50.4666" ry="18" style="filter: url(#dropshadow)"/>
<text text-anchor="middle" x="64.664" y="-718.1" font-family="Times New Roman,serif" font-size="8.00">IndividualNameType</text>
</g>
<!-- IndividualNameType&#45;&gt;DateTypeProperties -->
<g id="edge23" class="edge"><title>IndividualNameType&#45;&gt;DateTypeProperties</title>
<path fill="none" stroke="black" d="M99.0352,-733.298C108.896,-737.456 119.641,-742.214 129.328,-747 169.657,-766.926 181.746,-769.479 217.328,-797 253.934,-825.313 290.181,-863.335 315.885,-892.456"/>
<text text-anchor="middle" x="182.328" y="-799.6" font-family="Times New Roman,serif" font-size="8.00">EffectivePeriod</text>
</g>
<!-- InstantMessagingType -->
<g id="ReusableTypeInstantMessagingType2" class="node"><title></title><ellipse fill="#f7b733" stroke="black" cx="64.664" cy="-666" rx="53.7736" ry="18" style="filter: url(#dropshadow)"/>
<text text-anchor="middle" x="64.664" y="-664.1" font-family="Times New Roman,serif" font-size="8.00">InstantMessagingType</text>
</g>
<!-- InstantMessagingType&#45;&gt;DateTypeProperties -->
<g id="edge24" class="edge"><title>InstantMessagingType&#45;&gt;DateTypeProperties</title>
<path fill="none" stroke="black" d="M103.017,-678.735C135.963,-691.373 183.814,-713.3 217.328,-744 264.793,-787.48 305.084,-850.408 328.981,-892.226"/>
<text text-anchor="middle" x="182.328" y="-746.6" font-family="Times New Roman,serif" font-size="8.00">EffectivePeriod</text>
</g>
<!-- LifecycleEventType -->
<g id="ReusableTypeLifecycleEventType3" class="node"><title></title><ellipse fill="#f7b733" stroke="black" cx="64.664" cy="-612" rx="50.4666" ry="18" style="filter: url(#dropshadow)"/>
<text text-anchor="middle" x="64.664" y="-610.1" font-family="Times New Roman,serif" font-size="8.00">LifecycleEventType</text>
</g>
<!-- LifecycleEventType&#45;&gt;DateTypeProperties -->
<g id="edge25" class="edge"><title>LifecycleEventType&#45;&gt;DateTypeProperties</title>
<path fill="none" stroke="black" d="M104.792,-623.161C138.217,-634.386 185.767,-654.583 217.328,-686 277.391,-745.788 317.64,-837.928 337.617,-892.067"/>
<text text-anchor="middle" x="182.328" y="-688.6" font-family="Times New Roman,serif" font-size="8.00">Date</text>
</g>
<!-- LocationNameType -->
<g id="ReusableTypeLocationNameType4" class="node"><title></title><ellipse fill="#f7b733" stroke="black" cx="64.664" cy="-558" rx="49.1982" ry="18" style="filter: url(#dropshadow)"/>
<text text-anchor="middle" x="64.664" y="-556.1" font-family="Times New Roman,serif" font-size="8.00">LocationNameType</text>
</g>
<!-- LocationNameType&#45;&gt;DateTypeProperties -->
<g id="edge26" class="edge"><title>LocationNameType&#45;&gt;DateTypeProperties</title>
<path fill="none" stroke="black" d="M106.312,-567.82C140.006,-577.849 187.112,-596.506 217.328,-628 290.736,-704.514 327.933,-827.482 343.352,-892.482"/>
<text text-anchor="middle" x="182.328" y="-630.6" font-family="Times New Roman,serif" font-size="8.00">EffectivePeriod</text>
</g>
<!-- LocationValueBundleType -->
<g id="ReusableTypeLocationValueBundleType5" class="node"><title></title><ellipse fill="#f7b733" stroke="black" cx="64.664" cy="-504" rx="61.6562" ry="18" style="filter: url(#dropshadow)"/>
<text text-anchor="middle" x="64.664" y="-502.1" font-family="Times New Roman,serif" font-size="8.00">LocationValueBundleType</text>
</g>
<!-- LocationValueBundleType&#45;&gt;DateTypeProperties -->
<g id="edge27" class="edge"><title>LocationValueBundleType&#45;&gt;DateTypeProperties</title>
<path fill="none" stroke="black" d="M114.313,-514.73C147.401,-524.344 189.979,-541.597 217.328,-571 303.838,-664.009 336.093,-817.264 347.125,-892.114"/>
<text text-anchor="middle" x="182.328" y="-573.6" font-family="Times New Roman,serif" font-size="8.00">GeographicTime</text>
</g>
<!-- LocationValueType -->
<g id="ReusableTypeLocationValueType6" class="node"><title></title><ellipse fill="#f7b733" stroke="black" cx="64.664" cy="-450" rx="48.5642" ry="18" style="filter: url(#dropshadow)"/>
<text text-anchor="middle" x="64.664" y="-448.1" font-family="Times New Roman,serif" font-size="8.00">LocationValueType</text>
</g>
<!-- LocationValueType&#45;&gt;DateTypeProperties -->
<g id="edge28" class="edge"><title>LocationValueType&#45;&gt;DateTypeProperties</title>
<path fill="none" stroke="black" d="M108.314,-458.091C142.29,-466.666 188.746,-483.492 217.328,-515 316.92,-624.789 343.078,-808.513 349.92,-892.147"/>
<text text-anchor="middle" x="182.328" y="-517.6" font-family="Times New Roman,serif" font-size="8.00">GeographicTime</text>
</g>
<!-- OrganizationNameType -->
<g id="ReusableTypeOrganizationNameType7" class="node"><title></title><ellipse fill="#f7b733" stroke="black" cx="64.664" cy="-396" rx="57.0809" ry="18" style="filter: url(#dropshadow)"/>
<text text-anchor="middle" x="64.664" y="-394.1" font-family="Times New Roman,serif" font-size="8.00">OrganizationNameType</text>
</g>
<!-- OrganizationNameType&#45;&gt;DateTypeProperties -->
<g id="edge29" class="edge"><title>OrganizationNameType&#45;&gt;DateTypeProperties</title>
<path fill="none" stroke="black" d="M114.89,-404.794C148.248,-413.231 190.909,-429.267 217.328,-459 330.114,-585.934 349.239,-800.533 352.079,-892.279"/>
<text text-anchor="middle" x="182.328" y="-461.6" font-family="Times New Roman,serif" font-size="8.00">EffectivePeriod</text>
</g>
<!-- PrivateImageType -->
<g id="ReusableTypePrivateImageType8" class="node"><title></title><ellipse fill="#f7b733" stroke="black" cx="64.664" cy="-342" rx="46.5254" ry="18" style="filter: url(#dropshadow)"/>
<text text-anchor="middle" x="64.664" y="-340.1" font-family="Times New Roman,serif" font-size="8.00">PrivateImageType</text>
</g>
<!-- PrivateImageType&#45;&gt;DateTypeProperties -->
<g id="edge30" class="edge"><title>PrivateImageType&#45;&gt;DateTypeProperties</title>
<path fill="none" stroke="black" d="M108.083,-348.599C142.39,-356.152 189.427,-371.906 217.328,-404 281.891,-478.265 330.151,-778.995 346.388,-892.42"/>
<text text-anchor="middle" x="182.328" y="-406.6" font-family="Times New Roman,serif" font-size="8.00">EffectivePeriod</text>
</g>
<!-- ResearcherIDType -->
<g id="ReusableTypeResearcherIDType9" class="node"><title></title><ellipse fill="#f7b733" stroke="black" cx="64.664" cy="-288" rx="46.5254" ry="18" style="filter: url(#dropshadow)"/>
<text text-anchor="middle" x="64.664" y="-286.1" font-family="Times New Roman,serif" font-size="8.00">ResearcherIDType</text>
</g>
<!-- ResearcherIDType&#45;&gt;DateTypeProperties -->
<g id="edge31" class="edge"><title>ResearcherIDType&#45;&gt;DateTypeProperties</title>
<path fill="none" stroke="black" d="M108.924,-293.679C143.258,-300.484 189.899,-315.253 217.328,-347 288.995,-429.95 333.619,-769.989 347.592,-892.091"/>
<text text-anchor="middle" x="182.328" y="-349.6" font-family="Times New Roman,serif" font-size="8.00">EffectivePeriod</text>
</g>
<!-- ResultDetailType -->
<g id="ReusableTypeResultDetailType0" class="node"><title></title><ellipse fill="#f7b733" stroke="black" cx="64.664" cy="-234" rx="43.8539" ry="18" style="filter: url(#dropshadow)"/>
<text text-anchor="middle" x="64.664" y="-232.1" font-family="Times New Roman,serif" font-size="8.00">ResultDetailType</text>
</g>
<!-- ResultDetailType&#45;&gt;DateTypeProperties -->
<g id="edge32" class="edge"><title>ResultDetailType&#45;&gt;DateTypeProperties</title>
<path fill="none" stroke="black" d="M106.981,-238.568C141.565,-244.626 189.589,-258.649 217.328,-291 296.015,-382.768 336.785,-762.553 348.618,-892.312"/>
<text text-anchor="middle" x="182.328" y="-293.6" font-family="Times New Roman,serif" font-size="8.00">ResultsDate</text>
</g>
<!-- RoleType -->
<g id="ReusableTypeRoleType1" class="node"><title></title><ellipse fill="#f7b733" stroke="black" cx="64.664" cy="-180" rx="28.8574" ry="18" style="filter: url(#dropshadow)"/>
<text text-anchor="middle" x="64.664" y="-178.1" font-family="Times New Roman,serif" font-size="8.00">RoleType</text>
</g>
<!-- RoleType&#45;&gt;DateTypeProperties -->
<g id="edge33" class="edge"><title>RoleType&#45;&gt;DateTypeProperties</title>
<path fill="none" stroke="black" d="M93.544,-182.205C128.027,-186.494 185.996,-199.087 217.328,-236 302.727,-336.611 339.527,-755.341 349.436,-892.379"/>
<text text-anchor="middle" x="182.328" y="-238.6" font-family="Times New Roman,serif" font-size="8.00">EffectivePeriod</text>
</g>
<!-- SoftwareType -->
<g id="ReusableTypeSoftwareType2" class="node"><title></title><ellipse fill="#f7b733" stroke="black" cx="64.664" cy="-126" rx="36.7401" ry="18" style="filter: url(#dropshadow)"/>
<text text-anchor="middle" x="64.664" y="-124.1" font-family="Times New Roman,serif" font-size="8.00">SoftwareType</text>
</g>
<!-- SoftwareType&#45;&gt;DateTypeProperties -->
<g id="edge34" class="edge"><title>SoftwareType&#45;&gt;DateTypeProperties</title>
<path fill="none" stroke="black" d="M101.146,-128.896C136.109,-133.727 188.371,-146.615 217.328,-181 309.507,-290.456 342.064,-748.33 350.137,-892.403"/>
<text text-anchor="middle" x="182.328" y="-183.6" font-family="Times New Roman,serif" font-size="8.00">Date</text>
</g>
<!-- TelephoneType -->
<g id="ReusableTypeTelephoneType3" class="node"><title></title><ellipse fill="#f7b733" stroke="black" cx="64.664" cy="-72" rx="41.3155" ry="18" style="filter: url(#dropshadow)"/>
<text text-anchor="middle" x="64.664" y="-70.1" font-family="Times New Roman,serif" font-size="8.00">TelephoneType</text>
</g>
<!-- TelephoneType&#45;&gt;DateTypeProperties -->
<g id="edge35" class="edge"><title>TelephoneType&#45;&gt;DateTypeProperties</title>
<path fill="none" stroke="black" d="M105.567,-75.4471C140.456,-80.6782 189.735,-93.8474 217.328,-127 315.879,-245.408 344.279,-741.611 350.71,-892.371"/>
<text text-anchor="middle" x="182.328" y="-129.6" font-family="Times New Roman,serif" font-size="8.00">EffectivePeriod</text>
</g>
<!-- VersionDistinctionType -->
<g id="ReusableTypeVersionDistinctionType4" class="node"><title></title><ellipse fill="#f7b733" stroke="black" cx="64.664" cy="-18" rx="57.0809" ry="18" style="filter: url(#dropshadow)"/>
<text text-anchor="middle" x="64.664" y="-16.1" font-family="Times New Roman,serif" font-size="8.00">VersionDistinctionType</text>
</g>
<!-- VersionDistinctionType&#45;&gt;DateTypeProperties -->
<g id="edge36" class="edge"><title>VersionDistinctionType&#45;&gt;DateTypeProperties</title>
<path fill="none" stroke="black" d="M119.17,-23.6862C152.426,-30.116 193.288,-43.8149 217.328,-73 322.233,-200.355 346.338,-734.755 351.208,-892.183"/>
<text text-anchor="middle" x="182.328" y="-75.6" font-family="Times New Roman,serif" font-size="8.00">EffectivePeriod</text>
</g>
</g>
</svg>
