<?xml version="1.0" encoding="UTF-8" standalone="no"?>
<!DOCTYPE svg PUBLIC "-//W3C//DTD SVG 1.1//EN"
 "http://www.w3.org/Graphics/SVG/1.1/DTD/svg11.dtd">
<!-- Generated by graphviz version 2.38.0 (20140413.2041)
 -->
<!-- Title: G Pages: 1 -->
<svg width="1127pt" height="468pt"
 viewBox="0.00 0.00 1127.22 468.00" xmlns="http://www.w3.org/2000/svg" xmlns:xlink="http://www.w3.org/1999/xlink">
<filter id = "dropshadow" height = "130%" ><feGaussianBlur in= "SourceAlpha" stdDeviation = "3"/><!--stdDeviation is how much to blur--><feOffset dx = "2" dy = "2" result = "offsetblur"/><!--how much to offset--><feMerge><feMergeNode/><!--this contains the offset blurred image--><feMergeNode in= "SourceGraphic"/><!--this contains the element that the filter is applied to --></feMerge></filter>
<g id="graph0" class="graph" transform="scale(1 1) rotate(0) translate(4 464)">
<title>G</title>
<g id="clust1" class="cluster"><title>clusterDDIProfile</title>
<polygon fill="#4abdac" stroke="black" points="188.219,-8 188.219,-452 1111.22,-452 1111.22,-8 188.219,-8" style="filter: url(#dropshadow)"/>
<text text-anchor="middle" x="649.719" y="-441.6" font-family="Times New Roman,serif" font-size="8.00">DDIProfile</text>
</g>
<!-- DDIProfileProperties -->
<g id="ItemTypeDDIProfileProperties" class="node"><title></title><polygon fill="#f7b733" stroke="black" points="196.219,-176.5 196.219,-283.5 428.219,-283.5 428.219,-176.5 196.219,-176.5" style="filter: url(#dropshadow)"/>
<text text-anchor="middle" x="222.719" y="-228.1" font-family="Times New Roman,serif" font-size="8.00">Properties</text>
<polyline fill="none" stroke="black" points="249.219,-176.5 249.219,-283.5 "/>
<text text-anchor="start" x="257.219" y="-273.1" font-family="Times New Roman,serif" font-size="8.00">DDIProfileName : NameType[0...n] </text>
<text text-anchor="start" x="257.219" y="-264.1" font-family="Times New Roman,serif" font-size="8.00">Label : LabelType[0...n] </text>
<text text-anchor="start" x="257.219" y="-255.1" font-family="Times New Roman,serif" font-size="8.00">Description : StructuredStringType[0...1] </text>
<text text-anchor="start" x="257.219" y="-246.1" font-family="Times New Roman,serif" font-size="8.00">ApplicationOfProfile : CodeValueType[0...n] </text>
<text text-anchor="start" x="257.219" y="-237.1" font-family="Times New Roman,serif" font-size="8.00">Purpose : StructuredStringType[0...1] </text>
<text text-anchor="start" x="257.219" y="-228.1" font-family="Times New Roman,serif" font-size="8.00">XPathVersion : decimal[0...1] </text>
<text text-anchor="start" x="257.219" y="-219.1" font-family="Times New Roman,serif" font-size="8.00">DDINamespace : decimal[0...1] </text>
<text text-anchor="start" x="257.219" y="-210.1" font-family="Times New Roman,serif" font-size="8.00">XMLPrefixMap : XMLPrefixMapType[0...n] </text>
<text text-anchor="start" x="257.219" y="-201.1" font-family="Times New Roman,serif" font-size="8.00">Instructions : StructuredStringType[0...1] </text>
<text text-anchor="start" x="257.219" y="-192.1" font-family="Times New Roman,serif" font-size="8.00">Used : UsedType[0...1] </text>
<text text-anchor="start" x="257.219" y="-183.1" font-family="Times New Roman,serif" font-size="8.00">NotUsed : NotUsedType[0...1] </text>
</g>
<!-- DDIProfileNameType -->
<g id="ReusableTypeDDIProfileNameType" class="node"><title></title><polygon fill="#fc4a1a" stroke="black" points="558.219,-17 558.219,-53 727.219,-53 727.219,-17 558.219,-17" style="filter: url(#dropshadow)"/>
<text text-anchor="middle" x="586.219" y="-33.1" font-family="Times New Roman,serif" font-size="8.00">NameType</text>
<polyline fill="none" stroke="black" points="614.219,-17 614.219,-53 "/>
<text text-anchor="start" x="622.219" y="-37.6" font-family="Times New Roman,serif" font-size="8.00">IsPreferred : boolean[0...1] </text>
<text text-anchor="start" x="622.219" y="-28.6" font-family="Times New Roman,serif" font-size="8.00">Context : string[0...1] </text>
</g>
<!-- DDIProfileProperties&#45;&gt;DDIProfileNameType -->
<g id="edge1" class="edge"><title>DDIProfileProperties&#45;&gt;DDIProfileNameType</title>
<path fill="none" stroke="black" d="M364.88,-176.311C404.725,-138.327 463.19,-89.5954 524.219,-63 534.888,-58.3504 546.454,-54.4008 558.026,-51.0662"/>
<text text-anchor="middle" x="476.219" y="-110.6" font-family="Times New Roman,serif" font-size="8.00">DDIProfileName</text>
</g>
<!-- DDIProfileLabelType -->
<g id="ReusableTypeDDIProfileLabelType" class="node"><title></title><polygon fill="#fc4a1a" stroke="black" points="537.219,-72.5 537.219,-125.5 748.219,-125.5 748.219,-72.5 537.219,-72.5" style="filter: url(#dropshadow)"/>
<text text-anchor="middle" x="564.219" y="-97.1" font-family="Times New Roman,serif" font-size="8.00">LabelType</text>
<polyline fill="none" stroke="black" points="591.219,-72.5 591.219,-125.5 "/>
<text text-anchor="start" x="599.219" y="-115.1" font-family="Times New Roman,serif" font-size="8.00">TypeOfLabel : CodeValueType[0...1] </text>
<text text-anchor="start" x="599.219" y="-106.1" font-family="Times New Roman,serif" font-size="8.00">LocationVariant : string[0...1] </text>
<text text-anchor="start" x="599.219" y="-97.1" font-family="Times New Roman,serif" font-size="8.00">ValidForStartDate : cogsDate[0...1] </text>
<text text-anchor="start" x="599.219" y="-88.1" font-family="Times New Roman,serif" font-size="8.00">ValidForEndDate : cogsDate[0...1] </text>
<text text-anchor="start" x="599.219" y="-79.1" font-family="Times New Roman,serif" font-size="8.00">MaxLength : nonNegativeInteger[0...1] </text>
</g>
<!-- DDIProfileProperties&#45;&gt;DDIProfileLabelType -->
<g id="edge2" class="edge"><title>DDIProfileProperties&#45;&gt;DDIProfileLabelType</title>
<path fill="none" stroke="black" d="M391.258,-176.42C408.806,-165.941 427.722,-155.799 446.219,-148 474.833,-135.934 507.104,-126.345 537.057,-118.966"/>
<text text-anchor="middle" x="476.219" y="-150.6" font-family="Times New Roman,serif" font-size="8.00">Label</text>
</g>
<!-- DDIProfileStructuredStringType -->
<g id="ReusableTypeDDIProfileStructuredStringType" class="node"><title></title><polygon fill="#fc4a1a" stroke="black" points="867.219,-244 867.219,-280 1080.22,-280 1080.22,-244 867.219,-244" style="filter: url(#dropshadow)"/>
<text text-anchor="middle" x="912.219" y="-260.1" font-family="Times New Roman,serif" font-size="8.00">StructuredStringType</text>
<polyline fill="none" stroke="black" points="957.219,-244 957.219,-280 "/>
<text text-anchor="start" x="965.219" y="-260.1" font-family="Times New Roman,serif" font-size="8.00">Content : ContentType[0...n] </text>
</g>
<!-- DDIProfileProperties&#45;&gt;DDIProfileStructuredStringType -->
<g id="edge3" class="edge"><title>DDIProfileProperties&#45;&gt;DDIProfileStructuredStringType</title>
<path fill="none" stroke="black" d="M398.327,-283.591C435.491,-303.961 480.504,-324.724 524.219,-335 626.757,-359.103 657.336,-352.423 761.219,-335 823.28,-324.591 891.49,-298.123 933.215,-280.089"/>
<text text-anchor="middle" x="642.719" y="-352.6" font-family="Times New Roman,serif" font-size="8.00">Description</text>
</g>
<!-- DDIProfileCodeValueType -->
<g id="ReusableTypeDDIProfileCodeValueType" class="node"><title></title><polygon fill="#fc4a1a" stroke="black" points="844.219,-95.5 844.219,-166.5 1103.22,-166.5 1103.22,-95.5 844.219,-95.5" style="filter: url(#dropshadow)"/>
<text text-anchor="middle" x="879.719" y="-129.1" font-family="Times New Roman,serif" font-size="8.00">CodeValueType</text>
<polyline fill="none" stroke="black" points="915.219,-95.5 915.219,-166.5 "/>
<text text-anchor="start" x="923.219" y="-156.1" font-family="Times New Roman,serif" font-size="8.00">ControlledVocabularyID : string[0...1] </text>
<text text-anchor="start" x="923.219" y="-147.1" font-family="Times New Roman,serif" font-size="8.00">ControlledVocabularyName : string[0...1] </text>
<text text-anchor="start" x="923.219" y="-138.1" font-family="Times New Roman,serif" font-size="8.00">ControlledVocabularyAgencyName : string[0...1] </text>
<text text-anchor="start" x="923.219" y="-129.1" font-family="Times New Roman,serif" font-size="8.00">ControlledVocabularyVersionID : string[0...1] </text>
<text text-anchor="start" x="923.219" y="-120.1" font-family="Times New Roman,serif" font-size="8.00">OtherValue : string[0...1] </text>
<text text-anchor="start" x="923.219" y="-111.1" font-family="Times New Roman,serif" font-size="8.00">ControlledVocabularyURN : string[0...1] </text>
<text text-anchor="start" x="923.219" y="-102.1" font-family="Times New Roman,serif" font-size="8.00">ControlledVocabularySchemeURN : string[0...1] </text>
</g>
<!-- DDIProfileProperties&#45;&gt;DDIProfileCodeValueType -->
<g id="edge4" class="edge"><title>DDIProfileProperties&#45;&gt;DDIProfileCodeValueType</title>
<path fill="none" stroke="black" d="M428.453,-194.361C459.31,-185.91 492.82,-177.704 524.219,-172 630.959,-152.609 753.744,-142.193 843.826,-136.72"/>
<text text-anchor="middle" x="642.719" y="-174.6" font-family="Times New Roman,serif" font-size="8.00">ApplicationOfProfile</text>
</g>
<!-- DDIProfileXMLPrefixMapType -->
<g id="ReusableTypeDDIProfileXMLPrefixMapType" class="node"><title></title><polygon fill="#fc4a1a" stroke="black" points="534.219,-289 534.219,-325 751.219,-325 751.219,-289 534.219,-289" style="filter: url(#dropshadow)"/>
<text text-anchor="middle" x="580.219" y="-305.1" font-family="Times New Roman,serif" font-size="8.00">XMLPrefixMapType</text>
<polyline fill="none" stroke="black" points="626.219,-289 626.219,-325 "/>
<text text-anchor="start" x="634.219" y="-309.6" font-family="Times New Roman,serif" font-size="8.00">XMLPrefix : string[0...1] </text>
<text text-anchor="start" x="634.219" y="-300.6" font-family="Times New Roman,serif" font-size="8.00">XMLNamespace : string[0...1] </text>
</g>
<!-- DDIProfileProperties&#45;&gt;DDIProfileXMLPrefixMapType -->
<g id="edge5" class="edge"><title>DDIProfileProperties&#45;&gt;DDIProfileXMLPrefixMapType</title>
<path fill="none" stroke="black" d="M428.444,-257.454C459.525,-264.819 493.148,-272.749 524.219,-280 536.754,-282.926 550.048,-286.004 563.013,-288.992"/>
<text text-anchor="middle" x="476.219" y="-276.6" font-family="Times New Roman,serif" font-size="8.00">XMLPrefixMap</text>
</g>
<!-- DDIProfileUsedType -->
<g id="ReusableTypeDDIProfileUsedType" class="node"><title></title><polygon fill="#fc4a1a" stroke="black" points="524.219,-190 524.219,-270 761.219,-270 761.219,-190 524.219,-190" style="filter: url(#dropshadow)"/>
<text text-anchor="middle" x="550.219" y="-228.1" font-family="Times New Roman,serif" font-size="8.00">UsedType</text>
<polyline fill="none" stroke="black" points="576.219,-190 576.219,-270 "/>
<text text-anchor="start" x="584.219" y="-259.6" font-family="Times New Roman,serif" font-size="8.00">AlternateName : InternationalStringType[0...1] </text>
<text text-anchor="start" x="584.219" y="-250.6" font-family="Times New Roman,serif" font-size="8.00">Description : StructuredStringType[0...1] </text>
<text text-anchor="start" x="584.219" y="-241.6" font-family="Times New Roman,serif" font-size="8.00">Instructions : StructuredStringType[0...1] </text>
<text text-anchor="start" x="584.219" y="-232.6" font-family="Times New Roman,serif" font-size="8.00">DefaultValue : ValueType[0...1] </text>
<text text-anchor="start" x="584.219" y="-223.6" font-family="Times New Roman,serif" font-size="8.00">IsRequired : boolean[0...1] </text>
<text text-anchor="start" x="584.219" y="-214.6" font-family="Times New Roman,serif" font-size="8.00">Xpath : string[1...1] </text>
<text text-anchor="start" x="584.219" y="-205.6" font-family="Times New Roman,serif" font-size="8.00">LimitMaxOccurs : string[0...1] </text>
<text text-anchor="start" x="584.219" y="-196.6" font-family="Times New Roman,serif" font-size="8.00">FixedValue : boolean[0...1] </text>
</g>
<!-- DDIProfileProperties&#45;&gt;DDIProfileUsedType -->
<g id="edge6" class="edge"><title>DDIProfileProperties&#45;&gt;DDIProfileUsedType</title>
<path fill="none" stroke="black" d="M428.574,-230C459.539,-230 493.057,-230 524.141,-230"/>
<text text-anchor="middle" x="476.219" y="-232.6" font-family="Times New Roman,serif" font-size="8.00">Used</text>
</g>
<!-- DDIProfileNotUsedType -->
<g id="ReusableTypeDDIProfileNotUsedType" class="node"><title></title><polygon fill="#fc4a1a" stroke="black" points="565.719,-390 565.719,-426 719.719,-426 719.719,-390 565.719,-390" style="filter: url(#dropshadow)"/>
<text text-anchor="middle" x="598.219" y="-406.1" font-family="Times New Roman,serif" font-size="8.00">NotUsedType</text>
<polyline fill="none" stroke="black" points="630.719,-390 630.719,-426 "/>
<text text-anchor="start" x="638.719" y="-406.1" font-family="Times New Roman,serif" font-size="8.00">Xpath : string[1...1] </text>
</g>
<!-- DDIProfileProperties&#45;&gt;DDIProfileNotUsedType -->
<g id="edge7" class="edge"><title>DDIProfileProperties&#45;&gt;DDIProfileNotUsedType</title>
<path fill="none" stroke="black" d="M352.407,-283.83C376.322,-312.813 409.343,-346.688 446.219,-367 482.67,-387.078 527.905,-397.342 565.679,-402.58"/>
<text text-anchor="middle" x="476.219" y="-391.6" font-family="Times New Roman,serif" font-size="8.00">NotUsed</text>
</g>
<!-- DDIProfileLabelType&#45;&gt;DDIProfileCodeValueType -->
<g id="edge8" class="edge"><title>DDIProfileLabelType&#45;&gt;DDIProfileCodeValueType</title>
<path fill="none" stroke="black" d="M748.268,-109.169C778.75,-112.134 812.412,-115.408 844.192,-118.499"/>
<text text-anchor="middle" x="802.719" y="-118.6" font-family="Times New Roman,serif" font-size="8.00">TypeOfLabel</text>
</g>
<!-- DDIProfileUsedType&#45;&gt;DDIProfileStructuredStringType -->
<g id="edge9" class="edge"><title>DDIProfileUsedType&#45;&gt;DDIProfileStructuredStringType</title>
<path fill="none" stroke="black" d="M761.234,-227.134C782.889,-227.601 805.269,-228.75 826.219,-231 851.033,-233.665 877.838,-238.691 901.652,-243.932"/>
<text text-anchor="middle" x="802.719" y="-233.6" font-family="Times New Roman,serif" font-size="8.00">Description</text>
</g>
<!-- DDIProfileUsedType&#45;&gt;DDIProfileStructuredStringType -->
<g id="edge10" class="edge"><title>DDIProfileUsedType&#45;&gt;DDIProfileStructuredStringType</title>
<path fill="none" stroke="black" d="M761.566,-241.462C796.045,-244.816 833.505,-248.459 867.17,-251.734"/>
<text text-anchor="middle" x="802.719" y="-248.6" font-family="Times New Roman,serif" font-size="8.00">Instructions</text>
</g>
<!-- DDIInstance -->
<g id="ItemTypeDDIInstance" class="node"><title></title><ellipse fill="#f7b733" stroke="black" cx="43.1093" cy="-311" rx="34.7021" ry="18" style="filter: url(#dropshadow)"/>
<text text-anchor="middle" x="43.1093" y="-309.1" font-family="Times New Roman,serif" font-size="8.00">DDIInstance</text>
</g>
<!-- DDIInstance&#45;&gt;DDIProfileProperties -->
<g id="edge11" class="edge"><title>DDIInstance&#45;&gt;DDIProfileProperties</title>
<path fill="none" stroke="black" d="M73.4588,-302.1C101.463,-293.608 145.591,-280.226 188.265,-267.285"/>
<text text-anchor="middle" x="141.219" y="-293.6" font-family="Times New Roman,serif" font-size="8.00">DDIProfileReference</text>
</g>
<!-- Group -->
<g id="ItemTypeGroup0" class="node"><title></title><ellipse fill="#f7b733" stroke="black" cx="43.1093" cy="-257" rx="27" ry="18" style="filter: url(#dropshadow)"/>
<text text-anchor="middle" x="43.1093" y="-255.1" font-family="Times New Roman,serif" font-size="8.00">Group</text>
</g>
<!-- Group&#45;&gt;DDIProfileProperties -->
<g id="edge12" class="edge"><title>Group&#45;&gt;DDIProfileProperties</title>
<path fill="none" stroke="black" d="M70.2072,-254.362C98.0042,-251.552 144.032,-246.9 188.457,-242.409"/>
<text text-anchor="middle" x="141.219" y="-252.6" font-family="Times New Roman,serif" font-size="8.00">DDIProfileReference</text>
</g>
<!-- ResourcePackage -->
<g id="ItemTypeResourcePackage1" class="node"><title></title><ellipse fill="#f7b733" stroke="black" cx="43.1093" cy="-203" rx="43.219" ry="18" style="filter: url(#dropshadow)"/>
<text text-anchor="middle" x="43.1093" y="-201.1" font-family="Times New Roman,serif" font-size="8.00">ResourcePackage</text>
</g>
<!-- ResourcePackage&#45;&gt;DDIProfileProperties -->
<g id="edge13" class="edge"><title>ResourcePackage&#45;&gt;DDIProfileProperties</title>
<path fill="none" stroke="black" d="M85.2598,-207.16C113.11,-209.975 151.476,-213.853 188.692,-217.615"/>
<text text-anchor="middle" x="141.219" y="-218.6" font-family="Times New Roman,serif" font-size="8.00">DDIProfileReference</text>
</g>
<!-- StudyUnit -->
<g id="ItemTypeStudyUnit2" class="node"><title></title><ellipse fill="#f7b733" stroke="black" cx="43.1093" cy="-149" rx="28.8574" ry="18" style="filter: url(#dropshadow)"/>
<text text-anchor="middle" x="43.1093" y="-147.1" font-family="Times New Roman,serif" font-size="8.00">StudyUnit</text>
</g>
<!-- StudyUnit&#45;&gt;DDIProfileProperties -->
<g id="edge14" class="edge"><title>StudyUnit&#45;&gt;DDIProfileProperties</title>
<path fill="none" stroke="black" d="M69.7209,-156.767C97.4323,-165.17 143.662,-179.189 188.298,-192.725"/>
<text text-anchor="middle" x="141.219" y="-191.6" font-family="Times New Roman,serif" font-size="8.00">DDIProfileReference</text>
</g>
</g>
</svg>
