<?xml version="1.0" encoding="UTF-8" standalone="no"?>
<!DOCTYPE svg PUBLIC "-//W3C//DTD SVG 1.1//EN"
 "http://www.w3.org/Graphics/SVG/1.1/DTD/svg11.dtd">
<!-- Generated by graphviz version 2.38.0 (20140413.2041)
 -->
<!-- Title: G Pages: 1 -->
<svg width="1129pt" height="444pt"
 viewBox="0.00 0.00 1129.00 444.00" xmlns="http://www.w3.org/2000/svg" xmlns:xlink="http://www.w3.org/1999/xlink">
<filter id = "dropshadow" height = "130%" ><feGaussianBlur in= "SourceAlpha" stdDeviation = "3"/><!--stdDeviation is how much to blur--><feOffset dx = "2" dy = "2" result = "offsetblur"/><!--how much to offset--><feMerge><feMergeNode/><!--this contains the offset blurred image--><feMergeNode in= "SourceGraphic"/><!--this contains the element that the filter is applied to --></feMerge></filter>
<g id="graph0" class="graph" transform="scale(1 1) rotate(0) translate(4 440)">
<title>G</title>
<g id="clust1" class="cluster"><title>clusterDevelopmentStep</title>
<polygon fill="#4abdac" stroke="black" points="8,-206 8,-428 1113,-428 1113,-206 8,-206" style="filter: url(#dropshadow)"/>
<text text-anchor="middle" x="560.5" y="-417.6" font-family="Times New Roman,serif" font-size="8.00">DevelopmentStep</text>
</g>
<!-- DevelopmentStepProperties -->
<g id="ItemTypeDevelopmentStepProperties" class="node"><title></title><polygon fill="#f7b733" stroke="black" points="16,-215 16,-277 304,-277 304,-215 16,-215" style="filter: url(#dropshadow)"/>
<text text-anchor="middle" x="42.5" y="-244.1" font-family="Times New Roman,serif" font-size="8.00">Properties</text>
<polyline fill="none" stroke="black" points="69,-215 69,-277 "/>
<text text-anchor="start" x="77" y="-266.6" font-family="Times New Roman,serif" font-size="8.00">DevelopmentObject : DevelopmentObjectType[0...n] </text>
<text text-anchor="start" x="77" y="-257.6" font-family="Times New Roman,serif" font-size="8.00">DevelopmentActivityReference : DevelopmentActivity[0...n] </text>
<text text-anchor="start" x="77" y="-248.6" font-family="Times New Roman,serif" font-size="8.00">ResponsibleAgencyReference : Agent[0...n] </text>
<text text-anchor="start" x="77" y="-239.6" font-family="Times New Roman,serif" font-size="8.00">Prerequisite : StructuredStringType[0...n] </text>
<text text-anchor="start" x="77" y="-230.6" font-family="Times New Roman,serif" font-size="8.00">ConditionForAcceptance : StructuredStringType[0...n] </text>
<text text-anchor="start" x="77" y="-221.6" font-family="Times New Roman,serif" font-size="8.00">ActivityDate : DateType[0...1] </text>
</g>
<!-- DevelopmentStepDevelopmentObjectType -->
<g id="ReusableTypeDevelopmentStepDevelopmentObjectType" class="node"><title></title><polygon fill="#fc4a1a" stroke="black" points="452,-214.5 452,-267.5 760,-267.5 760,-214.5 452,-214.5" style="filter: url(#dropshadow)"/>
<text text-anchor="middle" x="504.5" y="-239.1" font-family="Times New Roman,serif" font-size="8.00">DevelopmentObjectType</text>
<polyline fill="none" stroke="black" points="557,-214.5 557,-267.5 "/>
<text text-anchor="start" x="565" y="-257.1" font-family="Times New Roman,serif" font-size="8.00">Description : StructuredStringType[0...1] </text>
<text text-anchor="start" x="565" y="-248.1" font-family="Times New Roman,serif" font-size="8.00">QuestionReference : Question[0...1] </text>
<text text-anchor="start" x="565" y="-239.1" font-family="Times New Roman,serif" font-size="8.00">MeasurementReference : MeasurementItem[0...1] </text>
<text text-anchor="start" x="565" y="-230.1" font-family="Times New Roman,serif" font-size="8.00">InstrumentReference : Instrument[0...1] </text>
<text text-anchor="start" x="565" y="-221.1" font-family="Times New Roman,serif" font-size="8.00">ControlConstructReference : ControlConstruct[0...1] </text>
</g>
<!-- DevelopmentStepProperties&#45;&gt;DevelopmentStepDevelopmentObjectType -->
<g id="edge1" class="edge"><title>DevelopmentStepProperties&#45;&gt;DevelopmentStepDevelopmentObjectType</title>
<path fill="none" stroke="black" d="M304.235,-244.387C351.373,-243.856 403.956,-243.264 451.806,-242.725"/>
<text text-anchor="middle" x="378" y="-247.6" font-family="Times New Roman,serif" font-size="8.00">DevelopmentObject</text>
</g>
<!-- DevelopmentActivity -->
<g id="ItemTypeDevelopmentActivity" class="node"><title></title><ellipse fill="#f7b733" stroke="black" cx="606" cy="-178" rx="52.5056" ry="18" style="filter: url(#dropshadow)"/>
<text text-anchor="middle" x="606" y="-176.1" font-family="Times New Roman,serif" font-size="8.00">DevelopmentActivity</text>
</g>
<!-- DevelopmentStepProperties&#45;&gt;DevelopmentActivity -->
<g id="edge2" class="edge"><title>DevelopmentStepProperties&#45;&gt;DevelopmentActivity</title>
<path fill="none" stroke="black" d="M304.235,-224.063C391.543,-210.692 497.525,-194.46 557.525,-185.271"/>
<text text-anchor="middle" x="378" y="-223.6" font-family="Times New Roman,serif" font-size="8.00">DevelopmentActivityReference</text>
<text text-anchor="middle" x="549.525" y="-178.871" font-family="Times New Roman,serif" font-size="8.00">0...*</text>
<text text-anchor="middle" x="312.235" y="-217.663" font-family="Times New Roman,serif" font-size="8.00">0...*</text>
</g>
<!-- Agent -->
<g id="ItemTypeAgent" class="node"><title></title><ellipse fill="#f7b733" stroke="black" cx="606" cy="-124" rx="27" ry="18" style="filter: url(#dropshadow)"/>
<text text-anchor="middle" x="606" y="-122.1" font-family="Times New Roman,serif" font-size="8.00">Agent</text>
</g>
<!-- DevelopmentStepProperties&#45;&gt;Agent -->
<g id="edge3" class="edge"><title>DevelopmentStepProperties&#45;&gt;Agent</title>
<path fill="none" stroke="black" d="M245.06,-214.996C302.683,-194.627 381.212,-168.592 452,-151 496.239,-140.006 548.747,-131.761 579.327,-127.426"/>
<text text-anchor="middle" x="378" y="-191.6" font-family="Times New Roman,serif" font-size="8.00">ResponsibleAgencyReference</text>
<text text-anchor="middle" x="571.327" y="-121.026" font-family="Times New Roman,serif" font-size="8.00">0...*</text>
<text text-anchor="middle" x="237.06" y="-208.596" font-family="Times New Roman,serif" font-size="8.00">0...*</text>
</g>
<!-- DevelopmentStepStructuredStringType -->
<g id="ReusableTypeDevelopmentStepStructuredStringType" class="node"><title></title><polygon fill="#fc4a1a" stroke="black" points="892,-270 892,-306 1105,-306 1105,-270 892,-270" style="filter: url(#dropshadow)"/>
<text text-anchor="middle" x="937" y="-286.1" font-family="Times New Roman,serif" font-size="8.00">StructuredStringType</text>
<polyline fill="none" stroke="black" points="982,-270 982,-306 "/>
<text text-anchor="start" x="990" y="-286.1" font-family="Times New Roman,serif" font-size="8.00">Content : ContentType[0...n] </text>
</g>
<!-- DevelopmentStepProperties&#45;&gt;DevelopmentStepStructuredStringType -->
<g id="edge4" class="edge"><title>DevelopmentStepProperties&#45;&gt;DevelopmentStepStructuredStringType</title>
<path fill="none" stroke="black" d="M304.001,-263.582C351.069,-268.741 403.71,-273.841 452,-277 596.623,-286.462 633.094,-282.232 778,-285 815.152,-285.71 855.844,-286.314 891.99,-286.79"/>
<text text-anchor="middle" x="606" y="-286.6" font-family="Times New Roman,serif" font-size="8.00">Prerequisite</text>
<text text-anchor="middle" x="883.99" y="-280.39" font-family="Times New Roman,serif" font-size="8.00">0...*</text>
<text text-anchor="middle" x="312.001" y="-257.182" font-family="Times New Roman,serif" font-size="8.00">0...*</text>
</g>
<!-- DevelopmentStepDateType -->
<g id="ReusableTypeDevelopmentStepDateType" class="node"><title></title><polygon fill="#fc4a1a" stroke="black" points="488.5,-331.5 488.5,-402.5 723.5,-402.5 723.5,-331.5 488.5,-331.5" style="filter: url(#dropshadow)"/>
<text text-anchor="middle" x="514.5" y="-365.1" font-family="Times New Roman,serif" font-size="8.00">DateType</text>
<polyline fill="none" stroke="black" points="540.5,-331.5 540.5,-402.5 "/>
<text text-anchor="start" x="548.5" y="-392.1" font-family="Times New Roman,serif" font-size="8.00">SimpleDate : cogsDate[0...1] </text>
<text text-anchor="start" x="548.5" y="-383.1" font-family="Times New Roman,serif" font-size="8.00">HistoricalDate : HistoricalDateType[0...1] </text>
<text text-anchor="start" x="548.5" y="-374.1" font-family="Times New Roman,serif" font-size="8.00">StartDate : cogsDate[0...1] </text>
<text text-anchor="start" x="548.5" y="-365.1" font-family="Times New Roman,serif" font-size="8.00">HistoricalStartDate : HistoricalDateType[0...1] </text>
<text text-anchor="start" x="548.5" y="-356.1" font-family="Times New Roman,serif" font-size="8.00">EndDate : cogsDate[0...1] </text>
<text text-anchor="start" x="548.5" y="-347.1" font-family="Times New Roman,serif" font-size="8.00">HistoricalEndDate : HistoricalDateType[0...1] </text>
<text text-anchor="start" x="548.5" y="-338.1" font-family="Times New Roman,serif" font-size="8.00">Cycle : int[0...1] </text>
</g>
<!-- DevelopmentStepProperties&#45;&gt;DevelopmentStepDateType -->
<g id="edge5" class="edge"><title>DevelopmentStepProperties&#45;&gt;DevelopmentStepDateType</title>
<path fill="none" stroke="black" d="M232.616,-277.054C260.192,-288.205 292.21,-300.189 322,-309 375.865,-324.931 436.766,-338.024 488.237,-347.713"/>
<text text-anchor="middle" x="378" y="-337.6" font-family="Times New Roman,serif" font-size="8.00">ActivityDate</text>
<text text-anchor="middle" x="480.237" y="-341.313" font-family="Times New Roman,serif" font-size="8.00">0...*</text>
<text text-anchor="middle" x="224.616" y="-279.654" font-family="Times New Roman,serif" font-size="8.00">0...*</text>
</g>
<!-- DevelopmentStepDevelopmentObjectType&#45;&gt;DevelopmentStepStructuredStringType -->
<g id="edge6" class="edge"><title>DevelopmentStepDevelopmentObjectType&#45;&gt;DevelopmentStepStructuredStringType</title>
<path fill="none" stroke="black" d="M760.215,-259.441C804.232,-264.739 851.241,-270.396 891.708,-275.267"/>
<text text-anchor="middle" x="826" y="-274.6" font-family="Times New Roman,serif" font-size="8.00">Description</text>
<text text-anchor="middle" x="883.708" y="-268.867" font-family="Times New Roman,serif" font-size="8.00">0...*</text>
<text text-anchor="middle" x="768.215" y="-253.041" font-family="Times New Roman,serif" font-size="8.00">0...*</text>
</g>
<!-- Question -->
<g id="ItemTypeQuestion" class="node"><title></title><ellipse fill="#f7b733" stroke="black" cx="998.5" cy="-180" rx="27" ry="18" style="filter: url(#dropshadow)"/>
<text text-anchor="middle" x="998.5" y="-178.1" font-family="Times New Roman,serif" font-size="8.00">Question</text>
</g>
<!-- DevelopmentStepDevelopmentObjectType&#45;&gt;Question -->
<g id="edge7" class="edge"><title>DevelopmentStepDevelopmentObjectType&#45;&gt;Question</title>
<path fill="none" stroke="black" d="M760.215,-217.066C839.915,-204.616 929.425,-190.634 972.152,-183.96"/>
<text text-anchor="middle" x="826" y="-217.6" font-family="Times New Roman,serif" font-size="8.00">QuestionReference</text>
<text text-anchor="middle" x="964.152" y="-177.56" font-family="Times New Roman,serif" font-size="8.00">0...*</text>
<text text-anchor="middle" x="768.215" y="-210.666" font-family="Times New Roman,serif" font-size="8.00">0...*</text>
</g>
<!-- MeasurementItem -->
<g id="ItemTypeMeasurementItem" class="node"><title></title><ellipse fill="#f7b733" stroke="black" cx="998.5" cy="-126" rx="45.2568" ry="18" style="filter: url(#dropshadow)"/>
<text text-anchor="middle" x="998.5" y="-124.1" font-family="Times New Roman,serif" font-size="8.00">MeasurementItem</text>
</g>
<!-- DevelopmentStepDevelopmentObjectType&#45;&gt;MeasurementItem -->
<g id="edge8" class="edge"><title>DevelopmentStepDevelopmentObjectType&#45;&gt;MeasurementItem</title>
<path fill="none" stroke="black" d="M740.577,-214.399C747.285,-211.575 753.802,-208.453 760,-205 769.884,-199.494 768.282,-192.794 778,-187 823.413,-159.924 841.046,-167.113 892,-153 914.229,-146.843 939.231,-140.423 959.315,-135.388"/>
<text text-anchor="middle" x="826" y="-189.6" font-family="Times New Roman,serif" font-size="8.00">MeasurementReference</text>
<text text-anchor="middle" x="951.315" y="-137.988" font-family="Times New Roman,serif" font-size="8.00">0...*</text>
<text text-anchor="middle" x="732.577" y="-207.999" font-family="Times New Roman,serif" font-size="8.00">0...*</text>
</g>
<!-- Instrument -->
<g id="ItemTypeInstrument" class="node"><title></title><ellipse fill="#f7b733" stroke="black" cx="998.5" cy="-72" rx="31.3964" ry="18" style="filter: url(#dropshadow)"/>
<text text-anchor="middle" x="998.5" y="-70.1" font-family="Times New Roman,serif" font-size="8.00">Instrument</text>
</g>
<!-- DevelopmentStepDevelopmentObjectType&#45;&gt;Instrument -->
<g id="edge9" class="edge"><title>DevelopmentStepDevelopmentObjectType&#45;&gt;Instrument</title>
<path fill="none" stroke="black" d="M748.227,-214.472C752.381,-211.608 756.324,-208.46 760,-205 780.272,-185.917 759.24,-165.572 778,-145 814.815,-104.63 840.087,-116.033 892,-99 917.689,-90.5715 947.597,-83.1345 968.995,-78.2112"/>
<text text-anchor="middle" x="826" y="-147.6" font-family="Times New Roman,serif" font-size="8.00">InstrumentReference</text>
<text text-anchor="middle" x="960.995" y="-71.8112" font-family="Times New Roman,serif" font-size="8.00">0...*</text>
<text text-anchor="middle" x="756.227" y="-208.072" font-family="Times New Roman,serif" font-size="8.00">0...*</text>
</g>
<!-- ControlConstruct -->
<g id="ItemTypeControlConstruct0" class="node"><title></title><ellipse fill="#f7b733" stroke="black" cx="998.5" cy="-18" rx="43.8539" ry="18" style="filter: url(#dropshadow)"/>
<text text-anchor="middle" x="998.5" y="-16.1" font-family="Times New Roman,serif" font-size="8.00">ControlConstruct</text>
</g>
<!-- DevelopmentStepDevelopmentObjectType&#45;&gt;ControlConstruct -->
<g id="edge10" class="edge"><title>DevelopmentStepDevelopmentObjectType&#45;&gt;ControlConstruct</title>
<path fill="none" stroke="black" d="M749.808,-214.34C753.428,-211.503 756.842,-208.398 760,-205 794.622,-167.749 746.465,-131.898 778,-92 820.517,-38.2074 903.765,-23.2436 954.63,-19.2485"/>
<text text-anchor="middle" x="826" y="-94.6" font-family="Times New Roman,serif" font-size="8.00">ControlConstructReference</text>
<text text-anchor="middle" x="946.63" y="-12.8485" font-family="Times New Roman,serif" font-size="8.00">0...*</text>
<text text-anchor="middle" x="741.808" y="-216.94" font-family="Times New Roman,serif" font-size="8.00">0...*</text>
</g>
</g>
</svg>
