<?xml version="1.0" encoding="UTF-8" standalone="no"?>
<!DOCTYPE svg PUBLIC "-//W3C//DTD SVG 1.1//EN"
 "http://www.w3.org/Graphics/SVG/1.1/DTD/svg11.dtd">
<!-- Generated by graphviz version 2.38.0 (20140413.2041)
 -->
<!-- Title: G Pages: 1 -->
<svg width="1805pt" height="462pt"
 viewBox="0.00 0.00 1804.93 461.78" xmlns="http://www.w3.org/2000/svg" xmlns:xlink="http://www.w3.org/1999/xlink">
<filter id = "dropshadow" height = "130%" ><feGaussianBlur in= "SourceAlpha" stdDeviation = "3"/><!--stdDeviation is how much to blur--><feOffset dx = "2" dy = "2" result = "offsetblur"/><!--how much to offset--><feMerge><feMergeNode/><!--this contains the offset blurred image--><feMergeNode in= "SourceGraphic"/><!--this contains the element that the filter is applied to --></feMerge></filter>
<g id="graph0" class="graph" transform="scale(1 1) rotate(0) translate(4 457.781)">
<title>G</title>
<g id="clust1" class="cluster"><title>clusterGenericMap</title>
<polygon fill="#4abdac" stroke="black" points="192.933,-102.781 192.933,-395.781 1788.93,-395.781 1788.93,-102.781 192.933,-102.781" style="filter: url(#dropshadow)"/>
<text text-anchor="middle" x="990.933" y="-385.381" font-family="Times New Roman,serif" font-size="8.00">GenericMap</text>
</g>
<!-- GenericMapProperties -->
<g id="ItemTypeGenericMapProperties" class="node"><title></title><polygon fill="#f7b733" stroke="black" points="200.933,-132.781 200.933,-212.781 430.933,-212.781 430.933,-132.781 200.933,-132.781" style="filter: url(#dropshadow)"/>
<text text-anchor="middle" x="227.433" y="-170.881" font-family="Times New Roman,serif" font-size="8.00">Properties</text>
<polyline fill="none" stroke="black" points="253.933,-132.781 253.933,-212.781 "/>
<text text-anchor="start" x="261.933" y="-202.381" font-family="Times New Roman,serif" font-size="8.00">TypeOfMappedItem : CodeValueType[0...1] </text>
<text text-anchor="start" x="261.933" y="-193.381" font-family="Times New Roman,serif" font-size="8.00">MapName : NameType[0...n] </text>
<text text-anchor="start" x="261.933" y="-184.381" font-family="Times New Roman,serif" font-size="8.00">Label : LabelType[0...n] </text>
<text text-anchor="start" x="261.933" y="-175.381" font-family="Times New Roman,serif" font-size="8.00">Description : StructuredStringType[0...1] </text>
<text text-anchor="start" x="261.933" y="-166.381" font-family="Times New Roman,serif" font-size="8.00">SourceSchemeReference : Maintainable[0...1] </text>
<text text-anchor="start" x="261.933" y="-157.381" font-family="Times New Roman,serif" font-size="8.00">TargetSchemeReference : Maintainable[0...1] </text>
<text text-anchor="start" x="261.933" y="-148.381" font-family="Times New Roman,serif" font-size="8.00">Correspondence : CorrespondenceType[0...1] </text>
<text text-anchor="start" x="261.933" y="-139.381" font-family="Times New Roman,serif" font-size="8.00">ItemMap : ItemMapType[0...n] </text>
</g>
<!-- GenericMapCodeValueType -->
<g id="ReusableTypeGenericMapCodeValueType" class="node"><title></title><polygon fill="#fc4a1a" stroke="black" points="1521.93,-228.281 1521.93,-299.281 1780.93,-299.281 1780.93,-228.281 1521.93,-228.281" style="filter: url(#dropshadow)"/>
<text text-anchor="middle" x="1557.43" y="-261.881" font-family="Times New Roman,serif" font-size="8.00">CodeValueType</text>
<polyline fill="none" stroke="black" points="1592.93,-228.281 1592.93,-299.281 "/>
<text text-anchor="start" x="1600.93" y="-288.881" font-family="Times New Roman,serif" font-size="8.00">ControlledVocabularyID : string[0...1] </text>
<text text-anchor="start" x="1600.93" y="-279.881" font-family="Times New Roman,serif" font-size="8.00">ControlledVocabularyName : string[0...1] </text>
<text text-anchor="start" x="1600.93" y="-270.881" font-family="Times New Roman,serif" font-size="8.00">ControlledVocabularyAgencyName : string[0...1] </text>
<text text-anchor="start" x="1600.93" y="-261.881" font-family="Times New Roman,serif" font-size="8.00">ControlledVocabularyVersionID : string[0...1] </text>
<text text-anchor="start" x="1600.93" y="-252.881" font-family="Times New Roman,serif" font-size="8.00">OtherValue : string[0...1] </text>
<text text-anchor="start" x="1600.93" y="-243.881" font-family="Times New Roman,serif" font-size="8.00">ControlledVocabularyURN : string[0...1] </text>
<text text-anchor="start" x="1600.93" y="-234.881" font-family="Times New Roman,serif" font-size="8.00">ControlledVocabularySchemeURN : string[0...1] </text>
</g>
<!-- GenericMapProperties&#45;&gt;GenericMapCodeValueType -->
<g id="edge1" class="edge"><title>GenericMapProperties&#45;&gt;GenericMapCodeValueType</title>
<path fill="none" stroke="black" d="M349.825,-212.794C374.23,-239.543 409.921,-272.983 448.933,-290.781 471.352,-301.01 479.341,-296.223 503.933,-297.781 872.833,-321.163 1309.55,-292.76 1521.78,-275.378"/>
<text text-anchor="middle" x="911.433" y="-309.381" font-family="Times New Roman,serif" font-size="8.00">TypeOfMappedItem</text>
</g>
<!-- GenericMapNameType -->
<g id="ReusableTypeGenericMapNameType" class="node"><title></title><polygon fill="#fc4a1a" stroke="black" points="561.433,-333.781 561.433,-369.781 730.433,-369.781 730.433,-333.781 561.433,-333.781" style="filter: url(#dropshadow)"/>
<text text-anchor="middle" x="589.433" y="-349.881" font-family="Times New Roman,serif" font-size="8.00">NameType</text>
<polyline fill="none" stroke="black" points="617.433,-333.781 617.433,-369.781 "/>
<text text-anchor="start" x="625.433" y="-354.381" font-family="Times New Roman,serif" font-size="8.00">IsPreferred : boolean[0...1] </text>
<text text-anchor="start" x="625.433" y="-345.381" font-family="Times New Roman,serif" font-size="8.00">Context : string[0...1] </text>
</g>
<!-- GenericMapProperties&#45;&gt;GenericMapNameType -->
<g id="edge2" class="edge"><title>GenericMapProperties&#45;&gt;GenericMapNameType</title>
<path fill="none" stroke="black" d="M341.805,-212.799C365.138,-246.724 403.233,-293.741 448.933,-318.781 482.977,-337.436 524.951,-346.068 561.311,-349.883"/>
<text text-anchor="middle" x="467.433" y="-336.381" font-family="Times New Roman,serif" font-size="8.00">MapName</text>
</g>
<!-- GenericMapLabelType -->
<g id="ReusableTypeGenericMapLabelType" class="node"><title></title><polygon fill="#fc4a1a" stroke="black" points="805.933,-237.281 805.933,-290.281 1016.93,-290.281 1016.93,-237.281 805.933,-237.281" style="filter: url(#dropshadow)"/>
<text text-anchor="middle" x="832.933" y="-261.881" font-family="Times New Roman,serif" font-size="8.00">LabelType</text>
<polyline fill="none" stroke="black" points="859.933,-237.281 859.933,-290.281 "/>
<text text-anchor="start" x="867.933" y="-279.881" font-family="Times New Roman,serif" font-size="8.00">TypeOfLabel : CodeValueType[0...1] </text>
<text text-anchor="start" x="867.933" y="-270.881" font-family="Times New Roman,serif" font-size="8.00">LocationVariant : string[0...1] </text>
<text text-anchor="start" x="867.933" y="-261.881" font-family="Times New Roman,serif" font-size="8.00">ValidForStartDate : cogsDate[0...1] </text>
<text text-anchor="start" x="867.933" y="-252.881" font-family="Times New Roman,serif" font-size="8.00">ValidForEndDate : cogsDate[0...1] </text>
<text text-anchor="start" x="867.933" y="-243.881" font-family="Times New Roman,serif" font-size="8.00">MaxLength : nonNegativeInteger[0...1] </text>
</g>
<!-- GenericMapProperties&#45;&gt;GenericMapLabelType -->
<g id="edge3" class="edge"><title>GenericMapProperties&#45;&gt;GenericMapLabelType</title>
<path fill="none" stroke="black" d="M367.474,-213.002C403.275,-238.815 453.69,-269.993 503.933,-283.781 603.756,-311.177 722.453,-300.668 805.73,-286.665"/>
<text text-anchor="middle" x="467.433" y="-280.381" font-family="Times New Roman,serif" font-size="8.00">Label</text>
</g>
<!-- GenericMapStructuredStringType -->
<g id="ReusableTypeGenericMapStructuredStringType" class="node"><title></title><polygon fill="#fc4a1a" stroke="black" points="1544.93,-144.781 1544.93,-180.781 1757.93,-180.781 1757.93,-144.781 1544.93,-144.781" style="filter: url(#dropshadow)"/>
<text text-anchor="middle" x="1589.93" y="-160.881" font-family="Times New Roman,serif" font-size="8.00">StructuredStringType</text>
<polyline fill="none" stroke="black" points="1634.93,-144.781 1634.93,-180.781 "/>
<text text-anchor="start" x="1642.93" y="-160.881" font-family="Times New Roman,serif" font-size="8.00">Content : ContentType[0...n] </text>
</g>
<!-- GenericMapProperties&#45;&gt;GenericMapStructuredStringType -->
<g id="edge4" class="edge"><title>GenericMapProperties&#45;&gt;GenericMapStructuredStringType</title>
<path fill="none" stroke="black" d="M430.998,-156.772C437.06,-156.063 443.067,-155.394 448.933,-154.781 473.309,-152.236 479.448,-151.874 503.933,-150.781 886.984,-133.695 1342.7,-149.116 1544.86,-157.798"/>
<text text-anchor="middle" x="911.433" y="-146.381" font-family="Times New Roman,serif" font-size="8.00">Description</text>
</g>
<!-- Maintainable -->
<g id="ItemTypeMaintainable" class="node"><title></title><ellipse fill="#f7b733" stroke="black" cx="1216.43" cy="-52.7815" rx="35.3371" ry="18" style="filter: url(#dropshadow)"/>
<text text-anchor="middle" x="1216.43" y="-50.8815" font-family="Times New Roman,serif" font-size="8.00">Maintainable</text>
</g>
<!-- GenericMapProperties&#45;&gt;Maintainable -->
<g id="edge5" class="edge"><title>GenericMapProperties&#45;&gt;Maintainable</title>
<path fill="none" stroke="black" d="M387.204,-132.752C406.699,-123.014 428.212,-113.486 448.933,-106.781 472.5,-99.1564 479.473,-101.686 503.933,-97.7815 638.073,-76.3687 670.499,-61.2571 805.933,-50.7815 899.431,-43.5495 923.156,-50.3091 1016.93,-50.7815 1074.49,-51.0714 1141.42,-51.8342 1181.01,-52.3295"/>
<text text-anchor="middle" x="645.933" y="-100.381" font-family="Times New Roman,serif" font-size="8.00">SourceSchemeReference</text>
<text text-anchor="middle" x="1173.01" y="-45.9295" font-family="Times New Roman,serif" font-size="8.00">0...*</text>
<text text-anchor="middle" x="379.204" y="-126.352" font-family="Times New Roman,serif" font-size="8.00">0...*</text>
</g>
<!-- GenericMapProperties&#45;&gt;Maintainable -->
<g id="edge6" class="edge"><title>GenericMapProperties&#45;&gt;Maintainable</title>
<path fill="none" stroke="black" d="M357.285,-132.608C392.589,-100.498 447.007,-57.9608 503.933,-39.7815 755.494,40.5541 1083,-22.3275 1184.25,-45.2716"/>
<text text-anchor="middle" x="645.933" y="-42.3815" font-family="Times New Roman,serif" font-size="8.00">TargetSchemeReference</text>
<text text-anchor="middle" x="1176.25" y="-38.8716" font-family="Times New Roman,serif" font-size="8.00">0...*</text>
<text text-anchor="middle" x="349.285" y="-126.208" font-family="Times New Roman,serif" font-size="8.00">0...*</text>
</g>
<!-- GenericMapCorrespondenceType -->
<g id="ReusableTypeGenericMapCorrespondenceType" class="node"><title></title><polygon fill="#fc4a1a" stroke="black" points="1034.93,-168.281 1034.93,-221.281 1397.93,-221.281 1397.93,-168.281 1034.93,-168.281" style="filter: url(#dropshadow)"/>
<text text-anchor="middle" x="1080.43" y="-192.881" font-family="Times New Roman,serif" font-size="8.00">CorrespondenceType</text>
<polyline fill="none" stroke="black" points="1125.93,-168.281 1125.93,-221.281 "/>
<text text-anchor="start" x="1133.93" y="-210.881" font-family="Times New Roman,serif" font-size="8.00">Commonality : StructuredStringType[0...1] </text>
<text text-anchor="start" x="1133.93" y="-201.881" font-family="Times New Roman,serif" font-size="8.00">Difference : StructuredStringType[0...1] </text>
<text text-anchor="start" x="1133.93" y="-192.881" font-family="Times New Roman,serif" font-size="8.00">CommonalityTypeCoded : CodeValueType[0...1] </text>
<text text-anchor="start" x="1133.93" y="-183.881" font-family="Times New Roman,serif" font-size="8.00">CommonalityWeight : float[0...1] </text>
<text text-anchor="start" x="1133.93" y="-174.881" font-family="Times New Roman,serif" font-size="8.00">UserDefinedCorrespondenceProperty : StandardKeyValuePairType[0...n] </text>
</g>
<!-- GenericMapProperties&#45;&gt;GenericMapCorrespondenceType -->
<g id="edge7" class="edge"><title>GenericMapProperties&#45;&gt;GenericMapCorrespondenceType</title>
<path fill="none" stroke="black" d="M431.066,-162.165C455.111,-160.339 480.339,-158.726 503.933,-157.781 630.054,-152.731 661.828,-152.334 787.933,-157.781 869.058,-161.286 958.602,-168.513 1034.69,-175.659"/>
<text text-anchor="middle" x="645.933" y="-160.381" font-family="Times New Roman,serif" font-size="8.00">Correspondence</text>
<text text-anchor="middle" x="1026.69" y="-169.259" font-family="Times New Roman,serif" font-size="8.00">0...*</text>
<text text-anchor="middle" x="439.066" y="-155.765" font-family="Times New Roman,serif" font-size="8.00">0...*</text>
</g>
<!-- GenericMapItemMapType -->
<g id="ReusableTypeGenericMapItemMapType" class="node"><title></title><polygon fill="#fc4a1a" stroke="black" points="503.933,-176.281 503.933,-247.281 787.933,-247.281 787.933,-176.281 503.933,-176.281" style="filter: url(#dropshadow)"/>
<text text-anchor="middle" x="537.933" y="-209.881" font-family="Times New Roman,serif" font-size="8.00">ItemMapType</text>
<polyline fill="none" stroke="black" points="571.933,-176.281 571.933,-247.281 "/>
<text text-anchor="start" x="579.933" y="-236.881" font-family="Times New Roman,serif" font-size="8.00">SourceItemReference_Versionable : Versionable[0...1] </text>
<text text-anchor="start" x="579.933" y="-227.881" font-family="Times New Roman,serif" font-size="8.00">SourceItemReference_Maintainable : Maintainable[0...1] </text>
<text text-anchor="start" x="579.933" y="-218.881" font-family="Times New Roman,serif" font-size="8.00">TargetItemReference_Versionable : Versionable[0...n] </text>
<text text-anchor="start" x="579.933" y="-209.881" font-family="Times New Roman,serif" font-size="8.00">TargetItemReference_Maintainable : Maintainable[0...n] </text>
<text text-anchor="start" x="579.933" y="-200.881" font-family="Times New Roman,serif" font-size="8.00">Correspondence : CorrespondenceType[0...1] </text>
<text text-anchor="start" x="579.933" y="-191.881" font-family="Times New Roman,serif" font-size="8.00">RelatedMapReference : ItemMapType[0...n] </text>
<text text-anchor="start" x="579.933" y="-182.881" font-family="Times New Roman,serif" font-size="8.00">Alias : string[0...1] </text>
</g>
<!-- GenericMapProperties&#45;&gt;GenericMapItemMapType -->
<g id="edge8" class="edge"><title>GenericMapProperties&#45;&gt;GenericMapItemMapType</title>
<path fill="none" stroke="black" d="M431.191,-186.367C454.579,-189.148 479.457,-192.106 503.662,-194.984"/>
<text text-anchor="middle" x="467.433" y="-195.381" font-family="Times New Roman,serif" font-size="8.00">ItemMap</text>
<text text-anchor="middle" x="495.662" y="-188.584" font-family="Times New Roman,serif" font-size="8.00">0...*</text>
<text text-anchor="middle" x="439.191" y="-179.967" font-family="Times New Roman,serif" font-size="8.00">0...*</text>
</g>
<!-- GenericMapLabelType&#45;&gt;GenericMapCodeValueType -->
<g id="edge9" class="edge"><title>GenericMapLabelType&#45;&gt;GenericMapCodeValueType</title>
<path fill="none" stroke="black" d="M1017,-263.781C1149.71,-263.781 1378.56,-263.781 1521.82,-263.781"/>
<text text-anchor="middle" x="1216.43" y="-266.381" font-family="Times New Roman,serif" font-size="8.00">TypeOfLabel</text>
<text text-anchor="middle" x="1513.82" y="-257.381" font-family="Times New Roman,serif" font-size="8.00">0...*</text>
<text text-anchor="middle" x="1025" y="-257.381" font-family="Times New Roman,serif" font-size="8.00">0...*</text>
</g>
<!-- GenericMapCorrespondenceType&#45;&gt;GenericMapCodeValueType -->
<g id="edge12" class="edge"><title>GenericMapCorrespondenceType&#45;&gt;GenericMapCodeValueType</title>
<path fill="none" stroke="black" d="M1383.91,-221.311C1429.68,-228.604 1478.6,-236.399 1521.87,-243.295"/>
<text text-anchor="middle" x="1459.93" y="-242.381" font-family="Times New Roman,serif" font-size="8.00">CommonalityTypeCoded</text>
<text text-anchor="middle" x="1513.87" y="-236.895" font-family="Times New Roman,serif" font-size="8.00">0...*</text>
<text text-anchor="middle" x="1375.91" y="-223.911" font-family="Times New Roman,serif" font-size="8.00">0...*</text>
</g>
<!-- GenericMapCorrespondenceType&#45;&gt;GenericMapStructuredStringType -->
<g id="edge10" class="edge"><title>GenericMapCorrespondenceType&#45;&gt;GenericMapStructuredStringType</title>
<path fill="none" stroke="black" d="M1372.67,-168.251C1387.26,-166.448 1401.85,-164.905 1415.93,-163.781 1457.94,-160.431 1504.31,-159.627 1544.65,-159.857"/>
<text text-anchor="middle" x="1459.93" y="-166.381" font-family="Times New Roman,serif" font-size="8.00">Commonality</text>
<text text-anchor="middle" x="1536.65" y="-153.457" font-family="Times New Roman,serif" font-size="8.00">0...*</text>
<text text-anchor="middle" x="1364.67" y="-161.851" font-family="Times New Roman,serif" font-size="8.00">0...*</text>
</g>
<!-- GenericMapCorrespondenceType&#45;&gt;GenericMapStructuredStringType -->
<g id="edge11" class="edge"><title>GenericMapCorrespondenceType&#45;&gt;GenericMapStructuredStringType</title>
<path fill="none" stroke="black" d="M1398.24,-181.419C1448.1,-177.734 1500.55,-173.858 1544.63,-170.6"/>
<text text-anchor="middle" x="1459.93" y="-182.381" font-family="Times New Roman,serif" font-size="8.00">Difference</text>
<text text-anchor="middle" x="1536.63" y="-164.2" font-family="Times New Roman,serif" font-size="8.00">0...*</text>
<text text-anchor="middle" x="1406.24" y="-175.019" font-family="Times New Roman,serif" font-size="8.00">0...*</text>
</g>
<!-- GenericMapItemMapType&#45;&gt;Maintainable -->
<g id="edge14" class="edge"><title>GenericMapItemMapType&#45;&gt;Maintainable</title>
<path fill="none" stroke="black" d="M770.959,-176.177C777.093,-171.909 782.817,-167.131 787.933,-161.781 806.881,-141.968 784.817,-120.267 805.933,-102.781 842.261,-72.699 970.116,-85.5161 1016.93,-79.7815 1075.27,-72.6353 1143.09,-63.1575 1182.45,-57.541"/>
<text text-anchor="middle" x="911.433" y="-105.381" font-family="Times New Roman,serif" font-size="8.00">SourceItemReference_Maintainable</text>
<text text-anchor="middle" x="1174.45" y="-60.141" font-family="Times New Roman,serif" font-size="8.00">0...*</text>
<text text-anchor="middle" x="762.959" y="-169.777" font-family="Times New Roman,serif" font-size="8.00">0...*</text>
</g>
<!-- GenericMapItemMapType&#45;&gt;Maintainable -->
<g id="edge16" class="edge"><title>GenericMapItemMapType&#45;&gt;Maintainable</title>
<path fill="none" stroke="black" d="M772.552,-176.07C778.161,-171.83 783.348,-167.087 787.933,-161.781 814.89,-130.587 774.66,-97.6466 805.933,-70.7815 834.07,-46.6106 1088.01,-49.8718 1181.28,-51.9142"/>
<text text-anchor="middle" x="911.433" y="-73.3815" font-family="Times New Roman,serif" font-size="8.00">TargetItemReference_Maintainable</text>
<text text-anchor="middle" x="1173.28" y="-54.5142" font-family="Times New Roman,serif" font-size="8.00">0...*</text>
<text text-anchor="middle" x="780.552" y="-169.67" font-family="Times New Roman,serif" font-size="8.00">0...*</text>
</g>
<!-- GenericMapItemMapType&#45;&gt;GenericMapCorrespondenceType -->
<g id="edge17" class="edge"><title>GenericMapItemMapType&#45;&gt;GenericMapCorrespondenceType</title>
<path fill="none" stroke="black" d="M788.191,-207.557C862.757,-205.328 955.074,-202.567 1034.79,-200.183"/>
<text text-anchor="middle" x="911.433" y="-209.381" font-family="Times New Roman,serif" font-size="8.00">Correspondence</text>
<text text-anchor="middle" x="1026.79" y="-193.783" font-family="Times New Roman,serif" font-size="8.00">0...*</text>
<text text-anchor="middle" x="796.191" y="-201.157" font-family="Times New Roman,serif" font-size="8.00">0...*</text>
</g>
<!-- GenericMapItemMapType&#45;&gt;GenericMapItemMapType -->
<g id="edge18" class="edge"><title>GenericMapItemMapType&#45;&gt;GenericMapItemMapType</title>
<path fill="none" stroke="black" d="M612.658,-247.356C613.808,-257.739 624.9,-265.781 645.933,-265.781 666.966,-265.781 678.058,-257.739 679.208,-247.356"/>
<text text-anchor="middle" x="645.933" y="-268.381" font-family="Times New Roman,serif" font-size="8.00">RelatedMapReference</text>
<text text-anchor="middle" x="671.208" y="-249.956" font-family="Times New Roman,serif" font-size="8.00">0...*</text>
<text text-anchor="middle" x="604.658" y="-249.956" font-family="Times New Roman,serif" font-size="8.00">0...*</text>
</g>
<!-- Versionable -->
<g id="ItemTypeVersionable" class="node"><title></title><ellipse fill="#f7b733" stroke="black" cx="1216.43" cy="-421.781" rx="31.5313" ry="18" style="filter: url(#dropshadow)"/>
<text text-anchor="middle" x="1216.43" y="-419.881" font-family="Times New Roman,serif" font-size="8.00">Versionable</text>
</g>
<!-- GenericMapItemMapType&#45;&gt;Versionable -->
<g id="edge13" class="edge"><title>GenericMapItemMapType&#45;&gt;Versionable</title>
<path fill="none" stroke="black" d="M706.737,-247.347C734.894,-266.779 766.844,-293.134 787.933,-323.781 802.993,-345.667 785.315,-364.028 805.933,-380.781 919.746,-473.262 1114.29,-443.804 1186.95,-428.49"/>
<text text-anchor="middle" x="911.433" y="-447.381" font-family="Times New Roman,serif" font-size="8.00">SourceItemReference_Versionable</text>
<text text-anchor="middle" x="1178.95" y="-422.09" font-family="Times New Roman,serif" font-size="8.00">0...*</text>
<text text-anchor="middle" x="698.737" y="-249.947" font-family="Times New Roman,serif" font-size="8.00">0...*</text>
</g>
<!-- GenericMapItemMapType&#45;&gt;Versionable -->
<g id="edge15" class="edge"><title>GenericMapItemMapType&#45;&gt;Versionable</title>
<path fill="none" stroke="black" d="M685.784,-247.293C716.28,-273.232 760.967,-307.167 805.933,-326.781 893.575,-365.012 939.146,-313.177 1016.93,-368.781 1029.89,-378.046 1021.63,-391.01 1034.93,-399.781 1080.53,-429.848 1146.93,-429.325 1185.19,-425.825"/>
<text text-anchor="middle" x="911.433" y="-371.381" font-family="Times New Roman,serif" font-size="8.00">TargetItemReference_Versionable</text>
<text text-anchor="middle" x="1177.19" y="-428.425" font-family="Times New Roman,serif" font-size="8.00">0...*</text>
<text text-anchor="middle" x="677.784" y="-249.893" font-family="Times New Roman,serif" font-size="8.00">0...*</text>
</g>
<!-- Comparison -->
<g id="ItemTypeComparison0" class="node"><title></title><ellipse fill="#f7b733" stroke="black" cx="33.4665" cy="-172.781" rx="33.433" ry="18" style="filter: url(#dropshadow)"/>
<text text-anchor="middle" x="33.4665" y="-170.881" font-family="Times New Roman,serif" font-size="8.00">Comparison</text>
</g>
<!-- Comparison&#45;&gt;GenericMapProperties -->
<g id="edge19" class="edge"><title>Comparison&#45;&gt;GenericMapProperties</title>
<path fill="none" stroke="black" d="M43.8866,-190.11C52.5177,-203.997 66.7123,-222.483 84.9329,-230.781 124.571,-248.834 140.307,-239.733 182.933,-230.781 186.401,-230.053 189.889,-229.228 193.384,-228.319"/>
<text text-anchor="middle" x="133.933" y="-244.381" font-family="Times New Roman,serif" font-size="8.00">ConceptMapReference</text>
<text text-anchor="middle" x="185.384" y="-221.919" font-family="Times New Roman,serif" font-size="8.00">0...*</text>
<text text-anchor="middle" x="35.8866" y="-192.71" font-family="Times New Roman,serif" font-size="8.00">0...*</text>
</g>
<!-- Comparison&#45;&gt;GenericMapProperties -->
<g id="edge20" class="edge"><title>Comparison&#45;&gt;GenericMapProperties</title>
<path fill="none" stroke="black" d="M55.6837,-186.565C64.3823,-191.439 74.7798,-196.32 84.9329,-198.781 119.661,-207.201 158.015,-206.635 193.285,-202.309"/>
<text text-anchor="middle" x="133.933" y="-208.381" font-family="Times New Roman,serif" font-size="8.00">VariableMapReference</text>
<text text-anchor="middle" x="185.285" y="-195.909" font-family="Times New Roman,serif" font-size="8.00">0...*</text>
<text text-anchor="middle" x="63.6837" y="-189.165" font-family="Times New Roman,serif" font-size="8.00">0...*</text>
</g>
<!-- Comparison&#45;&gt;GenericMapProperties -->
<g id="edge21" class="edge"><title>Comparison&#45;&gt;GenericMapProperties</title>
<path fill="none" stroke="black" d="M67.1884,-172.781C98.2644,-172.781 146.944,-172.781 192.956,-172.781"/>
<text text-anchor="middle" x="133.933" y="-175.381" font-family="Times New Roman,serif" font-size="8.00">QuestionMapReference</text>
<text text-anchor="middle" x="184.956" y="-166.381" font-family="Times New Roman,serif" font-size="8.00">0...*</text>
<text text-anchor="middle" x="75.1884" y="-166.381" font-family="Times New Roman,serif" font-size="8.00">0...*</text>
</g>
<!-- Comparison&#45;&gt;GenericMapProperties -->
<g id="edge22" class="edge"><title>Comparison&#45;&gt;GenericMapProperties</title>
<path fill="none" stroke="black" d="M63.0462,-164.087C70.1312,-162.302 77.7523,-160.691 84.9329,-159.781 119.884,-155.352 158.014,-155.51 192.997,-157.623"/>
<text text-anchor="middle" x="133.933" y="-162.381" font-family="Times New Roman,serif" font-size="8.00">CategoryMapReference</text>
<text text-anchor="middle" x="184.997" y="-151.223" font-family="Times New Roman,serif" font-size="8.00">0...*</text>
<text text-anchor="middle" x="71.0462" y="-157.687" font-family="Times New Roman,serif" font-size="8.00">0...*</text>
</g>
<!-- Comparison&#45;&gt;GenericMapProperties -->
<g id="edge23" class="edge"><title>Comparison&#45;&gt;GenericMapProperties</title>
<path fill="none" stroke="black" d="M54.0265,-158.347C62.9714,-152.615 73.9979,-146.7 84.9329,-143.781 119.603,-134.529 158.021,-135.24 193.372,-140.095"/>
<text text-anchor="middle" x="133.933" y="-146.381" font-family="Times New Roman,serif" font-size="8.00">UniverseMapReference</text>
<text text-anchor="middle" x="185.372" y="-133.695" font-family="Times New Roman,serif" font-size="8.00">0...*</text>
<text text-anchor="middle" x="46.0265" y="-151.947" font-family="Times New Roman,serif" font-size="8.00">0...*</text>
</g>
<!-- Comparison&#45;&gt;GenericMapProperties -->
<g id="edge24" class="edge"><title>Comparison&#45;&gt;GenericMapProperties</title>
<path fill="none" stroke="black" d="M46.4028,-155.675C55.4819,-144.26 69.0898,-130.208 84.9329,-123.781 119.009,-109.96 157.579,-111.93 193.261,-120.29"/>
<text text-anchor="middle" x="133.933" y="-126.381" font-family="Times New Roman,serif" font-size="8.00">ManagedItemMapReference</text>
<text text-anchor="middle" x="185.261" y="-113.89" font-family="Times New Roman,serif" font-size="8.00">0...*</text>
<text text-anchor="middle" x="38.4028" y="-149.275" font-family="Times New Roman,serif" font-size="8.00">0...*</text>
</g>
</g>
</svg>
