<?xml version="1.0" encoding="UTF-8" standalone="no"?>
<!DOCTYPE svg PUBLIC "-//W3C//DTD SVG 1.1//EN"
 "http://www.w3.org/Graphics/SVG/1.1/DTD/svg11.dtd">
<!-- Generated by graphviz version 2.38.0 (20140413.2041)
 -->
<!-- Title: G Pages: 1 -->
<svg width="517pt" height="2046pt"
 viewBox="0.00 0.00 517.27 2046.00" xmlns="http://www.w3.org/2000/svg" xmlns:xlink="http://www.w3.org/1999/xlink">
<filter id = "dropshadow" height = "130%" ><feGaussianBlur in= "SourceAlpha" stdDeviation = "3"/><!--stdDeviation is how much to blur--><feOffset dx = "2" dy = "2" result = "offsetblur"/><!--how much to offset--><feMerge><feMergeNode/><!--this contains the offset blurred image--><feMergeNode in= "SourceGraphic"/><!--this contains the element that the filter is applied to --></feMerge></filter>
<g id="graph0" class="graph" transform="scale(1 1) rotate(0) translate(4 2042)">
<title>G</title>
<!-- InternationalCodeValueType -->
<g id="ReusableTypeInternationalCodeValueType" class="node"><title></title><polygon fill="#f7b733" stroke="black" points="204.269,-997.5 204.269,-1068.5 509.269,-1068.5 509.269,-997.5 204.269,-997.5" style="filter: url(#dropshadow)"/>
<text text-anchor="middle" x="262.769" y="-1031.1" font-family="Times New Roman,serif" font-size="8.00">InternationalCodeValueType</text>
<polyline fill="none" stroke="black" points="321.269,-997.5 321.269,-1068.5 "/>
<text text-anchor="start" x="329.269" y="-1058.1" font-family="Times New Roman,serif" font-size="8.00">ControlledVocabularyID : string[0...1] </text>
<text text-anchor="start" x="329.269" y="-1049.1" font-family="Times New Roman,serif" font-size="8.00">ControlledVocabularyName : string[0...1] </text>
<text text-anchor="start" x="329.269" y="-1040.1" font-family="Times New Roman,serif" font-size="8.00">ControlledVocabularyAgencyName : string[0...1] </text>
<text text-anchor="start" x="329.269" y="-1031.1" font-family="Times New Roman,serif" font-size="8.00">ControlledVocabularyVersionID : string[0...1] </text>
<text text-anchor="start" x="329.269" y="-1022.1" font-family="Times New Roman,serif" font-size="8.00">OtherValue : string[0...1] </text>
<text text-anchor="start" x="329.269" y="-1013.1" font-family="Times New Roman,serif" font-size="8.00">ControlledVocabularyURN : string[0...1] </text>
<text text-anchor="start" x="329.269" y="-1004.1" font-family="Times New Roman,serif" font-size="8.00">ControlledVocabularySchemeURN : string[0...1] </text>
</g>
<!-- CategoryGroup -->
<g id="ItemTypeCategoryGroup" class="node"><title></title><ellipse fill="#f7b733" stroke="black" cx="68.6346" cy="-2020" rx="39.278" ry="18" style="filter: url(#dropshadow)"/>
<text text-anchor="middle" x="68.6346" y="-2018.1" font-family="Times New Roman,serif" font-size="8.00">CategoryGroup</text>
</g>
<!-- CategoryGroup&#45;&gt;InternationalCodeValueType -->
<g id="edge1" class="edge"><title>CategoryGroup&#45;&gt;InternationalCodeValueType</title>
<path fill="none" stroke="black" d="M106.3,-2024.95C132.064,-2026.25 165.508,-2023.18 186.269,-2003 323.481,-1869.61 350.335,-1227.7 354.914,-1068.69"/>
<text text-anchor="middle" x="170.769" y="-2021.6" font-family="Times New Roman,serif" font-size="8.00">Subject</text>
</g>
<!-- CategoryGroup&#45;&gt;InternationalCodeValueType -->
<g id="edge2" class="edge"><title>CategoryGroup&#45;&gt;InternationalCodeValueType</title>
<path fill="none" stroke="black" d="M104.227,-2012.51C130.846,-2004.89 166.346,-1990.33 186.269,-1964 296.671,-1818.08 343.277,-1221.23 353.521,-1068.65"/>
<text text-anchor="middle" x="170.769" y="-1991.6" font-family="Times New Roman,serif" font-size="8.00">Keyword</text>
</g>
<!-- ClassificationSeries -->
<g id="ItemTypeClassificationSeries" class="node"><title></title><ellipse fill="#f7b733" stroke="black" cx="68.6346" cy="-1961" rx="47.16" ry="18" style="filter: url(#dropshadow)"/>
<text text-anchor="middle" x="68.6346" y="-1959.1" font-family="Times New Roman,serif" font-size="8.00">ClassificationSeries</text>
</g>
<!-- ClassificationSeries&#45;&gt;InternationalCodeValueType -->
<g id="edge3" class="edge"><title>ClassificationSeries&#45;&gt;InternationalCodeValueType</title>
<path fill="none" stroke="black" d="M115.935,-1960.89C140.135,-1958.32 168.363,-1950.96 186.269,-1932 307.578,-1803.53 346.059,-1219.27 354.053,-1068.55"/>
<text text-anchor="middle" x="170.769" y="-1953.6" font-family="Times New Roman,serif" font-size="8.00">Keyword</text>
</g>
<!-- CodeListGroup -->
<g id="ItemTypeCodeListGroup" class="node"><title></title><ellipse fill="#f7b733" stroke="black" cx="68.6346" cy="-1902" rx="38.6432" ry="18" style="filter: url(#dropshadow)"/>
<text text-anchor="middle" x="68.6346" y="-1900.1" font-family="Times New Roman,serif" font-size="8.00">CodeListGroup</text>
</g>
<!-- CodeListGroup&#45;&gt;InternationalCodeValueType -->
<g id="edge4" class="edge"><title>CodeListGroup&#45;&gt;InternationalCodeValueType</title>
<path fill="none" stroke="black" d="M98.9595,-1913.21C124.873,-1921.02 162.189,-1926.86 186.269,-1907 318.853,-1797.66 348.996,-1218.79 354.627,-1068.62"/>
<text text-anchor="middle" x="170.769" y="-1921.6" font-family="Times New Roman,serif" font-size="8.00">Subject</text>
</g>
<!-- CodeListGroup&#45;&gt;InternationalCodeValueType -->
<g id="edge5" class="edge"><title>CodeListGroup&#45;&gt;InternationalCodeValueType</title>
<path fill="none" stroke="black" d="M107.185,-1900.8C133.034,-1897.92 166.206,-1889.81 186.269,-1868 296.931,-1747.7 342.849,-1212.82 353.336,-1068.81"/>
<text text-anchor="middle" x="170.769" y="-1890.6" font-family="Times New Roman,serif" font-size="8.00">Keyword</text>
</g>
<!-- ConceptGroup -->
<g id="ItemTypeConceptGroup" class="node"><title></title><ellipse fill="#f7b733" stroke="black" cx="68.6346" cy="-1840" rx="38.0086" ry="18" style="filter: url(#dropshadow)"/>
<text text-anchor="middle" x="68.6346" y="-1838.1" font-family="Times New Roman,serif" font-size="8.00">ConceptGroup</text>
</g>
<!-- ConceptGroup&#45;&gt;InternationalCodeValueType -->
<g id="edge6" class="edge"><title>ConceptGroup&#45;&gt;InternationalCodeValueType</title>
<path fill="none" stroke="black" d="M99.6562,-1850.63C125.494,-1857.68 162.294,-1862.48 186.269,-1843 309.488,-1742.9 346.283,-1211.97 354.04,-1068.67"/>
<text text-anchor="middle" x="170.769" y="-1857.6" font-family="Times New Roman,serif" font-size="8.00">Subject</text>
</g>
<!-- ConceptGroup&#45;&gt;InternationalCodeValueType -->
<g id="edge7" class="edge"><title>ConceptGroup&#45;&gt;InternationalCodeValueType</title>
<path fill="none" stroke="black" d="M106.574,-1838.08C132.471,-1834.74 165.963,-1826.06 186.269,-1804 288.124,-1693.32 339.926,-1205.62 352.626,-1068.8"/>
<text text-anchor="middle" x="170.769" y="-1826.6" font-family="Times New Roman,serif" font-size="8.00">Keyword</text>
</g>
<!-- ConceptualVariableGroup -->
<g id="ItemTypeConceptualVariableGroup" class="node"><title></title><ellipse fill="#f7b733" stroke="black" cx="68.6346" cy="-1777" rx="58.9835" ry="18" style="filter: url(#dropshadow)"/>
<text text-anchor="middle" x="68.6346" y="-1775.1" font-family="Times New Roman,serif" font-size="8.00">ConceptualVariableGroup</text>
</g>
<!-- ConceptualVariableGroup&#45;&gt;InternationalCodeValueType -->
<g id="edge8" class="edge"><title>ConceptualVariableGroup&#45;&gt;InternationalCodeValueType</title>
<path fill="none" stroke="black" d="M110.514,-1789.69C135.02,-1794.62 165.377,-1795.68 186.269,-1779 300.188,-1688.06 343.366,-1204.63 353.362,-1068.62"/>
<text text-anchor="middle" x="170.769" y="-1793.6" font-family="Times New Roman,serif" font-size="8.00">Subject</text>
</g>
<!-- ConceptualVariableGroup&#45;&gt;InternationalCodeValueType -->
<g id="edge9" class="edge"><title>ConceptualVariableGroup&#45;&gt;InternationalCodeValueType</title>
<path fill="none" stroke="black" d="M124.639,-1771.32C146.577,-1766.34 170.35,-1757.11 186.269,-1740 279.888,-1639.4 336.878,-1198.43 351.818,-1068.9"/>
<text text-anchor="middle" x="170.769" y="-1762.6" font-family="Times New Roman,serif" font-size="8.00">Keyword</text>
</g>
<!-- ControlConstructGroup -->
<g id="ItemTypeControlConstructGroup" class="node"><title></title><ellipse fill="#f7b733" stroke="black" cx="68.6346" cy="-1709" rx="55.6769" ry="18" style="filter: url(#dropshadow)"/>
<text text-anchor="middle" x="68.6346" y="-1707.1" font-family="Times New Roman,serif" font-size="8.00">ControlConstructGroup</text>
</g>
<!-- ControlConstructGroup&#45;&gt;InternationalCodeValueType -->
<g id="edge10" class="edge"><title>ControlConstructGroup&#45;&gt;InternationalCodeValueType</title>
<path fill="none" stroke="black" d="M106.001,-1722.35C131.121,-1729.05 163.907,-1732.48 186.269,-1715 290.912,-1633.18 340.172,-1197.13 352.556,-1068.65"/>
<text text-anchor="middle" x="170.769" y="-1729.6" font-family="Times New Roman,serif" font-size="8.00">Subject</text>
</g>
<!-- ControlConstructGroup&#45;&gt;InternationalCodeValueType -->
<g id="edge11" class="edge"><title>ControlConstructGroup&#45;&gt;InternationalCodeValueType</title>
<path fill="none" stroke="black" d="M123.425,-1705.83C145.552,-1701.86 169.801,-1693.64 186.269,-1677 274.099,-1588.25 334.386,-1190.79 351.081,-1068.75"/>
<text text-anchor="middle" x="170.769" y="-1698.6" font-family="Times New Roman,serif" font-size="8.00">Keyword</text>
</g>
<!-- DevelopmentActivityGroup -->
<g id="ItemTypeDevelopmentActivityGroup" class="node"><title></title><ellipse fill="#f7b733" stroke="black" cx="68.6346" cy="-1654" rx="64.8284" ry="18" style="filter: url(#dropshadow)"/>
<text text-anchor="middle" x="68.6346" y="-1652.1" font-family="Times New Roman,serif" font-size="8.00">DevelopmentActivityGroup</text>
</g>
<!-- DevelopmentActivityGroup&#45;&gt;InternationalCodeValueType -->
<g id="edge12" class="edge"><title>DevelopmentActivityGroup&#45;&gt;InternationalCodeValueType</title>
<path fill="none" stroke="black" d="M119.24,-1665.26C141.867,-1667.48 167.691,-1665.55 186.269,-1651 280.755,-1577 336.371,-1188.79 351.524,-1068.54"/>
<text text-anchor="middle" x="170.769" y="-1666.6" font-family="Times New Roman,serif" font-size="8.00">Subject</text>
</g>
<!-- DevelopmentActivityGroup&#45;&gt;InternationalCodeValueType -->
<g id="edge13" class="edge"><title>DevelopmentActivityGroup&#45;&gt;InternationalCodeValueType</title>
<path fill="none" stroke="black" d="M126.402,-1645.88C147.698,-1640.18 170.528,-1630.49 186.269,-1614 337.717,-1455.34 354.879,-1169.11 356.056,-1068.86"/>
<text text-anchor="middle" x="170.769" y="-1636.6" font-family="Times New Roman,serif" font-size="8.00">Keyword</text>
</g>
<!-- GeographicLocationGroup -->
<g id="ItemTypeGeographicLocationGroup" class="node"><title></title><ellipse fill="#f7b733" stroke="black" cx="68.6346" cy="-1598" rx="61.0222" ry="18" style="filter: url(#dropshadow)"/>
<text text-anchor="middle" x="68.6346" y="-1596.1" font-family="Times New Roman,serif" font-size="8.00">GeographicLocationGroup</text>
</g>
<!-- GeographicLocationGroup&#45;&gt;InternationalCodeValueType -->
<g id="edge14" class="edge"><title>GeographicLocationGroup&#45;&gt;InternationalCodeValueType</title>
<path fill="none" stroke="black" d="M125.032,-1605.13C146.258,-1604.93 169.401,-1600.75 186.269,-1587 269.392,-1519.24 331.647,-1179.95 350.122,-1068.52"/>
<text text-anchor="middle" x="170.769" y="-1603.6" font-family="Times New Roman,serif" font-size="8.00">Subject</text>
</g>
<!-- GeographicLocationGroup&#45;&gt;InternationalCodeValueType -->
<g id="edge15" class="edge"><title>GeographicLocationGroup&#45;&gt;InternationalCodeValueType</title>
<path fill="none" stroke="black" d="M119.725,-1588.07C142.738,-1581.17 168.747,-1569.73 186.269,-1551 319.258,-1408.81 347.966,-1160.58 354.113,-1068.6"/>
<text text-anchor="middle" x="170.769" y="-1575.6" font-family="Times New Roman,serif" font-size="8.00">Keyword</text>
</g>
<!-- GeographicStructureGroup -->
<g id="ItemTypeGeographicStructureGroup0" class="node"><title></title><ellipse fill="#f7b733" stroke="black" cx="68.6346" cy="-1540" rx="60.8874" ry="18" style="filter: url(#dropshadow)"/>
<text text-anchor="middle" x="68.6346" y="-1538.1" font-family="Times New Roman,serif" font-size="8.00">GeographicStructureGroup</text>
</g>
<!-- GeographicStructureGroup&#45;&gt;InternationalCodeValueType -->
<g id="edge16" class="edge"><title>GeographicStructureGroup&#45;&gt;InternationalCodeValueType</title>
<path fill="none" stroke="black" d="M128.318,-1543.37C148.619,-1541.65 170.267,-1536.24 186.269,-1523 328.962,-1404.93 351.776,-1160.13 355.234,-1068.58"/>
<text text-anchor="middle" x="170.769" y="-1540.6" font-family="Times New Roman,serif" font-size="8.00">Subject</text>
</g>
<!-- GeographicStructureGroup&#45;&gt;InternationalCodeValueType -->
<g id="edge17" class="edge"><title>GeographicStructureGroup&#45;&gt;InternationalCodeValueType</title>
<path fill="none" stroke="black" d="M112.539,-1527.39C137.166,-1518.15 166.941,-1503.29 186.269,-1481 295.784,-1354.73 337.818,-1150.56 350.825,-1068.67"/>
<text text-anchor="middle" x="170.769" y="-1507.6" font-family="Times New Roman,serif" font-size="8.00">Keyword</text>
</g>
<!-- Individual -->
<g id="ItemTypeIndividual1" class="node"><title></title><ellipse fill="#f7b733" stroke="black" cx="68.6346" cy="-1481" rx="28.2235" ry="18" style="filter: url(#dropshadow)"/>
<text text-anchor="middle" x="68.6346" y="-1479.1" font-family="Times New Roman,serif" font-size="8.00">Individual</text>
</g>
<!-- Individual&#45;&gt;InternationalCodeValueType -->
<g id="edge18" class="edge"><title>Individual&#45;&gt;InternationalCodeValueType</title>
<path fill="none" stroke="black" d="M97.3987,-1480.43C123.312,-1478.48 161.588,-1471.75 186.269,-1450 303.834,-1346.42 341.217,-1149.3 351.901,-1068.69"/>
<text text-anchor="middle" x="170.769" y="-1470.6" font-family="Times New Roman,serif" font-size="8.00">Keyword</text>
</g>
<!-- InstructionGroup -->
<g id="ItemTypeInstructionGroup2" class="node"><title></title><ellipse fill="#f7b733" stroke="black" cx="68.6346" cy="-1422" rx="43.219" ry="18" style="filter: url(#dropshadow)"/>
<text text-anchor="middle" x="68.6346" y="-1420.1" font-family="Times New Roman,serif" font-size="8.00">InstructionGroup</text>
</g>
<!-- InstructionGroup&#45;&gt;InternationalCodeValueType -->
<g id="edge19" class="edge"><title>InstructionGroup&#45;&gt;InternationalCodeValueType</title>
<path fill="none" stroke="black" d="M102.558,-1433.12C127.565,-1439.41 161.724,-1443.16 186.269,-1427 311.123,-1344.79 344.393,-1149.23 352.938,-1068.65"/>
<text text-anchor="middle" x="170.769" y="-1439.6" font-family="Times New Roman,serif" font-size="8.00">Subject</text>
</g>
<!-- InstructionGroup&#45;&gt;InternationalCodeValueType -->
<g id="edge20" class="edge"><title>InstructionGroup&#45;&gt;InternationalCodeValueType</title>
<path fill="none" stroke="black" d="M110.311,-1417.3C134.74,-1412.64 165.088,-1403.38 186.269,-1385 286.174,-1298.33 332.227,-1139.46 348.501,-1068.67"/>
<text text-anchor="middle" x="170.769" y="-1405.6" font-family="Times New Roman,serif" font-size="8.00">Keyword</text>
</g>
<!-- InstrumentGroup -->
<g id="ItemTypeInstrumentGroup3" class="node"><title></title><ellipse fill="#f7b733" stroke="black" cx="68.6346" cy="-1357" rx="43.219" ry="18" style="filter: url(#dropshadow)"/>
<text text-anchor="middle" x="68.6346" y="-1355.1" font-family="Times New Roman,serif" font-size="8.00">InstrumentGroup</text>
</g>
<!-- InstrumentGroup&#45;&gt;InternationalCodeValueType -->
<g id="edge21" class="edge"><title>InstrumentGroup&#45;&gt;InternationalCodeValueType</title>
<path fill="none" stroke="black" d="M102.765,-1368.18C127.561,-1374.41 161.35,-1378.21 186.269,-1363 293.737,-1297.38 335.916,-1139.53 349.85,-1068.59"/>
<text text-anchor="middle" x="170.769" y="-1374.6" font-family="Times New Roman,serif" font-size="8.00">Subject</text>
</g>
<!-- InstrumentGroup&#45;&gt;InternationalCodeValueType -->
<g id="edge22" class="edge"><title>InstrumentGroup&#45;&gt;InternationalCodeValueType</title>
<path fill="none" stroke="black" d="M110.326,-1352.35C134.461,-1347.87 164.492,-1339.11 186.269,-1322 272.486,-1254.26 323.634,-1129.59 344.613,-1068.55"/>
<text text-anchor="middle" x="170.769" y="-1340.6" font-family="Times New Roman,serif" font-size="8.00">Keyword</text>
</g>
<!-- ManagedRepresentationGroup -->
<g id="ItemTypeManagedRepresentationGroup4" class="node"><title></title><ellipse fill="#f7b733" stroke="black" cx="68.6346" cy="-1302" rx="68.7695" ry="18" style="filter: url(#dropshadow)"/>
<text text-anchor="middle" x="68.6346" y="-1300.1" font-family="Times New Roman,serif" font-size="8.00">ManagedRepresentationGroup</text>
</g>
<!-- ManagedRepresentationGroup&#45;&gt;InternationalCodeValueType -->
<g id="edge23" class="edge"><title>ManagedRepresentationGroup&#45;&gt;InternationalCodeValueType</title>
<path fill="none" stroke="black" d="M128.033,-1311.14C147.631,-1311.53 168.901,-1308.82 186.269,-1299 275.885,-1248.33 325.29,-1128.63 345.213,-1068.61"/>
<text text-anchor="middle" x="170.769" y="-1311.6" font-family="Times New Roman,serif" font-size="8.00">Subject</text>
</g>
<!-- ManagedRepresentationGroup&#45;&gt;InternationalCodeValueType -->
<g id="edge24" class="edge"><title>ManagedRepresentationGroup&#45;&gt;InternationalCodeValueType</title>
<path fill="none" stroke="black" d="M119.835,-1289.88C141.678,-1282.95 166.697,-1272.66 186.269,-1258 255.745,-1205.95 310.364,-1117.91 337.328,-1068.81"/>
<text text-anchor="middle" x="170.769" y="-1277.6" font-family="Times New Roman,serif" font-size="8.00">Keyword</text>
</g>
<!-- MeasurementGroup -->
<g id="ItemTypeMeasurementGroup5" class="node"><title></title><ellipse fill="#f7b733" stroke="black" cx="68.6346" cy="-1246" rx="47.7948" ry="18" style="filter: url(#dropshadow)"/>
<text text-anchor="middle" x="68.6346" y="-1244.1" font-family="Times New Roman,serif" font-size="8.00">MeasurementGroup</text>
</g>
<!-- MeasurementGroup&#45;&gt;InternationalCodeValueType -->
<g id="edge25" class="edge"><title>MeasurementGroup&#45;&gt;InternationalCodeValueType</title>
<path fill="none" stroke="black" d="M115.397,-1249.59C137.905,-1249.44 164.748,-1246.3 186.269,-1235 257.612,-1197.55 310.974,-1116.12 337.358,-1068.88"/>
<text text-anchor="middle" x="170.769" y="-1247.6" font-family="Times New Roman,serif" font-size="8.00">Subject</text>
</g>
<!-- MeasurementGroup&#45;&gt;InternationalCodeValueType -->
<g id="edge26" class="edge"><title>MeasurementGroup&#45;&gt;InternationalCodeValueType</title>
<path fill="none" stroke="black" d="M104.113,-1233.81C128.195,-1224.49 160.514,-1210.3 186.269,-1193 239.846,-1157.01 292.459,-1103.75 324.511,-1068.72"/>
<text text-anchor="middle" x="170.769" y="-1212.6" font-family="Times New Roman,serif" font-size="8.00">Keyword</text>
</g>
<!-- NCubeGroup -->
<g id="ItemTypeNCubeGroup6" class="node"><title></title><ellipse fill="#f7b733" stroke="black" cx="68.6346" cy="-1188" rx="34.0674" ry="18" style="filter: url(#dropshadow)"/>
<text text-anchor="middle" x="68.6346" y="-1186.1" font-family="Times New Roman,serif" font-size="8.00">NCubeGroup</text>
</g>
<!-- NCubeGroup&#45;&gt;InternationalCodeValueType -->
<g id="edge27" class="edge"><title>NCubeGroup&#45;&gt;InternationalCodeValueType</title>
<path fill="none" stroke="black" d="M102.851,-1187.83C126.923,-1186.61 159.76,-1182.65 186.269,-1171 240.638,-1147.11 291.879,-1100.85 323.497,-1068.51"/>
<text text-anchor="middle" x="170.769" y="-1182.6" font-family="Times New Roman,serif" font-size="8.00">Subject</text>
</g>
<!-- NCubeGroup&#45;&gt;InternationalCodeValueType -->
<g id="edge28" class="edge"><title>NCubeGroup&#45;&gt;InternationalCodeValueType</title>
<path fill="none" stroke="black" d="M95.2159,-1176.42C107.959,-1170.52 123.539,-1163.1 137.269,-1156 191.402,-1128 251.674,-1093.84 295.181,-1068.63"/>
<text text-anchor="middle" x="170.769" y="-1148.6" font-family="Times New Roman,serif" font-size="8.00">Keyword</text>
</g>
<!-- Organization -->
<g id="ItemTypeOrganization7" class="node"><title></title><ellipse fill="#f7b733" stroke="black" cx="68.6346" cy="-1129" rx="35.3371" ry="18" style="filter: url(#dropshadow)"/>
<text text-anchor="middle" x="68.6346" y="-1127.1" font-family="Times New Roman,serif" font-size="8.00">Organization</text>
</g>
<!-- Organization&#45;&gt;InternationalCodeValueType -->
<g id="edge29" class="edge"><title>Organization&#45;&gt;InternationalCodeValueType</title>
<path fill="none" stroke="black" d="M98.3804,-1119.36C133.668,-1107.52 195.509,-1086.77 249.731,-1068.58"/>
<text text-anchor="middle" x="170.769" y="-1099.6" font-family="Times New Roman,serif" font-size="8.00">Keyword</text>
</g>
<!-- OrganizationGroup -->
<g id="ItemTypeOrganizationGroup8" class="node"><title></title><ellipse fill="#f7b733" stroke="black" cx="68.6346" cy="-1070" rx="47.16" ry="18" style="filter: url(#dropshadow)"/>
<text text-anchor="middle" x="68.6346" y="-1068.1" font-family="Times New Roman,serif" font-size="8.00">OrganizationGroup</text>
</g>
<!-- OrganizationGroup&#45;&gt;InternationalCodeValueType -->
<g id="edge30" class="edge"><title>OrganizationGroup&#45;&gt;InternationalCodeValueType</title>
<path fill="none" stroke="black" d="M115.388,-1073.17C128.28,-1073.92 142.318,-1074.62 155.269,-1075 169.041,-1075.4 172.593,-1076.67 186.269,-1075 199.21,-1073.42 212.585,-1071.19 225.884,-1068.56"/>
<text text-anchor="middle" x="170.769" y="-1077.6" font-family="Times New Roman,serif" font-size="8.00">Subject</text>
</g>
<!-- OrganizationGroup&#45;&gt;InternationalCodeValueType -->
<g id="edge31" class="edge"><title>OrganizationGroup&#45;&gt;InternationalCodeValueType</title>
<path fill="none" stroke="black" d="M113.404,-1064.34C138.217,-1061.13 170.895,-1056.91 204.189,-1052.6"/>
<text text-anchor="middle" x="170.769" y="-1060.6" font-family="Times New Roman,serif" font-size="8.00">Keyword</text>
</g>
<!-- OtherMaterialGroup -->
<g id="ItemTypeOtherMaterialGroup9" class="node"><title></title><ellipse fill="#f7b733" stroke="black" cx="68.6346" cy="-1008" rx="49.1982" ry="18" style="filter: url(#dropshadow)"/>
<text text-anchor="middle" x="68.6346" y="-1006.1" font-family="Times New Roman,serif" font-size="8.00">OtherMaterialGroup</text>
</g>
<!-- OtherMaterialGroup&#45;&gt;InternationalCodeValueType -->
<g id="edge32" class="edge"><title>OtherMaterialGroup&#45;&gt;InternationalCodeValueType</title>
<path fill="none" stroke="black" d="M116.884,-1012.13C141.249,-1014.26 172.476,-1016.99 204.261,-1019.76"/>
<text text-anchor="middle" x="170.769" y="-1019.6" font-family="Times New Roman,serif" font-size="8.00">Subject</text>
</g>
<!-- OtherMaterialGroup&#45;&gt;InternationalCodeValueType -->
<g id="edge33" class="edge"><title>OtherMaterialGroup&#45;&gt;InternationalCodeValueType</title>
<path fill="none" stroke="black" d="M117.174,-1004.73C129.568,-1004.01 142.914,-1003.36 155.269,-1003 169.041,-1002.6 172.544,-1001.79 186.269,-1003 192.074,-1003.51 197.979,-1004.12 203.933,-1004.8"/>
<text text-anchor="middle" x="170.769" y="-1005.6" font-family="Times New Roman,serif" font-size="8.00">Keyword</text>
</g>
<!-- PhysicalInstanceGroup -->
<g id="ItemTypePhysicalInstanceGroup0" class="node"><title></title><ellipse fill="#f7b733" stroke="black" cx="68.6346" cy="-945" rx="54.4078" ry="18" style="filter: url(#dropshadow)"/>
<text text-anchor="middle" x="68.6346" y="-943.1" font-family="Times New Roman,serif" font-size="8.00">PhysicalInstanceGroup</text>
</g>
<!-- PhysicalInstanceGroup&#45;&gt;InternationalCodeValueType -->
<g id="edge34" class="edge"><title>PhysicalInstanceGroup&#45;&gt;InternationalCodeValueType</title>
<path fill="none" stroke="black" d="M109.12,-957.144C143.001,-967.564 193.588,-983.121 240.145,-997.44"/>
<text text-anchor="middle" x="170.769" y="-980.6" font-family="Times New Roman,serif" font-size="8.00">Subject</text>
</g>
<!-- PhysicalInstanceGroup&#45;&gt;InternationalCodeValueType -->
<g id="edge35" class="edge"><title>PhysicalInstanceGroup&#45;&gt;InternationalCodeValueType</title>
<path fill="none" stroke="black" d="M122.212,-948.622C142.48,-950.831 165.692,-954.365 186.269,-960 219.798,-969.182 255.354,-983.693 285.195,-997.368"/>
<text text-anchor="middle" x="170.769" y="-962.6" font-family="Times New Roman,serif" font-size="8.00">Keyword</text>
</g>
<!-- PhysicalStructureGroup -->
<g id="ItemTypePhysicalStructureGroup1" class="node"><title></title><ellipse fill="#f7b733" stroke="black" cx="68.6346" cy="-882" rx="55.6769" ry="18" style="filter: url(#dropshadow)"/>
<text text-anchor="middle" x="68.6346" y="-880.1" font-family="Times New Roman,serif" font-size="8.00">PhysicalStructureGroup</text>
</g>
<!-- PhysicalStructureGroup&#45;&gt;InternationalCodeValueType -->
<g id="edge36" class="edge"><title>PhysicalStructureGroup&#45;&gt;InternationalCodeValueType</title>
<path fill="none" stroke="black" d="M100.502,-896.929C124.113,-908.449 157.409,-924.915 186.269,-940 221.519,-958.425 260.454,-979.72 292.109,-997.279"/>
<text text-anchor="middle" x="170.769" y="-942.6" font-family="Times New Roman,serif" font-size="8.00">Subject</text>
</g>
<!-- PhysicalStructureGroup&#45;&gt;InternationalCodeValueType -->
<g id="edge37" class="edge"><title>PhysicalStructureGroup&#45;&gt;InternationalCodeValueType</title>
<path fill="none" stroke="black" d="M118.108,-890.287C139.617,-895.011 164.852,-902.025 186.269,-912 233.958,-934.21 282.192,-970.261 314.946,-997.244"/>
<text text-anchor="middle" x="170.769" y="-914.6" font-family="Times New Roman,serif" font-size="8.00">Keyword</text>
</g>
<!-- ProcessingEventGroup -->
<g id="ItemTypeProcessingEventGroup2" class="node"><title></title><ellipse fill="#f7b733" stroke="black" cx="68.6346" cy="-813" rx="53.7736" ry="18" style="filter: url(#dropshadow)"/>
<text text-anchor="middle" x="68.6346" y="-811.1" font-family="Times New Roman,serif" font-size="8.00">ProcessingEventGroup</text>
</g>
<!-- ProcessingEventGroup&#45;&gt;InternationalCodeValueType -->
<g id="edge38" class="edge"><title>ProcessingEventGroup&#45;&gt;InternationalCodeValueType</title>
<path fill="none" stroke="black" d="M95.4143,-828.818C108.068,-836.63 123.513,-846.238 137.269,-855 159.208,-868.973 165.481,-871.367 186.269,-887 233.141,-922.248 283.69,-966.71 317.272,-997.253"/>
<text text-anchor="middle" x="170.769" y="-889.6" font-family="Times New Roman,serif" font-size="8.00">Subject</text>
</g>
<!-- ProcessingEventGroup&#45;&gt;InternationalCodeValueType -->
<g id="edge39" class="edge"><title>ProcessingEventGroup&#45;&gt;InternationalCodeValueType</title>
<path fill="none" stroke="black" d="M114.01,-822.769C136.805,-829.095 164.323,-838.843 186.269,-853 246.688,-891.975 300.607,-957.006 330.666,-997.311"/>
<text text-anchor="middle" x="170.769" y="-855.6" font-family="Times New Roman,serif" font-size="8.00">Keyword</text>
</g>
<!-- ProcessingInstructionGroup -->
<g id="ItemTypeProcessingInstructionGroup3" class="node"><title></title><ellipse fill="#f7b733" stroke="black" cx="68.6346" cy="-758" rx="64.1937" ry="18" style="filter: url(#dropshadow)"/>
<text text-anchor="middle" x="68.6346" y="-756.1" font-family="Times New Roman,serif" font-size="8.00">ProcessingInstructionGroup</text>
</g>
<!-- ProcessingInstructionGroup&#45;&gt;InternationalCodeValueType -->
<g id="edge40" class="edge"><title>ProcessingInstructionGroup&#45;&gt;InternationalCodeValueType</title>
<path fill="none" stroke="black" d="M108.761,-772.118C118.327,-776.13 128.367,-780.831 137.269,-786 228.122,-838.754 300.994,-942.788 334.982,-997.483"/>
<text text-anchor="middle" x="170.769" y="-818.6" font-family="Times New Roman,serif" font-size="8.00">Subject</text>
</g>
<!-- ProcessingInstructionGroup&#45;&gt;InternationalCodeValueType -->
<g id="edge41" class="edge"><title>ProcessingInstructionGroup&#45;&gt;InternationalCodeValueType</title>
<path fill="none" stroke="black" d="M128.867,-764.202C148.425,-768.382 169.457,-775.36 186.269,-787 264.09,-840.881 317.098,-942.96 341.12,-997.134"/>
<text text-anchor="middle" x="170.769" y="-789.6" font-family="Times New Roman,serif" font-size="8.00">Keyword</text>
</g>
<!-- QualityStandardGroup -->
<g id="ItemTypeQualityStandardGroup4" class="node"><title></title><ellipse fill="#f7b733" stroke="black" cx="68.6346" cy="-702" rx="52.3706" ry="18" style="filter: url(#dropshadow)"/>
<text text-anchor="middle" x="68.6346" y="-700.1" font-family="Times New Roman,serif" font-size="8.00">QualityStandardGroup</text>
</g>
<!-- QualityStandardGroup&#45;&gt;InternationalCodeValueType -->
<g id="edge42" class="edge"><title>QualityStandardGroup&#45;&gt;InternationalCodeValueType</title>
<path fill="none" stroke="black" d="M108.231,-713.897C132.913,-723.06 164.302,-737.785 186.269,-759 260.303,-830.498 315.477,-940.766 340.656,-997.137"/>
<text text-anchor="middle" x="170.769" y="-761.6" font-family="Times New Roman,serif" font-size="8.00">Subject</text>
</g>
<!-- QualityStandardGroup&#45;&gt;InternationalCodeValueType -->
<g id="edge43" class="edge"><title>QualityStandardGroup&#45;&gt;InternationalCodeValueType</title>
<path fill="none" stroke="black" d="M121.099,-702.185C142.931,-704.54 167.59,-710.445 186.269,-724 281.227,-792.909 329.029,-931.949 347.042,-997.4"/>
<text text-anchor="middle" x="170.769" y="-726.6" font-family="Times New Roman,serif" font-size="8.00">Keyword</text>
</g>
<!-- QualityStatementGroup -->
<g id="ItemTypeQualityStatementGroup5" class="node"><title></title><ellipse fill="#f7b733" stroke="black" cx="68.6346" cy="-644" rx="55.6769" ry="18" style="filter: url(#dropshadow)"/>
<text text-anchor="middle" x="68.6346" y="-642.1" font-family="Times New Roman,serif" font-size="8.00">QualityStatementGroup</text>
</g>
<!-- QualityStatementGroup&#45;&gt;InternationalCodeValueType -->
<g id="edge44" class="edge"><title>QualityStatementGroup&#45;&gt;InternationalCodeValueType</title>
<path fill="none" stroke="black" d="M112.274,-655.21C136.354,-663.305 165.66,-676.33 186.269,-696 277.586,-783.155 327.483,-930.113 346.564,-997.411"/>
<text text-anchor="middle" x="170.769" y="-698.6" font-family="Times New Roman,serif" font-size="8.00">Subject</text>
</g>
<!-- QualityStatementGroup&#45;&gt;InternationalCodeValueType -->
<g id="edge45" class="edge"><title>QualityStatementGroup&#45;&gt;InternationalCodeValueType</title>
<path fill="none" stroke="black" d="M123.464,-640.619C144.826,-641.859 168.486,-646.751 186.269,-660 299.351,-744.247 338.941,-921.704 351.048,-997.481"/>
<text text-anchor="middle" x="170.769" y="-662.6" font-family="Times New Roman,serif" font-size="8.00">Keyword</text>
</g>
<!-- QuestionGroup -->
<g id="ItemTypeQuestionGroup6" class="node"><title></title><ellipse fill="#f7b733" stroke="black" cx="68.6346" cy="-580" rx="38.6432" ry="18" style="filter: url(#dropshadow)"/>
<text text-anchor="middle" x="68.6346" y="-578.1" font-family="Times New Roman,serif" font-size="8.00">QuestionGroup</text>
</g>
<!-- QuestionGroup&#45;&gt;InternationalCodeValueType -->
<g id="edge46" class="edge"><title>QuestionGroup&#45;&gt;InternationalCodeValueType</title>
<path fill="none" stroke="black" d="M103.178,-588.066C128.856,-595.777 163.604,-609.745 186.269,-633 290.631,-740.08 335.006,-921.198 349.716,-997.465"/>
<text text-anchor="middle" x="170.769" y="-635.6" font-family="Times New Roman,serif" font-size="8.00">Subject</text>
</g>
<!-- QuestionGroup&#45;&gt;InternationalCodeValueType -->
<g id="edge47" class="edge"><title>QuestionGroup&#45;&gt;InternationalCodeValueType</title>
<path fill="none" stroke="black" d="M106.509,-576.306C131.543,-575.795 164.017,-579.284 186.269,-597 314.931,-699.431 346.103,-912.621 353.513,-997.254"/>
<text text-anchor="middle" x="170.769" y="-599.6" font-family="Times New Roman,serif" font-size="8.00">Keyword</text>
</g>
<!-- RecordLayoutGroup -->
<g id="ItemTypeRecordLayoutGroup7" class="node"><title></title><ellipse fill="#f7b733" stroke="black" cx="68.6346" cy="-516" rx="48.5642" ry="18" style="filter: url(#dropshadow)"/>
<text text-anchor="middle" x="68.6346" y="-514.1" font-family="Times New Roman,serif" font-size="8.00">RecordLayoutGroup</text>
</g>
<!-- RecordLayoutGroup&#45;&gt;InternationalCodeValueType -->
<g id="edge48" class="edge"><title>RecordLayoutGroup&#45;&gt;InternationalCodeValueType</title>
<path fill="none" stroke="black" d="M110.33,-525.456C135.233,-533.142 166.084,-546.354 186.269,-568 304.934,-695.256 341.925,-912.142 352.203,-997.236"/>
<text text-anchor="middle" x="170.769" y="-570.6" font-family="Times New Roman,serif" font-size="8.00">Subject</text>
</g>
<!-- RecordLayoutGroup&#45;&gt;InternationalCodeValueType -->
<g id="edge49" class="edge"><title>RecordLayoutGroup&#45;&gt;InternationalCodeValueType</title>
<path fill="none" stroke="black" d="M115.64,-511.05C139.163,-510.998 166.847,-515.083 186.269,-531 333.187,-651.404 353.374,-904.198 355.687,-997.457"/>
<text text-anchor="middle" x="170.769" y="-533.6" font-family="Times New Roman,serif" font-size="8.00">Keyword</text>
</g>
<!-- Relation -->
<g id="ItemTypeRelation8" class="node"><title></title><ellipse fill="#f7b733" stroke="black" cx="68.6346" cy="-457" rx="27" ry="18" style="filter: url(#dropshadow)"/>
<text text-anchor="middle" x="68.6346" y="-455.1" font-family="Times New Roman,serif" font-size="8.00">Relation</text>
</g>
<!-- Relation&#45;&gt;InternationalCodeValueType -->
<g id="edge50" class="edge"><title>Relation&#45;&gt;InternationalCodeValueType</title>
<path fill="none" stroke="black" d="M95.5086,-460.396C121.853,-465.189 162.154,-476.413 186.269,-502 323.324,-647.424 349.559,-903.744 354.581,-997.43"/>
<text text-anchor="middle" x="170.769" y="-504.6" font-family="Times New Roman,serif" font-size="8.00">Keyword</text>
</g>
<!-- RepresentedVariableGroup -->
<g id="ItemTypeRepresentedVariableGroup9" class="node"><title></title><ellipse fill="#f7b733" stroke="black" cx="68.6346" cy="-402" rx="60.8874" ry="18" style="filter: url(#dropshadow)"/>
<text text-anchor="middle" x="68.6346" y="-400.1" font-family="Times New Roman,serif" font-size="8.00">RepresentedVariableGroup</text>
</g>
<!-- RepresentedVariableGroup&#45;&gt;InternationalCodeValueType -->
<g id="edge51" class="edge"><title>RepresentedVariableGroup&#45;&gt;InternationalCodeValueType</title>
<path fill="none" stroke="black" d="M111.774,-414.839C137.413,-424.881 168.538,-441.495 186.269,-467 307.179,-640.919 343.316,-902.536 352.77,-997.206"/>
<text text-anchor="middle" x="170.769" y="-469.6" font-family="Times New Roman,serif" font-size="8.00">Subject</text>
</g>
<!-- RepresentedVariableGroup&#45;&gt;InternationalCodeValueType -->
<g id="edge52" class="edge"><title>RepresentedVariableGroup&#45;&gt;InternationalCodeValueType</title>
<path fill="none" stroke="black" d="M129.339,-402.076C149.626,-405.016 171.002,-411.756 186.269,-426 272.273,-506.235 333.372,-879.84 350.737,-997.453"/>
<text text-anchor="middle" x="170.769" y="-428.6" font-family="Times New Roman,serif" font-size="8.00">Keyword</text>
</g>
<!-- UnitTypeGroup -->
<g id="ItemTypeUnitTypeGroup0" class="node"><title></title><ellipse fill="#f7b733" stroke="black" cx="68.6346" cy="-347" rx="40.6815" ry="18" style="filter: url(#dropshadow)"/>
<text text-anchor="middle" x="68.6346" y="-345.1" font-family="Times New Roman,serif" font-size="8.00">UnitTypeGroup</text>
</g>
<!-- UnitTypeGroup&#45;&gt;InternationalCodeValueType -->
<g id="edge53" class="edge"><title>UnitTypeGroup&#45;&gt;InternationalCodeValueType</title>
<path fill="none" stroke="black" d="M107.048,-353.372C132.832,-359.672 165.983,-371.871 186.269,-395 345.537,-576.581 357.448,-891.582 356.682,-997.267"/>
<text text-anchor="middle" x="170.769" y="-397.6" font-family="Times New Roman,serif" font-size="8.00">Subject</text>
</g>
<!-- UnitTypeGroup&#45;&gt;InternationalCodeValueType -->
<g id="edge54" class="edge"><title>UnitTypeGroup&#45;&gt;InternationalCodeValueType</title>
<path fill="none" stroke="black" d="M107.047,-340.625C132.329,-338.536 164.876,-340.482 186.269,-359 285.366,-444.777 338.339,-870.367 352.106,-997.243"/>
<text text-anchor="middle" x="170.769" y="-361.6" font-family="Times New Roman,serif" font-size="8.00">Keyword</text>
</g>
<!-- UniverseGroup -->
<g id="ItemTypeUniverseGroup1" class="node"><title></title><ellipse fill="#f7b733" stroke="black" cx="68.6346" cy="-290" rx="38.6432" ry="18" style="filter: url(#dropshadow)"/>
<text text-anchor="middle" x="68.6346" y="-288.1" font-family="Times New Roman,serif" font-size="8.00">UniverseGroup</text>
</g>
<!-- UniverseGroup&#45;&gt;InternationalCodeValueType -->
<g id="edge55" class="edge"><title>UniverseGroup&#45;&gt;InternationalCodeValueType</title>
<path fill="none" stroke="black" d="M106.523,-293.405C132.395,-297.743 165.878,-307.601 186.269,-330 278.285,-431.078 336.399,-868.823 351.711,-997.377"/>
<text text-anchor="middle" x="170.769" y="-332.6" font-family="Times New Roman,serif" font-size="8.00">Subject</text>
</g>
<!-- UniverseGroup&#45;&gt;InternationalCodeValueType -->
<g id="edge56" class="edge"><title>UniverseGroup&#45;&gt;InternationalCodeValueType</title>
<path fill="none" stroke="black" d="M102.869,-281.539C128.546,-277.117 163.444,-276.01 186.269,-295 297.054,-387.171 342.405,-862.785 353.142,-997.439"/>
<text text-anchor="middle" x="170.769" y="-297.6" font-family="Times New Roman,serif" font-size="8.00">Keyword</text>
</g>
<!-- VariableGroup -->
<g id="ItemTypeVariableGroup2" class="node"><title></title><ellipse fill="#f7b733" stroke="black" cx="68.6346" cy="-234" rx="36.7401" ry="18" style="filter: url(#dropshadow)"/>
<text text-anchor="middle" x="68.6346" y="-232.1" font-family="Times New Roman,serif" font-size="8.00">VariableGroup</text>
</g>
<!-- VariableGroup&#45;&gt;InternationalCodeValueType -->
<g id="edge57" class="edge"><title>VariableGroup&#45;&gt;InternationalCodeValueType</title>
<path fill="none" stroke="black" d="M105.697,-235.157C131.676,-237.956 165.653,-245.985 186.269,-268 288.319,-376.974 339.981,-861.481 352.638,-997.426"/>
<text text-anchor="middle" x="170.769" y="-270.6" font-family="Times New Roman,serif" font-size="8.00">Subject</text>
</g>
<!-- VariableGroup&#45;&gt;InternationalCodeValueType -->
<g id="edge58" class="edge"><title>VariableGroup&#45;&gt;InternationalCodeValueType</title>
<path fill="none" stroke="black" d="M99.9014,-224.407C125.72,-218.258 162.354,-214.626 186.269,-234 307.884,-332.522 345.796,-855.244 353.931,-997.329"/>
<text text-anchor="middle" x="170.769" y="-236.6" font-family="Times New Roman,serif" font-size="8.00">Keyword</text>
</g>
<!-- ReferenceDateType -->
<g id="ReusableTypeReferenceDateType3" class="node"><title></title><ellipse fill="#f7b733" stroke="black" cx="68.6346" cy="-180" rx="48.5642" ry="18" style="filter: url(#dropshadow)"/>
<text text-anchor="middle" x="68.6346" y="-178.1" font-family="Times New Roman,serif" font-size="8.00">ReferenceDateType</text>
</g>
<!-- ReferenceDateType&#45;&gt;InternationalCodeValueType -->
<g id="edge59" class="edge"><title>ReferenceDateType&#45;&gt;InternationalCodeValueType</title>
<path fill="none" stroke="black" d="M117.497,-179.527C141.246,-181.863 168.565,-188.846 186.269,-207 299.208,-322.809 343.472,-854.247 353.464,-997.397"/>
<text text-anchor="middle" x="170.769" y="-209.6" font-family="Times New Roman,serif" font-size="8.00">Subject</text>
</g>
<!-- RoleType -->
<g id="ReusableTypeRoleType4" class="node"><title></title><ellipse fill="#f7b733" stroke="black" cx="68.6346" cy="-126" rx="28.8574" ry="18" style="filter: url(#dropshadow)"/>
<text text-anchor="middle" x="68.6346" y="-124.1" font-family="Times New Roman,serif" font-size="8.00">RoleType</text>
</g>
<!-- RoleType&#45;&gt;InternationalCodeValueType -->
<g id="edge60" class="edge"><title>RoleType&#45;&gt;InternationalCodeValueType</title>
<path fill="none" stroke="black" d="M97.0573,-129.851C124.052,-135.156 164.326,-147.411 186.269,-175 290.828,-306.458 341.262,-851.565 353.027,-997.13"/>
<text text-anchor="middle" x="170.769" y="-177.6" font-family="Times New Roman,serif" font-size="8.00">Keyword</text>
</g>
<!-- TopicalCoverageType -->
<g id="ReusableTypeTopicalCoverageType5" class="node"><title></title><ellipse fill="#f7b733" stroke="black" cx="68.6346" cy="-72" rx="53.7736" ry="18" style="filter: url(#dropshadow)"/>
<text text-anchor="middle" x="68.6346" y="-70.1" font-family="Times New Roman,serif" font-size="8.00">TopicalCoverageType</text>
</g>
<!-- TopicalCoverageType&#45;&gt;InternationalCodeValueType -->
<g id="edge61" class="edge"><title>TopicalCoverageType&#45;&gt;InternationalCodeValueType</title>
<path fill="none" stroke="black" d="M110.272,-83.511C136.85,-93.3542 169.623,-110.409 186.269,-138 276.848,-288.134 337.686,-849.71 352.343,-997.288"/>
<text text-anchor="middle" x="170.769" y="-140.6" font-family="Times New Roman,serif" font-size="8.00">Subject</text>
</g>
<!-- TopicalCoverageType&#45;&gt;InternationalCodeValueType -->
<g id="edge62" class="edge"><title>TopicalCoverageType&#45;&gt;InternationalCodeValueType</title>
<path fill="none" stroke="black" d="M122.209,-69.4053C144.785,-71.1378 169.724,-77.3243 186.269,-94 316.509,-225.265 348.498,-841.701 354.551,-997.274"/>
<text text-anchor="middle" x="170.769" y="-96.6" font-family="Times New Roman,serif" font-size="8.00">Keyword</text>
</g>
<!-- VocabularyType -->
<g id="ReusableTypeVocabularyType6" class="node"><title></title><ellipse fill="#f7b733" stroke="black" cx="68.6346" cy="-18" rx="41.9498" ry="18" style="filter: url(#dropshadow)"/>
<text text-anchor="middle" x="68.6346" y="-16.1" font-family="Times New Roman,serif" font-size="8.00">VocabularyType</text>
</g>
<!-- VocabularyType&#45;&gt;InternationalCodeValueType -->
<g id="edge63" class="edge"><title>VocabularyType&#45;&gt;InternationalCodeValueType</title>
<path fill="none" stroke="black" d="M109.012,-23.1181C134.848,-28.5894 167.255,-39.8579 186.269,-63 307.615,-210.692 346.301,-840.527 354.144,-997.469"/>
<text text-anchor="middle" x="170.769" y="-65.6" font-family="Times New Roman,serif" font-size="8.00">Keyword</text>
</g>
</g>
</svg>
