<?xml version="1.0" encoding="UTF-8" standalone="no"?>
<!DOCTYPE svg PUBLIC "-//W3C//DTD SVG 1.1//EN"
 "http://www.w3.org/Graphics/SVG/1.1/DTD/svg11.dtd">
<!-- Generated by graphviz version 2.38.0 (20140413.2041)
 -->
<!-- Title: G Pages: 1 -->
<svg width="751pt" height="1020pt"
 viewBox="0.00 0.00 750.81 1020.31" xmlns="http://www.w3.org/2000/svg" xmlns:xlink="http://www.w3.org/1999/xlink">
<filter id = "dropshadow" height = "130%" ><feGaussianBlur in= "SourceAlpha" stdDeviation = "3"/><!--stdDeviation is how much to blur--><feOffset dx = "2" dy = "2" result = "offsetblur"/><!--how much to offset--><feMerge><feMergeNode/><!--this contains the offset blurred image--><feMergeNode in= "SourceGraphic"/><!--this contains the element that the filter is applied to --></feMerge></filter>
<g id="graph0" class="graph" transform="scale(1 1) rotate(0) translate(4 1016.31)">
<title>G</title>
<g id="clust1" class="cluster"><title>clusterInternationalStringType</title>
<polygon fill="#4abdac" stroke="black" points="273.807,-500.307 273.807,-587.307 734.807,-587.307 734.807,-500.307 273.807,-500.307" style="filter: url(#dropshadow)"/>
<text text-anchor="middle" x="504.307" y="-576.907" font-family="Times New Roman,serif" font-size="8.00">InternationalStringType</text>
</g>
<!-- InternationalStringTypeProperties -->
<g id="ReusableTypeInternationalStringTypeProperties" class="node"><title></title><polygon fill="#f7b733" stroke="black" points="281.807,-517.307 281.807,-553.307 441.807,-553.307 441.807,-517.307 281.807,-517.307" style="filter: url(#dropshadow)"/>
<text text-anchor="middle" x="308.307" y="-533.407" font-family="Times New Roman,serif" font-size="8.00">Properties</text>
<polyline fill="none" stroke="black" points="334.807,-517.307 334.807,-553.307 "/>
<text text-anchor="start" x="342.807" y="-533.407" font-family="Times New Roman,serif" font-size="8.00">String : StringType[0...n] </text>
</g>
<!-- InternationalStringTypeStringType -->
<g id="ReusableTypeInternationalStringTypeStringType" class="node"><title></title><polygon fill="#fc4a1a" stroke="black" points="498.807,-508.807 498.807,-561.807 726.807,-561.807 726.807,-508.807 498.807,-508.807" style="filter: url(#dropshadow)"/>
<text text-anchor="middle" x="526.807" y="-533.407" font-family="Times New Roman,serif" font-size="8.00">StringType</text>
<polyline fill="none" stroke="black" points="554.807,-508.807 554.807,-561.807 "/>
<text text-anchor="start" x="562.807" y="-551.407" font-family="Times New Roman,serif" font-size="8.00">Lang : language[0...1] </text>
<text text-anchor="start" x="562.807" y="-542.407" font-family="Times New Roman,serif" font-size="8.00">IsTranslated : boolean[0...1] </text>
<text text-anchor="start" x="562.807" y="-533.407" font-family="Times New Roman,serif" font-size="8.00">IsTranslatable : boolean[0...1] </text>
<text text-anchor="start" x="562.807" y="-524.407" font-family="Times New Roman,serif" font-size="8.00">TranslationSourceLanguage : language[0...n] </text>
<text text-anchor="start" x="562.807" y="-515.407" font-family="Times New Roman,serif" font-size="8.00">TranslationDate : date[0...1] </text>
</g>
<!-- InternationalStringTypeProperties&#45;&gt;InternationalStringTypeStringType -->
<g id="edge1" class="edge"><title>InternationalStringTypeProperties&#45;&gt;InternationalStringTypeStringType</title>
<path fill="none" stroke="black" d="M441.934,-535.307C460.02,-535.307 479.585,-535.307 498.783,-535.307"/>
<text text-anchor="middle" x="470.307" y="-537.907" font-family="Times New Roman,serif" font-size="8.00">String</text>
</g>
<!-- Group -->
<g id="ItemTypeGroup" class="node"><title></title><ellipse fill="#f7b733" stroke="black" cx="70.9035" cy="-994.307" rx="27" ry="18" style="filter: url(#dropshadow)"/>
<text text-anchor="middle" x="70.9035" y="-992.407" font-family="Times New Roman,serif" font-size="8.00">Group</text>
</g>
<!-- Group&#45;&gt;InternationalStringTypeProperties -->
<g id="edge2" class="edge"><title>Group&#45;&gt;InternationalStringTypeProperties</title>
<path fill="none" stroke="black" d="M97.5892,-997.252C138.566,-1000.41 218.695,-1000.04 263.807,-956.307 316.281,-905.432 345.076,-688.032 355.834,-587.132"/>
<text text-anchor="middle" x="211.807" y="-999.907" font-family="Times New Roman,serif" font-size="8.00">AnalysisUnitsCovered</text>
</g>
<!-- StatisticalClassification -->
<g id="ItemTypeStatisticalClassification" class="node"><title></title><ellipse fill="#f7b733" stroke="black" cx="70.9035" cy="-940.307" rx="55.0423" ry="18" style="filter: url(#dropshadow)"/>
<text text-anchor="middle" x="70.9035" y="-938.407" font-family="Times New Roman,serif" font-size="8.00">StatisticalClassification</text>
</g>
<!-- StatisticalClassification&#45;&gt;InternationalStringTypeProperties -->
<g id="edge3" class="edge"><title>StatisticalClassification&#45;&gt;InternationalStringTypeProperties</title>
<path fill="none" stroke="black" d="M124.648,-944.726C167.497,-945.313 226.713,-938.835 263.807,-904.307 309.949,-861.357 341.098,-678.297 354.042,-587.21"/>
<text text-anchor="middle" x="211.807" y="-945.907" font-family="Times New Roman,serif" font-size="8.00">Copyright</text>
</g>
<!-- StudyUnit -->
<g id="ItemTypeStudyUnit" class="node"><title></title><ellipse fill="#f7b733" stroke="black" cx="70.9035" cy="-886.307" rx="28.8574" ry="18" style="filter: url(#dropshadow)"/>
<text text-anchor="middle" x="70.9035" y="-884.407" font-family="Times New Roman,serif" font-size="8.00">StudyUnit</text>
</g>
<!-- StudyUnit&#45;&gt;InternationalStringTypeProperties -->
<g id="edge4" class="edge"><title>StudyUnit&#45;&gt;InternationalStringTypeProperties</title>
<path fill="none" stroke="black" d="M99.4837,-890.201C140.503,-894.352 217.688,-895.619 263.807,-855.307 341.806,-787.129 358.196,-658.506 360.969,-586.838"/>
<text text-anchor="middle" x="211.807" y="-893.907" font-family="Times New Roman,serif" font-size="8.00">AnalysisUnitsCovered</text>
</g>
<!-- BasedOnObjectType -->
<g id="ReusableTypeBasedOnObjectType" class="node"><title></title><ellipse fill="#f7b733" stroke="black" cx="70.9035" cy="-832.307" rx="49.8323" ry="18" style="filter: url(#dropshadow)"/>
<text text-anchor="middle" x="70.9035" y="-830.407" font-family="Times New Roman,serif" font-size="8.00">BasedOnObjectType</text>
</g>
<!-- BasedOnObjectType&#45;&gt;InternationalStringTypeProperties -->
<g id="edge5" class="edge"><title>BasedOnObjectType&#45;&gt;InternationalStringTypeProperties</title>
<path fill="none" stroke="black" d="M116.524,-839.622C158.984,-843.971 222.372,-843.331 263.807,-810.307 332.003,-755.953 352.342,-650.236 358.351,-586.887"/>
<text text-anchor="middle" x="211.807" y="-844.907" font-family="Times New Roman,serif" font-size="8.00">BasedOnRationaleDescription</text>
</g>
<!-- CitationType -->
<g id="ReusableTypeCitationType" class="node"><title></title><ellipse fill="#f7b733" stroke="black" cx="70.9035" cy="-778.307" rx="36.1063" ry="18" style="filter: url(#dropshadow)"/>
<text text-anchor="middle" x="70.9035" y="-776.407" font-family="Times New Roman,serif" font-size="8.00">CitationType</text>
</g>
<!-- CitationType&#45;&gt;InternationalStringTypeProperties -->
<g id="edge6" class="edge"><title>CitationType&#45;&gt;InternationalStringTypeProperties</title>
<path fill="none" stroke="black" d="M101.846,-787.85C142.351,-798.793 215.125,-811.291 263.807,-778.307 326.749,-735.66 348.851,-644.905 356.611,-587.178"/>
<text text-anchor="middle" x="211.807" y="-802.907" font-family="Times New Roman,serif" font-size="8.00">Title</text>
</g>
<!-- CitationType&#45;&gt;InternationalStringTypeProperties -->
<g id="edge7" class="edge"><title>CitationType&#45;&gt;InternationalStringTypeProperties</title>
<path fill="none" stroke="black" d="M106.398,-774.325C158.234,-768.077 251.496,-755.716 263.807,-746.307 314.613,-707.478 339.697,-635.774 351.431,-586.832"/>
<text text-anchor="middle" x="211.807" y="-769.907" font-family="Times New Roman,serif" font-size="8.00">SubTitle</text>
</g>
<!-- CitationType&#45;&gt;InternationalStringTypeProperties -->
<g id="edge8" class="edge"><title>CitationType&#45;&gt;InternationalStringTypeProperties</title>
<path fill="none" stroke="black" d="M102.025,-768.853C114.693,-764.329 129.351,-758.353 141.807,-751.307 150.628,-746.316 150.635,-741.617 159.807,-737.307 202.65,-717.171 226.005,-742.802 263.807,-714.307 305.622,-682.787 331.526,-627.801 345.929,-587.065"/>
<text text-anchor="middle" x="211.807" y="-739.907" font-family="Times New Roman,serif" font-size="8.00">AlternateTitle</text>
</g>
<!-- CitationType&#45;&gt;InternationalStringTypeProperties -->
<g id="edge9" class="edge"><title>CitationType&#45;&gt;InternationalStringTypeProperties</title>
<path fill="none" stroke="black" d="M104.997,-771.608C117.853,-767.574 131.85,-761.22 141.807,-751.307 157.365,-735.817 143.126,-719.579 159.807,-705.307 195.777,-674.531 224.806,-709.137 263.807,-682.307 297.841,-658.893 322.969,-619.249 339.112,-587.028"/>
<text text-anchor="middle" x="211.807" y="-707.907" font-family="Times New Roman,serif" font-size="8.00">Copyright</text>
</g>
<!-- ClassificationIndexEntryType -->
<g id="ReusableTypeClassificationIndexEntryType" class="node"><title></title><ellipse fill="#f7b733" stroke="black" cx="70.9035" cy="-724.307" rx="69.4043" ry="18" style="filter: url(#dropshadow)"/>
<text text-anchor="middle" x="70.9035" y="-722.407" font-family="Times New Roman,serif" font-size="8.00">ClassificationIndexEntryType</text>
</g>
<!-- ClassificationIndexEntryType&#45;&gt;InternationalStringTypeProperties -->
<g id="edge10" class="edge"><title>ClassificationIndexEntryType&#45;&gt;InternationalStringTypeProperties</title>
<path fill="none" stroke="black" d="M117.486,-710.963C126.029,-707.312 134.546,-702.803 141.807,-697.307 152.438,-689.259 148.6,-680.529 159.807,-673.307 199.599,-647.662 223.299,-674.803 263.807,-650.307 289.593,-634.714 311.838,-609.818 328.496,-587.172"/>
<text text-anchor="middle" x="211.807" y="-675.907" font-family="Times New Roman,serif" font-size="8.00">EntryText</text>
</g>
<!-- CollectionType -->
<g id="ReusableTypeCollectionType" class="node"><title></title><ellipse fill="#f7b733" stroke="black" cx="70.9035" cy="-670.307" rx="40.0477" ry="18" style="filter: url(#dropshadow)"/>
<text text-anchor="middle" x="70.9035" y="-668.407" font-family="Times New Roman,serif" font-size="8.00">CollectionType</text>
</g>
<!-- CollectionType&#45;&gt;InternationalStringTypeProperties -->
<g id="edge11" class="edge"><title>CollectionType&#45;&gt;InternationalStringTypeProperties</title>
<path fill="none" stroke="black" d="M103.633,-659.816C120.343,-654.297 141.18,-647.424 159.807,-641.307 206.009,-626.133 220.611,-629.644 263.807,-607.307 275.014,-601.511 286.31,-594.464 297.034,-587.073"/>
<text text-anchor="middle" x="211.807" y="-643.907" font-family="Times New Roman,serif" font-size="8.00">LocationInArchive</text>
</g>
<!-- CommandFileType -->
<g id="ReusableTypeCommandFileType0" class="node"><title></title><ellipse fill="#f7b733" stroke="black" cx="70.9035" cy="-616.307" rx="47.16" ry="18" style="filter: url(#dropshadow)"/>
<text text-anchor="middle" x="70.9035" y="-614.407" font-family="Times New Roman,serif" font-size="8.00">CommandFileType</text>
</g>
<!-- CommandFileType&#45;&gt;InternationalStringTypeProperties -->
<g id="edge12" class="edge"><title>CommandFileType&#45;&gt;InternationalStringTypeProperties</title>
<path fill="none" stroke="black" d="M111.445,-607.05C150.396,-597.735 211.494,-582.595 263.807,-567.307 267.218,-566.31 270.689,-565.273 274.19,-564.209"/>
<text text-anchor="middle" x="211.807" y="-596.907" font-family="Times New Roman,serif" font-size="8.00">Location</text>
</g>
<!-- DataFileIdentificationType -->
<g id="ReusableTypeDataFileIdentificationType1" class="node"><title></title><ellipse fill="#f7b733" stroke="black" cx="70.9035" cy="-562.307" rx="63.5591" ry="18" style="filter: url(#dropshadow)"/>
<text text-anchor="middle" x="70.9035" y="-560.407" font-family="Times New Roman,serif" font-size="8.00">DataFileIdentificationType</text>
</g>
<!-- DataFileIdentificationType&#45;&gt;InternationalStringTypeProperties -->
<g id="edge13" class="edge"><title>DataFileIdentificationType&#45;&gt;InternationalStringTypeProperties</title>
<path fill="none" stroke="black" d="M131.414,-556.745C172.566,-552.899 227.982,-547.72 274.038,-543.416"/>
<text text-anchor="middle" x="211.807" y="-556.907" font-family="Times New Roman,serif" font-size="8.00">Location</text>
</g>
<!-- FormType -->
<g id="ReusableTypeFormType2" class="node"><title></title><ellipse fill="#f7b733" stroke="black" cx="70.9035" cy="-508.307" rx="30.7612" ry="18" style="filter: url(#dropshadow)"/>
<text text-anchor="middle" x="70.9035" y="-506.407" font-family="Times New Roman,serif" font-size="8.00">FormType</text>
</g>
<!-- FormType&#45;&gt;InternationalStringTypeProperties -->
<g id="edge14" class="edge"><title>FormType&#45;&gt;InternationalStringTypeProperties</title>
<path fill="none" stroke="black" d="M101.195,-511.044C141.352,-514.797 215.203,-521.699 273.9,-527.185"/>
<text text-anchor="middle" x="211.807" y="-528.907" font-family="Times New Roman,serif" font-size="8.00">Statement</text>
</g>
<!-- GeographicLevelType -->
<g id="ReusableTypeGeographicLevelType3" class="node"><title></title><ellipse fill="#f7b733" stroke="black" cx="70.9035" cy="-454.307" rx="53.1395" ry="18" style="filter: url(#dropshadow)"/>
<text text-anchor="middle" x="70.9035" y="-452.407" font-family="Times New Roman,serif" font-size="8.00">GeographicLevelType</text>
</g>
<!-- GeographicLevelType&#45;&gt;InternationalStringTypeProperties -->
<g id="edge15" class="edge"><title>GeographicLevelType&#45;&gt;InternationalStringTypeProperties</title>
<path fill="none" stroke="black" d="M114.769,-464.765C153.781,-474.451 212.882,-489.547 263.807,-504.307 267.246,-505.303 270.747,-506.336 274.28,-507.393"/>
<text text-anchor="middle" x="211.807" y="-506.907" font-family="Times New Roman,serif" font-size="8.00">CoverageLimitation</text>
</g>
<!-- IndividualNameType -->
<g id="ReusableTypeIndividualNameType4" class="node"><title></title><ellipse fill="#f7b733" stroke="black" cx="70.9035" cy="-400.307" rx="50.4666" ry="18" style="filter: url(#dropshadow)"/>
<text text-anchor="middle" x="70.9035" y="-398.407" font-family="Times New Roman,serif" font-size="8.00">IndividualNameType</text>
</g>
<!-- IndividualNameType&#45;&gt;InternationalStringTypeProperties -->
<g id="edge16" class="edge"><title>IndividualNameType&#45;&gt;InternationalStringTypeProperties</title>
<path fill="none" stroke="black" d="M113.02,-410.397C152.883,-421.054 214.404,-439.847 263.807,-465.307 282.66,-475.022 301.907,-488.126 318.235,-500.369"/>
<text text-anchor="middle" x="211.807" y="-467.907" font-family="Times New Roman,serif" font-size="8.00">FullName</text>
</g>
<!-- IndividualNameType&#45;&gt;InternationalStringTypeProperties -->
<g id="edge17" class="edge"><title>IndividualNameType&#45;&gt;InternationalStringTypeProperties</title>
<path fill="none" stroke="black" d="M117.337,-393.138C158.077,-388.947 218.274,-388.443 263.807,-412.307 300.511,-431.543 327.886,-471.456 344.035,-500.617"/>
<text text-anchor="middle" x="211.807" y="-414.907" font-family="Times New Roman,serif" font-size="8.00">Abbreviation</text>
</g>
<!-- ItemType -->
<g id="ReusableTypeItemType5" class="node"><title></title><ellipse fill="#f7b733" stroke="black" cx="70.9035" cy="-346.307" rx="29.4917" ry="18" style="filter: url(#dropshadow)"/>
<text text-anchor="middle" x="70.9035" y="-344.407" font-family="Times New Roman,serif" font-size="8.00">ItemType</text>
</g>
<!-- ItemType&#45;&gt;InternationalStringTypeProperties -->
<g id="edge18" class="edge"><title>ItemType&#45;&gt;InternationalStringTypeProperties</title>
<path fill="none" stroke="black" d="M100.255,-344.089C140.201,-342.4 213.752,-344.698 263.807,-378.307 307.497,-407.642 335.054,-463.964 349.195,-500.567"/>
<text text-anchor="middle" x="211.807" y="-380.907" font-family="Times New Roman,serif" font-size="8.00">LocationInArchive</text>
</g>
<!-- NoteType -->
<g id="ReusableTypeNoteType6" class="node"><title></title><ellipse fill="#f7b733" stroke="black" cx="70.9035" cy="-292.307" rx="30.1263" ry="18" style="filter: url(#dropshadow)"/>
<text text-anchor="middle" x="70.9035" y="-290.407" font-family="Times New Roman,serif" font-size="8.00">NoteType</text>
</g>
<!-- NoteType&#45;&gt;InternationalStringTypeProperties -->
<g id="edge19" class="edge"><title>NoteType&#45;&gt;InternationalStringTypeProperties</title>
<path fill="none" stroke="black" d="M101.222,-290.96C141.991,-290.63 216.154,-295.801 263.807,-333.307 317.41,-375.495 343.09,-454.655 353.951,-500.349"/>
<text text-anchor="middle" x="211.807" y="-335.907" font-family="Times New Roman,serif" font-size="8.00">Header</text>
</g>
<!-- OrganizationNameType -->
<g id="ReusableTypeOrganizationNameType7" class="node"><title></title><ellipse fill="#f7b733" stroke="black" cx="70.9035" cy="-238.307" rx="57.0809" ry="18" style="filter: url(#dropshadow)"/>
<text text-anchor="middle" x="70.9035" y="-236.407" font-family="Times New Roman,serif" font-size="8.00">OrganizationNameType</text>
</g>
<!-- OrganizationNameType&#45;&gt;InternationalStringTypeProperties -->
<g id="edge20" class="edge"><title>OrganizationNameType&#45;&gt;InternationalStringTypeProperties</title>
<path fill="none" stroke="black" d="M128.181,-237.647C170.178,-240.079 226.513,-249.923 263.807,-282.307 329.386,-339.25 350.827,-445.653 357.684,-500.556"/>
<text text-anchor="middle" x="211.807" y="-284.907" font-family="Times New Roman,serif" font-size="8.00">Abbreviation</text>
</g>
<!-- PrimaryComponentLevelType -->
<g id="ReusableTypePrimaryComponentLevelType8" class="node"><title></title><ellipse fill="#f7b733" stroke="black" cx="70.9035" cy="-184.307" rx="70.8072" ry="18" style="filter: url(#dropshadow)"/>
<text text-anchor="middle" x="70.9035" y="-182.407" font-family="Times New Roman,serif" font-size="8.00">PrimaryComponentLevelType</text>
</g>
<!-- PrimaryComponentLevelType&#45;&gt;InternationalStringTypeProperties -->
<g id="edge21" class="edge"><title>PrimaryComponentLevelType&#45;&gt;InternationalStringTypeProperties</title>
<path fill="none" stroke="black" d="M141.87,-183.895C182.169,-187.303 231.145,-198.178 263.807,-228.307 342.522,-300.916 357.746,-436.792 360.424,-500.571"/>
<text text-anchor="middle" x="211.807" y="-230.907" font-family="Times New Roman,serif" font-size="8.00">CoverageLimitation</text>
</g>
<!-- UsedType -->
<g id="ReusableTypeUsedType9" class="node"><title></title><ellipse fill="#f7b733" stroke="black" cx="70.9035" cy="-130.307" rx="29.4917" ry="18" style="filter: url(#dropshadow)"/>
<text text-anchor="middle" x="70.9035" y="-128.407" font-family="Times New Roman,serif" font-size="8.00">UsedType</text>
</g>
<!-- UsedType&#45;&gt;InternationalStringTypeProperties -->
<g id="edge22" class="edge"><title>UsedType&#45;&gt;InternationalStringTypeProperties</title>
<path fill="none" stroke="black" d="M100.54,-128.36C142.199,-127.182 219.379,-131.497 263.807,-174.307 311.164,-219.938 344.334,-419.581 356.098,-500.778"/>
<text text-anchor="middle" x="211.807" y="-176.907" font-family="Times New Roman,serif" font-size="8.00">AlternateName</text>
</g>
<!-- VersionRationaleType -->
<g id="ReusableTypeVersionRationaleType0" class="node"><title></title><ellipse fill="#f7b733" stroke="black" cx="70.9035" cy="-76.3066" rx="53.7736" ry="18" style="filter: url(#dropshadow)"/>
<text text-anchor="middle" x="70.9035" y="-74.4066" font-family="Times New Roman,serif" font-size="8.00">VersionRationaleType</text>
</g>
<!-- VersionRationaleType&#45;&gt;InternationalStringTypeProperties -->
<g id="edge23" class="edge"><title>VersionRationaleType&#45;&gt;InternationalStringTypeProperties</title>
<path fill="none" stroke="black" d="M124.655,-73.7726C167.803,-74.6842 227.437,-83.2498 263.807,-119.307 318.128,-173.16 347.889,-410.345 357.399,-500.431"/>
<text text-anchor="middle" x="211.807" y="-121.907" font-family="Times New Roman,serif" font-size="8.00">RationaleDescription</text>
</g>
<!-- VocabularyType -->
<g id="ReusableTypeVocabularyType1" class="node"><title></title><ellipse fill="#f7b733" stroke="black" cx="70.9035" cy="-22.3066" rx="41.9498" ry="18" style="filter: url(#dropshadow)"/>
<text text-anchor="middle" x="70.9035" y="-20.4066" font-family="Times New Roman,serif" font-size="8.00">VocabularyType</text>
</g>
<!-- VocabularyType&#45;&gt;InternationalStringTypeProperties -->
<g id="edge24" class="edge"><title>VocabularyType&#45;&gt;InternationalStringTypeProperties</title>
<path fill="none" stroke="black" d="M110.633,-28.4729C163.532,-37.2405 253.082,-53.4482 263.807,-64.3066 325.261,-126.525 351.094,-402.339 358.451,-500.488"/>
<text text-anchor="middle" x="211.807" y="-66.9066" font-family="Times New Roman,serif" font-size="8.00">VocabularyTitle</text>
</g>
<!-- VocabularyType&#45;&gt;InternationalStringTypeProperties -->
<g id="edge25" class="edge"><title>VocabularyType&#45;&gt;InternationalStringTypeProperties</title>
<path fill="none" stroke="black" d="M104.7,-11.5468C146.726,-0.0147304 219.435,12.01 263.807,-25.3066 336.931,-86.8032 355.466,-396.256 359.677,-500.767"/>
<text text-anchor="middle" x="211.807" y="-27.9066" font-family="Times New Roman,serif" font-size="8.00">Abbreviation</text>
</g>
</g>
</svg>
