<?xml version="1.0" encoding="UTF-8" standalone="no"?>
<!DOCTYPE svg PUBLIC "-//W3C//DTD SVG 1.1//EN"
 "http://www.w3.org/Graphics/SVG/1.1/DTD/svg11.dtd">
<!-- Generated by graphviz version 2.38.0 (20140413.2041)
 -->
<!-- Title: G Pages: 1 -->
<svg width="1320pt" height="591pt"
 viewBox="0.00 0.00 1320.10 591.00" xmlns="http://www.w3.org/2000/svg" xmlns:xlink="http://www.w3.org/1999/xlink">
<filter id = "dropshadow" height = "130%" ><feGaussianBlur in= "SourceAlpha" stdDeviation = "3"/><!--stdDeviation is how much to blur--><feOffset dx = "2" dy = "2" result = "offsetblur"/><!--how much to offset--><feMerge><feMergeNode/><!--this contains the offset blurred image--><feMergeNode in= "SourceGraphic"/><!--this contains the element that the filter is applied to --></feMerge></filter>
<g id="graph0" class="graph" transform="scale(1 1) rotate(0) translate(4 587)">
<title>G</title>
<g id="clust1" class="cluster"><title>clusterItemType</title>
<polygon fill="#4abdac" stroke="black" points="147.101,-46 147.101,-575 1304.1,-575 1304.1,-46 147.101,-46" style="filter: url(#dropshadow)"/>
<text text-anchor="middle" x="725.601" y="-564.6" font-family="Times New Roman,serif" font-size="8.00">ItemType</text>
</g>
<!-- ItemTypeProperties -->
<g id="ReusableTypeItemTypeProperties" class="node"><title></title><polygon fill="#f7b733" stroke="black" points="155.101,-180.5 155.101,-305.5 435.101,-305.5 435.101,-180.5 155.101,-180.5" style="filter: url(#dropshadow)"/>
<text text-anchor="middle" x="181.601" y="-241.1" font-family="Times New Roman,serif" font-size="8.00">Properties</text>
<polyline fill="none" stroke="black" points="208.101,-180.5 208.101,-305.5 "/>
<text text-anchor="start" x="216.101" y="-295.1" font-family="Times New Roman,serif" font-size="8.00">Citation : CitationType[0...1] </text>
<text text-anchor="start" x="216.101" y="-286.1" font-family="Times New Roman,serif" font-size="8.00">LocationInArchive : InternationalStringType[0...n] </text>
<text text-anchor="start" x="216.101" y="-277.1" font-family="Times New Roman,serif" font-size="8.00">CallNumber : string[0...1] </text>
<text text-anchor="start" x="216.101" y="-268.1" font-family="Times New Roman,serif" font-size="8.00">URI : anyURI[0...1] </text>
<text text-anchor="start" x="216.101" y="-259.1" font-family="Times New Roman,serif" font-size="8.00">ItemFormat : CodeValueType[0...1] </text>
<text text-anchor="start" x="216.101" y="-250.1" font-family="Times New Roman,serif" font-size="8.00">Media : CodeValueType[0...1] </text>
<text text-anchor="start" x="216.101" y="-241.1" font-family="Times New Roman,serif" font-size="8.00">StudyClass : StudyClassType[0...1] </text>
<text text-anchor="start" x="216.101" y="-232.1" font-family="Times New Roman,serif" font-size="8.00">Access : AccessType[0...1] </text>
<text text-anchor="start" x="216.101" y="-223.1" font-family="Times New Roman,serif" font-size="8.00">OriginalArchiveOrganizationReference : Organization[0...n] </text>
<text text-anchor="start" x="216.101" y="-214.1" font-family="Times New Roman,serif" font-size="8.00">AvailabilityStatus : StructuredStringType[0...1] </text>
<text text-anchor="start" x="216.101" y="-205.1" font-family="Times New Roman,serif" font-size="8.00">DataFileQuantity : nonNegativeInteger[0...1] </text>
<text text-anchor="start" x="216.101" y="-196.1" font-family="Times New Roman,serif" font-size="8.00">CollectionCompleteness : StructuredStringType[0...1] </text>
<text text-anchor="start" x="216.101" y="-187.1" font-family="Times New Roman,serif" font-size="8.00">Item : ItemType[0...n] </text>
</g>
<!-- ItemTypeProperties&#45;&gt;ItemTypeProperties -->
<g id="edge26" class="edge"><title>ItemTypeProperties&#45;&gt;ItemTypeProperties</title>
<path fill="none" stroke="black" d="M266.045,-305.83C270.015,-316.564 279.701,-324 295.101,-324 310.501,-324 320.187,-316.564 324.157,-305.83"/>
<text text-anchor="middle" x="295.101" y="-326.6" font-family="Times New Roman,serif" font-size="8.00">Item</text>
<text text-anchor="middle" x="316.157" y="-308.43" font-family="Times New Roman,serif" font-size="8.00">0...*</text>
<text text-anchor="middle" x="258.045" y="-308.43" font-family="Times New Roman,serif" font-size="8.00">0...*</text>
</g>
<!-- ItemTypeCitationType -->
<g id="ReusableTypeItemTypeCitationType" class="node"><title></title><polygon fill="#fc4a1a" stroke="black" points="607.101,-99.5 607.101,-206.5 893.101,-206.5 893.101,-99.5 607.101,-99.5" style="filter: url(#dropshadow)"/>
<text text-anchor="middle" x="639.101" y="-151.1" font-family="Times New Roman,serif" font-size="8.00">CitationType</text>
<polyline fill="none" stroke="black" points="671.101,-99.5 671.101,-206.5 "/>
<text text-anchor="start" x="679.101" y="-196.1" font-family="Times New Roman,serif" font-size="8.00">Title : InternationalStringType[0...1] </text>
<text text-anchor="start" x="679.101" y="-187.1" font-family="Times New Roman,serif" font-size="8.00">SubTitle : InternationalStringType[0...n] </text>
<text text-anchor="start" x="679.101" y="-178.1" font-family="Times New Roman,serif" font-size="8.00">AlternateTitle : InternationalStringType[0...n] </text>
<text text-anchor="start" x="679.101" y="-169.1" font-family="Times New Roman,serif" font-size="8.00">Creator : CreatorType[0...n] </text>
<text text-anchor="start" x="679.101" y="-160.1" font-family="Times New Roman,serif" font-size="8.00">Publisher : PublisherType[0...n] </text>
<text text-anchor="start" x="679.101" y="-151.1" font-family="Times New Roman,serif" font-size="8.00">Contributor : ContributorType[0...n] </text>
<text text-anchor="start" x="679.101" y="-142.1" font-family="Times New Roman,serif" font-size="8.00">PublicationDate : DateType[0...1] </text>
<text text-anchor="start" x="679.101" y="-133.1" font-family="Times New Roman,serif" font-size="8.00">Language : CodeValueType[0...n] </text>
<text text-anchor="start" x="679.101" y="-124.1" font-family="Times New Roman,serif" font-size="8.00">InternationalIdentifier : InternationalIdentifierType[0...n] </text>
<text text-anchor="start" x="679.101" y="-115.1" font-family="Times New Roman,serif" font-size="8.00">Copyright : InternationalStringType[0...n] </text>
<text text-anchor="start" x="679.101" y="-106.1" font-family="Times New Roman,serif" font-size="8.00">DcTerms : DcTerms[0...n] </text>
</g>
<!-- ItemTypeProperties&#45;&gt;ItemTypeCitationType -->
<g id="edge1" class="edge"><title>ItemTypeProperties&#45;&gt;ItemTypeCitationType</title>
<path fill="none" stroke="black" d="M435.403,-215.324C489.878,-204.501 552.295,-192.101 607.033,-181.225"/>
<text text-anchor="middle" x="521.101" y="-214.6" font-family="Times New Roman,serif" font-size="8.00">Citation</text>
</g>
<!-- ItemTypeInternationalStringType -->
<g id="ReusableTypeItemTypeInternationalStringType" class="node"><title></title><polygon fill="#fc4a1a" stroke="black" points="1062.6,-93 1062.6,-129 1270.6,-129 1270.6,-93 1062.6,-93" style="filter: url(#dropshadow)"/>
<text text-anchor="middle" x="1113.1" y="-109.1" font-family="Times New Roman,serif" font-size="8.00">InternationalStringType</text>
<polyline fill="none" stroke="black" points="1163.6,-93 1163.6,-129 "/>
<text text-anchor="start" x="1171.6" y="-109.1" font-family="Times New Roman,serif" font-size="8.00">String : StringType[0...n] </text>
</g>
<!-- ItemTypeProperties&#45;&gt;ItemTypeInternationalStringType -->
<g id="edge2" class="edge"><title>ItemTypeProperties&#45;&gt;ItemTypeInternationalStringType</title>
<path fill="none" stroke="black" d="M389.289,-180.444C448.843,-144.11 529.257,-101.558 607.101,-81 784.205,-34.228 837.627,-45.0847 1019.1,-70 1051.42,-74.4366 1086.65,-84.1346 1114.46,-92.9849"/>
<text text-anchor="middle" x="750.101" y="-83.6" font-family="Times New Roman,serif" font-size="8.00">LocationInArchive</text>
</g>
<!-- ItemTypeCodeValueType -->
<g id="ReusableTypeItemTypeCodeValueType" class="node"><title></title><polygon fill="#fc4a1a" stroke="black" points="1037.1,-198.5 1037.1,-269.5 1296.1,-269.5 1296.1,-198.5 1037.1,-198.5" style="filter: url(#dropshadow)"/>
<text text-anchor="middle" x="1072.6" y="-232.1" font-family="Times New Roman,serif" font-size="8.00">CodeValueType</text>
<polyline fill="none" stroke="black" points="1108.1,-198.5 1108.1,-269.5 "/>
<text text-anchor="start" x="1116.1" y="-259.1" font-family="Times New Roman,serif" font-size="8.00">ControlledVocabularyID : string[0...1] </text>
<text text-anchor="start" x="1116.1" y="-250.1" font-family="Times New Roman,serif" font-size="8.00">ControlledVocabularyName : string[0...1] </text>
<text text-anchor="start" x="1116.1" y="-241.1" font-family="Times New Roman,serif" font-size="8.00">ControlledVocabularyAgencyName : string[0...1] </text>
<text text-anchor="start" x="1116.1" y="-232.1" font-family="Times New Roman,serif" font-size="8.00">ControlledVocabularyVersionID : string[0...1] </text>
<text text-anchor="start" x="1116.1" y="-223.1" font-family="Times New Roman,serif" font-size="8.00">OtherValue : string[0...1] </text>
<text text-anchor="start" x="1116.1" y="-214.1" font-family="Times New Roman,serif" font-size="8.00">ControlledVocabularyURN : string[0...1] </text>
<text text-anchor="start" x="1116.1" y="-205.1" font-family="Times New Roman,serif" font-size="8.00">ControlledVocabularySchemeURN : string[0...1] </text>
</g>
<!-- ItemTypeProperties&#45;&gt;ItemTypeCodeValueType -->
<g id="edge3" class="edge"><title>ItemTypeProperties&#45;&gt;ItemTypeCodeValueType</title>
<path fill="none" stroke="black" d="M435.379,-236.708C580.97,-230.928 816.07,-223.844 1019.1,-228 1024.95,-228.12 1030.94,-228.267 1036.98,-228.434"/>
<text text-anchor="middle" x="750.101" y="-233.6" font-family="Times New Roman,serif" font-size="8.00">ItemFormat</text>
</g>
<!-- ItemTypeStudyClassType -->
<g id="ReusableTypeItemTypeStudyClassType" class="node"><title></title><polygon fill="#fc4a1a" stroke="black" points="634.101,-271 634.101,-307 866.101,-307 866.101,-271 634.101,-271" style="filter: url(#dropshadow)"/>
<text text-anchor="middle" x="669.601" y="-287.1" font-family="Times New Roman,serif" font-size="8.00">StudyClassType</text>
<polyline fill="none" stroke="black" points="705.101,-271 705.101,-307 "/>
<text text-anchor="start" x="713.101" y="-291.6" font-family="Times New Roman,serif" font-size="8.00">Description : StructuredStringType[0...1] </text>
<text text-anchor="start" x="713.101" y="-282.6" font-family="Times New Roman,serif" font-size="8.00">ClassType : CodeValueType[0...1] </text>
</g>
<!-- ItemTypeProperties&#45;&gt;ItemTypeStudyClassType -->
<g id="edge4" class="edge"><title>ItemTypeProperties&#45;&gt;ItemTypeStudyClassType</title>
<path fill="none" stroke="black" d="M435.403,-257.145C498.979,-263.601 573.372,-271.156 633.752,-277.287"/>
<text text-anchor="middle" x="521.101" y="-274.6" font-family="Times New Roman,serif" font-size="8.00">StudyClass</text>
</g>
<!-- ItemTypeAccessType -->
<g id="ReusableTypeItemTypeAccessType" class="node"><title></title><polygon fill="#fc4a1a" stroke="black" points="609.601,-335.5 609.601,-460.5 890.601,-460.5 890.601,-335.5 609.601,-335.5" style="filter: url(#dropshadow)"/>
<text text-anchor="middle" x="639.101" y="-396.1" font-family="Times New Roman,serif" font-size="8.00">AccessType</text>
<polyline fill="none" stroke="black" points="668.601,-335.5 668.601,-460.5 "/>
<text text-anchor="start" x="676.601" y="-450.1" font-family="Times New Roman,serif" font-size="8.00">TypeOfAccess : CodeValueType[0...1] </text>
<text text-anchor="start" x="676.601" y="-441.1" font-family="Times New Roman,serif" font-size="8.00">AccessTypeName : NameType[0...n] </text>
<text text-anchor="start" x="676.601" y="-432.1" font-family="Times New Roman,serif" font-size="8.00">Label : LabelType[0...n] </text>
<text text-anchor="start" x="676.601" y="-423.1" font-family="Times New Roman,serif" font-size="8.00">Description : StructuredStringType[0...1] </text>
<text text-anchor="start" x="676.601" y="-414.1" font-family="Times New Roman,serif" font-size="8.00">ConfidentialityStatement : StructuredStringType[0...1] </text>
<text text-anchor="start" x="676.601" y="-405.1" font-family="Times New Roman,serif" font-size="8.00">AccessPermission : FormType[0...n] </text>
<text text-anchor="start" x="676.601" y="-396.1" font-family="Times New Roman,serif" font-size="8.00">Restrictions : StructuredStringType[0...1] </text>
<text text-anchor="start" x="676.601" y="-387.1" font-family="Times New Roman,serif" font-size="8.00">CitationRequirement : StructuredStringType[0...1] </text>
<text text-anchor="start" x="676.601" y="-378.1" font-family="Times New Roman,serif" font-size="8.00">DepositRequirement : StructuredStringType[0...1] </text>
<text text-anchor="start" x="676.601" y="-369.1" font-family="Times New Roman,serif" font-size="8.00">AccessConditions : StructuredStringType[0...1] </text>
<text text-anchor="start" x="676.601" y="-360.1" font-family="Times New Roman,serif" font-size="8.00">Disclaimer : StructuredStringType[0...1] </text>
<text text-anchor="start" x="676.601" y="-351.1" font-family="Times New Roman,serif" font-size="8.00">AccessRestrictionDate : AccessRestrictionDateType[0...1] </text>
<text text-anchor="start" x="676.601" y="-342.1" font-family="Times New Roman,serif" font-size="8.00">ContactOrganizationReference : Agent[0...n] </text>
</g>
<!-- ItemTypeProperties&#45;&gt;ItemTypeAccessType -->
<g id="edge5" class="edge"><title>ItemTypeProperties&#45;&gt;ItemTypeAccessType</title>
<path fill="none" stroke="black" d="M435.403,-290.664C490.658,-309.57 554.084,-331.272 609.38,-350.193"/>
<text text-anchor="middle" x="521.101" y="-341.6" font-family="Times New Roman,serif" font-size="8.00">Access</text>
</g>
<!-- Organization -->
<g id="ItemTypeOrganization" class="node"><title></title><ellipse fill="#f7b733" stroke="black" cx="750.101" cy="-18" rx="35.3371" ry="18" style="filter: url(#dropshadow)"/>
<text text-anchor="middle" x="750.101" y="-16.1" font-family="Times New Roman,serif" font-size="8.00">Organization</text>
</g>
<!-- ItemTypeProperties&#45;&gt;Organization -->
<g id="edge6" class="edge"><title>ItemTypeProperties&#45;&gt;Organization</title>
<path fill="none" stroke="black" d="M332.023,-180.458C359.562,-138.609 401.55,-86.2094 453.101,-58 538.396,-11.3254 657.534,-11.5641 715.184,-15.0337"/>
<text text-anchor="middle" x="521.101" y="-60.6" font-family="Times New Roman,serif" font-size="8.00">OriginalArchiveOrganizationReference</text>
<text text-anchor="middle" x="707.184" y="-8.63368" font-family="Times New Roman,serif" font-size="8.00">0...*</text>
<text text-anchor="middle" x="324.023" y="-174.058" font-family="Times New Roman,serif" font-size="8.00">0...*</text>
</g>
<!-- ItemTypeStructuredStringType -->
<g id="ReusableTypeItemTypeStructuredStringType" class="node"><title></title><polygon fill="#fc4a1a" stroke="black" points="1060.1,-420 1060.1,-456 1273.1,-456 1273.1,-420 1060.1,-420" style="filter: url(#dropshadow)"/>
<text text-anchor="middle" x="1105.1" y="-436.1" font-family="Times New Roman,serif" font-size="8.00">StructuredStringType</text>
<polyline fill="none" stroke="black" points="1150.1,-420 1150.1,-456 "/>
<text text-anchor="start" x="1158.1" y="-436.1" font-family="Times New Roman,serif" font-size="8.00">Content : ContentType[0...n] </text>
</g>
<!-- ItemTypeProperties&#45;&gt;ItemTypeStructuredStringType -->
<g id="edge7" class="edge"><title>ItemTypeProperties&#45;&gt;ItemTypeStructuredStringType</title>
<path fill="none" stroke="black" d="M360.363,-305.591C419.361,-358.96 511.843,-432.771 607.101,-470 778.264,-536.895 839.541,-544.112 1019.1,-505 1062,-495.655 1107.38,-472.572 1136.07,-456.117"/>
<text text-anchor="middle" x="750.101" y="-530.6" font-family="Times New Roman,serif" font-size="8.00">AvailabilityStatus</text>
<text text-anchor="middle" x="1144.07" y="-458.717" font-family="Times New Roman,serif" font-size="8.00">0...*</text>
<text text-anchor="middle" x="352.363" y="-308.191" font-family="Times New Roman,serif" font-size="8.00">0...*</text>
</g>
<!-- ItemTypeCitationType&#45;&gt;ItemTypeInternationalStringType -->
<g id="edge8" class="edge"><title>ItemTypeCitationType&#45;&gt;ItemTypeInternationalStringType</title>
<path fill="none" stroke="black" d="M859.945,-99.3188C880.81,-89.9972 899.689,-82.4804 911.101,-80 977.649,-65.536 1055.56,-79.434 1107.48,-92.959"/>
<text text-anchor="middle" x="965.101" y="-82.6" font-family="Times New Roman,serif" font-size="8.00">Title</text>
<text text-anchor="middle" x="1099.48" y="-86.559" font-family="Times New Roman,serif" font-size="8.00">0...*</text>
<text text-anchor="middle" x="851.945" y="-92.9188" font-family="Times New Roman,serif" font-size="8.00">0...*</text>
</g>
<!-- ItemTypeCitationType&#45;&gt;ItemTypeInternationalStringType -->
<g id="edge9" class="edge"><title>ItemTypeCitationType&#45;&gt;ItemTypeInternationalStringType</title>
<path fill="none" stroke="black" d="M893.384,-114.643C899.347,-113.637 905.27,-112.747 911.101,-112 960.625,-105.657 1016.02,-104.719 1062.44,-105.65"/>
<text text-anchor="middle" x="965.101" y="-114.6" font-family="Times New Roman,serif" font-size="8.00">SubTitle</text>
<text text-anchor="middle" x="1054.44" y="-99.2497" font-family="Times New Roman,serif" font-size="8.00">0...*</text>
<text text-anchor="middle" x="901.384" y="-108.243" font-family="Times New Roman,serif" font-size="8.00">0...*</text>
</g>
<!-- ItemTypeCitationType&#45;&gt;ItemTypeInternationalStringType -->
<g id="edge10" class="edge"><title>ItemTypeCitationType&#45;&gt;ItemTypeInternationalStringType</title>
<path fill="none" stroke="black" d="M893.169,-138.605C948.711,-132.977 1011.21,-126.644 1062.32,-121.465"/>
<text text-anchor="middle" x="965.101" y="-138.6" font-family="Times New Roman,serif" font-size="8.00">AlternateTitle</text>
<text text-anchor="middle" x="1054.32" y="-115.065" font-family="Times New Roman,serif" font-size="8.00">0...*</text>
<text text-anchor="middle" x="901.169" y="-132.205" font-family="Times New Roman,serif" font-size="8.00">0...*</text>
</g>
<!-- ItemTypeCitationType&#45;&gt;ItemTypeInternationalStringType -->
<g id="edge12" class="edge"><title>ItemTypeCitationType&#45;&gt;ItemTypeInternationalStringType</title>
<path fill="none" stroke="black" d="M893.44,-157.18C934.172,-156.672 978.521,-154.485 1019.1,-149 1049.31,-144.917 1082.22,-136.732 1109.18,-129.001"/>
<text text-anchor="middle" x="965.101" y="-159.6" font-family="Times New Roman,serif" font-size="8.00">Copyright</text>
<text text-anchor="middle" x="1101.18" y="-131.601" font-family="Times New Roman,serif" font-size="8.00">0...*</text>
<text text-anchor="middle" x="901.44" y="-150.78" font-family="Times New Roman,serif" font-size="8.00">0...*</text>
</g>
<!-- ItemTypeCitationType&#45;&gt;ItemTypeCodeValueType -->
<g id="edge11" class="edge"><title>ItemTypeCitationType&#45;&gt;ItemTypeCodeValueType</title>
<path fill="none" stroke="black" d="M893.169,-180.762C939.805,-189.876 991.344,-199.947 1036.93,-208.856"/>
<text text-anchor="middle" x="965.101" y="-206.6" font-family="Times New Roman,serif" font-size="8.00">Language</text>
<text text-anchor="middle" x="1028.93" y="-202.456" font-family="Times New Roman,serif" font-size="8.00">0...*</text>
<text text-anchor="middle" x="901.169" y="-174.362" font-family="Times New Roman,serif" font-size="8.00">0...*</text>
</g>
<!-- ItemTypeStudyClassType&#45;&gt;ItemTypeCodeValueType -->
<g id="edge14" class="edge"><title>ItemTypeStudyClassType&#45;&gt;ItemTypeCodeValueType</title>
<path fill="none" stroke="black" d="M843.306,-270.906C860.078,-266.677 877.268,-261.708 893.101,-256 901.515,-252.967 902.451,-249.276 911.101,-247 951.212,-236.444 996.076,-231.876 1036.83,-230.326"/>
<text text-anchor="middle" x="965.101" y="-249.6" font-family="Times New Roman,serif" font-size="8.00">ClassType</text>
<text text-anchor="middle" x="1028.83" y="-223.926" font-family="Times New Roman,serif" font-size="8.00">0...*</text>
<text text-anchor="middle" x="835.306" y="-264.506" font-family="Times New Roman,serif" font-size="8.00">0...*</text>
</g>
<!-- ItemTypeStudyClassType&#45;&gt;ItemTypeStructuredStringType -->
<g id="edge13" class="edge"><title>ItemTypeStudyClassType&#45;&gt;ItemTypeStructuredStringType</title>
<path fill="none" stroke="black" d="M866.401,-290.125C915.069,-293.991 971.392,-303.062 1019.1,-323 1073.1,-345.567 1123.98,-393.711 1149.15,-419.983"/>
<text text-anchor="middle" x="965.101" y="-325.6" font-family="Times New Roman,serif" font-size="8.00">Description</text>
<text text-anchor="middle" x="1157.15" y="-413.583" font-family="Times New Roman,serif" font-size="8.00">0...*</text>
<text text-anchor="middle" x="874.401" y="-283.725" font-family="Times New Roman,serif" font-size="8.00">0...*</text>
</g>
<!-- ItemTypeAccessType&#45;&gt;ItemTypeCodeValueType -->
<g id="edge15" class="edge"><title>ItemTypeAccessType&#45;&gt;ItemTypeCodeValueType</title>
<path fill="none" stroke="black" d="M871.347,-335.312C879.091,-329.268 886.44,-322.825 893.101,-316 904.77,-304.044 897.61,-292.854 911.101,-283 922.093,-274.972 979.55,-263.586 1037.09,-253.81"/>
<text text-anchor="middle" x="965.101" y="-285.6" font-family="Times New Roman,serif" font-size="8.00">TypeOfAccess</text>
<text text-anchor="middle" x="1029.09" y="-247.41" font-family="Times New Roman,serif" font-size="8.00">0...*</text>
<text text-anchor="middle" x="863.347" y="-328.912" font-family="Times New Roman,serif" font-size="8.00">0...*</text>
</g>
<!-- ItemTypeAccessType&#45;&gt;ItemTypeStructuredStringType -->
<g id="edge16" class="edge"><title>ItemTypeAccessType&#45;&gt;ItemTypeStructuredStringType</title>
<path fill="none" stroke="black" d="M891.014,-444.352C897.765,-445.758 904.484,-446.99 911.101,-448 959.621,-455.405 1013.91,-454.508 1059.85,-451.117"/>
<text text-anchor="middle" x="965.101" y="-456.6" font-family="Times New Roman,serif" font-size="8.00">Description</text>
<text text-anchor="middle" x="1051.85" y="-444.717" font-family="Times New Roman,serif" font-size="8.00">0...*</text>
<text text-anchor="middle" x="899.014" y="-437.952" font-family="Times New Roman,serif" font-size="8.00">0...*</text>
</g>
<!-- ItemTypeAccessType&#45;&gt;ItemTypeStructuredStringType -->
<g id="edge17" class="edge"><title>ItemTypeAccessType&#45;&gt;ItemTypeStructuredStringType</title>
<path fill="none" stroke="black" d="M886.038,-460.629C894.411,-463.124 902.806,-465.288 911.101,-467 975.884,-480.374 1051.31,-468.414 1103.13,-456.047"/>
<text text-anchor="middle" x="965.101" y="-475.6" font-family="Times New Roman,serif" font-size="8.00">ConfidentialityStatement</text>
<text text-anchor="middle" x="1095.13" y="-458.647" font-family="Times New Roman,serif" font-size="8.00">0...*</text>
<text text-anchor="middle" x="878.038" y="-463.229" font-family="Times New Roman,serif" font-size="8.00">0...*</text>
</g>
<!-- ItemTypeAccessType&#45;&gt;ItemTypeStructuredStringType -->
<g id="edge18" class="edge"><title>ItemTypeAccessType&#45;&gt;ItemTypeStructuredStringType</title>
<path fill="none" stroke="black" d="M846.851,-460.675C867.285,-471.138 889.3,-480.4 911.101,-486 986.224,-505.296 1075.66,-476.793 1126.01,-456.147"/>
<text text-anchor="middle" x="965.101" y="-494.6" font-family="Times New Roman,serif" font-size="8.00">Restrictions</text>
<text text-anchor="middle" x="1118.01" y="-458.747" font-family="Times New Roman,serif" font-size="8.00">0...*</text>
<text text-anchor="middle" x="838.851" y="-463.275" font-family="Times New Roman,serif" font-size="8.00">0...*</text>
</g>
<!-- ItemTypeAccessType&#45;&gt;ItemTypeStructuredStringType -->
<g id="edge19" class="edge"><title>ItemTypeAccessType&#45;&gt;ItemTypeStructuredStringType</title>
<path fill="none" stroke="black" d="M890.621,-343.471C932.313,-334.106 977.882,-330.805 1019.1,-343 1069.68,-357.964 1119.18,-396.474 1145.71,-419.609"/>
<text text-anchor="middle" x="965.101" y="-345.6" font-family="Times New Roman,serif" font-size="8.00">CitationRequirement</text>
<text text-anchor="middle" x="1137.71" y="-413.209" font-family="Times New Roman,serif" font-size="8.00">0...*</text>
<text text-anchor="middle" x="898.621" y="-337.071" font-family="Times New Roman,serif" font-size="8.00">0...*</text>
</g>
<!-- ItemTypeAccessType&#45;&gt;ItemTypeStructuredStringType -->
<g id="edge20" class="edge"><title>ItemTypeAccessType&#45;&gt;ItemTypeStructuredStringType</title>
<path fill="none" stroke="black" d="M890.748,-370.871C932.339,-366.852 977.821,-366.5 1019.1,-375 1060.73,-383.571 1105.1,-404.514 1133.97,-419.91"/>
<text text-anchor="middle" x="965.101" y="-377.6" font-family="Times New Roman,serif" font-size="8.00">DepositRequirement</text>
<text text-anchor="middle" x="1125.97" y="-413.51" font-family="Times New Roman,serif" font-size="8.00">0...*</text>
<text text-anchor="middle" x="898.748" y="-364.471" font-family="Times New Roman,serif" font-size="8.00">0...*</text>
</g>
<!-- ItemTypeAccessType&#45;&gt;ItemTypeStructuredStringType -->
<g id="edge21" class="edge"><title>ItemTypeAccessType&#45;&gt;ItemTypeStructuredStringType</title>
<path fill="none" stroke="black" d="M890.901,-398.074C932.29,-399.341 977.625,-401.955 1019.1,-407 1043.23,-409.935 1069.28,-414.862 1092.62,-419.933"/>
<text text-anchor="middle" x="965.101" y="-409.6" font-family="Times New Roman,serif" font-size="8.00">AccessConditions</text>
<text text-anchor="middle" x="1084.62" y="-413.533" font-family="Times New Roman,serif" font-size="8.00">0...*</text>
<text text-anchor="middle" x="898.901" y="-391.674" font-family="Times New Roman,serif" font-size="8.00">0...*</text>
</g>
<!-- ItemTypeAccessType&#45;&gt;ItemTypeStructuredStringType -->
<g id="edge22" class="edge"><title>ItemTypeAccessType&#45;&gt;ItemTypeStructuredStringType</title>
<path fill="none" stroke="black" d="M890.698,-413.919C897.595,-414.638 904.425,-415.336 911.101,-416 959.976,-420.861 1014.19,-425.633 1059.99,-429.484"/>
<text text-anchor="middle" x="965.101" y="-428.6" font-family="Times New Roman,serif" font-size="8.00">Disclaimer</text>
<text text-anchor="middle" x="1051.99" y="-423.084" font-family="Times New Roman,serif" font-size="8.00">0...*</text>
<text text-anchor="middle" x="898.698" y="-407.519" font-family="Times New Roman,serif" font-size="8.00">0...*</text>
</g>
<!-- Agent -->
<g id="ItemTypeAgent" class="node"><title></title><ellipse fill="#f7b733" stroke="black" cx="1166.6" cy="-20" rx="27" ry="18" style="filter: url(#dropshadow)"/>
<text text-anchor="middle" x="1166.6" y="-18.1" font-family="Times New Roman,serif" font-size="8.00">Agent</text>
</g>
<!-- ItemTypeAccessType&#45;&gt;Agent -->
<g id="edge23" class="edge"><title>ItemTypeAccessType&#45;&gt;Agent</title>
<path fill="none" stroke="black" d="M877.723,-335.43C883.517,-329.466 888.724,-323 893.101,-316 923.218,-267.833 872.764,-102.921 911.101,-61 970.449,3.89603 1088.63,-6.67726 1140.37,-15.0979"/>
<text text-anchor="middle" x="965.101" y="-63.6" font-family="Times New Roman,serif" font-size="8.00">ContactOrganizationReference</text>
<text text-anchor="middle" x="1132.37" y="-8.69787" font-family="Times New Roman,serif" font-size="8.00">0...*</text>
<text text-anchor="middle" x="885.723" y="-329.03" font-family="Times New Roman,serif" font-size="8.00">0...*</text>
</g>
<!-- ArchiveSpecificType -->
<g id="ReusableTypeArchiveSpecificType0" class="node"><title></title><ellipse fill="#f7b733" stroke="black" cx="51.0505" cy="-270" rx="51.1011" ry="18" style="filter: url(#dropshadow)"/>
<text text-anchor="middle" x="51.0505" y="-268.1" font-family="Times New Roman,serif" font-size="8.00">ArchiveSpecificType</text>
</g>
<!-- ArchiveSpecificType&#45;&gt;ItemTypeProperties -->
<g id="edge24" class="edge"><title>ArchiveSpecificType&#45;&gt;ItemTypeProperties</title>
<path fill="none" stroke="black" d="M99.8719,-264.666C114.097,-263.079 130.484,-261.251 147.582,-259.344"/>
<text text-anchor="middle" x="128.601" y="-265.6" font-family="Times New Roman,serif" font-size="8.00">Item</text>
<text text-anchor="middle" x="139.582" y="-252.944" font-family="Times New Roman,serif" font-size="8.00">0...*</text>
<text text-anchor="middle" x="107.872" y="-258.266" font-family="Times New Roman,serif" font-size="8.00">0...*</text>
</g>
<!-- CollectionType -->
<g id="ReusableTypeCollectionType1" class="node"><title></title><ellipse fill="#f7b733" stroke="black" cx="51.0505" cy="-216" rx="40.0477" ry="18" style="filter: url(#dropshadow)"/>
<text text-anchor="middle" x="51.0505" y="-214.1" font-family="Times New Roman,serif" font-size="8.00">CollectionType</text>
</g>
<!-- CollectionType&#45;&gt;ItemTypeProperties -->
<g id="edge25" class="edge"><title>CollectionType&#45;&gt;ItemTypeProperties</title>
<path fill="none" stroke="black" d="M90.4042,-220.278C106.491,-222.073 126.311,-224.284 147.211,-226.615"/>
<text text-anchor="middle" x="128.601" y="-227.6" font-family="Times New Roman,serif" font-size="8.00">Item</text>
<text text-anchor="middle" x="139.211" y="-220.215" font-family="Times New Roman,serif" font-size="8.00">0...*</text>
<text text-anchor="middle" x="98.4042" y="-213.878" font-family="Times New Roman,serif" font-size="8.00">0...*</text>
</g>
</g>
</svg>
