<?xml version="1.0" encoding="UTF-8" standalone="no"?>
<!DOCTYPE svg PUBLIC "-//W3C//DTD SVG 1.1//EN"
 "http://www.w3.org/Graphics/SVG/1.1/DTD/svg11.dtd">
<!-- Generated by graphviz version 2.38.0 (20140413.2041)
 -->
<!-- Title: G Pages: 1 -->
<svg width="684pt" height="205pt"
 viewBox="0.00 0.00 684.00 205.00" xmlns="http://www.w3.org/2000/svg" xmlns:xlink="http://www.w3.org/1999/xlink">
<filter id = "dropshadow" height = "130%" ><feGaussianBlur in= "SourceAlpha" stdDeviation = "3"/><!--stdDeviation is how much to blur--><feOffset dx = "2" dy = "2" result = "offsetblur"/><!--how much to offset--><feMerge><feMergeNode/><!--this contains the offset blurred image--><feMergeNode in= "SourceGraphic"/><!--this contains the element that the filter is applied to --></feMerge></filter>
<g id="graph0" class="graph" transform="scale(1 1) rotate(0) translate(4 201)">
<title>G</title>
<g id="clust1" class="cluster"><title>clusterLevelType</title>
<polygon fill="#4abdac" stroke="black" points="102,-8 102,-189 668,-189 668,-8 102,-8" style="filter: url(#dropshadow)"/>
<text text-anchor="middle" x="385" y="-178.6" font-family="Times New Roman,serif" font-size="8.00">LevelType</text>
</g>
<!-- LevelTypeProperties -->
<g id="ReusableTypeLevelTypeProperties" class="node"><title></title><polygon fill="#f7b733" stroke="black" points="110,-63.5 110,-116.5 347,-116.5 347,-63.5 110,-63.5" style="filter: url(#dropshadow)"/>
<text text-anchor="middle" x="136.5" y="-88.1" font-family="Times New Roman,serif" font-size="8.00">Properties</text>
<polyline fill="none" stroke="black" points="163,-63.5 163,-116.5 "/>
<text text-anchor="start" x="171" y="-106.1" font-family="Times New Roman,serif" font-size="8.00">LevelName : NameType[0...n] </text>
<text text-anchor="start" x="171" y="-97.1" font-family="Times New Roman,serif" font-size="8.00">Description : StructuredStringType[0...1] </text>
<text text-anchor="start" x="171" y="-88.1" font-family="Times New Roman,serif" font-size="8.00">CategoryRelationship : string[0...1] </text>
<text text-anchor="start" x="171" y="-79.1" font-family="Times New Roman,serif" font-size="8.00">IntervalIncrement : BasicIncrementType[0...1] </text>
<text text-anchor="start" x="171" y="-70.1" font-family="Times New Roman,serif" font-size="8.00">LevelNumber : nonNegativeInteger[1...1] </text>
</g>
<!-- LevelTypeNameType -->
<g id="ReusableTypeLevelTypeNameType" class="node"><title></title><polygon fill="#fc4a1a" stroke="black" points="469,-17 469,-53 638,-53 638,-17 469,-17" style="filter: url(#dropshadow)"/>
<text text-anchor="middle" x="497" y="-33.1" font-family="Times New Roman,serif" font-size="8.00">NameType</text>
<polyline fill="none" stroke="black" points="525,-17 525,-53 "/>
<text text-anchor="start" x="533" y="-37.6" font-family="Times New Roman,serif" font-size="8.00">IsPreferred : boolean[0...1] </text>
<text text-anchor="start" x="533" y="-28.6" font-family="Times New Roman,serif" font-size="8.00">Context : string[0...1] </text>
</g>
<!-- LevelTypeProperties&#45;&gt;LevelTypeNameType -->
<g id="edge1" class="edge"><title>LevelTypeProperties&#45;&gt;LevelTypeNameType</title>
<path fill="none" stroke="black" d="M347.024,-69.9882C387.429,-63.1081 431.809,-55.5511 468.952,-49.2264"/>
<text text-anchor="middle" x="397" y="-68.6" font-family="Times New Roman,serif" font-size="8.00">LevelName</text>
</g>
<!-- LevelTypeStructuredStringType -->
<g id="ReusableTypeLevelTypeStructuredStringType" class="node"><title></title><polygon fill="#fc4a1a" stroke="black" points="447,-72 447,-108 660,-108 660,-72 447,-72" style="filter: url(#dropshadow)"/>
<text text-anchor="middle" x="492" y="-88.1" font-family="Times New Roman,serif" font-size="8.00">StructuredStringType</text>
<polyline fill="none" stroke="black" points="537,-72 537,-108 "/>
<text text-anchor="start" x="545" y="-88.1" font-family="Times New Roman,serif" font-size="8.00">Content : ContentType[0...n] </text>
</g>
<!-- LevelTypeProperties&#45;&gt;LevelTypeStructuredStringType -->
<g id="edge2" class="edge"><title>LevelTypeProperties&#45;&gt;LevelTypeStructuredStringType</title>
<path fill="none" stroke="black" d="M347.024,-90C379.673,-90 414.917,-90 446.841,-90"/>
<text text-anchor="middle" x="397" y="-92.6" font-family="Times New Roman,serif" font-size="8.00">Description</text>
</g>
<!-- LevelTypeBasicIncrementType -->
<g id="ReusableTypeLevelTypeBasicIncrementType" class="node"><title></title><polygon fill="#fc4a1a" stroke="black" points="499.5,-127 499.5,-163 607.5,-163 607.5,-127 499.5,-127" style="filter: url(#dropshadow)"/>
<text text-anchor="middle" x="544" y="-143.1" font-family="Times New Roman,serif" font-size="8.00">BasicIncrementType</text>
<polyline fill="none" stroke="black" points="588.5,-127 588.5,-163 "/>
<text text-anchor="middle" x="598" y="-143.1" font-family="Times New Roman,serif" font-size="8.00"> </text>
</g>
<!-- LevelTypeProperties&#45;&gt;LevelTypeBasicIncrementType -->
<g id="edge3" class="edge"><title>LevelTypeProperties&#45;&gt;LevelTypeBasicIncrementType</title>
<path fill="none" stroke="black" d="M347.024,-110.012C399.153,-118.888 457.9,-128.892 499.184,-135.921"/>
<text text-anchor="middle" x="397" y="-124.6" font-family="Times New Roman,serif" font-size="8.00">IntervalIncrement</text>
</g>
<!-- CodeList -->
<g id="ItemTypeCodeList" class="node"><title></title><ellipse fill="#f7b733" stroke="black" cx="27" cy="-90" rx="27" ry="18" style="filter: url(#dropshadow)"/>
<text text-anchor="middle" x="27" y="-88.1" font-family="Times New Roman,serif" font-size="8.00">CodeList</text>
</g>
<!-- CodeList&#45;&gt;LevelTypeProperties -->
<g id="edge4" class="edge"><title>CodeList&#45;&gt;LevelTypeProperties</title>
<path fill="none" stroke="black" d="M54.0811,-90C67.2282,-90 84.2329,-90 102.442,-90"/>
<text text-anchor="middle" x="82" y="-92.6" font-family="Times New Roman,serif" font-size="8.00">Level</text>
</g>
</g>
</svg>
