<?xml version="1.0" encoding="UTF-8" standalone="no"?>
<!DOCTYPE svg PUBLIC "-//W3C//DTD SVG 1.1//EN"
 "http://www.w3.org/Graphics/SVG/1.1/DTD/svg11.dtd">
<!-- Generated by graphviz version 2.38.0 (20140413.2041)
 -->
<!-- Title: G Pages: 1 -->
<svg width="320pt" height="95pt"
 viewBox="0.00 0.00 320.00 95.00" xmlns="http://www.w3.org/2000/svg" xmlns:xlink="http://www.w3.org/1999/xlink">
<filter id = "dropshadow" height = "130%" ><feGaussianBlur in= "SourceAlpha" stdDeviation = "3"/><!--stdDeviation is how much to blur--><feOffset dx = "2" dy = "2" result = "offsetblur"/><!--how much to offset--><feMerge><feMergeNode/><!--this contains the offset blurred image--><feMergeNode in= "SourceGraphic"/><!--this contains the element that the filter is applied to --></feMerge></filter>
<g id="graph0" class="graph" transform="scale(1 1) rotate(0) translate(4 91)">
<title>G</title>
<g id="clust1" class="cluster"><title>clusterLiteralTextType</title>
<polygon fill="#4abdac" stroke="black" points="8,-8 8,-79 304,-79 304,-8 8,-8" style="filter: url(#dropshadow)"/>
<text text-anchor="middle" x="156" y="-68.6" font-family="Times New Roman,serif" font-size="8.00">LiteralTextType</text>
</g>
<!-- LiteralTextTypeProperties -->
<g id="ReusableTypeLiteralTextTypeProperties" class="node"><title></title><polygon fill="#f7b733" stroke="black" points="16,-17 16,-53 170,-53 170,-17 16,-17" style="filter: url(#dropshadow)"/>
<text text-anchor="middle" x="42.5" y="-33.1" font-family="Times New Roman,serif" font-size="8.00">Properties</text>
<polyline fill="none" stroke="black" points="69,-17 69,-53 "/>
<text text-anchor="start" x="77" y="-33.1" font-family="Times New Roman,serif" font-size="8.00">Text : TextType[0...1] </text>
</g>
<!-- LiteralTextTypeTextType -->
<g id="ReusableTypeLiteralTextTypeTextType" class="node"><title></title><polygon fill="#fc4a1a" stroke="black" points="224,-17 224,-53 296,-53 296,-17 224,-17" style="filter: url(#dropshadow)"/>
<text text-anchor="middle" x="250.5" y="-33.1" font-family="Times New Roman,serif" font-size="8.00">TextType</text>
<polyline fill="none" stroke="black" points="277,-17 277,-53 "/>
<text text-anchor="middle" x="286.5" y="-33.1" font-family="Times New Roman,serif" font-size="8.00"> </text>
</g>
<!-- LiteralTextTypeProperties&#45;&gt;LiteralTextTypeTextType -->
<g id="edge1" class="edge"><title>LiteralTextTypeProperties&#45;&gt;LiteralTextTypeTextType</title>
<path fill="none" stroke="black" d="M170.221,-35C188.967,-35 208.147,-35 223.861,-35"/>
<text text-anchor="middle" x="197" y="-37.6" font-family="Times New Roman,serif" font-size="8.00">Text</text>
</g>
</g>
</svg>
