<?xml version="1.0" encoding="UTF-8" standalone="no"?>
<!DOCTYPE svg PUBLIC "-//W3C//DTD SVG 1.1//EN"
 "http://www.w3.org/Graphics/SVG/1.1/DTD/svg11.dtd">
<!-- Generated by graphviz version 2.38.0 (20140413.2041)
 -->
<!-- Title: G Pages: 1 -->
<svg width="916pt" height="368pt"
 viewBox="0.00 0.00 915.83 368.00" xmlns="http://www.w3.org/2000/svg" xmlns:xlink="http://www.w3.org/1999/xlink">
<filter id = "dropshadow" height = "130%" ><feGaussianBlur in= "SourceAlpha" stdDeviation = "3"/><!--stdDeviation is how much to blur--><feOffset dx = "2" dy = "2" result = "offsetblur"/><!--how much to offset--><feMerge><feMergeNode/><!--this contains the offset blurred image--><feMergeNode in= "SourceGraphic"/><!--this contains the element that the filter is applied to --></feMerge></filter>
<g id="graph0" class="graph" transform="scale(1 1) rotate(0) translate(4 364)">
<title>G</title>
<g id="clust1" class="cluster"><title>clusterMaintainable</title>
<polygon fill="#4abdac" stroke="black" points="273.832,-42 273.832,-311 899.832,-311 899.832,-42 273.832,-42" style="filter: url(#dropshadow)"/>
<text text-anchor="middle" x="586.832" y="-300.6" font-family="Times New Roman,serif" font-size="8.00">Maintainable</text>
</g>
<!-- MaintainableProperties -->
<g id="ItemTypeMaintainableProperties" class="node"><title></title><polygon fill="#f7b733" stroke="black" points="281.832,-159.5 281.832,-212.5 516.832,-212.5 516.832,-159.5 281.832,-159.5" style="filter: url(#dropshadow)"/>
<text text-anchor="middle" x="308.332" y="-184.1" font-family="Times New Roman,serif" font-size="8.00">Properties</text>
<polyline fill="none" stroke="black" points="334.832,-159.5 334.832,-212.5 "/>
<text text-anchor="start" x="342.832" y="-202.1" font-family="Times New Roman,serif" font-size="8.00">Note : NoteType[0...n] </text>
<text text-anchor="start" x="342.832" y="-193.1" font-family="Times New Roman,serif" font-size="8.00">Software : SoftwareType[0...n] </text>
<text text-anchor="start" x="342.832" y="-184.1" font-family="Times New Roman,serif" font-size="8.00">MetadataQuality : MetadataQualityType[0...n] </text>
<text text-anchor="start" x="342.832" y="-175.1" font-family="Times New Roman,serif" font-size="8.00">ExternalReferenceDefaultURI : anyURI[0...1] </text>
<text text-anchor="start" x="342.832" y="-166.1" font-family="Times New Roman,serif" font-size="8.00">Lang : language[0...1] </text>
</g>
<!-- MaintainableNoteType -->
<g id="ReusableTypeMaintainableNoteType" class="node"><title></title><polygon fill="#fc4a1a" stroke="black" points="636.332,-51 636.332,-131 866.332,-131 866.332,-51 636.332,-51" style="filter: url(#dropshadow)"/>
<text text-anchor="middle" x="662.832" y="-89.1" font-family="Times New Roman,serif" font-size="8.00">NoteType</text>
<polyline fill="none" stroke="black" points="689.332,-51 689.332,-131 "/>
<text text-anchor="start" x="697.332" y="-120.6" font-family="Times New Roman,serif" font-size="8.00">TypeOfNote : CodeValueType[0...1] </text>
<text text-anchor="start" x="697.332" y="-111.6" font-family="Times New Roman,serif" font-size="8.00">NoteSubject : CodeValueType[0...1] </text>
<text text-anchor="start" x="697.332" y="-102.6" font-family="Times New Roman,serif" font-size="8.00">Relationship : RelationshipType[0...n] </text>
<text text-anchor="start" x="697.332" y="-93.6" font-family="Times New Roman,serif" font-size="8.00">Responsibility : string[0...1] </text>
<text text-anchor="start" x="697.332" y="-84.6" font-family="Times New Roman,serif" font-size="8.00">Header : InternationalStringType[0...1] </text>
<text text-anchor="start" x="697.332" y="-75.6" font-family="Times New Roman,serif" font-size="8.00">NoteContent : StructuredStringType[0...1] </text>
<text text-anchor="start" x="697.332" y="-66.6" font-family="Times New Roman,serif" font-size="8.00">ProprietaryInfo : ProprietaryInfoType[0...1] </text>
<text text-anchor="start" x="697.332" y="-57.6" font-family="Times New Roman,serif" font-size="8.00">Lang : language[0...1] </text>
</g>
<!-- MaintainableProperties&#45;&gt;MaintainableNoteType -->
<g id="edge1" class="edge"><title>MaintainableProperties&#45;&gt;MaintainableNoteType</title>
<path fill="none" stroke="black" d="M498.292,-159.411C541.165,-147.774 591.746,-134.045 636.3,-121.951"/>
<text text-anchor="middle" x="563.832" y="-150.6" font-family="Times New Roman,serif" font-size="8.00">Note</text>
</g>
<!-- MaintainableSoftwareType -->
<g id="ReusableTypeMaintainableSoftwareType" class="node"><title></title><polygon fill="#fc4a1a" stroke="black" points="638.332,-150.5 638.332,-221.5 864.332,-221.5 864.332,-150.5 638.332,-150.5" style="filter: url(#dropshadow)"/>
<text text-anchor="middle" x="670.832" y="-184.1" font-family="Times New Roman,serif" font-size="8.00">SoftwareType</text>
<polyline fill="none" stroke="black" points="703.332,-150.5 703.332,-221.5 "/>
<text text-anchor="start" x="711.332" y="-211.1" font-family="Times New Roman,serif" font-size="8.00">SoftwareName : NameType[0...n] </text>
<text text-anchor="start" x="711.332" y="-202.1" font-family="Times New Roman,serif" font-size="8.00">SoftwarePackage : CodeValueType[0...1] </text>
<text text-anchor="start" x="711.332" y="-193.1" font-family="Times New Roman,serif" font-size="8.00">SoftwareVersion : string[0...1] </text>
<text text-anchor="start" x="711.332" y="-184.1" font-family="Times New Roman,serif" font-size="8.00">Description : StructuredStringType[0...1] </text>
<text text-anchor="start" x="711.332" y="-175.1" font-family="Times New Roman,serif" font-size="8.00">Date : DateType[0...1] </text>
<text text-anchor="start" x="711.332" y="-166.1" font-family="Times New Roman,serif" font-size="8.00">Function : CodeValueType[0...n] </text>
<text text-anchor="start" x="711.332" y="-157.1" font-family="Times New Roman,serif" font-size="8.00">Lang : language[0...1] </text>
</g>
<!-- MaintainableProperties&#45;&gt;MaintainableSoftwareType -->
<g id="edge2" class="edge"><title>MaintainableProperties&#45;&gt;MaintainableSoftwareType</title>
<path fill="none" stroke="black" d="M516.877,-186C555.953,-186 599.421,-186 638.155,-186"/>
<text text-anchor="middle" x="563.832" y="-188.6" font-family="Times New Roman,serif" font-size="8.00">Software</text>
</g>
<!-- MaintainableMetadataQualityType -->
<g id="ReusableTypeMaintainableMetadataQualityType" class="node"><title></title><polygon fill="#fc4a1a" stroke="black" points="610.832,-241 610.832,-285 891.832,-285 891.832,-241 610.832,-241" style="filter: url(#dropshadow)"/>
<text text-anchor="middle" x="657.332" y="-261.1" font-family="Times New Roman,serif" font-size="8.00">MetadataQualityType</text>
<polyline fill="none" stroke="black" points="703.832,-241 703.832,-285 "/>
<text text-anchor="start" x="711.832" y="-274.6" font-family="Times New Roman,serif" font-size="8.00">TypeOfMetadataQuality : CodeValueType[0...1] </text>
<text text-anchor="start" x="711.832" y="-265.6" font-family="Times New Roman,serif" font-size="8.00">MeasurePurpose : StructuredStringType[0...1] </text>
<text text-anchor="start" x="711.832" y="-256.6" font-family="Times New Roman,serif" font-size="8.00">MeasureValue : CodeValueType[0...1] </text>
<text text-anchor="start" x="711.832" y="-247.6" font-family="Times New Roman,serif" font-size="8.00">Description : StructuredStringType[0...1] </text>
</g>
<!-- MaintainableProperties&#45;&gt;MaintainableMetadataQualityType -->
<g id="edge3" class="edge"><title>MaintainableProperties&#45;&gt;MaintainableMetadataQualityType</title>
<path fill="none" stroke="black" d="M516.877,-211.64C560.029,-221.133 608.539,-231.805 650.113,-240.952"/>
<text text-anchor="middle" x="563.832" y="-229.6" font-family="Times New Roman,serif" font-size="8.00">MetadataQuality</text>
</g>
<!-- ApprovalReview -->
<g id="ItemTypeApprovalReview" class="node"><title></title><ellipse fill="#f7b733" stroke="black" cx="49.9161" cy="-342" rx="41.9498" ry="18" style="filter: url(#dropshadow)"/>
<text text-anchor="middle" x="49.9161" y="-340.1" font-family="Times New Roman,serif" font-size="8.00">ApprovalReview</text>
</g>
<!-- ApprovalReview&#45;&gt;MaintainableProperties -->
<g id="edge4" class="edge"><title>ApprovalReview&#45;&gt;MaintainableProperties</title>
<path fill="none" stroke="black" d="M92.1897,-341.994C136.648,-340.482 208.453,-333.599 263.832,-307 267.289,-305.34 270.722,-303.563 274.125,-301.684"/>
<text text-anchor="middle" x="190.832" y="-343.6" font-family="Times New Roman,serif" font-size="8.00">ReviewObjectReference_Maintainable</text>
</g>
<!-- GenericMap -->
<g id="ItemTypeGenericMap" class="node"><title></title><ellipse fill="#f7b733" stroke="black" cx="49.9161" cy="-288" rx="33.433" ry="18" style="filter: url(#dropshadow)"/>
<text text-anchor="middle" x="49.9161" y="-286.1" font-family="Times New Roman,serif" font-size="8.00">GenericMap</text>
</g>
<!-- GenericMap&#45;&gt;MaintainableProperties -->
<g id="edge5" class="edge"><title>GenericMap&#45;&gt;MaintainableProperties</title>
<path fill="none" stroke="black" d="M82.9214,-291.333C125.456,-294.622 202.392,-296.566 263.832,-276 267.267,-274.85 270.696,-273.588 274.113,-272.228"/>
<text text-anchor="middle" x="190.832" y="-296.6" font-family="Times New Roman,serif" font-size="8.00">SourceSchemeReference</text>
</g>
<!-- GenericMap&#45;&gt;MaintainableProperties -->
<g id="edge6" class="edge"><title>GenericMap&#45;&gt;MaintainableProperties</title>
<path fill="none" stroke="black" d="M78.7333,-278.576C90.688,-274.707 104.866,-270.357 117.832,-267 181.962,-250.394 200.214,-255.469 263.832,-237 267.137,-236.04 270.476,-235.036 273.836,-233.996"/>
<text text-anchor="middle" x="190.832" y="-269.6" font-family="Times New Roman,serif" font-size="8.00">TargetSchemeReference</text>
</g>
<!-- BasedOnObjectType -->
<g id="ReusableTypeBasedOnObjectType" class="node"><title></title><ellipse fill="#f7b733" stroke="black" cx="49.9161" cy="-234" rx="49.8323" ry="18" style="filter: url(#dropshadow)"/>
<text text-anchor="middle" x="49.9161" y="-232.1" font-family="Times New Roman,serif" font-size="8.00">BasedOnObjectType</text>
</g>
<!-- BasedOnObjectType&#45;&gt;MaintainableProperties -->
<g id="edge7" class="edge"><title>BasedOnObjectType&#45;&gt;MaintainableProperties</title>
<path fill="none" stroke="black" d="M96.6919,-227.675C141.753,-221.45 212.587,-211.663 274.292,-203.138"/>
<text text-anchor="middle" x="190.832" y="-226.6" font-family="Times New Roman,serif" font-size="8.00">BasedOnReference_Maintainable</text>
</g>
<!-- ItemMapType -->
<g id="ReusableTypeItemMapType" class="node"><title></title><ellipse fill="#f7b733" stroke="black" cx="49.9161" cy="-180" rx="38.6432" ry="18" style="filter: url(#dropshadow)"/>
<text text-anchor="middle" x="49.9161" y="-178.1" font-family="Times New Roman,serif" font-size="8.00">ItemMapType</text>
</g>
<!-- ItemMapType&#45;&gt;MaintainableProperties -->
<g id="edge8" class="edge"><title>ItemMapType&#45;&gt;MaintainableProperties</title>
<path fill="none" stroke="black" d="M88.757,-180.654C133.039,-181.418 208.639,-182.724 274.043,-183.853"/>
<text text-anchor="middle" x="190.832" y="-186.6" font-family="Times New Roman,serif" font-size="8.00">SourceItemReference_Maintainable</text>
</g>
<!-- ItemMapType&#45;&gt;MaintainableProperties -->
<g id="edge9" class="edge"><title>ItemMapType&#45;&gt;MaintainableProperties</title>
<path fill="none" stroke="black" d="M86.5964,-174.302C96.6691,-172.939 107.657,-171.681 117.832,-171 182.576,-166.666 199.043,-167.398 263.832,-171 267.131,-171.183 270.473,-171.392 273.845,-171.622"/>
<text text-anchor="middle" x="190.832" y="-173.6" font-family="Times New Roman,serif" font-size="8.00">TargetItemReference_Maintainable</text>
</g>
<!-- LinkingMapType -->
<g id="ReusableTypeLinkingMapType" class="node"><title></title><ellipse fill="#f7b733" stroke="black" cx="49.9161" cy="-126" rx="44.4889" ry="18" style="filter: url(#dropshadow)"/>
<text text-anchor="middle" x="49.9161" y="-124.1" font-family="Times New Roman,serif" font-size="8.00">LinkingMapType</text>
</g>
<!-- LinkingMapType&#45;&gt;MaintainableProperties -->
<g id="edge10" class="edge"><title>LinkingMapType&#45;&gt;MaintainableProperties</title>
<path fill="none" stroke="black" d="M92.6873,-130.889C135.731,-136.161 204.699,-145.257 263.832,-156 267.209,-156.613 270.629,-157.252 274.077,-157.912"/>
<text text-anchor="middle" x="190.832" y="-158.6" font-family="Times New Roman,serif" font-size="8.00">LocalObjectReference_Maintainable</text>
</g>
<!-- LinkingMapType&#45;&gt;MaintainableProperties -->
<g id="edge11" class="edge"><title>LinkingMapType&#45;&gt;MaintainableProperties</title>
<path fill="none" stroke="black" d="M91.5245,-119.545C134.804,-113.978 205.049,-108.727 263.832,-122 267.237,-122.769 270.658,-123.635 274.082,-124.585"/>
<text text-anchor="middle" x="190.832" y="-124.6" font-family="Times New Roman,serif" font-size="8.00">DepositoryObjectReference_Maintainable</text>
</g>
<!-- RelationshipType -->
<g id="ReusableTypeRelationshipType0" class="node"><title></title><ellipse fill="#f7b733" stroke="black" cx="49.9161" cy="-72" rx="44.6228" ry="18" style="filter: url(#dropshadow)"/>
<text text-anchor="middle" x="49.9161" y="-70.1" font-family="Times New Roman,serif" font-size="8.00">RelationshipType</text>
</g>
<!-- RelationshipType&#45;&gt;MaintainableProperties -->
<g id="edge12" class="edge"><title>RelationshipType&#45;&gt;MaintainableProperties</title>
<path fill="none" stroke="black" d="M95.0378,-72.5702C139.033,-74.3821 207.926,-80.6255 263.832,-101 267.201,-102.228 270.575,-103.55 273.944,-104.953"/>
<text text-anchor="middle" x="190.832" y="-103.6" font-family="Times New Roman,serif" font-size="8.00">RelatedToReference_Maintainable</text>
</g>
<!-- ResourceUsedType -->
<g id="ReusableTypeResourceUsedType1" class="node"><title></title><ellipse fill="#f7b733" stroke="black" cx="49.9161" cy="-18" rx="47.16" ry="18" style="filter: url(#dropshadow)"/>
<text text-anchor="middle" x="49.9161" y="-16.1" font-family="Times New Roman,serif" font-size="8.00">ResourceUsedType</text>
</g>
<!-- ResourceUsedType&#45;&gt;MaintainableProperties -->
<g id="edge13" class="edge"><title>ResourceUsedType&#45;&gt;MaintainableProperties</title>
<path fill="none" stroke="black" d="M96.9016,-20.0875C141.705,-23.7331 210.651,-33.715 263.832,-61 267.327,-62.7928 270.796,-64.7026 274.235,-66.7139"/>
<text text-anchor="middle" x="190.832" y="-63.6" font-family="Times New Roman,serif" font-size="8.00">ResourceObjectReference_Maintainable</text>
</g>
</g>
</svg>
