<?xml version="1.0" encoding="UTF-8" standalone="no"?>
<!DOCTYPE svg PUBLIC "-//W3C//DTD SVG 1.1//EN"
 "http://www.w3.org/Graphics/SVG/1.1/DTD/svg11.dtd">
<!-- Generated by graphviz version 2.38.0 (20140413.2041)
 -->
<!-- Title: G Pages: 1 -->
<svg width="439pt" height="638pt"
 viewBox="0.00 0.00 438.69 638.00" xmlns="http://www.w3.org/2000/svg" xmlns:xlink="http://www.w3.org/1999/xlink">
<filter id = "dropshadow" height = "130%" ><feGaussianBlur in= "SourceAlpha" stdDeviation = "3"/><!--stdDeviation is how much to blur--><feOffset dx = "2" dy = "2" result = "offsetblur"/><!--how much to offset--><feMerge><feMergeNode/><!--this contains the offset blurred image--><feMergeNode in= "SourceGraphic"/><!--this contains the element that the filter is applied to --></feMerge></filter>
<g id="graph0" class="graph" transform="scale(1 1) rotate(0) translate(4 634)">
<title>G</title>
<!-- ManagedRepresentation -->
<g id="ItemTypeManagedRepresentation" class="node"><title></title><polygon fill="#f7b733" stroke="black" points="311.689,-297 311.689,-333 430.689,-333 430.689,-297 311.689,-297" style="filter: url(#dropshadow)"/>
<text text-anchor="middle" x="361.689" y="-313.1" font-family="Times New Roman,serif" font-size="8.00">ManagedRepresentation</text>
<polyline fill="none" stroke="black" points="411.689,-297 411.689,-333 "/>
<text text-anchor="middle" x="421.189" y="-313.1" font-family="Times New Roman,serif" font-size="8.00"> </text>
</g>
<!-- ManagedRepresentationGroup -->
<g id="ItemTypeManagedRepresentationGroup" class="node"><title></title><ellipse fill="#f7b733" stroke="black" cx="78.8447" cy="-612" rx="68.7695" ry="18" style="filter: url(#dropshadow)"/>
<text text-anchor="middle" x="78.8447" y="-610.1" font-family="Times New Roman,serif" font-size="8.00">ManagedRepresentationGroup</text>
</g>
<!-- ManagedRepresentationGroup&#45;&gt;ManagedRepresentation -->
<g id="edge1" class="edge"><title>ManagedRepresentationGroup&#45;&gt;ManagedRepresentation</title>
<path fill="none" stroke="black" d="M147.182,-614.045C193.855,-611.833 254.434,-601.212 293.689,-565 362.082,-501.909 369.995,-379.55 370.434,-333.301"/>
<text text-anchor="middle" x="234.689" y="-613.6" font-family="Times New Roman,serif" font-size="8.00">ManagedRepresentationReference</text>
</g>
<!-- ManagedRepresentationScheme -->
<g id="ItemTypeManagedRepresentationScheme" class="node"><title></title><ellipse fill="#f7b733" stroke="black" cx="78.8447" cy="-558" rx="71.4415" ry="18" style="filter: url(#dropshadow)"/>
<text text-anchor="middle" x="78.8447" y="-556.1" font-family="Times New Roman,serif" font-size="8.00">ManagedRepresentationScheme</text>
</g>
<!-- ManagedRepresentationScheme&#45;&gt;ManagedRepresentation -->
<g id="edge2" class="edge"><title>ManagedRepresentationScheme&#45;&gt;ManagedRepresentation</title>
<path fill="none" stroke="black" d="M150.121,-556.549C195.889,-552.09 254.21,-539.312 293.689,-505 346.697,-458.93 363.448,-370.859 368.335,-333.013"/>
<text text-anchor="middle" x="234.689" y="-554.6" font-family="Times New Roman,serif" font-size="8.00">ManagedRepresentationReference</text>
</g>
<!-- MeasurementItem -->
<g id="ItemTypeMeasurementItem" class="node"><title></title><ellipse fill="#f7b733" stroke="black" cx="78.8447" cy="-504" rx="45.2568" ry="18" style="filter: url(#dropshadow)"/>
<text text-anchor="middle" x="78.8447" y="-502.1" font-family="Times New Roman,serif" font-size="8.00">MeasurementItem</text>
</g>
<!-- MeasurementItem&#45;&gt;ManagedRepresentation -->
<g id="edge3" class="edge"><title>MeasurementItem&#45;&gt;ManagedRepresentation</title>
<path fill="none" stroke="black" d="M123.853,-501.463C170.348,-496.752 243.716,-483.311 293.689,-445 331.93,-415.684 354.72,-361.352 364.514,-333.109"/>
<text text-anchor="middle" x="234.689" y="-494.6" font-family="Times New Roman,serif" font-size="8.00">ResponseDomainReference</text>
</g>
<!-- QuestionGrid -->
<g id="ItemTypeQuestionGrid" class="node"><title></title><ellipse fill="#f7b733" stroke="black" cx="78.8447" cy="-450" rx="35.3371" ry="18" style="filter: url(#dropshadow)"/>
<text text-anchor="middle" x="78.8447" y="-448.1" font-family="Times New Roman,serif" font-size="8.00">QuestionGrid</text>
</g>
<!-- QuestionGrid&#45;&gt;ManagedRepresentation -->
<g id="edge4" class="edge"><title>QuestionGrid&#45;&gt;ManagedRepresentation</title>
<path fill="none" stroke="black" d="M112.913,-445.439C156.655,-438.32 235.056,-421.735 293.689,-388 318.512,-373.718 341.49,-349.735 355.653,-333.177"/>
<text text-anchor="middle" x="234.689" y="-434.6" font-family="Times New Roman,serif" font-size="8.00">ResponseDomainReference</text>
</g>
<!-- QuestionItem -->
<g id="ItemTypeQuestionItem" class="node"><title></title><ellipse fill="#f7b733" stroke="black" cx="78.8447" cy="-396" rx="36.1063" ry="18" style="filter: url(#dropshadow)"/>
<text text-anchor="middle" x="78.8447" y="-394.1" font-family="Times New Roman,serif" font-size="8.00">QuestionItem</text>
</g>
<!-- QuestionItem&#45;&gt;ManagedRepresentation -->
<g id="edge5" class="edge"><title>QuestionItem&#45;&gt;ManagedRepresentation</title>
<path fill="none" stroke="black" d="M112.837,-389.625C155.177,-381.104 230.687,-364.76 293.689,-345 304.715,-341.542 316.422,-337.269 327.276,-333.042"/>
<text text-anchor="middle" x="234.689" y="-377.6" font-family="Times New Roman,serif" font-size="8.00">ResponseDomainReference</text>
</g>
<!-- RepresentedVariable -->
<g id="ItemTypeRepresentedVariable" class="node"><title></title><ellipse fill="#f7b733" stroke="black" cx="78.8447" cy="-342" rx="48.5642" ry="18" style="filter: url(#dropshadow)"/>
<text text-anchor="middle" x="78.8447" y="-340.1" font-family="Times New Roman,serif" font-size="8.00">RepresentedVariable</text>
</g>
<!-- RepresentedVariable&#45;&gt;ManagedRepresentation -->
<g id="edge6" class="edge"><title>RepresentedVariable&#45;&gt;ManagedRepresentation</title>
<path fill="none" stroke="black" d="M126.494,-337.662C176.828,-332.981 257.081,-325.518 311.625,-320.446"/>
<text text-anchor="middle" x="234.689" y="-334.6" font-family="Times New Roman,serif" font-size="8.00">ValueRepresentationReference</text>
</g>
<!-- GridResponseDomainInMixedType -->
<g id="ReusableTypeGridResponseDomainInMixedType" class="node"><title></title><ellipse fill="#f7b733" stroke="black" cx="78.8447" cy="-288" rx="78.6897" ry="18" style="filter: url(#dropshadow)"/>
<text text-anchor="middle" x="78.8447" y="-286.1" font-family="Times New Roman,serif" font-size="8.00">GridResponseDomainInMixedType</text>
</g>
<!-- GridResponseDomainInMixedType&#45;&gt;ManagedRepresentation -->
<g id="edge7" class="edge"><title>GridResponseDomainInMixedType&#45;&gt;ManagedRepresentation</title>
<path fill="none" stroke="black" d="M152.362,-294.744C201.408,-299.305 265.36,-305.252 311.264,-309.52"/>
<text text-anchor="middle" x="234.689" y="-309.6" font-family="Times New Roman,serif" font-size="8.00">ResponseDomainReference</text>
</g>
<!-- ParameterType -->
<g id="ReusableTypeParameterType" class="node"><title></title><ellipse fill="#f7b733" stroke="black" cx="78.8447" cy="-234" rx="40.0477" ry="18" style="filter: url(#dropshadow)"/>
<text text-anchor="middle" x="78.8447" y="-232.1" font-family="Times New Roman,serif" font-size="8.00">ParameterType</text>
</g>
<!-- ParameterType&#45;&gt;ManagedRepresentation -->
<g id="edge8" class="edge"><title>ParameterType&#45;&gt;ManagedRepresentation</title>
<path fill="none" stroke="black" d="M116.253,-240.719C159.186,-249.052 232.456,-264.564 293.689,-284 305.299,-287.685 317.633,-292.341 328.931,-296.916"/>
<text text-anchor="middle" x="234.689" y="-286.6" font-family="Times New Roman,serif" font-size="8.00">ValueRepresentationReference</text>
</g>
<!-- ResponseDomainInMixedType -->
<g id="ReusableTypeResponseDomainInMixedType0" class="node"><title></title><ellipse fill="#f7b733" stroke="black" cx="78.8447" cy="-180" rx="70.8072" ry="18" style="filter: url(#dropshadow)"/>
<text text-anchor="middle" x="78.8447" y="-178.1" font-family="Times New Roman,serif" font-size="8.00">ResponseDomainInMixedType</text>
</g>
<!-- ResponseDomainInMixedType&#45;&gt;ManagedRepresentation -->
<g id="edge9" class="edge"><title>ResponseDomainInMixedType&#45;&gt;ManagedRepresentation</title>
<path fill="none" stroke="black" d="M141.1,-188.785C185.684,-197.118 246.296,-212.579 293.689,-240 319.126,-254.717 342.304,-279.837 356.323,-296.912"/>
<text text-anchor="middle" x="234.689" y="-242.6" font-family="Times New Roman,serif" font-size="8.00">ResponseDomainReference</text>
</g>
<!-- SourceRepresentationType -->
<g id="ReusableTypeSourceRepresentationType1" class="node"><title></title><ellipse fill="#f7b733" stroke="black" cx="78.8447" cy="-126" rx="62.2904" ry="18" style="filter: url(#dropshadow)"/>
<text text-anchor="middle" x="78.8447" y="-124.1" font-family="Times New Roman,serif" font-size="8.00">SourceRepresentationType</text>
</g>
<!-- SourceRepresentationType&#45;&gt;ManagedRepresentation -->
<g id="edge10" class="edge"><title>SourceRepresentationType&#45;&gt;ManagedRepresentation</title>
<path fill="none" stroke="black" d="M140.158,-129.706C186.279,-135.264 249.288,-149.033 293.689,-183 332.398,-212.612 354.983,-267.848 364.625,-296.576"/>
<text text-anchor="middle" x="234.689" y="-185.6" font-family="Times New Roman,serif" font-size="8.00">ManagedRepresentationReference</text>
</g>
<!-- TargetRepresentationType -->
<g id="ReusableTypeTargetRepresentationType2" class="node"><title></title><ellipse fill="#f7b733" stroke="black" cx="78.8447" cy="-72" rx="62.9247" ry="18" style="filter: url(#dropshadow)"/>
<text text-anchor="middle" x="78.8447" y="-70.1" font-family="Times New Roman,serif" font-size="8.00">TargetRepresentationType</text>
</g>
<!-- TargetRepresentationType&#45;&gt;ManagedRepresentation -->
<g id="edge11" class="edge"><title>TargetRepresentationType&#45;&gt;ManagedRepresentation</title>
<path fill="none" stroke="black" d="M141.977,-71.6873C188.776,-74.6526 251.82,-85.8987 293.689,-122 347.738,-168.602 363.943,-258.57 368.511,-296.945"/>
<text text-anchor="middle" x="234.689" y="-124.6" font-family="Times New Roman,serif" font-size="8.00">ManagedRepresentationReference</text>
</g>
<!-- VariableRepresentationType -->
<g id="ReusableTypeVariableRepresentationType3" class="node"><title></title><ellipse fill="#f7b733" stroke="black" cx="78.8447" cy="-18" rx="65.5975" ry="18" style="filter: url(#dropshadow)"/>
<text text-anchor="middle" x="78.8447" y="-16.1" font-family="Times New Roman,serif" font-size="8.00">VariableRepresentationType</text>
</g>
<!-- VariableRepresentationType&#45;&gt;ManagedRepresentation -->
<g id="edge12" class="edge"><title>VariableRepresentationType&#45;&gt;ManagedRepresentation</title>
<path fill="none" stroke="black" d="M143.68,-14.7623C190.761,-15.8736 253.385,-25.1948 293.689,-62 363.323,-125.588 370.457,-250.116 370.562,-296.772"/>
<text text-anchor="middle" x="234.689" y="-64.6" font-family="Times New Roman,serif" font-size="8.00">ValueRepresentationReference</text>
</g>
</g>
</svg>
