<?xml version="1.0" encoding="UTF-8" standalone="no"?>
<!DOCTYPE svg PUBLIC "-//W3C//DTD SVG 1.1//EN"
 "http://www.w3.org/Graphics/SVG/1.1/DTD/svg11.dtd">
<!-- Generated by graphviz version 2.38.0 (20140413.2041)
 -->
<!-- Title: G Pages: 1 -->
<svg width="2570pt" height="756pt"
 viewBox="0.00 0.00 2570.12 756.00" xmlns="http://www.w3.org/2000/svg" xmlns:xlink="http://www.w3.org/1999/xlink">
<filter id = "dropshadow" height = "130%" ><feGaussianBlur in= "SourceAlpha" stdDeviation = "3"/><!--stdDeviation is how much to blur--><feOffset dx = "2" dy = "2" result = "offsetblur"/><!--how much to offset--><feMerge><feMergeNode/><!--this contains the offset blurred image--><feMergeNode in= "SourceGraphic"/><!--this contains the element that the filter is applied to --></feMerge></filter>
<g id="graph0" class="graph" transform="scale(1 1) rotate(0) translate(4 752)">
<title>G</title>
<g id="clust1" class="cluster"><title>clusterMeasurementItem</title>
<polygon fill="#4abdac" stroke="black" points="247.118,-246 247.118,-740 2554.12,-740 2554.12,-246 247.118,-246" style="filter: url(#dropshadow)"/>
<text text-anchor="middle" x="1400.62" y="-729.6" font-family="Times New Roman,serif" font-size="8.00">MeasurementItem</text>
</g>
<!-- MeasurementItemProperties -->
<g id="ItemTypeMeasurementItemProperties" class="node"><title></title><polygon fill="#f7b733" stroke="black" points="255.118,-314.5 255.118,-493.5 607.118,-493.5 607.118,-314.5 255.118,-314.5" style="filter: url(#dropshadow)"/>
<text text-anchor="middle" x="281.618" y="-402.1" font-family="Times New Roman,serif" font-size="8.00">Properties</text>
<polyline fill="none" stroke="black" points="308.118,-314.5 308.118,-493.5 "/>
<text text-anchor="start" x="316.118" y="-483.1" font-family="Times New Roman,serif" font-size="8.00">MeasurementItemName : NameType[0...n] </text>
<text text-anchor="start" x="316.118" y="-474.1" font-family="Times New Roman,serif" font-size="8.00">Label : LabelType[0...n] </text>
<text text-anchor="start" x="316.118" y="-465.1" font-family="Times New Roman,serif" font-size="8.00">Description : StructuredStringType[0...1] </text>
<text text-anchor="start" x="316.118" y="-456.1" font-family="Times New Roman,serif" font-size="8.00">InParameter : InParameterType[0...n] </text>
<text text-anchor="start" x="316.118" y="-447.1" font-family="Times New Roman,serif" font-size="8.00">OutParameter : ParameterType[0...n] </text>
<text text-anchor="start" x="316.118" y="-438.1" font-family="Times New Roman,serif" font-size="8.00">Binding : BindingType[0...n] </text>
<text text-anchor="start" x="316.118" y="-429.1" font-family="Times New Roman,serif" font-size="8.00">TypeOfMeasurementItem : CodeValueType[0...n] </text>
<text text-anchor="start" x="316.118" y="-420.1" font-family="Times New Roman,serif" font-size="8.00">MeasurementItemIntent : StructuredStringType[0...1] </text>
<text text-anchor="start" x="316.118" y="-411.1" font-family="Times New Roman,serif" font-size="8.00">ResponseDomain : RepresentationType[0...1] </text>
<text text-anchor="start" x="316.118" y="-402.1" font-family="Times New Roman,serif" font-size="8.00">ResponseDomainReference : ManagedRepresentation[0...1] </text>
<text text-anchor="start" x="316.118" y="-393.1" font-family="Times New Roman,serif" font-size="8.00">StructuredMixedResponseDomain : StructuredMixedResponseDomainType[0...1] </text>
<text text-anchor="start" x="316.118" y="-384.1" font-family="Times New Roman,serif" font-size="8.00">ResponseCardinality : ResponseCardinalityType[0...1] </text>
<text text-anchor="start" x="316.118" y="-375.1" font-family="Times New Roman,serif" font-size="8.00">ConceptReference : Concept[0...n] </text>
<text text-anchor="start" x="316.118" y="-366.1" font-family="Times New Roman,serif" font-size="8.00">ExternalAid : ExternalAidType[0...n] </text>
<text text-anchor="start" x="316.118" y="-357.1" font-family="Times New Roman,serif" font-size="8.00">ExternalInterviewerInstruction : ExternalInterviewerInstructionType[0...1] </text>
<text text-anchor="start" x="316.118" y="-348.1" font-family="Times New Roman,serif" font-size="8.00">InterviewerInstructionReference : Instruction[0...1] </text>
<text text-anchor="start" x="316.118" y="-339.1" font-family="Times New Roman,serif" font-size="8.00">RepresentedVariableReference : RepresentedVariable[0...n] </text>
<text text-anchor="start" x="316.118" y="-330.1" font-family="Times New Roman,serif" font-size="8.00">DevelopmentResultsReference : DevelopmentResults[0...n] </text>
<text text-anchor="start" x="316.118" y="-321.1" font-family="Times New Roman,serif" font-size="8.00">EstimatedSecondsResponseTime : decimal[0...1] </text>
</g>
<!-- MeasurementItemNameType -->
<g id="ReusableTypeMeasurementItemNameType" class="node"><title></title><polygon fill="#fc4a1a" stroke="black" points="1942.62,-448 1942.62,-484 2111.62,-484 2111.62,-448 1942.62,-448" style="filter: url(#dropshadow)"/>
<text text-anchor="middle" x="1970.62" y="-464.1" font-family="Times New Roman,serif" font-size="8.00">NameType</text>
<polyline fill="none" stroke="black" points="1998.62,-448 1998.62,-484 "/>
<text text-anchor="start" x="2006.62" y="-468.6" font-family="Times New Roman,serif" font-size="8.00">IsPreferred : boolean[0...1] </text>
<text text-anchor="start" x="2006.62" y="-459.6" font-family="Times New Roman,serif" font-size="8.00">Context : string[0...1] </text>
</g>
<!-- MeasurementItemProperties&#45;&gt;MeasurementItemNameType -->
<g id="edge1" class="edge"><title>MeasurementItemProperties&#45;&gt;MeasurementItemNameType</title>
<path fill="none" stroke="black" d="M607.319,-420.34C656.695,-424.423 710.478,-428.381 760.118,-431 1198.29,-454.12 1308.57,-439.461 1747.12,-454 1812.78,-456.177 1887.09,-459.411 1942.51,-461.974"/>
<text text-anchor="middle" x="1316.62" y="-449.6" font-family="Times New Roman,serif" font-size="8.00">MeasurementItemName</text>
</g>
<!-- MeasurementItemLabelType -->
<g id="ReusableTypeMeasurementItemLabelType" class="node"><title></title><polygon fill="#fc4a1a" stroke="black" points="1211.12,-352.5 1211.12,-405.5 1422.12,-405.5 1422.12,-352.5 1211.12,-352.5" style="filter: url(#dropshadow)"/>
<text text-anchor="middle" x="1238.12" y="-377.1" font-family="Times New Roman,serif" font-size="8.00">LabelType</text>
<polyline fill="none" stroke="black" points="1265.12,-352.5 1265.12,-405.5 "/>
<text text-anchor="start" x="1273.12" y="-395.1" font-family="Times New Roman,serif" font-size="8.00">TypeOfLabel : CodeValueType[0...1] </text>
<text text-anchor="start" x="1273.12" y="-386.1" font-family="Times New Roman,serif" font-size="8.00">LocationVariant : string[0...1] </text>
<text text-anchor="start" x="1273.12" y="-377.1" font-family="Times New Roman,serif" font-size="8.00">ValidForStartDate : cogsDate[0...1] </text>
<text text-anchor="start" x="1273.12" y="-368.1" font-family="Times New Roman,serif" font-size="8.00">ValidForEndDate : cogsDate[0...1] </text>
<text text-anchor="start" x="1273.12" y="-359.1" font-family="Times New Roman,serif" font-size="8.00">MaxLength : nonNegativeInteger[0...1] </text>
</g>
<!-- MeasurementItemProperties&#45;&gt;MeasurementItemLabelType -->
<g id="edge2" class="edge"><title>MeasurementItemProperties&#45;&gt;MeasurementItemLabelType</title>
<path fill="none" stroke="black" d="M607.272,-386.271C656.647,-382.028 710.441,-378.117 760.118,-376 952.388,-367.808 1000.69,-373.644 1193.12,-376 1198.97,-376.072 1204.97,-376.162 1211.04,-376.268"/>
<text text-anchor="middle" x="683.618" y="-387.6" font-family="Times New Roman,serif" font-size="8.00">Label</text>
</g>
<!-- MeasurementItemStructuredStringType -->
<g id="ReusableTypeMeasurementItemStructuredStringType" class="node"><title></title><polygon fill="#fc4a1a" stroke="black" points="1920.62,-529 1920.62,-565 2133.62,-565 2133.62,-529 1920.62,-529" style="filter: url(#dropshadow)"/>
<text text-anchor="middle" x="1965.62" y="-545.1" font-family="Times New Roman,serif" font-size="8.00">StructuredStringType</text>
<polyline fill="none" stroke="black" points="2010.62,-529 2010.62,-565 "/>
<text text-anchor="start" x="2018.62" y="-545.1" font-family="Times New Roman,serif" font-size="8.00">Content : ContentType[0...n] </text>
</g>
<!-- MeasurementItemProperties&#45;&gt;MeasurementItemStructuredStringType -->
<g id="edge3" class="edge"><title>MeasurementItemProperties&#45;&gt;MeasurementItemStructuredStringType</title>
<path fill="none" stroke="black" d="M571.701,-493.507C589.301,-502.889 607.366,-511.66 625.118,-519 682.297,-542.641 698.714,-545.387 760.118,-553 983.286,-580.671 1658.55,-560.273 1920.59,-550.971"/>
<text text-anchor="middle" x="1316.62" y="-568.6" font-family="Times New Roman,serif" font-size="8.00">Description</text>
</g>
<!-- MeasurementItemInParameterType -->
<g id="ReusableTypeMeasurementItemInParameterType" class="node"><title></title><polygon fill="#fc4a1a" stroke="black" points="874.118,-386 874.118,-422 1079.12,-422 1079.12,-386 874.118,-386" style="filter: url(#dropshadow)"/>
<text text-anchor="middle" x="913.618" y="-402.1" font-family="Times New Roman,serif" font-size="8.00">InParameterType</text>
<polyline fill="none" stroke="black" points="953.118,-386 953.118,-422 "/>
<text text-anchor="start" x="961.118" y="-402.1" font-family="Times New Roman,serif" font-size="8.00">LimitArrayIndex : string[0...1] </text>
</g>
<!-- MeasurementItemProperties&#45;&gt;MeasurementItemInParameterType -->
<g id="edge4" class="edge"><title>MeasurementItemProperties&#45;&gt;MeasurementItemInParameterType</title>
<path fill="none" stroke="black" d="M607.451,-404C695.556,-404 799.197,-404 874.03,-404"/>
<text text-anchor="middle" x="683.618" y="-406.6" font-family="Times New Roman,serif" font-size="8.00">InParameter</text>
</g>
<!-- MeasurementItemParameterType -->
<g id="ReusableTypeMeasurementItemParameterType" class="node"><title></title><polygon fill="#fc4a1a" stroke="black" points="1440.12,-463.5 1440.12,-534.5 1747.12,-534.5 1747.12,-463.5 1440.12,-463.5" style="filter: url(#dropshadow)"/>
<text text-anchor="middle" x="1475.62" y="-497.1" font-family="Times New Roman,serif" font-size="8.00">ParameterType</text>
<polyline fill="none" stroke="black" points="1511.12,-463.5 1511.12,-534.5 "/>
<text text-anchor="start" x="1519.12" y="-524.1" font-family="Times New Roman,serif" font-size="8.00">ParameterName : NameType[0...n] </text>
<text text-anchor="start" x="1519.12" y="-515.1" font-family="Times New Roman,serif" font-size="8.00">Alias : string[0...1] </text>
<text text-anchor="start" x="1519.12" y="-506.1" font-family="Times New Roman,serif" font-size="8.00">Description : StructuredStringType[0...1] </text>
<text text-anchor="start" x="1519.12" y="-497.1" font-family="Times New Roman,serif" font-size="8.00">ValueRepresentation : RepresentationType[0...1] </text>
<text text-anchor="start" x="1519.12" y="-488.1" font-family="Times New Roman,serif" font-size="8.00">ValueRepresentationReference : ManagedRepresentation[0...1] </text>
<text text-anchor="start" x="1519.12" y="-479.1" font-family="Times New Roman,serif" font-size="8.00">DefaultValue : ValueType[0...1] </text>
<text text-anchor="start" x="1519.12" y="-470.1" font-family="Times New Roman,serif" font-size="8.00">IsArray : boolean[0...1] </text>
</g>
<!-- MeasurementItemProperties&#45;&gt;MeasurementItemParameterType -->
<g id="edge5" class="edge"><title>MeasurementItemProperties&#45;&gt;MeasurementItemParameterType</title>
<path fill="none" stroke="black" d="M607.299,-444.339C613.299,-445.302 619.251,-446.194 625.118,-447 664.658,-452.429 1177.45,-478.395 1439.97,-491.458"/>
<text text-anchor="middle" x="976.618" y="-480.6" font-family="Times New Roman,serif" font-size="8.00">OutParameter</text>
</g>
<!-- MeasurementItemBindingType -->
<g id="ReusableTypeMeasurementItemBindingType" class="node"><title></title><polygon fill="#fc4a1a" stroke="black" points="847.618,-507 847.618,-543 1105.62,-543 1105.62,-507 847.618,-507" style="filter: url(#dropshadow)"/>
<text text-anchor="middle" x="878.618" y="-523.1" font-family="Times New Roman,serif" font-size="8.00">BindingType</text>
<polyline fill="none" stroke="black" points="909.618,-507 909.618,-543 "/>
<text text-anchor="start" x="917.618" y="-527.6" font-family="Times New Roman,serif" font-size="8.00">SourceParameterReference : ParameterType[0...1] </text>
<text text-anchor="start" x="917.618" y="-518.6" font-family="Times New Roman,serif" font-size="8.00">TargetParameterReference : ParameterType[0...1] </text>
</g>
<!-- MeasurementItemProperties&#45;&gt;MeasurementItemBindingType -->
<g id="edge6" class="edge"><title>MeasurementItemProperties&#45;&gt;MeasurementItemBindingType</title>
<path fill="none" stroke="black" d="M607.342,-479.006C613.302,-480.796 619.238,-482.469 625.118,-484 697.451,-502.832 780.444,-513.026 847.509,-518.539"/>
<text text-anchor="middle" x="683.618" y="-508.6" font-family="Times New Roman,serif" font-size="8.00">Binding</text>
</g>
<!-- MeasurementItemCodeValueType -->
<g id="ReusableTypeMeasurementItemCodeValueType" class="node"><title></title><polygon fill="#fc4a1a" stroke="black" points="2287.12,-602.5 2287.12,-673.5 2546.12,-673.5 2546.12,-602.5 2287.12,-602.5" style="filter: url(#dropshadow)"/>
<text text-anchor="middle" x="2322.62" y="-636.1" font-family="Times New Roman,serif" font-size="8.00">CodeValueType</text>
<polyline fill="none" stroke="black" points="2358.12,-602.5 2358.12,-673.5 "/>
<text text-anchor="start" x="2366.12" y="-663.1" font-family="Times New Roman,serif" font-size="8.00">ControlledVocabularyID : string[0...1] </text>
<text text-anchor="start" x="2366.12" y="-654.1" font-family="Times New Roman,serif" font-size="8.00">ControlledVocabularyName : string[0...1] </text>
<text text-anchor="start" x="2366.12" y="-645.1" font-family="Times New Roman,serif" font-size="8.00">ControlledVocabularyAgencyName : string[0...1] </text>
<text text-anchor="start" x="2366.12" y="-636.1" font-family="Times New Roman,serif" font-size="8.00">ControlledVocabularyVersionID : string[0...1] </text>
<text text-anchor="start" x="2366.12" y="-627.1" font-family="Times New Roman,serif" font-size="8.00">OtherValue : string[0...1] </text>
<text text-anchor="start" x="2366.12" y="-618.1" font-family="Times New Roman,serif" font-size="8.00">ControlledVocabularyURN : string[0...1] </text>
<text text-anchor="start" x="2366.12" y="-609.1" font-family="Times New Roman,serif" font-size="8.00">ControlledVocabularySchemeURN : string[0...1] </text>
</g>
<!-- MeasurementItemProperties&#45;&gt;MeasurementItemCodeValueType -->
<g id="edge7" class="edge"><title>MeasurementItemProperties&#45;&gt;MeasurementItemCodeValueType</title>
<path fill="none" stroke="black" d="M471.391,-493.635C503.454,-555.53 554.947,-633.987 625.118,-676 677.003,-707.065 699.776,-689.014 760.118,-693 1383.24,-734.16 1543.32,-736.716 2165.12,-679 2204.94,-675.304 2248.01,-669.076 2287.01,-662.576"/>
<text text-anchor="middle" x="1593.62" y="-725.6" font-family="Times New Roman,serif" font-size="8.00">TypeOfMeasurementItem</text>
</g>
<!-- MeasurementItemRepresentationType -->
<g id="ReusableTypeMeasurementItemRepresentationType" class="node"><title></title><polygon fill="#fc4a1a" stroke="black" points="1889.12,-607 1889.12,-669 2165.12,-669 2165.12,-607 1889.12,-607" style="filter: url(#dropshadow)"/>
<text text-anchor="middle" x="1933.12" y="-636.1" font-family="Times New Roman,serif" font-size="8.00">RepresentationType</text>
<polyline fill="none" stroke="black" points="1977.12,-607 1977.12,-669 "/>
<text text-anchor="start" x="1985.12" y="-658.6" font-family="Times New Roman,serif" font-size="8.00">RecommendedDataType : CodeValueType[0...1] </text>
<text text-anchor="start" x="1985.12" y="-649.6" font-family="Times New Roman,serif" font-size="8.00">GenericOutputFormat : CodeValueType[0...1] </text>
<text text-anchor="start" x="1985.12" y="-640.6" font-family="Times New Roman,serif" font-size="8.00">MeasurementUnit : CodeValueType[0...1] </text>
<text text-anchor="start" x="1985.12" y="-631.6" font-family="Times New Roman,serif" font-size="8.00">MissingValue : string[0...1] </text>
<text text-anchor="start" x="1985.12" y="-622.6" font-family="Times New Roman,serif" font-size="8.00">BlankIsMissingValue : boolean[0...1] </text>
<text text-anchor="start" x="1985.12" y="-613.6" font-family="Times New Roman,serif" font-size="8.00">ClassificationLevel : string[0...1] </text>
</g>
<!-- MeasurementItemProperties&#45;&gt;MeasurementItemRepresentationType -->
<g id="edge8" class="edge"><title>MeasurementItemProperties&#45;&gt;MeasurementItemRepresentationType</title>
<path fill="none" stroke="black" d="M476.871,-493.606C509.976,-550.378 560.48,-620.337 625.118,-660 677.06,-691.872 699.413,-678.646 760.118,-684 951.818,-700.907 1000.75,-689.308 1193.12,-684 1438.34,-677.234 1723.72,-659.285 1888.77,-647.912"/>
<text text-anchor="middle" x="1316.62" y="-685.6" font-family="Times New Roman,serif" font-size="8.00">ResponseDomain</text>
</g>
<!-- ManagedRepresentation -->
<g id="ItemTypeManagedRepresentation0" class="node"><title></title><ellipse fill="#f7b733" stroke="black" cx="2027.12" cy="-197" rx="56.9465" ry="18" style="filter: url(#dropshadow)"/>
<text text-anchor="middle" x="2027.12" y="-195.1" font-family="Times New Roman,serif" font-size="8.00">ManagedRepresentation</text>
</g>
<!-- MeasurementItemProperties&#45;&gt;ManagedRepresentation -->
<g id="edge9" class="edge"><title>MeasurementItemProperties&#45;&gt;ManagedRepresentation</title>
<path fill="none" stroke="black" d="M564.113,-314.422C584.062,-302.908 604.78,-292.014 625.118,-283 682.103,-257.744 698.742,-255.874 760.118,-245 834.732,-231.78 1364.4,-195.891 1440.12,-193 1576.46,-187.794 1610.68,-192.022 1747.12,-193 1824.5,-193.555 1913.95,-194.975 1970.27,-195.964"/>
<text text-anchor="middle" x="1316.62" y="-209.6" font-family="Times New Roman,serif" font-size="8.00">ResponseDomainReference</text>
<text text-anchor="middle" x="1962.27" y="-189.564" font-family="Times New Roman,serif" font-size="8.00">0...*</text>
<text text-anchor="middle" x="556.113" y="-308.022" font-family="Times New Roman,serif" font-size="8.00">0...*</text>
</g>
<!-- MeasurementItemStructuredMixedResponseDomainType -->
<g id="ReusableTypeMeasurementItemStructuredMixedResponseDomainType1" class="node"><title></title><polygon fill="#fc4a1a" stroke="black" points="778.118,-583 778.118,-619 1175.12,-619 1175.12,-583 778.118,-583" style="filter: url(#dropshadow)"/>
<text text-anchor="middle" x="854.118" y="-599.1" font-family="Times New Roman,serif" font-size="8.00">StructuredMixedResponseDomainType</text>
<polyline fill="none" stroke="black" points="930.118,-583 930.118,-619 "/>
<text text-anchor="start" x="938.118" y="-603.6" font-family="Times New Roman,serif" font-size="8.00">ResponseTextSet : ResponseTextSetType[0...1] </text>
<text text-anchor="start" x="938.118" y="-594.6" font-family="Times New Roman,serif" font-size="8.00">ResponseDomainInMixed : ResponseDomainInMixedType[0...1] </text>
</g>
<!-- MeasurementItemProperties&#45;&gt;MeasurementItemStructuredMixedResponseDomainType -->
<g id="edge10" class="edge"><title>MeasurementItemProperties&#45;&gt;MeasurementItemStructuredMixedResponseDomainType</title>
<path fill="none" stroke="black" d="M515.118,-493.873C546.675,-522.438 584.806,-550.999 625.118,-568 672.564,-588.01 726.743,-598.424 778.085,-603.39"/>
<text text-anchor="middle" x="683.618" y="-600.6" font-family="Times New Roman,serif" font-size="8.00">StructuredMixedResponseDomain</text>
<text text-anchor="middle" x="770.085" y="-596.99" font-family="Times New Roman,serif" font-size="8.00">0...*</text>
<text text-anchor="middle" x="507.118" y="-496.473" font-family="Times New Roman,serif" font-size="8.00">0...*</text>
</g>
<!-- MeasurementItemResponseCardinalityType -->
<g id="ReusableTypeMeasurementItemResponseCardinalityType2" class="node"><title></title><polygon fill="#fc4a1a" stroke="black" points="914.118,-638 914.118,-674 1039.12,-674 1039.12,-638 914.118,-638" style="filter: url(#dropshadow)"/>
<text text-anchor="middle" x="967.118" y="-654.1" font-family="Times New Roman,serif" font-size="8.00">ResponseCardinalityType</text>
<polyline fill="none" stroke="black" points="1020.12,-638 1020.12,-674 "/>
<text text-anchor="middle" x="1029.62" y="-654.1" font-family="Times New Roman,serif" font-size="8.00"> </text>
</g>
<!-- MeasurementItemProperties&#45;&gt;MeasurementItemResponseCardinalityType -->
<g id="edge11" class="edge"><title>MeasurementItemProperties&#45;&gt;MeasurementItemResponseCardinalityType</title>
<path fill="none" stroke="black" d="M492.87,-493.763C526.661,-536.391 572.505,-583.845 625.118,-611 717.388,-658.623 840.855,-662.945 913.937,-660.406"/>
<text text-anchor="middle" x="683.618" y="-649.6" font-family="Times New Roman,serif" font-size="8.00">ResponseCardinality</text>
<text text-anchor="middle" x="905.937" y="-654.006" font-family="Times New Roman,serif" font-size="8.00">0...*</text>
<text text-anchor="middle" x="484.87" y="-496.363" font-family="Times New Roman,serif" font-size="8.00">0...*</text>
</g>
<!-- Concept -->
<g id="ItemTypeConcept3" class="node"><title></title><ellipse fill="#f7b733" stroke="black" cx="976.618" cy="-180" rx="27" ry="18" style="filter: url(#dropshadow)"/>
<text text-anchor="middle" x="976.618" y="-178.1" font-family="Times New Roman,serif" font-size="8.00">Concept</text>
</g>
<!-- MeasurementItemProperties&#45;&gt;Concept -->
<g id="edge12" class="edge"><title>MeasurementItemProperties&#45;&gt;Concept</title>
<path fill="none" stroke="black" d="M493.512,-314.311C527.17,-272.812 572.705,-227.395 625.118,-203 736.797,-151.021 890.461,-166.751 950.318,-175.7"/>
<text text-anchor="middle" x="683.618" y="-205.6" font-family="Times New Roman,serif" font-size="8.00">ConceptReference</text>
<text text-anchor="middle" x="942.318" y="-169.3" font-family="Times New Roman,serif" font-size="8.00">0...*</text>
<text text-anchor="middle" x="485.512" y="-307.911" font-family="Times New Roman,serif" font-size="8.00">0...*</text>
</g>
<!-- MeasurementItemExternalAidType -->
<g id="ReusableTypeMeasurementItemExternalAidType4" class="node"><title></title><polygon fill="#fc4a1a" stroke="black" points="847.618,-310 847.618,-346 1105.62,-346 1105.62,-310 847.618,-310" style="filter: url(#dropshadow)"/>
<text text-anchor="middle" x="886.118" y="-326.1" font-family="Times New Roman,serif" font-size="8.00">ExternalAidType</text>
<polyline fill="none" stroke="black" points="924.618,-310 924.618,-346 "/>
<text text-anchor="start" x="932.618" y="-326.1" font-family="Times New Roman,serif" font-size="8.00">OtherMaterialReference : OtherMaterial[0...1] </text>
</g>
<!-- MeasurementItemProperties&#45;&gt;MeasurementItemExternalAidType -->
<g id="edge13" class="edge"><title>MeasurementItemProperties&#45;&gt;MeasurementItemExternalAidType</title>
<path fill="none" stroke="black" d="M607.12,-338.73C613.158,-337.345 619.168,-336.093 625.118,-335 697.849,-321.64 780.494,-319.385 847.26,-320.703"/>
<text text-anchor="middle" x="683.618" y="-337.6" font-family="Times New Roman,serif" font-size="8.00">ExternalAid</text>
<text text-anchor="middle" x="839.26" y="-314.303" font-family="Times New Roman,serif" font-size="8.00">0...*</text>
<text text-anchor="middle" x="615.12" y="-332.33" font-family="Times New Roman,serif" font-size="8.00">0...*</text>
</g>
<!-- MeasurementItemExternalInterviewerInstructionType -->
<g id="ReusableTypeMeasurementItemExternalInterviewerInstructionType5" class="node"><title></title><polygon fill="#fc4a1a" stroke="black" points="760.118,-255 760.118,-291 1193.12,-291 1193.12,-255 760.118,-255" style="filter: url(#dropshadow)"/>
<text text-anchor="middle" x="831.618" y="-271.1" font-family="Times New Roman,serif" font-size="8.00">ExternalInterviewerInstructionType</text>
<polyline fill="none" stroke="black" points="903.118,-255 903.118,-291 "/>
<text text-anchor="start" x="911.118" y="-280.1" font-family="Times New Roman,serif" font-size="8.00">OtherMaterialReference : OtherMaterial[0...1] </text>
<text text-anchor="start" x="911.118" y="-271.1" font-family="Times New Roman,serif" font-size="8.00">InstructionAttachmentLocation : InstructionAttachmentLocationType[0...n] </text>
<text text-anchor="start" x="911.118" y="-262.1" font-family="Times New Roman,serif" font-size="8.00">IsDisplayed : boolean[0...1] </text>
</g>
<!-- MeasurementItemProperties&#45;&gt;MeasurementItemExternalInterviewerInstructionType -->
<g id="edge14" class="edge"><title>MeasurementItemProperties&#45;&gt;MeasurementItemExternalInterviewerInstructionType</title>
<path fill="none" stroke="black" d="M607.294,-315.571C613.255,-313.562 619.207,-311.695 625.118,-310 667.909,-297.732 714.685,-289.449 759.725,-283.876"/>
<text text-anchor="middle" x="683.618" y="-312.6" font-family="Times New Roman,serif" font-size="8.00">ExternalInterviewerInstruction</text>
<text text-anchor="middle" x="751.725" y="-277.476" font-family="Times New Roman,serif" font-size="8.00">0...*</text>
<text text-anchor="middle" x="615.294" y="-309.171" font-family="Times New Roman,serif" font-size="8.00">0...*</text>
</g>
<!-- Instruction -->
<g id="ItemTypeInstruction6" class="node"><title></title><ellipse fill="#f7b733" stroke="black" cx="976.618" cy="-126" rx="31.3964" ry="18" style="filter: url(#dropshadow)"/>
<text text-anchor="middle" x="976.618" y="-124.1" font-family="Times New Roman,serif" font-size="8.00">Instruction</text>
</g>
<!-- MeasurementItemProperties&#45;&gt;Instruction -->
<g id="edge15" class="edge"><title>MeasurementItemProperties&#45;&gt;Instruction</title>
<path fill="none" stroke="black" d="M478.357,-314.48C511.486,-260.116 561.455,-194.708 625.118,-160 731.399,-102.057 882.948,-113.406 946.163,-121.522"/>
<text text-anchor="middle" x="683.618" y="-162.6" font-family="Times New Roman,serif" font-size="8.00">InterviewerInstructionReference</text>
<text text-anchor="middle" x="938.163" y="-115.122" font-family="Times New Roman,serif" font-size="8.00">0...*</text>
<text text-anchor="middle" x="470.357" y="-308.08" font-family="Times New Roman,serif" font-size="8.00">0...*</text>
</g>
<!-- RepresentedVariable -->
<g id="ItemTypeRepresentedVariable7" class="node"><title></title><ellipse fill="#f7b733" stroke="black" cx="976.618" cy="-72" rx="48.5642" ry="18" style="filter: url(#dropshadow)"/>
<text text-anchor="middle" x="976.618" y="-70.1" font-family="Times New Roman,serif" font-size="8.00">RepresentedVariable</text>
</g>
<!-- MeasurementItemProperties&#45;&gt;RepresentedVariable -->
<g id="edge16" class="edge"><title>MeasurementItemProperties&#45;&gt;RepresentedVariable</title>
<path fill="none" stroke="black" d="M466.233,-314.275C496.993,-246.523 549.152,-157.53 625.118,-111 721.185,-52.1573 860.225,-57.7535 930.835,-65.5559"/>
<text text-anchor="middle" x="683.618" y="-113.6" font-family="Times New Roman,serif" font-size="8.00">RepresentedVariableReference</text>
<text text-anchor="middle" x="922.835" y="-59.1559" font-family="Times New Roman,serif" font-size="8.00">0...*</text>
<text text-anchor="middle" x="458.233" y="-307.875" font-family="Times New Roman,serif" font-size="8.00">0...*</text>
</g>
<!-- DevelopmentResults -->
<g id="ItemTypeDevelopmentResults8" class="node"><title></title><ellipse fill="#f7b733" stroke="black" cx="976.618" cy="-18" rx="49.8323" ry="18" style="filter: url(#dropshadow)"/>
<text text-anchor="middle" x="976.618" y="-16.1" font-family="Times New Roman,serif" font-size="8.00">DevelopmentResults</text>
</g>
<!-- MeasurementItemProperties&#45;&gt;DevelopmentResults -->
<g id="edge17" class="edge"><title>MeasurementItemProperties&#45;&gt;DevelopmentResults</title>
<path fill="none" stroke="black" d="M456.343,-314.178C483.333,-232.759 535.439,-116.658 625.118,-57 719.17,5.56705 859.709,-1.79333 930.877,-10.7854"/>
<text text-anchor="middle" x="683.618" y="-59.6" font-family="Times New Roman,serif" font-size="8.00">DevelopmentResultsReference</text>
<text text-anchor="middle" x="922.877" y="-4.38544" font-family="Times New Roman,serif" font-size="8.00">0...*</text>
<text text-anchor="middle" x="448.343" y="-307.778" font-family="Times New Roman,serif" font-size="8.00">0...*</text>
</g>
<!-- MeasurementItemLabelType&#45;&gt;MeasurementItemCodeValueType -->
<g id="edge18" class="edge"><title>MeasurementItemLabelType&#45;&gt;MeasurementItemCodeValueType</title>
<path fill="none" stroke="black" d="M1422.36,-366.868C1586.84,-352.018 1912.95,-339.717 2165.12,-438 2256.64,-473.669 2341.03,-555.223 2384.63,-602.436"/>
<text text-anchor="middle" x="1818.12" y="-372.6" font-family="Times New Roman,serif" font-size="8.00">TypeOfLabel</text>
<text text-anchor="middle" x="2376.63" y="-596.036" font-family="Times New Roman,serif" font-size="8.00">0...*</text>
<text text-anchor="middle" x="1430.36" y="-360.468" font-family="Times New Roman,serif" font-size="8.00">0...*</text>
</g>
<!-- MeasurementItemParameterType&#45;&gt;MeasurementItemNameType -->
<g id="edge19" class="edge"><title>MeasurementItemParameterType&#45;&gt;MeasurementItemNameType</title>
<path fill="none" stroke="black" d="M1747.36,-487.319C1812.94,-482.304 1887.03,-476.637 1942.34,-472.407"/>
<text text-anchor="middle" x="1818.12" y="-487.6" font-family="Times New Roman,serif" font-size="8.00">ParameterName</text>
<text text-anchor="middle" x="1934.34" y="-466.007" font-family="Times New Roman,serif" font-size="8.00">0...*</text>
<text text-anchor="middle" x="1755.36" y="-480.919" font-family="Times New Roman,serif" font-size="8.00">0...*</text>
</g>
<!-- MeasurementItemParameterType&#45;&gt;MeasurementItemStructuredStringType -->
<g id="edge20" class="edge"><title>MeasurementItemParameterType&#45;&gt;MeasurementItemStructuredStringType</title>
<path fill="none" stroke="black" d="M1747.36,-515.991C1804.57,-522.355 1868.27,-529.441 1920.32,-535.231"/>
<text text-anchor="middle" x="1818.12" y="-530.6" font-family="Times New Roman,serif" font-size="8.00">Description</text>
<text text-anchor="middle" x="1912.32" y="-528.831" font-family="Times New Roman,serif" font-size="8.00">0...*</text>
<text text-anchor="middle" x="1755.36" y="-509.591" font-family="Times New Roman,serif" font-size="8.00">0...*</text>
</g>
<!-- MeasurementItemParameterType&#45;&gt;MeasurementItemRepresentationType -->
<g id="edge21" class="edge"><title>MeasurementItemParameterType&#45;&gt;MeasurementItemRepresentationType</title>
<path fill="none" stroke="black" d="M1704.9,-534.525C1774.32,-556.886 1863.05,-585.471 1929.66,-606.928"/>
<text text-anchor="middle" x="1818.12" y="-587.6" font-family="Times New Roman,serif" font-size="8.00">ValueRepresentation</text>
<text text-anchor="middle" x="1921.66" y="-600.528" font-family="Times New Roman,serif" font-size="8.00">0...*</text>
<text text-anchor="middle" x="1696.9" y="-537.125" font-family="Times New Roman,serif" font-size="8.00">0...*</text>
</g>
<!-- MeasurementItemParameterType&#45;&gt;ManagedRepresentation -->
<g id="edge22" class="edge"><title>MeasurementItemParameterType&#45;&gt;ManagedRepresentation</title>
<path fill="none" stroke="black" d="M1626.47,-463.21C1677.08,-408.36 1781.19,-303.427 1889.12,-242 1917.51,-225.839 1952.56,-214.461 1980.1,-207.189"/>
<text text-anchor="middle" x="1818.12" y="-331.6" font-family="Times New Roman,serif" font-size="8.00">ValueRepresentationReference</text>
<text text-anchor="middle" x="1972.1" y="-209.789" font-family="Times New Roman,serif" font-size="8.00">0...*</text>
<text text-anchor="middle" x="1618.47" y="-456.81" font-family="Times New Roman,serif" font-size="8.00">0...*</text>
</g>
<!-- MeasurementItemBindingType&#45;&gt;MeasurementItemParameterType -->
<g id="edge23" class="edge"><title>MeasurementItemBindingType&#45;&gt;MeasurementItemParameterType</title>
<path fill="none" stroke="black" d="M1106.03,-521.146C1194.82,-518.293 1315.67,-514.037 1422.12,-509 1427.89,-508.727 1433.78,-508.437 1439.72,-508.135"/>
<text text-anchor="middle" x="1316.62" y="-519.6" font-family="Times New Roman,serif" font-size="8.00">SourceParameterReference</text>
<text text-anchor="middle" x="1431.72" y="-501.735" font-family="Times New Roman,serif" font-size="8.00">0...*</text>
<text text-anchor="middle" x="1114.03" y="-514.746" font-family="Times New Roman,serif" font-size="8.00">0...*</text>
</g>
<!-- MeasurementItemBindingType&#45;&gt;MeasurementItemParameterType -->
<g id="edge24" class="edge"><title>MeasurementItemBindingType&#45;&gt;MeasurementItemParameterType</title>
<path fill="none" stroke="black" d="M1105.89,-508.841C1140.03,-505.205 1176.92,-501.87 1211.12,-500 1286.35,-495.885 1370.04,-495.23 1439.83,-495.772"/>
<text text-anchor="middle" x="1316.62" y="-502.6" font-family="Times New Roman,serif" font-size="8.00">TargetParameterReference</text>
<text text-anchor="middle" x="1431.83" y="-489.372" font-family="Times New Roman,serif" font-size="8.00">0...*</text>
<text text-anchor="middle" x="1113.89" y="-502.441" font-family="Times New Roman,serif" font-size="8.00">0...*</text>
</g>
<!-- MeasurementItemRepresentationType&#45;&gt;MeasurementItemCodeValueType -->
<g id="edge25" class="edge"><title>MeasurementItemRepresentationType&#45;&gt;MeasurementItemCodeValueType</title>
<path fill="none" stroke="black" d="M2165.24,-609.083C2171.27,-608.284 2177.25,-607.581 2183.12,-607 2221.15,-603.234 2231.1,-603.022 2269.12,-607 2274.94,-607.609 2280.86,-608.35 2286.83,-609.196"/>
<text text-anchor="middle" x="2226.12" y="-609.6" font-family="Times New Roman,serif" font-size="8.00">RecommendedDataType</text>
<text text-anchor="middle" x="2278.83" y="-602.796" font-family="Times New Roman,serif" font-size="8.00">0...*</text>
<text text-anchor="middle" x="2173.24" y="-602.683" font-family="Times New Roman,serif" font-size="8.00">0...*</text>
</g>
<!-- MeasurementItemRepresentationType&#45;&gt;MeasurementItemCodeValueType -->
<g id="edge26" class="edge"><title>MeasurementItemRepresentationType&#45;&gt;MeasurementItemCodeValueType</title>
<path fill="none" stroke="black" d="M2165.28,-638C2204.91,-638 2247.99,-638 2287.07,-638"/>
<text text-anchor="middle" x="2226.12" y="-640.6" font-family="Times New Roman,serif" font-size="8.00">GenericOutputFormat</text>
<text text-anchor="middle" x="2279.07" y="-631.6" font-family="Times New Roman,serif" font-size="8.00">0...*</text>
<text text-anchor="middle" x="2173.28" y="-631.6" font-family="Times New Roman,serif" font-size="8.00">0...*</text>
</g>
<!-- MeasurementItemRepresentationType&#45;&gt;MeasurementItemCodeValueType -->
<g id="edge27" class="edge"><title>MeasurementItemRepresentationType&#45;&gt;MeasurementItemCodeValueType</title>
<path fill="none" stroke="black" d="M2165.44,-647.33C2171.41,-647.587 2177.32,-647.813 2183.12,-648 2221.32,-649.231 2230.92,-649.302 2269.12,-648 2274.98,-647.8 2280.97,-647.556 2287.02,-647.276"/>
<text text-anchor="middle" x="2226.12" y="-650.6" font-family="Times New Roman,serif" font-size="8.00">MeasurementUnit</text>
<text text-anchor="middle" x="2279.02" y="-640.876" font-family="Times New Roman,serif" font-size="8.00">0...*</text>
<text text-anchor="middle" x="2173.44" y="-640.93" font-family="Times New Roman,serif" font-size="8.00">0...*</text>
</g>
<!-- OtherMaterial -->
<g id="ItemTypeOtherMaterial9" class="node"><title></title><ellipse fill="#f7b733" stroke="black" cx="1593.62" cy="-220" rx="37.3742" ry="18" style="filter: url(#dropshadow)"/>
<text text-anchor="middle" x="1593.62" y="-218.1" font-family="Times New Roman,serif" font-size="8.00">OtherMaterial</text>
</g>
<!-- MeasurementItemExternalAidType&#45;&gt;OtherMaterial -->
<g id="edge28" class="edge"><title>MeasurementItemExternalAidType&#45;&gt;OtherMaterial</title>
<path fill="none" stroke="black" d="M1105.87,-311.726C1134.59,-307.973 1164.91,-303.927 1193.12,-300 1295.03,-285.815 1333.73,-318.667 1422.12,-266 1433.57,-259.175 1428.65,-248.801 1440.12,-242 1475.67,-220.919 1523.85,-217.27 1556.47,-217.691"/>
<text text-anchor="middle" x="1316.62" y="-300.6" font-family="Times New Roman,serif" font-size="8.00">OtherMaterialReference</text>
<text text-anchor="middle" x="1548.47" y="-211.291" font-family="Times New Roman,serif" font-size="8.00">0...*</text>
<text text-anchor="middle" x="1113.87" y="-305.326" font-family="Times New Roman,serif" font-size="8.00">0...*</text>
</g>
<!-- MeasurementItemExternalInterviewerInstructionType&#45;&gt;OtherMaterial -->
<g id="edge29" class="edge"><title>MeasurementItemExternalInterviewerInstructionType&#45;&gt;OtherMaterial</title>
<path fill="none" stroke="black" d="M1186.69,-254.983C1321.8,-243.339 1485.25,-229.253 1556.5,-223.113"/>
<text text-anchor="middle" x="1316.62" y="-255.6" font-family="Times New Roman,serif" font-size="8.00">OtherMaterialReference</text>
<text text-anchor="middle" x="1548.5" y="-225.713" font-family="Times New Roman,serif" font-size="8.00">0...*</text>
<text text-anchor="middle" x="1178.69" y="-248.583" font-family="Times New Roman,serif" font-size="8.00">0...*</text>
</g>
<!-- GenerationInstruction -->
<g id="ItemTypeGenerationInstruction0" class="node"><title></title><ellipse fill="#f7b733" stroke="black" cx="59.559" cy="-539" rx="52.5056" ry="18" style="filter: url(#dropshadow)"/>
<text text-anchor="middle" x="59.559" y="-537.1" font-family="Times New Roman,serif" font-size="8.00">GenerationInstruction</text>
</g>
<!-- GenerationInstruction&#45;&gt;MeasurementItemProperties -->
<g id="edge30" class="edge"><title>GenerationInstruction&#45;&gt;MeasurementItemProperties</title>
<path fill="none" stroke="black" d="M98.9902,-526.802C134.892,-515.255 189.889,-497.177 237.118,-480 240.584,-478.739 244.082,-477.458 247.603,-476.159"/>
<text text-anchor="middle" x="187.118" y="-514.6" font-family="Times New Roman,serif" font-size="8.00">InputMeasurementReference</text>
<text text-anchor="middle" x="239.603" y="-469.759" font-family="Times New Roman,serif" font-size="8.00">0...*</text>
<text text-anchor="middle" x="106.99" y="-520.402" font-family="Times New Roman,serif" font-size="8.00">0...*</text>
</g>
<!-- MeasurementConstruct -->
<g id="ItemTypeMeasurementConstruct1" class="node"><title></title><ellipse fill="#f7b733" stroke="black" cx="59.559" cy="-485" rx="55.0423" ry="18" style="filter: url(#dropshadow)"/>
<text text-anchor="middle" x="59.559" y="-483.1" font-family="Times New Roman,serif" font-size="8.00">MeasurementConstruct</text>
</g>
<!-- MeasurementConstruct&#45;&gt;MeasurementItemProperties -->
<g id="edge31" class="edge"><title>MeasurementConstruct&#45;&gt;MeasurementItemProperties</title>
<path fill="none" stroke="black" d="M105.874,-475.068C141.862,-467.18 194.724,-455.594 247.367,-444.055"/>
<text text-anchor="middle" x="187.118" y="-469.6" font-family="Times New Roman,serif" font-size="8.00">MeasurementReference</text>
<text text-anchor="middle" x="239.367" y="-437.655" font-family="Times New Roman,serif" font-size="8.00">0...*</text>
<text text-anchor="middle" x="113.874" y="-468.668" font-family="Times New Roman,serif" font-size="8.00">0...*</text>
</g>
<!-- MeasurementGroup -->
<g id="ItemTypeMeasurementGroup2" class="node"><title></title><ellipse fill="#f7b733" stroke="black" cx="59.559" cy="-431" rx="47.7948" ry="18" style="filter: url(#dropshadow)"/>
<text text-anchor="middle" x="59.559" y="-429.1" font-family="Times New Roman,serif" font-size="8.00">MeasurementGroup</text>
</g>
<!-- MeasurementGroup&#45;&gt;MeasurementItemProperties -->
<g id="edge32" class="edge"><title>MeasurementGroup&#45;&gt;MeasurementItemProperties</title>
<path fill="none" stroke="black" d="M106.617,-427.635C142.579,-425.008 195.061,-421.173 247.33,-417.354"/>
<text text-anchor="middle" x="187.118" y="-428.6" font-family="Times New Roman,serif" font-size="8.00">MeasurementItemReference</text>
<text text-anchor="middle" x="239.33" y="-410.954" font-family="Times New Roman,serif" font-size="8.00">0...*</text>
<text text-anchor="middle" x="114.617" y="-421.235" font-family="Times New Roman,serif" font-size="8.00">0...*</text>
</g>
<!-- MeasurementScheme -->
<g id="ItemTypeMeasurementScheme3" class="node"><title></title><ellipse fill="#f7b733" stroke="black" cx="59.559" cy="-377" rx="50.4666" ry="18" style="filter: url(#dropshadow)"/>
<text text-anchor="middle" x="59.559" y="-375.1" font-family="Times New Roman,serif" font-size="8.00">MeasurementScheme</text>
</g>
<!-- MeasurementScheme&#45;&gt;MeasurementItemProperties -->
<g id="edge33" class="edge"><title>MeasurementScheme&#45;&gt;MeasurementItemProperties</title>
<path fill="none" stroke="black" d="M109.252,-380.558C145.12,-383.178 196.339,-386.92 247.353,-390.647"/>
<text text-anchor="middle" x="187.118" y="-392.6" font-family="Times New Roman,serif" font-size="8.00">MeasurementItemReference</text>
<text text-anchor="middle" x="239.353" y="-384.247" font-family="Times New Roman,serif" font-size="8.00">0...*</text>
<text text-anchor="middle" x="117.252" y="-374.158" font-family="Times New Roman,serif" font-size="8.00">0...*</text>
</g>
<!-- Variable -->
<g id="ItemTypeVariable4" class="node"><title></title><ellipse fill="#f7b733" stroke="black" cx="59.559" cy="-323" rx="27" ry="18" style="filter: url(#dropshadow)"/>
<text text-anchor="middle" x="59.559" y="-321.1" font-family="Times New Roman,serif" font-size="8.00">Variable</text>
</g>
<!-- Variable&#45;&gt;MeasurementItemProperties -->
<g id="edge34" class="edge"><title>Variable&#45;&gt;MeasurementItemProperties</title>
<path fill="none" stroke="black" d="M85.3806,-328.44C119.36,-335.888 183.446,-349.934 247.231,-363.915"/>
<text text-anchor="middle" x="187.118" y="-364.6" font-family="Times New Roman,serif" font-size="8.00">MeasurementReference</text>
<text text-anchor="middle" x="239.231" y="-357.515" font-family="Times New Roman,serif" font-size="8.00">0...*</text>
<text text-anchor="middle" x="93.3806" y="-322.04" font-family="Times New Roman,serif" font-size="8.00">0...*</text>
</g>
<!-- DevelopmentObjectType -->
<g id="ReusableTypeDevelopmentObjectType5" class="node"><title></title><ellipse fill="#f7b733" stroke="black" cx="59.559" cy="-269" rx="59.618" ry="18" style="filter: url(#dropshadow)"/>
<text text-anchor="middle" x="59.559" y="-267.1" font-family="Times New Roman,serif" font-size="8.00">DevelopmentObjectType</text>
</g>
<!-- DevelopmentObjectType&#45;&gt;MeasurementItemProperties -->
<g id="edge35" class="edge"><title>DevelopmentObjectType&#45;&gt;MeasurementItemProperties</title>
<path fill="none" stroke="black" d="M101.443,-281.987C137.364,-293.558 190.952,-311.21 237.118,-328 240.584,-329.261 244.082,-330.542 247.603,-331.841"/>
<text text-anchor="middle" x="187.118" y="-330.6" font-family="Times New Roman,serif" font-size="8.00">MeasurementReference</text>
<text text-anchor="middle" x="239.603" y="-325.441" font-family="Times New Roman,serif" font-size="8.00">0...*</text>
<text text-anchor="middle" x="93.4432" y="-284.587" font-family="Times New Roman,serif" font-size="8.00">0...*</text>
</g>
</g>
</svg>
