<?xml version="1.0" encoding="UTF-8" standalone="no"?>
<!DOCTYPE svg PUBLIC "-//W3C//DTD SVG 1.1//EN"
 "http://www.w3.org/Graphics/SVG/1.1/DTD/svg11.dtd">
<!-- Generated by graphviz version 2.38.0 (20140413.2041)
 -->
<!-- Title: G Pages: 1 -->
<svg width="1395pt" height="614pt"
 viewBox="0.00 0.00 1395.28 614.00" xmlns="http://www.w3.org/2000/svg" xmlns:xlink="http://www.w3.org/1999/xlink">
<filter id = "dropshadow" height = "130%" ><feGaussianBlur in= "SourceAlpha" stdDeviation = "3"/><!--stdDeviation is how much to blur--><feOffset dx = "2" dy = "2" result = "offsetblur"/><!--how much to offset--><feMerge><feMergeNode/><!--this contains the offset blurred image--><feMergeNode in= "SourceGraphic"/><!--this contains the element that the filter is applied to --></feMerge></filter>
<g id="graph0" class="graph" transform="scale(1 1) rotate(0) translate(4 610)">
<title>G</title>
<g id="clust1" class="cluster"><title>clusterMethodology</title>
<polygon fill="#4abdac" stroke="black" points="188.277,-100 188.277,-598 1379.28,-598 1379.28,-100 188.277,-100" style="filter: url(#dropshadow)"/>
<text text-anchor="middle" x="783.777" y="-587.6" font-family="Times New Roman,serif" font-size="8.00">Methodology</text>
</g>
<!-- MethodologyProperties -->
<g id="ItemTypeMethodologyProperties" class="node"><title></title><polygon fill="#f7b733" stroke="black" points="196.277,-249 196.277,-347 518.277,-347 518.277,-249 196.277,-249" style="filter: url(#dropshadow)"/>
<text text-anchor="middle" x="222.777" y="-296.1" font-family="Times New Roman,serif" font-size="8.00">Properties</text>
<polyline fill="none" stroke="black" points="249.277,-249 249.277,-347 "/>
<text text-anchor="start" x="257.277" y="-336.6" font-family="Times New Roman,serif" font-size="8.00">MethodologyName : NameType[0...n] </text>
<text text-anchor="start" x="257.277" y="-327.6" font-family="Times New Roman,serif" font-size="8.00">Label : LabelType[0...n] </text>
<text text-anchor="start" x="257.277" y="-318.6" font-family="Times New Roman,serif" font-size="8.00">Description : StructuredStringType[0...1] </text>
<text text-anchor="start" x="257.277" y="-309.6" font-family="Times New Roman,serif" font-size="8.00">DataCollectionMethodology : DataCollectionMethodologyType[0...n] </text>
<text text-anchor="start" x="257.277" y="-300.6" font-family="Times New Roman,serif" font-size="8.00">TimeMethod : TimeMethodType[0...n] </text>
<text text-anchor="start" x="257.277" y="-291.6" font-family="Times New Roman,serif" font-size="8.00">WeightingMethodologyReference : WeightingMethodology[0...n] </text>
<text text-anchor="start" x="257.277" y="-282.6" font-family="Times New Roman,serif" font-size="8.00">SamplingProcedure : SamplingProcedureType[0...n] </text>
<text text-anchor="start" x="257.277" y="-273.6" font-family="Times New Roman,serif" font-size="8.00">DeviationFromSampleDesign : DeviationFromSampleDesignType[0...n] </text>
<text text-anchor="start" x="257.277" y="-264.6" font-family="Times New Roman,serif" font-size="8.00">DataCollectionSoftware : SoftwareType[0...n] </text>
<text text-anchor="start" x="257.277" y="-255.6" font-family="Times New Roman,serif" font-size="8.00">QualityStatementReference : QualityStatement[0...n] </text>
</g>
<!-- MethodologyNameType -->
<g id="ReusableTypeMethodologyNameType" class="node"><title></title><polygon fill="#fc4a1a" stroke="black" points="1180.28,-194 1180.28,-230 1349.28,-230 1349.28,-194 1180.28,-194" style="filter: url(#dropshadow)"/>
<text text-anchor="middle" x="1208.28" y="-210.1" font-family="Times New Roman,serif" font-size="8.00">NameType</text>
<polyline fill="none" stroke="black" points="1236.28,-194 1236.28,-230 "/>
<text text-anchor="start" x="1244.28" y="-214.6" font-family="Times New Roman,serif" font-size="8.00">IsPreferred : boolean[0...1] </text>
<text text-anchor="start" x="1244.28" y="-205.6" font-family="Times New Roman,serif" font-size="8.00">Context : string[0...1] </text>
</g>
<!-- MethodologyProperties&#45;&gt;MethodologyNameType -->
<g id="edge1" class="edge"><title>MethodologyProperties&#45;&gt;MethodologyNameType</title>
<path fill="none" stroke="black" d="M483.368,-248.905C540.082,-229.175 608.58,-208.804 672.277,-199 833.93,-174.12 876.791,-194.249 1040.28,-199 1086.61,-200.346 1138.27,-203.259 1180.25,-205.987"/>
<text text-anchor="middle" x="856.277" y="-201.6" font-family="Times New Roman,serif" font-size="8.00">MethodologyName</text>
</g>
<!-- MethodologyLabelType -->
<g id="ReusableTypeMethodologyLabelType" class="node"><title></title><polygon fill="#fc4a1a" stroke="black" points="750.777,-519.5 750.777,-572.5 961.777,-572.5 961.777,-519.5 750.777,-519.5" style="filter: url(#dropshadow)"/>
<text text-anchor="middle" x="777.777" y="-544.1" font-family="Times New Roman,serif" font-size="8.00">LabelType</text>
<polyline fill="none" stroke="black" points="804.777,-519.5 804.777,-572.5 "/>
<text text-anchor="start" x="812.777" y="-562.1" font-family="Times New Roman,serif" font-size="8.00">TypeOfLabel : CodeValueType[0...1] </text>
<text text-anchor="start" x="812.777" y="-553.1" font-family="Times New Roman,serif" font-size="8.00">LocationVariant : string[0...1] </text>
<text text-anchor="start" x="812.777" y="-544.1" font-family="Times New Roman,serif" font-size="8.00">ValidForStartDate : cogsDate[0...1] </text>
<text text-anchor="start" x="812.777" y="-535.1" font-family="Times New Roman,serif" font-size="8.00">ValidForEndDate : cogsDate[0...1] </text>
<text text-anchor="start" x="812.777" y="-526.1" font-family="Times New Roman,serif" font-size="8.00">MaxLength : nonNegativeInteger[0...1] </text>
</g>
<!-- MethodologyProperties&#45;&gt;MethodologyLabelType -->
<g id="edge2" class="edge"><title>MethodologyProperties&#45;&gt;MethodologyLabelType</title>
<path fill="none" stroke="black" d="M391.759,-347.347C423.719,-390.41 475.861,-451.02 536.277,-484 602.14,-519.952 685.669,-535.283 750.732,-541.714"/>
<text text-anchor="middle" x="595.277" y="-527.6" font-family="Times New Roman,serif" font-size="8.00">Label</text>
</g>
<!-- MethodologyStructuredStringType -->
<g id="ReusableTypeMethodologyStructuredStringType" class="node"><title></title><polygon fill="#fc4a1a" stroke="black" points="1158.28,-333 1158.28,-369 1371.28,-369 1371.28,-333 1158.28,-333" style="filter: url(#dropshadow)"/>
<text text-anchor="middle" x="1203.28" y="-349.1" font-family="Times New Roman,serif" font-size="8.00">StructuredStringType</text>
<polyline fill="none" stroke="black" points="1248.28,-333 1248.28,-369 "/>
<text text-anchor="start" x="1256.28" y="-349.1" font-family="Times New Roman,serif" font-size="8.00">Content : ContentType[0...n] </text>
</g>
<!-- MethodologyProperties&#45;&gt;MethodologyStructuredStringType -->
<g id="edge3" class="edge"><title>MethodologyProperties&#45;&gt;MethodologyStructuredStringType</title>
<path fill="none" stroke="black" d="M467.319,-347.068C526.609,-371.032 601.999,-397.199 672.277,-409 833.575,-436.085 878.038,-429.708 1040.28,-409 1099.33,-401.463 1165.08,-383.153 1209.88,-369.106"/>
<text text-anchor="middle" x="856.277" y="-429.6" font-family="Times New Roman,serif" font-size="8.00">Description</text>
</g>
<!-- MethodologyDataCollectionMethodologyType -->
<g id="ReusableTypeMethodologyDataCollectionMethodologyType" class="node"><title></title><polygon fill="#fc4a1a" stroke="black" points="674.777,-464 674.777,-500 1037.78,-500 1037.78,-464 674.777,-464" style="filter: url(#dropshadow)"/>
<text text-anchor="middle" x="741.777" y="-480.1" font-family="Times New Roman,serif" font-size="8.00">DataCollectionMethodologyType</text>
<polyline fill="none" stroke="black" points="808.777,-464 808.777,-500 "/>
<text text-anchor="start" x="816.777" y="-484.6" font-family="Times New Roman,serif" font-size="8.00">TypeOfDataCollectionMethodology : CodeValueType[0...1] </text>
<text text-anchor="start" x="816.777" y="-475.6" font-family="Times New Roman,serif" font-size="8.00">Description : StructuredStringType[0...1] </text>
</g>
<!-- MethodologyProperties&#45;&gt;MethodologyDataCollectionMethodologyType -->
<g id="edge4" class="edge"><title>MethodologyProperties&#45;&gt;MethodologyDataCollectionMethodologyType</title>
<path fill="none" stroke="black" d="M404.423,-347.136C437.803,-379.411 485.759,-419.504 536.277,-441 579.179,-459.255 628.032,-469.964 674.39,-476.107"/>
<text text-anchor="middle" x="595.277" y="-473.6" font-family="Times New Roman,serif" font-size="8.00">DataCollectionMethodology</text>
</g>
<!-- MethodologyTimeMethodType -->
<g id="ReusableTypeMethodologyTimeMethodType" class="node"><title></title><polygon fill="#fc4a1a" stroke="black" points="727.777,-308 727.777,-344 984.777,-344 984.777,-308 727.777,-308" style="filter: url(#dropshadow)"/>
<text text-anchor="middle" x="768.277" y="-324.1" font-family="Times New Roman,serif" font-size="8.00">TimeMethodType</text>
<polyline fill="none" stroke="black" points="808.777,-308 808.777,-344 "/>
<text text-anchor="start" x="816.777" y="-328.6" font-family="Times New Roman,serif" font-size="8.00">TypeOfTimeMethod : CodeValueType[0...1] </text>
<text text-anchor="start" x="816.777" y="-319.6" font-family="Times New Roman,serif" font-size="8.00">Description : StructuredStringType[0...1] </text>
</g>
<!-- MethodologyProperties&#45;&gt;MethodologyTimeMethodType -->
<g id="edge5" class="edge"><title>MethodologyProperties&#45;&gt;MethodologyTimeMethodType</title>
<path fill="none" stroke="black" d="M518.61,-307.033C586.269,-310.845 663.947,-315.221 727.629,-318.809"/>
<text text-anchor="middle" x="595.277" y="-316.6" font-family="Times New Roman,serif" font-size="8.00">TimeMethod</text>
</g>
<!-- WeightingMethodology -->
<g id="ItemTypeWeightingMethodology" class="node"><title></title><ellipse fill="#f7b733" stroke="black" cx="856.277" cy="-72" rx="56.3116" ry="18" style="filter: url(#dropshadow)"/>
<text text-anchor="middle" x="856.277" y="-70.1" font-family="Times New Roman,serif" font-size="8.00">WeightingMethodology</text>
</g>
<!-- MethodologyProperties&#45;&gt;WeightingMethodology -->
<g id="edge6" class="edge"><title>MethodologyProperties&#45;&gt;WeightingMethodology</title>
<path fill="none" stroke="black" d="M399.634,-248.97C433.02,-212.337 483.057,-163.663 536.277,-134 620.178,-87.2375 733.571,-75.2516 800.121,-72.4687"/>
<text text-anchor="middle" x="595.277" y="-136.6" font-family="Times New Roman,serif" font-size="8.00">WeightingMethodologyReference</text>
<text text-anchor="middle" x="792.121" y="-66.0687" font-family="Times New Roman,serif" font-size="8.00">0...*</text>
<text text-anchor="middle" x="391.634" y="-242.57" font-family="Times New Roman,serif" font-size="8.00">0...*</text>
</g>
<!-- MethodologySamplingProcedureType -->
<g id="ReusableTypeMethodologySamplingProcedureType" class="node"><title></title><polygon fill="#fc4a1a" stroke="black" points="707.777,-109 707.777,-153 1004.78,-153 1004.78,-109 707.777,-109" style="filter: url(#dropshadow)"/>
<text text-anchor="middle" x="758.277" y="-129.1" font-family="Times New Roman,serif" font-size="8.00">SamplingProcedureType</text>
<polyline fill="none" stroke="black" points="808.777,-109 808.777,-153 "/>
<text text-anchor="start" x="816.777" y="-142.6" font-family="Times New Roman,serif" font-size="8.00">TypeOfSamplingProcedure : CodeValueType[0...1] </text>
<text text-anchor="start" x="816.777" y="-133.6" font-family="Times New Roman,serif" font-size="8.00">Description : StructuredStringType[0...1] </text>
<text text-anchor="start" x="816.777" y="-124.6" font-family="Times New Roman,serif" font-size="8.00">SamplingPlanReference : SamplingPlan[0...1] </text>
<text text-anchor="start" x="816.777" y="-115.6" font-family="Times New Roman,serif" font-size="8.00">SampleReference : Sample[0...1] </text>
</g>
<!-- MethodologyProperties&#45;&gt;MethodologySamplingProcedureType -->
<g id="edge7" class="edge"><title>MethodologyProperties&#45;&gt;MethodologySamplingProcedureType</title>
<path fill="none" stroke="black" d="M415.322,-248.793C448.467,-222.914 492.275,-193.092 536.277,-176 590.107,-155.091 652.406,-143.728 707.587,-137.612"/>
<text text-anchor="middle" x="595.277" y="-178.6" font-family="Times New Roman,serif" font-size="8.00">SamplingProcedure</text>
<text text-anchor="middle" x="699.587" y="-131.212" font-family="Times New Roman,serif" font-size="8.00">0...*</text>
<text text-anchor="middle" x="407.322" y="-242.393" font-family="Times New Roman,serif" font-size="8.00">0...*</text>
</g>
<!-- MethodologyDeviationFromSampleDesignType -->
<g id="ReusableTypeMethodologyDeviationFromSampleDesignType" class="node"><title></title><polygon fill="#fc4a1a" stroke="black" points="672.277,-363 672.277,-399 1040.28,-399 1040.28,-363 672.277,-363" style="filter: url(#dropshadow)"/>
<text text-anchor="middle" x="740.777" y="-379.1" font-family="Times New Roman,serif" font-size="8.00">DeviationFromSampleDesignType</text>
<polyline fill="none" stroke="black" points="809.277,-363 809.277,-399 "/>
<text text-anchor="start" x="817.277" y="-383.6" font-family="Times New Roman,serif" font-size="8.00">TypeOfDeviationFromSampleDesign : CodeValueType[0...1] </text>
<text text-anchor="start" x="817.277" y="-374.6" font-family="Times New Roman,serif" font-size="8.00">Description : StructuredStringType[0...1] </text>
</g>
<!-- MethodologyProperties&#45;&gt;MethodologyDeviationFromSampleDesignType -->
<g id="edge8" class="edge"><title>MethodologyProperties&#45;&gt;MethodologyDeviationFromSampleDesignType</title>
<path fill="none" stroke="black" d="M518.666,-327.561C567.896,-336.376 622.269,-345.853 672.277,-354 690.82,-357.021 710.444,-360.071 729.688,-362.979"/>
<text text-anchor="middle" x="595.277" y="-351.6" font-family="Times New Roman,serif" font-size="8.00">DeviationFromSampleDesign</text>
<text text-anchor="middle" x="721.688" y="-356.579" font-family="Times New Roman,serif" font-size="8.00">0...*</text>
<text text-anchor="middle" x="526.666" y="-321.161" font-family="Times New Roman,serif" font-size="8.00">0...*</text>
</g>
<!-- MethodologySoftwareType -->
<g id="ReusableTypeMethodologySoftwareType0" class="node"><title></title><polygon fill="#fc4a1a" stroke="black" points="743.277,-217.5 743.277,-288.5 969.277,-288.5 969.277,-217.5 743.277,-217.5" style="filter: url(#dropshadow)"/>
<text text-anchor="middle" x="775.777" y="-251.1" font-family="Times New Roman,serif" font-size="8.00">SoftwareType</text>
<polyline fill="none" stroke="black" points="808.277,-217.5 808.277,-288.5 "/>
<text text-anchor="start" x="816.277" y="-278.1" font-family="Times New Roman,serif" font-size="8.00">SoftwareName : NameType[0...n] </text>
<text text-anchor="start" x="816.277" y="-269.1" font-family="Times New Roman,serif" font-size="8.00">SoftwarePackage : CodeValueType[0...1] </text>
<text text-anchor="start" x="816.277" y="-260.1" font-family="Times New Roman,serif" font-size="8.00">SoftwareVersion : string[0...1] </text>
<text text-anchor="start" x="816.277" y="-251.1" font-family="Times New Roman,serif" font-size="8.00">Description : StructuredStringType[0...1] </text>
<text text-anchor="start" x="816.277" y="-242.1" font-family="Times New Roman,serif" font-size="8.00">Date : DateType[0...1] </text>
<text text-anchor="start" x="816.277" y="-233.1" font-family="Times New Roman,serif" font-size="8.00">Function : CodeValueType[0...n] </text>
<text text-anchor="start" x="816.277" y="-224.1" font-family="Times New Roman,serif" font-size="8.00">Lang : language[0...1] </text>
</g>
<!-- MethodologyProperties&#45;&gt;MethodologySoftwareType -->
<g id="edge9" class="edge"><title>MethodologyProperties&#45;&gt;MethodologySoftwareType</title>
<path fill="none" stroke="black" d="M518.61,-283.483C591.801,-276.856 676.716,-269.168 742.955,-263.17"/>
<text text-anchor="middle" x="595.277" y="-283.6" font-family="Times New Roman,serif" font-size="8.00">DataCollectionSoftware</text>
<text text-anchor="middle" x="734.955" y="-256.77" font-family="Times New Roman,serif" font-size="8.00">0...*</text>
<text text-anchor="middle" x="526.61" y="-277.083" font-family="Times New Roman,serif" font-size="8.00">0...*</text>
</g>
<!-- QualityStatement -->
<g id="ItemTypeQualityStatement1" class="node"><title></title><ellipse fill="#f7b733" stroke="black" cx="856.277" cy="-18" rx="43.8539" ry="18" style="filter: url(#dropshadow)"/>
<text text-anchor="middle" x="856.277" y="-16.1" font-family="Times New Roman,serif" font-size="8.00">QualityStatement</text>
</g>
<!-- MethodologyProperties&#45;&gt;QualityStatement -->
<g id="edge10" class="edge"><title>MethodologyProperties&#45;&gt;QualityStatement</title>
<path fill="none" stroke="black" d="M385.284,-248.802C415.488,-198.461 469.103,-121.739 536.277,-79 622.979,-23.8368 747.909,-16.3004 812.694,-16.5363"/>
<text text-anchor="middle" x="595.277" y="-81.6" font-family="Times New Roman,serif" font-size="8.00">QualityStatementReference</text>
<text text-anchor="middle" x="804.694" y="-10.1363" font-family="Times New Roman,serif" font-size="8.00">0...*</text>
<text text-anchor="middle" x="377.284" y="-242.402" font-family="Times New Roman,serif" font-size="8.00">0...*</text>
</g>
<!-- MethodologyDataCollectionMethodologyType&#45;&gt;MethodologyStructuredStringType -->
<g id="edge11" class="edge"><title>MethodologyDataCollectionMethodologyType&#45;&gt;MethodologyStructuredStringType</title>
<path fill="none" stroke="black" d="M1038.15,-469.149C1072.86,-462.987 1108.32,-454.016 1140.28,-441 1181.8,-424.086 1222.32,-390.281 1245.07,-369.258"/>
<text text-anchor="middle" x="1099.28" y="-465.6" font-family="Times New Roman,serif" font-size="8.00">Description</text>
<text text-anchor="middle" x="1237.07" y="-371.858" font-family="Times New Roman,serif" font-size="8.00">0...*</text>
<text text-anchor="middle" x="1046.15" y="-462.749" font-family="Times New Roman,serif" font-size="8.00">0...*</text>
</g>
<!-- MethodologyTimeMethodType&#45;&gt;MethodologyStructuredStringType -->
<g id="edge12" class="edge"><title>MethodologyTimeMethodType&#45;&gt;MethodologyStructuredStringType</title>
<path fill="none" stroke="black" d="M984.852,-330.478C1033.53,-332.549 1089.5,-335.369 1140.28,-339 1146.08,-339.415 1152.03,-339.876 1158.04,-340.368"/>
<text text-anchor="middle" x="1099.28" y="-341.6" font-family="Times New Roman,serif" font-size="8.00">Description</text>
<text text-anchor="middle" x="1150.04" y="-333.968" font-family="Times New Roman,serif" font-size="8.00">0...*</text>
<text text-anchor="middle" x="992.852" y="-324.078" font-family="Times New Roman,serif" font-size="8.00">0...*</text>
</g>
<!-- MethodologySamplingProcedureType&#45;&gt;MethodologyStructuredStringType -->
<g id="edge13" class="edge"><title>MethodologySamplingProcedureType&#45;&gt;MethodologyStructuredStringType</title>
<path fill="none" stroke="black" d="M1005.04,-149.873C1052.27,-161.802 1102.14,-181.261 1140.28,-213 1151.08,-221.99 1149.43,-228.076 1158.28,-239 1186.51,-273.88 1223.13,-311.214 1244.96,-332.76"/>
<text text-anchor="middle" x="1099.28" y="-215.6" font-family="Times New Roman,serif" font-size="8.00">Description</text>
<text text-anchor="middle" x="1236.96" y="-326.36" font-family="Times New Roman,serif" font-size="8.00">0...*</text>
<text text-anchor="middle" x="1013.04" y="-143.473" font-family="Times New Roman,serif" font-size="8.00">0...*</text>
</g>
<!-- SamplingPlan -->
<g id="ItemTypeSamplingPlan2" class="node"><title></title><ellipse fill="#f7b733" stroke="black" cx="1264.78" cy="-74" rx="36.1063" ry="18" style="filter: url(#dropshadow)"/>
<text text-anchor="middle" x="1264.78" y="-72.1" font-family="Times New Roman,serif" font-size="8.00">SamplingPlan</text>
</g>
<!-- MethodologySamplingProcedureType&#45;&gt;SamplingPlan -->
<g id="edge14" class="edge"><title>MethodologySamplingProcedureType&#45;&gt;SamplingPlan</title>
<path fill="none" stroke="black" d="M1004.9,-110.301C1086.2,-98.9 1180.38,-85.6948 1229.67,-78.7825"/>
<text text-anchor="middle" x="1099.28" y="-105.6" font-family="Times New Roman,serif" font-size="8.00">SamplingPlanReference</text>
<text text-anchor="middle" x="1221.67" y="-72.3825" font-family="Times New Roman,serif" font-size="8.00">0...*</text>
<text text-anchor="middle" x="1012.9" y="-103.901" font-family="Times New Roman,serif" font-size="8.00">0...*</text>
</g>
<!-- Sample -->
<g id="ItemTypeSample3" class="node"><title></title><ellipse fill="#f7b733" stroke="black" cx="1264.78" cy="-20" rx="27" ry="18" style="filter: url(#dropshadow)"/>
<text text-anchor="middle" x="1264.78" y="-18.1" font-family="Times New Roman,serif" font-size="8.00">Sample</text>
</g>
<!-- MethodologySamplingProcedureType&#45;&gt;Sample -->
<g id="edge15" class="edge"><title>MethodologySamplingProcedureType&#45;&gt;Sample</title>
<path fill="none" stroke="black" d="M1004.94,-113.828C1017.24,-109.831 1029.2,-104.951 1040.28,-99 1050.53,-93.4972 1048.46,-86.2338 1058.28,-80 1097.79,-54.9185 1113.36,-60.1429 1158.28,-47 1185.68,-38.9831 1217.46,-31.0299 1238.92,-25.8545"/>
<text text-anchor="middle" x="1099.28" y="-82.6" font-family="Times New Roman,serif" font-size="8.00">SampleReference</text>
<text text-anchor="middle" x="1230.92" y="-19.4545" font-family="Times New Roman,serif" font-size="8.00">0...*</text>
<text text-anchor="middle" x="1012.94" y="-116.428" font-family="Times New Roman,serif" font-size="8.00">0...*</text>
</g>
<!-- MethodologyDeviationFromSampleDesignType&#45;&gt;MethodologyStructuredStringType -->
<g id="edge16" class="edge"><title>MethodologyDeviationFromSampleDesignType&#45;&gt;MethodologyStructuredStringType</title>
<path fill="none" stroke="black" d="M1040.31,-367.492C1080.67,-364.514 1122.1,-361.456 1158.15,-358.795"/>
<text text-anchor="middle" x="1099.28" y="-368.6" font-family="Times New Roman,serif" font-size="8.00">Description</text>
<text text-anchor="middle" x="1150.15" y="-352.395" font-family="Times New Roman,serif" font-size="8.00">0...*</text>
<text text-anchor="middle" x="1048.31" y="-361.092" font-family="Times New Roman,serif" font-size="8.00">0...*</text>
</g>
<!-- MethodologySoftwareType&#45;&gt;MethodologyNameType -->
<g id="edge17" class="edge"><title>MethodologySoftwareType&#45;&gt;MethodologyNameType</title>
<path fill="none" stroke="black" d="M969.431,-241.688C1036.05,-234.968 1119.14,-226.588 1180.04,-220.446"/>
<text text-anchor="middle" x="1099.28" y="-235.6" font-family="Times New Roman,serif" font-size="8.00">SoftwareName</text>
<text text-anchor="middle" x="1172.04" y="-214.046" font-family="Times New Roman,serif" font-size="8.00">0...*</text>
<text text-anchor="middle" x="977.431" y="-235.288" font-family="Times New Roman,serif" font-size="8.00">0...*</text>
</g>
<!-- MethodologySoftwareType&#45;&gt;MethodologyStructuredStringType -->
<g id="edge18" class="edge"><title>MethodologySoftwareType&#45;&gt;MethodologyStructuredStringType</title>
<path fill="none" stroke="black" d="M969.534,-279.906C1021.49,-292.376 1084.04,-307.413 1140.28,-321 1156.26,-324.86 1173.39,-329.015 1189.66,-332.965"/>
<text text-anchor="middle" x="1099.28" y="-323.6" font-family="Times New Roman,serif" font-size="8.00">Description</text>
<text text-anchor="middle" x="1181.66" y="-326.565" font-family="Times New Roman,serif" font-size="8.00">0...*</text>
<text text-anchor="middle" x="977.534" y="-273.506" font-family="Times New Roman,serif" font-size="8.00">0...*</text>
</g>
<!-- DataCollection -->
<g id="ItemTypeDataCollection4" class="node"><title></title><ellipse fill="#f7b733" stroke="black" cx="39.1387" cy="-298" rx="39.278" ry="18" style="filter: url(#dropshadow)"/>
<text text-anchor="middle" x="39.1387" y="-296.1" font-family="Times New Roman,serif" font-size="8.00">DataCollection</text>
</g>
<!-- DataCollection&#45;&gt;MethodologyProperties -->
<g id="edge19" class="edge"><title>DataCollection&#45;&gt;MethodologyProperties</title>
<path fill="none" stroke="black" d="M78.5875,-298C106.781,-298 147.203,-298 188.51,-298"/>
<text text-anchor="middle" x="137.277" y="-300.6" font-family="Times New Roman,serif" font-size="8.00">MethodologyReference</text>
<text text-anchor="middle" x="180.51" y="-291.6" font-family="Times New Roman,serif" font-size="8.00">0...*</text>
<text text-anchor="middle" x="86.5875" y="-291.6" font-family="Times New Roman,serif" font-size="8.00">0...*</text>
</g>
</g>
</svg>
