<?xml version="1.0" encoding="UTF-8" standalone="no"?>
<!DOCTYPE svg PUBLIC "-//W3C//DTD SVG 1.1//EN"
 "http://www.w3.org/Graphics/SVG/1.1/DTD/svg11.dtd">
<!-- Generated by graphviz version 2.38.0 (20140413.2041)
 -->
<!-- Title: G Pages: 1 -->
<svg width="1994pt" height="507pt"
 viewBox="0.00 0.00 1994.37 507.00" xmlns="http://www.w3.org/2000/svg" xmlns:xlink="http://www.w3.org/1999/xlink">
<filter id = "dropshadow" height = "130%" ><feGaussianBlur in= "SourceAlpha" stdDeviation = "3"/><!--stdDeviation is how much to blur--><feOffset dx = "2" dy = "2" result = "offsetblur"/><!--how much to offset--><feMerge><feMergeNode/><!--this contains the offset blurred image--><feMergeNode in= "SourceGraphic"/><!--this contains the element that the filter is applied to --></feMerge></filter>
<g id="graph0" class="graph" transform="scale(1 1) rotate(0) translate(4 503)">
<title>G</title>
<g id="clust1" class="cluster"><title>clusterNCube</title>
<polygon fill="#4abdac" stroke="black" points="190.37,-84 190.37,-443 1978.37,-443 1978.37,-84 190.37,-84" style="filter: url(#dropshadow)"/>
<text text-anchor="middle" x="1084.37" y="-432.6" font-family="Times New Roman,serif" font-size="8.00">NCube</text>
</g>
<!-- NCubeProperties -->
<g id="ItemTypeNCubeProperties" class="node"><title></title><polygon fill="#f7b733" stroke="black" points="198.37,-128.5 198.37,-271.5 447.37,-271.5 447.37,-128.5 198.37,-128.5" style="filter: url(#dropshadow)"/>
<text text-anchor="middle" x="224.87" y="-198.1" font-family="Times New Roman,serif" font-size="8.00">Properties</text>
<polyline fill="none" stroke="black" points="251.37,-128.5 251.37,-271.5 "/>
<text text-anchor="start" x="259.37" y="-261.1" font-family="Times New Roman,serif" font-size="8.00">NCubeName : NameType[0...n] </text>
<text text-anchor="start" x="259.37" y="-252.1" font-family="Times New Roman,serif" font-size="8.00">Label : LabelType[0...n] </text>
<text text-anchor="start" x="259.37" y="-243.1" font-family="Times New Roman,serif" font-size="8.00">Description : StructuredStringType[0...1] </text>
<text text-anchor="start" x="259.37" y="-234.1" font-family="Times New Roman,serif" font-size="8.00">UniverseReference : Universe[0...n] </text>
<text text-anchor="start" x="259.37" y="-225.1" font-family="Times New Roman,serif" font-size="8.00">ImputationReference : ProcessingInstruction[0...1] </text>
<text text-anchor="start" x="259.37" y="-216.1" font-family="Times New Roman,serif" font-size="8.00">SourceUnit : CodeValueType[0...1] </text>
<text text-anchor="start" x="259.37" y="-207.1" font-family="Times New Roman,serif" font-size="8.00">AnalysisUnit : CodeValueType[0...1] </text>
<text text-anchor="start" x="259.37" y="-198.1" font-family="Times New Roman,serif" font-size="8.00">Purpose : StructuredStringType[0...1] </text>
<text text-anchor="start" x="259.37" y="-189.1" font-family="Times New Roman,serif" font-size="8.00">Dimension : DimensionType[0...n] </text>
<text text-anchor="start" x="259.37" y="-180.1" font-family="Times New Roman,serif" font-size="8.00">CoordinateRegion : CoordinateRegionType[0...n] </text>
<text text-anchor="start" x="259.37" y="-171.1" font-family="Times New Roman,serif" font-size="8.00">MeasureDefinition : MeasureDefinitionType[0...n] </text>
<text text-anchor="start" x="259.37" y="-162.1" font-family="Times New Roman,serif" font-size="8.00">Attribute : AttributeType[0...n] </text>
<text text-anchor="start" x="259.37" y="-153.1" font-family="Times New Roman,serif" font-size="8.00">DimensionCount : nonNegativeInteger[0...1] </text>
<text text-anchor="start" x="259.37" y="-144.1" font-family="Times New Roman,serif" font-size="8.00">CellCount : nonNegativeInteger[0...1] </text>
<text text-anchor="start" x="259.37" y="-135.1" font-family="Times New Roman,serif" font-size="8.00">IsClean : boolean[0...1] </text>
</g>
<!-- NCubeNameType -->
<g id="ReusableTypeNCubeNameType" class="node"><title></title><polygon fill="#fc4a1a" stroke="black" points="621.37,-93 621.37,-129 790.37,-129 790.37,-93 621.37,-93" style="filter: url(#dropshadow)"/>
<text text-anchor="middle" x="649.37" y="-109.1" font-family="Times New Roman,serif" font-size="8.00">NameType</text>
<polyline fill="none" stroke="black" points="677.37,-93 677.37,-129 "/>
<text text-anchor="start" x="685.37" y="-113.6" font-family="Times New Roman,serif" font-size="8.00">IsPreferred : boolean[0...1] </text>
<text text-anchor="start" x="685.37" y="-104.6" font-family="Times New Roman,serif" font-size="8.00">Context : string[0...1] </text>
</g>
<!-- NCubeProperties&#45;&gt;NCubeNameType -->
<g id="edge1" class="edge"><title>NCubeProperties&#45;&gt;NCubeNameType</title>
<path fill="none" stroke="black" d="M447.633,-140.398C453.569,-138.411 459.5,-136.595 465.37,-135 516.081,-121.225 574.761,-115.192 621.345,-112.618"/>
<text text-anchor="middle" x="502.37" y="-137.6" font-family="Times New Roman,serif" font-size="8.00">NCubeName</text>
</g>
<!-- NCubeLabelType -->
<g id="ReusableTypeNCubeLabelType" class="node"><title></title><polygon fill="#fc4a1a" stroke="black" points="1416.37,-122.5 1416.37,-175.5 1627.37,-175.5 1627.37,-122.5 1416.37,-122.5" style="filter: url(#dropshadow)"/>
<text text-anchor="middle" x="1443.37" y="-147.1" font-family="Times New Roman,serif" font-size="8.00">LabelType</text>
<polyline fill="none" stroke="black" points="1470.37,-122.5 1470.37,-175.5 "/>
<text text-anchor="start" x="1478.37" y="-165.1" font-family="Times New Roman,serif" font-size="8.00">TypeOfLabel : CodeValueType[0...1] </text>
<text text-anchor="start" x="1478.37" y="-156.1" font-family="Times New Roman,serif" font-size="8.00">LocationVariant : string[0...1] </text>
<text text-anchor="start" x="1478.37" y="-147.1" font-family="Times New Roman,serif" font-size="8.00">ValidForStartDate : cogsDate[0...1] </text>
<text text-anchor="start" x="1478.37" y="-138.1" font-family="Times New Roman,serif" font-size="8.00">ValidForEndDate : cogsDate[0...1] </text>
<text text-anchor="start" x="1478.37" y="-129.1" font-family="Times New Roman,serif" font-size="8.00">MaxLength : nonNegativeInteger[0...1] </text>
</g>
<!-- NCubeProperties&#45;&gt;NCubeLabelType -->
<g id="edge2" class="edge"><title>NCubeProperties&#45;&gt;NCubeLabelType</title>
<path fill="none" stroke="black" d="M447.475,-188.882C482.957,-185.691 521.696,-182.207 557.37,-179 750.258,-161.66 797.898,-148.675 991.37,-140 1134.34,-133.589 1170.29,-136.899 1313.37,-140 1346.81,-140.725 1383.25,-142.106 1416.14,-143.572"/>
<text text-anchor="middle" x="922.87" y="-149.6" font-family="Times New Roman,serif" font-size="8.00">Label</text>
</g>
<!-- NCubeStructuredStringType -->
<g id="ReusableTypeNCubeStructuredStringType" class="node"><title></title><polygon fill="#fc4a1a" stroke="black" points="1415.37,-195 1415.37,-231 1628.37,-231 1628.37,-195 1415.37,-195" style="filter: url(#dropshadow)"/>
<text text-anchor="middle" x="1460.37" y="-211.1" font-family="Times New Roman,serif" font-size="8.00">StructuredStringType</text>
<polyline fill="none" stroke="black" points="1505.37,-195 1505.37,-231 "/>
<text text-anchor="start" x="1513.37" y="-211.1" font-family="Times New Roman,serif" font-size="8.00">Content : ContentType[0...n] </text>
</g>
<!-- NCubeProperties&#45;&gt;NCubeStructuredStringType -->
<g id="edge3" class="edge"><title>NCubeProperties&#45;&gt;NCubeStructuredStringType</title>
<path fill="none" stroke="black" d="M447.47,-202.949C482.951,-203.713 521.692,-204.47 557.37,-205 869.313,-209.635 1238.11,-211.762 1415.36,-212.576"/>
<text text-anchor="middle" x="922.87" y="-212.6" font-family="Times New Roman,serif" font-size="8.00">Description</text>
</g>
<!-- Universe -->
<g id="ItemTypeUniverse" class="node"><title></title><ellipse fill="#f7b733" stroke="black" cx="1521.87" cy="-58" rx="27" ry="18" style="filter: url(#dropshadow)"/>
<text text-anchor="middle" x="1521.87" y="-56.1" font-family="Times New Roman,serif" font-size="8.00">Universe</text>
</g>
<!-- NCubeProperties&#45;&gt;Universe -->
<g id="edge4" class="edge"><title>NCubeProperties&#45;&gt;Universe</title>
<path fill="none" stroke="black" d="M435.761,-128.408C472.915,-108.961 515.515,-91.0483 557.37,-83 923.394,-12.618 1381.92,-45.7896 1494.85,-55.5937"/>
<text text-anchor="middle" x="922.87" y="-48.6" font-family="Times New Roman,serif" font-size="8.00">UniverseReference</text>
<text text-anchor="middle" x="1486.85" y="-49.1937" font-family="Times New Roman,serif" font-size="8.00">0...*</text>
<text text-anchor="middle" x="443.761" y="-122.008" font-family="Times New Roman,serif" font-size="8.00">0...*</text>
</g>
<!-- ProcessingInstruction -->
<g id="ItemTypeProcessingInstruction" class="node"><title></title><ellipse fill="#f7b733" stroke="black" cx="705.87" cy="-18" rx="52.3706" ry="18" style="filter: url(#dropshadow)"/>
<text text-anchor="middle" x="705.87" y="-16.1" font-family="Times New Roman,serif" font-size="8.00">ProcessingInstruction</text>
</g>
<!-- NCubeProperties&#45;&gt;ProcessingInstruction -->
<g id="edge5" class="edge"><title>NCubeProperties&#45;&gt;ProcessingInstruction</title>
<path fill="none" stroke="black" d="M368.998,-128.406C393.386,-96.0575 426.487,-60.7341 465.37,-41 525.526,-10.4689 605.099,-9.30584 655.649,-12.6075"/>
<text text-anchor="middle" x="502.37" y="-43.6" font-family="Times New Roman,serif" font-size="8.00">ImputationReference</text>
<text text-anchor="middle" x="647.649" y="-6.20749" font-family="Times New Roman,serif" font-size="8.00">0...*</text>
<text text-anchor="middle" x="360.998" y="-122.006" font-family="Times New Roman,serif" font-size="8.00">0...*</text>
</g>
<!-- NCubeCodeValueType -->
<g id="ReusableTypeNCubeCodeValueType" class="node"><title></title><polygon fill="#fc4a1a" stroke="black" points="1711.37,-189.5 1711.37,-260.5 1970.37,-260.5 1970.37,-189.5 1711.37,-189.5" style="filter: url(#dropshadow)"/>
<text text-anchor="middle" x="1746.87" y="-223.1" font-family="Times New Roman,serif" font-size="8.00">CodeValueType</text>
<polyline fill="none" stroke="black" points="1782.37,-189.5 1782.37,-260.5 "/>
<text text-anchor="start" x="1790.37" y="-250.1" font-family="Times New Roman,serif" font-size="8.00">ControlledVocabularyID : string[0...1] </text>
<text text-anchor="start" x="1790.37" y="-241.1" font-family="Times New Roman,serif" font-size="8.00">ControlledVocabularyName : string[0...1] </text>
<text text-anchor="start" x="1790.37" y="-232.1" font-family="Times New Roman,serif" font-size="8.00">ControlledVocabularyAgencyName : string[0...1] </text>
<text text-anchor="start" x="1790.37" y="-223.1" font-family="Times New Roman,serif" font-size="8.00">ControlledVocabularyVersionID : string[0...1] </text>
<text text-anchor="start" x="1790.37" y="-214.1" font-family="Times New Roman,serif" font-size="8.00">OtherValue : string[0...1] </text>
<text text-anchor="start" x="1790.37" y="-205.1" font-family="Times New Roman,serif" font-size="8.00">ControlledVocabularyURN : string[0...1] </text>
<text text-anchor="start" x="1790.37" y="-196.1" font-family="Times New Roman,serif" font-size="8.00">ControlledVocabularySchemeURN : string[0...1] </text>
</g>
<!-- NCubeProperties&#45;&gt;NCubeCodeValueType -->
<g id="edge6" class="edge"><title>NCubeProperties&#45;&gt;NCubeCodeValueType</title>
<path fill="none" stroke="black" d="M447.71,-209.024C453.679,-209.374 459.59,-209.702 465.37,-210 887.255,-231.783 992.979,-234.11 1415.37,-241 1510.02,-242.544 1533.77,-244.573 1628.37,-241 1655.23,-239.985 1683.97,-238.248 1711.34,-236.284"/>
<text text-anchor="middle" x="1152.37" y="-241.6" font-family="Times New Roman,serif" font-size="8.00">SourceUnit</text>
<text text-anchor="middle" x="1703.34" y="-229.884" font-family="Times New Roman,serif" font-size="8.00">0...*</text>
<text text-anchor="middle" x="455.71" y="-202.624" font-family="Times New Roman,serif" font-size="8.00">0...*</text>
</g>
<!-- NCubeDimensionType -->
<g id="ReusableTypeNCubeDimensionType" class="node"><title></title><polygon fill="#fc4a1a" stroke="black" points="600.87,-381 600.87,-417 810.87,-417 810.87,-381 600.87,-381" style="filter: url(#dropshadow)"/>
<text text-anchor="middle" x="637.37" y="-397.1" font-family="Times New Roman,serif" font-size="8.00">DimensionType</text>
<polyline fill="none" stroke="black" points="673.87,-381 673.87,-417 "/>
<text text-anchor="start" x="681.87" y="-401.6" font-family="Times New Roman,serif" font-size="8.00">VariableReference : Variable[0...1] </text>
<text text-anchor="start" x="681.87" y="-392.6" font-family="Times New Roman,serif" font-size="8.00">Rank : nonNegativeInteger[1...1] </text>
</g>
<!-- NCubeProperties&#45;&gt;NCubeDimensionType -->
<g id="edge7" class="edge"><title>NCubeProperties&#45;&gt;NCubeDimensionType</title>
<path fill="none" stroke="black" d="M371,-271.536C395.429,-302.956 427.987,-337.335 465.37,-358 506.35,-380.654 556.82,-391.371 600.845,-396.243"/>
<text text-anchor="middle" x="502.37" y="-386.6" font-family="Times New Roman,serif" font-size="8.00">Dimension</text>
<text text-anchor="middle" x="592.845" y="-389.843" font-family="Times New Roman,serif" font-size="8.00">0...*</text>
<text text-anchor="middle" x="363" y="-274.136" font-family="Times New Roman,serif" font-size="8.00">0...*</text>
</g>
<!-- NCubeCoordinateRegionType -->
<g id="ReusableTypeNCubeCoordinateRegionType" class="node"><title></title><polygon fill="#fc4a1a" stroke="black" points="1022.87,-150 1022.87,-194 1281.87,-194 1281.87,-150 1022.87,-150" style="filter: url(#dropshadow)"/>
<text text-anchor="middle" x="1071.87" y="-170.1" font-family="Times New Roman,serif" font-size="8.00">CoordinateRegionType</text>
<polyline fill="none" stroke="black" points="1120.87,-150 1120.87,-194 "/>
<text text-anchor="start" x="1128.87" y="-183.6" font-family="Times New Roman,serif" font-size="8.00">Label : LabelType[0...n] </text>
<text text-anchor="start" x="1128.87" y="-174.6" font-family="Times New Roman,serif" font-size="8.00">UniverseReference : Universe[0...n] </text>
<text text-anchor="start" x="1128.87" y="-165.6" font-family="Times New Roman,serif" font-size="8.00">Description : StructuredStringType[0...1] </text>
<text text-anchor="start" x="1128.87" y="-156.6" font-family="Times New Roman,serif" font-size="8.00">DimensionValue : CohortType[0...n] </text>
</g>
<!-- NCubeProperties&#45;&gt;NCubeCoordinateRegionType -->
<g id="edge8" class="edge"><title>NCubeProperties&#45;&gt;NCubeCoordinateRegionType</title>
<path fill="none" stroke="black" d="M447.755,-195.808C602.403,-190.575 865.626,-181.669 1022.55,-176.359"/>
<text text-anchor="middle" x="705.87" y="-194.6" font-family="Times New Roman,serif" font-size="8.00">CoordinateRegion</text>
<text text-anchor="middle" x="1014.55" y="-169.959" font-family="Times New Roman,serif" font-size="8.00">0...*</text>
<text text-anchor="middle" x="455.755" y="-189.408" font-family="Times New Roman,serif" font-size="8.00">0...*</text>
</g>
<!-- NCubeMeasureDefinitionType -->
<g id="ReusableTypeNCubeMeasureDefinitionType0" class="node"><title></title><polygon fill="#fc4a1a" stroke="black" points="991.37,-335 991.37,-371 1313.37,-371 1313.37,-335 991.37,-335" style="filter: url(#dropshadow)"/>
<text text-anchor="middle" x="1041.37" y="-351.1" font-family="Times New Roman,serif" font-size="8.00">MeasureDefinitionType</text>
<polyline fill="none" stroke="black" points="1091.37,-335 1091.37,-371 "/>
<text text-anchor="start" x="1099.37" y="-355.6" font-family="Times New Roman,serif" font-size="8.00">VariableReference : Variable[0...1] </text>
<text text-anchor="start" x="1099.37" y="-346.6" font-family="Times New Roman,serif" font-size="8.00">AggregationDefinition : AggregationDefinitionType[0...1] </text>
</g>
<!-- NCubeProperties&#45;&gt;NCubeMeasureDefinitionType -->
<g id="edge9" class="edge"><title>NCubeProperties&#45;&gt;NCubeMeasureDefinitionType</title>
<path fill="none" stroke="black" d="M432.37,-271.64C470.356,-293.099 514.309,-314.076 557.37,-326 635.903,-347.746 843.483,-352.939 991.075,-353.725"/>
<text text-anchor="middle" x="705.87" y="-353.6" font-family="Times New Roman,serif" font-size="8.00">MeasureDefinition</text>
<text text-anchor="middle" x="983.075" y="-347.325" font-family="Times New Roman,serif" font-size="8.00">0...*</text>
<text text-anchor="middle" x="440.37" y="-274.24" font-family="Times New Roman,serif" font-size="8.00">0...*</text>
</g>
<!-- NCubeAttributeType -->
<g id="ReusableTypeNCubeAttributeType1" class="node"><title></title><polygon fill="#fc4a1a" stroke="black" points="557.37,-254 557.37,-316 854.37,-316 854.37,-254 557.37,-254" style="filter: url(#dropshadow)"/>
<text text-anchor="middle" x="590.87" y="-283.1" font-family="Times New Roman,serif" font-size="8.00">AttributeType</text>
<polyline fill="none" stroke="black" points="624.37,-254 624.37,-316 "/>
<text text-anchor="start" x="632.37" y="-305.6" font-family="Times New Roman,serif" font-size="8.00">VariableReference : Variable[0...1] </text>
<text text-anchor="start" x="632.37" y="-296.6" font-family="Times New Roman,serif" font-size="8.00">AttachmentValue : string[0...1] </text>
<text text-anchor="start" x="632.37" y="-287.6" font-family="Times New Roman,serif" font-size="8.00">AttachmentRegionReference : CoordinateRegionType[0...1] </text>
<text text-anchor="start" x="632.37" y="-278.6" font-family="Times New Roman,serif" font-size="8.00">MeasureDefinitionReference : MeasureDefinitionType[0...n] </text>
<text text-anchor="start" x="632.37" y="-269.6" font-family="Times New Roman,serif" font-size="8.00">Value : ValueType[0...n] </text>
<text text-anchor="start" x="632.37" y="-260.6" font-family="Times New Roman,serif" font-size="8.00">AttachmentLevel : string[0...1] </text>
</g>
<!-- NCubeProperties&#45;&gt;NCubeAttributeType -->
<g id="edge10" class="edge"><title>NCubeProperties&#45;&gt;NCubeAttributeType</title>
<path fill="none" stroke="black" d="M447.582,-234.706C453.585,-236.199 459.539,-237.639 465.37,-239 494.953,-245.906 526.767,-252.555 557.238,-258.548"/>
<text text-anchor="middle" x="502.37" y="-256.6" font-family="Times New Roman,serif" font-size="8.00">Attribute</text>
<text text-anchor="middle" x="549.238" y="-252.148" font-family="Times New Roman,serif" font-size="8.00">0...*</text>
<text text-anchor="middle" x="455.582" y="-228.306" font-family="Times New Roman,serif" font-size="8.00">0...*</text>
</g>
<!-- NCubeLabelType&#45;&gt;NCubeCodeValueType -->
<g id="edge11" class="edge"><title>NCubeLabelType&#45;&gt;NCubeCodeValueType</title>
<path fill="none" stroke="black" d="M1627.55,-174.096C1654.33,-180.516 1683.43,-187.495 1711.27,-194.167"/>
<text text-anchor="middle" x="1669.87" y="-192.6" font-family="Times New Roman,serif" font-size="8.00">TypeOfLabel</text>
<text text-anchor="middle" x="1703.27" y="-187.767" font-family="Times New Roman,serif" font-size="8.00">0...*</text>
<text text-anchor="middle" x="1635.55" y="-167.696" font-family="Times New Roman,serif" font-size="8.00">0...*</text>
</g>
<!-- Variable -->
<g id="ItemTypeVariable2" class="node"><title></title><ellipse fill="#f7b733" stroke="black" cx="1521.87" cy="-469" rx="27" ry="18" style="filter: url(#dropshadow)"/>
<text text-anchor="middle" x="1521.87" y="-467.1" font-family="Times New Roman,serif" font-size="8.00">Variable</text>
</g>
<!-- NCubeDimensionType&#45;&gt;Variable -->
<g id="edge12" class="edge"><title>NCubeDimensionType&#45;&gt;Variable</title>
<path fill="none" stroke="black" d="M810.994,-401.545C932.043,-405.306 1137.69,-414.175 1313.37,-434 1379.62,-441.476 1456.87,-456.081 1495.76,-463.85"/>
<text text-anchor="middle" x="1152.37" y="-436.6" font-family="Times New Roman,serif" font-size="8.00">VariableReference</text>
<text text-anchor="middle" x="1487.76" y="-457.45" font-family="Times New Roman,serif" font-size="8.00">0...*</text>
<text text-anchor="middle" x="818.994" y="-395.145" font-family="Times New Roman,serif" font-size="8.00">0...*</text>
</g>
<!-- NCubeCoordinateRegionType&#45;&gt;NCubeLabelType -->
<g id="edge13" class="edge"><title>NCubeCoordinateRegionType&#45;&gt;NCubeLabelType</title>
<path fill="none" stroke="black" d="M1281.9,-163.956C1325.78,-161.209 1374.3,-158.173 1416.08,-155.558"/>
<text text-anchor="middle" x="1364.37" y="-163.6" font-family="Times New Roman,serif" font-size="8.00">Label</text>
<text text-anchor="middle" x="1408.08" y="-149.158" font-family="Times New Roman,serif" font-size="8.00">0...*</text>
<text text-anchor="middle" x="1289.9" y="-157.556" font-family="Times New Roman,serif" font-size="8.00">0...*</text>
</g>
<!-- NCubeCoordinateRegionType&#45;&gt;NCubeStructuredStringType -->
<g id="edge15" class="edge"><title>NCubeCoordinateRegionType&#45;&gt;NCubeStructuredStringType</title>
<path fill="none" stroke="black" d="M1281.9,-186.34C1325.47,-191.201 1373.61,-196.571 1415.19,-201.21"/>
<text text-anchor="middle" x="1364.37" y="-201.6" font-family="Times New Roman,serif" font-size="8.00">Description</text>
<text text-anchor="middle" x="1407.19" y="-194.81" font-family="Times New Roman,serif" font-size="8.00">0...*</text>
<text text-anchor="middle" x="1289.9" y="-179.94" font-family="Times New Roman,serif" font-size="8.00">0...*</text>
</g>
<!-- NCubeCoordinateRegionType&#45;&gt;Universe -->
<g id="edge14" class="edge"><title>NCubeCoordinateRegionType&#45;&gt;Universe</title>
<path fill="none" stroke="black" d="M1209.16,-149.993C1261.74,-129.832 1343.04,-100.146 1415.37,-80 1442.41,-72.4699 1473.98,-66.211 1495.49,-62.3189"/>
<text text-anchor="middle" x="1364.37" y="-107.6" font-family="Times New Roman,serif" font-size="8.00">UniverseReference</text>
<text text-anchor="middle" x="1487.49" y="-64.9189" font-family="Times New Roman,serif" font-size="8.00">0...*</text>
<text text-anchor="middle" x="1201.16" y="-143.593" font-family="Times New Roman,serif" font-size="8.00">0...*</text>
</g>
<!-- NCubeMeasureDefinitionType&#45;&gt;Variable -->
<g id="edge16" class="edge"><title>NCubeMeasureDefinitionType&#45;&gt;Variable</title>
<path fill="none" stroke="black" d="M1313.55,-354.148C1344.05,-360.936 1373.76,-372.883 1397.37,-393 1416.62,-409.409 1396.47,-430.18 1415.37,-447 1437.03,-466.281 1471.14,-470.279 1494.68,-470.433"/>
<text text-anchor="middle" x="1364.37" y="-395.6" font-family="Times New Roman,serif" font-size="8.00">VariableReference</text>
<text text-anchor="middle" x="1486.68" y="-473.033" font-family="Times New Roman,serif" font-size="8.00">0...*</text>
<text text-anchor="middle" x="1321.55" y="-347.748" font-family="Times New Roman,serif" font-size="8.00">0...*</text>
</g>
<!-- NCubeAttributeType&#45;&gt;NCubeCoordinateRegionType -->
<g id="edge18" class="edge"><title>NCubeAttributeType&#45;&gt;NCubeCoordinateRegionType</title>
<path fill="none" stroke="black" d="M854.373,-255.251C893.235,-246.771 935.016,-237.079 973.37,-227 1010.44,-217.258 1051.33,-204.75 1084.56,-194.125"/>
<text text-anchor="middle" x="922.87" y="-251.6" font-family="Times New Roman,serif" font-size="8.00">AttachmentRegionReference</text>
<text text-anchor="middle" x="1076.56" y="-196.725" font-family="Times New Roman,serif" font-size="8.00">0...*</text>
<text text-anchor="middle" x="862.373" y="-248.851" font-family="Times New Roman,serif" font-size="8.00">0...*</text>
</g>
<!-- NCubeAttributeType&#45;&gt;NCubeMeasureDefinitionType -->
<g id="edge19" class="edge"><title>NCubeAttributeType&#45;&gt;NCubeMeasureDefinitionType</title>
<path fill="none" stroke="black" d="M854.573,-307.596C912.805,-316.504 978.759,-326.594 1033.68,-334.996"/>
<text text-anchor="middle" x="922.87" y="-327.6" font-family="Times New Roman,serif" font-size="8.00">MeasureDefinitionReference</text>
<text text-anchor="middle" x="1025.68" y="-328.596" font-family="Times New Roman,serif" font-size="8.00">0...*</text>
<text text-anchor="middle" x="862.573" y="-301.196" font-family="Times New Roman,serif" font-size="8.00">0...*</text>
</g>
<!-- NCubeAttributeType&#45;&gt;Variable -->
<g id="edge17" class="edge"><title>NCubeAttributeType&#45;&gt;Variable</title>
<path fill="none" stroke="black" d="M842.129,-316.048C846.31,-317.921 850.402,-319.903 854.37,-322 863.833,-327.002 864.357,-330.904 872.37,-338 925.173,-384.763 926.026,-416.444 991.37,-443 1172.35,-516.55 1417.21,-486.012 1495.62,-473.426"/>
<text text-anchor="middle" x="1152.37" y="-492.6" font-family="Times New Roman,serif" font-size="8.00">VariableReference</text>
<text text-anchor="middle" x="1487.62" y="-467.026" font-family="Times New Roman,serif" font-size="8.00">0...*</text>
<text text-anchor="middle" x="834.129" y="-318.648" font-family="Times New Roman,serif" font-size="8.00">0...*</text>
</g>
<!-- NCubeGroup -->
<g id="ItemTypeNCubeGroup3" class="node"><title></title><ellipse fill="#f7b733" stroke="black" cx="52.185" cy="-254" rx="34.0674" ry="18" style="filter: url(#dropshadow)"/>
<text text-anchor="middle" x="52.185" y="-252.1" font-family="Times New Roman,serif" font-size="8.00">NCubeGroup</text>
</g>
<!-- NCubeGroup&#45;&gt;NCubeProperties -->
<g id="edge20" class="edge"><title>NCubeGroup&#45;&gt;NCubeProperties</title>
<path fill="none" stroke="black" d="M84.2691,-247.753C110.863,-242.408 151.051,-234.331 190.849,-226.332"/>
<text text-anchor="middle" x="151.37" y="-241.6" font-family="Times New Roman,serif" font-size="8.00">NCubeReference</text>
<text text-anchor="middle" x="182.849" y="-219.932" font-family="Times New Roman,serif" font-size="8.00">0...*</text>
<text text-anchor="middle" x="92.2691" y="-241.353" font-family="Times New Roman,serif" font-size="8.00">0...*</text>
</g>
<!-- NCubeScheme -->
<g id="ItemTypeNCubeScheme4" class="node"><title></title><ellipse fill="#f7b733" stroke="black" cx="52.185" cy="-200" rx="36.7401" ry="18" style="filter: url(#dropshadow)"/>
<text text-anchor="middle" x="52.185" y="-198.1" font-family="Times New Roman,serif" font-size="8.00">NCubeScheme</text>
</g>
<!-- NCubeScheme&#45;&gt;NCubeProperties -->
<g id="edge21" class="edge"><title>NCubeScheme&#45;&gt;NCubeProperties</title>
<path fill="none" stroke="black" d="M89.1422,-200C115.619,-200 153.382,-200 190.805,-200"/>
<text text-anchor="middle" x="151.37" y="-202.6" font-family="Times New Roman,serif" font-size="8.00">NCubeReference</text>
<text text-anchor="middle" x="182.805" y="-193.6" font-family="Times New Roman,serif" font-size="8.00">0...*</text>
<text text-anchor="middle" x="97.1422" y="-193.6" font-family="Times New Roman,serif" font-size="8.00">0...*</text>
</g>
<!-- NCubesInRecordType -->
<g id="ReusableTypeNCubesInRecordType5" class="node"><title></title><ellipse fill="#f7b733" stroke="black" cx="52.185" cy="-146" rx="52.3706" ry="18" style="filter: url(#dropshadow)"/>
<text text-anchor="middle" x="52.185" y="-144.1" font-family="Times New Roman,serif" font-size="8.00">NCubesInRecordType</text>
</g>
<!-- NCubesInRecordType&#45;&gt;NCubeProperties -->
<g id="edge22" class="edge"><title>NCubesInRecordType&#45;&gt;NCubeProperties</title>
<path fill="none" stroke="black" d="M97.5529,-154.917C123.258,-160.083 157.096,-166.884 190.672,-173.632"/>
<text text-anchor="middle" x="151.37" y="-174.6" font-family="Times New Roman,serif" font-size="8.00">NCubeReference</text>
<text text-anchor="middle" x="182.672" y="-167.232" font-family="Times New Roman,serif" font-size="8.00">0...*</text>
<text text-anchor="middle" x="105.553" y="-148.517" font-family="Times New Roman,serif" font-size="8.00">0...*</text>
</g>
</g>
</svg>
