<?xml version="1.0" encoding="UTF-8" standalone="no"?>
<!DOCTYPE svg PUBLIC "-//W3C//DTD SVG 1.1//EN"
 "http://www.w3.org/Graphics/SVG/1.1/DTD/svg11.dtd">
<!-- Generated by graphviz version 2.38.0 (20140413.2041)
 -->
<!-- Title: G Pages: 1 -->
<svg width="1207pt" height="558pt"
 viewBox="0.00 0.00 1206.74 558.00" xmlns="http://www.w3.org/2000/svg" xmlns:xlink="http://www.w3.org/1999/xlink">
<filter id = "dropshadow" height = "130%" ><feGaussianBlur in= "SourceAlpha" stdDeviation = "3"/><!--stdDeviation is how much to blur--><feOffset dx = "2" dy = "2" result = "offsetblur"/><!--how much to offset--><feMerge><feMergeNode/><!--this contains the offset blurred image--><feMergeNode in= "SourceGraphic"/><!--this contains the element that the filter is applied to --></feMerge></filter>
<g id="graph0" class="graph" transform="scale(1 1) rotate(0) translate(4 554)">
<title>G</title>
<g id="clust1" class="cluster"><title>clusterNCubeGroup</title>
<polygon fill="#4abdac" stroke="black" points="180.74,-208 180.74,-542 1190.74,-542 1190.74,-208 180.74,-208" style="filter: url(#dropshadow)"/>
<text text-anchor="middle" x="685.74" y="-531.6" font-family="Times New Roman,serif" font-size="8.00">NCubeGroup</text>
</g>
<!-- NCubeGroupProperties -->
<g id="ItemTypeNCubeGroupProperties" class="node"><title></title><polygon fill="#f7b733" stroke="black" points="188.74,-216.5 188.74,-323.5 420.74,-323.5 420.74,-216.5 188.74,-216.5" style="filter: url(#dropshadow)"/>
<text text-anchor="middle" x="215.24" y="-268.1" font-family="Times New Roman,serif" font-size="8.00">Properties</text>
<polyline fill="none" stroke="black" points="241.74,-216.5 241.74,-323.5 "/>
<text text-anchor="start" x="249.74" y="-313.1" font-family="Times New Roman,serif" font-size="8.00">TypeOfNCubeGroup : CodeValueType[0...1] </text>
<text text-anchor="start" x="249.74" y="-304.1" font-family="Times New Roman,serif" font-size="8.00">NCubeGroupName : NameType[0...n] </text>
<text text-anchor="start" x="249.74" y="-295.1" font-family="Times New Roman,serif" font-size="8.00">Label : LabelType[0...n] </text>
<text text-anchor="start" x="249.74" y="-286.1" font-family="Times New Roman,serif" font-size="8.00">Description : StructuredStringType[0...1] </text>
<text text-anchor="start" x="249.74" y="-277.1" font-family="Times New Roman,serif" font-size="8.00">UniverseReference : Universe[0...n] </text>
<text text-anchor="start" x="249.74" y="-268.1" font-family="Times New Roman,serif" font-size="8.00">ConceptReference : Concept[0...1] </text>
<text text-anchor="start" x="249.74" y="-259.1" font-family="Times New Roman,serif" font-size="8.00">Subject : InternationalCodeValueType[0...n] </text>
<text text-anchor="start" x="249.74" y="-250.1" font-family="Times New Roman,serif" font-size="8.00">Keyword : InternationalCodeValueType[0...n] </text>
<text text-anchor="start" x="249.74" y="-241.1" font-family="Times New Roman,serif" font-size="8.00">NCubeReference : NCube[0...1] </text>
<text text-anchor="start" x="249.74" y="-232.1" font-family="Times New Roman,serif" font-size="8.00">NCubeGroupReference : NCubeGroup[0...1] </text>
<text text-anchor="start" x="249.74" y="-223.1" font-family="Times New Roman,serif" font-size="8.00">IsOrdered : boolean[0...1] </text>
</g>
<!-- NCubeGroupProperties&#45;&gt;NCubeGroupProperties -->
<g id="edge11" class="edge"><title>NCubeGroupProperties&#45;&gt;NCubeGroupProperties</title>
<path fill="none" stroke="black" d="M273.82,-323.694C277.3,-334.38 287.607,-342 304.74,-342 321.872,-342 332.179,-334.38 335.659,-323.694"/>
<text text-anchor="middle" x="304.74" y="-344.6" font-family="Times New Roman,serif" font-size="8.00">NCubeGroupReference</text>
<text text-anchor="middle" x="327.659" y="-326.294" font-family="Times New Roman,serif" font-size="8.00">0...*</text>
<text text-anchor="middle" x="265.82" y="-326.294" font-family="Times New Roman,serif" font-size="8.00">0...*</text>
</g>
<!-- NCubeGroupCodeValueType -->
<g id="ReusableTypeNCubeGroupCodeValueType" class="node"><title></title><polygon fill="#fc4a1a" stroke="black" points="923.74,-240.5 923.74,-311.5 1182.74,-311.5 1182.74,-240.5 923.74,-240.5" style="filter: url(#dropshadow)"/>
<text text-anchor="middle" x="959.24" y="-274.1" font-family="Times New Roman,serif" font-size="8.00">CodeValueType</text>
<polyline fill="none" stroke="black" points="994.74,-240.5 994.74,-311.5 "/>
<text text-anchor="start" x="1002.74" y="-301.1" font-family="Times New Roman,serif" font-size="8.00">ControlledVocabularyID : string[0...1] </text>
<text text-anchor="start" x="1002.74" y="-292.1" font-family="Times New Roman,serif" font-size="8.00">ControlledVocabularyName : string[0...1] </text>
<text text-anchor="start" x="1002.74" y="-283.1" font-family="Times New Roman,serif" font-size="8.00">ControlledVocabularyAgencyName : string[0...1] </text>
<text text-anchor="start" x="1002.74" y="-274.1" font-family="Times New Roman,serif" font-size="8.00">ControlledVocabularyVersionID : string[0...1] </text>
<text text-anchor="start" x="1002.74" y="-265.1" font-family="Times New Roman,serif" font-size="8.00">OtherValue : string[0...1] </text>
<text text-anchor="start" x="1002.74" y="-256.1" font-family="Times New Roman,serif" font-size="8.00">ControlledVocabularyURN : string[0...1] </text>
<text text-anchor="start" x="1002.74" y="-247.1" font-family="Times New Roman,serif" font-size="8.00">ControlledVocabularySchemeURN : string[0...1] </text>
</g>
<!-- NCubeGroupProperties&#45;&gt;NCubeGroupCodeValueType -->
<g id="edge1" class="edge"><title>NCubeGroupProperties&#45;&gt;NCubeGroupCodeValueType</title>
<path fill="none" stroke="black" d="M420.746,-253.828C457.416,-249.389 498.212,-245.195 535.74,-243 671.064,-235.084 705.59,-232.52 840.74,-243 867.695,-245.09 896.41,-248.657 923.708,-252.693"/>
<text text-anchor="middle" x="688.24" y="-245.6" font-family="Times New Roman,serif" font-size="8.00">TypeOfNCubeGroup</text>
</g>
<!-- NCubeGroupNameType -->
<g id="ReusableTypeNCubeGroupNameType" class="node"><title></title><polygon fill="#fc4a1a" stroke="black" points="603.74,-262 603.74,-298 772.74,-298 772.74,-262 603.74,-262" style="filter: url(#dropshadow)"/>
<text text-anchor="middle" x="631.74" y="-278.1" font-family="Times New Roman,serif" font-size="8.00">NameType</text>
<polyline fill="none" stroke="black" points="659.74,-262 659.74,-298 "/>
<text text-anchor="start" x="667.74" y="-282.6" font-family="Times New Roman,serif" font-size="8.00">IsPreferred : boolean[0...1] </text>
<text text-anchor="start" x="667.74" y="-273.6" font-family="Times New Roman,serif" font-size="8.00">Context : string[0...1] </text>
</g>
<!-- NCubeGroupProperties&#45;&gt;NCubeGroupNameType -->
<g id="edge2" class="edge"><title>NCubeGroupProperties&#45;&gt;NCubeGroupNameType</title>
<path fill="none" stroke="black" d="M420.978,-273.021C479.765,-274.562 549.961,-276.402 603.516,-277.805"/>
<text text-anchor="middle" x="478.24" y="-278.6" font-family="Times New Roman,serif" font-size="8.00">NCubeGroupName</text>
</g>
<!-- NCubeGroupLabelType -->
<g id="ReusableTypeNCubeGroupLabelType" class="node"><title></title><polygon fill="#fc4a1a" stroke="black" points="582.74,-317.5 582.74,-370.5 793.74,-370.5 793.74,-317.5 582.74,-317.5" style="filter: url(#dropshadow)"/>
<text text-anchor="middle" x="609.74" y="-342.1" font-family="Times New Roman,serif" font-size="8.00">LabelType</text>
<polyline fill="none" stroke="black" points="636.74,-317.5 636.74,-370.5 "/>
<text text-anchor="start" x="644.74" y="-360.1" font-family="Times New Roman,serif" font-size="8.00">TypeOfLabel : CodeValueType[0...1] </text>
<text text-anchor="start" x="644.74" y="-351.1" font-family="Times New Roman,serif" font-size="8.00">LocationVariant : string[0...1] </text>
<text text-anchor="start" x="644.74" y="-342.1" font-family="Times New Roman,serif" font-size="8.00">ValidForStartDate : cogsDate[0...1] </text>
<text text-anchor="start" x="644.74" y="-333.1" font-family="Times New Roman,serif" font-size="8.00">ValidForEndDate : cogsDate[0...1] </text>
<text text-anchor="start" x="644.74" y="-324.1" font-family="Times New Roman,serif" font-size="8.00">MaxLength : nonNegativeInteger[0...1] </text>
</g>
<!-- NCubeGroupProperties&#45;&gt;NCubeGroupLabelType -->
<g id="edge3" class="edge"><title>NCubeGroupProperties&#45;&gt;NCubeGroupLabelType</title>
<path fill="none" stroke="black" d="M420.978,-292.353C472.416,-302.33 532.59,-314.002 582.708,-323.724"/>
<text text-anchor="middle" x="478.24" y="-312.6" font-family="Times New Roman,serif" font-size="8.00">Label</text>
</g>
<!-- NCubeGroupStructuredStringType -->
<g id="ReusableTypeNCubeGroupStructuredStringType" class="node"><title></title><polygon fill="#fc4a1a" stroke="black" points="581.74,-390 581.74,-426 794.74,-426 794.74,-390 581.74,-390" style="filter: url(#dropshadow)"/>
<text text-anchor="middle" x="626.74" y="-406.1" font-family="Times New Roman,serif" font-size="8.00">StructuredStringType</text>
<polyline fill="none" stroke="black" points="671.74,-390 671.74,-426 "/>
<text text-anchor="start" x="679.74" y="-406.1" font-family="Times New Roman,serif" font-size="8.00">Content : ContentType[0...n] </text>
</g>
<!-- NCubeGroupProperties&#45;&gt;NCubeGroupStructuredStringType -->
<g id="edge4" class="edge"><title>NCubeGroupProperties&#45;&gt;NCubeGroupStructuredStringType</title>
<path fill="none" stroke="black" d="M403.015,-323.528C443.131,-343.733 490.701,-365.353 535.74,-380 550.365,-384.757 566.064,-388.789 581.616,-392.183"/>
<text text-anchor="middle" x="478.24" y="-375.6" font-family="Times New Roman,serif" font-size="8.00">Description</text>
</g>
<!-- Universe -->
<g id="ItemTypeUniverse" class="node"><title></title><ellipse fill="#f7b733" stroke="black" cx="688.24" cy="-180" rx="27" ry="18" style="filter: url(#dropshadow)"/>
<text text-anchor="middle" x="688.24" y="-178.1" font-family="Times New Roman,serif" font-size="8.00">Universe</text>
</g>
<!-- NCubeGroupProperties&#45;&gt;Universe -->
<g id="edge5" class="edge"><title>NCubeGroupProperties&#45;&gt;Universe</title>
<path fill="none" stroke="black" d="M420.996,-225.12C426.963,-223.284 432.902,-221.563 438.74,-220 518.52,-198.646 615.947,-187.02 661.479,-182.397"/>
<text text-anchor="middle" x="478.24" y="-222.6" font-family="Times New Roman,serif" font-size="8.00">UniverseReference</text>
<text text-anchor="middle" x="653.479" y="-175.997" font-family="Times New Roman,serif" font-size="8.00">0...*</text>
<text text-anchor="middle" x="428.996" y="-218.72" font-family="Times New Roman,serif" font-size="8.00">0...*</text>
</g>
<!-- Concept -->
<g id="ItemTypeConcept" class="node"><title></title><ellipse fill="#f7b733" stroke="black" cx="688.24" cy="-126" rx="27" ry="18" style="filter: url(#dropshadow)"/>
<text text-anchor="middle" x="688.24" y="-124.1" font-family="Times New Roman,serif" font-size="8.00">Concept</text>
</g>
<!-- NCubeGroupProperties&#45;&gt;Concept -->
<g id="edge6" class="edge"><title>NCubeGroupProperties&#45;&gt;Concept</title>
<path fill="none" stroke="black" d="M391.181,-216.496C406.763,-207.533 423.057,-198.667 438.74,-191 480.337,-170.666 491.177,-165.567 535.74,-153 579.067,-140.781 630.993,-132.95 661.427,-129.024"/>
<text text-anchor="middle" x="478.24" y="-193.6" font-family="Times New Roman,serif" font-size="8.00">ConceptReference</text>
<text text-anchor="middle" x="653.427" y="-122.624" font-family="Times New Roman,serif" font-size="8.00">0...*</text>
<text text-anchor="middle" x="383.181" y="-210.096" font-family="Times New Roman,serif" font-size="8.00">0...*</text>
</g>
<!-- NCubeGroupInternationalCodeValueType -->
<g id="ReusableTypeNCubeGroupInternationalCodeValueType" class="node"><title></title><polygon fill="#fc4a1a" stroke="black" points="535.74,-445.5 535.74,-516.5 840.74,-516.5 840.74,-445.5 535.74,-445.5" style="filter: url(#dropshadow)"/>
<text text-anchor="middle" x="594.24" y="-479.1" font-family="Times New Roman,serif" font-size="8.00">InternationalCodeValueType</text>
<polyline fill="none" stroke="black" points="652.74,-445.5 652.74,-516.5 "/>
<text text-anchor="start" x="660.74" y="-506.1" font-family="Times New Roman,serif" font-size="8.00">ControlledVocabularyID : string[0...1] </text>
<text text-anchor="start" x="660.74" y="-497.1" font-family="Times New Roman,serif" font-size="8.00">ControlledVocabularyName : string[0...1] </text>
<text text-anchor="start" x="660.74" y="-488.1" font-family="Times New Roman,serif" font-size="8.00">ControlledVocabularyAgencyName : string[0...1] </text>
<text text-anchor="start" x="660.74" y="-479.1" font-family="Times New Roman,serif" font-size="8.00">ControlledVocabularyVersionID : string[0...1] </text>
<text text-anchor="start" x="660.74" y="-470.1" font-family="Times New Roman,serif" font-size="8.00">OtherValue : string[0...1] </text>
<text text-anchor="start" x="660.74" y="-461.1" font-family="Times New Roman,serif" font-size="8.00">ControlledVocabularyURN : string[0...1] </text>
<text text-anchor="start" x="660.74" y="-452.1" font-family="Times New Roman,serif" font-size="8.00">ControlledVocabularySchemeURN : string[0...1] </text>
</g>
<!-- NCubeGroupProperties&#45;&gt;NCubeGroupInternationalCodeValueType -->
<g id="edge7" class="edge"><title>NCubeGroupProperties&#45;&gt;NCubeGroupInternationalCodeValueType</title>
<path fill="none" stroke="black" d="M361.219,-323.72C384.194,-344.512 411.746,-367.668 438.74,-386 478.863,-413.249 490.74,-417.905 535.74,-436 543.886,-439.276 552.363,-442.436 560.96,-445.458"/>
<text text-anchor="middle" x="478.24" y="-430.6" font-family="Times New Roman,serif" font-size="8.00">Subject</text>
<text text-anchor="middle" x="552.96" y="-439.058" font-family="Times New Roman,serif" font-size="8.00">0...*</text>
<text text-anchor="middle" x="353.219" y="-326.32" font-family="Times New Roman,serif" font-size="8.00">0...*</text>
</g>
<!-- NCube -->
<g id="ItemTypeNCube" class="node"><title></title><ellipse fill="#f7b733" stroke="black" cx="688.24" cy="-72" rx="27" ry="18" style="filter: url(#dropshadow)"/>
<text text-anchor="middle" x="688.24" y="-70.1" font-family="Times New Roman,serif" font-size="8.00">NCube</text>
</g>
<!-- NCubeGroupProperties&#45;&gt;NCube -->
<g id="edge8" class="edge"><title>NCubeGroupProperties&#45;&gt;NCube</title>
<path fill="none" stroke="black" d="M356.017,-216.338C379.692,-192.924 409.183,-166.255 438.74,-146 478.256,-118.919 490.173,-113.786 535.74,-99 578.559,-85.105 630.645,-77.8042 661.249,-74.4367"/>
<text text-anchor="middle" x="478.24" y="-148.6" font-family="Times New Roman,serif" font-size="8.00">NCubeReference</text>
<text text-anchor="middle" x="653.249" y="-68.0367" font-family="Times New Roman,serif" font-size="8.00">0...*</text>
<text text-anchor="middle" x="348.017" y="-209.938" font-family="Times New Roman,serif" font-size="8.00">0...*</text>
</g>
<!-- NCubeGroup -->
<g id="ItemTypeNCubeGroup0" class="node"><title></title><ellipse fill="#f7b733" stroke="black" cx="688.24" cy="-18" rx="34.0674" ry="18" style="filter: url(#dropshadow)"/>
<text text-anchor="middle" x="688.24" y="-16.1" font-family="Times New Roman,serif" font-size="8.00">NCubeGroup</text>
</g>
<!-- NCubeGroupProperties&#45;&gt;NCubeGroup -->
<g id="edge9" class="edge"><title>NCubeGroupProperties&#45;&gt;NCubeGroup</title>
<path fill="none" stroke="black" d="M336.645,-216.301C360.675,-178.156 396.895,-127.744 438.74,-93 502.361,-40.1745 602.454,-24.5445 654.044,-19.9283"/>
<text text-anchor="middle" x="478.24" y="-95.6" font-family="Times New Roman,serif" font-size="8.00">NCubeGroupReference</text>
<text text-anchor="middle" x="646.044" y="-13.5283" font-family="Times New Roman,serif" font-size="8.00">0...*</text>
<text text-anchor="middle" x="328.645" y="-209.901" font-family="Times New Roman,serif" font-size="8.00">0...*</text>
</g>
<!-- NCubeGroupLabelType&#45;&gt;NCubeGroupCodeValueType -->
<g id="edge10" class="edge"><title>NCubeGroupLabelType&#45;&gt;NCubeGroupCodeValueType</title>
<path fill="none" stroke="black" d="M793.747,-324.423C834.275,-316.831 881.091,-308.061 923.652,-300.088"/>
<text text-anchor="middle" x="882.24" y="-315.6" font-family="Times New Roman,serif" font-size="8.00">TypeOfLabel</text>
<text text-anchor="middle" x="915.652" y="-293.688" font-family="Times New Roman,serif" font-size="8.00">0...*</text>
<text text-anchor="middle" x="801.747" y="-318.023" font-family="Times New Roman,serif" font-size="8.00">0...*</text>
</g>
<!-- NCubeScheme -->
<g id="ItemTypeNCubeScheme1" class="node"><title></title><ellipse fill="#f7b733" stroke="black" cx="36.8698" cy="-270" rx="36.7401" ry="18" style="filter: url(#dropshadow)"/>
<text text-anchor="middle" x="36.8698" y="-268.1" font-family="Times New Roman,serif" font-size="8.00">NCubeScheme</text>
</g>
<!-- NCubeScheme&#45;&gt;NCubeGroupProperties -->
<g id="edge12" class="edge"><title>NCubeScheme&#45;&gt;NCubeGroupProperties</title>
<path fill="none" stroke="black" d="M74.0029,-270C101.871,-270 142.136,-270 181.197,-270"/>
<text text-anchor="middle" x="131.24" y="-272.6" font-family="Times New Roman,serif" font-size="8.00">NCubeGroupReference</text>
<text text-anchor="middle" x="173.197" y="-263.6" font-family="Times New Roman,serif" font-size="8.00">0...*</text>
<text text-anchor="middle" x="82.0029" y="-263.6" font-family="Times New Roman,serif" font-size="8.00">0...*</text>
</g>
</g>
</svg>
