<?xml version="1.0" encoding="UTF-8" standalone="no"?>
<!DOCTYPE svg PUBLIC "-//W3C//DTD SVG 1.1//EN"
 "http://www.w3.org/Graphics/SVG/1.1/DTD/svg11.dtd">
<!-- Generated by graphviz version 2.38.0 (20140413.2041)
 -->
<!-- Title: G Pages: 1 -->
<svg width="1095pt" height="403pt"
 viewBox="0.00 0.00 1095.00 403.00" xmlns="http://www.w3.org/2000/svg" xmlns:xlink="http://www.w3.org/1999/xlink">
<filter id = "dropshadow" height = "130%" ><feGaussianBlur in= "SourceAlpha" stdDeviation = "3"/><!--stdDeviation is how much to blur--><feOffset dx = "2" dy = "2" result = "offsetblur"/><!--how much to offset--><feMerge><feMergeNode/><!--this contains the offset blurred image--><feMergeNode in= "SourceGraphic"/><!--this contains the element that the filter is applied to --></feMerge></filter>
<g id="graph0" class="graph" transform="scale(1 1) rotate(0) translate(4 399)">
<title>G</title>
<g id="clust1" class="cluster"><title>clusterNoteType</title>
<polygon fill="#4abdac" stroke="black" points="8,-98 8,-387 1079,-387 1079,-98 8,-98" style="filter: url(#dropshadow)"/>
<text text-anchor="middle" x="543.5" y="-376.6" font-family="Times New Roman,serif" font-size="8.00">NoteType</text>
</g>
<!-- NoteTypeProperties -->
<g id="ReusableTypeNoteTypeProperties" class="node"><title></title><polygon fill="#f7b733" stroke="black" points="16,-179 16,-259 246,-259 246,-179 16,-179" style="filter: url(#dropshadow)"/>
<text text-anchor="middle" x="42.5" y="-217.1" font-family="Times New Roman,serif" font-size="8.00">Properties</text>
<polyline fill="none" stroke="black" points="69,-179 69,-259 "/>
<text text-anchor="start" x="77" y="-248.6" font-family="Times New Roman,serif" font-size="8.00">TypeOfNote : CodeValueType[0...1] </text>
<text text-anchor="start" x="77" y="-239.6" font-family="Times New Roman,serif" font-size="8.00">NoteSubject : CodeValueType[0...1] </text>
<text text-anchor="start" x="77" y="-230.6" font-family="Times New Roman,serif" font-size="8.00">Relationship : RelationshipType[0...n] </text>
<text text-anchor="start" x="77" y="-221.6" font-family="Times New Roman,serif" font-size="8.00">Responsibility : string[0...1] </text>
<text text-anchor="start" x="77" y="-212.6" font-family="Times New Roman,serif" font-size="8.00">Header : InternationalStringType[0...1] </text>
<text text-anchor="start" x="77" y="-203.6" font-family="Times New Roman,serif" font-size="8.00">NoteContent : StructuredStringType[0...1] </text>
<text text-anchor="start" x="77" y="-194.6" font-family="Times New Roman,serif" font-size="8.00">ProprietaryInfo : ProprietaryInfoType[0...1] </text>
<text text-anchor="start" x="77" y="-185.6" font-family="Times New Roman,serif" font-size="8.00">Lang : language[0...1] </text>
</g>
<!-- NoteTypeCodeValueType -->
<g id="ReusableTypeNoteTypeCodeValueType" class="node"><title></title><polygon fill="#fc4a1a" stroke="black" points="812,-136.5 812,-207.5 1071,-207.5 1071,-136.5 812,-136.5" style="filter: url(#dropshadow)"/>
<text text-anchor="middle" x="847.5" y="-170.1" font-family="Times New Roman,serif" font-size="8.00">CodeValueType</text>
<polyline fill="none" stroke="black" points="883,-136.5 883,-207.5 "/>
<text text-anchor="start" x="891" y="-197.1" font-family="Times New Roman,serif" font-size="8.00">ControlledVocabularyID : string[0...1] </text>
<text text-anchor="start" x="891" y="-188.1" font-family="Times New Roman,serif" font-size="8.00">ControlledVocabularyName : string[0...1] </text>
<text text-anchor="start" x="891" y="-179.1" font-family="Times New Roman,serif" font-size="8.00">ControlledVocabularyAgencyName : string[0...1] </text>
<text text-anchor="start" x="891" y="-170.1" font-family="Times New Roman,serif" font-size="8.00">ControlledVocabularyVersionID : string[0...1] </text>
<text text-anchor="start" x="891" y="-161.1" font-family="Times New Roman,serif" font-size="8.00">OtherValue : string[0...1] </text>
<text text-anchor="start" x="891" y="-152.1" font-family="Times New Roman,serif" font-size="8.00">ControlledVocabularyURN : string[0...1] </text>
<text text-anchor="start" x="891" y="-143.1" font-family="Times New Roman,serif" font-size="8.00">ControlledVocabularySchemeURN : string[0...1] </text>
</g>
<!-- NoteTypeProperties&#45;&gt;NoteTypeCodeValueType -->
<g id="edge1" class="edge"><title>NoteTypeProperties&#45;&gt;NoteTypeCodeValueType</title>
<path fill="none" stroke="black" d="M246.133,-211.662C276.024,-209.777 308.22,-207.78 338,-206 501.407,-196.233 689.791,-185.723 811.789,-179.015"/>
<text text-anchor="middle" x="496.5" y="-208.6" font-family="Times New Roman,serif" font-size="8.00">TypeOfNote</text>
</g>
<!-- NoteTypeRelationshipType -->
<g id="ReusableTypeNoteTypeRelationshipType" class="node"><title></title><polygon fill="#fc4a1a" stroke="black" points="338,-106.5 338,-159.5 655,-159.5 655,-106.5 338,-106.5" style="filter: url(#dropshadow)"/>
<text text-anchor="middle" x="377.5" y="-131.1" font-family="Times New Roman,serif" font-size="8.00">RelationshipType</text>
<polyline fill="none" stroke="black" points="417,-106.5 417,-159.5 "/>
<text text-anchor="start" x="425" y="-149.1" font-family="Times New Roman,serif" font-size="8.00">RelatedToReference_IdentifiableType : IdentifiableType[0...1] </text>
<text text-anchor="start" x="425" y="-140.1" font-family="Times New Roman,serif" font-size="8.00">RelatedToReference_Versionable : Versionable[0...1] </text>
<text text-anchor="start" x="425" y="-131.1" font-family="Times New Roman,serif" font-size="8.00">RelatedToReference_Maintainable : Maintainable[0...1] </text>
<text text-anchor="start" x="425" y="-122.1" font-family="Times New Roman,serif" font-size="8.00">RelationshipDescription : StructuredStringType[0...1] </text>
<text text-anchor="start" x="425" y="-113.1" font-family="Times New Roman,serif" font-size="8.00">TypeOfRelationship : CodeValueType[0...1] </text>
</g>
<!-- NoteTypeProperties&#45;&gt;NoteTypeRelationshipType -->
<g id="edge2" class="edge"><title>NoteTypeProperties&#45;&gt;NoteTypeRelationshipType</title>
<path fill="none" stroke="black" d="M246.355,-186.458C252.313,-184.915 258.222,-183.42 264,-182 295.916,-174.158 330.492,-166.432 362.948,-159.515"/>
<text text-anchor="middle" x="292" y="-184.6" font-family="Times New Roman,serif" font-size="8.00">Relationship</text>
</g>
<!-- NoteTypeInternationalStringType -->
<g id="ReusableTypeNoteTypeInternationalStringType" class="node"><title></title><polygon fill="#fc4a1a" stroke="black" points="392.5,-224 392.5,-260 600.5,-260 600.5,-224 392.5,-224" style="filter: url(#dropshadow)"/>
<text text-anchor="middle" x="443" y="-240.1" font-family="Times New Roman,serif" font-size="8.00">InternationalStringType</text>
<polyline fill="none" stroke="black" points="493.5,-224 493.5,-260 "/>
<text text-anchor="start" x="501.5" y="-240.1" font-family="Times New Roman,serif" font-size="8.00">String : StringType[0...n] </text>
</g>
<!-- NoteTypeProperties&#45;&gt;NoteTypeInternationalStringType -->
<g id="edge3" class="edge"><title>NoteTypeProperties&#45;&gt;NoteTypeInternationalStringType</title>
<path fill="none" stroke="black" d="M246.016,-226.214C292.863,-229.178 346.716,-232.586 392.37,-235.475"/>
<text text-anchor="middle" x="292" y="-232.6" font-family="Times New Roman,serif" font-size="8.00">Header</text>
</g>
<!-- NoteTypeStructuredStringType -->
<g id="ReusableTypeNoteTypeStructuredStringType" class="node"><title></title><polygon fill="#fc4a1a" stroke="black" points="835,-251 835,-287 1048,-287 1048,-251 835,-251" style="filter: url(#dropshadow)"/>
<text text-anchor="middle" x="880" y="-267.1" font-family="Times New Roman,serif" font-size="8.00">StructuredStringType</text>
<polyline fill="none" stroke="black" points="925,-251 925,-287 "/>
<text text-anchor="start" x="933" y="-267.1" font-family="Times New Roman,serif" font-size="8.00">Content : ContentType[0...n] </text>
</g>
<!-- NoteTypeProperties&#45;&gt;NoteTypeStructuredStringType -->
<g id="edge4" class="edge"><title>NoteTypeProperties&#45;&gt;NoteTypeStructuredStringType</title>
<path fill="none" stroke="black" d="M246.03,-252.454C275.708,-259.716 307.828,-266.321 338,-270 511.01,-291.098 714.048,-284.308 834.73,-276.995"/>
<text text-anchor="middle" x="496.5" y="-286.6" font-family="Times New Roman,serif" font-size="8.00">NoteContent</text>
</g>
<!-- NoteTypeProprietaryInfoType -->
<g id="ReusableTypeNoteTypeProprietaryInfoType" class="node"><title></title><polygon fill="#fc4a1a" stroke="black" points="343.5,-325 343.5,-361 649.5,-361 649.5,-325 343.5,-325" style="filter: url(#dropshadow)"/>
<text text-anchor="middle" x="389" y="-341.1" font-family="Times New Roman,serif" font-size="8.00">ProprietaryInfoType</text>
<polyline fill="none" stroke="black" points="434.5,-325 434.5,-361 "/>
<text text-anchor="start" x="442.5" y="-341.1" font-family="Times New Roman,serif" font-size="8.00">ProprietaryProperty : StandardKeyValuePairType[0...n] </text>
</g>
<!-- NoteTypeProperties&#45;&gt;NoteTypeProprietaryInfoType -->
<g id="edge5" class="edge"><title>NoteTypeProperties&#45;&gt;NoteTypeProprietaryInfoType</title>
<path fill="none" stroke="black" d="M185.357,-259.164C208.455,-274.753 236.472,-291.377 264,-302 289.418,-311.809 317.32,-319.29 344.682,-324.991"/>
<text text-anchor="middle" x="292" y="-321.6" font-family="Times New Roman,serif" font-size="8.00">ProprietaryInfo</text>
</g>
<!-- NoteTypeRelationshipType&#45;&gt;NoteTypeCodeValueType -->
<g id="edge9" class="edge"><title>NoteTypeRelationshipType&#45;&gt;NoteTypeCodeValueType</title>
<path fill="none" stroke="black" d="M655.245,-146.887C706.578,-151.406 762.906,-156.365 811.849,-160.674"/>
<text text-anchor="middle" x="733.5" y="-161.6" font-family="Times New Roman,serif" font-size="8.00">TypeOfRelationship</text>
<text text-anchor="middle" x="803.849" y="-154.274" font-family="Times New Roman,serif" font-size="8.00">0...*</text>
<text text-anchor="middle" x="663.245" y="-140.487" font-family="Times New Roman,serif" font-size="8.00">0...*</text>
</g>
<!-- NoteTypeRelationshipType&#45;&gt;NoteTypeStructuredStringType -->
<g id="edge8" class="edge"><title>NoteTypeRelationshipType&#45;&gt;NoteTypeStructuredStringType</title>
<path fill="none" stroke="black" d="M603.668,-159.606C620.881,-164.215 638.474,-169.105 655,-174 737.895,-198.551 832.931,-231.063 889.766,-250.982"/>
<text text-anchor="middle" x="733.5" y="-218.6" font-family="Times New Roman,serif" font-size="8.00">RelationshipDescription</text>
<text text-anchor="middle" x="881.766" y="-244.582" font-family="Times New Roman,serif" font-size="8.00">0...*</text>
<text text-anchor="middle" x="595.668" y="-162.206" font-family="Times New Roman,serif" font-size="8.00">0...*</text>
</g>
<!-- Versionable -->
<g id="ItemTypeVersionable" class="node"><title></title><ellipse fill="#f7b733" stroke="black" cx="941.5" cy="-72" rx="31.5313" ry="18" style="filter: url(#dropshadow)"/>
<text text-anchor="middle" x="941.5" y="-70.1" font-family="Times New Roman,serif" font-size="8.00">Versionable</text>
</g>
<!-- NoteTypeRelationshipType&#45;&gt;Versionable -->
<g id="edge6" class="edge"><title>NoteTypeRelationshipType&#45;&gt;Versionable</title>
<path fill="none" stroke="black" d="M655.245,-111.279C748.465,-98.4427 858.155,-83.3387 910.182,-76.1747"/>
<text text-anchor="middle" x="733.5" y="-110.6" font-family="Times New Roman,serif" font-size="8.00">RelatedToReference_Versionable</text>
<text text-anchor="middle" x="902.182" y="-69.7747" font-family="Times New Roman,serif" font-size="8.00">0...*</text>
<text text-anchor="middle" x="663.245" y="-104.879" font-family="Times New Roman,serif" font-size="8.00">0...*</text>
</g>
<!-- Maintainable -->
<g id="ItemTypeMaintainable" class="node"><title></title><ellipse fill="#f7b733" stroke="black" cx="941.5" cy="-18" rx="35.3371" ry="18" style="filter: url(#dropshadow)"/>
<text text-anchor="middle" x="941.5" y="-16.1" font-family="Times New Roman,serif" font-size="8.00">Maintainable</text>
</g>
<!-- NoteTypeRelationshipType&#45;&gt;Maintainable -->
<g id="edge7" class="edge"><title>NoteTypeRelationshipType&#45;&gt;Maintainable</title>
<path fill="none" stroke="black" d="M584.812,-106.482C612.909,-98.122 644.217,-88.9889 673,-81 734.491,-63.9327 749.868,-59.5651 812,-45 844.737,-37.3258 882.408,-29.5316 908.46,-24.3033"/>
<text text-anchor="middle" x="733.5" y="-83.6" font-family="Times New Roman,serif" font-size="8.00">RelatedToReference_Maintainable</text>
<text text-anchor="middle" x="900.46" y="-17.9033" font-family="Times New Roman,serif" font-size="8.00">0...*</text>
<text text-anchor="middle" x="576.812" y="-100.082" font-family="Times New Roman,serif" font-size="8.00">0...*</text>
</g>
<!-- Maintainable&#45;&gt;NoteTypeProperties -->
<g id="edge10" class="edge"><title>Maintainable&#45;&gt;NoteTypeProperties</title>
<path fill="none" stroke="black" d="M906.295,-16.6253C812.379,-13.9663 543.837,-13.8957 338,-88 329.358,-91.1113 320.703,-94.6346 312.098,-98.478"/>
<text text-anchor="middle" x="496.5" y="-90.6" font-family="Times New Roman,serif" font-size="8.00">Note</text>
<text text-anchor="middle" x="304.098" y="-92.078" font-family="Times New Roman,serif" font-size="8.00">0...*</text>
<text text-anchor="middle" x="898.295" y="-10.2253" font-family="Times New Roman,serif" font-size="8.00">0...*</text>
</g>
</g>
</svg>
