<?xml version="1.0" encoding="UTF-8" standalone="no"?>
<!DOCTYPE svg PUBLIC "-//W3C//DTD SVG 1.1//EN"
 "http://www.w3.org/Graphics/SVG/1.1/DTD/svg11.dtd">
<!-- Generated by graphviz version 2.38.0 (20140413.2041)
 -->
<!-- Title: G Pages: 1 -->
<svg width="1032pt" height="1340pt"
 viewBox="0.00 0.00 1032.30 1340.00" xmlns="http://www.w3.org/2000/svg" xmlns:xlink="http://www.w3.org/1999/xlink">
<filter id = "dropshadow" height = "130%" ><feGaussianBlur in= "SourceAlpha" stdDeviation = "3"/><!--stdDeviation is how much to blur--><feOffset dx = "2" dy = "2" result = "offsetblur"/><!--how much to offset--><feMerge><feMergeNode/><!--this contains the offset blurred image--><feMergeNode in= "SourceGraphic"/><!--this contains the element that the filter is applied to --></feMerge></filter>
<g id="graph0" class="graph" transform="scale(1 1) rotate(0) translate(4 1336)">
<title>G</title>
<g id="clust1" class="cluster"><title>clusterParameterType</title>
<polygon fill="#4abdac" stroke="black" points="293.303,-638 293.303,-900 1016.3,-900 1016.3,-638 293.303,-638" style="filter: url(#dropshadow)"/>
<text text-anchor="middle" x="654.803" y="-889.6" font-family="Times New Roman,serif" font-size="8.00">ParameterType</text>
</g>
<!-- ParameterTypeProperties -->
<g id="ReusableTypeParameterTypeProperties" class="node"><title></title><polygon fill="#f7b733" stroke="black" points="301.303,-684.5 301.303,-755.5 590.303,-755.5 590.303,-684.5 301.303,-684.5" style="filter: url(#dropshadow)"/>
<text text-anchor="middle" x="327.803" y="-718.1" font-family="Times New Roman,serif" font-size="8.00">Properties</text>
<polyline fill="none" stroke="black" points="354.303,-684.5 354.303,-755.5 "/>
<text text-anchor="start" x="362.303" y="-745.1" font-family="Times New Roman,serif" font-size="8.00">ParameterName : NameType[0...n] </text>
<text text-anchor="start" x="362.303" y="-736.1" font-family="Times New Roman,serif" font-size="8.00">Alias : string[0...1] </text>
<text text-anchor="start" x="362.303" y="-727.1" font-family="Times New Roman,serif" font-size="8.00">Description : StructuredStringType[0...1] </text>
<text text-anchor="start" x="362.303" y="-718.1" font-family="Times New Roman,serif" font-size="8.00">ValueRepresentation : RepresentationType[0...1] </text>
<text text-anchor="start" x="362.303" y="-709.1" font-family="Times New Roman,serif" font-size="8.00">ValueRepresentationReference : ManagedRepresentation[0...1] </text>
<text text-anchor="start" x="362.303" y="-700.1" font-family="Times New Roman,serif" font-size="8.00">DefaultValue : ValueType[0...1] </text>
<text text-anchor="start" x="362.303" y="-691.1" font-family="Times New Roman,serif" font-size="8.00">IsArray : boolean[0...1] </text>
</g>
<!-- ParameterTypeNameType -->
<g id="ReusableTypeParameterTypeNameType" class="node"><title></title><polygon fill="#fc4a1a" stroke="black" points="785.803,-647 785.803,-683 954.803,-683 954.803,-647 785.803,-647" style="filter: url(#dropshadow)"/>
<text text-anchor="middle" x="813.803" y="-663.1" font-family="Times New Roman,serif" font-size="8.00">NameType</text>
<polyline fill="none" stroke="black" points="841.803,-647 841.803,-683 "/>
<text text-anchor="start" x="849.803" y="-667.6" font-family="Times New Roman,serif" font-size="8.00">IsPreferred : boolean[0...1] </text>
<text text-anchor="start" x="849.803" y="-658.6" font-family="Times New Roman,serif" font-size="8.00">Context : string[0...1] </text>
</g>
<!-- ParameterTypeProperties&#45;&gt;ParameterTypeNameType -->
<g id="edge1" class="edge"><title>ParameterTypeProperties&#45;&gt;ParameterTypeNameType</title>
<path fill="none" stroke="black" d="M590.432,-701.303C655.381,-692.848 729.865,-683.152 785.507,-675.908"/>
<text text-anchor="middle" x="661.303" y="-700.6" font-family="Times New Roman,serif" font-size="8.00">ParameterName</text>
</g>
<!-- ParameterTypeStructuredStringType -->
<g id="ReusableTypeParameterTypeStructuredStringType" class="node"><title></title><polygon fill="#fc4a1a" stroke="black" points="763.803,-702 763.803,-738 976.803,-738 976.803,-702 763.803,-702" style="filter: url(#dropshadow)"/>
<text text-anchor="middle" x="808.803" y="-718.1" font-family="Times New Roman,serif" font-size="8.00">StructuredStringType</text>
<polyline fill="none" stroke="black" points="853.803,-702 853.803,-738 "/>
<text text-anchor="start" x="861.803" y="-718.1" font-family="Times New Roman,serif" font-size="8.00">Content : ContentType[0...n] </text>
</g>
<!-- ParameterTypeProperties&#45;&gt;ParameterTypeStructuredStringType -->
<g id="edge2" class="edge"><title>ParameterTypeProperties&#45;&gt;ParameterTypeStructuredStringType</title>
<path fill="none" stroke="black" d="M590.432,-720C647.248,-720 711.359,-720 763.772,-720"/>
<text text-anchor="middle" x="661.303" y="-722.6" font-family="Times New Roman,serif" font-size="8.00">Description</text>
</g>
<!-- ParameterTypeRepresentationType -->
<g id="ReusableTypeParameterTypeRepresentationType" class="node"><title></title><polygon fill="#fc4a1a" stroke="black" points="732.303,-757 732.303,-819 1008.3,-819 1008.3,-757 732.303,-757" style="filter: url(#dropshadow)"/>
<text text-anchor="middle" x="776.303" y="-786.1" font-family="Times New Roman,serif" font-size="8.00">RepresentationType</text>
<polyline fill="none" stroke="black" points="820.303,-757 820.303,-819 "/>
<text text-anchor="start" x="828.303" y="-808.6" font-family="Times New Roman,serif" font-size="8.00">RecommendedDataType : CodeValueType[0...1] </text>
<text text-anchor="start" x="828.303" y="-799.6" font-family="Times New Roman,serif" font-size="8.00">GenericOutputFormat : CodeValueType[0...1] </text>
<text text-anchor="start" x="828.303" y="-790.6" font-family="Times New Roman,serif" font-size="8.00">MeasurementUnit : CodeValueType[0...1] </text>
<text text-anchor="start" x="828.303" y="-781.6" font-family="Times New Roman,serif" font-size="8.00">MissingValue : string[0...1] </text>
<text text-anchor="start" x="828.303" y="-772.6" font-family="Times New Roman,serif" font-size="8.00">BlankIsMissingValue : boolean[0...1] </text>
<text text-anchor="start" x="828.303" y="-763.6" font-family="Times New Roman,serif" font-size="8.00">ClassificationLevel : string[0...1] </text>
</g>
<!-- ParameterTypeProperties&#45;&gt;ParameterTypeRepresentationType -->
<g id="edge3" class="edge"><title>ParameterTypeProperties&#45;&gt;ParameterTypeRepresentationType</title>
<path fill="none" stroke="black" d="M590.432,-743.117C636.243,-750.49 686.798,-758.626 732.139,-765.924"/>
<text text-anchor="middle" x="661.303" y="-765.6" font-family="Times New Roman,serif" font-size="8.00">ValueRepresentation</text>
</g>
<!-- ManagedRepresentation -->
<g id="ItemTypeManagedRepresentation" class="node"><title></title><ellipse fill="#f7b733" stroke="black" cx="870.303" cy="-610" rx="56.9465" ry="18" style="filter: url(#dropshadow)"/>
<text text-anchor="middle" x="870.303" y="-608.1" font-family="Times New Roman,serif" font-size="8.00">ManagedRepresentation</text>
</g>
<!-- ParameterTypeProperties&#45;&gt;ManagedRepresentation -->
<g id="edge4" class="edge"><title>ParameterTypeProperties&#45;&gt;ManagedRepresentation</title>
<path fill="none" stroke="black" d="M553.761,-684.48C607.015,-667.642 672.618,-648.164 732.303,-634 760.614,-627.282 792.626,-621.57 818.584,-617.407"/>
<text text-anchor="middle" x="661.303" y="-669.6" font-family="Times New Roman,serif" font-size="8.00">ValueRepresentationReference</text>
<text text-anchor="middle" x="810.584" y="-611.007" font-family="Times New Roman,serif" font-size="8.00">0...*</text>
<text text-anchor="middle" x="545.761" y="-678.08" font-family="Times New Roman,serif" font-size="8.00">0...*</text>
</g>
<!-- ParameterTypeValueType -->
<g id="ReusableTypeParameterTypeValueType" class="node"><title></title><polygon fill="#fc4a1a" stroke="black" points="833.803,-838 833.803,-874 906.803,-874 906.803,-838 833.803,-838" style="filter: url(#dropshadow)"/>
<text text-anchor="middle" x="860.803" y="-854.1" font-family="Times New Roman,serif" font-size="8.00">ValueType</text>
<polyline fill="none" stroke="black" points="887.803,-838 887.803,-874 "/>
<text text-anchor="middle" x="897.303" y="-854.1" font-family="Times New Roman,serif" font-size="8.00"> </text>
</g>
<!-- ParameterTypeProperties&#45;&gt;ParameterTypeValueType -->
<g id="edge5" class="edge"><title>ParameterTypeProperties&#45;&gt;ParameterTypeValueType</title>
<path fill="none" stroke="black" d="M530.241,-755.614C586.542,-778.634 662.943,-807.933 732.303,-828 766.234,-837.817 805.85,-845.519 833.728,-850.34"/>
<text text-anchor="middle" x="661.303" y="-823.6" font-family="Times New Roman,serif" font-size="8.00">DefaultValue</text>
<text text-anchor="middle" x="825.728" y="-843.94" font-family="Times New Roman,serif" font-size="8.00">0...*</text>
<text text-anchor="middle" x="522.241" y="-758.214" font-family="Times New Roman,serif" font-size="8.00">0...*</text>
</g>
<!-- ComputationItem -->
<g id="ItemTypeComputationItem" class="node"><title></title><ellipse fill="#f7b733" stroke="black" cx="85.6514" cy="-1314" rx="44.6228" ry="18" style="filter: url(#dropshadow)"/>
<text text-anchor="middle" x="85.6514" y="-1312.1" font-family="Times New Roman,serif" font-size="8.00">ComputationItem</text>
</g>
<!-- ComputationItem&#45;&gt;ParameterTypeProperties -->
<g id="edge6" class="edge"><title>ComputationItem&#45;&gt;ParameterTypeProperties</title>
<path fill="none" stroke="black" d="M130.431,-1315.72C174.65,-1315.02 242.141,-1306.89 283.303,-1268 383.473,-1173.36 422.484,-1020.04 437.215,-899.601"/>
<text text-anchor="middle" x="236.303" y="-1312.6" font-family="Times New Roman,serif" font-size="8.00">AssignedVariableReference</text>
<text text-anchor="middle" x="429.215" y="-893.201" font-family="Times New Roman,serif" font-size="8.00">0...*</text>
<text text-anchor="middle" x="138.431" y="-1309.32" font-family="Times New Roman,serif" font-size="8.00">0...*</text>
</g>
<!-- ControlConstruct -->
<g id="ItemTypeControlConstruct" class="node"><title></title><ellipse fill="#f7b733" stroke="black" cx="85.6514" cy="-1260" rx="43.8539" ry="18" style="filter: url(#dropshadow)"/>
<text text-anchor="middle" x="85.6514" y="-1258.1" font-family="Times New Roman,serif" font-size="8.00">ControlConstruct</text>
</g>
<!-- ControlConstruct&#45;&gt;ParameterTypeProperties -->
<g id="edge7" class="edge"><title>ControlConstruct&#45;&gt;ParameterTypeProperties</title>
<path fill="none" stroke="black" d="M129.398,-1261.24C173.421,-1260.17 241.35,-1251.65 283.303,-1213 370.271,-1132.88 410.513,-1005.28 429.081,-899.965"/>
<text text-anchor="middle" x="236.303" y="-1257.6" font-family="Times New Roman,serif" font-size="8.00">OutParameter</text>
<text text-anchor="middle" x="421.081" y="-902.565" font-family="Times New Roman,serif" font-size="8.00">0...*</text>
<text text-anchor="middle" x="137.398" y="-1254.84" font-family="Times New Roman,serif" font-size="8.00">0...*</text>
</g>
<!-- Loop -->
<g id="ItemTypeLoop" class="node"><title></title><ellipse fill="#f7b733" stroke="black" cx="85.6514" cy="-1206" rx="27" ry="18" style="filter: url(#dropshadow)"/>
<text text-anchor="middle" x="85.6514" y="-1204.1" font-family="Times New Roman,serif" font-size="8.00">Loop</text>
</g>
<!-- Loop&#45;&gt;ParameterTypeProperties -->
<g id="edge8" class="edge"><title>Loop&#45;&gt;ParameterTypeProperties</title>
<path fill="none" stroke="black" d="M112.788,-1206.8C154.15,-1206.65 234.951,-1200.31 283.303,-1157 356.748,-1091.21 396.867,-988.975 418.744,-899.93"/>
<text text-anchor="middle" x="236.303" y="-1202.6" font-family="Times New Roman,serif" font-size="8.00">LoopVariableReference</text>
<text text-anchor="middle" x="410.744" y="-893.53" font-family="Times New Roman,serif" font-size="8.00">0...*</text>
<text text-anchor="middle" x="120.788" y="-1200.4" font-family="Times New Roman,serif" font-size="8.00">0...*</text>
</g>
<!-- MeasurementItem -->
<g id="ItemTypeMeasurementItem0" class="node"><title></title><ellipse fill="#f7b733" stroke="black" cx="85.6514" cy="-1152" rx="45.2568" ry="18" style="filter: url(#dropshadow)"/>
<text text-anchor="middle" x="85.6514" y="-1150.1" font-family="Times New Roman,serif" font-size="8.00">MeasurementItem</text>
</g>
<!-- MeasurementItem&#45;&gt;ParameterTypeProperties -->
<g id="edge9" class="edge"><title>MeasurementItem&#45;&gt;ParameterTypeProperties</title>
<path fill="none" stroke="black" d="M131.248,-1151.65C174.838,-1149.02 240.689,-1138.62 283.303,-1102 343.596,-1050.19 381.922,-972.013 406.014,-899.853"/>
<text text-anchor="middle" x="236.303" y="-1146.6" font-family="Times New Roman,serif" font-size="8.00">OutParameter</text>
<text text-anchor="middle" x="398.014" y="-902.453" font-family="Times New Roman,serif" font-size="8.00">0...*</text>
<text text-anchor="middle" x="139.248" y="-1145.25" font-family="Times New Roman,serif" font-size="8.00">0...*</text>
</g>
<!-- QuestionBlock -->
<g id="ItemTypeQuestionBlock1" class="node"><title></title><ellipse fill="#f7b733" stroke="black" cx="85.6514" cy="-1098" rx="38.6432" ry="18" style="filter: url(#dropshadow)"/>
<text text-anchor="middle" x="85.6514" y="-1096.1" font-family="Times New Roman,serif" font-size="8.00">QuestionBlock</text>
</g>
<!-- QuestionBlock&#45;&gt;ParameterTypeProperties -->
<g id="edge10" class="edge"><title>QuestionBlock&#45;&gt;ParameterTypeProperties</title>
<path fill="none" stroke="black" d="M124.469,-1097.76C167.414,-1095.58 237.452,-1086.03 283.303,-1049 330.948,-1010.52 365.595,-954.475 390.284,-899.505"/>
<text text-anchor="middle" x="236.303" y="-1091.6" font-family="Times New Roman,serif" font-size="8.00">OutParameter</text>
<text text-anchor="middle" x="382.284" y="-893.105" font-family="Times New Roman,serif" font-size="8.00">0...*</text>
<text text-anchor="middle" x="132.469" y="-1091.36" font-family="Times New Roman,serif" font-size="8.00">0...*</text>
</g>
<!-- QuestionGrid -->
<g id="ItemTypeQuestionGrid2" class="node"><title></title><ellipse fill="#f7b733" stroke="black" cx="85.6514" cy="-1044" rx="35.3371" ry="18" style="filter: url(#dropshadow)"/>
<text text-anchor="middle" x="85.6514" y="-1042.1" font-family="Times New Roman,serif" font-size="8.00">QuestionGrid</text>
</g>
<!-- QuestionGrid&#45;&gt;ParameterTypeProperties -->
<g id="edge11" class="edge"><title>QuestionGrid&#45;&gt;ParameterTypeProperties</title>
<path fill="none" stroke="black" d="M120.986,-1043.97C163.139,-1042.26 234.969,-1033.77 283.303,-998 317.971,-972.342 346.424,-936.845 369.256,-899.787"/>
<text text-anchor="middle" x="236.303" y="-1038.6" font-family="Times New Roman,serif" font-size="8.00">OutParameter</text>
<text text-anchor="middle" x="361.256" y="-893.387" font-family="Times New Roman,serif" font-size="8.00">0...*</text>
<text text-anchor="middle" x="128.986" y="-1037.57" font-family="Times New Roman,serif" font-size="8.00">0...*</text>
</g>
<!-- QuestionItem -->
<g id="ItemTypeQuestionItem3" class="node"><title></title><ellipse fill="#f7b733" stroke="black" cx="85.6514" cy="-990" rx="36.1063" ry="18" style="filter: url(#dropshadow)"/>
<text text-anchor="middle" x="85.6514" y="-988.1" font-family="Times New Roman,serif" font-size="8.00">QuestionItem</text>
</g>
<!-- QuestionItem&#45;&gt;ParameterTypeProperties -->
<g id="edge12" class="edge"><title>QuestionItem&#45;&gt;ParameterTypeProperties</title>
<path fill="none" stroke="black" d="M121.913,-990.925C163.707,-990.379 233.899,-984.141 283.303,-952 304.971,-937.903 324.56,-919.785 342.007,-899.898"/>
<text text-anchor="middle" x="236.303" y="-987.6" font-family="Times New Roman,serif" font-size="8.00">OutParameter</text>
<text text-anchor="middle" x="334.007" y="-893.498" font-family="Times New Roman,serif" font-size="8.00">0...*</text>
<text text-anchor="middle" x="129.913" y="-984.525" font-family="Times New Roman,serif" font-size="8.00">0...*</text>
</g>
<!-- Variable -->
<g id="ItemTypeVariable4" class="node"><title></title><ellipse fill="#f7b733" stroke="black" cx="85.6514" cy="-936" rx="27" ry="18" style="filter: url(#dropshadow)"/>
<text text-anchor="middle" x="85.6514" y="-934.1" font-family="Times New Roman,serif" font-size="8.00">Variable</text>
</g>
<!-- Variable&#45;&gt;ParameterTypeProperties -->
<g id="edge13" class="edge"><title>Variable&#45;&gt;ParameterTypeProperties</title>
<path fill="none" stroke="black" d="M112.323,-938.952C151.665,-942.25 228.102,-943.727 283.303,-914 291.171,-909.763 298.809,-904.97 306.206,-899.737"/>
<text text-anchor="middle" x="236.303" y="-941.6" font-family="Times New Roman,serif" font-size="8.00">OutParameter</text>
<text text-anchor="middle" x="298.206" y="-893.337" font-family="Times New Roman,serif" font-size="8.00">0...*</text>
<text text-anchor="middle" x="120.323" y="-932.552" font-family="Times New Roman,serif" font-size="8.00">0...*</text>
</g>
<!-- Variable&#45;&gt;ParameterTypeProperties -->
<g id="edge14" class="edge"><title>Variable&#45;&gt;ParameterTypeProperties</title>
<path fill="none" stroke="black" d="M110.606,-928.371C131.344,-921.861 162.185,-912.407 189.303,-905 230.793,-893.668 245.839,-903.126 283.303,-882 286.727,-880.069 290.128,-878.045 293.503,-875.938"/>
<text text-anchor="middle" x="236.303" y="-907.6" font-family="Times New Roman,serif" font-size="8.00">SourceParameterReference</text>
<text text-anchor="middle" x="301.503" y="-869.538" font-family="Times New Roman,serif" font-size="8.00">0...*</text>
<text text-anchor="middle" x="118.606" y="-921.971" font-family="Times New Roman,serif" font-size="8.00">0...*</text>
</g>
<!-- BindingType -->
<g id="ReusableTypeBindingType5" class="node"><title></title><ellipse fill="#f7b733" stroke="black" cx="85.6514" cy="-882" rx="35.3371" ry="18" style="filter: url(#dropshadow)"/>
<text text-anchor="middle" x="85.6514" y="-880.1" font-family="Times New Roman,serif" font-size="8.00">BindingType</text>
</g>
<!-- BindingType&#45;&gt;ParameterTypeProperties -->
<g id="edge15" class="edge"><title>BindingType&#45;&gt;ParameterTypeProperties</title>
<path fill="none" stroke="black" d="M120.437,-878.61C168.724,-873.409 254.793,-862.716 283.303,-850 286.73,-848.472 290.145,-846.852 293.545,-845.151"/>
<text text-anchor="middle" x="236.303" y="-872.6" font-family="Times New Roman,serif" font-size="8.00">SourceParameterReference</text>
<text text-anchor="middle" x="301.545" y="-838.751" font-family="Times New Roman,serif" font-size="8.00">0...*</text>
<text text-anchor="middle" x="128.437" y="-872.21" font-family="Times New Roman,serif" font-size="8.00">0...*</text>
</g>
<!-- BindingType&#45;&gt;ParameterTypeProperties -->
<g id="edge16" class="edge"><title>BindingType&#45;&gt;ParameterTypeProperties</title>
<path fill="none" stroke="black" d="M118.265,-874.762C134.647,-870.315 154.653,-863.772 171.303,-855 180.269,-850.276 180.314,-845.681 189.303,-841 228.08,-820.805 243.18,-829.369 283.303,-812 286.732,-810.516 290.18,-808.978 293.641,-807.394"/>
<text text-anchor="middle" x="236.303" y="-843.6" font-family="Times New Roman,serif" font-size="8.00">TargetParameterReference</text>
<text text-anchor="middle" x="285.641" y="-800.994" font-family="Times New Roman,serif" font-size="8.00">0...*</text>
<text text-anchor="middle" x="126.265" y="-877.362" font-family="Times New Roman,serif" font-size="8.00">0...*</text>
</g>
<!-- CategoryDomainType -->
<g id="ReusableTypeCategoryDomainType6" class="node"><title></title><ellipse fill="#f7b733" stroke="black" cx="85.6514" cy="-828" rx="53.7736" ry="18" style="filter: url(#dropshadow)"/>
<text text-anchor="middle" x="85.6514" y="-826.1" font-family="Times New Roman,serif" font-size="8.00">CategoryDomainType</text>
</g>
<!-- CategoryDomainType&#45;&gt;ParameterTypeProperties -->
<g id="edge17" class="edge"><title>CategoryDomainType&#45;&gt;ParameterTypeProperties</title>
<path fill="none" stroke="black" d="M127.825,-816.715C167.695,-805.683 229.8,-788.226 283.303,-772 286.767,-770.949 290.271,-769.88 293.802,-768.796"/>
<text text-anchor="middle" x="236.303" y="-801.6" font-family="Times New Roman,serif" font-size="8.00">OutParameter</text>
<text text-anchor="middle" x="285.802" y="-762.396" font-family="Times New Roman,serif" font-size="8.00">0...*</text>
<text text-anchor="middle" x="135.825" y="-810.315" font-family="Times New Roman,serif" font-size="8.00">0...*</text>
</g>
<!-- CodeDomainType -->
<g id="ReusableTypeCodeDomainType7" class="node"><title></title><ellipse fill="#f7b733" stroke="black" cx="85.6514" cy="-774" rx="45.2568" ry="18" style="filter: url(#dropshadow)"/>
<text text-anchor="middle" x="85.6514" y="-772.1" font-family="Times New Roman,serif" font-size="8.00">CodeDomainType</text>
</g>
<!-- CodeDomainType&#45;&gt;ParameterTypeProperties -->
<g id="edge18" class="edge"><title>CodeDomainType&#45;&gt;ParameterTypeProperties</title>
<path fill="none" stroke="black" d="M128.437,-767.7C169.137,-761.563 233.482,-751.862 293.548,-742.805"/>
<text text-anchor="middle" x="236.303" y="-761.6" font-family="Times New Roman,serif" font-size="8.00">OutParameter</text>
<text text-anchor="middle" x="285.548" y="-736.405" font-family="Times New Roman,serif" font-size="8.00">0...*</text>
<text text-anchor="middle" x="136.437" y="-761.3" font-family="Times New Roman,serif" font-size="8.00">0...*</text>
</g>
<!-- CommandFileType -->
<g id="ReusableTypeCommandFileType8" class="node"><title></title><ellipse fill="#f7b733" stroke="black" cx="85.6514" cy="-720" rx="47.16" ry="18" style="filter: url(#dropshadow)"/>
<text text-anchor="middle" x="85.6514" y="-718.1" font-family="Times New Roman,serif" font-size="8.00">CommandFileType</text>
</g>
<!-- CommandFileType&#45;&gt;ParameterTypeProperties -->
<g id="edge19" class="edge"><title>CommandFileType&#45;&gt;ParameterTypeProperties</title>
<path fill="none" stroke="black" d="M132.74,-720C173.596,-720 235.609,-720 293.619,-720"/>
<text text-anchor="middle" x="236.303" y="-722.6" font-family="Times New Roman,serif" font-size="8.00">OutParameter</text>
<text text-anchor="middle" x="285.619" y="-713.6" font-family="Times New Roman,serif" font-size="8.00">0...*</text>
<text text-anchor="middle" x="140.74" y="-713.6" font-family="Times New Roman,serif" font-size="8.00">0...*</text>
</g>
<!-- CommandType -->
<g id="ReusableTypeCommandType9" class="node"><title></title><ellipse fill="#f7b733" stroke="black" cx="85.6514" cy="-666" rx="40.0477" ry="18" style="filter: url(#dropshadow)"/>
<text text-anchor="middle" x="85.6514" y="-664.1" font-family="Times New Roman,serif" font-size="8.00">CommandType</text>
</g>
<!-- CommandType&#45;&gt;ParameterTypeProperties -->
<g id="edge20" class="edge"><title>CommandType&#45;&gt;ParameterTypeProperties</title>
<path fill="none" stroke="black" d="M123.966,-671.626C164.339,-677.713 231.321,-687.812 293.67,-697.213"/>
<text text-anchor="middle" x="236.303" y="-697.6" font-family="Times New Roman,serif" font-size="8.00">OutParameter</text>
<text text-anchor="middle" x="285.67" y="-690.813" font-family="Times New Roman,serif" font-size="8.00">0...*</text>
<text text-anchor="middle" x="131.966" y="-665.226" font-family="Times New Roman,serif" font-size="8.00">0...*</text>
</g>
<!-- ConditionalResultType -->
<g id="ReusableTypeConditionalResultType0" class="node"><title></title><ellipse fill="#f7b733" stroke="black" cx="85.6514" cy="-612" rx="55.0423" ry="18" style="filter: url(#dropshadow)"/>
<text text-anchor="middle" x="85.6514" y="-610.1" font-family="Times New Roman,serif" font-size="8.00">ConditionalResultType</text>
</g>
<!-- ConditionalResultType&#45;&gt;ParameterTypeProperties -->
<g id="edge21" class="edge"><title>ConditionalResultType&#45;&gt;ParameterTypeProperties</title>
<path fill="none" stroke="black" d="M127.789,-623.616C167.634,-634.94 229.72,-652.776 283.303,-669 286.716,-670.033 290.168,-671.083 293.649,-672.146"/>
<text text-anchor="middle" x="236.303" y="-671.6" font-family="Times New Roman,serif" font-size="8.00">SourceParameterReference</text>
<text text-anchor="middle" x="301.649" y="-665.746" font-family="Times New Roman,serif" font-size="8.00">0...*</text>
<text text-anchor="middle" x="135.789" y="-626.216" font-family="Times New Roman,serif" font-size="8.00">0...*</text>
</g>
<!-- ConditionalTextType -->
<g id="ReusableTypeConditionalTextType1" class="node"><title></title><ellipse fill="#f7b733" stroke="black" cx="85.6514" cy="-558" rx="52.5056" ry="18" style="filter: url(#dropshadow)"/>
<text text-anchor="middle" x="85.6514" y="-556.1" font-family="Times New Roman,serif" font-size="8.00">ConditionalTextType</text>
</g>
<!-- ConditionalTextType&#45;&gt;ParameterTypeProperties -->
<g id="edge22" class="edge"><title>ConditionalTextType&#45;&gt;ParameterTypeProperties</title>
<path fill="none" stroke="black" d="M125.601,-569.835C140.027,-574.373 156.477,-579.73 171.303,-585 221.695,-602.913 235.001,-606.04 283.303,-629 289.596,-631.992 295.981,-635.128 302.395,-638.364"/>
<text text-anchor="middle" x="236.303" y="-631.6" font-family="Times New Roman,serif" font-size="8.00">SourceParameterReference</text>
<text text-anchor="middle" x="294.395" y="-631.964" font-family="Times New Roman,serif" font-size="8.00">0...*</text>
<text text-anchor="middle" x="133.601" y="-572.435" font-family="Times New Roman,serif" font-size="8.00">0...*</text>
</g>
<!-- DateTimeDomainType -->
<g id="ReusableTypeDateTimeDomainType2" class="node"><title></title><ellipse fill="#f7b733" stroke="black" cx="85.6514" cy="-504" rx="55.6769" ry="18" style="filter: url(#dropshadow)"/>
<text text-anchor="middle" x="85.6514" y="-502.1" font-family="Times New Roman,serif" font-size="8.00">DateTimeDomainType</text>
</g>
<!-- DateTimeDomainType&#45;&gt;ParameterTypeProperties -->
<g id="edge23" class="edge"><title>DateTimeDomainType&#45;&gt;ParameterTypeProperties</title>
<path fill="none" stroke="black" d="M127.397,-516.125C141.413,-520.525 157.138,-525.72 171.303,-531 222.048,-549.917 237.456,-550.173 283.303,-579 310.332,-595.995 337.38,-617.433 361.4,-638.427"/>
<text text-anchor="middle" x="236.303" y="-581.6" font-family="Times New Roman,serif" font-size="8.00">OutParameter</text>
<text text-anchor="middle" x="353.4" y="-632.027" font-family="Times New Roman,serif" font-size="8.00">0...*</text>
<text text-anchor="middle" x="135.397" y="-518.725" font-family="Times New Roman,serif" font-size="8.00">0...*</text>
</g>
<!-- DistributionDomainType -->
<g id="ReusableTypeDistributionDomainType3" class="node"><title></title><ellipse fill="#f7b733" stroke="black" cx="85.6514" cy="-450" rx="58.9835" ry="18" style="filter: url(#dropshadow)"/>
<text text-anchor="middle" x="85.6514" y="-448.1" font-family="Times New Roman,serif" font-size="8.00">DistributionDomainType</text>
</g>
<!-- DistributionDomainType&#45;&gt;ParameterTypeProperties -->
<g id="edge24" class="edge"><title>DistributionDomainType&#45;&gt;ParameterTypeProperties</title>
<path fill="none" stroke="black" d="M134.379,-460.29C176.628,-471.141 238.382,-491.415 283.303,-525 324.805,-556.029 362.331,-599.83 390.741,-638.062"/>
<text text-anchor="middle" x="236.303" y="-527.6" font-family="Times New Roman,serif" font-size="8.00">OutParameter</text>
<text text-anchor="middle" x="382.741" y="-631.662" font-family="Times New Roman,serif" font-size="8.00">0...*</text>
<text text-anchor="middle" x="142.379" y="-462.89" font-family="Times New Roman,serif" font-size="8.00">0...*</text>
</g>
<!-- GeographicLocationCodeDomainType -->
<g id="ReusableTypeGeographicLocationCodeDomainType4" class="node"><title></title><ellipse fill="#f7b733" stroke="black" cx="85.6514" cy="-396" rx="85.8032" ry="18" style="filter: url(#dropshadow)"/>
<text text-anchor="middle" x="85.6514" y="-394.1" font-family="Times New Roman,serif" font-size="8.00">GeographicLocationCodeDomainType</text>
</g>
<!-- GeographicLocationCodeDomainType&#45;&gt;ParameterTypeProperties -->
<g id="edge25" class="edge"><title>GeographicLocationCodeDomainType&#45;&gt;ParameterTypeProperties</title>
<path fill="none" stroke="black" d="M151.997,-407.484C193.205,-417.387 245.572,-435.143 283.303,-466 339.536,-511.988 382.319,-582.929 409.678,-638.162"/>
<text text-anchor="middle" x="236.303" y="-468.6" font-family="Times New Roman,serif" font-size="8.00">OutParameter</text>
<text text-anchor="middle" x="401.678" y="-631.762" font-family="Times New Roman,serif" font-size="8.00">0...*</text>
<text text-anchor="middle" x="143.997" y="-410.084" font-family="Times New Roman,serif" font-size="8.00">0...*</text>
</g>
<!-- GeographicStructureCodeDomainType -->
<g id="ReusableTypeGeographicStructureCodeDomainType5" class="node"><title></title><ellipse fill="#f7b733" stroke="black" cx="85.6514" cy="-342" rx="85.1685" ry="18" style="filter: url(#dropshadow)"/>
<text text-anchor="middle" x="85.6514" y="-340.1" font-family="Times New Roman,serif" font-size="8.00">GeographicStructureCodeDomainType</text>
</g>
<!-- GeographicStructureCodeDomainType&#45;&gt;ParameterTypeProperties -->
<g id="edge26" class="edge"><title>GeographicStructureCodeDomainType&#45;&gt;ParameterTypeProperties</title>
<path fill="none" stroke="black" d="M157.87,-351.775C198.49,-360.469 248.15,-376.737 283.303,-407 354.181,-468.017 398.014,-567.851 421.818,-638.339"/>
<text text-anchor="middle" x="236.303" y="-409.6" font-family="Times New Roman,serif" font-size="8.00">OutParameter</text>
<text text-anchor="middle" x="413.818" y="-640.939" font-family="Times New Roman,serif" font-size="8.00">0...*</text>
<text text-anchor="middle" x="165.87" y="-354.375" font-family="Times New Roman,serif" font-size="8.00">0...*</text>
</g>
<!-- LocationDomainType -->
<g id="ReusableTypeLocationDomainType6" class="node"><title></title><ellipse fill="#f7b733" stroke="black" cx="85.6514" cy="-288" rx="53.7736" ry="18" style="filter: url(#dropshadow)"/>
<text text-anchor="middle" x="85.6514" y="-286.1" font-family="Times New Roman,serif" font-size="8.00">LocationDomainType</text>
</g>
<!-- LocationDomainType&#45;&gt;ParameterTypeProperties -->
<g id="edge27" class="edge"><title>LocationDomainType&#45;&gt;ParameterTypeProperties</title>
<path fill="none" stroke="black" d="M138.471,-292.191C181.905,-298.233 243.1,-312.985 283.303,-349 368.354,-425.191 410.51,-554.203 429.953,-638.239"/>
<text text-anchor="middle" x="236.303" y="-351.6" font-family="Times New Roman,serif" font-size="8.00">OutParameter</text>
<text text-anchor="middle" x="421.953" y="-631.839" font-family="Times New Roman,serif" font-size="8.00">0...*</text>
<text text-anchor="middle" x="146.471" y="-285.791" font-family="Times New Roman,serif" font-size="8.00">0...*</text>
</g>
<!-- NominalDomainType -->
<g id="ReusableTypeNominalDomainType7" class="node"><title></title><ellipse fill="#f7b733" stroke="black" cx="85.6514" cy="-234" rx="52.5056" ry="18" style="filter: url(#dropshadow)"/>
<text text-anchor="middle" x="85.6514" y="-232.1" font-family="Times New Roman,serif" font-size="8.00">NominalDomainType</text>
</g>
<!-- NominalDomainType&#45;&gt;ParameterTypeProperties -->
<g id="edge28" class="edge"><title>NominalDomainType&#45;&gt;ParameterTypeProperties</title>
<path fill="none" stroke="black" d="M138.432,-236.16C182.14,-240.637 243.751,-253.56 283.303,-290 383.12,-381.964 421.597,-541.708 436.177,-638.459"/>
<text text-anchor="middle" x="236.303" y="-292.6" font-family="Times New Roman,serif" font-size="8.00">OutParameter</text>
<text text-anchor="middle" x="444.177" y="-641.059" font-family="Times New Roman,serif" font-size="8.00">0...*</text>
<text text-anchor="middle" x="146.432" y="-229.76" font-family="Times New Roman,serif" font-size="8.00">0...*</text>
</g>
<!-- NumericDomainType -->
<g id="ReusableTypeNumericDomainType8" class="node"><title></title><ellipse fill="#f7b733" stroke="black" cx="85.6514" cy="-180" rx="52.3706" ry="18" style="filter: url(#dropshadow)"/>
<text text-anchor="middle" x="85.6514" y="-178.1" font-family="Times New Roman,serif" font-size="8.00">NumericDomainType</text>
</g>
<!-- NumericDomainType&#45;&gt;ParameterTypeProperties -->
<g id="edge29" class="edge"><title>NumericDomainType&#45;&gt;ParameterTypeProperties</title>
<path fill="none" stroke="black" d="M137.857,-180.532C181.801,-183.71 244.077,-195.1 283.303,-232 397.676,-339.592 431.121,-529.825 440.854,-638.266"/>
<text text-anchor="middle" x="236.303" y="-234.6" font-family="Times New Roman,serif" font-size="8.00">OutParameter</text>
<text text-anchor="middle" x="448.854" y="-631.866" font-family="Times New Roman,serif" font-size="8.00">0...*</text>
<text text-anchor="middle" x="145.857" y="-174.132" font-family="Times New Roman,serif" font-size="8.00">0...*</text>
</g>
<!-- RankingDomainType -->
<g id="ReusableTypeRankingDomainType9" class="node"><title></title><ellipse fill="#f7b733" stroke="black" cx="85.6514" cy="-126" rx="52.3706" ry="18" style="filter: url(#dropshadow)"/>
<text text-anchor="middle" x="85.6514" y="-124.1" font-family="Times New Roman,serif" font-size="8.00">RankingDomainType</text>
</g>
<!-- RankingDomainType&#45;&gt;ParameterTypeProperties -->
<g id="edge30" class="edge"><title>RankingDomainType&#45;&gt;ParameterTypeProperties</title>
<path fill="none" stroke="black" d="M138.099,-125.655C182.201,-128.155 244.571,-138.773 283.303,-176 411.555,-299.271 439.232,-519.282 444.407,-638.241"/>
<text text-anchor="middle" x="236.303" y="-178.6" font-family="Times New Roman,serif" font-size="8.00">OutParameter</text>
<text text-anchor="middle" x="436.407" y="-631.841" font-family="Times New Roman,serif" font-size="8.00">0...*</text>
<text text-anchor="middle" x="146.099" y="-119.255" font-family="Times New Roman,serif" font-size="8.00">0...*</text>
</g>
<!-- ScaleDomainType -->
<g id="ReusableTypeScaleDomainType0" class="node"><title></title><ellipse fill="#f7b733" stroke="black" cx="85.6514" cy="-72" rx="45.2568" ry="18" style="filter: url(#dropshadow)"/>
<text text-anchor="middle" x="85.6514" y="-70.1" font-family="Times New Roman,serif" font-size="8.00">ScaleDomainType</text>
</g>
<!-- ScaleDomainType&#45;&gt;ParameterTypeProperties -->
<g id="edge31" class="edge"><title>ScaleDomainType&#45;&gt;ParameterTypeProperties</title>
<path fill="none" stroke="black" d="M131.073,-70.5912C175.482,-71.6725 242.827,-80.465 283.303,-120 357.097,-192.078 410.767,-491.325 433.196,-638.095"/>
<text text-anchor="middle" x="236.303" y="-122.6" font-family="Times New Roman,serif" font-size="8.00">OutParameter</text>
<text text-anchor="middle" x="425.196" y="-640.695" font-family="Times New Roman,serif" font-size="8.00">0...*</text>
<text text-anchor="middle" x="139.073" y="-64.1912" font-family="Times New Roman,serif" font-size="8.00">0...*</text>
</g>
<!-- TextDomainType -->
<g id="ReusableTypeTextDomainType1" class="node"><title></title><ellipse fill="#f7b733" stroke="black" cx="85.6514" cy="-18" rx="45.2568" ry="18" style="filter: url(#dropshadow)"/>
<text text-anchor="middle" x="85.6514" y="-16.1" font-family="Times New Roman,serif" font-size="8.00">TextDomainType</text>
</g>
<!-- TextDomainType&#45;&gt;ParameterTypeProperties -->
<g id="edge32" class="edge"><title>TextDomainType&#45;&gt;ParameterTypeProperties</title>
<path fill="none" stroke="black" d="M130.795,-15.9037C175.307,-16.3036 243.031,-24.1924 283.303,-64 364.342,-144.104 415.399,-480.507 435.303,-638.01"/>
<text text-anchor="middle" x="236.303" y="-66.6" font-family="Times New Roman,serif" font-size="8.00">OutParameter</text>
<text text-anchor="middle" x="443.303" y="-640.61" font-family="Times New Roman,serif" font-size="8.00">0...*</text>
<text text-anchor="middle" x="138.795" y="-9.50375" font-family="Times New Roman,serif" font-size="8.00">0...*</text>
</g>
</g>
</svg>
