<?xml version="1.0" encoding="UTF-8" standalone="no"?>
<!DOCTYPE svg PUBLIC "-//W3C//DTD SVG 1.1//EN"
 "http://www.w3.org/Graphics/SVG/1.1/DTD/svg11.dtd">
<!-- Generated by graphviz version 2.38.0 (20140413.2041)
 -->
<!-- Title: G Pages: 1 -->
<svg width="1401pt" height="470pt"
 viewBox="0.00 0.00 1400.58 470.00" xmlns="http://www.w3.org/2000/svg" xmlns:xlink="http://www.w3.org/1999/xlink">
<filter id = "dropshadow" height = "130%" ><feGaussianBlur in= "SourceAlpha" stdDeviation = "3"/><!--stdDeviation is how much to blur--><feOffset dx = "2" dy = "2" result = "offsetblur"/><!--how much to offset--><feMerge><feMergeNode/><!--this contains the offset blurred image--><feMergeNode in= "SourceGraphic"/><!--this contains the element that the filter is applied to --></feMerge></filter>
<g id="graph0" class="graph" transform="scale(1 1) rotate(0) translate(4 466)">
<title>G</title>
<g id="clust1" class="cluster"><title>clusterProcessingEvent</title>
<polygon fill="#4abdac" stroke="black" points="235.58,-154 235.58,-454 1384.58,-454 1384.58,-154 235.58,-154" style="filter: url(#dropshadow)"/>
<text text-anchor="middle" x="810.08" y="-443.6" font-family="Times New Roman,serif" font-size="8.00">ProcessingEvent</text>
</g>
<!-- ProcessingEventProperties -->
<g id="ItemTypeProcessingEventProperties" class="node"><title></title><polygon fill="#f7b733" stroke="black" points="243.58,-181.5 243.58,-270.5 547.58,-270.5 547.58,-181.5 243.58,-181.5" style="filter: url(#dropshadow)"/>
<text text-anchor="middle" x="270.08" y="-224.1" font-family="Times New Roman,serif" font-size="8.00">Properties</text>
<polyline fill="none" stroke="black" points="296.58,-181.5 296.58,-270.5 "/>
<text text-anchor="start" x="304.58" y="-260.1" font-family="Times New Roman,serif" font-size="8.00">ProcessingEventName : NameType[0...n] </text>
<text text-anchor="start" x="304.58" y="-251.1" font-family="Times New Roman,serif" font-size="8.00">Label : LabelType[0...n] </text>
<text text-anchor="start" x="304.58" y="-242.1" font-family="Times New Roman,serif" font-size="8.00">Description : StructuredStringType[0...1] </text>
<text text-anchor="start" x="304.58" y="-233.1" font-family="Times New Roman,serif" font-size="8.00">ControlOperation : OperationType[0...n] </text>
<text text-anchor="start" x="304.58" y="-224.1" font-family="Times New Roman,serif" font-size="8.00">CleaningOperation : OperationType[0...n] </text>
<text text-anchor="start" x="304.58" y="-215.1" font-family="Times New Roman,serif" font-size="8.00">WeightingReference : Weighting[0...n] </text>
<text text-anchor="start" x="304.58" y="-206.1" font-family="Times New Roman,serif" font-size="8.00">DataAppraisalInformation : DataAppraisalInformationType[0...n] </text>
<text text-anchor="start" x="304.58" y="-197.1" font-family="Times New Roman,serif" font-size="8.00">ProcessingInstructionReference : ProcessingInstruction[0...n] </text>
<text text-anchor="start" x="304.58" y="-188.1" font-family="Times New Roman,serif" font-size="8.00">QualityStatementReference : QualityStatement[0...n] </text>
</g>
<!-- ProcessingEventNameType -->
<g id="ReusableTypeProcessingEventNameType" class="node"><title></title><polygon fill="#fc4a1a" stroke="black" points="773.08,-163 773.08,-199 942.08,-199 942.08,-163 773.08,-163" style="filter: url(#dropshadow)"/>
<text text-anchor="middle" x="801.08" y="-179.1" font-family="Times New Roman,serif" font-size="8.00">NameType</text>
<polyline fill="none" stroke="black" points="829.08,-163 829.08,-199 "/>
<text text-anchor="start" x="837.08" y="-183.6" font-family="Times New Roman,serif" font-size="8.00">IsPreferred : boolean[0...1] </text>
<text text-anchor="start" x="837.08" y="-174.6" font-family="Times New Roman,serif" font-size="8.00">Context : string[0...1] </text>
</g>
<!-- ProcessingEventProperties&#45;&gt;ProcessingEventNameType -->
<g id="edge1" class="edge"><title>ProcessingEventProperties&#45;&gt;ProcessingEventNameType</title>
<path fill="none" stroke="black" d="M547.838,-211.203C622.73,-203.877 710.29,-195.311 772.996,-189.177"/>
<text text-anchor="middle" x="620.58" y="-211.6" font-family="Times New Roman,serif" font-size="8.00">ProcessingEventName</text>
</g>
<!-- ProcessingEventLabelType -->
<g id="ReusableTypeProcessingEventLabelType" class="node"><title></title><polygon fill="#fc4a1a" stroke="black" points="752.08,-218.5 752.08,-271.5 963.08,-271.5 963.08,-218.5 752.08,-218.5" style="filter: url(#dropshadow)"/>
<text text-anchor="middle" x="779.08" y="-243.1" font-family="Times New Roman,serif" font-size="8.00">LabelType</text>
<polyline fill="none" stroke="black" points="806.08,-218.5 806.08,-271.5 "/>
<text text-anchor="start" x="814.08" y="-261.1" font-family="Times New Roman,serif" font-size="8.00">TypeOfLabel : CodeValueType[0...1] </text>
<text text-anchor="start" x="814.08" y="-252.1" font-family="Times New Roman,serif" font-size="8.00">LocationVariant : string[0...1] </text>
<text text-anchor="start" x="814.08" y="-243.1" font-family="Times New Roman,serif" font-size="8.00">ValidForStartDate : cogsDate[0...1] </text>
<text text-anchor="start" x="814.08" y="-234.1" font-family="Times New Roman,serif" font-size="8.00">ValidForEndDate : cogsDate[0...1] </text>
<text text-anchor="start" x="814.08" y="-225.1" font-family="Times New Roman,serif" font-size="8.00">MaxLength : nonNegativeInteger[0...1] </text>
</g>
<!-- ProcessingEventProperties&#45;&gt;ProcessingEventLabelType -->
<g id="edge2" class="edge"><title>ProcessingEventProperties&#45;&gt;ProcessingEventLabelType</title>
<path fill="none" stroke="black" d="M547.838,-232.248C614.613,-235.006 691.457,-238.18 751.777,-240.671"/>
<text text-anchor="middle" x="620.58" y="-240.6" font-family="Times New Roman,serif" font-size="8.00">Label</text>
</g>
<!-- ProcessingEventStructuredStringType -->
<g id="ReusableTypeProcessingEventStructuredStringType" class="node"><title></title><polygon fill="#fc4a1a" stroke="black" points="1163.58,-358 1163.58,-394 1376.58,-394 1376.58,-358 1163.58,-358" style="filter: url(#dropshadow)"/>
<text text-anchor="middle" x="1208.58" y="-374.1" font-family="Times New Roman,serif" font-size="8.00">StructuredStringType</text>
<polyline fill="none" stroke="black" points="1253.58,-358 1253.58,-394 "/>
<text text-anchor="start" x="1261.58" y="-374.1" font-family="Times New Roman,serif" font-size="8.00">Content : ContentType[0...n] </text>
</g>
<!-- ProcessingEventProperties&#45;&gt;ProcessingEventStructuredStringType -->
<g id="edge3" class="edge"><title>ProcessingEventProperties&#45;&gt;ProcessingEventStructuredStringType</title>
<path fill="none" stroke="black" d="M513.801,-270.567C531.152,-277.112 548.824,-283.751 565.58,-290 622.363,-311.176 634.306,-324.38 693.58,-337 780.324,-355.469 1022.54,-367.051 1163.55,-372.434"/>
<text text-anchor="middle" x="857.58" y="-368.6" font-family="Times New Roman,serif" font-size="8.00">Description</text>
</g>
<!-- ProcessingEventOperationType -->
<g id="ReusableTypeProcessingEventOperationType" class="node"><title></title><polygon fill="#fc4a1a" stroke="black" points="735.08,-291 735.08,-327 980.08,-327 980.08,-291 735.08,-291" style="filter: url(#dropshadow)"/>
<text text-anchor="middle" x="770.58" y="-307.1" font-family="Times New Roman,serif" font-size="8.00">OperationType</text>
<polyline fill="none" stroke="black" points="806.08,-291 806.08,-327 "/>
<text text-anchor="start" x="814.08" y="-311.6" font-family="Times New Roman,serif" font-size="8.00">Description : StructuredStringType[0...1] </text>
<text text-anchor="start" x="814.08" y="-302.6" font-family="Times New Roman,serif" font-size="8.00">AgencyOrganizationReference : Agent[0...n] </text>
</g>
<!-- ProcessingEventProperties&#45;&gt;ProcessingEventOperationType -->
<g id="edge4" class="edge"><title>ProcessingEventProperties&#45;&gt;ProcessingEventOperationType</title>
<path fill="none" stroke="black" d="M547.603,-254.36C594.371,-263.036 646.087,-272.524 693.58,-281 711.953,-284.279 731.505,-287.698 750.451,-290.975"/>
<text text-anchor="middle" x="620.58" y="-279.6" font-family="Times New Roman,serif" font-size="8.00">ControlOperation</text>
</g>
<!-- Weighting -->
<g id="ItemTypeWeighting" class="node"><title></title><ellipse fill="#f7b733" stroke="black" cx="857.58" cy="-126" rx="30.1263" ry="18" style="filter: url(#dropshadow)"/>
<text text-anchor="middle" x="857.58" y="-124.1" font-family="Times New Roman,serif" font-size="8.00">Weighting</text>
</g>
<!-- ProcessingEventProperties&#45;&gt;Weighting -->
<g id="edge5" class="edge"><title>ProcessingEventProperties&#45;&gt;Weighting</title>
<path fill="none" stroke="black" d="M547.734,-184.074C594.278,-172.042 645.835,-159.597 693.58,-150 740.271,-140.615 795.178,-133.286 827.863,-129.308"/>
<text text-anchor="middle" x="620.58" y="-181.6" font-family="Times New Roman,serif" font-size="8.00">WeightingReference</text>
<text text-anchor="middle" x="819.863" y="-122.908" font-family="Times New Roman,serif" font-size="8.00">0...*</text>
<text text-anchor="middle" x="555.734" y="-177.674" font-family="Times New Roman,serif" font-size="8.00">0...*</text>
</g>
<!-- ProcessingEventDataAppraisalInformationType -->
<g id="ReusableTypeProcessingEventDataAppraisalInformationType" class="node"><title></title><polygon fill="#fc4a1a" stroke="black" points="693.58,-392 693.58,-428 1021.58,-428 1021.58,-392 693.58,-392" style="filter: url(#dropshadow)"/>
<text text-anchor="middle" x="757.58" y="-408.1" font-family="Times New Roman,serif" font-size="8.00">DataAppraisalInformationType</text>
<polyline fill="none" stroke="black" points="821.58,-392 821.58,-428 "/>
<text text-anchor="start" x="829.58" y="-417.1" font-family="Times New Roman,serif" font-size="8.00">ResponseRate : ResponseRateType[0...n] </text>
<text text-anchor="start" x="829.58" y="-408.1" font-family="Times New Roman,serif" font-size="8.00">SamplingError : StructuredStringType[0...n] </text>
<text text-anchor="start" x="829.58" y="-399.1" font-family="Times New Roman,serif" font-size="8.00">OtherAppraisalProcess : StructuredStringType[0...n] </text>
</g>
<!-- ProcessingEventProperties&#45;&gt;ProcessingEventDataAppraisalInformationType -->
<g id="edge6" class="edge"><title>ProcessingEventProperties&#45;&gt;ProcessingEventDataAppraisalInformationType</title>
<path fill="none" stroke="black" d="M435.986,-270.831C467.584,-303.663 514.895,-346.297 565.58,-369 605.158,-386.727 650.535,-397.203 693.497,-403.287"/>
<text text-anchor="middle" x="620.58" y="-402.6" font-family="Times New Roman,serif" font-size="8.00">DataAppraisalInformation</text>
<text text-anchor="middle" x="685.497" y="-396.887" font-family="Times New Roman,serif" font-size="8.00">0...*</text>
<text text-anchor="middle" x="427.986" y="-273.431" font-family="Times New Roman,serif" font-size="8.00">0...*</text>
</g>
<!-- ProcessingInstruction -->
<g id="ItemTypeProcessingInstruction" class="node"><title></title><ellipse fill="#f7b733" stroke="black" cx="857.58" cy="-72" rx="52.3706" ry="18" style="filter: url(#dropshadow)"/>
<text text-anchor="middle" x="857.58" y="-70.1" font-family="Times New Roman,serif" font-size="8.00">ProcessingInstruction</text>
</g>
<!-- ProcessingEventProperties&#45;&gt;ProcessingInstruction -->
<g id="edge7" class="edge"><title>ProcessingEventProperties&#45;&gt;ProcessingInstruction</title>
<path fill="none" stroke="black" d="M481.16,-181.393C539.274,-152.878 619.096,-117.831 693.58,-99 731.54,-89.4033 775.361,-82.3643 808,-77.8839"/>
<text text-anchor="middle" x="620.58" y="-144.6" font-family="Times New Roman,serif" font-size="8.00">ProcessingInstructionReference</text>
<text text-anchor="middle" x="800" y="-71.4839" font-family="Times New Roman,serif" font-size="8.00">0...*</text>
<text text-anchor="middle" x="473.16" y="-174.993" font-family="Times New Roman,serif" font-size="8.00">0...*</text>
</g>
<!-- QualityStatement -->
<g id="ItemTypeQualityStatement" class="node"><title></title><ellipse fill="#f7b733" stroke="black" cx="857.58" cy="-18" rx="43.8539" ry="18" style="filter: url(#dropshadow)"/>
<text text-anchor="middle" x="857.58" y="-16.1" font-family="Times New Roman,serif" font-size="8.00">QualityStatement</text>
</g>
<!-- ProcessingEventProperties&#45;&gt;QualityStatement -->
<g id="edge8" class="edge"><title>ProcessingEventProperties&#45;&gt;QualityStatement</title>
<path fill="none" stroke="black" d="M445.078,-181.209C477.393,-153.098 521.821,-117.636 565.58,-93 618.524,-63.1933 634.888,-60.7054 693.58,-45 734.313,-34.1004 782.012,-26.8157 815.247,-22.5883"/>
<text text-anchor="middle" x="620.58" y="-95.6" font-family="Times New Roman,serif" font-size="8.00">QualityStatementReference</text>
<text text-anchor="middle" x="807.247" y="-16.1883" font-family="Times New Roman,serif" font-size="8.00">0...*</text>
<text text-anchor="middle" x="437.078" y="-174.809" font-family="Times New Roman,serif" font-size="8.00">0...*</text>
</g>
<!-- ProcessingEventOperationType&#45;&gt;ProcessingEventStructuredStringType -->
<g id="edge9" class="edge"><title>ProcessingEventOperationType&#45;&gt;ProcessingEventStructuredStringType</title>
<path fill="none" stroke="black" d="M980.354,-324.599C1031.5,-331.616 1091.55,-340.464 1145.58,-350 1159.07,-352.38 1173.33,-355.148 1187.18,-357.972"/>
<text text-anchor="middle" x="1092.58" y="-352.6" font-family="Times New Roman,serif" font-size="8.00">Description</text>
<text text-anchor="middle" x="1179.18" y="-351.572" font-family="Times New Roman,serif" font-size="8.00">0...*</text>
<text text-anchor="middle" x="988.354" y="-318.199" font-family="Times New Roman,serif" font-size="8.00">0...*</text>
</g>
<!-- Agent -->
<g id="ItemTypeAgent0" class="node"><title></title><ellipse fill="#f7b733" stroke="black" cx="1270.08" cy="-128" rx="27" ry="18" style="filter: url(#dropshadow)"/>
<text text-anchor="middle" x="1270.08" y="-126.1" font-family="Times New Roman,serif" font-size="8.00">Agent</text>
</g>
<!-- ProcessingEventOperationType&#45;&gt;Agent -->
<g id="edge10" class="edge"><title>ProcessingEventOperationType&#45;&gt;Agent</title>
<path fill="none" stroke="black" d="M980.336,-296.109C994.634,-292.276 1008.7,-287.343 1021.58,-281 1098.61,-243.063 1087.23,-189.297 1163.58,-150 1188.7,-137.07 1220.89,-131.739 1243.07,-129.542"/>
<text text-anchor="middle" x="1092.58" y="-272.6" font-family="Times New Roman,serif" font-size="8.00">AgencyOrganizationReference</text>
<text text-anchor="middle" x="1235.07" y="-123.142" font-family="Times New Roman,serif" font-size="8.00">0...*</text>
<text text-anchor="middle" x="988.336" y="-289.709" font-family="Times New Roman,serif" font-size="8.00">0...*</text>
</g>
<!-- ProcessingEventDataAppraisalInformationType&#45;&gt;ProcessingEventStructuredStringType -->
<g id="edge11" class="edge"><title>ProcessingEventDataAppraisalInformationType&#45;&gt;ProcessingEventStructuredStringType</title>
<path fill="none" stroke="black" d="M1007.66,-391.999C1018.45,-390.912 1029.18,-389.897 1039.58,-389 1079.94,-385.519 1124.37,-382.755 1163.3,-380.686"/>
<text text-anchor="middle" x="1092.58" y="-391.6" font-family="Times New Roman,serif" font-size="8.00">SamplingError</text>
<text text-anchor="middle" x="1155.3" y="-374.286" font-family="Times New Roman,serif" font-size="8.00">0...*</text>
<text text-anchor="middle" x="999.656" y="-385.599" font-family="Times New Roman,serif" font-size="8.00">0...*</text>
</g>
<!-- ProcessingEventDataAppraisalInformationType&#45;&gt;ProcessingEventStructuredStringType -->
<g id="edge12" class="edge"><title>ProcessingEventDataAppraisalInformationType&#45;&gt;ProcessingEventStructuredStringType</title>
<path fill="none" stroke="black" d="M1021.65,-406.99C1062.22,-405.194 1105.55,-402.382 1145.58,-398 1155.32,-396.934 1165.46,-395.562 1175.54,-394.026"/>
<text text-anchor="middle" x="1092.58" y="-407.6" font-family="Times New Roman,serif" font-size="8.00">OtherAppraisalProcess</text>
<text text-anchor="middle" x="1167.54" y="-396.626" font-family="Times New Roman,serif" font-size="8.00">0...*</text>
<text text-anchor="middle" x="1029.65" y="-400.59" font-family="Times New Roman,serif" font-size="8.00">0...*</text>
</g>
<!-- ProcessingEventGroup -->
<g id="ItemTypeProcessingEventGroup1" class="node"><title></title><ellipse fill="#f7b733" stroke="black" cx="57.29" cy="-253" rx="53.7736" ry="18" style="filter: url(#dropshadow)"/>
<text text-anchor="middle" x="57.29" y="-251.1" font-family="Times New Roman,serif" font-size="8.00">ProcessingEventGroup</text>
</g>
<!-- ProcessingEventGroup&#45;&gt;ProcessingEventProperties -->
<g id="edge13" class="edge"><title>ProcessingEventGroup&#45;&gt;ProcessingEventProperties</title>
<path fill="none" stroke="black" d="M110.098,-248.84C144.044,-246.115 190.397,-242.393 235.832,-238.746"/>
<text text-anchor="middle" x="179.08" y="-249.6" font-family="Times New Roman,serif" font-size="8.00">ProcessingEventReference</text>
<text text-anchor="middle" x="227.832" y="-232.346" font-family="Times New Roman,serif" font-size="8.00">0...*</text>
<text text-anchor="middle" x="118.098" y="-242.44" font-family="Times New Roman,serif" font-size="8.00">0...*</text>
</g>
<!-- ProcessingEventScheme -->
<g id="ItemTypeProcessingEventScheme2" class="node"><title></title><ellipse fill="#f7b733" stroke="black" cx="57.29" cy="-199" rx="57.0809" ry="18" style="filter: url(#dropshadow)"/>
<text text-anchor="middle" x="57.29" y="-197.1" font-family="Times New Roman,serif" font-size="8.00">ProcessingEventScheme</text>
</g>
<!-- ProcessingEventScheme&#45;&gt;ProcessingEventProperties -->
<g id="edge14" class="edge"><title>ProcessingEventScheme&#45;&gt;ProcessingEventProperties</title>
<path fill="none" stroke="black" d="M113.069,-203.398C146.674,-206.096 191.585,-209.702 235.651,-213.24"/>
<text text-anchor="middle" x="179.08" y="-214.6" font-family="Times New Roman,serif" font-size="8.00">ProcessingEventReference</text>
<text text-anchor="middle" x="227.651" y="-206.84" font-family="Times New Roman,serif" font-size="8.00">0...*</text>
<text text-anchor="middle" x="121.069" y="-196.998" font-family="Times New Roman,serif" font-size="8.00">0...*</text>
</g>
</g>
</svg>
