<?xml version="1.0" encoding="UTF-8" standalone="no"?>
<!DOCTYPE svg PUBLIC "-//W3C//DTD SVG 1.1//EN"
 "http://www.w3.org/Graphics/SVG/1.1/DTD/svg11.dtd">
<!-- Generated by graphviz version 2.38.0 (20140413.2041)
 -->
<!-- Title: G Pages: 1 -->
<svg width="1939pt" height="784pt"
 viewBox="0.00 0.00 1938.95 784.00" xmlns="http://www.w3.org/2000/svg" xmlns:xlink="http://www.w3.org/1999/xlink">
<filter id = "dropshadow" height = "130%" ><feGaussianBlur in= "SourceAlpha" stdDeviation = "3"/><!--stdDeviation is how much to blur--><feOffset dx = "2" dy = "2" result = "offsetblur"/><!--how much to offset--><feMerge><feMergeNode/><!--this contains the offset blurred image--><feMergeNode in= "SourceGraphic"/><!--this contains the element that the filter is applied to --></feMerge></filter>
<g id="graph0" class="graph" transform="scale(1 1) rotate(0) translate(4 780)">
<title>G</title>
<g id="clust1" class="cluster"><title>clusterQuestionBlock</title>
<polygon fill="#4abdac" stroke="black" points="197.95,-208 197.95,-768 1922.95,-768 1922.95,-208 197.95,-208" style="filter: url(#dropshadow)"/>
<text text-anchor="middle" x="1060.45" y="-757.6" font-family="Times New Roman,serif" font-size="8.00">QuestionBlock</text>
</g>
<!-- QuestionBlockProperties -->
<g id="ItemTypeQuestionBlockProperties" class="node"><title></title><polygon fill="#f7b733" stroke="black" points="205.95,-337.5 205.95,-498.5 540.95,-498.5 540.95,-337.5 205.95,-337.5" style="filter: url(#dropshadow)"/>
<text text-anchor="middle" x="232.45" y="-416.1" font-family="Times New Roman,serif" font-size="8.00">Properties</text>
<polyline fill="none" stroke="black" points="258.95,-337.5 258.95,-498.5 "/>
<text text-anchor="start" x="266.95" y="-488.1" font-family="Times New Roman,serif" font-size="8.00">QuestionBlockName : NameType[0...n] </text>
<text text-anchor="start" x="266.95" y="-479.1" font-family="Times New Roman,serif" font-size="8.00">Label : LabelType[0...n] </text>
<text text-anchor="start" x="266.95" y="-470.1" font-family="Times New Roman,serif" font-size="8.00">Description : StructuredStringType[0...1] </text>
<text text-anchor="start" x="266.95" y="-461.1" font-family="Times New Roman,serif" font-size="8.00">InParameter : InParameterType[0...n] </text>
<text text-anchor="start" x="266.95" y="-452.1" font-family="Times New Roman,serif" font-size="8.00">OutParameter : ParameterType[0...n] </text>
<text text-anchor="start" x="266.95" y="-443.1" font-family="Times New Roman,serif" font-size="8.00">Binding : BindingType[0...n] </text>
<text text-anchor="start" x="266.95" y="-434.1" font-family="Times New Roman,serif" font-size="8.00">QuestionBlockIntent : StructuredStringType[0...1] </text>
<text text-anchor="start" x="266.95" y="-425.1" font-family="Times New Roman,serif" font-size="8.00">StimulusMaterial : StimulusMaterialType[0...1] </text>
<text text-anchor="start" x="266.95" y="-416.1" font-family="Times New Roman,serif" font-size="8.00">QuestionItemReference : QuestionItem[0...1] </text>
<text text-anchor="start" x="266.95" y="-407.1" font-family="Times New Roman,serif" font-size="8.00">QuestionGridReference : QuestionGrid[0...1] </text>
<text text-anchor="start" x="266.95" y="-398.1" font-family="Times New Roman,serif" font-size="8.00">QuestionSequence : QuestionSequenceType[0...1] </text>
<text text-anchor="start" x="266.95" y="-389.1" font-family="Times New Roman,serif" font-size="8.00">ResponseCardinality : ResponseCardinalityType[0...1] </text>
<text text-anchor="start" x="266.95" y="-380.1" font-family="Times New Roman,serif" font-size="8.00">ConceptReference : Concept[0...n] </text>
<text text-anchor="start" x="266.95" y="-371.1" font-family="Times New Roman,serif" font-size="8.00">ExternalAid : ExternalAidType[0...n] </text>
<text text-anchor="start" x="266.95" y="-362.1" font-family="Times New Roman,serif" font-size="8.00">ExternalInterviewerInstruction : ExternalInterviewerInstructionType[0...1] </text>
<text text-anchor="start" x="266.95" y="-353.1" font-family="Times New Roman,serif" font-size="8.00">InterviewerInstructionReference : Instruction[0...1] </text>
<text text-anchor="start" x="266.95" y="-344.1" font-family="Times New Roman,serif" font-size="8.00">EstimatedSecondsResponseTime : decimal[0...1] </text>
</g>
<!-- QuestionBlockNameType -->
<g id="ReusableTypeQuestionBlockNameType" class="node"><title></title><polygon fill="#fc4a1a" stroke="black" points="1723.95,-517 1723.95,-553 1892.95,-553 1892.95,-517 1723.95,-517" style="filter: url(#dropshadow)"/>
<text text-anchor="middle" x="1751.95" y="-533.1" font-family="Times New Roman,serif" font-size="8.00">NameType</text>
<polyline fill="none" stroke="black" points="1779.95,-517 1779.95,-553 "/>
<text text-anchor="start" x="1787.95" y="-537.6" font-family="Times New Roman,serif" font-size="8.00">IsPreferred : boolean[0...1] </text>
<text text-anchor="start" x="1787.95" y="-528.6" font-family="Times New Roman,serif" font-size="8.00">Context : string[0...1] </text>
</g>
<!-- QuestionBlockProperties&#45;&gt;QuestionBlockNameType -->
<g id="edge1" class="edge"><title>QuestionBlockProperties&#45;&gt;QuestionBlockNameType</title>
<path fill="none" stroke="black" d="M541.234,-469.415C588.826,-482.021 641.043,-493.917 689.95,-501 889.249,-529.865 1499.65,-534.275 1723.78,-534.909"/>
<text text-anchor="middle" x="1187.95" y="-531.6" font-family="Times New Roman,serif" font-size="8.00">QuestionBlockName</text>
</g>
<!-- QuestionBlockLabelType -->
<g id="ReusableTypeQuestionBlockLabelType" class="node"><title></title><polygon fill="#fc4a1a" stroke="black" points="800.95,-272.5 800.95,-325.5 1011.95,-325.5 1011.95,-272.5 800.95,-272.5" style="filter: url(#dropshadow)"/>
<text text-anchor="middle" x="827.95" y="-297.1" font-family="Times New Roman,serif" font-size="8.00">LabelType</text>
<polyline fill="none" stroke="black" points="854.95,-272.5 854.95,-325.5 "/>
<text text-anchor="start" x="862.95" y="-315.1" font-family="Times New Roman,serif" font-size="8.00">TypeOfLabel : CodeValueType[0...1] </text>
<text text-anchor="start" x="862.95" y="-306.1" font-family="Times New Roman,serif" font-size="8.00">LocationVariant : string[0...1] </text>
<text text-anchor="start" x="862.95" y="-297.1" font-family="Times New Roman,serif" font-size="8.00">ValidForStartDate : cogsDate[0...1] </text>
<text text-anchor="start" x="862.95" y="-288.1" font-family="Times New Roman,serif" font-size="8.00">ValidForEndDate : cogsDate[0...1] </text>
<text text-anchor="start" x="862.95" y="-279.1" font-family="Times New Roman,serif" font-size="8.00">MaxLength : nonNegativeInteger[0...1] </text>
</g>
<!-- QuestionBlockProperties&#45;&gt;QuestionBlockLabelType -->
<g id="edge2" class="edge"><title>QuestionBlockProperties&#45;&gt;QuestionBlockLabelType</title>
<path fill="none" stroke="black" d="M541.185,-371.083C589.007,-358.459 641.356,-345.428 689.95,-335 725.832,-327.3 765.372,-320.278 800.68,-314.522"/>
<text text-anchor="middle" x="615.45" y="-369.6" font-family="Times New Roman,serif" font-size="8.00">Label</text>
</g>
<!-- QuestionBlockStructuredStringType -->
<g id="ReusableTypeQuestionBlockStructuredStringType" class="node"><title></title><polygon fill="#fc4a1a" stroke="black" points="1701.95,-671 1701.95,-707 1914.95,-707 1914.95,-671 1701.95,-671" style="filter: url(#dropshadow)"/>
<text text-anchor="middle" x="1746.95" y="-687.1" font-family="Times New Roman,serif" font-size="8.00">StructuredStringType</text>
<polyline fill="none" stroke="black" points="1791.95,-671 1791.95,-707 "/>
<text text-anchor="start" x="1799.95" y="-687.1" font-family="Times New Roman,serif" font-size="8.00">Content : ContentType[0...n] </text>
</g>
<!-- QuestionBlockProperties&#45;&gt;QuestionBlockStructuredStringType -->
<g id="edge3" class="edge"><title>QuestionBlockProperties&#45;&gt;QuestionBlockStructuredStringType</title>
<path fill="none" stroke="black" d="M406.732,-498.651C436.685,-563.119 487.457,-650.743 558.95,-701 607.896,-735.408 630.523,-725.064 689.95,-732 1059.97,-775.185 1503.1,-729.479 1701.88,-703.871"/>
<text text-anchor="middle" x="1187.95" y="-750.6" font-family="Times New Roman,serif" font-size="8.00">Description</text>
</g>
<!-- QuestionBlockInParameterType -->
<g id="ReusableTypeQuestionBlockInParameterType" class="node"><title></title><polygon fill="#fc4a1a" stroke="black" points="803.95,-400 803.95,-436 1008.95,-436 1008.95,-400 803.95,-400" style="filter: url(#dropshadow)"/>
<text text-anchor="middle" x="843.45" y="-416.1" font-family="Times New Roman,serif" font-size="8.00">InParameterType</text>
<polyline fill="none" stroke="black" points="882.95,-400 882.95,-436 "/>
<text text-anchor="start" x="890.95" y="-416.1" font-family="Times New Roman,serif" font-size="8.00">LimitArrayIndex : string[0...1] </text>
</g>
<!-- QuestionBlockProperties&#45;&gt;QuestionBlockInParameterType -->
<g id="edge4" class="edge"><title>QuestionBlockProperties&#45;&gt;QuestionBlockInParameterType</title>
<path fill="none" stroke="black" d="M541.005,-418C627.079,-418 729.344,-418 803.605,-418"/>
<text text-anchor="middle" x="615.45" y="-420.6" font-family="Times New Roman,serif" font-size="8.00">InParameter</text>
</g>
<!-- QuestionBlockParameterType -->
<g id="ReusableTypeQuestionBlockParameterType" class="node"><title></title><polygon fill="#fc4a1a" stroke="black" points="1252.95,-546.5 1252.95,-617.5 1559.95,-617.5 1559.95,-546.5 1252.95,-546.5" style="filter: url(#dropshadow)"/>
<text text-anchor="middle" x="1288.45" y="-580.1" font-family="Times New Roman,serif" font-size="8.00">ParameterType</text>
<polyline fill="none" stroke="black" points="1323.95,-546.5 1323.95,-617.5 "/>
<text text-anchor="start" x="1331.95" y="-607.1" font-family="Times New Roman,serif" font-size="8.00">ParameterName : NameType[0...n] </text>
<text text-anchor="start" x="1331.95" y="-598.1" font-family="Times New Roman,serif" font-size="8.00">Alias : string[0...1] </text>
<text text-anchor="start" x="1331.95" y="-589.1" font-family="Times New Roman,serif" font-size="8.00">Description : StructuredStringType[0...1] </text>
<text text-anchor="start" x="1331.95" y="-580.1" font-family="Times New Roman,serif" font-size="8.00">ValueRepresentation : RepresentationType[0...1] </text>
<text text-anchor="start" x="1331.95" y="-571.1" font-family="Times New Roman,serif" font-size="8.00">ValueRepresentationReference : ManagedRepresentation[0...1] </text>
<text text-anchor="start" x="1331.95" y="-562.1" font-family="Times New Roman,serif" font-size="8.00">DefaultValue : ValueType[0...1] </text>
<text text-anchor="start" x="1331.95" y="-553.1" font-family="Times New Roman,serif" font-size="8.00">IsArray : boolean[0...1] </text>
</g>
<!-- QuestionBlockProperties&#45;&gt;QuestionBlockParameterType -->
<g id="edge5" class="edge"><title>QuestionBlockProperties&#45;&gt;QuestionBlockParameterType</title>
<path fill="none" stroke="black" d="M511.379,-498.521C527.049,-505.37 543.096,-511.419 558.95,-516 800.431,-585.779 872.384,-538.027 1122.95,-558 1165.02,-561.354 1210.61,-565.153 1252.63,-568.724"/>
<text text-anchor="middle" x="906.45" y="-560.6" font-family="Times New Roman,serif" font-size="8.00">OutParameter</text>
</g>
<!-- QuestionBlockBindingType -->
<g id="ReusableTypeQuestionBlockBindingType" class="node"><title></title><polygon fill="#fc4a1a" stroke="black" points="777.45,-686 777.45,-722 1035.45,-722 1035.45,-686 777.45,-686" style="filter: url(#dropshadow)"/>
<text text-anchor="middle" x="808.45" y="-702.1" font-family="Times New Roman,serif" font-size="8.00">BindingType</text>
<polyline fill="none" stroke="black" points="839.45,-686 839.45,-722 "/>
<text text-anchor="start" x="847.45" y="-706.6" font-family="Times New Roman,serif" font-size="8.00">SourceParameterReference : ParameterType[0...1] </text>
<text text-anchor="start" x="847.45" y="-697.6" font-family="Times New Roman,serif" font-size="8.00">TargetParameterReference : ParameterType[0...1] </text>
</g>
<!-- QuestionBlockProperties&#45;&gt;QuestionBlockBindingType -->
<g id="edge6" class="edge"><title>QuestionBlockProperties&#45;&gt;QuestionBlockBindingType</title>
<path fill="none" stroke="black" d="M421.032,-498.741C453.581,-548.134 501.436,-608.624 558.95,-645 623.545,-685.854 707.875,-700.855 777.168,-705.521"/>
<text text-anchor="middle" x="615.45" y="-690.6" font-family="Times New Roman,serif" font-size="8.00">Binding</text>
</g>
<!-- QuestionBlockStimulusMaterialType -->
<g id="ReusableTypeQuestionBlockStimulusMaterialType" class="node"><title></title><polygon fill="#fc4a1a" stroke="black" points="769.45,-455 769.45,-491 1043.45,-491 1043.45,-455 769.45,-455" style="filter: url(#dropshadow)"/>
<text text-anchor="middle" x="815.95" y="-471.1" font-family="Times New Roman,serif" font-size="8.00">StimulusMaterialType</text>
<polyline fill="none" stroke="black" points="862.45,-455 862.45,-491 "/>
<text text-anchor="start" x="870.45" y="-471.1" font-family="Times New Roman,serif" font-size="8.00">OtherMaterialReference : OtherMaterial[0...1] </text>
</g>
<!-- QuestionBlockProperties&#45;&gt;QuestionBlockStimulusMaterialType -->
<g id="edge7" class="edge"><title>QuestionBlockProperties&#45;&gt;QuestionBlockStimulusMaterialType</title>
<path fill="none" stroke="black" d="M541.005,-435.251C614.457,-442.859 699.7,-451.689 769.268,-458.895"/>
<text text-anchor="middle" x="615.45" y="-451.6" font-family="Times New Roman,serif" font-size="8.00">StimulusMaterial</text>
</g>
<!-- QuestionItem -->
<g id="ItemTypeQuestionItem" class="node"><title></title><ellipse fill="#f7b733" stroke="black" cx="906.45" cy="-180" rx="36.1063" ry="18" style="filter: url(#dropshadow)"/>
<text text-anchor="middle" x="906.45" y="-178.1" font-family="Times New Roman,serif" font-size="8.00">QuestionItem</text>
</g>
<!-- QuestionBlockProperties&#45;&gt;QuestionItem -->
<g id="edge8" class="edge"><title>QuestionBlockProperties&#45;&gt;QuestionItem</title>
<path fill="none" stroke="black" d="M454.16,-337.3C485.042,-309.025 521.865,-278.697 558.95,-256 612.379,-223.3 629.17,-219.157 689.95,-204 752.044,-188.515 826.7,-183.013 869.852,-181.063"/>
<text text-anchor="middle" x="615.45" y="-258.6" font-family="Times New Roman,serif" font-size="8.00">QuestionItemReference</text>
<text text-anchor="middle" x="861.852" y="-174.663" font-family="Times New Roman,serif" font-size="8.00">0...*</text>
<text text-anchor="middle" x="446.16" y="-330.9" font-family="Times New Roman,serif" font-size="8.00">0...*</text>
</g>
<!-- QuestionGrid -->
<g id="ItemTypeQuestionGrid0" class="node"><title></title><ellipse fill="#f7b733" stroke="black" cx="906.45" cy="-126" rx="35.3371" ry="18" style="filter: url(#dropshadow)"/>
<text text-anchor="middle" x="906.45" y="-124.1" font-family="Times New Roman,serif" font-size="8.00">QuestionGrid</text>
</g>
<!-- QuestionBlockProperties&#45;&gt;QuestionGrid -->
<g id="edge9" class="edge"><title>QuestionBlockProperties&#45;&gt;QuestionGrid</title>
<path fill="none" stroke="black" d="M425.174,-337.275C458.21,-290.518 505.102,-233.808 558.95,-197 657.17,-129.861 805.193,-123.68 871.372,-124.643"/>
<text text-anchor="middle" x="615.45" y="-199.6" font-family="Times New Roman,serif" font-size="8.00">QuestionGridReference</text>
<text text-anchor="middle" x="863.372" y="-118.243" font-family="Times New Roman,serif" font-size="8.00">0...*</text>
<text text-anchor="middle" x="417.174" y="-330.875" font-family="Times New Roman,serif" font-size="8.00">0...*</text>
</g>
<!-- QuestionBlockQuestionSequenceType -->
<g id="ReusableTypeQuestionBlockQuestionSequenceType1" class="node"><title></title><polygon fill="#fc4a1a" stroke="black" points="775.95,-576 775.95,-612 1036.95,-612 1036.95,-576 775.95,-576" style="filter: url(#dropshadow)"/>
<text text-anchor="middle" x="824.45" y="-592.1" font-family="Times New Roman,serif" font-size="8.00">QuestionSequenceType</text>
<polyline fill="none" stroke="black" points="872.95,-576 872.95,-612 "/>
<text text-anchor="start" x="880.95" y="-592.1" font-family="Times New Roman,serif" font-size="8.00">HandlingOfStimulusMaterial : string[0...1] </text>
</g>
<!-- QuestionBlockProperties&#45;&gt;QuestionBlockQuestionSequenceType -->
<g id="edge10" class="edge"><title>QuestionBlockProperties&#45;&gt;QuestionBlockQuestionSequenceType</title>
<path fill="none" stroke="black" d="M465.114,-498.536C493.398,-519.586 525.892,-539.998 558.95,-553 627.442,-579.939 708.971,-590.543 775.733,-594.248"/>
<text text-anchor="middle" x="615.45" y="-584.6" font-family="Times New Roman,serif" font-size="8.00">QuestionSequence</text>
<text text-anchor="middle" x="767.733" y="-587.848" font-family="Times New Roman,serif" font-size="8.00">0...*</text>
<text text-anchor="middle" x="457.114" y="-501.136" font-family="Times New Roman,serif" font-size="8.00">0...*</text>
</g>
<!-- QuestionBlockResponseCardinalityType -->
<g id="ReusableTypeQuestionBlockResponseCardinalityType2" class="node"><title></title><polygon fill="#fc4a1a" stroke="black" points="843.95,-631 843.95,-667 968.95,-667 968.95,-631 843.95,-631" style="filter: url(#dropshadow)"/>
<text text-anchor="middle" x="896.95" y="-647.1" font-family="Times New Roman,serif" font-size="8.00">ResponseCardinalityType</text>
<polyline fill="none" stroke="black" points="949.95,-631 949.95,-667 "/>
<text text-anchor="middle" x="959.45" y="-647.1" font-family="Times New Roman,serif" font-size="8.00"> </text>
</g>
<!-- QuestionBlockProperties&#45;&gt;QuestionBlockResponseCardinalityType -->
<g id="edge11" class="edge"><title>QuestionBlockProperties&#45;&gt;QuestionBlockResponseCardinalityType</title>
<path fill="none" stroke="black" d="M440.007,-498.775C472.309,-533.45 513.962,-571.352 558.95,-595 649.89,-642.803 771.499,-651.048 843.829,-651.116"/>
<text text-anchor="middle" x="615.45" y="-634.6" font-family="Times New Roman,serif" font-size="8.00">ResponseCardinality</text>
<text text-anchor="middle" x="835.829" y="-644.716" font-family="Times New Roman,serif" font-size="8.00">0...*</text>
<text text-anchor="middle" x="432.007" y="-501.375" font-family="Times New Roman,serif" font-size="8.00">0...*</text>
</g>
<!-- Concept -->
<g id="ItemTypeConcept3" class="node"><title></title><ellipse fill="#f7b733" stroke="black" cx="906.45" cy="-72" rx="27" ry="18" style="filter: url(#dropshadow)"/>
<text text-anchor="middle" x="906.45" y="-70.1" font-family="Times New Roman,serif" font-size="8.00">Concept</text>
</g>
<!-- QuestionBlockProperties&#45;&gt;Concept -->
<g id="edge12" class="edge"><title>QuestionBlockProperties&#45;&gt;Concept</title>
<path fill="none" stroke="black" d="M408.31,-337.236C438.831,-273.92 489.585,-188.222 558.95,-137 658.653,-63.3744 817.43,-65.5559 879.439,-69.6833"/>
<text text-anchor="middle" x="615.45" y="-139.6" font-family="Times New Roman,serif" font-size="8.00">ConceptReference</text>
<text text-anchor="middle" x="871.439" y="-63.2833" font-family="Times New Roman,serif" font-size="8.00">0...*</text>
<text text-anchor="middle" x="400.31" y="-330.836" font-family="Times New Roman,serif" font-size="8.00">0...*</text>
</g>
<!-- QuestionBlockExternalAidType -->
<g id="ReusableTypeQuestionBlockExternalAidType4" class="node"><title></title><polygon fill="#fc4a1a" stroke="black" points="777.45,-345 777.45,-381 1035.45,-381 1035.45,-345 777.45,-345" style="filter: url(#dropshadow)"/>
<text text-anchor="middle" x="815.95" y="-361.1" font-family="Times New Roman,serif" font-size="8.00">ExternalAidType</text>
<polyline fill="none" stroke="black" points="854.45,-345 854.45,-381 "/>
<text text-anchor="start" x="862.45" y="-361.1" font-family="Times New Roman,serif" font-size="8.00">OtherMaterialReference : OtherMaterial[0...1] </text>
</g>
<!-- QuestionBlockProperties&#45;&gt;QuestionBlockExternalAidType -->
<g id="edge13" class="edge"><title>QuestionBlockProperties&#45;&gt;QuestionBlockExternalAidType</title>
<path fill="none" stroke="black" d="M541.005,-400.749C617.346,-392.841 706.424,-383.615 777.404,-376.263"/>
<text text-anchor="middle" x="615.45" y="-401.6" font-family="Times New Roman,serif" font-size="8.00">ExternalAid</text>
<text text-anchor="middle" x="769.404" y="-369.863" font-family="Times New Roman,serif" font-size="8.00">0...*</text>
<text text-anchor="middle" x="549.005" y="-394.349" font-family="Times New Roman,serif" font-size="8.00">0...*</text>
</g>
<!-- QuestionBlockExternalInterviewerInstructionType -->
<g id="ReusableTypeQuestionBlockExternalInterviewerInstructionType5" class="node"><title></title><polygon fill="#fc4a1a" stroke="black" points="689.95,-217 689.95,-253 1122.95,-253 1122.95,-217 689.95,-217" style="filter: url(#dropshadow)"/>
<text text-anchor="middle" x="761.45" y="-233.1" font-family="Times New Roman,serif" font-size="8.00">ExternalInterviewerInstructionType</text>
<polyline fill="none" stroke="black" points="832.95,-217 832.95,-253 "/>
<text text-anchor="start" x="840.95" y="-242.1" font-family="Times New Roman,serif" font-size="8.00">OtherMaterialReference : OtherMaterial[0...1] </text>
<text text-anchor="start" x="840.95" y="-233.1" font-family="Times New Roman,serif" font-size="8.00">InstructionAttachmentLocation : InstructionAttachmentLocationType[0...n] </text>
<text text-anchor="start" x="840.95" y="-224.1" font-family="Times New Roman,serif" font-size="8.00">IsDisplayed : boolean[0...1] </text>
</g>
<!-- QuestionBlockProperties&#45;&gt;QuestionBlockExternalInterviewerInstructionType -->
<g id="edge14" class="edge"><title>QuestionBlockProperties&#45;&gt;QuestionBlockExternalInterviewerInstructionType</title>
<path fill="none" stroke="black" d="M513.73,-337.332C567.247,-309.648 629.915,-281.107 689.95,-263 702.592,-259.187 715.805,-255.893 729.198,-253.048"/>
<text text-anchor="middle" x="615.45" y="-315.6" font-family="Times New Roman,serif" font-size="8.00">ExternalInterviewerInstruction</text>
<text text-anchor="middle" x="721.198" y="-255.648" font-family="Times New Roman,serif" font-size="8.00">0...*</text>
<text text-anchor="middle" x="505.73" y="-330.932" font-family="Times New Roman,serif" font-size="8.00">0...*</text>
</g>
<!-- Instruction -->
<g id="ItemTypeInstruction6" class="node"><title></title><ellipse fill="#f7b733" stroke="black" cx="906.45" cy="-18" rx="31.3964" ry="18" style="filter: url(#dropshadow)"/>
<text text-anchor="middle" x="906.45" y="-16.1" font-family="Times New Roman,serif" font-size="8.00">Instruction</text>
</g>
<!-- QuestionBlockProperties&#45;&gt;Instruction -->
<g id="edge15" class="edge"><title>QuestionBlockProperties&#45;&gt;Instruction</title>
<path fill="none" stroke="black" d="M396.24,-337.145C421.892,-257.842 472.375,-139.567 558.95,-74 655.62,-0.788146 811.375,-7.5591 875.943,-14.2038"/>
<text text-anchor="middle" x="615.45" y="-76.6" font-family="Times New Roman,serif" font-size="8.00">InterviewerInstructionReference</text>
<text text-anchor="middle" x="867.943" y="-7.80383" font-family="Times New Roman,serif" font-size="8.00">0...*</text>
<text text-anchor="middle" x="388.24" y="-330.745" font-family="Times New Roman,serif" font-size="8.00">0...*</text>
</g>
<!-- QuestionBlockParameterType&#45;&gt;QuestionBlockNameType -->
<g id="edge16" class="edge"><title>QuestionBlockParameterType&#45;&gt;QuestionBlockNameType</title>
<path fill="none" stroke="black" d="M1560.1,-564.064C1615.71,-557.53 1676.5,-550.387 1723.9,-544.818"/>
<text text-anchor="middle" x="1630.95" y="-563.6" font-family="Times New Roman,serif" font-size="8.00">ParameterName</text>
<text text-anchor="middle" x="1715.9" y="-538.418" font-family="Times New Roman,serif" font-size="8.00">0...*</text>
<text text-anchor="middle" x="1568.1" y="-557.664" font-family="Times New Roman,serif" font-size="8.00">0...*</text>
</g>
<!-- QuestionBlockParameterType&#45;&gt;QuestionBlockStructuredStringType -->
<g id="edge17" class="edge"><title>QuestionBlockParameterType&#45;&gt;QuestionBlockStructuredStringType</title>
<path fill="none" stroke="black" d="M1540.37,-617.555C1607.32,-635.465 1685.61,-656.409 1740.05,-670.971"/>
<text text-anchor="middle" x="1630.95" y="-656.6" font-family="Times New Roman,serif" font-size="8.00">Description</text>
<text text-anchor="middle" x="1732.05" y="-664.571" font-family="Times New Roman,serif" font-size="8.00">0...*</text>
<text text-anchor="middle" x="1532.37" y="-620.155" font-family="Times New Roman,serif" font-size="8.00">0...*</text>
</g>
<!-- ManagedRepresentation -->
<g id="ItemTypeManagedRepresentation7" class="node"><title></title><ellipse fill="#f7b733" stroke="black" cx="1808.45" cy="-182" rx="56.9465" ry="18" style="filter: url(#dropshadow)"/>
<text text-anchor="middle" x="1808.45" y="-180.1" font-family="Times New Roman,serif" font-size="8.00">ManagedRepresentation</text>
</g>
<!-- QuestionBlockParameterType&#45;&gt;ManagedRepresentation -->
<g id="edge18" class="edge"><title>QuestionBlockParameterType&#45;&gt;ManagedRepresentation</title>
<path fill="none" stroke="black" d="M1424.28,-546.287C1462.18,-470.046 1561.98,-291.223 1701.95,-204 1717.11,-194.55 1735.65,-189.089 1752.92,-185.956"/>
<text text-anchor="middle" x="1630.95" y="-308.6" font-family="Times New Roman,serif" font-size="8.00">ValueRepresentationReference</text>
<text text-anchor="middle" x="1744.92" y="-179.556" font-family="Times New Roman,serif" font-size="8.00">0...*</text>
<text text-anchor="middle" x="1416.28" y="-539.887" font-family="Times New Roman,serif" font-size="8.00">0...*</text>
</g>
<!-- QuestionBlockBindingType&#45;&gt;QuestionBlockParameterType -->
<g id="edge19" class="edge"><title>QuestionBlockBindingType&#45;&gt;QuestionBlockParameterType</title>
<path fill="none" stroke="black" d="M1035.73,-706.813C1066.2,-702.554 1097.28,-693.725 1122.95,-677 1135.98,-668.511 1128.44,-656.232 1140.95,-647 1173.39,-623.066 1213.55,-607.865 1252.7,-598.233"/>
<text text-anchor="middle" x="1187.95" y="-649.6" font-family="Times New Roman,serif" font-size="8.00">SourceParameterReference</text>
<text text-anchor="middle" x="1244.7" y="-591.833" font-family="Times New Roman,serif" font-size="8.00">0...*</text>
<text text-anchor="middle" x="1043.73" y="-700.413" font-family="Times New Roman,serif" font-size="8.00">0...*</text>
</g>
<!-- QuestionBlockBindingType&#45;&gt;QuestionBlockParameterType -->
<g id="edge20" class="edge"><title>QuestionBlockBindingType&#45;&gt;QuestionBlockParameterType</title>
<path fill="none" stroke="black" d="M1035.8,-694.296C1097.05,-687.372 1170.8,-675.661 1234.95,-656 1268.12,-645.834 1303.49,-631.158 1333.37,-617.551"/>
<text text-anchor="middle" x="1187.95" y="-679.6" font-family="Times New Roman,serif" font-size="8.00">TargetParameterReference</text>
<text text-anchor="middle" x="1325.37" y="-620.151" font-family="Times New Roman,serif" font-size="8.00">0...*</text>
<text text-anchor="middle" x="1043.8" y="-687.896" font-family="Times New Roman,serif" font-size="8.00">0...*</text>
</g>
<!-- OtherMaterial -->
<g id="ItemTypeOtherMaterial8" class="node"><title></title><ellipse fill="#f7b733" stroke="black" cx="1406.45" cy="-182" rx="37.3742" ry="18" style="filter: url(#dropshadow)"/>
<text text-anchor="middle" x="1406.45" y="-180.1" font-family="Times New Roman,serif" font-size="8.00">OtherMaterial</text>
</g>
<!-- QuestionBlockStimulusMaterialType&#45;&gt;OtherMaterial -->
<g id="edge21" class="edge"><title>QuestionBlockStimulusMaterialType&#45;&gt;OtherMaterial</title>
<path fill="none" stroke="black" d="M1043.46,-468.642C1070.71,-464.137 1098.47,-456.772 1122.95,-445 1185.27,-415.033 1203.69,-398.682 1234.95,-337 1261.91,-283.792 1210.96,-246.363 1252.95,-204 1283.36,-173.319 1336.1,-172.593 1370.88,-176.238"/>
<text text-anchor="middle" x="1187.95" y="-437.6" font-family="Times New Roman,serif" font-size="8.00">OtherMaterialReference</text>
<text text-anchor="middle" x="1362.88" y="-169.838" font-family="Times New Roman,serif" font-size="8.00">0...*</text>
<text text-anchor="middle" x="1051.46" y="-462.242" font-family="Times New Roman,serif" font-size="8.00">0...*</text>
</g>
<!-- QuestionBlockExternalAidType&#45;&gt;OtherMaterial -->
<g id="edge22" class="edge"><title>QuestionBlockExternalAidType&#45;&gt;OtherMaterial</title>
<path fill="none" stroke="black" d="M1035.66,-360.14C1065.41,-355.781 1096.18,-348.1 1122.95,-335 1185.9,-304.197 1186.6,-274.733 1234.95,-224 1243.2,-215.343 1242.4,-209.635 1252.95,-204 1289.17,-184.653 1336.78,-180.598 1369.1,-180.452"/>
<text text-anchor="middle" x="1187.95" y="-326.6" font-family="Times New Roman,serif" font-size="8.00">OtherMaterialReference</text>
<text text-anchor="middle" x="1361.1" y="-183.052" font-family="Times New Roman,serif" font-size="8.00">0...*</text>
<text text-anchor="middle" x="1043.66" y="-353.74" font-family="Times New Roman,serif" font-size="8.00">0...*</text>
</g>
<!-- QuestionBlockExternalInterviewerInstructionType&#45;&gt;OtherMaterial -->
<g id="edge23" class="edge"><title>QuestionBlockExternalInterviewerInstructionType&#45;&gt;OtherMaterial</title>
<path fill="none" stroke="black" d="M1076.74,-216.983C1182.2,-205.759 1308.99,-192.266 1369.67,-185.808"/>
<text text-anchor="middle" x="1187.95" y="-213.6" font-family="Times New Roman,serif" font-size="8.00">OtherMaterialReference</text>
<text text-anchor="middle" x="1361.67" y="-188.408" font-family="Times New Roman,serif" font-size="8.00">0...*</text>
<text text-anchor="middle" x="1068.74" y="-210.583" font-family="Times New Roman,serif" font-size="8.00">0...*</text>
</g>
<!-- QuestionGroup -->
<g id="ItemTypeQuestionGroup9" class="node"><title></title><ellipse fill="#f7b733" stroke="black" cx="41.9749" cy="-445" rx="38.6432" ry="18" style="filter: url(#dropshadow)"/>
<text text-anchor="middle" x="41.9749" y="-443.1" font-family="Times New Roman,serif" font-size="8.00">QuestionGroup</text>
</g>
<!-- QuestionGroup&#45;&gt;QuestionBlockProperties -->
<g id="edge24" class="edge"><title>QuestionGroup&#45;&gt;QuestionBlockProperties</title>
<path fill="none" stroke="black" d="M80.1294,-441.955C109.72,-439.53 153.461,-435.946 198.144,-432.284"/>
<text text-anchor="middle" x="144.95" y="-442.6" font-family="Times New Roman,serif" font-size="8.00">QuestionBlockReference</text>
<text text-anchor="middle" x="190.144" y="-425.884" font-family="Times New Roman,serif" font-size="8.00">0...*</text>
<text text-anchor="middle" x="88.1294" y="-435.555" font-family="Times New Roman,serif" font-size="8.00">0...*</text>
</g>
<!-- QuestionScheme -->
<g id="ItemTypeQuestionScheme0" class="node"><title></title><ellipse fill="#f7b733" stroke="black" cx="41.9749" cy="-391" rx="41.9498" ry="18" style="filter: url(#dropshadow)"/>
<text text-anchor="middle" x="41.9749" y="-389.1" font-family="Times New Roman,serif" font-size="8.00">QuestionScheme</text>
</g>
<!-- QuestionScheme&#45;&gt;QuestionBlockProperties -->
<g id="edge25" class="edge"><title>QuestionScheme&#45;&gt;QuestionBlockProperties</title>
<path fill="none" stroke="black" d="M83.375,-394.311C112.857,-396.727 155.042,-400.184 198.105,-403.713"/>
<text text-anchor="middle" x="144.95" y="-405.6" font-family="Times New Roman,serif" font-size="8.00">QuestionBlockReference</text>
<text text-anchor="middle" x="190.105" y="-397.313" font-family="Times New Roman,serif" font-size="8.00">0...*</text>
<text text-anchor="middle" x="91.375" y="-387.911" font-family="Times New Roman,serif" font-size="8.00">0...*</text>
</g>
</g>
</svg>
