<?xml version="1.0" encoding="UTF-8" standalone="no"?>
<!DOCTYPE svg PUBLIC "-//W3C//DTD SVG 1.1//EN"
 "http://www.w3.org/Graphics/SVG/1.1/DTD/svg11.dtd">
<!-- Generated by graphviz version 2.38.0 (20140413.2041)
 -->
<!-- Title: G Pages: 1 -->
<svg width="2020pt" height="809pt"
 viewBox="0.00 0.00 2019.95 809.33" xmlns="http://www.w3.org/2000/svg" xmlns:xlink="http://www.w3.org/1999/xlink">
<filter id = "dropshadow" height = "130%" ><feGaussianBlur in= "SourceAlpha" stdDeviation = "3"/><!--stdDeviation is how much to blur--><feOffset dx = "2" dy = "2" result = "offsetblur"/><!--how much to offset--><feMerge><feMergeNode/><!--this contains the offset blurred image--><feMergeNode in= "SourceGraphic"/><!--this contains the element that the filter is applied to --></feMerge></filter>
<g id="graph0" class="graph" transform="scale(1 1) rotate(0) translate(4 805.327)">
<title>G</title>
<g id="clust1" class="cluster"><title>clusterQuestionItem</title>
<polygon fill="#4abdac" stroke="black" points="193.95,-213.327 193.95,-793.327 2003.95,-793.327 2003.95,-213.327 193.95,-213.327" style="filter: url(#dropshadow)"/>
<text text-anchor="middle" x="1098.95" y="-782.927" font-family="Times New Roman,serif" font-size="8.00">QuestionItem</text>
</g>
<!-- QuestionItemProperties -->
<g id="ItemTypeQuestionItemProperties" class="node"><title></title><polygon fill="#f7b733" stroke="black" points="201.95,-366.327 201.95,-536.327 553.95,-536.327 553.95,-366.327 201.95,-366.327" style="filter: url(#dropshadow)"/>
<text text-anchor="middle" x="228.45" y="-449.427" font-family="Times New Roman,serif" font-size="8.00">Properties</text>
<polyline fill="none" stroke="black" points="254.95,-366.327 254.95,-536.327 "/>
<text text-anchor="start" x="262.95" y="-525.927" font-family="Times New Roman,serif" font-size="8.00">QuestionItemName : NameType[0...n] </text>
<text text-anchor="start" x="262.95" y="-516.927" font-family="Times New Roman,serif" font-size="8.00">Label : LabelType[0...n] </text>
<text text-anchor="start" x="262.95" y="-507.927" font-family="Times New Roman,serif" font-size="8.00">Description : StructuredStringType[0...1] </text>
<text text-anchor="start" x="262.95" y="-498.927" font-family="Times New Roman,serif" font-size="8.00">InParameter : InParameterType[0...n] </text>
<text text-anchor="start" x="262.95" y="-489.927" font-family="Times New Roman,serif" font-size="8.00">OutParameter : ParameterType[0...n] </text>
<text text-anchor="start" x="262.95" y="-480.927" font-family="Times New Roman,serif" font-size="8.00">Binding : BindingType[0...n] </text>
<text text-anchor="start" x="262.95" y="-471.927" font-family="Times New Roman,serif" font-size="8.00">QuestionText : DynamicTextType[0...n] </text>
<text text-anchor="start" x="262.95" y="-462.927" font-family="Times New Roman,serif" font-size="8.00">QuestionIntent : StructuredStringType[0...1] </text>
<text text-anchor="start" x="262.95" y="-453.927" font-family="Times New Roman,serif" font-size="8.00">ResponseDomain : RepresentationType[0...1] </text>
<text text-anchor="start" x="262.95" y="-444.927" font-family="Times New Roman,serif" font-size="8.00">ResponseDomainReference : ManagedRepresentation[0...1] </text>
<text text-anchor="start" x="262.95" y="-435.927" font-family="Times New Roman,serif" font-size="8.00">StructuredMixedResponseDomain : StructuredMixedResponseDomainType[0...1] </text>
<text text-anchor="start" x="262.95" y="-426.927" font-family="Times New Roman,serif" font-size="8.00">ResponseCardinality : ResponseCardinalityType[0...1] </text>
<text text-anchor="start" x="262.95" y="-417.927" font-family="Times New Roman,serif" font-size="8.00">ConceptReference : Concept[0...n] </text>
<text text-anchor="start" x="262.95" y="-408.927" font-family="Times New Roman,serif" font-size="8.00">ExternalAid : ExternalAidType[0...n] </text>
<text text-anchor="start" x="262.95" y="-399.927" font-family="Times New Roman,serif" font-size="8.00">ExternalInterviewerInstruction : ExternalInterviewerInstructionType[0...1] </text>
<text text-anchor="start" x="262.95" y="-390.927" font-family="Times New Roman,serif" font-size="8.00">InterviewerInstructionReference : Instruction[0...1] </text>
<text text-anchor="start" x="262.95" y="-381.927" font-family="Times New Roman,serif" font-size="8.00">RepresentedVariableReference : RepresentedVariable[0...n] </text>
<text text-anchor="start" x="262.95" y="-372.927" font-family="Times New Roman,serif" font-size="8.00">EstimatedSecondsResponseTime : decimal[0...1] </text>
</g>
<!-- QuestionItemNameType -->
<g id="ReusableTypeQuestionItemNameType" class="node"><title></title><polygon fill="#fc4a1a" stroke="black" points="1773.45,-476.327 1773.45,-512.327 1942.45,-512.327 1942.45,-476.327 1773.45,-476.327" style="filter: url(#dropshadow)"/>
<text text-anchor="middle" x="1801.45" y="-492.427" font-family="Times New Roman,serif" font-size="8.00">NameType</text>
<polyline fill="none" stroke="black" points="1829.45,-476.327 1829.45,-512.327 "/>
<text text-anchor="start" x="1837.45" y="-496.927" font-family="Times New Roman,serif" font-size="8.00">IsPreferred : boolean[0...1] </text>
<text text-anchor="start" x="1837.45" y="-487.927" font-family="Times New Roman,serif" font-size="8.00">Context : string[0...1] </text>
</g>
<!-- QuestionItemProperties&#45;&gt;QuestionItemNameType -->
<g id="edge1" class="edge"><title>QuestionItemProperties&#45;&gt;QuestionItemNameType</title>
<path fill="none" stroke="black" d="M554.271,-455.282C708.521,-458.862 939.153,-464.46 1139.95,-470.327 1369.18,-477.025 1639.57,-486.504 1773.34,-491.298"/>
<text text-anchor="middle" x="1205.45" y="-475.927" font-family="Times New Roman,serif" font-size="8.00">QuestionItemName</text>
</g>
<!-- QuestionItemLabelType -->
<g id="ReusableTypeQuestionItemLabelType" class="node"><title></title><polygon fill="#fc4a1a" stroke="black" points="817.95,-277.827 817.95,-330.827 1028.95,-330.827 1028.95,-277.827 817.95,-277.827" style="filter: url(#dropshadow)"/>
<text text-anchor="middle" x="844.95" y="-302.427" font-family="Times New Roman,serif" font-size="8.00">LabelType</text>
<polyline fill="none" stroke="black" points="871.95,-277.827 871.95,-330.827 "/>
<text text-anchor="start" x="879.95" y="-320.427" font-family="Times New Roman,serif" font-size="8.00">TypeOfLabel : CodeValueType[0...1] </text>
<text text-anchor="start" x="879.95" y="-311.427" font-family="Times New Roman,serif" font-size="8.00">LocationVariant : string[0...1] </text>
<text text-anchor="start" x="879.95" y="-302.427" font-family="Times New Roman,serif" font-size="8.00">ValidForStartDate : cogsDate[0...1] </text>
<text text-anchor="start" x="879.95" y="-293.427" font-family="Times New Roman,serif" font-size="8.00">ValidForEndDate : cogsDate[0...1] </text>
<text text-anchor="start" x="879.95" y="-284.427" font-family="Times New Roman,serif" font-size="8.00">MaxLength : nonNegativeInteger[0...1] </text>
</g>
<!-- QuestionItemProperties&#45;&gt;QuestionItemLabelType -->
<g id="edge2" class="edge"><title>QuestionItemProperties&#45;&gt;QuestionItemLabelType</title>
<path fill="none" stroke="black" d="M554.007,-386.287C603.024,-369.667 656.659,-352.95 706.95,-340.327 742.728,-331.347 782.423,-323.994 817.894,-318.329"/>
<text text-anchor="middle" x="630.45" y="-380.927" font-family="Times New Roman,serif" font-size="8.00">Label</text>
</g>
<!-- QuestionItemStructuredStringType -->
<g id="ReusableTypeQuestionItemStructuredStringType" class="node"><title></title><polygon fill="#fc4a1a" stroke="black" points="1751.45,-625.327 1751.45,-661.327 1964.45,-661.327 1964.45,-625.327 1751.45,-625.327" style="filter: url(#dropshadow)"/>
<text text-anchor="middle" x="1796.45" y="-641.427" font-family="Times New Roman,serif" font-size="8.00">StructuredStringType</text>
<polyline fill="none" stroke="black" points="1841.45,-625.327 1841.45,-661.327 "/>
<text text-anchor="start" x="1849.45" y="-641.427" font-family="Times New Roman,serif" font-size="8.00">Content : ContentType[0...n] </text>
</g>
<!-- QuestionItemProperties&#45;&gt;QuestionItemStructuredStringType -->
<g id="edge3" class="edge"><title>QuestionItemProperties&#45;&gt;QuestionItemStructuredStringType</title>
<path fill="none" stroke="black" d="M427.825,-536.553C462.012,-589.191 512.17,-654.29 571.95,-695.327 623.754,-730.89 644.826,-727.887 706.95,-737.327 802.08,-751.784 1046.3,-759.435 1139.95,-737.327 1148.65,-735.272 1149.38,-730.905 1157.95,-728.327 1362.08,-666.895 1612.43,-649.715 1751.33,-645.005"/>
<text text-anchor="middle" x="1205.45" y="-730.927" font-family="Times New Roman,serif" font-size="8.00">Description</text>
</g>
<!-- QuestionItemInParameterType -->
<g id="ReusableTypeQuestionItemInParameterType" class="node"><title></title><polygon fill="#fc4a1a" stroke="black" points="820.95,-405.327 820.95,-441.327 1025.95,-441.327 1025.95,-405.327 820.95,-405.327" style="filter: url(#dropshadow)"/>
<text text-anchor="middle" x="860.45" y="-421.427" font-family="Times New Roman,serif" font-size="8.00">InParameterType</text>
<polyline fill="none" stroke="black" points="899.95,-405.327 899.95,-441.327 "/>
<text text-anchor="start" x="907.95" y="-421.427" font-family="Times New Roman,serif" font-size="8.00">LimitArrayIndex : string[0...1] </text>
</g>
<!-- QuestionItemProperties&#45;&gt;QuestionItemInParameterType -->
<g id="edge4" class="edge"><title>QuestionItemProperties&#45;&gt;QuestionItemInParameterType</title>
<path fill="none" stroke="black" d="M554.283,-442.294C642.388,-437.755 746.028,-432.416 820.862,-428.561"/>
<text text-anchor="middle" x="630.45" y="-443.927" font-family="Times New Roman,serif" font-size="8.00">InParameter</text>
</g>
<!-- QuestionItemParameterType -->
<g id="ReusableTypeQuestionItemParameterType" class="node"><title></title><polygon fill="#fc4a1a" stroke="black" points="1270.95,-531.827 1270.95,-602.827 1577.95,-602.827 1577.95,-531.827 1270.95,-531.827" style="filter: url(#dropshadow)"/>
<text text-anchor="middle" x="1306.45" y="-565.427" font-family="Times New Roman,serif" font-size="8.00">ParameterType</text>
<polyline fill="none" stroke="black" points="1341.95,-531.827 1341.95,-602.827 "/>
<text text-anchor="start" x="1349.95" y="-592.427" font-family="Times New Roman,serif" font-size="8.00">ParameterName : NameType[0...n] </text>
<text text-anchor="start" x="1349.95" y="-583.427" font-family="Times New Roman,serif" font-size="8.00">Alias : string[0...1] </text>
<text text-anchor="start" x="1349.95" y="-574.427" font-family="Times New Roman,serif" font-size="8.00">Description : StructuredStringType[0...1] </text>
<text text-anchor="start" x="1349.95" y="-565.427" font-family="Times New Roman,serif" font-size="8.00">ValueRepresentation : RepresentationType[0...1] </text>
<text text-anchor="start" x="1349.95" y="-556.427" font-family="Times New Roman,serif" font-size="8.00">ValueRepresentationReference : ManagedRepresentation[0...1] </text>
<text text-anchor="start" x="1349.95" y="-547.427" font-family="Times New Roman,serif" font-size="8.00">DefaultValue : ValueType[0...1] </text>
<text text-anchor="start" x="1349.95" y="-538.427" font-family="Times New Roman,serif" font-size="8.00">IsArray : boolean[0...1] </text>
</g>
<!-- QuestionItemProperties&#45;&gt;QuestionItemParameterType -->
<g id="edge5" class="edge"><title>QuestionItemProperties&#45;&gt;QuestionItemParameterType</title>
<path fill="none" stroke="black" d="M554.097,-464.969C560.121,-465.428 566.085,-465.883 571.95,-466.327 824.359,-485.468 889.275,-473.13 1139.95,-508.327 1182.76,-514.339 1228.81,-522.97 1271.08,-531.782"/>
<text text-anchor="middle" x="923.45" y="-510.927" font-family="Times New Roman,serif" font-size="8.00">OutParameter</text>
</g>
<!-- QuestionItemBindingType -->
<g id="ReusableTypeQuestionItemBindingType" class="node"><title></title><polygon fill="#fc4a1a" stroke="black" points="794.45,-581.327 794.45,-617.327 1052.45,-617.327 1052.45,-581.327 794.45,-581.327" style="filter: url(#dropshadow)"/>
<text text-anchor="middle" x="825.45" y="-597.427" font-family="Times New Roman,serif" font-size="8.00">BindingType</text>
<polyline fill="none" stroke="black" points="856.45,-581.327 856.45,-617.327 "/>
<text text-anchor="start" x="864.45" y="-601.927" font-family="Times New Roman,serif" font-size="8.00">SourceParameterReference : ParameterType[0...1] </text>
<text text-anchor="start" x="864.45" y="-592.927" font-family="Times New Roman,serif" font-size="8.00">TargetParameterReference : ParameterType[0...1] </text>
</g>
<!-- QuestionItemProperties&#45;&gt;QuestionItemBindingType -->
<g id="edge6" class="edge"><title>QuestionItemProperties&#45;&gt;QuestionItemBindingType</title>
<path fill="none" stroke="black" d="M553.963,-527.768C560.011,-530.034 566.019,-532.227 571.95,-534.327 630.708,-555.129 645.855,-559.974 706.95,-572.327 735.038,-578.007 765.441,-582.694 794.31,-586.477"/>
<text text-anchor="middle" x="630.45" y="-569.927" font-family="Times New Roman,serif" font-size="8.00">Binding</text>
</g>
<!-- QuestionItemDynamicTextType -->
<g id="ReusableTypeQuestionItemDynamicTextType" class="node"><title></title><polygon fill="#fc4a1a" stroke="black" points="802.45,-526.327 802.45,-562.327 1044.45,-562.327 1044.45,-526.327 802.45,-526.327" style="filter: url(#dropshadow)"/>
<text text-anchor="middle" x="844.45" y="-542.427" font-family="Times New Roman,serif" font-size="8.00">DynamicTextType</text>
<polyline fill="none" stroke="black" points="886.45,-526.327 886.45,-562.327 "/>
<text text-anchor="start" x="894.45" y="-551.427" font-family="Times New Roman,serif" font-size="8.00">TextContent : TextContentType[0...n] </text>
<text text-anchor="start" x="894.45" y="-542.427" font-family="Times New Roman,serif" font-size="8.00">IsStructureRequired : boolean[0...1] </text>
<text text-anchor="start" x="894.45" y="-533.427" font-family="Times New Roman,serif" font-size="8.00">AudienceLanguage : language[0...1] </text>
</g>
<!-- QuestionItemProperties&#45;&gt;QuestionItemDynamicTextType -->
<g id="edge7" class="edge"><title>QuestionItemProperties&#45;&gt;QuestionItemDynamicTextType</title>
<path fill="none" stroke="black" d="M554.1,-499.704C560.109,-500.984 566.071,-502.198 571.95,-503.327 647.908,-517.921 734.192,-528.092 802.143,-534.653"/>
<text text-anchor="middle" x="630.45" y="-523.927" font-family="Times New Roman,serif" font-size="8.00">QuestionText</text>
</g>
<!-- QuestionItemRepresentationType -->
<g id="ReusableTypeQuestionItemRepresentationType" class="node"><title></title><polygon fill="#fc4a1a" stroke="black" points="1719.95,-705.327 1719.95,-767.327 1995.95,-767.327 1995.95,-705.327 1719.95,-705.327" style="filter: url(#dropshadow)"/>
<text text-anchor="middle" x="1763.95" y="-734.427" font-family="Times New Roman,serif" font-size="8.00">RepresentationType</text>
<polyline fill="none" stroke="black" points="1807.95,-705.327 1807.95,-767.327 "/>
<text text-anchor="start" x="1815.95" y="-756.927" font-family="Times New Roman,serif" font-size="8.00">RecommendedDataType : CodeValueType[0...1] </text>
<text text-anchor="start" x="1815.95" y="-747.927" font-family="Times New Roman,serif" font-size="8.00">GenericOutputFormat : CodeValueType[0...1] </text>
<text text-anchor="start" x="1815.95" y="-738.927" font-family="Times New Roman,serif" font-size="8.00">MeasurementUnit : CodeValueType[0...1] </text>
<text text-anchor="start" x="1815.95" y="-729.927" font-family="Times New Roman,serif" font-size="8.00">MissingValue : string[0...1] </text>
<text text-anchor="start" x="1815.95" y="-720.927" font-family="Times New Roman,serif" font-size="8.00">BlankIsMissingValue : boolean[0...1] </text>
<text text-anchor="start" x="1815.95" y="-711.927" font-family="Times New Roman,serif" font-size="8.00">ClassificationLevel : string[0...1] </text>
</g>
<!-- QuestionItemProperties&#45;&gt;QuestionItemRepresentationType -->
<g id="edge8" class="edge"><title>QuestionItemProperties&#45;&gt;QuestionItemRepresentationType</title>
<path fill="none" stroke="black" d="M418.97,-536.603C451.696,-596.909 503.688,-674.688 571.95,-719.327 623.311,-752.914 645.924,-741.847 706.95,-748.327 1071.04,-786.992 1503.59,-764.108 1719.71,-748.012"/>
<text text-anchor="middle" x="1205.45" y="-771.927" font-family="Times New Roman,serif" font-size="8.00">ResponseDomain</text>
</g>
<!-- ManagedRepresentation -->
<g id="ItemTypeManagedRepresentation0" class="node"><title></title><ellipse fill="#f7b733" stroke="black" cx="1857.95" cy="-164.327" rx="56.9465" ry="18" style="filter: url(#dropshadow)"/>
<text text-anchor="middle" x="1857.95" y="-162.427" font-family="Times New Roman,serif" font-size="8.00">ManagedRepresentation</text>
</g>
<!-- QuestionItemProperties&#45;&gt;ManagedRepresentation -->
<g id="edge9" class="edge"><title>QuestionItemProperties&#45;&gt;ManagedRepresentation</title>
<path fill="none" stroke="black" d="M457.81,-366.278C490.916,-333.774 531.168,-298.121 571.95,-271.327 626.675,-235.372 643.538,-228.653 706.95,-212.327 950.73,-149.565 1019.49,-171.895 1270.95,-160.327 1407.25,-154.057 1441.51,-159.349 1577.95,-160.327 1655.33,-160.882 1744.78,-162.302 1801.11,-163.291"/>
<text text-anchor="middle" x="1205.45" y="-166.927" font-family="Times New Roman,serif" font-size="8.00">ResponseDomainReference</text>
<text text-anchor="middle" x="1793.11" y="-156.891" font-family="Times New Roman,serif" font-size="8.00">0...*</text>
<text text-anchor="middle" x="449.81" y="-359.878" font-family="Times New Roman,serif" font-size="8.00">0...*</text>
</g>
<!-- QuestionItemStructuredMixedResponseDomainType -->
<g id="ReusableTypeQuestionItemStructuredMixedResponseDomainType1" class="node"><title></title><polygon fill="#fc4a1a" stroke="black" points="724.95,-636.327 724.95,-672.327 1121.95,-672.327 1121.95,-636.327 724.95,-636.327" style="filter: url(#dropshadow)"/>
<text text-anchor="middle" x="800.95" y="-652.427" font-family="Times New Roman,serif" font-size="8.00">StructuredMixedResponseDomainType</text>
<polyline fill="none" stroke="black" points="876.95,-636.327 876.95,-672.327 "/>
<text text-anchor="start" x="884.95" y="-656.927" font-family="Times New Roman,serif" font-size="8.00">ResponseTextSet : ResponseTextSetType[0...1] </text>
<text text-anchor="start" x="884.95" y="-647.927" font-family="Times New Roman,serif" font-size="8.00">ResponseDomainInMixed : ResponseDomainInMixedType[0...1] </text>
</g>
<!-- QuestionItemProperties&#45;&gt;QuestionItemStructuredMixedResponseDomainType -->
<g id="edge10" class="edge"><title>QuestionItemProperties&#45;&gt;QuestionItemStructuredMixedResponseDomainType</title>
<path fill="none" stroke="black" d="M496.039,-536.412C520.455,-552.186 546.517,-567.66 571.95,-580.327 628.818,-608.652 645.088,-612.854 706.95,-627.327 721.36,-630.699 736.417,-633.671 751.585,-636.288"/>
<text text-anchor="middle" x="630.45" y="-624.927" font-family="Times New Roman,serif" font-size="8.00">StructuredMixedResponseDomain</text>
<text text-anchor="middle" x="743.585" y="-629.888" font-family="Times New Roman,serif" font-size="8.00">0...*</text>
<text text-anchor="middle" x="488.039" y="-539.012" font-family="Times New Roman,serif" font-size="8.00">0...*</text>
</g>
<!-- QuestionItemResponseCardinalityType -->
<g id="ReusableTypeQuestionItemResponseCardinalityType2" class="node"><title></title><polygon fill="#fc4a1a" stroke="black" points="860.95,-691.327 860.95,-727.327 985.95,-727.327 985.95,-691.327 860.95,-691.327" style="filter: url(#dropshadow)"/>
<text text-anchor="middle" x="913.95" y="-707.427" font-family="Times New Roman,serif" font-size="8.00">ResponseCardinalityType</text>
<polyline fill="none" stroke="black" points="966.95,-691.327 966.95,-727.327 "/>
<text text-anchor="middle" x="976.45" y="-707.427" font-family="Times New Roman,serif" font-size="8.00"> </text>
</g>
<!-- QuestionItemProperties&#45;&gt;QuestionItemResponseCardinalityType -->
<g id="edge11" class="edge"><title>QuestionItemProperties&#45;&gt;QuestionItemResponseCardinalityType</title>
<path fill="none" stroke="black" d="M453.265,-536.706C486.745,-571.08 528.49,-608.785 571.95,-635.327 662.179,-690.434 787.136,-704.984 860.908,-708.542"/>
<text text-anchor="middle" x="630.45" y="-684.927" font-family="Times New Roman,serif" font-size="8.00">ResponseCardinality</text>
<text text-anchor="middle" x="852.908" y="-702.142" font-family="Times New Roman,serif" font-size="8.00">0...*</text>
<text text-anchor="middle" x="445.265" y="-539.306" font-family="Times New Roman,serif" font-size="8.00">0...*</text>
</g>
<!-- Concept -->
<g id="ItemTypeConcept3" class="node"><title></title><ellipse fill="#f7b733" stroke="black" cx="923.45" cy="-128.327" rx="27" ry="18" style="filter: url(#dropshadow)"/>
<text text-anchor="middle" x="923.45" y="-126.427" font-family="Times New Roman,serif" font-size="8.00">Concept</text>
</g>
<!-- QuestionItemProperties&#45;&gt;Concept -->
<g id="edge12" class="edge"><title>QuestionItemProperties&#45;&gt;Concept</title>
<path fill="none" stroke="black" d="M408.615,-366.326C438.183,-295.589 490.974,-199.025 571.95,-151.327 678.613,-88.4979 836.509,-110.85 897.316,-122.798"/>
<text text-anchor="middle" x="630.45" y="-153.927" font-family="Times New Roman,serif" font-size="8.00">ConceptReference</text>
<text text-anchor="middle" x="889.316" y="-116.398" font-family="Times New Roman,serif" font-size="8.00">0...*</text>
<text text-anchor="middle" x="416.615" y="-359.926" font-family="Times New Roman,serif" font-size="8.00">0...*</text>
</g>
<!-- QuestionItemExternalAidType -->
<g id="ReusableTypeQuestionItemExternalAidType4" class="node"><title></title><polygon fill="#fc4a1a" stroke="black" points="794.45,-350.327 794.45,-386.327 1052.45,-386.327 1052.45,-350.327 794.45,-350.327" style="filter: url(#dropshadow)"/>
<text text-anchor="middle" x="832.95" y="-366.427" font-family="Times New Roman,serif" font-size="8.00">ExternalAidType</text>
<polyline fill="none" stroke="black" points="871.45,-350.327 871.45,-386.327 "/>
<text text-anchor="start" x="879.45" y="-366.427" font-family="Times New Roman,serif" font-size="8.00">OtherMaterialReference : OtherMaterial[0...1] </text>
</g>
<!-- QuestionItemProperties&#45;&gt;QuestionItemExternalAidType -->
<g id="edge13" class="edge"><title>QuestionItemProperties&#45;&gt;QuestionItemExternalAidType</title>
<path fill="none" stroke="black" d="M554.05,-419.95C603.425,-411.506 657.232,-402.682 706.95,-395.327 735.204,-391.147 765.606,-387.077 794.411,-383.418"/>
<text text-anchor="middle" x="630.45" y="-418.927" font-family="Times New Roman,serif" font-size="8.00">ExternalAid</text>
<text text-anchor="middle" x="786.411" y="-377.018" font-family="Times New Roman,serif" font-size="8.00">0...*</text>
<text text-anchor="middle" x="562.05" y="-413.55" font-family="Times New Roman,serif" font-size="8.00">0...*</text>
</g>
<!-- QuestionItemExternalInterviewerInstructionType -->
<g id="ReusableTypeQuestionItemExternalInterviewerInstructionType5" class="node"><title></title><polygon fill="#fc4a1a" stroke="black" points="706.95,-222.327 706.95,-258.327 1139.95,-258.327 1139.95,-222.327 706.95,-222.327" style="filter: url(#dropshadow)"/>
<text text-anchor="middle" x="778.45" y="-238.427" font-family="Times New Roman,serif" font-size="8.00">ExternalInterviewerInstructionType</text>
<polyline fill="none" stroke="black" points="849.95,-222.327 849.95,-258.327 "/>
<text text-anchor="start" x="857.95" y="-247.427" font-family="Times New Roman,serif" font-size="8.00">OtherMaterialReference : OtherMaterial[0...1] </text>
<text text-anchor="start" x="857.95" y="-238.427" font-family="Times New Roman,serif" font-size="8.00">InstructionAttachmentLocation : InstructionAttachmentLocationType[0...n] </text>
<text text-anchor="start" x="857.95" y="-229.427" font-family="Times New Roman,serif" font-size="8.00">IsDisplayed : boolean[0...1] </text>
</g>
<!-- QuestionItemProperties&#45;&gt;QuestionItemExternalInterviewerInstructionType -->
<g id="edge14" class="edge"><title>QuestionItemProperties&#45;&gt;QuestionItemExternalInterviewerInstructionType</title>
<path fill="none" stroke="black" d="M500.834,-366.141C560.231,-329.237 634.38,-289.663 706.95,-268.327 719.98,-264.496 733.607,-261.189 747.406,-258.334"/>
<text text-anchor="middle" x="630.45" y="-326.927" font-family="Times New Roman,serif" font-size="8.00">ExternalInterviewerInstruction</text>
<text text-anchor="middle" x="739.406" y="-260.934" font-family="Times New Roman,serif" font-size="8.00">0...*</text>
<text text-anchor="middle" x="492.834" y="-359.741" font-family="Times New Roman,serif" font-size="8.00">0...*</text>
</g>
<!-- Instruction -->
<g id="ItemTypeInstruction6" class="node"><title></title><ellipse fill="#f7b733" stroke="black" cx="923.45" cy="-74.3272" rx="31.3964" ry="18" style="filter: url(#dropshadow)"/>
<text text-anchor="middle" x="923.45" y="-72.4272" font-family="Times New Roman,serif" font-size="8.00">Instruction</text>
</g>
<!-- QuestionItemProperties&#45;&gt;Instruction -->
<g id="edge15" class="edge"><title>QuestionItemProperties&#45;&gt;Instruction</title>
<path fill="none" stroke="black" d="M400.509,-366.322C426.377,-283.491 478.445,-161.508 571.95,-101.327 674.334,-35.4319 830.003,-55.8434 893.729,-68.0629"/>
<text text-anchor="middle" x="630.45" y="-103.927" font-family="Times New Roman,serif" font-size="8.00">InterviewerInstructionReference</text>
<text text-anchor="middle" x="885.729" y="-61.6629" font-family="Times New Roman,serif" font-size="8.00">0...*</text>
<text text-anchor="middle" x="392.509" y="-359.922" font-family="Times New Roman,serif" font-size="8.00">0...*</text>
</g>
<!-- RepresentedVariable -->
<g id="ItemTypeRepresentedVariable7" class="node"><title></title><ellipse fill="#f7b733" stroke="black" cx="923.45" cy="-20.3272" rx="48.5642" ry="18" style="filter: url(#dropshadow)"/>
<text text-anchor="middle" x="923.45" y="-18.4272" font-family="Times New Roman,serif" font-size="8.00">RepresentedVariable</text>
</g>
<!-- QuestionItemProperties&#45;&gt;RepresentedVariable -->
<g id="edge16" class="edge"><title>QuestionItemProperties&#45;&gt;RepresentedVariable</title>
<path fill="none" stroke="black" d="M393.896,-366.094C415.424,-271.277 465.01,-121.794 571.95,-48.3272 666.291,16.4841 810.46,1.37733 880.858,-11.3475"/>
<text text-anchor="middle" x="630.45" y="-50.9272" font-family="Times New Roman,serif" font-size="8.00">RepresentedVariableReference</text>
<text text-anchor="middle" x="872.858" y="-4.94752" font-family="Times New Roman,serif" font-size="8.00">0...*</text>
<text text-anchor="middle" x="385.896" y="-359.694" font-family="Times New Roman,serif" font-size="8.00">0...*</text>
</g>
<!-- QuestionItemParameterType&#45;&gt;QuestionItemNameType -->
<g id="edge17" class="edge"><title>QuestionItemParameterType&#45;&gt;QuestionItemNameType</title>
<path fill="none" stroke="black" d="M1578.19,-541.487C1643.77,-530.393 1717.86,-517.858 1773.17,-508.501"/>
<text text-anchor="middle" x="1648.95" y="-539.927" font-family="Times New Roman,serif" font-size="8.00">ParameterName</text>
<text text-anchor="middle" x="1765.17" y="-502.101" font-family="Times New Roman,serif" font-size="8.00">0...*</text>
<text text-anchor="middle" x="1586.19" y="-535.087" font-family="Times New Roman,serif" font-size="8.00">0...*</text>
</g>
<!-- QuestionItemParameterType&#45;&gt;QuestionItemStructuredStringType -->
<g id="edge18" class="edge"><title>QuestionItemParameterType&#45;&gt;QuestionItemStructuredStringType</title>
<path fill="none" stroke="black" d="M1578.19,-594.229C1636.62,-604.52 1701.8,-616.001 1754.44,-625.272"/>
<text text-anchor="middle" x="1648.95" y="-616.927" font-family="Times New Roman,serif" font-size="8.00">Description</text>
<text text-anchor="middle" x="1746.44" y="-618.872" font-family="Times New Roman,serif" font-size="8.00">0...*</text>
<text text-anchor="middle" x="1586.19" y="-587.829" font-family="Times New Roman,serif" font-size="8.00">0...*</text>
</g>
<!-- QuestionItemParameterType&#45;&gt;QuestionItemRepresentationType -->
<g id="edge19" class="edge"><title>QuestionItemParameterType&#45;&gt;QuestionItemRepresentationType</title>
<path fill="none" stroke="black" d="M1516.17,-602.858C1593.54,-633.161 1703.67,-676.295 1777.59,-705.246"/>
<text text-anchor="middle" x="1648.95" y="-673.927" font-family="Times New Roman,serif" font-size="8.00">ValueRepresentation</text>
<text text-anchor="middle" x="1769.59" y="-698.846" font-family="Times New Roman,serif" font-size="8.00">0...*</text>
<text text-anchor="middle" x="1508.17" y="-605.458" font-family="Times New Roman,serif" font-size="8.00">0...*</text>
</g>
<!-- QuestionItemParameterType&#45;&gt;ManagedRepresentation -->
<g id="edge20" class="edge"><title>QuestionItemParameterType&#45;&gt;ManagedRepresentation</title>
<path fill="none" stroke="black" d="M1445.26,-531.677C1486.82,-460.095 1590.08,-298.153 1719.95,-209.327 1746.4,-191.236 1780.65,-179.986 1808.29,-173.259"/>
<text text-anchor="middle" x="1648.95" y="-321.927" font-family="Times New Roman,serif" font-size="8.00">ValueRepresentationReference</text>
<text text-anchor="middle" x="1800.29" y="-166.859" font-family="Times New Roman,serif" font-size="8.00">0...*</text>
<text text-anchor="middle" x="1437.26" y="-525.277" font-family="Times New Roman,serif" font-size="8.00">0...*</text>
</g>
<!-- QuestionItemBindingType&#45;&gt;QuestionItemParameterType -->
<g id="edge21" class="edge"><title>QuestionItemBindingType&#45;&gt;QuestionItemParameterType</title>
<path fill="none" stroke="black" d="M1052.63,-591.107C1119.19,-586.839 1200.98,-581.594 1270.79,-577.117"/>
<text text-anchor="middle" x="1205.45" y="-585.927" font-family="Times New Roman,serif" font-size="8.00">SourceParameterReference</text>
<text text-anchor="middle" x="1262.79" y="-570.717" font-family="Times New Roman,serif" font-size="8.00">0...*</text>
<text text-anchor="middle" x="1060.63" y="-593.707" font-family="Times New Roman,serif" font-size="8.00">0...*</text>
</g>
<!-- QuestionItemBindingType&#45;&gt;QuestionItemParameterType -->
<g id="edge22" class="edge"><title>QuestionItemBindingType&#45;&gt;QuestionItemParameterType</title>
<path fill="none" stroke="black" d="M1052.66,-585.276C1081.45,-581.562 1111.81,-577.206 1139.95,-572.327 1148.02,-570.927 1149.81,-569.237 1157.95,-568.327 1194.37,-564.26 1233.77,-562.623 1270.79,-562.298"/>
<text text-anchor="middle" x="1205.45" y="-570.927" font-family="Times New Roman,serif" font-size="8.00">TargetParameterReference</text>
<text text-anchor="middle" x="1262.79" y="-555.898" font-family="Times New Roman,serif" font-size="8.00">0...*</text>
<text text-anchor="middle" x="1060.66" y="-578.876" font-family="Times New Roman,serif" font-size="8.00">0...*</text>
</g>
<!-- OtherMaterial -->
<g id="ItemTypeOtherMaterial8" class="node"><title></title><ellipse fill="#f7b733" stroke="black" cx="1424.45" cy="-187.327" rx="37.3742" ry="18" style="filter: url(#dropshadow)"/>
<text text-anchor="middle" x="1424.45" y="-185.427" font-family="Times New Roman,serif" font-size="8.00">OtherMaterial</text>
</g>
<!-- QuestionItemExternalAidType&#45;&gt;OtherMaterial -->
<g id="edge23" class="edge"><title>QuestionItemExternalAidType&#45;&gt;OtherMaterial</title>
<path fill="none" stroke="black" d="M1052.61,-365.382C1082.37,-361.026 1113.15,-353.367 1139.95,-340.327 1203.25,-309.526 1204.27,-280.182 1252.95,-229.327 1261.22,-220.689 1260.4,-214.962 1270.95,-209.327 1307.17,-189.98 1354.78,-185.925 1387.1,-185.779"/>
<text text-anchor="middle" x="1205.45" y="-331.927" font-family="Times New Roman,serif" font-size="8.00">OtherMaterialReference</text>
<text text-anchor="middle" x="1379.1" y="-179.379" font-family="Times New Roman,serif" font-size="8.00">0...*</text>
<text text-anchor="middle" x="1060.61" y="-358.982" font-family="Times New Roman,serif" font-size="8.00">0...*</text>
</g>
<!-- QuestionItemExternalInterviewerInstructionType&#45;&gt;OtherMaterial -->
<g id="edge24" class="edge"><title>QuestionItemExternalInterviewerInstructionType&#45;&gt;OtherMaterial</title>
<path fill="none" stroke="black" d="M1094.08,-222.31C1199.75,-211.086 1326.79,-197.594 1387.6,-191.135"/>
<text text-anchor="middle" x="1205.45" y="-218.927" font-family="Times New Roman,serif" font-size="8.00">OtherMaterialReference</text>
<text text-anchor="middle" x="1379.6" y="-193.735" font-family="Times New Roman,serif" font-size="8.00">0...*</text>
<text text-anchor="middle" x="1086.08" y="-215.91" font-family="Times New Roman,serif" font-size="8.00">0...*</text>
</g>
<!-- QuestionBlock -->
<g id="ItemTypeQuestionBlock9" class="node"><title></title><ellipse fill="#f7b733" stroke="black" cx="41.9749" cy="-505.327" rx="38.6432" ry="18" style="filter: url(#dropshadow)"/>
<text text-anchor="middle" x="41.9749" y="-503.427" font-family="Times New Roman,serif" font-size="8.00">QuestionBlock</text>
</g>
<!-- QuestionBlock&#45;&gt;QuestionItemProperties -->
<g id="edge25" class="edge"><title>QuestionBlock&#45;&gt;QuestionItemProperties</title>
<path fill="none" stroke="black" d="M78.716,-499.548C107.408,-494.909 150.065,-488.012 194.204,-480.875"/>
<text text-anchor="middle" x="142.95" y="-496.927" font-family="Times New Roman,serif" font-size="8.00">QuestionItemReference</text>
<text text-anchor="middle" x="186.204" y="-474.475" font-family="Times New Roman,serif" font-size="8.00">0...*</text>
<text text-anchor="middle" x="86.716" y="-493.148" font-family="Times New Roman,serif" font-size="8.00">0...*</text>
</g>
<!-- QuestionGroup -->
<g id="ItemTypeQuestionGroup0" class="node"><title></title><ellipse fill="#f7b733" stroke="black" cx="41.9749" cy="-451.327" rx="38.6432" ry="18" style="filter: url(#dropshadow)"/>
<text text-anchor="middle" x="41.9749" y="-449.427" font-family="Times New Roman,serif" font-size="8.00">QuestionGroup</text>
</g>
<!-- QuestionGroup&#45;&gt;QuestionItemProperties -->
<g id="edge26" class="edge"><title>QuestionGroup&#45;&gt;QuestionItemProperties</title>
<path fill="none" stroke="black" d="M80.6368,-451.327C109.342,-451.327 151.183,-451.327 194.426,-451.327"/>
<text text-anchor="middle" x="142.95" y="-453.927" font-family="Times New Roman,serif" font-size="8.00">QuestionItemReference</text>
<text text-anchor="middle" x="186.426" y="-444.927" font-family="Times New Roman,serif" font-size="8.00">0...*</text>
<text text-anchor="middle" x="88.6368" y="-444.927" font-family="Times New Roman,serif" font-size="8.00">0...*</text>
</g>
<!-- QuestionScheme -->
<g id="ItemTypeQuestionScheme1" class="node"><title></title><ellipse fill="#f7b733" stroke="black" cx="41.9749" cy="-397.327" rx="41.9498" ry="18" style="filter: url(#dropshadow)"/>
<text text-anchor="middle" x="41.9749" y="-395.427" font-family="Times New Roman,serif" font-size="8.00">QuestionScheme</text>
</g>
<!-- QuestionScheme&#45;&gt;QuestionItemProperties -->
<g id="edge27" class="edge"><title>QuestionScheme&#45;&gt;QuestionItemProperties</title>
<path fill="none" stroke="black" d="M81.6123,-403.574C110.261,-408.207 151.601,-414.891 194.318,-421.798"/>
<text text-anchor="middle" x="142.95" y="-422.927" font-family="Times New Roman,serif" font-size="8.00">QuestionItemReference</text>
<text text-anchor="middle" x="186.318" y="-415.398" font-family="Times New Roman,serif" font-size="8.00">0...*</text>
<text text-anchor="middle" x="89.6123" y="-397.174" font-family="Times New Roman,serif" font-size="8.00">0...*</text>
</g>
</g>
</svg>
