<?xml version="1.0" encoding="UTF-8" standalone="no"?>
<!DOCTYPE svg PUBLIC "-//W3C//DTD SVG 1.1//EN"
 "http://www.w3.org/Graphics/SVG/1.1/DTD/svg11.dtd">
<!-- Generated by graphviz version 2.38.0 (20140413.2041)
 -->
<!-- Title: G Pages: 1 -->
<svg width="2066pt" height="960pt"
 viewBox="0.00 0.00 2065.95 959.93" xmlns="http://www.w3.org/2000/svg" xmlns:xlink="http://www.w3.org/1999/xlink">
<filter id = "dropshadow" height = "130%" ><feGaussianBlur in= "SourceAlpha" stdDeviation = "3"/><!--stdDeviation is how much to blur--><feOffset dx = "2" dy = "2" result = "offsetblur"/><!--how much to offset--><feMerge><feMergeNode/><!--this contains the offset blurred image--><feMergeNode in= "SourceGraphic"/><!--this contains the element that the filter is applied to --></feMerge></filter>
<g id="graph0" class="graph" transform="scale(1 1) rotate(0) translate(4 955.933)">
<title>G</title>
<g id="clust1" class="cluster"><title>clusterQuestionGrid</title>
<polygon fill="#4abdac" stroke="black" points="191.95,-217.933 191.95,-933.933 2049.95,-933.933 2049.95,-217.933 191.95,-217.933" style="filter: url(#dropshadow)"/>
<text text-anchor="middle" x="1120.95" y="-923.533" font-family="Times New Roman,serif" font-size="8.00">QuestionGrid</text>
</g>
<!-- QuestionGridProperties -->
<g id="ItemTypeQuestionGridProperties" class="node"><title></title><polygon fill="#f7b733" stroke="black" points="199.95,-389.933 199.95,-577.933 579.95,-577.933 579.95,-389.933 199.95,-389.933" style="filter: url(#dropshadow)"/>
<text text-anchor="middle" x="226.45" y="-482.033" font-family="Times New Roman,serif" font-size="8.00">Properties</text>
<polyline fill="none" stroke="black" points="252.95,-389.933 252.95,-577.933 "/>
<text text-anchor="start" x="260.95" y="-567.533" font-family="Times New Roman,serif" font-size="8.00">QuestionGridName : NameType[0...n] </text>
<text text-anchor="start" x="260.95" y="-558.533" font-family="Times New Roman,serif" font-size="8.00">Label : LabelType[0...n] </text>
<text text-anchor="start" x="260.95" y="-549.533" font-family="Times New Roman,serif" font-size="8.00">Description : StructuredStringType[0...1] </text>
<text text-anchor="start" x="260.95" y="-540.533" font-family="Times New Roman,serif" font-size="8.00">InParameter : InParameterType[0...n] </text>
<text text-anchor="start" x="260.95" y="-531.533" font-family="Times New Roman,serif" font-size="8.00">OutParameter : ParameterType[0...n] </text>
<text text-anchor="start" x="260.95" y="-522.533" font-family="Times New Roman,serif" font-size="8.00">Binding : BindingType[0...n] </text>
<text text-anchor="start" x="260.95" y="-513.533" font-family="Times New Roman,serif" font-size="8.00">QuestionText : DynamicTextType[0...n] </text>
<text text-anchor="start" x="260.95" y="-504.533" font-family="Times New Roman,serif" font-size="8.00">QuestionIntent : StructuredStringType[0...1] </text>
<text text-anchor="start" x="260.95" y="-495.533" font-family="Times New Roman,serif" font-size="8.00">GridDimension : GridDimensionType[0...n] </text>
<text text-anchor="start" x="260.95" y="-486.533" font-family="Times New Roman,serif" font-size="8.00">ResponseDomain : RepresentationType[0...1] </text>
<text text-anchor="start" x="260.95" y="-477.533" font-family="Times New Roman,serif" font-size="8.00">ResponseDomainReference : ManagedRepresentation[0...1] </text>
<text text-anchor="start" x="260.95" y="-468.533" font-family="Times New Roman,serif" font-size="8.00">StructuredMixedGridResponseDomain : StructuredMixedGridResponseDomainType[0...1] </text>
<text text-anchor="start" x="260.95" y="-459.533" font-family="Times New Roman,serif" font-size="8.00">CellLabel : CellLabelType[0...n] </text>
<text text-anchor="start" x="260.95" y="-450.533" font-family="Times New Roman,serif" font-size="8.00">FixedCellValue : FixedCellValueType[0...n] </text>
<text text-anchor="start" x="260.95" y="-441.533" font-family="Times New Roman,serif" font-size="8.00">ConceptReference : Concept[0...n] </text>
<text text-anchor="start" x="260.95" y="-432.533" font-family="Times New Roman,serif" font-size="8.00">ExternalAid : ExternalAidType[0...n] </text>
<text text-anchor="start" x="260.95" y="-423.533" font-family="Times New Roman,serif" font-size="8.00">ExternalInterviewerInstruction : ExternalInterviewerInstructionType[0...1] </text>
<text text-anchor="start" x="260.95" y="-414.533" font-family="Times New Roman,serif" font-size="8.00">InterviewerInstructionReference : Instruction[0...1] </text>
<text text-anchor="start" x="260.95" y="-405.533" font-family="Times New Roman,serif" font-size="8.00">RepresentedVariableReference : RepresentedVariable[0...n] </text>
<text text-anchor="start" x="260.95" y="-396.533" font-family="Times New Roman,serif" font-size="8.00">EstimatedSecondsResponseTime : decimal[0...1] </text>
</g>
<!-- QuestionGridNameType -->
<g id="ReusableTypeQuestionGridNameType" class="node"><title></title><polygon fill="#fc4a1a" stroke="black" points="1819.45,-527.933 1819.45,-563.933 1988.45,-563.933 1988.45,-527.933 1819.45,-527.933" style="filter: url(#dropshadow)"/>
<text text-anchor="middle" x="1847.45" y="-544.033" font-family="Times New Roman,serif" font-size="8.00">NameType</text>
<polyline fill="none" stroke="black" points="1875.45,-527.933 1875.45,-563.933 "/>
<text text-anchor="start" x="1883.45" y="-548.533" font-family="Times New Roman,serif" font-size="8.00">IsPreferred : boolean[0...1] </text>
<text text-anchor="start" x="1883.45" y="-539.533" font-family="Times New Roman,serif" font-size="8.00">Context : string[0...1] </text>
</g>
<!-- QuestionGridProperties&#45;&gt;QuestionGridNameType -->
<g id="edge1" class="edge"><title>QuestionGridProperties&#45;&gt;QuestionGridNameType</title>
<path fill="none" stroke="black" d="M580.183,-478.225C586.174,-478.115 592.108,-478.017 597.95,-477.933 859.256,-474.146 924.908,-465.582 1185.95,-477.933 1415.76,-488.806 1685.62,-519.178 1819.24,-535.402"/>
<text text-anchor="middle" x="1251.45" y="-487.533" font-family="Times New Roman,serif" font-size="8.00">QuestionGridName</text>
</g>
<!-- QuestionGridLabelType -->
<g id="ReusableTypeQuestionGridLabelType" class="node"><title></title><polygon fill="#fc4a1a" stroke="black" points="860.95,-282.433 860.95,-335.433 1071.95,-335.433 1071.95,-282.433 860.95,-282.433" style="filter: url(#dropshadow)"/>
<text text-anchor="middle" x="887.95" y="-307.033" font-family="Times New Roman,serif" font-size="8.00">LabelType</text>
<polyline fill="none" stroke="black" points="914.95,-282.433 914.95,-335.433 "/>
<text text-anchor="start" x="922.95" y="-325.033" font-family="Times New Roman,serif" font-size="8.00">TypeOfLabel : CodeValueType[0...1] </text>
<text text-anchor="start" x="922.95" y="-316.033" font-family="Times New Roman,serif" font-size="8.00">LocationVariant : string[0...1] </text>
<text text-anchor="start" x="922.95" y="-307.033" font-family="Times New Roman,serif" font-size="8.00">ValidForStartDate : cogsDate[0...1] </text>
<text text-anchor="start" x="922.95" y="-298.033" font-family="Times New Roman,serif" font-size="8.00">ValidForEndDate : cogsDate[0...1] </text>
<text text-anchor="start" x="922.95" y="-289.033" font-family="Times New Roman,serif" font-size="8.00">MaxLength : nonNegativeInteger[0...1] </text>
</g>
<!-- QuestionGridProperties&#45;&gt;QuestionGridLabelType -->
<g id="edge2" class="edge"><title>QuestionGridProperties&#45;&gt;QuestionGridLabelType</title>
<path fill="none" stroke="black" d="M580.04,-396.851C586.059,-394.469 592.039,-392.156 597.95,-389.933 662.697,-365.578 679.568,-360.589 746.95,-344.933 783.742,-336.384 824.477,-329.095 860.71,-323.357"/>
<text text-anchor="middle" x="663.45" y="-392.533" font-family="Times New Roman,serif" font-size="8.00">Label</text>
</g>
<!-- QuestionGridStructuredStringType -->
<g id="ReusableTypeQuestionGridStructuredStringType" class="node"><title></title><polygon fill="#fc4a1a" stroke="black" points="1797.45,-661.933 1797.45,-697.933 2010.45,-697.933 2010.45,-661.933 1797.45,-661.933" style="filter: url(#dropshadow)"/>
<text text-anchor="middle" x="1842.45" y="-678.033" font-family="Times New Roman,serif" font-size="8.00">StructuredStringType</text>
<polyline fill="none" stroke="black" points="1887.45,-661.933 1887.45,-697.933 "/>
<text text-anchor="start" x="1895.45" y="-678.033" font-family="Times New Roman,serif" font-size="8.00">Content : ContentType[0...n] </text>
</g>
<!-- QuestionGridProperties&#45;&gt;QuestionGridStructuredStringType -->
<g id="edge3" class="edge"><title>QuestionGridProperties&#45;&gt;QuestionGridStructuredStringType</title>
<path fill="none" stroke="black" d="M417.981,-578.273C447.675,-664.019 504.068,-786.911 597.95,-852.933 652.876,-891.559 680.034,-872.358 746.95,-877.933 941.387,-894.131 996.058,-922.76 1185.95,-877.933 1194.65,-875.878 1195.59,-872.116 1203.95,-868.933 1417.33,-787.676 1679.78,-726.585 1814.26,-697.946"/>
<text text-anchor="middle" x="1251.45" y="-871.533" font-family="Times New Roman,serif" font-size="8.00">Description</text>
</g>
<!-- QuestionGridInParameterType -->
<g id="ReusableTypeQuestionGridInParameterType" class="node"><title></title><polygon fill="#fc4a1a" stroke="black" points="863.95,-409.933 863.95,-445.933 1068.95,-445.933 1068.95,-409.933 863.95,-409.933" style="filter: url(#dropshadow)"/>
<text text-anchor="middle" x="903.45" y="-426.033" font-family="Times New Roman,serif" font-size="8.00">InParameterType</text>
<polyline fill="none" stroke="black" points="942.95,-409.933 942.95,-445.933 "/>
<text text-anchor="start" x="950.95" y="-426.033" font-family="Times New Roman,serif" font-size="8.00">LimitArrayIndex : string[0...1] </text>
</g>
<!-- QuestionGridProperties&#45;&gt;QuestionGridInParameterType -->
<g id="edge4" class="edge"><title>QuestionGridProperties&#45;&gt;QuestionGridInParameterType</title>
<path fill="none" stroke="black" d="M580.098,-453.999C586.114,-453.269 592.076,-452.577 597.95,-451.933 687.564,-442.099 789.948,-435.817 863.849,-432.158"/>
<text text-anchor="middle" x="663.45" y="-454.533" font-family="Times New Roman,serif" font-size="8.00">InParameter</text>
</g>
<!-- QuestionGridParameterType -->
<g id="ReusableTypeQuestionGridParameterType" class="node"><title></title><polygon fill="#fc4a1a" stroke="black" points="1316.95,-617.433 1316.95,-688.433 1623.95,-688.433 1623.95,-617.433 1316.95,-617.433" style="filter: url(#dropshadow)"/>
<text text-anchor="middle" x="1352.45" y="-651.033" font-family="Times New Roman,serif" font-size="8.00">ParameterType</text>
<polyline fill="none" stroke="black" points="1387.95,-617.433 1387.95,-688.433 "/>
<text text-anchor="start" x="1395.95" y="-678.033" font-family="Times New Roman,serif" font-size="8.00">ParameterName : NameType[0...n] </text>
<text text-anchor="start" x="1395.95" y="-669.033" font-family="Times New Roman,serif" font-size="8.00">Alias : string[0...1] </text>
<text text-anchor="start" x="1395.95" y="-660.033" font-family="Times New Roman,serif" font-size="8.00">Description : StructuredStringType[0...1] </text>
<text text-anchor="start" x="1395.95" y="-651.033" font-family="Times New Roman,serif" font-size="8.00">ValueRepresentation : RepresentationType[0...1] </text>
<text text-anchor="start" x="1395.95" y="-642.033" font-family="Times New Roman,serif" font-size="8.00">ValueRepresentationReference : ManagedRepresentation[0...1] </text>
<text text-anchor="start" x="1395.95" y="-633.033" font-family="Times New Roman,serif" font-size="8.00">DefaultValue : ValueType[0...1] </text>
<text text-anchor="start" x="1395.95" y="-624.033" font-family="Times New Roman,serif" font-size="8.00">IsArray : boolean[0...1] </text>
</g>
<!-- QuestionGridProperties&#45;&gt;QuestionGridParameterType -->
<g id="edge5" class="edge"><title>QuestionGridProperties&#45;&gt;QuestionGridParameterType</title>
<path fill="none" stroke="black" d="M580.384,-481.407C778.528,-480.405 1075.76,-483.988 1185.95,-511.933 1271.07,-533.519 1360.35,-583.071 1415.46,-617.28"/>
<text text-anchor="middle" x="966.45" y="-514.533" font-family="Times New Roman,serif" font-size="8.00">OutParameter</text>
</g>
<!-- QuestionGridBindingType -->
<g id="ReusableTypeQuestionGridBindingType" class="node"><title></title><polygon fill="#fc4a1a" stroke="black" points="837.45,-666.933 837.45,-702.933 1095.45,-702.933 1095.45,-666.933 837.45,-666.933" style="filter: url(#dropshadow)"/>
<text text-anchor="middle" x="868.45" y="-683.033" font-family="Times New Roman,serif" font-size="8.00">BindingType</text>
<polyline fill="none" stroke="black" points="899.45,-666.933 899.45,-702.933 "/>
<text text-anchor="start" x="907.45" y="-687.533" font-family="Times New Roman,serif" font-size="8.00">SourceParameterReference : ParameterType[0...1] </text>
<text text-anchor="start" x="907.45" y="-678.533" font-family="Times New Roman,serif" font-size="8.00">TargetParameterReference : ParameterType[0...1] </text>
</g>
<!-- QuestionGridProperties&#45;&gt;QuestionGridBindingType -->
<g id="edge6" class="edge"><title>QuestionGridProperties&#45;&gt;QuestionGridBindingType</title>
<path fill="none" stroke="black" d="M554.743,-578.109C613.633,-608.121 681.665,-638.537 746.95,-657.933 775.62,-666.45 807.178,-672.284 837.18,-676.278"/>
<text text-anchor="middle" x="663.45" y="-653.533" font-family="Times New Roman,serif" font-size="8.00">Binding</text>
</g>
<!-- QuestionGridDynamicTextType -->
<g id="ReusableTypeQuestionGridDynamicTextType" class="node"><title></title><polygon fill="#fc4a1a" stroke="black" points="845.45,-530.933 845.45,-566.933 1087.45,-566.933 1087.45,-530.933 845.45,-530.933" style="filter: url(#dropshadow)"/>
<text text-anchor="middle" x="887.45" y="-547.033" font-family="Times New Roman,serif" font-size="8.00">DynamicTextType</text>
<polyline fill="none" stroke="black" points="929.45,-530.933 929.45,-566.933 "/>
<text text-anchor="start" x="937.45" y="-556.033" font-family="Times New Roman,serif" font-size="8.00">TextContent : TextContentType[0...n] </text>
<text text-anchor="start" x="937.45" y="-547.033" font-family="Times New Roman,serif" font-size="8.00">IsStructureRequired : boolean[0...1] </text>
<text text-anchor="start" x="937.45" y="-538.033" font-family="Times New Roman,serif" font-size="8.00">AudienceLanguage : language[0...1] </text>
</g>
<!-- QuestionGridProperties&#45;&gt;QuestionGridDynamicTextType -->
<g id="edge7" class="edge"><title>QuestionGridProperties&#45;&gt;QuestionGridDynamicTextType</title>
<path fill="none" stroke="black" d="M580.184,-505.907C586.175,-506.591 592.108,-507.268 597.95,-507.933 680.553,-517.329 773.626,-527.711 845.439,-535.676"/>
<text text-anchor="middle" x="663.45" y="-524.533" font-family="Times New Roman,serif" font-size="8.00">QuestionText</text>
</g>
<!-- QuestionGridGridDimensionType -->
<g id="ReusableTypeQuestionGridGridDimensionType" class="node"><title></title><polygon fill="#fc4a1a" stroke="black" points="834.95,-585.933 834.95,-647.933 1097.95,-647.933 1097.95,-585.933 834.95,-585.933" style="filter: url(#dropshadow)"/>
<text text-anchor="middle" x="878.45" y="-615.033" font-family="Times New Roman,serif" font-size="8.00">GridDimensionType</text>
<polyline fill="none" stroke="black" points="921.95,-585.933 921.95,-647.933 "/>
<text text-anchor="start" x="929.95" y="-637.533" font-family="Times New Roman,serif" font-size="8.00">CodeDomain : CodeDomainType[0...1] </text>
<text text-anchor="start" x="929.95" y="-628.533" font-family="Times New Roman,serif" font-size="8.00">Roster : RosterType[0...1] </text>
<text text-anchor="start" x="929.95" y="-619.533" font-family="Times New Roman,serif" font-size="8.00">CreateSummary : CreateSummaryType[0...1] </text>
<text text-anchor="start" x="929.95" y="-610.533" font-family="Times New Roman,serif" font-size="8.00">Rank : nonNegativeInteger[1...1] </text>
<text text-anchor="start" x="929.95" y="-601.533" font-family="Times New Roman,serif" font-size="8.00">DisplayCode : boolean[0...1] </text>
<text text-anchor="start" x="929.95" y="-592.533" font-family="Times New Roman,serif" font-size="8.00">DisplayLabel : boolean[0...1] </text>
</g>
<!-- QuestionGridProperties&#45;&gt;QuestionGridGridDimensionType -->
<g id="edge8" class="edge"><title>QuestionGridProperties&#45;&gt;QuestionGridGridDimensionType</title>
<path fill="none" stroke="black" d="M580.151,-536.154C633.862,-550.217 692.537,-564.863 746.95,-576.933 775.281,-583.217 805.836,-589.263 834.859,-594.668"/>
<text text-anchor="middle" x="663.45" y="-574.533" font-family="Times New Roman,serif" font-size="8.00">GridDimension</text>
</g>
<!-- QuestionGridRepresentationType -->
<g id="ReusableTypeQuestionGridRepresentationType0" class="node"><title></title><polygon fill="#fc4a1a" stroke="black" points="1765.95,-845.933 1765.95,-907.933 2041.95,-907.933 2041.95,-845.933 1765.95,-845.933" style="filter: url(#dropshadow)"/>
<text text-anchor="middle" x="1809.95" y="-875.033" font-family="Times New Roman,serif" font-size="8.00">RepresentationType</text>
<polyline fill="none" stroke="black" points="1853.95,-845.933 1853.95,-907.933 "/>
<text text-anchor="start" x="1861.95" y="-897.533" font-family="Times New Roman,serif" font-size="8.00">RecommendedDataType : CodeValueType[0...1] </text>
<text text-anchor="start" x="1861.95" y="-888.533" font-family="Times New Roman,serif" font-size="8.00">GenericOutputFormat : CodeValueType[0...1] </text>
<text text-anchor="start" x="1861.95" y="-879.533" font-family="Times New Roman,serif" font-size="8.00">MeasurementUnit : CodeValueType[0...1] </text>
<text text-anchor="start" x="1861.95" y="-870.533" font-family="Times New Roman,serif" font-size="8.00">MissingValue : string[0...1] </text>
<text text-anchor="start" x="1861.95" y="-861.533" font-family="Times New Roman,serif" font-size="8.00">BlankIsMissingValue : boolean[0...1] </text>
<text text-anchor="start" x="1861.95" y="-852.533" font-family="Times New Roman,serif" font-size="8.00">ClassificationLevel : string[0...1] </text>
</g>
<!-- QuestionGridProperties&#45;&gt;QuestionGridRepresentationType -->
<g id="edge9" class="edge"><title>QuestionGridProperties&#45;&gt;QuestionGridRepresentationType</title>
<path fill="none" stroke="black" d="M415.409,-578.255C443.831,-668.029 499.87,-799.557 597.95,-869.933 781.283,-1001.48 1469.37,-932.558 1765.75,-895.488"/>
<text text-anchor="middle" x="1251.45" y="-945.533" font-family="Times New Roman,serif" font-size="8.00">ResponseDomain</text>
</g>
<!-- ManagedRepresentation -->
<g id="ItemTypeManagedRepresentation1" class="node"><title></title><ellipse fill="#f7b733" stroke="black" cx="1903.95" cy="-168.933" rx="56.9465" ry="18" style="filter: url(#dropshadow)"/>
<text text-anchor="middle" x="1903.95" y="-167.033" font-family="Times New Roman,serif" font-size="8.00">ManagedRepresentation</text>
</g>
<!-- QuestionGridProperties&#45;&gt;ManagedRepresentation -->
<g id="edge10" class="edge"><title>QuestionGridProperties&#45;&gt;ManagedRepresentation</title>
<path fill="none" stroke="black" d="M469.008,-389.8C505.127,-350.664 550.51,-307.178 597.95,-275.933 657.432,-236.756 677.666,-233.448 746.95,-216.933 994.402,-157.948 1062.83,-176.5 1316.95,-164.933 1453.25,-158.728 1487.51,-163.955 1623.95,-164.933 1701.33,-165.487 1790.78,-166.907 1847.11,-167.897"/>
<text text-anchor="middle" x="1251.45" y="-171.533" font-family="Times New Roman,serif" font-size="8.00">ResponseDomainReference</text>
<text text-anchor="middle" x="1839.11" y="-161.497" font-family="Times New Roman,serif" font-size="8.00">0...*</text>
<text text-anchor="middle" x="461.008" y="-383.4" font-family="Times New Roman,serif" font-size="8.00">0...*</text>
</g>
<!-- QuestionGridStructuredMixedGridResponseDomainType -->
<g id="ReusableTypeQuestionGridStructuredMixedGridResponseDomainType2" class="node"><title></title><polygon fill="#fc4a1a" stroke="black" points="746.95,-721.933 746.95,-757.933 1185.95,-757.933 1185.95,-721.933 746.95,-721.933" style="filter: url(#dropshadow)"/>
<text text-anchor="middle" x="829.95" y="-738.033" font-family="Times New Roman,serif" font-size="8.00">StructuredMixedGridResponseDomainType</text>
<polyline fill="none" stroke="black" points="912.95,-721.933 912.95,-757.933 "/>
<text text-anchor="start" x="920.95" y="-742.533" font-family="Times New Roman,serif" font-size="8.00">GridResponseDomainInMixed : GridResponseDomainInMixedType[0...1] </text>
<text text-anchor="start" x="920.95" y="-733.533" font-family="Times New Roman,serif" font-size="8.00">NoDataByDefinition : GridAttachmentType[0...1] </text>
</g>
<!-- QuestionGridProperties&#45;&gt;QuestionGridStructuredMixedGridResponseDomainType -->
<g id="edge11" class="edge"><title>QuestionGridProperties&#45;&gt;QuestionGridStructuredMixedGridResponseDomainType</title>
<path fill="none" stroke="black" d="M483.026,-577.946C516.916,-608.606 557.061,-640.699 597.95,-663.933 648.648,-692.741 708.815,-710.695 765.634,-721.863"/>
<text text-anchor="middle" x="663.45" y="-713.533" font-family="Times New Roman,serif" font-size="8.00">StructuredMixedGridResponseDomain</text>
<text text-anchor="middle" x="757.634" y="-715.463" font-family="Times New Roman,serif" font-size="8.00">0...*</text>
<text text-anchor="middle" x="475.026" y="-580.546" font-family="Times New Roman,serif" font-size="8.00">0...*</text>
</g>
<!-- QuestionGridCellLabelType -->
<g id="ReusableTypeQuestionGridCellLabelType3" class="node"><title></title><polygon fill="#fc4a1a" stroke="black" points="842.95,-776.933 842.95,-812.933 1089.95,-812.933 1089.95,-776.933 842.95,-776.933" style="filter: url(#dropshadow)"/>
<text text-anchor="middle" x="876.95" y="-793.033" font-family="Times New Roman,serif" font-size="8.00">CellLabelType</text>
<polyline fill="none" stroke="black" points="910.95,-776.933 910.95,-812.933 "/>
<text text-anchor="start" x="918.95" y="-793.033" font-family="Times New Roman,serif" font-size="8.00">GridAttachment : GridAttachmentType[0...n] </text>
</g>
<!-- QuestionGridProperties&#45;&gt;QuestionGridCellLabelType -->
<g id="edge12" class="edge"><title>QuestionGridProperties&#45;&gt;QuestionGridCellLabelType</title>
<path fill="none" stroke="black" d="M452.03,-577.959C488.845,-627.844 539.813,-686.413 597.95,-723.933 670.566,-770.797 766.923,-788.131 842.751,-793.968"/>
<text text-anchor="middle" x="663.45" y="-776.533" font-family="Times New Roman,serif" font-size="8.00">CellLabel</text>
<text text-anchor="middle" x="834.751" y="-787.568" font-family="Times New Roman,serif" font-size="8.00">0...*</text>
<text text-anchor="middle" x="444.03" y="-580.559" font-family="Times New Roman,serif" font-size="8.00">0...*</text>
</g>
<!-- QuestionGridFixedCellValueType -->
<g id="ReusableTypeQuestionGridFixedCellValueType4" class="node"><title></title><polygon fill="#fc4a1a" stroke="black" points="833.95,-831.933 833.95,-867.933 1098.95,-867.933 1098.95,-831.933 833.95,-831.933" style="filter: url(#dropshadow)"/>
<text text-anchor="middle" x="876.95" y="-848.033" font-family="Times New Roman,serif" font-size="8.00">FixedCellValueType</text>
<polyline fill="none" stroke="black" points="919.95,-831.933 919.95,-867.933 "/>
<text text-anchor="start" x="927.95" y="-852.533" font-family="Times New Roman,serif" font-size="8.00">Value : ValueType[0...1] </text>
<text text-anchor="start" x="927.95" y="-843.533" font-family="Times New Roman,serif" font-size="8.00">GridAttachment : GridAttachmentType[0...n] </text>
</g>
<!-- QuestionGridProperties&#45;&gt;QuestionGridFixedCellValueType -->
<g id="edge13" class="edge"><title>QuestionGridProperties&#45;&gt;QuestionGridFixedCellValueType</title>
<path fill="none" stroke="black" d="M432.156,-577.956C466.786,-646.075 522.718,-734.991 597.95,-786.933 666.402,-834.193 758.729,-849.881 833.715,-853.786"/>
<text text-anchor="middle" x="663.45" y="-842.533" font-family="Times New Roman,serif" font-size="8.00">FixedCellValue</text>
<text text-anchor="middle" x="825.715" y="-847.386" font-family="Times New Roman,serif" font-size="8.00">0...*</text>
<text text-anchor="middle" x="424.156" y="-580.556" font-family="Times New Roman,serif" font-size="8.00">0...*</text>
</g>
<!-- Concept -->
<g id="ItemTypeConcept5" class="node"><title></title><ellipse fill="#f7b733" stroke="black" cx="966.45" cy="-132.933" rx="27" ry="18" style="filter: url(#dropshadow)"/>
<text text-anchor="middle" x="966.45" y="-131.033" font-family="Times New Roman,serif" font-size="8.00">Concept</text>
</g>
<!-- QuestionGridProperties&#45;&gt;Concept -->
<g id="edge14" class="edge"><title>QuestionGridProperties&#45;&gt;Concept</title>
<path fill="none" stroke="black" d="M422.713,-389.83C454.185,-312.585 510.488,-207.787 597.95,-155.933 710.402,-89.2625 877.706,-114.431 940.468,-127.256"/>
<text text-anchor="middle" x="663.45" y="-158.533" font-family="Times New Roman,serif" font-size="8.00">ConceptReference</text>
<text text-anchor="middle" x="932.468" y="-120.856" font-family="Times New Roman,serif" font-size="8.00">0...*</text>
<text text-anchor="middle" x="430.713" y="-383.43" font-family="Times New Roman,serif" font-size="8.00">0...*</text>
</g>
<!-- QuestionGridExternalAidType -->
<g id="ReusableTypeQuestionGridExternalAidType6" class="node"><title></title><polygon fill="#fc4a1a" stroke="black" points="837.45,-354.933 837.45,-390.933 1095.45,-390.933 1095.45,-354.933 837.45,-354.933" style="filter: url(#dropshadow)"/>
<text text-anchor="middle" x="875.95" y="-371.033" font-family="Times New Roman,serif" font-size="8.00">ExternalAidType</text>
<polyline fill="none" stroke="black" points="914.45,-354.933 914.45,-390.933 "/>
<text text-anchor="start" x="922.45" y="-371.033" font-family="Times New Roman,serif" font-size="8.00">OtherMaterialReference : OtherMaterial[0...1] </text>
</g>
<!-- QuestionGridProperties&#45;&gt;QuestionGridExternalAidType -->
<g id="edge15" class="edge"><title>QuestionGridProperties&#45;&gt;QuestionGridExternalAidType</title>
<path fill="none" stroke="black" d="M580.059,-433.132C586.086,-431.69 592.061,-430.287 597.95,-428.933 663.7,-413.817 680.321,-410.52 746.95,-399.933 776.111,-395.299 807.569,-391.003 837.282,-387.263"/>
<text text-anchor="middle" x="663.45" y="-431.533" font-family="Times New Roman,serif" font-size="8.00">ExternalAid</text>
<text text-anchor="middle" x="829.282" y="-380.863" font-family="Times New Roman,serif" font-size="8.00">0...*</text>
<text text-anchor="middle" x="588.059" y="-426.732" font-family="Times New Roman,serif" font-size="8.00">0...*</text>
</g>
<!-- QuestionGridExternalInterviewerInstructionType -->
<g id="ReusableTypeQuestionGridExternalInterviewerInstructionType7" class="node"><title></title><polygon fill="#fc4a1a" stroke="black" points="749.95,-226.933 749.95,-262.933 1182.95,-262.933 1182.95,-226.933 749.95,-226.933" style="filter: url(#dropshadow)"/>
<text text-anchor="middle" x="821.45" y="-243.033" font-family="Times New Roman,serif" font-size="8.00">ExternalInterviewerInstructionType</text>
<polyline fill="none" stroke="black" points="892.95,-226.933 892.95,-262.933 "/>
<text text-anchor="start" x="900.95" y="-252.033" font-family="Times New Roman,serif" font-size="8.00">OtherMaterialReference : OtherMaterial[0...1] </text>
<text text-anchor="start" x="900.95" y="-243.033" font-family="Times New Roman,serif" font-size="8.00">InstructionAttachmentLocation : InstructionAttachmentLocationType[0...n] </text>
<text text-anchor="start" x="900.95" y="-234.033" font-family="Times New Roman,serif" font-size="8.00">IsDisplayed : boolean[0...1] </text>
</g>
<!-- QuestionGridProperties&#45;&gt;QuestionGridExternalInterviewerInstructionType -->
<g id="edge16" class="edge"><title>QuestionGridProperties&#45;&gt;QuestionGridExternalInterviewerInstructionType</title>
<path fill="none" stroke="black" d="M512.358,-389.723C577.926,-344.825 662.567,-295.976 746.95,-272.933 760.969,-269.104 775.641,-265.796 790.463,-262.936"/>
<text text-anchor="middle" x="663.45" y="-337.533" font-family="Times New Roman,serif" font-size="8.00">ExternalInterviewerInstruction</text>
<text text-anchor="middle" x="782.463" y="-265.536" font-family="Times New Roman,serif" font-size="8.00">0...*</text>
<text text-anchor="middle" x="504.358" y="-383.323" font-family="Times New Roman,serif" font-size="8.00">0...*</text>
</g>
<!-- Instruction -->
<g id="ItemTypeInstruction8" class="node"><title></title><ellipse fill="#f7b733" stroke="black" cx="966.45" cy="-78.9327" rx="31.3964" ry="18" style="filter: url(#dropshadow)"/>
<text text-anchor="middle" x="966.45" y="-77.0327" font-family="Times New Roman,serif" font-size="8.00">Instruction</text>
</g>
<!-- QuestionGridProperties&#45;&gt;Instruction -->
<g id="edge17" class="edge"><title>QuestionGridProperties&#45;&gt;Instruction</title>
<path fill="none" stroke="black" d="M414.14,-389.792C441.713,-299.777 497.225,-168.489 597.95,-103.933 706.438,-34.4007 871.824,-58.8387 937.324,-72.3954"/>
<text text-anchor="middle" x="663.45" y="-106.533" font-family="Times New Roman,serif" font-size="8.00">InterviewerInstructionReference</text>
<text text-anchor="middle" x="929.324" y="-65.9954" font-family="Times New Roman,serif" font-size="8.00">0...*</text>
<text text-anchor="middle" x="406.14" y="-383.392" font-family="Times New Roman,serif" font-size="8.00">0...*</text>
</g>
<!-- RepresentedVariable -->
<g id="ItemTypeRepresentedVariable9" class="node"><title></title><ellipse fill="#f7b733" stroke="black" cx="966.45" cy="-24.9327" rx="48.5642" ry="18" style="filter: url(#dropshadow)"/>
<text text-anchor="middle" x="966.45" y="-23.0327" font-family="Times New Roman,serif" font-size="8.00">RepresentedVariable</text>
</g>
<!-- QuestionGridProperties&#45;&gt;RepresentedVariable -->
<g id="edge18" class="edge"><title>QuestionGridProperties&#45;&gt;RepresentedVariable</title>
<path fill="none" stroke="black" d="M406.899,-389.533C429.76,-286.561 482.586,-126.016 597.95,-47.9327 698.669,20.2388 852.654,-0.212167 925.108,-15.2142"/>
<text text-anchor="middle" x="663.45" y="-50.5327" font-family="Times New Roman,serif" font-size="8.00">RepresentedVariableReference</text>
<text text-anchor="middle" x="917.108" y="-8.81419" font-family="Times New Roman,serif" font-size="8.00">0...*</text>
<text text-anchor="middle" x="398.899" y="-383.133" font-family="Times New Roman,serif" font-size="8.00">0...*</text>
</g>
<!-- QuestionGridParameterType&#45;&gt;QuestionGridNameType -->
<g id="edge19" class="edge"><title>QuestionGridParameterType&#45;&gt;QuestionGridNameType</title>
<path fill="none" stroke="black" d="M1614.83,-617.378C1687.06,-599.468 1771.52,-578.524 1830.24,-563.962"/>
<text text-anchor="middle" x="1694.95" y="-611.533" font-family="Times New Roman,serif" font-size="8.00">ParameterName</text>
<text text-anchor="middle" x="1822.24" y="-566.562" font-family="Times New Roman,serif" font-size="8.00">0...*</text>
<text text-anchor="middle" x="1606.83" y="-610.978" font-family="Times New Roman,serif" font-size="8.00">0...*</text>
</g>
<!-- QuestionGridParameterType&#45;&gt;QuestionGridStructuredStringType -->
<g id="edge20" class="edge"><title>QuestionGridParameterType&#45;&gt;QuestionGridStructuredStringType</title>
<path fill="none" stroke="black" d="M1624.19,-662.49C1681.4,-666.07 1745.1,-670.056 1797.15,-673.312"/>
<text text-anchor="middle" x="1694.95" y="-671.533" font-family="Times New Roman,serif" font-size="8.00">Description</text>
<text text-anchor="middle" x="1789.15" y="-666.912" font-family="Times New Roman,serif" font-size="8.00">0...*</text>
<text text-anchor="middle" x="1632.19" y="-656.09" font-family="Times New Roman,serif" font-size="8.00">0...*</text>
</g>
<!-- QuestionGridParameterType&#45;&gt;QuestionGridRepresentationType -->
<g id="edge21" class="edge"><title>QuestionGridParameterType&#45;&gt;QuestionGridRepresentationType</title>
<path fill="none" stroke="black" d="M1540.3,-688.674C1623.93,-732.091 1763.66,-804.623 1843.04,-845.831"/>
<text text-anchor="middle" x="1694.95" y="-793.533" font-family="Times New Roman,serif" font-size="8.00">ValueRepresentation</text>
<text text-anchor="middle" x="1835.04" y="-839.431" font-family="Times New Roman,serif" font-size="8.00">0...*</text>
<text text-anchor="middle" x="1532.3" y="-691.274" font-family="Times New Roman,serif" font-size="8.00">0...*</text>
</g>
<!-- QuestionGridParameterType&#45;&gt;ManagedRepresentation -->
<g id="edge22" class="edge"><title>QuestionGridParameterType&#45;&gt;ManagedRepresentation</title>
<path fill="none" stroke="black" d="M1485.64,-617.214C1520.5,-533.994 1618.4,-325.787 1765.95,-213.933 1791.29,-194.726 1825.2,-183.501 1852.95,-177.065"/>
<text text-anchor="middle" x="1694.95" y="-339.533" font-family="Times New Roman,serif" font-size="8.00">ValueRepresentationReference</text>
<text text-anchor="middle" x="1844.95" y="-170.665" font-family="Times New Roman,serif" font-size="8.00">0...*</text>
<text text-anchor="middle" x="1477.64" y="-610.814" font-family="Times New Roman,serif" font-size="8.00">0...*</text>
</g>
<!-- QuestionGridBindingType&#45;&gt;QuestionGridParameterType -->
<g id="edge23" class="edge"><title>QuestionGridBindingType&#45;&gt;QuestionGridParameterType</title>
<path fill="none" stroke="black" d="M1095.75,-676.754C1163.14,-672.458 1246.19,-667.164 1316.87,-662.659"/>
<text text-anchor="middle" x="1251.45" y="-671.533" font-family="Times New Roman,serif" font-size="8.00">SourceParameterReference</text>
<text text-anchor="middle" x="1308.87" y="-656.259" font-family="Times New Roman,serif" font-size="8.00">0...*</text>
<text text-anchor="middle" x="1103.75" y="-670.354" font-family="Times New Roman,serif" font-size="8.00">0...*</text>
</g>
<!-- QuestionGridBindingType&#45;&gt;QuestionGridParameterType -->
<g id="edge24" class="edge"><title>QuestionGridBindingType&#45;&gt;QuestionGridParameterType</title>
<path fill="none" stroke="black" d="M1095.71,-671.165C1125.42,-667.4 1156.85,-662.952 1185.95,-657.933 1194.03,-656.54 1195.81,-654.842 1203.95,-653.933 1240.37,-649.866 1279.77,-648.228 1316.79,-647.903"/>
<text text-anchor="middle" x="1251.45" y="-656.533" font-family="Times New Roman,serif" font-size="8.00">TargetParameterReference</text>
<text text-anchor="middle" x="1308.79" y="-641.503" font-family="Times New Roman,serif" font-size="8.00">0...*</text>
<text text-anchor="middle" x="1103.71" y="-664.765" font-family="Times New Roman,serif" font-size="8.00">0...*</text>
</g>
<!-- OtherMaterial -->
<g id="ItemTypeOtherMaterial0" class="node"><title></title><ellipse fill="#f7b733" stroke="black" cx="1470.45" cy="-191.933" rx="37.3742" ry="18" style="filter: url(#dropshadow)"/>
<text text-anchor="middle" x="1470.45" y="-190.033" font-family="Times New Roman,serif" font-size="8.00">OtherMaterial</text>
</g>
<!-- QuestionGridExternalAidType&#45;&gt;OtherMaterial -->
<g id="edge25" class="edge"><title>QuestionGridExternalAidType&#45;&gt;OtherMaterial</title>
<path fill="none" stroke="black" d="M1095.47,-370.669C1126.26,-366.354 1158.23,-358.544 1185.95,-344.933 1186.09,-344.862 1316.81,-214.005 1316.95,-213.933 1353.54,-195.604 1400.87,-191.326 1433.03,-190.85"/>
<text text-anchor="middle" x="1251.45" y="-328.533" font-family="Times New Roman,serif" font-size="8.00">OtherMaterialReference</text>
<text text-anchor="middle" x="1425.03" y="-184.45" font-family="Times New Roman,serif" font-size="8.00">0...*</text>
<text text-anchor="middle" x="1103.47" y="-364.269" font-family="Times New Roman,serif" font-size="8.00">0...*</text>
</g>
<!-- QuestionGridExternalInterviewerInstructionType&#45;&gt;OtherMaterial -->
<g id="edge26" class="edge"><title>QuestionGridExternalInterviewerInstructionType&#45;&gt;OtherMaterial</title>
<path fill="none" stroke="black" d="M1138.1,-226.915C1244.41,-215.692 1372.21,-202.199 1433.38,-195.741"/>
<text text-anchor="middle" x="1251.45" y="-221.533" font-family="Times New Roman,serif" font-size="8.00">OtherMaterialReference</text>
<text text-anchor="middle" x="1425.38" y="-198.341" font-family="Times New Roman,serif" font-size="8.00">0...*</text>
<text text-anchor="middle" x="1130.1" y="-220.515" font-family="Times New Roman,serif" font-size="8.00">0...*</text>
</g>
<!-- QuestionBlock -->
<g id="ItemTypeQuestionBlock1" class="node"><title></title><ellipse fill="#f7b733" stroke="black" cx="41.9749" cy="-537.933" rx="38.6432" ry="18" style="filter: url(#dropshadow)"/>
<text text-anchor="middle" x="41.9749" y="-536.033" font-family="Times New Roman,serif" font-size="8.00">QuestionBlock</text>
</g>
<!-- QuestionBlock&#45;&gt;QuestionGridProperties -->
<g id="edge27" class="edge"><title>QuestionBlock&#45;&gt;QuestionGridProperties</title>
<path fill="none" stroke="black" d="M78.6972,-532.357C106.85,-527.963 148.541,-521.456 192.291,-514.627"/>
<text text-anchor="middle" x="141.95" y="-529.533" font-family="Times New Roman,serif" font-size="8.00">QuestionGridReference</text>
<text text-anchor="middle" x="184.291" y="-508.227" font-family="Times New Roman,serif" font-size="8.00">0...*</text>
<text text-anchor="middle" x="86.6972" y="-525.957" font-family="Times New Roman,serif" font-size="8.00">0...*</text>
</g>
<!-- QuestionGroup -->
<g id="ItemTypeQuestionGroup2" class="node"><title></title><ellipse fill="#f7b733" stroke="black" cx="41.9749" cy="-483.933" rx="38.6432" ry="18" style="filter: url(#dropshadow)"/>
<text text-anchor="middle" x="41.9749" y="-482.033" font-family="Times New Roman,serif" font-size="8.00">QuestionGroup</text>
</g>
<!-- QuestionGroup&#45;&gt;QuestionGridProperties -->
<g id="edge28" class="edge"><title>QuestionGroup&#45;&gt;QuestionGridProperties</title>
<path fill="none" stroke="black" d="M80.6589,-483.933C108.745,-483.933 149.484,-483.933 192.192,-483.933"/>
<text text-anchor="middle" x="141.95" y="-486.533" font-family="Times New Roman,serif" font-size="8.00">QuestionGridReference</text>
<text text-anchor="middle" x="184.192" y="-477.533" font-family="Times New Roman,serif" font-size="8.00">0...*</text>
<text text-anchor="middle" x="88.6589" y="-477.533" font-family="Times New Roman,serif" font-size="8.00">0...*</text>
</g>
<!-- QuestionScheme -->
<g id="ItemTypeQuestionScheme3" class="node"><title></title><ellipse fill="#f7b733" stroke="black" cx="41.9749" cy="-429.933" rx="41.9498" ry="18" style="filter: url(#dropshadow)"/>
<text text-anchor="middle" x="41.9749" y="-428.033" font-family="Times New Roman,serif" font-size="8.00">QuestionScheme</text>
</g>
<!-- QuestionScheme&#45;&gt;QuestionGridProperties -->
<g id="edge29" class="edge"><title>QuestionScheme&#45;&gt;QuestionGridProperties</title>
<path fill="none" stroke="black" d="M81.6555,-435.97C109.742,-440.354 150.095,-446.652 192.363,-453.249"/>
<text text-anchor="middle" x="141.95" y="-453.533" font-family="Times New Roman,serif" font-size="8.00">QuestionGridReference</text>
<text text-anchor="middle" x="184.363" y="-446.849" font-family="Times New Roman,serif" font-size="8.00">0...*</text>
<text text-anchor="middle" x="89.6555" y="-429.57" font-family="Times New Roman,serif" font-size="8.00">0...*</text>
</g>
</g>
</svg>
