<?xml version="1.0" encoding="UTF-8" standalone="no"?>
<!DOCTYPE svg PUBLIC "-//W3C//DTD SVG 1.1//EN"
 "http://www.w3.org/Graphics/SVG/1.1/DTD/svg11.dtd">
<!-- Generated by graphviz version 2.38.0 (20140413.2041)
 -->
<!-- Title: G Pages: 1 -->
<svg width="1272pt" height="486pt"
 viewBox="0.00 0.00 1271.83 486.00" xmlns="http://www.w3.org/2000/svg" xmlns:xlink="http://www.w3.org/1999/xlink">
<filter id = "dropshadow" height = "130%" ><feGaussianBlur in= "SourceAlpha" stdDeviation = "3"/><!--stdDeviation is how much to blur--><feOffset dx = "2" dy = "2" result = "offsetblur"/><!--how much to offset--><feMerge><feMergeNode/><!--this contains the offset blurred image--><feMergeNode in= "SourceGraphic"/><!--this contains the element that the filter is applied to --></feMerge></filter>
<g id="graph0" class="graph" transform="scale(1 1) rotate(0) translate(4 482)">
<title>G</title>
<g id="clust1" class="cluster"><title>clusterRelation</title>
<polygon fill="#4abdac" stroke="black" points="191.832,-98 191.832,-470 1255.83,-470 1255.83,-98 191.832,-98" style="filter: url(#dropshadow)"/>
<text text-anchor="middle" x="723.832" y="-459.6" font-family="Times New Roman,serif" font-size="8.00">Relation</text>
</g>
<!-- RelationProperties -->
<g id="ItemTypeRelationProperties" class="node"><title></title><polygon fill="#f7b733" stroke="black" points="199.832,-244.5 199.832,-315.5 476.832,-315.5 476.832,-244.5 199.832,-244.5" style="filter: url(#dropshadow)"/>
<text text-anchor="middle" x="226.332" y="-278.1" font-family="Times New Roman,serif" font-size="8.00">Properties</text>
<polyline fill="none" stroke="black" points="252.832,-244.5 252.832,-315.5 "/>
<text text-anchor="start" x="260.832" y="-305.1" font-family="Times New Roman,serif" font-size="8.00">SourceObject : SourceObjectType[0...1] </text>
<text text-anchor="start" x="260.832" y="-296.1" font-family="Times New Roman,serif" font-size="8.00">TargetObject : TargetObjectType[0...1] </text>
<text text-anchor="start" x="260.832" y="-287.1" font-family="Times New Roman,serif" font-size="8.00">Description : StructuredStringType[0...1] </text>
<text text-anchor="start" x="260.832" y="-278.1" font-family="Times New Roman,serif" font-size="8.00">Keyword : InternationalCodeValueType[0...n] </text>
<text text-anchor="start" x="260.832" y="-269.1" font-family="Times New Roman,serif" font-size="8.00">EffectivePeriod : DateType[0...n] </text>
<text text-anchor="start" x="260.832" y="-260.1" font-family="Times New Roman,serif" font-size="8.00">AdditionalInformation : AdditionalInformationType[0...n] </text>
<text text-anchor="start" x="260.832" y="-251.1" font-family="Times New Roman,serif" font-size="8.00">Privacy : string[0...1] </text>
</g>
<!-- RelationSourceObjectType -->
<g id="ReusableTypeRelationSourceObjectType" class="node"><title></title><polygon fill="#fc4a1a" stroke="black" points="618.332,-162 618.332,-198 870.332,-198 870.332,-162 618.332,-162" style="filter: url(#dropshadow)"/>
<text text-anchor="middle" x="658.332" y="-178.1" font-family="Times New Roman,serif" font-size="8.00">SourceObjectType</text>
<polyline fill="none" stroke="black" points="698.332,-162 698.332,-198 "/>
<text text-anchor="start" x="706.332" y="-187.1" font-family="Times New Roman,serif" font-size="8.00">OrganizationReference : Organization[0...1] </text>
<text text-anchor="start" x="706.332" y="-178.1" font-family="Times New Roman,serif" font-size="8.00">IndividualReference : Individual[0...1] </text>
<text text-anchor="start" x="706.332" y="-169.1" font-family="Times New Roman,serif" font-size="8.00">RelationshipCode : string[0...1] </text>
</g>
<!-- RelationProperties&#45;&gt;RelationSourceObjectType -->
<g id="edge1" class="edge"><title>RelationProperties&#45;&gt;RelationSourceObjectType</title>
<path fill="none" stroke="black" d="M452.733,-244.464C496,-231.633 545.946,-217.691 591.832,-207 605.492,-203.817 619.922,-200.805 634.23,-198.026"/>
<text text-anchor="middle" x="534.332" y="-233.6" font-family="Times New Roman,serif" font-size="8.00">SourceObject</text>
</g>
<!-- RelationTargetObjectType -->
<g id="ReusableTypeRelationTargetObjectType" class="node"><title></title><polygon fill="#fc4a1a" stroke="black" points="617.832,-107 617.832,-143 870.832,-143 870.832,-107 617.832,-107" style="filter: url(#dropshadow)"/>
<text text-anchor="middle" x="658.332" y="-123.1" font-family="Times New Roman,serif" font-size="8.00">TargetObjectType</text>
<polyline fill="none" stroke="black" points="698.832,-107 698.832,-143 "/>
<text text-anchor="start" x="706.832" y="-132.1" font-family="Times New Roman,serif" font-size="8.00">OrganizationReference : Organization[0...1] </text>
<text text-anchor="start" x="706.832" y="-123.1" font-family="Times New Roman,serif" font-size="8.00">IndividualReference : Individual[0...1] </text>
<text text-anchor="start" x="706.832" y="-114.1" font-family="Times New Roman,serif" font-size="8.00">Role : RoleType[0...n] </text>
</g>
<!-- RelationProperties&#45;&gt;RelationTargetObjectType -->
<g id="edge2" class="edge"><title>RelationProperties&#45;&gt;RelationTargetObjectType</title>
<path fill="none" stroke="black" d="M396.79,-244.333C446.576,-215.056 521.477,-174.831 591.832,-152 602.124,-148.66 612.951,-145.701 623.887,-143.087"/>
<text text-anchor="middle" x="534.332" y="-193.6" font-family="Times New Roman,serif" font-size="8.00">TargetObject</text>
</g>
<!-- RelationStructuredStringType -->
<g id="ReusableTypeRelationStructuredStringType" class="node"><title></title><polygon fill="#fc4a1a" stroke="black" points="637.832,-217 637.832,-253 850.832,-253 850.832,-217 637.832,-217" style="filter: url(#dropshadow)"/>
<text text-anchor="middle" x="682.832" y="-233.1" font-family="Times New Roman,serif" font-size="8.00">StructuredStringType</text>
<polyline fill="none" stroke="black" points="727.832,-217 727.832,-253 "/>
<text text-anchor="start" x="735.832" y="-233.1" font-family="Times New Roman,serif" font-size="8.00">Content : ContentType[0...n] </text>
</g>
<!-- RelationProperties&#45;&gt;RelationStructuredStringType -->
<g id="edge3" class="edge"><title>RelationProperties&#45;&gt;RelationStructuredStringType</title>
<path fill="none" stroke="black" d="M476.954,-264.671C529.548,-258.813 588.644,-252.23 637.787,-246.756"/>
<text text-anchor="middle" x="534.332" y="-263.6" font-family="Times New Roman,serif" font-size="8.00">Description</text>
</g>
<!-- RelationInternationalCodeValueType -->
<g id="ReusableTypeRelationInternationalCodeValueType" class="node"><title></title><polygon fill="#fc4a1a" stroke="black" points="591.832,-272.5 591.832,-343.5 896.832,-343.5 896.832,-272.5 591.832,-272.5" style="filter: url(#dropshadow)"/>
<text text-anchor="middle" x="650.332" y="-306.1" font-family="Times New Roman,serif" font-size="8.00">InternationalCodeValueType</text>
<polyline fill="none" stroke="black" points="708.832,-272.5 708.832,-343.5 "/>
<text text-anchor="start" x="716.832" y="-333.1" font-family="Times New Roman,serif" font-size="8.00">ControlledVocabularyID : string[0...1] </text>
<text text-anchor="start" x="716.832" y="-324.1" font-family="Times New Roman,serif" font-size="8.00">ControlledVocabularyName : string[0...1] </text>
<text text-anchor="start" x="716.832" y="-315.1" font-family="Times New Roman,serif" font-size="8.00">ControlledVocabularyAgencyName : string[0...1] </text>
<text text-anchor="start" x="716.832" y="-306.1" font-family="Times New Roman,serif" font-size="8.00">ControlledVocabularyVersionID : string[0...1] </text>
<text text-anchor="start" x="716.832" y="-297.1" font-family="Times New Roman,serif" font-size="8.00">OtherValue : string[0...1] </text>
<text text-anchor="start" x="716.832" y="-288.1" font-family="Times New Roman,serif" font-size="8.00">ControlledVocabularyURN : string[0...1] </text>
<text text-anchor="start" x="716.832" y="-279.1" font-family="Times New Roman,serif" font-size="8.00">ControlledVocabularySchemeURN : string[0...1] </text>
</g>
<!-- RelationProperties&#45;&gt;RelationInternationalCodeValueType -->
<g id="edge4" class="edge"><title>RelationProperties&#45;&gt;RelationInternationalCodeValueType</title>
<path fill="none" stroke="black" d="M476.954,-289.538C513.884,-292.098 554.02,-294.879 591.665,-297.488"/>
<text text-anchor="middle" x="534.332" y="-297.6" font-family="Times New Roman,serif" font-size="8.00">Keyword</text>
</g>
<!-- RelationDateType -->
<g id="ReusableTypeRelationDateType" class="node"><title></title><polygon fill="#fc4a1a" stroke="black" points="1012.83,-356.5 1012.83,-427.5 1247.83,-427.5 1247.83,-356.5 1012.83,-356.5" style="filter: url(#dropshadow)"/>
<text text-anchor="middle" x="1038.83" y="-390.1" font-family="Times New Roman,serif" font-size="8.00">DateType</text>
<polyline fill="none" stroke="black" points="1064.83,-356.5 1064.83,-427.5 "/>
<text text-anchor="start" x="1072.83" y="-417.1" font-family="Times New Roman,serif" font-size="8.00">SimpleDate : cogsDate[0...1] </text>
<text text-anchor="start" x="1072.83" y="-408.1" font-family="Times New Roman,serif" font-size="8.00">HistoricalDate : HistoricalDateType[0...1] </text>
<text text-anchor="start" x="1072.83" y="-399.1" font-family="Times New Roman,serif" font-size="8.00">StartDate : cogsDate[0...1] </text>
<text text-anchor="start" x="1072.83" y="-390.1" font-family="Times New Roman,serif" font-size="8.00">HistoricalStartDate : HistoricalDateType[0...1] </text>
<text text-anchor="start" x="1072.83" y="-381.1" font-family="Times New Roman,serif" font-size="8.00">EndDate : cogsDate[0...1] </text>
<text text-anchor="start" x="1072.83" y="-372.1" font-family="Times New Roman,serif" font-size="8.00">HistoricalEndDate : HistoricalDateType[0...1] </text>
<text text-anchor="start" x="1072.83" y="-363.1" font-family="Times New Roman,serif" font-size="8.00">Cycle : int[0...1] </text>
</g>
<!-- RelationProperties&#45;&gt;RelationDateType -->
<g id="edge5" class="edge"><title>RelationProperties&#45;&gt;RelationDateType</title>
<path fill="none" stroke="black" d="M443.823,-315.528C488.853,-329.445 542.421,-344.165 591.832,-353 735.279,-378.649 903.135,-387.524 1012.6,-390.542"/>
<text text-anchor="middle" x="744.332" y="-387.6" font-family="Times New Roman,serif" font-size="8.00">EffectivePeriod</text>
</g>
<!-- RelationAdditionalInformationType -->
<g id="ReusableTypeRelationAdditionalInformationType" class="node"><title></title><polygon fill="#fc4a1a" stroke="black" points="618.832,-408 618.832,-444 869.832,-444 869.832,-408 618.832,-408" style="filter: url(#dropshadow)"/>
<text text-anchor="middle" x="675.832" y="-424.1" font-family="Times New Roman,serif" font-size="8.00">AdditionalInformationType</text>
<polyline fill="none" stroke="black" points="732.832,-408 732.832,-444 "/>
<text text-anchor="start" x="740.832" y="-428.6" font-family="Times New Roman,serif" font-size="8.00">EffectivePeriod : DateType[0...1] </text>
<text text-anchor="start" x="740.832" y="-419.6" font-family="Times New Roman,serif" font-size="8.00">Privacy : string[0...1] </text>
</g>
<!-- RelationProperties&#45;&gt;RelationAdditionalInformationType -->
<g id="edge6" class="edge"><title>RelationProperties&#45;&gt;RelationAdditionalInformationType</title>
<path fill="none" stroke="black" d="M381.044,-315.512C410.837,-338.954 452.913,-368.319 494.832,-385 533.631,-400.439 578.065,-410.065 618.529,-416.066"/>
<text text-anchor="middle" x="534.332" y="-408.6" font-family="Times New Roman,serif" font-size="8.00">AdditionalInformation</text>
</g>
<!-- Organization -->
<g id="ItemTypeOrganization" class="node"><title></title><ellipse fill="#f7b733" stroke="black" cx="1130.33" cy="-18" rx="35.3371" ry="18" style="filter: url(#dropshadow)"/>
<text text-anchor="middle" x="1130.33" y="-16.1" font-family="Times New Roman,serif" font-size="8.00">Organization</text>
</g>
<!-- RelationSourceObjectType&#45;&gt;Organization -->
<g id="edge7" class="edge"><title>RelationSourceObjectType&#45;&gt;Organization</title>
<path fill="none" stroke="black" d="M870.514,-166.804C879.899,-162.894 888.817,-158.03 896.832,-152 911.127,-141.246 901.076,-127.436 914.832,-116 943.281,-92.3497 967.662,-118.109 994.832,-93 1011.57,-77.5365 995.701,-60.0214 1012.83,-45 1035.39,-25.2206 1069.6,-19.1679 1095.12,-17.6476"/>
<text text-anchor="middle" x="954.832" y="-118.6" font-family="Times New Roman,serif" font-size="8.00">OrganizationReference</text>
<text text-anchor="middle" x="1087.12" y="-11.2476" font-family="Times New Roman,serif" font-size="8.00">0...*</text>
<text text-anchor="middle" x="878.514" y="-160.404" font-family="Times New Roman,serif" font-size="8.00">0...*</text>
</g>
<!-- Individual -->
<g id="ItemTypeIndividual" class="node"><title></title><ellipse fill="#f7b733" stroke="black" cx="1130.33" cy="-72" rx="28.2235" ry="18" style="filter: url(#dropshadow)"/>
<text text-anchor="middle" x="1130.33" y="-70.1" font-family="Times New Roman,serif" font-size="8.00">Individual</text>
</g>
<!-- RelationSourceObjectType&#45;&gt;Individual -->
<g id="edge8" class="edge"><title>RelationSourceObjectType&#45;&gt;Individual</title>
<path fill="none" stroke="black" d="M870.523,-176.058C913.542,-169.291 959.671,-155.403 994.832,-128 1008.32,-117.489 999.07,-104.146 1012.83,-94 1038.68,-74.9462 1076.28,-70.9448 1101.72,-70.7261"/>
<text text-anchor="middle" x="954.832" y="-169.6" font-family="Times New Roman,serif" font-size="8.00">IndividualReference</text>
<text text-anchor="middle" x="1093.72" y="-64.3261" font-family="Times New Roman,serif" font-size="8.00">0...*</text>
<text text-anchor="middle" x="878.523" y="-169.658" font-family="Times New Roman,serif" font-size="8.00">0...*</text>
</g>
<!-- RelationTargetObjectType&#45;&gt;Organization -->
<g id="edge9" class="edge"><title>RelationTargetObjectType&#45;&gt;Organization</title>
<path fill="none" stroke="black" d="M790.473,-106.882C824.316,-93.7592 871.981,-76.2456 914.832,-64 978.368,-45.8432 1054.31,-31.1685 1096.66,-23.5958"/>
<text text-anchor="middle" x="954.832" y="-66.6" font-family="Times New Roman,serif" font-size="8.00">OrganizationReference</text>
<text text-anchor="middle" x="1088.66" y="-26.1958" font-family="Times New Roman,serif" font-size="8.00">0...*</text>
<text text-anchor="middle" x="782.473" y="-100.482" font-family="Times New Roman,serif" font-size="8.00">0...*</text>
</g>
<!-- RelationTargetObjectType&#45;&gt;Individual -->
<g id="edge10" class="edge"><title>RelationTargetObjectType&#45;&gt;Individual</title>
<path fill="none" stroke="black" d="M807.985,-106.969C839.73,-98.5701 879.041,-89.2852 914.832,-84 981.432,-74.1653 1060.75,-72.2335 1101.74,-71.9494"/>
<text text-anchor="middle" x="954.832" y="-86.6" font-family="Times New Roman,serif" font-size="8.00">IndividualReference</text>
<text text-anchor="middle" x="1093.74" y="-74.5494" font-family="Times New Roman,serif" font-size="8.00">0...*</text>
<text text-anchor="middle" x="799.985" y="-100.569" font-family="Times New Roman,serif" font-size="8.00">0...*</text>
</g>
<!-- RelationAdditionalInformationType&#45;&gt;RelationDateType -->
<g id="edge11" class="edge"><title>RelationAdditionalInformationType&#45;&gt;RelationDateType</title>
<path fill="none" stroke="black" d="M870.006,-414.961C915.885,-410.899 967.637,-406.317 1012.77,-402.32"/>
<text text-anchor="middle" x="954.832" y="-412.6" font-family="Times New Roman,serif" font-size="8.00">EffectivePeriod</text>
<text text-anchor="middle" x="1004.77" y="-395.92" font-family="Times New Roman,serif" font-size="8.00">0...*</text>
<text text-anchor="middle" x="878.006" y="-408.561" font-family="Times New Roman,serif" font-size="8.00">0...*</text>
</g>
<!-- OrganizationGroup -->
<g id="ItemTypeOrganizationGroup0" class="node"><title></title><ellipse fill="#f7b733" stroke="black" cx="49.9161" cy="-307" rx="47.16" ry="18" style="filter: url(#dropshadow)"/>
<text text-anchor="middle" x="49.9161" y="-305.1" font-family="Times New Roman,serif" font-size="8.00">OrganizationGroup</text>
</g>
<!-- OrganizationGroup&#45;&gt;RelationProperties -->
<g id="edge12" class="edge"><title>OrganizationGroup&#45;&gt;RelationProperties</title>
<path fill="none" stroke="black" d="M95.9837,-302.752C122.31,-300.27 157.162,-296.984 192.171,-293.684"/>
<text text-anchor="middle" x="149.832" y="-302.6" font-family="Times New Roman,serif" font-size="8.00">RelationReference</text>
<text text-anchor="middle" x="184.171" y="-287.284" font-family="Times New Roman,serif" font-size="8.00">0...*</text>
<text text-anchor="middle" x="103.984" y="-296.352" font-family="Times New Roman,serif" font-size="8.00">0...*</text>
</g>
<!-- OrganizationScheme -->
<g id="ItemTypeOrganizationScheme1" class="node"><title></title><ellipse fill="#f7b733" stroke="black" cx="49.9161" cy="-253" rx="49.8323" ry="18" style="filter: url(#dropshadow)"/>
<text text-anchor="middle" x="49.9161" y="-251.1" font-family="Times New Roman,serif" font-size="8.00">OrganizationScheme</text>
</g>
<!-- OrganizationScheme&#45;&gt;RelationProperties -->
<g id="edge13" class="edge"><title>OrganizationScheme&#45;&gt;RelationProperties</title>
<path fill="none" stroke="black" d="M98.5334,-257.489C124.487,-259.935 158.15,-263.109 191.973,-266.297"/>
<text text-anchor="middle" x="149.832" y="-266.6" font-family="Times New Roman,serif" font-size="8.00">RelationReference</text>
<text text-anchor="middle" x="183.973" y="-259.897" font-family="Times New Roman,serif" font-size="8.00">0...*</text>
<text text-anchor="middle" x="106.533" y="-260.089" font-family="Times New Roman,serif" font-size="8.00">0...*</text>
</g>
</g>
</svg>
