<?xml version="1.0" encoding="UTF-8" standalone="no"?>
<!DOCTYPE svg PUBLIC "-//W3C//DTD SVG 1.1//EN"
 "http://www.w3.org/Graphics/SVG/1.1/DTD/svg11.dtd">
<!-- Generated by graphviz version 2.38.0 (20140413.2041)
 -->
<!-- Title: G Pages: 1 -->
<svg width="1444pt" height="753pt"
 viewBox="0.00 0.00 1443.93 753.00" xmlns="http://www.w3.org/2000/svg" xmlns:xlink="http://www.w3.org/1999/xlink">
<filter id = "dropshadow" height = "130%" ><feGaussianBlur in= "SourceAlpha" stdDeviation = "3"/><!--stdDeviation is how much to blur--><feOffset dx = "2" dy = "2" result = "offsetblur"/><!--how much to offset--><feMerge><feMergeNode/><!--this contains the offset blurred image--><feMergeNode in= "SourceGraphic"/><!--this contains the element that the filter is applied to --></feMerge></filter>
<g id="graph0" class="graph" transform="scale(1 1) rotate(0) translate(4 749)">
<title>G</title>
<g id="clust1" class="cluster"><title>clusterRepresentationMap</title>
<polygon fill="#4abdac" stroke="black" points="197.933,-314 197.933,-737 1427.93,-737 1427.93,-314 197.933,-314" style="filter: url(#dropshadow)"/>
<text text-anchor="middle" x="812.933" y="-726.6" font-family="Times New Roman,serif" font-size="8.00">RepresentationMap</text>
</g>
<!-- RepresentationMapProperties -->
<g id="ItemTypeRepresentationMapProperties" class="node"><title></title><polygon fill="#f7b733" stroke="black" points="205.933,-463 205.933,-543 490.933,-543 490.933,-463 205.933,-463" style="filter: url(#dropshadow)"/>
<text text-anchor="middle" x="232.433" y="-501.1" font-family="Times New Roman,serif" font-size="8.00">Properties</text>
<polyline fill="none" stroke="black" points="258.933,-463 258.933,-543 "/>
<text text-anchor="start" x="266.933" y="-532.6" font-family="Times New Roman,serif" font-size="8.00">RepresentationMapName : NameType[0...n] </text>
<text text-anchor="start" x="266.933" y="-523.6" font-family="Times New Roman,serif" font-size="8.00">Label : LabelType[0...n] </text>
<text text-anchor="start" x="266.933" y="-514.6" font-family="Times New Roman,serif" font-size="8.00">Description : StructuredStringType[0...1] </text>
<text text-anchor="start" x="266.933" y="-505.6" font-family="Times New Roman,serif" font-size="8.00">SourceRepresentation : SourceRepresentationType[0...1] </text>
<text text-anchor="start" x="266.933" y="-496.6" font-family="Times New Roman,serif" font-size="8.00">TargetRepresentation : TargetRepresentationType[0...1] </text>
<text text-anchor="start" x="266.933" y="-487.6" font-family="Times New Roman,serif" font-size="8.00">Correspondence : CorrespondenceType[0...1] </text>
<text text-anchor="start" x="266.933" y="-478.6" font-family="Times New Roman,serif" font-size="8.00">ProcessingInstructionReference : ProcessingInstruction[0...1] </text>
<text text-anchor="start" x="266.933" y="-469.6" font-family="Times New Roman,serif" font-size="8.00">ContextSpecificComparison : boolean[0...1] </text>
</g>
<!-- RepresentationMapNameType -->
<g id="ReusableTypeRepresentationMapNameType" class="node"><title></title><polygon fill="#fc4a1a" stroke="black" points="760.433,-603 760.433,-639 929.433,-639 929.433,-603 760.433,-603" style="filter: url(#dropshadow)"/>
<text text-anchor="middle" x="788.433" y="-619.1" font-family="Times New Roman,serif" font-size="8.00">NameType</text>
<polyline fill="none" stroke="black" points="816.433,-603 816.433,-639 "/>
<text text-anchor="start" x="824.433" y="-623.6" font-family="Times New Roman,serif" font-size="8.00">IsPreferred : boolean[0...1] </text>
<text text-anchor="start" x="824.433" y="-614.6" font-family="Times New Roman,serif" font-size="8.00">Context : string[0...1] </text>
</g>
<!-- RepresentationMapProperties&#45;&gt;RepresentationMapNameType -->
<g id="edge1" class="edge"><title>RepresentationMapProperties&#45;&gt;RepresentationMapNameType</title>
<path fill="none" stroke="black" d="M461.919,-543.058C514.52,-560.534 578.349,-579.966 636.933,-593 677.111,-601.939 722.352,-608.455 760.269,-612.94"/>
<text text-anchor="middle" x="563.933" y="-589.6" font-family="Times New Roman,serif" font-size="8.00">RepresentationMapName</text>
</g>
<!-- RepresentationMapLabelType -->
<g id="ReusableTypeRepresentationMapLabelType" class="node"><title></title><polygon fill="#fc4a1a" stroke="black" points="739.433,-658.5 739.433,-711.5 950.433,-711.5 950.433,-658.5 739.433,-658.5" style="filter: url(#dropshadow)"/>
<text text-anchor="middle" x="766.433" y="-683.1" font-family="Times New Roman,serif" font-size="8.00">LabelType</text>
<polyline fill="none" stroke="black" points="793.433,-658.5 793.433,-711.5 "/>
<text text-anchor="start" x="801.433" y="-701.1" font-family="Times New Roman,serif" font-size="8.00">TypeOfLabel : CodeValueType[0...1] </text>
<text text-anchor="start" x="801.433" y="-692.1" font-family="Times New Roman,serif" font-size="8.00">LocationVariant : string[0...1] </text>
<text text-anchor="start" x="801.433" y="-683.1" font-family="Times New Roman,serif" font-size="8.00">ValidForStartDate : cogsDate[0...1] </text>
<text text-anchor="start" x="801.433" y="-674.1" font-family="Times New Roman,serif" font-size="8.00">ValidForEndDate : cogsDate[0...1] </text>
<text text-anchor="start" x="801.433" y="-665.1" font-family="Times New Roman,serif" font-size="8.00">MaxLength : nonNegativeInteger[0...1] </text>
</g>
<!-- RepresentationMapProperties&#45;&gt;RepresentationMapLabelType -->
<g id="edge2" class="edge"><title>RepresentationMapProperties&#45;&gt;RepresentationMapLabelType</title>
<path fill="none" stroke="black" d="M409.703,-543.207C438.956,-561.791 475.034,-583.373 508.933,-600 563.624,-626.824 578.207,-632.817 636.933,-649 669.813,-658.061 706.289,-665.305 739.347,-670.851"/>
<text text-anchor="middle" x="563.933" y="-645.6" font-family="Times New Roman,serif" font-size="8.00">Label</text>
</g>
<!-- RepresentationMapStructuredStringType -->
<g id="ReusableTypeRepresentationMapStructuredStringType" class="node"><title></title><polygon fill="#fc4a1a" stroke="black" points="1206.93,-509 1206.93,-545 1419.93,-545 1419.93,-509 1206.93,-509" style="filter: url(#dropshadow)"/>
<text text-anchor="middle" x="1251.93" y="-525.1" font-family="Times New Roman,serif" font-size="8.00">StructuredStringType</text>
<polyline fill="none" stroke="black" points="1296.93,-509 1296.93,-545 "/>
<text text-anchor="start" x="1304.93" y="-525.1" font-family="Times New Roman,serif" font-size="8.00">Content : ContentType[0...n] </text>
</g>
<!-- RepresentationMapProperties&#45;&gt;RepresentationMapStructuredStringType -->
<g id="edge3" class="edge"><title>RepresentationMapProperties&#45;&gt;RepresentationMapStructuredStringType</title>
<path fill="none" stroke="black" d="M490.962,-502.944C633.057,-503.328 858.232,-505.131 1052.93,-512 1103.56,-513.786 1159.68,-516.89 1206.74,-519.812"/>
<text text-anchor="middle" x="844.933" y="-514.6" font-family="Times New Roman,serif" font-size="8.00">Description</text>
</g>
<!-- RepresentationMapSourceRepresentationType -->
<g id="ReusableTypeRepresentationMapSourceRepresentationType" class="node"><title></title><polygon fill="#fc4a1a" stroke="black" points="665.933,-323 665.933,-385 1023.93,-385 1023.93,-323 665.933,-323" style="filter: url(#dropshadow)"/>
<text text-anchor="middle" x="720.933" y="-352.1" font-family="Times New Roman,serif" font-size="8.00">SourceRepresentationType</text>
<polyline fill="none" stroke="black" points="775.933,-323 775.933,-385 "/>
<text text-anchor="start" x="783.933" y="-374.6" font-family="Times New Roman,serif" font-size="8.00">ManagedRepresentationReference : ManagedRepresentation[0...1] </text>
<text text-anchor="start" x="783.933" y="-365.6" font-family="Times New Roman,serif" font-size="8.00">CategorySchemeReference : CategoryScheme[0...1] </text>
<text text-anchor="start" x="783.933" y="-356.6" font-family="Times New Roman,serif" font-size="8.00">CodeListReference : CodeList[0...1] </text>
<text text-anchor="start" x="783.933" y="-347.6" font-family="Times New Roman,serif" font-size="8.00">GeographicStructureReference : GeographicStructure[0...1] </text>
<text text-anchor="start" x="783.933" y="-338.6" font-family="Times New Roman,serif" font-size="8.00">GeographicLocationReference : GeographicLocation[0...1] </text>
<text text-anchor="start" x="783.933" y="-329.6" font-family="Times New Roman,serif" font-size="8.00">ConceptReference : Concept[0...1] </text>
</g>
<!-- RepresentationMapProperties&#45;&gt;RepresentationMapSourceRepresentationType -->
<g id="edge4" class="edge"><title>RepresentationMapProperties&#45;&gt;RepresentationMapSourceRepresentationType</title>
<path fill="none" stroke="black" d="M442.914,-462.893C498.487,-440.231 570.819,-412.771 636.933,-394 648.112,-390.826 659.703,-387.824 671.43,-385"/>
<text text-anchor="middle" x="563.933" y="-439.6" font-family="Times New Roman,serif" font-size="8.00">SourceRepresentation</text>
</g>
<!-- RepresentationMapTargetRepresentationType -->
<g id="ReusableTypeRepresentationMapTargetRepresentationType" class="node"><title></title><polygon fill="#fc4a1a" stroke="black" points="636.933,-404 636.933,-466 1052.93,-466 1052.93,-404 636.933,-404" style="filter: url(#dropshadow)"/>
<text text-anchor="middle" x="692.433" y="-433.1" font-family="Times New Roman,serif" font-size="8.00">TargetRepresentationType</text>
<polyline fill="none" stroke="black" points="747.933,-404 747.933,-466 "/>
<text text-anchor="start" x="755.933" y="-455.6" font-family="Times New Roman,serif" font-size="8.00">ManagedRepresentationReference : ManagedRepresentation[0...1] </text>
<text text-anchor="start" x="755.933" y="-446.6" font-family="Times New Roman,serif" font-size="8.00">CategorySchemeReference : CategoryScheme[0...1] </text>
<text text-anchor="start" x="755.933" y="-437.6" font-family="Times New Roman,serif" font-size="8.00">CodeListReference : CodeList[0...1] </text>
<text text-anchor="start" x="755.933" y="-428.6" font-family="Times New Roman,serif" font-size="8.00">CodeSubsetInformation : CodeSubsetInformationType[0...1] </text>
<text text-anchor="start" x="755.933" y="-419.6" font-family="Times New Roman,serif" font-size="8.00">IncludedGeographicStructureCodes : IncludedGeographicStructureCodesType[0...1] </text>
<text text-anchor="start" x="755.933" y="-410.6" font-family="Times New Roman,serif" font-size="8.00">IncludedGeographicLocationCodes : IncludedGeographicLocationCodesType[0...1] </text>
</g>
<!-- RepresentationMapProperties&#45;&gt;RepresentationMapTargetRepresentationType -->
<g id="edge5" class="edge"><title>RepresentationMapProperties&#45;&gt;RepresentationMapTargetRepresentationType</title>
<path fill="none" stroke="black" d="M491.137,-483.514C536.515,-477.274 587.733,-470.231 636.786,-463.485"/>
<text text-anchor="middle" x="563.933" y="-483.6" font-family="Times New Roman,serif" font-size="8.00">TargetRepresentation</text>
</g>
<!-- RepresentationMapCorrespondenceType -->
<g id="ReusableTypeRepresentationMapCorrespondenceType" class="node"><title></title><polygon fill="#fc4a1a" stroke="black" points="663.433,-530.5 663.433,-583.5 1026.43,-583.5 1026.43,-530.5 663.433,-530.5" style="filter: url(#dropshadow)"/>
<text text-anchor="middle" x="708.933" y="-555.1" font-family="Times New Roman,serif" font-size="8.00">CorrespondenceType</text>
<polyline fill="none" stroke="black" points="754.433,-530.5 754.433,-583.5 "/>
<text text-anchor="start" x="762.433" y="-573.1" font-family="Times New Roman,serif" font-size="8.00">Commonality : StructuredStringType[0...1] </text>
<text text-anchor="start" x="762.433" y="-564.1" font-family="Times New Roman,serif" font-size="8.00">Difference : StructuredStringType[0...1] </text>
<text text-anchor="start" x="762.433" y="-555.1" font-family="Times New Roman,serif" font-size="8.00">CommonalityTypeCoded : CodeValueType[0...1] </text>
<text text-anchor="start" x="762.433" y="-546.1" font-family="Times New Roman,serif" font-size="8.00">CommonalityWeight : float[0...1] </text>
<text text-anchor="start" x="762.433" y="-537.1" font-family="Times New Roman,serif" font-size="8.00">UserDefinedCorrespondenceProperty : StandardKeyValuePairType[0...n] </text>
</g>
<!-- RepresentationMapProperties&#45;&gt;RepresentationMapCorrespondenceType -->
<g id="edge6" class="edge"><title>RepresentationMapProperties&#45;&gt;RepresentationMapCorrespondenceType</title>
<path fill="none" stroke="black" d="M491.137,-518.474C544.792,-524.333 606.61,-531.084 663.363,-537.282"/>
<text text-anchor="middle" x="563.933" y="-533.6" font-family="Times New Roman,serif" font-size="8.00">Correspondence</text>
</g>
<!-- ProcessingInstruction -->
<g id="ItemTypeProcessingInstruction" class="node"><title></title><ellipse fill="#f7b733" stroke="black" cx="844.933" cy="-286" rx="52.3706" ry="18" style="filter: url(#dropshadow)"/>
<text text-anchor="middle" x="844.933" y="-284.1" font-family="Times New Roman,serif" font-size="8.00">ProcessingInstruction</text>
</g>
<!-- RepresentationMapProperties&#45;&gt;ProcessingInstruction -->
<g id="edge7" class="edge"><title>RepresentationMapProperties&#45;&gt;ProcessingInstruction</title>
<path fill="none" stroke="black" d="M393.224,-462.826C446.404,-416.761 540.956,-343.325 636.933,-310 687.856,-292.319 749.625,-287.089 792.364,-285.807"/>
<text text-anchor="middle" x="563.933" y="-376.6" font-family="Times New Roman,serif" font-size="8.00">ProcessingInstructionReference</text>
<text text-anchor="middle" x="784.364" y="-279.407" font-family="Times New Roman,serif" font-size="8.00">0...*</text>
<text text-anchor="middle" x="385.224" y="-456.426" font-family="Times New Roman,serif" font-size="8.00">0...*</text>
</g>
<!-- ManagedRepresentation -->
<g id="ItemTypeManagedRepresentation" class="node"><title></title><ellipse fill="#f7b733" stroke="black" cx="1313.43" cy="-180" rx="56.9465" ry="18" style="filter: url(#dropshadow)"/>
<text text-anchor="middle" x="1313.43" y="-178.1" font-family="Times New Roman,serif" font-size="8.00">ManagedRepresentation</text>
</g>
<!-- RepresentationMapSourceRepresentationType&#45;&gt;ManagedRepresentation -->
<g id="edge8" class="edge"><title>RepresentationMapSourceRepresentationType&#45;&gt;ManagedRepresentation</title>
<path fill="none" stroke="black" d="M1024.19,-334.481C1034.72,-328.691 1044.45,-321.616 1052.93,-313 1084.31,-281.13 1038.68,-244.984 1070.93,-214 1121.77,-165.158 1208.63,-165.466 1263.16,-171.652"/>
<text text-anchor="middle" x="1129.93" y="-216.6" font-family="Times New Roman,serif" font-size="8.00">ManagedRepresentationReference</text>
<text text-anchor="middle" x="1255.16" y="-165.252" font-family="Times New Roman,serif" font-size="8.00">0...*</text>
<text text-anchor="middle" x="1032.19" y="-328.081" font-family="Times New Roman,serif" font-size="8.00">0...*</text>
</g>
<!-- CategoryScheme -->
<g id="ItemTypeCategoryScheme0" class="node"><title></title><ellipse fill="#f7b733" stroke="black" cx="1313.43" cy="-234" rx="41.9498" ry="18" style="filter: url(#dropshadow)"/>
<text text-anchor="middle" x="1313.43" y="-232.1" font-family="Times New Roman,serif" font-size="8.00">CategoryScheme</text>
</g>
<!-- RepresentationMapSourceRepresentationType&#45;&gt;CategoryScheme -->
<g id="edge9" class="edge"><title>RepresentationMapSourceRepresentationType&#45;&gt;CategoryScheme</title>
<path fill="none" stroke="black" d="M1024.38,-331.546C1034.59,-326.411 1044.22,-320.287 1052.93,-313 1069.77,-298.913 1053.68,-280.578 1070.93,-267 1129.46,-220.937 1221.66,-222.613 1273.57,-228.159"/>
<text text-anchor="middle" x="1129.93" y="-269.6" font-family="Times New Roman,serif" font-size="8.00">CategorySchemeReference</text>
<text text-anchor="middle" x="1265.57" y="-221.759" font-family="Times New Roman,serif" font-size="8.00">0...*</text>
<text text-anchor="middle" x="1032.38" y="-334.146" font-family="Times New Roman,serif" font-size="8.00">0...*</text>
</g>
<!-- CodeList -->
<g id="ItemTypeCodeList1" class="node"><title></title><ellipse fill="#f7b733" stroke="black" cx="1313.43" cy="-288" rx="27" ry="18" style="filter: url(#dropshadow)"/>
<text text-anchor="middle" x="1313.43" y="-286.1" font-family="Times New Roman,serif" font-size="8.00">CodeList</text>
</g>
<!-- RepresentationMapSourceRepresentationType&#45;&gt;CodeList -->
<g id="edge10" class="edge"><title>RepresentationMapSourceRepresentationType&#45;&gt;CodeList</title>
<path fill="none" stroke="black" d="M1024.24,-333.686C1077.32,-327.089 1135.56,-319.308 1188.93,-311 1223.2,-305.666 1262.54,-298.086 1287.44,-293.107"/>
<text text-anchor="middle" x="1129.93" y="-330.6" font-family="Times New Roman,serif" font-size="8.00">CodeListReference</text>
<text text-anchor="middle" x="1279.44" y="-286.707" font-family="Times New Roman,serif" font-size="8.00">0...*</text>
<text text-anchor="middle" x="1032.24" y="-336.286" font-family="Times New Roman,serif" font-size="8.00">0...*</text>
</g>
<!-- GeographicStructure -->
<g id="ItemTypeGeographicStructure2" class="node"><title></title><ellipse fill="#f7b733" stroke="black" cx="1313.43" cy="-126" rx="48.5642" ry="18" style="filter: url(#dropshadow)"/>
<text text-anchor="middle" x="1313.43" y="-124.1" font-family="Times New Roman,serif" font-size="8.00">GeographicStructure</text>
</g>
<!-- RepresentationMapSourceRepresentationType&#45;&gt;GeographicStructure -->
<g id="edge11" class="edge"><title>RepresentationMapSourceRepresentationType&#45;&gt;GeographicStructure</title>
<path fill="none" stroke="black" d="M1024.36,-335.359C1034.92,-329.378 1044.61,-322.018 1052.93,-313 1099.97,-262.041 1022.29,-207.433 1070.93,-158 1122.55,-105.546 1215.57,-109.613 1269.86,-117.601"/>
<text text-anchor="middle" x="1129.93" y="-160.6" font-family="Times New Roman,serif" font-size="8.00">GeographicStructureReference</text>
<text text-anchor="middle" x="1261.86" y="-111.201" font-family="Times New Roman,serif" font-size="8.00">0...*</text>
<text text-anchor="middle" x="1016.36" y="-328.959" font-family="Times New Roman,serif" font-size="8.00">0...*</text>
</g>
<!-- GeographicLocation -->
<g id="ItemTypeGeographicLocation3" class="node"><title></title><ellipse fill="#f7b733" stroke="black" cx="1313.43" cy="-72" rx="49.1982" ry="18" style="filter: url(#dropshadow)"/>
<text text-anchor="middle" x="1313.43" y="-70.1" font-family="Times New Roman,serif" font-size="8.00">GeographicLocation</text>
</g>
<!-- RepresentationMapSourceRepresentationType&#45;&gt;GeographicLocation -->
<g id="edge12" class="edge"><title>RepresentationMapSourceRepresentationType&#45;&gt;GeographicLocation</title>
<path fill="none" stroke="black" d="M1024.21,-335.918C1034.88,-329.822 1044.63,-322.282 1052.93,-313 1084.46,-277.767 1038.09,-135.009 1070.93,-101 1122.27,-47.8437 1216.27,-53.8103 1270.62,-62.9077"/>
<text text-anchor="middle" x="1129.93" y="-103.6" font-family="Times New Roman,serif" font-size="8.00">GeographicLocationReference</text>
<text text-anchor="middle" x="1262.62" y="-56.5077" font-family="Times New Roman,serif" font-size="8.00">0...*</text>
<text text-anchor="middle" x="1016.21" y="-338.518" font-family="Times New Roman,serif" font-size="8.00">0...*</text>
</g>
<!-- Concept -->
<g id="ItemTypeConcept4" class="node"><title></title><ellipse fill="#f7b733" stroke="black" cx="1313.43" cy="-18" rx="27" ry="18" style="filter: url(#dropshadow)"/>
<text text-anchor="middle" x="1313.43" y="-16.1" font-family="Times New Roman,serif" font-size="8.00">Concept</text>
</g>
<!-- RepresentationMapSourceRepresentationType&#45;&gt;Concept -->
<g id="edge13" class="edge"><title>RepresentationMapSourceRepresentationType&#45;&gt;Concept</title>
<path fill="none" stroke="black" d="M1024.39,-336.083C1035.02,-329.948 1044.71,-322.355 1052.93,-313 1092.34,-268.171 1029.67,-88.131 1070.93,-45 1127.95,14.5975 1238.72,-1.08459 1287.9,-11.8254"/>
<text text-anchor="middle" x="1129.93" y="-47.6" font-family="Times New Roman,serif" font-size="8.00">ConceptReference</text>
<text text-anchor="middle" x="1279.9" y="-5.42543" font-family="Times New Roman,serif" font-size="8.00">0...*</text>
<text text-anchor="middle" x="1032.39" y="-338.683" font-family="Times New Roman,serif" font-size="8.00">0...*</text>
</g>
<!-- RepresentationMapTargetRepresentationType&#45;&gt;ManagedRepresentation -->
<g id="edge14" class="edge"><title>RepresentationMapTargetRepresentationType&#45;&gt;ManagedRepresentation</title>
<path fill="none" stroke="black" d="M1041.89,-403.783C1045.76,-400.767 1049.45,-397.512 1052.93,-394 1083.19,-363.488 1040.63,-329.466 1070.93,-299 1108.62,-261.119 1149.99,-312.579 1188.93,-276 1212.03,-254.303 1184.47,-229.358 1206.93,-207 1220.27,-193.729 1239.17,-186.695 1257.3,-183.055"/>
<text text-anchor="middle" x="1129.93" y="-301.6" font-family="Times New Roman,serif" font-size="8.00">ManagedRepresentationReference</text>
<text text-anchor="middle" x="1249.3" y="-176.655" font-family="Times New Roman,serif" font-size="8.00">0...*</text>
<text text-anchor="middle" x="1033.89" y="-397.383" font-family="Times New Roman,serif" font-size="8.00">0...*</text>
</g>
<!-- RepresentationMapTargetRepresentationType&#45;&gt;CategoryScheme -->
<g id="edge15" class="edge"><title>RepresentationMapTargetRepresentationType&#45;&gt;CategoryScheme</title>
<path fill="none" stroke="black" d="M1015.41,-403.975C1028.18,-400.864 1040.8,-397.536 1052.93,-394 1115.21,-375.85 1146.63,-390.186 1188.93,-341 1212.7,-313.368 1181.54,-287.144 1206.93,-261 1223.53,-243.911 1249.35,-237.103 1271.29,-234.596"/>
<text text-anchor="middle" x="1129.93" y="-391.6" font-family="Times New Roman,serif" font-size="8.00">CategorySchemeReference</text>
<text text-anchor="middle" x="1263.29" y="-237.196" font-family="Times New Roman,serif" font-size="8.00">0...*</text>
<text text-anchor="middle" x="1007.41" y="-397.575" font-family="Times New Roman,serif" font-size="8.00">0...*</text>
</g>
<!-- RepresentationMapTargetRepresentationType&#45;&gt;CodeList -->
<g id="edge16" class="edge"><title>RepresentationMapTargetRepresentationType&#45;&gt;CodeList</title>
<path fill="none" stroke="black" d="M1053.3,-457.345C1102.86,-452.37 1152.04,-437.411 1188.93,-404 1220.46,-375.448 1177.1,-340.323 1206.93,-310 1227.53,-289.06 1262.55,-285.529 1286.55,-285.931"/>
<text text-anchor="middle" x="1129.93" y="-457.6" font-family="Times New Roman,serif" font-size="8.00">CodeListReference</text>
<text text-anchor="middle" x="1278.55" y="-279.531" font-family="Times New Roman,serif" font-size="8.00">0...*</text>
<text text-anchor="middle" x="1061.3" y="-450.945" font-family="Times New Roman,serif" font-size="8.00">0...*</text>
</g>
<!-- RepresentationMapCorrespondenceType&#45;&gt;RepresentationMapStructuredStringType -->
<g id="edge17" class="edge"><title>RepresentationMapCorrespondenceType&#45;&gt;RepresentationMapStructuredStringType</title>
<path fill="none" stroke="black" d="M1026.66,-547.228C1079.03,-544.189 1136.27,-540.667 1188.93,-537 1194.73,-536.597 1200.67,-536.167 1206.67,-535.721"/>
<text text-anchor="middle" x="1129.93" y="-546.6" font-family="Times New Roman,serif" font-size="8.00">Commonality</text>
<text text-anchor="middle" x="1198.67" y="-529.321" font-family="Times New Roman,serif" font-size="8.00">0...*</text>
<text text-anchor="middle" x="1034.66" y="-540.828" font-family="Times New Roman,serif" font-size="8.00">0...*</text>
</g>
<!-- RepresentationMapCorrespondenceType&#45;&gt;RepresentationMapStructuredStringType -->
<g id="edge18" class="edge"><title>RepresentationMapCorrespondenceType&#45;&gt;RepresentationMapStructuredStringType</title>
<path fill="none" stroke="black" d="M1026.57,-531.727C1041.56,-530.237 1056.49,-528.957 1070.93,-528 1115.38,-525.055 1164.54,-524.382 1206.83,-524.603"/>
<text text-anchor="middle" x="1129.93" y="-530.6" font-family="Times New Roman,serif" font-size="8.00">Difference</text>
<text text-anchor="middle" x="1198.83" y="-518.203" font-family="Times New Roman,serif" font-size="8.00">0...*</text>
<text text-anchor="middle" x="1034.57" y="-525.327" font-family="Times New Roman,serif" font-size="8.00">0...*</text>
</g>
<!-- Comparison -->
<g id="ItemTypeComparison5" class="node"><title></title><ellipse fill="#f7b733" stroke="black" cx="33.4665" cy="-503" rx="33.433" ry="18" style="filter: url(#dropshadow)"/>
<text text-anchor="middle" x="33.4665" y="-501.1" font-family="Times New Roman,serif" font-size="8.00">Comparison</text>
</g>
<!-- Comparison&#45;&gt;RepresentationMapProperties -->
<g id="edge19" class="edge"><title>Comparison&#45;&gt;RepresentationMapProperties</title>
<path fill="none" stroke="black" d="M67.0737,-503C98.7085,-503 149.04,-503 198.384,-503"/>
<text text-anchor="middle" x="136.433" y="-505.6" font-family="Times New Roman,serif" font-size="8.00">RepresentationMapReference</text>
<text text-anchor="middle" x="190.384" y="-496.6" font-family="Times New Roman,serif" font-size="8.00">0...*</text>
<text text-anchor="middle" x="75.0737" y="-496.6" font-family="Times New Roman,serif" font-size="8.00">0...*</text>
</g>
</g>
</svg>
