<?xml version="1.0" encoding="UTF-8" standalone="no"?>
<!DOCTYPE svg PUBLIC "-//W3C//DTD SVG 1.1//EN"
 "http://www.w3.org/Graphics/SVG/1.1/DTD/svg11.dtd">
<!-- Generated by graphviz version 2.38.0 (20140413.2041)
 -->
<!-- Title: G Pages: 1 -->
<svg width="411pt" height="800pt"
 viewBox="0.00 0.00 411.30 800.00" xmlns="http://www.w3.org/2000/svg" xmlns:xlink="http://www.w3.org/1999/xlink">
<filter id = "dropshadow" height = "130%" ><feGaussianBlur in= "SourceAlpha" stdDeviation = "3"/><!--stdDeviation is how much to blur--><feOffset dx = "2" dy = "2" result = "offsetblur"/><!--how much to offset--><feMerge><feMergeNode/><!--this contains the offset blurred image--><feMergeNode in= "SourceGraphic"/><!--this contains the element that the filter is applied to --></feMerge></filter>
<g id="graph0" class="graph" transform="scale(1 1) rotate(0) translate(4 796)">
<title>G</title>
<!-- ResponseCardinalityType -->
<g id="ReusableTypeResponseCardinalityType" class="node"><title></title><polygon fill="#f7b733" stroke="black" points="278.303,-378 278.303,-414 403.303,-414 403.303,-378 278.303,-378" style="filter: url(#dropshadow)"/>
<text text-anchor="middle" x="331.303" y="-394.1" font-family="Times New Roman,serif" font-size="8.00">ResponseCardinalityType</text>
<polyline fill="none" stroke="black" points="384.303,-378 384.303,-414 "/>
<text text-anchor="middle" x="393.803" y="-394.1" font-family="Times New Roman,serif" font-size="8.00"> </text>
</g>
<!-- MeasurementItem -->
<g id="ItemTypeMeasurementItem" class="node"><title></title><ellipse fill="#f7b733" stroke="black" cx="85.6514" cy="-774" rx="45.2568" ry="18" style="filter: url(#dropshadow)"/>
<text text-anchor="middle" x="85.6514" y="-772.1" font-family="Times New Roman,serif" font-size="8.00">MeasurementItem</text>
</g>
<!-- MeasurementItem&#45;&gt;ResponseCardinalityType -->
<g id="edge1" class="edge"><title>MeasurementItem&#45;&gt;ResponseCardinalityType</title>
<path fill="none" stroke="black" d="M130.062,-769.757C169.856,-763.5 227.435,-748.055 260.303,-710 337.493,-620.628 341.539,-466.587 340.502,-414.115"/>
<text text-anchor="middle" x="224.803" y="-756.6" font-family="Times New Roman,serif" font-size="8.00">ResponseCardinality</text>
</g>
<!-- QuestionBlock -->
<g id="ItemTypeQuestionBlock" class="node"><title></title><ellipse fill="#f7b733" stroke="black" cx="85.6514" cy="-720" rx="38.6432" ry="18" style="filter: url(#dropshadow)"/>
<text text-anchor="middle" x="85.6514" y="-718.1" font-family="Times New Roman,serif" font-size="8.00">QuestionBlock</text>
</g>
<!-- QuestionBlock&#45;&gt;ResponseCardinalityType -->
<g id="edge2" class="edge"><title>QuestionBlock&#45;&gt;ResponseCardinalityType</title>
<path fill="none" stroke="black" d="M123.2,-715.413C162.81,-708.475 225.061,-691.504 260.303,-651 322.551,-579.458 336.079,-459.493 339.003,-414.122"/>
<text text-anchor="middle" x="224.803" y="-699.6" font-family="Times New Roman,serif" font-size="8.00">ResponseCardinality</text>
</g>
<!-- QuestionItem -->
<g id="ItemTypeQuestionItem" class="node"><title></title><ellipse fill="#f7b733" stroke="black" cx="85.6514" cy="-666" rx="36.1063" ry="18" style="filter: url(#dropshadow)"/>
<text text-anchor="middle" x="85.6514" y="-664.1" font-family="Times New Roman,serif" font-size="8.00">QuestionItem</text>
</g>
<!-- QuestionItem&#45;&gt;ResponseCardinalityType -->
<g id="edge3" class="edge"><title>QuestionItem&#45;&gt;ResponseCardinalityType</title>
<path fill="none" stroke="black" d="M120.293,-660.596C159.332,-652.589 223.091,-633.864 260.303,-593 309.222,-539.28 329.93,-451.579 336.876,-414.008"/>
<text text-anchor="middle" x="224.803" y="-640.6" font-family="Times New Roman,serif" font-size="8.00">ResponseCardinality</text>
</g>
<!-- CategoryDomainType -->
<g id="ReusableTypeCategoryDomainType" class="node"><title></title><ellipse fill="#f7b733" stroke="black" cx="85.6514" cy="-612" rx="53.7736" ry="18" style="filter: url(#dropshadow)"/>
<text text-anchor="middle" x="85.6514" y="-610.1" font-family="Times New Roman,serif" font-size="8.00">CategoryDomainType</text>
</g>
<!-- CategoryDomainType&#45;&gt;ResponseCardinalityType -->
<g id="edge4" class="edge"><title>CategoryDomainType&#45;&gt;ResponseCardinalityType</title>
<path fill="none" stroke="black" d="M130.593,-602.002C169.096,-591.238 224.37,-570.658 260.303,-535 296.612,-498.969 321.796,-442.925 333.091,-414.25"/>
<text text-anchor="middle" x="224.803" y="-582.6" font-family="Times New Roman,serif" font-size="8.00">ResponseCardinality</text>
</g>
<!-- CodeDomainType -->
<g id="ReusableTypeCodeDomainType" class="node"><title></title><ellipse fill="#f7b733" stroke="black" cx="85.6514" cy="-558" rx="45.2568" ry="18" style="filter: url(#dropshadow)"/>
<text text-anchor="middle" x="85.6514" y="-556.1" font-family="Times New Roman,serif" font-size="8.00">CodeDomainType</text>
</g>
<!-- CodeDomainType&#45;&gt;ResponseCardinalityType -->
<g id="edge5" class="edge"><title>CodeDomainType&#45;&gt;ResponseCardinalityType</title>
<path fill="none" stroke="black" d="M123.47,-547.959C138.54,-543.413 155.997,-537.58 171.303,-531 212.786,-513.166 224.741,-509.826 260.303,-482 286.244,-461.702 311.189,-432.654 326.011,-414.06"/>
<text text-anchor="middle" x="224.803" y="-524.6" font-family="Times New Roman,serif" font-size="8.00">ResponseCardinality</text>
</g>
<!-- DateTimeDomainType -->
<g id="ReusableTypeDateTimeDomainType" class="node"><title></title><ellipse fill="#f7b733" stroke="black" cx="85.6514" cy="-504" rx="55.6769" ry="18" style="filter: url(#dropshadow)"/>
<text text-anchor="middle" x="85.6514" y="-502.1" font-family="Times New Roman,serif" font-size="8.00">DateTimeDomainType</text>
</g>
<!-- DateTimeDomainType&#45;&gt;ResponseCardinalityType -->
<g id="edge6" class="edge"><title>DateTimeDomainType&#45;&gt;ResponseCardinalityType</title>
<path fill="none" stroke="black" d="M126.936,-491.922C141.056,-487.485 156.964,-482.256 171.303,-477 211.523,-462.256 221.725,-458.623 260.303,-440 276.64,-432.113 294.342,-422.433 308.886,-414.163"/>
<text text-anchor="middle" x="224.803" y="-471.6" font-family="Times New Roman,serif" font-size="8.00">ResponseCardinality</text>
</g>
<!-- DistributionDomainType -->
<g id="ReusableTypeDistributionDomainType" class="node"><title></title><ellipse fill="#f7b733" stroke="black" cx="85.6514" cy="-450" rx="58.9835" ry="18" style="filter: url(#dropshadow)"/>
<text text-anchor="middle" x="85.6514" y="-448.1" font-family="Times New Roman,serif" font-size="8.00">DistributionDomainType</text>
</g>
<!-- DistributionDomainType&#45;&gt;ResponseCardinalityType -->
<g id="edge7" class="edge"><title>DistributionDomainType&#45;&gt;ResponseCardinalityType</title>
<path fill="none" stroke="black" d="M134.565,-439.78C175.274,-431.096 233.969,-418.576 278.171,-409.147"/>
<text text-anchor="middle" x="224.803" y="-429.6" font-family="Times New Roman,serif" font-size="8.00">ResponseCardinality</text>
</g>
<!-- GeographicLocationCodeDomainType -->
<g id="ReusableTypeGeographicLocationCodeDomainType" class="node"><title></title><ellipse fill="#f7b733" stroke="black" cx="85.6514" cy="-396" rx="85.8032" ry="18" style="filter: url(#dropshadow)"/>
<text text-anchor="middle" x="85.6514" y="-394.1" font-family="Times New Roman,serif" font-size="8.00">GeographicLocationCodeDomainType</text>
</g>
<!-- GeographicLocationCodeDomainType&#45;&gt;ResponseCardinalityType -->
<g id="edge8" class="edge"><title>GeographicLocationCodeDomainType&#45;&gt;ResponseCardinalityType</title>
<path fill="none" stroke="black" d="M171.651,-396C206.556,-396 246.205,-396 278.233,-396"/>
<text text-anchor="middle" x="224.803" y="-398.6" font-family="Times New Roman,serif" font-size="8.00">ResponseCardinality</text>
</g>
<!-- GeographicStructureCodeDomainType -->
<g id="ReusableTypeGeographicStructureCodeDomainType0" class="node"><title></title><ellipse fill="#f7b733" stroke="black" cx="85.6514" cy="-342" rx="85.1685" ry="18" style="filter: url(#dropshadow)"/>
<text text-anchor="middle" x="85.6514" y="-340.1" font-family="Times New Roman,serif" font-size="8.00">GeographicStructureCodeDomainType</text>
</g>
<!-- GeographicStructureCodeDomainType&#45;&gt;ResponseCardinalityType -->
<g id="edge9" class="edge"><title>GeographicStructureCodeDomainType&#45;&gt;ResponseCardinalityType</title>
<path fill="none" stroke="black" d="M146.324,-354.729C185.938,-363.179 237.821,-374.246 277.887,-382.793"/>
<text text-anchor="middle" x="224.803" y="-380.6" font-family="Times New Roman,serif" font-size="8.00">ResponseCardinality</text>
</g>
<!-- LocationDomainType -->
<g id="ReusableTypeLocationDomainType1" class="node"><title></title><ellipse fill="#f7b733" stroke="black" cx="85.6514" cy="-288" rx="53.7736" ry="18" style="filter: url(#dropshadow)"/>
<text text-anchor="middle" x="85.6514" y="-286.1" font-family="Times New Roman,serif" font-size="8.00">LocationDomainType</text>
</g>
<!-- LocationDomainType&#45;&gt;ResponseCardinalityType -->
<g id="edge10" class="edge"><title>LocationDomainType&#45;&gt;ResponseCardinalityType</title>
<path fill="none" stroke="black" d="M126.481,-300.022C140.704,-304.494 156.794,-309.76 171.303,-315 211.435,-329.493 221.877,-332.451 260.303,-351 277.157,-359.136 295.364,-369.332 310.097,-377.961"/>
<text text-anchor="middle" x="224.803" y="-353.6" font-family="Times New Roman,serif" font-size="8.00">ResponseCardinality</text>
</g>
<!-- NominalDomainType -->
<g id="ReusableTypeNominalDomainType2" class="node"><title></title><ellipse fill="#f7b733" stroke="black" cx="85.6514" cy="-234" rx="52.5056" ry="18" style="filter: url(#dropshadow)"/>
<text text-anchor="middle" x="85.6514" y="-232.1" font-family="Times New Roman,serif" font-size="8.00">NominalDomainType</text>
</g>
<!-- NominalDomainType&#45;&gt;ResponseCardinalityType -->
<g id="edge11" class="edge"><title>NominalDomainType&#45;&gt;ResponseCardinalityType</title>
<path fill="none" stroke="black" d="M127.688,-244.905C165.004,-256.267 220.206,-276.817 260.303,-308 286.795,-328.602 311.781,-358.645 326.439,-377.754"/>
<text text-anchor="middle" x="224.803" y="-310.6" font-family="Times New Roman,serif" font-size="8.00">ResponseCardinality</text>
</g>
<!-- NumericDomainType -->
<g id="ReusableTypeNumericDomainType3" class="node"><title></title><ellipse fill="#f7b733" stroke="black" cx="85.6514" cy="-180" rx="52.3706" ry="18" style="filter: url(#dropshadow)"/>
<text text-anchor="middle" x="85.6514" y="-178.1" font-family="Times New Roman,serif" font-size="8.00">NumericDomainType</text>
</g>
<!-- NumericDomainType&#45;&gt;ResponseCardinalityType -->
<g id="edge12" class="edge"><title>NumericDomainType&#45;&gt;ResponseCardinalityType</title>
<path fill="none" stroke="black" d="M130.207,-189.627C168.718,-200.129 224.232,-220.401 260.303,-256 296.908,-292.126 321.963,-348.645 333.161,-377.579"/>
<text text-anchor="middle" x="224.803" y="-258.6" font-family="Times New Roman,serif" font-size="8.00">ResponseCardinality</text>
</g>
<!-- RankingDomainType -->
<g id="ReusableTypeRankingDomainType4" class="node"><title></title><ellipse fill="#f7b733" stroke="black" cx="85.6514" cy="-126" rx="52.3706" ry="18" style="filter: url(#dropshadow)"/>
<text text-anchor="middle" x="85.6514" y="-124.1" font-family="Times New Roman,serif" font-size="8.00">RankingDomainType</text>
</g>
<!-- RankingDomainType&#45;&gt;ResponseCardinalityType -->
<g id="edge13" class="edge"><title>RankingDomainType&#45;&gt;ResponseCardinalityType</title>
<path fill="none" stroke="black" d="M132.742,-133.893C171.84,-142.913 226.771,-161.441 260.303,-198 309.629,-251.778 330.117,-340.04 336.941,-377.866"/>
<text text-anchor="middle" x="224.803" y="-200.6" font-family="Times New Roman,serif" font-size="8.00">ResponseCardinality</text>
</g>
<!-- ScaleDomainType -->
<g id="ReusableTypeScaleDomainType5" class="node"><title></title><ellipse fill="#f7b733" stroke="black" cx="85.6514" cy="-72" rx="45.2568" ry="18" style="filter: url(#dropshadow)"/>
<text text-anchor="middle" x="85.6514" y="-70.1" font-family="Times New Roman,serif" font-size="8.00">ScaleDomainType</text>
</g>
<!-- ScaleDomainType&#45;&gt;ResponseCardinalityType -->
<g id="edge14" class="edge"><title>ScaleDomainType&#45;&gt;ResponseCardinalityType</title>
<path fill="none" stroke="black" d="M129.057,-77.4289C168.695,-84.762 226.675,-101.666 260.303,-140 323.064,-211.543 336.286,-332.145 339.065,-377.773"/>
<text text-anchor="middle" x="224.803" y="-142.6" font-family="Times New Roman,serif" font-size="8.00">ResponseCardinality</text>
</g>
<!-- TextDomainType -->
<g id="ReusableTypeTextDomainType6" class="node"><title></title><ellipse fill="#f7b733" stroke="black" cx="85.6514" cy="-18" rx="45.2568" ry="18" style="filter: url(#dropshadow)"/>
<text text-anchor="middle" x="85.6514" y="-16.1" font-family="Times New Roman,serif" font-size="8.00">TextDomainType</text>
</g>
<!-- TextDomainType&#45;&gt;ResponseCardinalityType -->
<g id="edge15" class="edge"><title>TextDomainType&#45;&gt;ResponseCardinalityType</title>
<path fill="none" stroke="black" d="M130.014,-22.005C169.773,-28.042 227.328,-43.1615 260.303,-81 338.12,-170.295 341.765,-325.058 340.562,-377.793"/>
<text text-anchor="middle" x="224.803" y="-83.6" font-family="Times New Roman,serif" font-size="8.00">ResponseCardinality</text>
</g>
</g>
</svg>
