<?xml version="1.0" encoding="UTF-8" standalone="no"?>
<!DOCTYPE svg PUBLIC "-//W3C//DTD SVG 1.1//EN"
 "http://www.w3.org/Graphics/SVG/1.1/DTD/svg11.dtd">
<!-- Generated by graphviz version 2.38.0 (20140413.2041)
 -->
<!-- Title: G Pages: 1 -->
<svg width="1327pt" height="606pt"
 viewBox="0.00 0.00 1326.73 606.00" xmlns="http://www.w3.org/2000/svg" xmlns:xlink="http://www.w3.org/1999/xlink">
<filter id = "dropshadow" height = "130%" ><feGaussianBlur in= "SourceAlpha" stdDeviation = "3"/><!--stdDeviation is how much to blur--><feOffset dx = "2" dy = "2" result = "offsetblur"/><!--how much to offset--><feMerge><feMergeNode/><!--this contains the offset blurred image--><feMergeNode in= "SourceGraphic"/><!--this contains the element that the filter is applied to --></feMerge></filter>
<g id="graph0" class="graph" transform="scale(1 1) rotate(0) translate(4 602)">
<title>G</title>
<g id="clust1" class="cluster"><title>clusterSampleFrame</title>
<polygon fill="#4abdac" stroke="black" points="292.731,-150 292.731,-590 1310.73,-590 1310.73,-150 292.731,-150" style="filter: url(#dropshadow)"/>
<text text-anchor="middle" x="801.731" y="-579.6" font-family="Times New Roman,serif" font-size="8.00">SampleFrame</text>
</g>
<!-- SampleFrameProperties -->
<g id="ItemTypeSampleFrameProperties" class="node"><title></title><polygon fill="#f7b733" stroke="black" points="300.731,-203.5 300.731,-328.5 549.731,-328.5 549.731,-203.5 300.731,-203.5" style="filter: url(#dropshadow)"/>
<text text-anchor="middle" x="327.231" y="-264.1" font-family="Times New Roman,serif" font-size="8.00">Properties</text>
<polyline fill="none" stroke="black" points="353.731,-203.5 353.731,-328.5 "/>
<text text-anchor="start" x="361.731" y="-318.1" font-family="Times New Roman,serif" font-size="8.00">SampleFrameName : NameType[0...n] </text>
<text text-anchor="start" x="361.731" y="-309.1" font-family="Times New Roman,serif" font-size="8.00">Label : LabelType[0...n] </text>
<text text-anchor="start" x="361.731" y="-300.1" font-family="Times New Roman,serif" font-size="8.00">Description : StructuredStringType[0...1] </text>
<text text-anchor="start" x="361.731" y="-291.1" font-family="Times New Roman,serif" font-size="8.00">ValidPeriod : DateType[0...1] </text>
<text text-anchor="start" x="361.731" y="-282.1" font-family="Times New Roman,serif" font-size="8.00">CustodianReference : Agent[0...1] </text>
<text text-anchor="start" x="361.731" y="-273.1" font-family="Times New Roman,serif" font-size="8.00">SampleFrameAccess : AccessType[0...1] </text>
<text text-anchor="start" x="361.731" y="-264.1" font-family="Times New Roman,serif" font-size="8.00">UniverseReference : Universe[0...n] </text>
<text text-anchor="start" x="361.731" y="-255.1" font-family="Times New Roman,serif" font-size="8.00">UnitsOfFrame : PopulationSizeType[0...1] </text>
<text text-anchor="start" x="361.731" y="-246.1" font-family="Times New Roman,serif" font-size="8.00">FrameLimitations : StructuredStringType[0...1] </text>
<text text-anchor="start" x="361.731" y="-237.1" font-family="Times New Roman,serif" font-size="8.00">AuxiliaryInformation : StructuredStringType[0...1] </text>
<text text-anchor="start" x="361.731" y="-228.1" font-family="Times New Roman,serif" font-size="8.00">ReferencePeriod : DateType[0...1] </text>
<text text-anchor="start" x="361.731" y="-219.1" font-family="Times New Roman,serif" font-size="8.00">UpdateProcedure : StructuredStringType[0...1] </text>
<text text-anchor="start" x="361.731" y="-210.1" font-family="Times New Roman,serif" font-size="8.00">SourceFrameReference : SampleFrame[0...n] </text>
</g>
<!-- SampleFrameProperties&#45;&gt;SampleFrameProperties -->
<g id="edge22" class="edge"><title>SampleFrameProperties&#45;&gt;SampleFrameProperties</title>
<path fill="none" stroke="black" d="M393.375,-328.83C397.728,-339.564 408.347,-347 425.231,-347 442.116,-347 452.735,-339.564 457.088,-328.83"/>
<text text-anchor="middle" x="425.231" y="-349.6" font-family="Times New Roman,serif" font-size="8.00">SourceFrameReference</text>
<text text-anchor="middle" x="449.088" y="-331.43" font-family="Times New Roman,serif" font-size="8.00">0...*</text>
<text text-anchor="middle" x="385.375" y="-331.43" font-family="Times New Roman,serif" font-size="8.00">0...*</text>
</g>
<!-- SampleFrameNameType -->
<g id="ReusableTypeSampleFrameNameType" class="node"><title></title><polygon fill="#fc4a1a" stroke="black" points="1111.73,-171 1111.73,-207 1280.73,-207 1280.73,-171 1111.73,-171" style="filter: url(#dropshadow)"/>
<text text-anchor="middle" x="1139.73" y="-187.1" font-family="Times New Roman,serif" font-size="8.00">NameType</text>
<polyline fill="none" stroke="black" points="1167.73,-171 1167.73,-207 "/>
<text text-anchor="start" x="1175.73" y="-191.6" font-family="Times New Roman,serif" font-size="8.00">IsPreferred : boolean[0...1] </text>
<text text-anchor="start" x="1175.73" y="-182.6" font-family="Times New Roman,serif" font-size="8.00">Context : string[0...1] </text>
</g>
<!-- SampleFrameProperties&#45;&gt;SampleFrameNameType -->
<g id="edge1" class="edge"><title>SampleFrameProperties&#45;&gt;SampleFrameNameType</title>
<path fill="none" stroke="black" d="M549.89,-215.448C586.262,-202.934 626.549,-191.307 664.731,-185 820.804,-159.22 1006.24,-169.832 1111.39,-179.609"/>
<text text-anchor="middle" x="805.231" y="-187.6" font-family="Times New Roman,serif" font-size="8.00">SampleFrameName</text>
</g>
<!-- SampleFrameLabelType -->
<g id="ReusableTypeSampleFrameLabelType" class="node"><title></title><polygon fill="#fc4a1a" stroke="black" points="1090.73,-459.5 1090.73,-512.5 1301.73,-512.5 1301.73,-459.5 1090.73,-459.5" style="filter: url(#dropshadow)"/>
<text text-anchor="middle" x="1117.73" y="-484.1" font-family="Times New Roman,serif" font-size="8.00">LabelType</text>
<polyline fill="none" stroke="black" points="1144.73,-459.5 1144.73,-512.5 "/>
<text text-anchor="start" x="1152.73" y="-502.1" font-family="Times New Roman,serif" font-size="8.00">TypeOfLabel : CodeValueType[0...1] </text>
<text text-anchor="start" x="1152.73" y="-493.1" font-family="Times New Roman,serif" font-size="8.00">LocationVariant : string[0...1] </text>
<text text-anchor="start" x="1152.73" y="-484.1" font-family="Times New Roman,serif" font-size="8.00">ValidForStartDate : cogsDate[0...1] </text>
<text text-anchor="start" x="1152.73" y="-475.1" font-family="Times New Roman,serif" font-size="8.00">ValidForEndDate : cogsDate[0...1] </text>
<text text-anchor="start" x="1152.73" y="-466.1" font-family="Times New Roman,serif" font-size="8.00">MaxLength : nonNegativeInteger[0...1] </text>
</g>
<!-- SampleFrameProperties&#45;&gt;SampleFrameLabelType -->
<g id="edge2" class="edge"><title>SampleFrameProperties&#45;&gt;SampleFrameLabelType</title>
<path fill="none" stroke="black" d="M474.039,-328.717C517.312,-379.548 586.174,-446.872 664.731,-473 806.461,-520.139 981.443,-512.785 1090.72,-501.054"/>
<text text-anchor="middle" x="805.231" y="-511.6" font-family="Times New Roman,serif" font-size="8.00">Label</text>
</g>
<!-- SampleFrameStructuredStringType -->
<g id="ReusableTypeSampleFrameStructuredStringType" class="node"><title></title><polygon fill="#fc4a1a" stroke="black" points="1089.73,-324 1089.73,-360 1302.73,-360 1302.73,-324 1089.73,-324" style="filter: url(#dropshadow)"/>
<text text-anchor="middle" x="1134.73" y="-340.1" font-family="Times New Roman,serif" font-size="8.00">StructuredStringType</text>
<polyline fill="none" stroke="black" points="1179.73,-324 1179.73,-360 "/>
<text text-anchor="start" x="1187.73" y="-340.1" font-family="Times New Roman,serif" font-size="8.00">Content : ContentType[0...n] </text>
</g>
<!-- SampleFrameProperties&#45;&gt;SampleFrameStructuredStringType -->
<g id="edge3" class="edge"><title>SampleFrameProperties&#45;&gt;SampleFrameStructuredStringType</title>
<path fill="none" stroke="black" d="M549.927,-307.591C586.562,-318.751 626.98,-329.942 664.731,-338 726.299,-351.142 897.426,-333.628 945.731,-374 966.116,-391.037 942.303,-415.296 963.731,-431 983.089,-445.187 1048.89,-438.372 1071.73,-431 1114.74,-417.118 1155.39,-382.071 1177.65,-360.328"/>
<text text-anchor="middle" x="805.231" y="-376.6" font-family="Times New Roman,serif" font-size="8.00">Description</text>
</g>
<!-- SampleFrameDateType -->
<g id="ReusableTypeSampleFrameDateType" class="node"><title></title><polygon fill="#fc4a1a" stroke="black" points="687.731,-392.5 687.731,-463.5 922.731,-463.5 922.731,-392.5 687.731,-392.5" style="filter: url(#dropshadow)"/>
<text text-anchor="middle" x="713.731" y="-426.1" font-family="Times New Roman,serif" font-size="8.00">DateType</text>
<polyline fill="none" stroke="black" points="739.731,-392.5 739.731,-463.5 "/>
<text text-anchor="start" x="747.731" y="-453.1" font-family="Times New Roman,serif" font-size="8.00">SimpleDate : cogsDate[0...1] </text>
<text text-anchor="start" x="747.731" y="-444.1" font-family="Times New Roman,serif" font-size="8.00">HistoricalDate : HistoricalDateType[0...1] </text>
<text text-anchor="start" x="747.731" y="-435.1" font-family="Times New Roman,serif" font-size="8.00">StartDate : cogsDate[0...1] </text>
<text text-anchor="start" x="747.731" y="-426.1" font-family="Times New Roman,serif" font-size="8.00">HistoricalStartDate : HistoricalDateType[0...1] </text>
<text text-anchor="start" x="747.731" y="-417.1" font-family="Times New Roman,serif" font-size="8.00">EndDate : cogsDate[0...1] </text>
<text text-anchor="start" x="747.731" y="-408.1" font-family="Times New Roman,serif" font-size="8.00">HistoricalEndDate : HistoricalDateType[0...1] </text>
<text text-anchor="start" x="747.731" y="-399.1" font-family="Times New Roman,serif" font-size="8.00">Cycle : int[0...1] </text>
</g>
<!-- SampleFrameProperties&#45;&gt;SampleFrameDateType -->
<g id="edge4" class="edge"><title>SampleFrameProperties&#45;&gt;SampleFrameDateType</title>
<path fill="none" stroke="black" d="M499.866,-328.532C520.767,-343.878 544.254,-359.029 567.731,-370 605.074,-387.451 648.277,-400.022 687.46,-408.899"/>
<text text-anchor="middle" x="607.231" y="-400.6" font-family="Times New Roman,serif" font-size="8.00">ValidPeriod</text>
</g>
<!-- Agent -->
<g id="ItemTypeAgent" class="node"><title></title><ellipse fill="#f7b733" stroke="black" cx="1196.23" cy="-124" rx="27" ry="18" style="filter: url(#dropshadow)"/>
<text text-anchor="middle" x="1196.23" y="-122.1" font-family="Times New Roman,serif" font-size="8.00">Agent</text>
</g>
<!-- SampleFrameProperties&#45;&gt;Agent -->
<g id="edge5" class="edge"><title>SampleFrameProperties&#45;&gt;Agent</title>
<path fill="none" stroke="black" d="M529.161,-203.491C541.933,-196.81 554.985,-190.468 567.731,-185 784.505,-92.0158 1080.98,-112.353 1169.36,-121.115"/>
<text text-anchor="middle" x="805.231" y="-154.6" font-family="Times New Roman,serif" font-size="8.00">CustodianReference</text>
<text text-anchor="middle" x="1161.36" y="-114.715" font-family="Times New Roman,serif" font-size="8.00">0...*</text>
<text text-anchor="middle" x="521.161" y="-197.091" font-family="Times New Roman,serif" font-size="8.00">0...*</text>
</g>
<!-- SampleFrameAccessType -->
<g id="ReusableTypeSampleFrameAccessType" class="node"><title></title><polygon fill="#fc4a1a" stroke="black" points="664.731,-203.5 664.731,-328.5 945.731,-328.5 945.731,-203.5 664.731,-203.5" style="filter: url(#dropshadow)"/>
<text text-anchor="middle" x="694.231" y="-264.1" font-family="Times New Roman,serif" font-size="8.00">AccessType</text>
<polyline fill="none" stroke="black" points="723.731,-203.5 723.731,-328.5 "/>
<text text-anchor="start" x="731.731" y="-318.1" font-family="Times New Roman,serif" font-size="8.00">TypeOfAccess : CodeValueType[0...1] </text>
<text text-anchor="start" x="731.731" y="-309.1" font-family="Times New Roman,serif" font-size="8.00">AccessTypeName : NameType[0...n] </text>
<text text-anchor="start" x="731.731" y="-300.1" font-family="Times New Roman,serif" font-size="8.00">Label : LabelType[0...n] </text>
<text text-anchor="start" x="731.731" y="-291.1" font-family="Times New Roman,serif" font-size="8.00">Description : StructuredStringType[0...1] </text>
<text text-anchor="start" x="731.731" y="-282.1" font-family="Times New Roman,serif" font-size="8.00">ConfidentialityStatement : StructuredStringType[0...1] </text>
<text text-anchor="start" x="731.731" y="-273.1" font-family="Times New Roman,serif" font-size="8.00">AccessPermission : FormType[0...n] </text>
<text text-anchor="start" x="731.731" y="-264.1" font-family="Times New Roman,serif" font-size="8.00">Restrictions : StructuredStringType[0...1] </text>
<text text-anchor="start" x="731.731" y="-255.1" font-family="Times New Roman,serif" font-size="8.00">CitationRequirement : StructuredStringType[0...1] </text>
<text text-anchor="start" x="731.731" y="-246.1" font-family="Times New Roman,serif" font-size="8.00">DepositRequirement : StructuredStringType[0...1] </text>
<text text-anchor="start" x="731.731" y="-237.1" font-family="Times New Roman,serif" font-size="8.00">AccessConditions : StructuredStringType[0...1] </text>
<text text-anchor="start" x="731.731" y="-228.1" font-family="Times New Roman,serif" font-size="8.00">Disclaimer : StructuredStringType[0...1] </text>
<text text-anchor="start" x="731.731" y="-219.1" font-family="Times New Roman,serif" font-size="8.00">AccessRestrictionDate : AccessRestrictionDateType[0...1] </text>
<text text-anchor="start" x="731.731" y="-210.1" font-family="Times New Roman,serif" font-size="8.00">ContactOrganizationReference : Agent[0...n] </text>
</g>
<!-- SampleFrameProperties&#45;&gt;SampleFrameAccessType -->
<g id="edge6" class="edge"><title>SampleFrameProperties&#45;&gt;SampleFrameAccessType</title>
<path fill="none" stroke="black" d="M549.741,-266C586.463,-266 626.95,-266 664.62,-266"/>
<text text-anchor="middle" x="607.231" y="-268.6" font-family="Times New Roman,serif" font-size="8.00">SampleFrameAccess</text>
<text text-anchor="middle" x="656.62" y="-259.6" font-family="Times New Roman,serif" font-size="8.00">0...*</text>
<text text-anchor="middle" x="557.741" y="-259.6" font-family="Times New Roman,serif" font-size="8.00">0...*</text>
</g>
<!-- Universe -->
<g id="ItemTypeUniverse" class="node"><title></title><ellipse fill="#f7b733" stroke="black" cx="805.231" cy="-72" rx="27" ry="18" style="filter: url(#dropshadow)"/>
<text text-anchor="middle" x="805.231" y="-70.1" font-family="Times New Roman,serif" font-size="8.00">Universe</text>
</g>
<!-- SampleFrameProperties&#45;&gt;Universe -->
<g id="edge7" class="edge"><title>SampleFrameProperties&#45;&gt;Universe</title>
<path fill="none" stroke="black" d="M464.137,-203.169C489,-167.734 524.819,-126.061 567.731,-103 636.673,-65.9516 732.724,-66.7106 778.279,-69.6456"/>
<text text-anchor="middle" x="607.231" y="-105.6" font-family="Times New Roman,serif" font-size="8.00">UniverseReference</text>
<text text-anchor="middle" x="770.279" y="-63.2456" font-family="Times New Roman,serif" font-size="8.00">0...*</text>
<text text-anchor="middle" x="456.137" y="-196.769" font-family="Times New Roman,serif" font-size="8.00">0...*</text>
</g>
<!-- SampleFramePopulationSizeType -->
<g id="ReusableTypeSampleFramePopulationSizeType" class="node"><title></title><polygon fill="#fc4a1a" stroke="black" points="685.231,-528 685.231,-564 925.231,-564 925.231,-528 685.231,-528" style="filter: url(#dropshadow)"/>
<text text-anchor="middle" x="728.731" y="-544.1" font-family="Times New Roman,serif" font-size="8.00">PopulationSizeType</text>
<polyline fill="none" stroke="black" points="772.231,-528 772.231,-564 "/>
<text text-anchor="start" x="780.231" y="-548.6" font-family="Times New Roman,serif" font-size="8.00">PrimaryPopulation : SizeType[0...1] </text>
<text text-anchor="start" x="780.231" y="-539.6" font-family="Times New Roman,serif" font-size="8.00">SecondaryPopulation : SizeType[0...n] </text>
</g>
<!-- SampleFrameProperties&#45;&gt;SampleFramePopulationSizeType -->
<g id="edge8" class="edge"><title>SampleFrameProperties&#45;&gt;SampleFramePopulationSizeType</title>
<path fill="none" stroke="black" d="M446.303,-328.698C467.442,-384.146 506.311,-462.623 567.731,-505 601.774,-528.488 644.968,-539.926 685.101,-545.127"/>
<text text-anchor="middle" x="607.231" y="-539.6" font-family="Times New Roman,serif" font-size="8.00">UnitsOfFrame</text>
<text text-anchor="middle" x="677.101" y="-538.727" font-family="Times New Roman,serif" font-size="8.00">0...*</text>
<text text-anchor="middle" x="438.303" y="-331.298" font-family="Times New Roman,serif" font-size="8.00">0...*</text>
</g>
<!-- SampleFrame -->
<g id="ItemTypeSampleFrame0" class="node"><title></title><ellipse fill="#f7b733" stroke="black" cx="805.231" cy="-18" rx="35.9723" ry="18" style="filter: url(#dropshadow)"/>
<text text-anchor="middle" x="805.231" y="-16.1" font-family="Times New Roman,serif" font-size="8.00">SampleFrame</text>
</g>
<!-- SampleFrameProperties&#45;&gt;SampleFrame -->
<g id="edge9" class="edge"><title>SampleFrameProperties&#45;&gt;SampleFrame</title>
<path fill="none" stroke="black" d="M454.523,-203.12C478.26,-157.67 516.519,-98.5797 567.731,-65 630.22,-24.0265 720.548,-17.3414 769.511,-17.0489"/>
<text text-anchor="middle" x="607.231" y="-67.6" font-family="Times New Roman,serif" font-size="8.00">SourceFrameReference</text>
<text text-anchor="middle" x="761.511" y="-10.6489" font-family="Times New Roman,serif" font-size="8.00">0...*</text>
<text text-anchor="middle" x="446.523" y="-196.72" font-family="Times New Roman,serif" font-size="8.00">0...*</text>
</g>
<!-- SampleFrameAccessType&#45;&gt;SampleFrameNameType -->
<g id="edge10" class="edge"><title>SampleFrameAccessType&#45;&gt;SampleFrameNameType</title>
<path fill="none" stroke="black" d="M945.997,-210.396C951.948,-208.779 957.876,-207.301 963.731,-206 1012.02,-195.27 1067.23,-190.922 1111.61,-189.302"/>
<text text-anchor="middle" x="1017.73" y="-208.6" font-family="Times New Roman,serif" font-size="8.00">AccessTypeName</text>
<text text-anchor="middle" x="1103.61" y="-182.902" font-family="Times New Roman,serif" font-size="8.00">0...*</text>
<text text-anchor="middle" x="953.997" y="-203.996" font-family="Times New Roman,serif" font-size="8.00">0...*</text>
</g>
<!-- SampleFrameAccessType&#45;&gt;SampleFrameLabelType -->
<g id="edge11" class="edge"><title>SampleFrameAccessType&#45;&gt;SampleFrameLabelType</title>
<path fill="none" stroke="black" d="M933.188,-328.509C937.744,-333.048 941.962,-337.874 945.731,-343 969.383,-375.16 935.951,-402.331 963.731,-431 996.431,-464.746 1045.78,-479.362 1090.52,-485.185"/>
<text text-anchor="middle" x="1017.73" y="-484.6" font-family="Times New Roman,serif" font-size="8.00">Label</text>
<text text-anchor="middle" x="1082.52" y="-478.785" font-family="Times New Roman,serif" font-size="8.00">0...*</text>
<text text-anchor="middle" x="925.188" y="-331.109" font-family="Times New Roman,serif" font-size="8.00">0...*</text>
</g>
<!-- SampleFrameAccessType&#45;&gt;SampleFrameStructuredStringType -->
<g id="edge12" class="edge"><title>SampleFrameAccessType&#45;&gt;SampleFrameStructuredStringType</title>
<path fill="none" stroke="black" d="M932.229,-328.727C937.075,-333.215 941.613,-337.97 945.731,-343 962.563,-363.554 942.303,-384.296 963.731,-400 1027.73,-446.903 1125.52,-391.179 1170.74,-360.123"/>
<text text-anchor="middle" x="1017.73" y="-420.6" font-family="Times New Roman,serif" font-size="8.00">Description</text>
<text text-anchor="middle" x="1162.74" y="-362.723" font-family="Times New Roman,serif" font-size="8.00">0...*</text>
<text text-anchor="middle" x="940.229" y="-331.327" font-family="Times New Roman,serif" font-size="8.00">0...*</text>
</g>
<!-- SampleFrameAccessType&#45;&gt;SampleFrameStructuredStringType -->
<g id="edge13" class="edge"><title>SampleFrameAccessType&#45;&gt;SampleFrameStructuredStringType</title>
<path fill="none" stroke="black" d="M946.047,-222.198C987.506,-215.901 1032.34,-215.897 1071.73,-231 1120.45,-249.678 1162.02,-297.432 1182.19,-323.81"/>
<text text-anchor="middle" x="1017.73" y="-233.6" font-family="Times New Roman,serif" font-size="8.00">ConfidentialityStatement</text>
<text text-anchor="middle" x="1174.19" y="-317.41" font-family="Times New Roman,serif" font-size="8.00">0...*</text>
<text text-anchor="middle" x="954.047" y="-215.798" font-family="Times New Roman,serif" font-size="8.00">0...*</text>
</g>
<!-- SampleFrameAccessType&#45;&gt;SampleFrameStructuredStringType -->
<g id="edge14" class="edge"><title>SampleFrameAccessType&#45;&gt;SampleFrameStructuredStringType</title>
<path fill="none" stroke="black" d="M945.789,-249.169C987.029,-248.25 1031.8,-251.322 1071.73,-263 1112.28,-274.861 1152.17,-304.557 1175.21,-323.971"/>
<text text-anchor="middle" x="1017.73" y="-265.6" font-family="Times New Roman,serif" font-size="8.00">Restrictions</text>
<text text-anchor="middle" x="1183.21" y="-317.571" font-family="Times New Roman,serif" font-size="8.00">0...*</text>
<text text-anchor="middle" x="953.789" y="-242.769" font-family="Times New Roman,serif" font-size="8.00">0...*</text>
</g>
<!-- SampleFrameAccessType&#45;&gt;SampleFrameStructuredStringType -->
<g id="edge15" class="edge"><title>SampleFrameAccessType&#45;&gt;SampleFrameStructuredStringType</title>
<path fill="none" stroke="black" d="M945.867,-274.52C986.798,-278.822 1031.38,-285.288 1071.73,-295 1100.5,-301.926 1131.64,-313.806 1155.45,-323.889"/>
<text text-anchor="middle" x="1017.73" y="-297.6" font-family="Times New Roman,serif" font-size="8.00">CitationRequirement</text>
<text text-anchor="middle" x="1147.45" y="-317.489" font-family="Times New Roman,serif" font-size="8.00">0...*</text>
<text text-anchor="middle" x="953.867" y="-268.12" font-family="Times New Roman,serif" font-size="8.00">0...*</text>
</g>
<!-- SampleFrameAccessType&#45;&gt;SampleFrameStructuredStringType -->
<g id="edge16" class="edge"><title>SampleFrameAccessType&#45;&gt;SampleFrameStructuredStringType</title>
<path fill="none" stroke="black" d="M946.09,-300.312C952.042,-301.593 957.942,-302.828 963.731,-304 1004.65,-312.282 1049.91,-320.024 1089.48,-326.331"/>
<text text-anchor="middle" x="1017.73" y="-326.6" font-family="Times New Roman,serif" font-size="8.00">DepositRequirement</text>
<text text-anchor="middle" x="1081.48" y="-319.931" font-family="Times New Roman,serif" font-size="8.00">0...*</text>
<text text-anchor="middle" x="954.09" y="-293.912" font-family="Times New Roman,serif" font-size="8.00">0...*</text>
</g>
<!-- SampleFrameAccessType&#45;&gt;SampleFrameStructuredStringType -->
<g id="edge17" class="edge"><title>SampleFrameAccessType&#45;&gt;SampleFrameStructuredStringType</title>
<path fill="none" stroke="black" d="M936.835,-328.577C945.812,-331.465 954.829,-333.99 963.731,-336 1004.22,-345.143 1049.71,-347.887 1089.58,-347.906"/>
<text text-anchor="middle" x="1017.73" y="-350.6" font-family="Times New Roman,serif" font-size="8.00">AccessConditions</text>
<text text-anchor="middle" x="1081.58" y="-341.506" font-family="Times New Roman,serif" font-size="8.00">0...*</text>
<text text-anchor="middle" x="944.835" y="-322.177" font-family="Times New Roman,serif" font-size="8.00">0...*</text>
</g>
<!-- SampleFrameAccessType&#45;&gt;SampleFrameStructuredStringType -->
<g id="edge18" class="edge"><title>SampleFrameAccessType&#45;&gt;SampleFrameStructuredStringType</title>
<path fill="none" stroke="black" d="M925.285,-328.648C932.338,-333.297 939.21,-338.095 945.731,-343 954.773,-349.801 953.279,-356.67 963.731,-361 1020.92,-384.688 1092.76,-373.138 1141.12,-360.091"/>
<text text-anchor="middle" x="1017.73" y="-377.6" font-family="Times New Roman,serif" font-size="8.00">Disclaimer</text>
<text text-anchor="middle" x="1133.12" y="-362.691" font-family="Times New Roman,serif" font-size="8.00">0...*</text>
<text text-anchor="middle" x="917.285" y="-331.248" font-family="Times New Roman,serif" font-size="8.00">0...*</text>
</g>
<!-- SampleFrameAccessType&#45;&gt;Agent -->
<g id="edge19" class="edge"><title>SampleFrameAccessType&#45;&gt;Agent</title>
<path fill="none" stroke="black" d="M919.685,-203.411C928.5,-198.538 937.261,-193.69 945.731,-189 953.737,-184.567 955.238,-182.408 963.731,-179 1017.46,-157.441 1033.38,-159.246 1089.73,-146 1117.05,-139.578 1148.58,-133.129 1170,-128.889"/>
<text text-anchor="middle" x="1017.73" y="-181.6" font-family="Times New Roman,serif" font-size="8.00">ContactOrganizationReference</text>
<text text-anchor="middle" x="1162" y="-131.489" font-family="Times New Roman,serif" font-size="8.00">0...*</text>
<text text-anchor="middle" x="911.685" y="-197.011" font-family="Times New Roman,serif" font-size="8.00">0...*</text>
</g>
<!-- PretestActivity -->
<g id="ItemTypePretestActivity1" class="node"><title></title><ellipse fill="#f7b733" stroke="black" cx="66.3657" cy="-401" rx="40.0477" ry="18" style="filter: url(#dropshadow)"/>
<text text-anchor="middle" x="66.3657" y="-399.1" font-family="Times New Roman,serif" font-size="8.00">PretestActivity</text>
</g>
<!-- PretestActivity&#45;&gt;SampleFrameProperties -->
<g id="edge20" class="edge"><title>PretestActivity&#45;&gt;SampleFrameProperties</title>
<path fill="none" stroke="black" d="M103.614,-393.695C147.081,-384.342 221.711,-366.382 282.731,-342 286.203,-340.613 289.699,-339.163 293.207,-337.66"/>
<text text-anchor="middle" x="216.731" y="-385.6" font-family="Times New Roman,serif" font-size="8.00">SampleFrameReference</text>
<text text-anchor="middle" x="285.207" y="-331.26" font-family="Times New Roman,serif" font-size="8.00">0...*</text>
<text text-anchor="middle" x="111.614" y="-387.295" font-family="Times New Roman,serif" font-size="8.00">0...*</text>
</g>
<!-- Sample -->
<g id="ItemTypeSample2" class="node"><title></title><ellipse fill="#f7b733" stroke="black" cx="66.3657" cy="-347" rx="27" ry="18" style="filter: url(#dropshadow)"/>
<text text-anchor="middle" x="66.3657" y="-345.1" font-family="Times New Roman,serif" font-size="8.00">Sample</text>
</g>
<!-- Sample&#45;&gt;SampleFrameProperties -->
<g id="edge21" class="edge"><title>Sample&#45;&gt;SampleFrameProperties</title>
<path fill="none" stroke="black" d="M92.2753,-341.741C132.424,-333.225 213.909,-315.776 282.731,-300 286.168,-299.212 289.649,-298.41 293.162,-297.596"/>
<text text-anchor="middle" x="216.731" y="-331.6" font-family="Times New Roman,serif" font-size="8.00">SampleFrameUsedReference</text>
<text text-anchor="middle" x="285.162" y="-291.196" font-family="Times New Roman,serif" font-size="8.00">0...*</text>
<text text-anchor="middle" x="100.275" y="-335.341" font-family="Times New Roman,serif" font-size="8.00">0...*</text>
</g>
<!-- SamplingInformationGroup -->
<g id="ItemTypeSamplingInformationGroup3" class="node"><title></title><ellipse fill="#f7b733" stroke="black" cx="66.3657" cy="-293" rx="63.5591" ry="18" style="filter: url(#dropshadow)"/>
<text text-anchor="middle" x="66.3657" y="-291.1" font-family="Times New Roman,serif" font-size="8.00">SamplingInformationGroup</text>
</g>
<!-- SamplingInformationGroup&#45;&gt;SampleFrameProperties -->
<g id="edge23" class="edge"><title>SamplingInformationGroup&#45;&gt;SampleFrameProperties</title>
<path fill="none" stroke="black" d="M127.903,-288.42C173.007,-285.007 236.304,-280.218 292.822,-275.942"/>
<text text-anchor="middle" x="216.731" y="-289.6" font-family="Times New Roman,serif" font-size="8.00">SampleFrameReference</text>
<text text-anchor="middle" x="284.822" y="-269.542" font-family="Times New Roman,serif" font-size="8.00">0...*</text>
<text text-anchor="middle" x="135.903" y="-282.02" font-family="Times New Roman,serif" font-size="8.00">0...*</text>
</g>
<!-- SamplingInformationScheme -->
<g id="ItemTypeSamplingInformationScheme4" class="node"><title></title><ellipse fill="#f7b733" stroke="black" cx="66.3657" cy="-239" rx="66.2317" ry="18" style="filter: url(#dropshadow)"/>
<text text-anchor="middle" x="66.3657" y="-237.1" font-family="Times New Roman,serif" font-size="8.00">SamplingInformationScheme</text>
</g>
<!-- SamplingInformationScheme&#45;&gt;SampleFrameProperties -->
<g id="edge24" class="edge"><title>SamplingInformationScheme&#45;&gt;SampleFrameProperties</title>
<path fill="none" stroke="black" d="M130.755,-243.796C175.705,-247.197 237.635,-251.882 293.024,-256.073"/>
<text text-anchor="middle" x="216.731" y="-257.6" font-family="Times New Roman,serif" font-size="8.00">SampleFrameReference</text>
<text text-anchor="middle" x="285.024" y="-249.673" font-family="Times New Roman,serif" font-size="8.00">0...*</text>
<text text-anchor="middle" x="138.755" y="-237.396" font-family="Times New Roman,serif" font-size="8.00">0...*</text>
</g>
<!-- SamplingStage -->
<g id="ItemTypeSamplingStage5" class="node"><title></title><ellipse fill="#f7b733" stroke="black" cx="66.3657" cy="-185" rx="37.3742" ry="18" style="filter: url(#dropshadow)"/>
<text text-anchor="middle" x="66.3657" y="-183.1" font-family="Times New Roman,serif" font-size="8.00">SamplingStage</text>
</g>
<!-- SamplingStage&#45;&gt;SampleFrameProperties -->
<g id="edge25" class="edge"><title>SamplingStage&#45;&gt;SampleFrameProperties</title>
<path fill="none" stroke="black" d="M100.593,-192.3C142.918,-201.622 218.305,-218.308 282.731,-233 286.163,-233.783 289.641,-234.578 293.15,-235.382"/>
<text text-anchor="middle" x="216.731" y="-235.6" font-family="Times New Roman,serif" font-size="8.00">RecommendedSampleFrameReference</text>
<text text-anchor="middle" x="285.15" y="-228.982" font-family="Times New Roman,serif" font-size="8.00">0...*</text>
<text text-anchor="middle" x="108.593" y="-185.9" font-family="Times New Roman,serif" font-size="8.00">0...*</text>
</g>
<!-- ApplicationDetailsType -->
<g id="ReusableTypeApplicationDetailsType6" class="node"><title></title><ellipse fill="#f7b733" stroke="black" cx="66.3657" cy="-131" rx="57.0809" ry="18" style="filter: url(#dropshadow)"/>
<text text-anchor="middle" x="66.3657" y="-129.1" font-family="Times New Roman,serif" font-size="8.00">ApplicationDetailsType</text>
</g>
<!-- ApplicationDetailsType&#45;&gt;SampleFrameProperties -->
<g id="edge26" class="edge"><title>ApplicationDetailsType&#45;&gt;SampleFrameProperties</title>
<path fill="none" stroke="black" d="M113.648,-141.186C157.888,-151.601 226.048,-169.43 282.731,-192 286.152,-193.362 289.599,-194.782 293.059,-196.25"/>
<text text-anchor="middle" x="216.731" y="-194.6" font-family="Times New Roman,serif" font-size="8.00">SampleFrameReference</text>
<text text-anchor="middle" x="285.059" y="-189.85" font-family="Times New Roman,serif" font-size="8.00">0...*</text>
<text text-anchor="middle" x="121.648" y="-143.786" font-family="Times New Roman,serif" font-size="8.00">0...*</text>
</g>
</g>
</svg>
