<?xml version="1.0" encoding="UTF-8" standalone="no"?>
<!DOCTYPE svg PUBLIC "-//W3C//DTD SVG 1.1//EN"
 "http://www.w3.org/Graphics/SVG/1.1/DTD/svg11.dtd">
<!-- Generated by graphviz version 2.38.0 (20140413.2041)
 -->
<!-- Title: G Pages: 1 -->
<svg width="1008pt" height="203pt"
 viewBox="0.00 0.00 1008.00 203.00" xmlns="http://www.w3.org/2000/svg" xmlns:xlink="http://www.w3.org/1999/xlink">
<filter id = "dropshadow" height = "130%" ><feGaussianBlur in= "SourceAlpha" stdDeviation = "3"/><!--stdDeviation is how much to blur--><feOffset dx = "2" dy = "2" result = "offsetblur"/><!--how much to offset--><feMerge><feMergeNode/><!--this contains the offset blurred image--><feMergeNode in= "SourceGraphic"/><!--this contains the element that the filter is applied to --></feMerge></filter>
<g id="graph0" class="graph" transform="scale(1 1) rotate(0) translate(4 199)">
<title>G</title>
<g id="clust1" class="cluster"><title>clusterSampleStep</title>
<polygon fill="#4abdac" stroke="black" points="8,-8 8,-187 992,-187 992,-8 8,-8" style="filter: url(#dropshadow)"/>
<text text-anchor="middle" x="500" y="-176.6" font-family="Times New Roman,serif" font-size="8.00">SampleStep</text>
</g>
<!-- SampleStepProperties -->
<g id="ItemTypeSampleStepProperties" class="node"><title></title><polygon fill="#f7b733" stroke="black" points="16,-66 16,-102 277,-102 277,-66 16,-66" style="filter: url(#dropshadow)"/>
<text text-anchor="middle" x="42.5" y="-82.1" font-family="Times New Roman,serif" font-size="8.00">Properties</text>
<polyline fill="none" stroke="black" points="69,-66 69,-102 "/>
<text text-anchor="start" x="77" y="-91.1" font-family="Times New Roman,serif" font-size="8.00">ConditionForAcceptance : StructuredStringType[0...n] </text>
<text text-anchor="start" x="77" y="-82.1" font-family="Times New Roman,serif" font-size="8.00">CommandCode : CommandCodeType[0...1] </text>
<text text-anchor="start" x="77" y="-73.1" font-family="Times New Roman,serif" font-size="8.00">Stratification : StratificationType[0...1] </text>
</g>
<!-- SampleStepStructuredStringType -->
<g id="ReusableTypeSampleStepStructuredStringType" class="node"><title></title><polygon fill="#fc4a1a" stroke="black" points="771,-66 771,-102 984,-102 984,-66 771,-66" style="filter: url(#dropshadow)"/>
<text text-anchor="middle" x="816" y="-82.1" font-family="Times New Roman,serif" font-size="8.00">StructuredStringType</text>
<polyline fill="none" stroke="black" points="861,-66 861,-102 "/>
<text text-anchor="start" x="869" y="-82.1" font-family="Times New Roman,serif" font-size="8.00">Content : ContentType[0...n] </text>
</g>
<!-- SampleStepProperties&#45;&gt;SampleStepStructuredStringType -->
<g id="edge1" class="edge"><title>SampleStepProperties&#45;&gt;SampleStepStructuredStringType</title>
<path fill="none" stroke="black" d="M224.366,-65.967C266.018,-57.1115 318.539,-47.4144 366,-43 500.973,-30.4462 536.101,-29.6742 671,-43 715.712,-47.4168 765.11,-57.114 804.267,-65.969"/>
<text text-anchor="middle" x="518.5" y="-45.6" font-family="Times New Roman,serif" font-size="8.00">ConditionForAcceptance</text>
</g>
<!-- SampleStepCommandCodeType -->
<g id="ReusableTypeSampleStepCommandCodeType" class="node"><title></title><polygon fill="#fc4a1a" stroke="black" points="371.5,-62 371.5,-106 665.5,-106 665.5,-62 371.5,-62" style="filter: url(#dropshadow)"/>
<text text-anchor="middle" x="415.5" y="-82.1" font-family="Times New Roman,serif" font-size="8.00">CommandCodeType</text>
<polyline fill="none" stroke="black" points="459.5,-62 459.5,-106 "/>
<text text-anchor="start" x="467.5" y="-95.6" font-family="Times New Roman,serif" font-size="8.00">Description : StructuredStringType[0...1] </text>
<text text-anchor="start" x="467.5" y="-86.6" font-family="Times New Roman,serif" font-size="8.00">Command : CommandType[0...n] </text>
<text text-anchor="start" x="467.5" y="-77.6" font-family="Times New Roman,serif" font-size="8.00">CommandFile : CommandFileType[0...n] </text>
<text text-anchor="start" x="467.5" y="-68.6" font-family="Times New Roman,serif" font-size="8.00">StructuredCommand : StructuredCommandType[0...1] </text>
</g>
<!-- SampleStepProperties&#45;&gt;SampleStepCommandCodeType -->
<g id="edge2" class="edge"><title>SampleStepProperties&#45;&gt;SampleStepCommandCodeType</title>
<path fill="none" stroke="black" d="M277.168,-84C307.581,-84 340.192,-84 371.273,-84"/>
<text text-anchor="middle" x="321.5" y="-86.6" font-family="Times New Roman,serif" font-size="8.00">CommandCode</text>
</g>
<!-- SampleStepStratificationType -->
<g id="ReusableTypeSampleStepStratificationType" class="node"><title></title><polygon fill="#fc4a1a" stroke="black" points="366,-125 366,-161 671,-161 671,-125 366,-125" style="filter: url(#dropshadow)"/>
<text text-anchor="middle" x="406.5" y="-141.1" font-family="Times New Roman,serif" font-size="8.00">StratificationType</text>
<polyline fill="none" stroke="black" points="447,-125 447,-161 "/>
<text text-anchor="start" x="455" y="-150.1" font-family="Times New Roman,serif" font-size="8.00">StratificationRationale : StratificationRationaleType[0...1] </text>
<text text-anchor="start" x="455" y="-141.1" font-family="Times New Roman,serif" font-size="8.00">AllocationMethod : StructuredStringType[0...1] </text>
<text text-anchor="start" x="455" y="-132.1" font-family="Times New Roman,serif" font-size="8.00">StrataNumber : nonNegativeInteger[1...1] </text>
</g>
<!-- SampleStepProperties&#45;&gt;SampleStepStratificationType -->
<g id="edge3" class="edge"><title>SampleStepProperties&#45;&gt;SampleStepStratificationType</title>
<path fill="none" stroke="black" d="M260.523,-102.023C306.214,-109.309 358.846,-117.701 404.532,-124.986"/>
<text text-anchor="middle" x="321.5" y="-117.6" font-family="Times New Roman,serif" font-size="8.00">Stratification</text>
</g>
<!-- SampleStepCommandCodeType&#45;&gt;SampleStepStructuredStringType -->
<g id="edge4" class="edge"><title>SampleStepCommandCodeType&#45;&gt;SampleStepStructuredStringType</title>
<path fill="none" stroke="black" d="M665.736,-84C700.974,-84 737.948,-84 770.914,-84"/>
<text text-anchor="middle" x="721" y="-86.6" font-family="Times New Roman,serif" font-size="8.00">Description</text>
</g>
<!-- SampleStepStratificationType&#45;&gt;SampleStepStructuredStringType -->
<g id="edge5" class="edge"><title>SampleStepStratificationType&#45;&gt;SampleStepStructuredStringType</title>
<path fill="none" stroke="black" d="M628.552,-124.977C673.766,-117.505 726.023,-108.869 770.871,-101.457"/>
<text text-anchor="middle" x="721" y="-115.6" font-family="Times New Roman,serif" font-size="8.00">AllocationMethod</text>
</g>
</g>
</svg>
