<?xml version="1.0" encoding="UTF-8" standalone="no"?>
<!DOCTYPE svg PUBLIC "-//W3C//DTD SVG 1.1//EN"
 "http://www.w3.org/Graphics/SVG/1.1/DTD/svg11.dtd">
<!-- Generated by graphviz version 2.38.0 (20140413.2041)
 -->
<!-- Title: G Pages: 1 -->
<svg width="1574pt" height="837pt"
 viewBox="0.00 0.00 1573.59 837.00" xmlns="http://www.w3.org/2000/svg" xmlns:xlink="http://www.w3.org/1999/xlink">
<filter id = "dropshadow" height = "130%" ><feGaussianBlur in= "SourceAlpha" stdDeviation = "3"/><!--stdDeviation is how much to blur--><feOffset dx = "2" dy = "2" result = "offsetblur"/><!--how much to offset--><feMerge><feMergeNode/><!--this contains the offset blurred image--><feMergeNode in= "SourceGraphic"/><!--this contains the element that the filter is applied to --></feMerge></filter>
<g id="graph0" class="graph" transform="scale(1 1) rotate(0) translate(4 833)">
<title>G</title>
<g id="clust1" class="cluster"><title>clusterSample</title>
<polygon fill="#4abdac" stroke="black" points="250.731,-216 250.731,-731 1409.73,-731 1409.73,-216 250.731,-216" style="filter: url(#dropshadow)"/>
<text text-anchor="middle" x="830.231" y="-720.6" font-family="Times New Roman,serif" font-size="8.00">Sample</text>
</g>
<!-- SampleProperties -->
<g id="ItemTypeSampleProperties" class="node"><title></title><polygon fill="#f7b733" stroke="black" points="258.731,-280.5 258.731,-405.5 533.731,-405.5 533.731,-280.5 258.731,-280.5" style="filter: url(#dropshadow)"/>
<text text-anchor="middle" x="285.231" y="-341.1" font-family="Times New Roman,serif" font-size="8.00">Properties</text>
<polyline fill="none" stroke="black" points="311.731,-280.5 311.731,-405.5 "/>
<text text-anchor="start" x="319.731" y="-395.1" font-family="Times New Roman,serif" font-size="8.00">TypeOfSample : CodeValueType[0...1] </text>
<text text-anchor="start" x="319.731" y="-386.1" font-family="Times New Roman,serif" font-size="8.00">SampleName : NameType[0...n] </text>
<text text-anchor="start" x="319.731" y="-377.1" font-family="Times New Roman,serif" font-size="8.00">Label : LabelType[0...n] </text>
<text text-anchor="start" x="319.731" y="-368.1" font-family="Times New Roman,serif" font-size="8.00">Description : StructuredStringType[0...1] </text>
<text text-anchor="start" x="319.731" y="-359.1" font-family="Times New Roman,serif" font-size="8.00">PopulationOfConcern : PopulationType[0...n] </text>
<text text-anchor="start" x="319.731" y="-350.1" font-family="Times New Roman,serif" font-size="8.00">OverallTargetSampleSize : PopulationSizeType[0...n] </text>
<text text-anchor="start" x="319.731" y="-341.1" font-family="Times New Roman,serif" font-size="8.00">OverallSampleSize : SizeType[0...1] </text>
<text text-anchor="start" x="319.731" y="-332.1" font-family="Times New Roman,serif" font-size="8.00">ApplicationDetails : ApplicationDetailsType[0...n] </text>
<text text-anchor="start" x="319.731" y="-323.1" font-family="Times New Roman,serif" font-size="8.00">DateOfSample : DateType[0...n] </text>
<text text-anchor="start" x="319.731" y="-314.1" font-family="Times New Roman,serif" font-size="8.00">SampleLocationReference : OtherMaterial[0...n] </text>
<text text-anchor="start" x="319.731" y="-305.1" font-family="Times New Roman,serif" font-size="8.00">SamplingPlanImplementedReference : SamplingPlan[0...n] </text>
<text text-anchor="start" x="319.731" y="-296.1" font-family="Times New Roman,serif" font-size="8.00">SampleFrameUsedReference : SampleFrame[0...n] </text>
<text text-anchor="start" x="319.731" y="-287.1" font-family="Times New Roman,serif" font-size="8.00">ComponentSampleReference : Sample[0...n] </text>
</g>
<!-- SampleProperties&#45;&gt;SampleProperties -->
<g id="edge25" class="edge"><title>SampleProperties&#45;&gt;SampleProperties</title>
<path fill="none" stroke="black" d="M361.224,-405.83C366.008,-416.564 377.677,-424 396.231,-424 414.786,-424 426.455,-416.564 431.239,-405.83"/>
<text text-anchor="middle" x="396.231" y="-426.6" font-family="Times New Roman,serif" font-size="8.00">ComponentSampleReference</text>
<text text-anchor="middle" x="423.239" y="-408.43" font-family="Times New Roman,serif" font-size="8.00">0...*</text>
<text text-anchor="middle" x="353.224" y="-408.43" font-family="Times New Roman,serif" font-size="8.00">0...*</text>
</g>
<!-- SampleCodeValueType -->
<g id="ReusableTypeSampleCodeValueType" class="node"><title></title><polygon fill="#fc4a1a" stroke="black" points="1142.73,-267.5 1142.73,-338.5 1401.73,-338.5 1401.73,-267.5 1142.73,-267.5" style="filter: url(#dropshadow)"/>
<text text-anchor="middle" x="1178.23" y="-301.1" font-family="Times New Roman,serif" font-size="8.00">CodeValueType</text>
<polyline fill="none" stroke="black" points="1213.73,-267.5 1213.73,-338.5 "/>
<text text-anchor="start" x="1221.73" y="-328.1" font-family="Times New Roman,serif" font-size="8.00">ControlledVocabularyID : string[0...1] </text>
<text text-anchor="start" x="1221.73" y="-319.1" font-family="Times New Roman,serif" font-size="8.00">ControlledVocabularyName : string[0...1] </text>
<text text-anchor="start" x="1221.73" y="-310.1" font-family="Times New Roman,serif" font-size="8.00">ControlledVocabularyAgencyName : string[0...1] </text>
<text text-anchor="start" x="1221.73" y="-301.1" font-family="Times New Roman,serif" font-size="8.00">ControlledVocabularyVersionID : string[0...1] </text>
<text text-anchor="start" x="1221.73" y="-292.1" font-family="Times New Roman,serif" font-size="8.00">OtherValue : string[0...1] </text>
<text text-anchor="start" x="1221.73" y="-283.1" font-family="Times New Roman,serif" font-size="8.00">ControlledVocabularyURN : string[0...1] </text>
<text text-anchor="start" x="1221.73" y="-274.1" font-family="Times New Roman,serif" font-size="8.00">ControlledVocabularySchemeURN : string[0...1] </text>
</g>
<!-- SampleProperties&#45;&gt;SampleCodeValueType -->
<g id="edge1" class="edge"><title>SampleProperties&#45;&gt;SampleCodeValueType</title>
<path fill="none" stroke="black" d="M534.004,-291.753C584.674,-275.276 643.097,-259.176 697.731,-251 849.749,-228.251 1026.03,-251.584 1142.6,-273.852"/>
<text text-anchor="middle" x="842.731" y="-253.6" font-family="Times New Roman,serif" font-size="8.00">TypeOfSample</text>
</g>
<!-- SampleNameType -->
<g id="ReusableTypeSampleNameType" class="node"><title></title><polygon fill="#fc4a1a" stroke="black" points="758.231,-270 758.231,-306 927.231,-306 927.231,-270 758.231,-270" style="filter: url(#dropshadow)"/>
<text text-anchor="middle" x="786.231" y="-286.1" font-family="Times New Roman,serif" font-size="8.00">NameType</text>
<polyline fill="none" stroke="black" points="814.231,-270 814.231,-306 "/>
<text text-anchor="start" x="822.231" y="-290.6" font-family="Times New Roman,serif" font-size="8.00">IsPreferred : boolean[0...1] </text>
<text text-anchor="start" x="822.231" y="-281.6" font-family="Times New Roman,serif" font-size="8.00">Context : string[0...1] </text>
</g>
<!-- SampleProperties&#45;&gt;SampleNameType -->
<g id="edge2" class="edge"><title>SampleProperties&#45;&gt;SampleNameType</title>
<path fill="none" stroke="black" d="M533.92,-326.087C607.146,-317.026 694.997,-306.156 758.069,-298.352"/>
<text text-anchor="middle" x="615.731" y="-326.6" font-family="Times New Roman,serif" font-size="8.00">SampleName</text>
</g>
<!-- SampleLabelType -->
<g id="ReusableTypeSampleLabelType" class="node"><title></title><polygon fill="#fc4a1a" stroke="black" points="737.231,-380.5 737.231,-433.5 948.231,-433.5 948.231,-380.5 737.231,-380.5" style="filter: url(#dropshadow)"/>
<text text-anchor="middle" x="764.231" y="-405.1" font-family="Times New Roman,serif" font-size="8.00">LabelType</text>
<polyline fill="none" stroke="black" points="791.231,-380.5 791.231,-433.5 "/>
<text text-anchor="start" x="799.231" y="-423.1" font-family="Times New Roman,serif" font-size="8.00">TypeOfLabel : CodeValueType[0...1] </text>
<text text-anchor="start" x="799.231" y="-414.1" font-family="Times New Roman,serif" font-size="8.00">LocationVariant : string[0...1] </text>
<text text-anchor="start" x="799.231" y="-405.1" font-family="Times New Roman,serif" font-size="8.00">ValidForStartDate : cogsDate[0...1] </text>
<text text-anchor="start" x="799.231" y="-396.1" font-family="Times New Roman,serif" font-size="8.00">ValidForEndDate : cogsDate[0...1] </text>
<text text-anchor="start" x="799.231" y="-387.1" font-family="Times New Roman,serif" font-size="8.00">MaxLength : nonNegativeInteger[0...1] </text>
</g>
<!-- SampleProperties&#45;&gt;SampleLabelType -->
<g id="edge3" class="edge"><title>SampleProperties&#45;&gt;SampleLabelType</title>
<path fill="none" stroke="black" d="M533.92,-362.681C599.364,-372.104 676.49,-383.208 737.168,-391.945"/>
<text text-anchor="middle" x="615.731" y="-385.6" font-family="Times New Roman,serif" font-size="8.00">Label</text>
</g>
<!-- SampleStructuredStringType -->
<g id="ReusableTypeSampleStructuredStringType" class="node"><title></title><polygon fill="#fc4a1a" stroke="black" points="1165.73,-452 1165.73,-488 1378.73,-488 1378.73,-452 1165.73,-452" style="filter: url(#dropshadow)"/>
<text text-anchor="middle" x="1210.73" y="-468.1" font-family="Times New Roman,serif" font-size="8.00">StructuredStringType</text>
<polyline fill="none" stroke="black" points="1255.73,-452 1255.73,-488 "/>
<text text-anchor="start" x="1263.73" y="-468.1" font-family="Times New Roman,serif" font-size="8.00">Content : ContentType[0...n] </text>
</g>
<!-- SampleProperties&#45;&gt;SampleStructuredStringType -->
<g id="edge4" class="edge"><title>SampleProperties&#45;&gt;SampleStructuredStringType</title>
<path fill="none" stroke="black" d="M534.082,-390.1C540.042,-392.103 545.946,-394.077 551.731,-396 616.419,-417.505 630.655,-430.847 697.731,-443 859.072,-472.233 1049.87,-475.045 1165.64,-473.321"/>
<text text-anchor="middle" x="842.731" y="-473.6" font-family="Times New Roman,serif" font-size="8.00">Description</text>
</g>
<!-- SamplePopulationType -->
<g id="ReusableTypeSamplePopulationType" class="node"><title></title><polygon fill="#fc4a1a" stroke="black" points="725.231,-325 725.231,-361 960.231,-361 960.231,-325 725.231,-325" style="filter: url(#dropshadow)"/>
<text text-anchor="middle" x="762.231" y="-341.1" font-family="Times New Roman,serif" font-size="8.00">PopulationType</text>
<polyline fill="none" stroke="black" points="799.231,-325 799.231,-361 "/>
<text text-anchor="start" x="807.231" y="-345.6" font-family="Times New Roman,serif" font-size="8.00">Description : StructuredStringType[0...1] </text>
<text text-anchor="start" x="807.231" y="-336.6" font-family="Times New Roman,serif" font-size="8.00">UniverseReference : Universe[0...n] </text>
</g>
<!-- SampleProperties&#45;&gt;SamplePopulationType -->
<g id="edge5" class="edge"><title>SampleProperties&#45;&gt;SamplePopulationType</title>
<path fill="none" stroke="black" d="M533.92,-343C595.027,-343 666.318,-343 724.895,-343"/>
<text text-anchor="middle" x="615.731" y="-345.6" font-family="Times New Roman,serif" font-size="8.00">PopulationOfConcern</text>
</g>
<!-- SamplePopulationSizeType -->
<g id="ReusableTypeSamplePopulationSizeType" class="node"><title></title><polygon fill="#fc4a1a" stroke="black" points="722.731,-543 722.731,-579 962.731,-579 962.731,-543 722.731,-543" style="filter: url(#dropshadow)"/>
<text text-anchor="middle" x="766.231" y="-559.1" font-family="Times New Roman,serif" font-size="8.00">PopulationSizeType</text>
<polyline fill="none" stroke="black" points="809.731,-543 809.731,-579 "/>
<text text-anchor="start" x="817.731" y="-563.6" font-family="Times New Roman,serif" font-size="8.00">PrimaryPopulation : SizeType[0...1] </text>
<text text-anchor="start" x="817.731" y="-554.6" font-family="Times New Roman,serif" font-size="8.00">SecondaryPopulation : SizeType[0...n] </text>
</g>
<!-- SampleProperties&#45;&gt;SamplePopulationSizeType -->
<g id="edge6" class="edge"><title>SampleProperties&#45;&gt;SamplePopulationSizeType</title>
<path fill="none" stroke="black" d="M435.102,-405.785C462.408,-445.259 502.964,-493.56 551.731,-520 603.473,-548.052 667.711,-559.119 722.569,-562.825"/>
<text text-anchor="middle" x="615.731" y="-560.6" font-family="Times New Roman,serif" font-size="8.00">OverallTargetSampleSize</text>
</g>
<!-- SampleSizeType -->
<g id="ReusableTypeSampleSizeType" class="node"><title></title><polygon fill="#fc4a1a" stroke="black" points="1162.23,-521 1162.23,-557 1382.23,-557 1382.23,-521 1162.23,-521" style="filter: url(#dropshadow)"/>
<text text-anchor="middle" x="1186.73" y="-537.1" font-family="Times New Roman,serif" font-size="8.00">SizeType</text>
<polyline fill="none" stroke="black" points="1211.23,-521 1211.23,-557 "/>
<text text-anchor="start" x="1219.23" y="-541.6" font-family="Times New Roman,serif" font-size="8.00">UnitTypeReference : UnitType[0...1] </text>
<text text-anchor="start" x="1219.23" y="-532.6" font-family="Times New Roman,serif" font-size="8.00">NumberOfUnits : nonNegativeInteger[0...1] </text>
</g>
<!-- SampleProperties&#45;&gt;SampleSizeType -->
<g id="edge7" class="edge"><title>SampleProperties&#45;&gt;SampleSizeType</title>
<path fill="none" stroke="black" d="M515.677,-405.576C527.788,-411.6 539.962,-417.506 551.731,-423 615.454,-452.749 629.518,-466.895 697.731,-484 782.866,-505.348 1020.8,-523.274 1162.03,-532.438"/>
<text text-anchor="middle" x="842.731" y="-521.6" font-family="Times New Roman,serif" font-size="8.00">OverallSampleSize</text>
</g>
<!-- SampleApplicationDetailsType -->
<g id="ReusableTypeSampleApplicationDetailsType" class="node"><title></title><polygon fill="#fc4a1a" stroke="black" points="697.731,-598 697.731,-660 987.731,-660 987.731,-598 697.731,-598" style="filter: url(#dropshadow)"/>
<text text-anchor="middle" x="748.231" y="-627.1" font-family="Times New Roman,serif" font-size="8.00">ApplicationDetailsType</text>
<polyline fill="none" stroke="black" points="798.731,-598 798.731,-660 "/>
<text text-anchor="start" x="806.731" y="-649.6" font-family="Times New Roman,serif" font-size="8.00">SamplingStageReference : SamplingStage[0...1] </text>
<text text-anchor="start" x="806.731" y="-640.6" font-family="Times New Roman,serif" font-size="8.00">SampleFrameReference : SampleFrame[0...1] </text>
<text text-anchor="start" x="806.731" y="-631.6" font-family="Times New Roman,serif" font-size="8.00">FrameLimitations : StructuredStringType[0...1] </text>
<text text-anchor="start" x="806.731" y="-622.6" font-family="Times New Roman,serif" font-size="8.00">TargetSampleSize : TargetSampleSizeType[0...n] </text>
<text text-anchor="start" x="806.731" y="-613.6" font-family="Times New Roman,serif" font-size="8.00">DateOfSample : DateType[0...1] </text>
<text text-anchor="start" x="806.731" y="-604.6" font-family="Times New Roman,serif" font-size="8.00">ResponsibleForSamplingReference : Agent[0...n] </text>
</g>
<!-- SampleProperties&#45;&gt;SampleApplicationDetailsType -->
<g id="edge8" class="edge"><title>SampleProperties&#45;&gt;SampleApplicationDetailsType</title>
<path fill="none" stroke="black" d="M423.158,-405.662C448.217,-458.187 491.29,-530.853 551.731,-571 594.5,-599.409 648.107,-614.473 697.557,-622.284"/>
<text text-anchor="middle" x="615.731" y="-620.6" font-family="Times New Roman,serif" font-size="8.00">ApplicationDetails</text>
</g>
<!-- SampleDateType -->
<g id="ReusableTypeSampleDateType0" class="node"><title></title><polygon fill="#fc4a1a" stroke="black" points="1154.73,-623.5 1154.73,-694.5 1389.73,-694.5 1389.73,-623.5 1154.73,-623.5" style="filter: url(#dropshadow)"/>
<text text-anchor="middle" x="1180.73" y="-657.1" font-family="Times New Roman,serif" font-size="8.00">DateType</text>
<polyline fill="none" stroke="black" points="1206.73,-623.5 1206.73,-694.5 "/>
<text text-anchor="start" x="1214.73" y="-684.1" font-family="Times New Roman,serif" font-size="8.00">SimpleDate : cogsDate[0...1] </text>
<text text-anchor="start" x="1214.73" y="-675.1" font-family="Times New Roman,serif" font-size="8.00">HistoricalDate : HistoricalDateType[0...1] </text>
<text text-anchor="start" x="1214.73" y="-666.1" font-family="Times New Roman,serif" font-size="8.00">StartDate : cogsDate[0...1] </text>
<text text-anchor="start" x="1214.73" y="-657.1" font-family="Times New Roman,serif" font-size="8.00">HistoricalStartDate : HistoricalDateType[0...1] </text>
<text text-anchor="start" x="1214.73" y="-648.1" font-family="Times New Roman,serif" font-size="8.00">EndDate : cogsDate[0...1] </text>
<text text-anchor="start" x="1214.73" y="-639.1" font-family="Times New Roman,serif" font-size="8.00">HistoricalEndDate : HistoricalDateType[0...1] </text>
<text text-anchor="start" x="1214.73" y="-630.1" font-family="Times New Roman,serif" font-size="8.00">Cycle : int[0...1] </text>
</g>
<!-- SampleProperties&#45;&gt;SampleDateType -->
<g id="edge9" class="edge"><title>SampleProperties&#45;&gt;SampleDateType</title>
<path fill="none" stroke="black" d="M414.583,-405.772C436.02,-471.597 478.888,-573.323 551.731,-631 642.019,-702.489 975.047,-685.577 1154.63,-670.482"/>
<text text-anchor="middle" x="842.731" y="-685.6" font-family="Times New Roman,serif" font-size="8.00">DateOfSample</text>
</g>
<!-- OtherMaterial -->
<g id="ItemTypeOtherMaterial1" class="node"><title></title><ellipse fill="#f7b733" stroke="black" cx="842.731" cy="-126" rx="37.3742" ry="18" style="filter: url(#dropshadow)"/>
<text text-anchor="middle" x="842.731" y="-124.1" font-family="Times New Roman,serif" font-size="8.00">OtherMaterial</text>
</g>
<!-- SampleProperties&#45;&gt;OtherMaterial -->
<g id="edge10" class="edge"><title>SampleProperties&#45;&gt;OtherMaterial</title>
<path fill="none" stroke="black" d="M431.744,-280.143C458.583,-237.79 499.934,-184.766 551.731,-157 634.291,-112.744 748.973,-116.263 806.236,-121.618"/>
<text text-anchor="middle" x="615.731" y="-159.6" font-family="Times New Roman,serif" font-size="8.00">SampleLocationReference</text>
<text text-anchor="middle" x="798.236" y="-115.218" font-family="Times New Roman,serif" font-size="8.00">0...*</text>
<text text-anchor="middle" x="423.744" y="-273.743" font-family="Times New Roman,serif" font-size="8.00">0...*</text>
</g>
<!-- SamplingPlan -->
<g id="ItemTypeSamplingPlan2" class="node"><title></title><ellipse fill="#f7b733" stroke="black" cx="842.731" cy="-72" rx="36.1063" ry="18" style="filter: url(#dropshadow)"/>
<text text-anchor="middle" x="842.731" y="-70.1" font-family="Times New Roman,serif" font-size="8.00">SamplingPlan</text>
</g>
<!-- SampleProperties&#45;&gt;SamplingPlan -->
<g id="edge11" class="edge"><title>SampleProperties&#45;&gt;SamplingPlan</title>
<path fill="none" stroke="black" d="M420.844,-280.302C444.973,-225.513 487.994,-148.701 551.731,-109 632.294,-58.8194 749.899,-62.2069 807.443,-67.6784"/>
<text text-anchor="middle" x="615.731" y="-111.6" font-family="Times New Roman,serif" font-size="8.00">SamplingPlanImplementedReference</text>
<text text-anchor="middle" x="799.443" y="-61.2784" font-family="Times New Roman,serif" font-size="8.00">0...*</text>
<text text-anchor="middle" x="412.844" y="-273.902" font-family="Times New Roman,serif" font-size="8.00">0...*</text>
</g>
<!-- SampleFrame -->
<g id="ItemTypeSampleFrame3" class="node"><title></title><ellipse fill="#f7b733" stroke="black" cx="1272.23" cy="-136" rx="35.9723" ry="18" style="filter: url(#dropshadow)"/>
<text text-anchor="middle" x="1272.23" y="-134.1" font-family="Times New Roman,serif" font-size="8.00">SampleFrame</text>
</g>
<!-- SampleProperties&#45;&gt;SampleFrame -->
<g id="edge12" class="edge"><title>SampleProperties&#45;&gt;SampleFrame</title>
<path fill="none" stroke="black" d="M489.639,-280.461C509.461,-269.221 530.767,-258.662 551.731,-251 803.019,-159.159 1130.19,-140.576 1236.35,-136.891"/>
<text text-anchor="middle" x="842.731" y="-209.6" font-family="Times New Roman,serif" font-size="8.00">SampleFrameUsedReference</text>
<text text-anchor="middle" x="1228.35" y="-130.491" font-family="Times New Roman,serif" font-size="8.00">0...*</text>
<text text-anchor="middle" x="481.639" y="-274.061" font-family="Times New Roman,serif" font-size="8.00">0...*</text>
</g>
<!-- Sample -->
<g id="ItemTypeSample4" class="node"><title></title><ellipse fill="#f7b733" stroke="black" cx="842.731" cy="-18" rx="27" ry="18" style="filter: url(#dropshadow)"/>
<text text-anchor="middle" x="842.731" y="-16.1" font-family="Times New Roman,serif" font-size="8.00">Sample</text>
</g>
<!-- SampleProperties&#45;&gt;Sample -->
<g id="edge13" class="edge"><title>SampleProperties&#45;&gt;Sample</title>
<path fill="none" stroke="black" d="M412.689,-280.383C432.773,-213.22 474.746,-109.08 551.731,-56 634.295,0.925324 762.07,-7.3662 816.156,-14.1283"/>
<text text-anchor="middle" x="615.731" y="-58.6" font-family="Times New Roman,serif" font-size="8.00">ComponentSampleReference</text>
<text text-anchor="middle" x="808.156" y="-7.72829" font-family="Times New Roman,serif" font-size="8.00">0...*</text>
<text text-anchor="middle" x="404.689" y="-273.983" font-family="Times New Roman,serif" font-size="8.00">0...*</text>
</g>
<!-- SampleLabelType&#45;&gt;SampleCodeValueType -->
<g id="edge14" class="edge"><title>SampleLabelType&#45;&gt;SampleCodeValueType</title>
<path fill="none" stroke="black" d="M948.31,-381.559C1006.89,-367.307 1080.43,-349.416 1142.53,-334.31"/>
<text text-anchor="middle" x="1065.23" y="-370.6" font-family="Times New Roman,serif" font-size="8.00">TypeOfLabel</text>
<text text-anchor="middle" x="1134.53" y="-327.91" font-family="Times New Roman,serif" font-size="8.00">0...*</text>
<text text-anchor="middle" x="956.31" y="-375.159" font-family="Times New Roman,serif" font-size="8.00">0...*</text>
</g>
<!-- SamplePopulationType&#45;&gt;SampleStructuredStringType -->
<g id="edge15" class="edge"><title>SamplePopulationType&#45;&gt;SampleStructuredStringType</title>
<path fill="none" stroke="black" d="M946.027,-361.001C960.112,-364.029 974.332,-367.378 987.731,-371 993.566,-372.577 1139.8,-423.85 1219.9,-451.97"/>
<text text-anchor="middle" x="1065.23" y="-421.6" font-family="Times New Roman,serif" font-size="8.00">Description</text>
<text text-anchor="middle" x="1211.9" y="-445.57" font-family="Times New Roman,serif" font-size="8.00">0...*</text>
<text text-anchor="middle" x="938.027" y="-363.601" font-family="Times New Roman,serif" font-size="8.00">0...*</text>
</g>
<!-- Universe -->
<g id="ItemTypeUniverse5" class="node"><title></title><ellipse fill="#f7b733" stroke="black" cx="1272.23" cy="-190" rx="27" ry="18" style="filter: url(#dropshadow)"/>
<text text-anchor="middle" x="1272.23" y="-188.1" font-family="Times New Roman,serif" font-size="8.00">Universe</text>
</g>
<!-- SamplePopulationType&#45;&gt;Universe -->
<g id="edge16" class="edge"><title>SamplePopulationType&#45;&gt;Universe</title>
<path fill="none" stroke="black" d="M958.534,-324.986C968.561,-322.124 978.424,-318.818 987.731,-315 1064.26,-283.609 1065.86,-242.529 1142.73,-212 1176.6,-198.55 1218.69,-193.316 1245.27,-191.284"/>
<text text-anchor="middle" x="1065.23" y="-308.6" font-family="Times New Roman,serif" font-size="8.00">UniverseReference</text>
<text text-anchor="middle" x="1237.27" y="-184.884" font-family="Times New Roman,serif" font-size="8.00">0...*</text>
<text text-anchor="middle" x="950.534" y="-318.586" font-family="Times New Roman,serif" font-size="8.00">0...*</text>
</g>
<!-- SamplePopulationSizeType&#45;&gt;SampleSizeType -->
<g id="edge17" class="edge"><title>SamplePopulationSizeType&#45;&gt;SampleSizeType</title>
<path fill="none" stroke="black" d="M963,-543.82C977.372,-542.259 991.865,-540.921 1005.73,-540 1057.01,-536.593 1113.99,-535.964 1161.97,-536.34"/>
<text text-anchor="middle" x="1065.23" y="-542.6" font-family="Times New Roman,serif" font-size="8.00">PrimaryPopulation</text>
<text text-anchor="middle" x="1153.97" y="-529.94" font-family="Times New Roman,serif" font-size="8.00">0...*</text>
<text text-anchor="middle" x="971" y="-537.42" font-family="Times New Roman,serif" font-size="8.00">0...*</text>
</g>
<!-- SamplePopulationSizeType&#45;&gt;SampleSizeType -->
<g id="edge18" class="edge"><title>SamplePopulationSizeType&#45;&gt;SampleSizeType</title>
<path fill="none" stroke="black" d="M963.062,-556.576C1013.03,-554.549 1071.71,-551.941 1124.73,-549 1136.82,-548.329 1149.47,-547.563 1162.05,-546.76"/>
<text text-anchor="middle" x="1065.23" y="-556.6" font-family="Times New Roman,serif" font-size="8.00">SecondaryPopulation</text>
<text text-anchor="middle" x="1154.05" y="-540.36" font-family="Times New Roman,serif" font-size="8.00">0...*</text>
<text text-anchor="middle" x="971.062" y="-550.176" font-family="Times New Roman,serif" font-size="8.00">0...*</text>
</g>
<!-- UnitType -->
<g id="ItemTypeUnitType6" class="node"><title></title><ellipse fill="#f7b733" stroke="black" cx="1536.66" cy="-539" rx="28.8574" ry="18" style="filter: url(#dropshadow)"/>
<text text-anchor="middle" x="1536.66" y="-537.1" font-family="Times New Roman,serif" font-size="8.00">UnitType</text>
</g>
<!-- SampleSizeType&#45;&gt;UnitType -->
<g id="edge19" class="edge"><title>SampleSizeType&#45;&gt;UnitType</title>
<path fill="none" stroke="black" d="M1382.24,-539C1428.01,-539 1477.49,-539 1507.53,-539"/>
<text text-anchor="middle" x="1454.73" y="-541.6" font-family="Times New Roman,serif" font-size="8.00">UnitTypeReference</text>
<text text-anchor="middle" x="1499.53" y="-532.6" font-family="Times New Roman,serif" font-size="8.00">0...*</text>
<text text-anchor="middle" x="1390.24" y="-532.6" font-family="Times New Roman,serif" font-size="8.00">0...*</text>
</g>
<!-- SampleApplicationDetailsType&#45;&gt;SampleStructuredStringType -->
<g id="edge22" class="edge"><title>SampleApplicationDetailsType&#45;&gt;SampleStructuredStringType</title>
<path fill="none" stroke="black" d="M977.464,-597.915C981.09,-595.183 984.528,-592.218 987.731,-589 1009.18,-567.45 983.501,-543.743 1005.73,-523 1029.01,-501.275 1102.03,-487.7 1165.61,-479.733"/>
<text text-anchor="middle" x="1065.23" y="-525.6" font-family="Times New Roman,serif" font-size="8.00">FrameLimitations</text>
<text text-anchor="middle" x="1157.61" y="-473.333" font-family="Times New Roman,serif" font-size="8.00">0...*</text>
<text text-anchor="middle" x="969.464" y="-591.515" font-family="Times New Roman,serif" font-size="8.00">0...*</text>
</g>
<!-- SampleApplicationDetailsType&#45;&gt;SampleDateType -->
<g id="edge23" class="edge"><title>SampleApplicationDetailsType&#45;&gt;SampleDateType</title>
<path fill="none" stroke="black" d="M987.867,-639.115C1042.16,-642.925 1103.19,-647.208 1154.66,-650.82"/>
<text text-anchor="middle" x="1065.23" y="-650.6" font-family="Times New Roman,serif" font-size="8.00">DateOfSample</text>
<text text-anchor="middle" x="1146.66" y="-644.42" font-family="Times New Roman,serif" font-size="8.00">0...*</text>
<text text-anchor="middle" x="995.867" y="-632.715" font-family="Times New Roman,serif" font-size="8.00">0...*</text>
</g>
<!-- SampleApplicationDetailsType&#45;&gt;SampleFrame -->
<g id="edge21" class="edge"><title>SampleApplicationDetailsType&#45;&gt;SampleFrame</title>
<path fill="none" stroke="black" d="M979.569,-597.745C982.49,-595.053 985.223,-592.143 987.731,-589 1040.47,-522.925 953.754,-275.672 1005.73,-209 1039.7,-165.422 1073.85,-194.54 1124.73,-173 1133.16,-169.433 1134.16,-166.199 1142.73,-163 1173.81,-151.406 1211.07,-144.269 1237.45,-140.268"/>
<text text-anchor="middle" x="1065.23" y="-211.6" font-family="Times New Roman,serif" font-size="8.00">SampleFrameReference</text>
<text text-anchor="middle" x="1229.45" y="-142.868" font-family="Times New Roman,serif" font-size="8.00">0...*</text>
<text text-anchor="middle" x="987.569" y="-591.345" font-family="Times New Roman,serif" font-size="8.00">0...*</text>
</g>
<!-- SamplingStage -->
<g id="ItemTypeSamplingStage7" class="node"><title></title><ellipse fill="#f7b733" stroke="black" cx="1272.23" cy="-811" rx="37.3742" ry="18" style="filter: url(#dropshadow)"/>
<text text-anchor="middle" x="1272.23" y="-809.1" font-family="Times New Roman,serif" font-size="8.00">SamplingStage</text>
</g>
<!-- SampleApplicationDetailsType&#45;&gt;SamplingStage -->
<g id="edge20" class="edge"><title>SampleApplicationDetailsType&#45;&gt;SamplingStage</title>
<path fill="none" stroke="black" d="M969.883,-660.155C976.361,-664.478 982.386,-669.399 987.731,-675 1009.02,-697.306 984.314,-719.819 1005.73,-742 1049.97,-787.814 1081.06,-768.103 1142.73,-784 1174.41,-792.166 1210.95,-799.661 1236.95,-804.671"/>
<text text-anchor="middle" x="1065.23" y="-782.6" font-family="Times New Roman,serif" font-size="8.00">SamplingStageReference</text>
<text text-anchor="middle" x="1228.95" y="-798.271" font-family="Times New Roman,serif" font-size="8.00">0...*</text>
<text text-anchor="middle" x="961.883" y="-662.755" font-family="Times New Roman,serif" font-size="8.00">0...*</text>
</g>
<!-- Agent -->
<g id="ItemTypeAgent8" class="node"><title></title><ellipse fill="#f7b733" stroke="black" cx="1272.23" cy="-757" rx="27" ry="18" style="filter: url(#dropshadow)"/>
<text text-anchor="middle" x="1272.23" y="-755.1" font-family="Times New Roman,serif" font-size="8.00">Agent</text>
</g>
<!-- SampleApplicationDetailsType&#45;&gt;Agent -->
<g id="edge24" class="edge"><title>SampleApplicationDetailsType&#45;&gt;Agent</title>
<path fill="none" stroke="black" d="M943.533,-660.022C958.398,-664.891 973.501,-669.978 987.731,-675 1057.39,-699.584 1071.53,-715.336 1142.73,-735 1177.64,-744.64 1219.11,-750.824 1245.3,-754.106"/>
<text text-anchor="middle" x="1065.23" y="-731.6" font-family="Times New Roman,serif" font-size="8.00">ResponsibleForSamplingReference</text>
<text text-anchor="middle" x="1237.3" y="-747.706" font-family="Times New Roman,serif" font-size="8.00">0...*</text>
<text text-anchor="middle" x="935.533" y="-662.622" font-family="Times New Roman,serif" font-size="8.00">0...*</text>
</g>
<!-- SamplingInformationGroup -->
<g id="ItemTypeSamplingInformationGroup9" class="node"><title></title><ellipse fill="#f7b733" stroke="black" cx="66.3657" cy="-451" rx="63.5591" ry="18" style="filter: url(#dropshadow)"/>
<text text-anchor="middle" x="66.3657" y="-449.1" font-family="Times New Roman,serif" font-size="8.00">SamplingInformationGroup</text>
</g>
<!-- SamplingInformationGroup&#45;&gt;SampleProperties -->
<g id="edge26" class="edge"><title>SamplingInformationGroup&#45;&gt;SampleProperties</title>
<path fill="none" stroke="black" d="M109.847,-437.826C144.999,-426.851 196.203,-410.698 240.731,-396 244.078,-394.895 247.465,-393.773 250.879,-392.637"/>
<text text-anchor="middle" x="195.731" y="-427.6" font-family="Times New Roman,serif" font-size="8.00">SampleReference</text>
<text text-anchor="middle" x="242.879" y="-386.237" font-family="Times New Roman,serif" font-size="8.00">0...*</text>
<text text-anchor="middle" x="101.847" y="-431.426" font-family="Times New Roman,serif" font-size="8.00">0...*</text>
</g>
<!-- SamplingInformationScheme -->
<g id="ItemTypeSamplingInformationScheme0" class="node"><title></title><ellipse fill="#f7b733" stroke="black" cx="66.3657" cy="-397" rx="66.2317" ry="18" style="filter: url(#dropshadow)"/>
<text text-anchor="middle" x="66.3657" y="-395.1" font-family="Times New Roman,serif" font-size="8.00">SamplingInformationScheme</text>
</g>
<!-- SamplingInformationScheme&#45;&gt;SampleProperties -->
<g id="edge27" class="edge"><title>SamplingInformationScheme&#45;&gt;SampleProperties</title>
<path fill="none" stroke="black" d="M123.728,-387.717C158.862,-381.93 205.8,-374.2 250.757,-366.795"/>
<text text-anchor="middle" x="195.731" y="-385.6" font-family="Times New Roman,serif" font-size="8.00">SampleReference</text>
<text text-anchor="middle" x="242.757" y="-360.395" font-family="Times New Roman,serif" font-size="8.00">0...*</text>
<text text-anchor="middle" x="131.728" y="-381.317" font-family="Times New Roman,serif" font-size="8.00">0...*</text>
</g>
<!-- Weighting -->
<g id="ItemTypeWeighting1" class="node"><title></title><ellipse fill="#f7b733" stroke="black" cx="66.3657" cy="-343" rx="30.1263" ry="18" style="filter: url(#dropshadow)"/>
<text text-anchor="middle" x="66.3657" y="-341.1" font-family="Times New Roman,serif" font-size="8.00">Weighting</text>
</g>
<!-- Weighting&#45;&gt;SampleProperties -->
<g id="edge28" class="edge"><title>Weighting&#45;&gt;SampleProperties</title>
<path fill="none" stroke="black" d="M96.4616,-343C131.483,-343 192.849,-343 250.89,-343"/>
<text text-anchor="middle" x="195.731" y="-345.6" font-family="Times New Roman,serif" font-size="8.00">BasedOnSampleReference</text>
<text text-anchor="middle" x="242.89" y="-336.6" font-family="Times New Roman,serif" font-size="8.00">0...*</text>
<text text-anchor="middle" x="104.462" y="-336.6" font-family="Times New Roman,serif" font-size="8.00">0...*</text>
</g>
<!-- CollectionEventType -->
<g id="ReusableTypeCollectionEventType2" class="node"><title></title><ellipse fill="#f7b733" stroke="black" cx="66.3657" cy="-289" rx="52.3706" ry="18" style="filter: url(#dropshadow)"/>
<text text-anchor="middle" x="66.3657" y="-287.1" font-family="Times New Roman,serif" font-size="8.00">CollectionEventType</text>
</g>
<!-- CollectionEventType&#45;&gt;SampleProperties -->
<g id="edge29" class="edge"><title>CollectionEventType&#45;&gt;SampleProperties</title>
<path fill="none" stroke="black" d="M113.645,-296.622C149.576,-302.54 201.443,-311.083 250.896,-319.228"/>
<text text-anchor="middle" x="195.731" y="-320.6" font-family="Times New Roman,serif" font-size="8.00">SampleReference</text>
<text text-anchor="middle" x="242.896" y="-312.828" font-family="Times New Roman,serif" font-size="8.00">0...*</text>
<text text-anchor="middle" x="121.645" y="-290.222" font-family="Times New Roman,serif" font-size="8.00">0...*</text>
</g>
<!-- SamplingProcedureType -->
<g id="ReusableTypeSamplingProcedureType3" class="node"><title></title><ellipse fill="#f7b733" stroke="black" cx="66.3657" cy="-235" rx="57.0809" ry="18" style="filter: url(#dropshadow)"/>
<text text-anchor="middle" x="66.3657" y="-233.1" font-family="Times New Roman,serif" font-size="8.00">SamplingProcedureType</text>
</g>
<!-- SamplingProcedureType&#45;&gt;SampleProperties -->
<g id="edge30" class="edge"><title>SamplingProcedureType&#45;&gt;SampleProperties</title>
<path fill="none" stroke="black" d="M107.349,-247.762C142.516,-259.024 195.073,-275.943 240.731,-291 244.072,-292.102 247.453,-293.219 250.861,-294.348"/>
<text text-anchor="middle" x="195.731" y="-293.6" font-family="Times New Roman,serif" font-size="8.00">SampleReference</text>
<text text-anchor="middle" x="242.861" y="-287.948" font-family="Times New Roman,serif" font-size="8.00">0...*</text>
<text text-anchor="middle" x="99.3486" y="-250.362" font-family="Times New Roman,serif" font-size="8.00">0...*</text>
</g>
</g>
</svg>
