<?xml version="1.0" encoding="UTF-8" standalone="no"?>
<!DOCTYPE svg PUBLIC "-//W3C//DTD SVG 1.1//EN"
 "http://www.w3.org/Graphics/SVG/1.1/DTD/svg11.dtd">
<!-- Generated by graphviz version 2.38.0 (20140413.2041)
 -->
<!-- Title: G Pages: 1 -->
<svg width="287pt" height="584pt"
 viewBox="0.00 0.00 286.79 584.00" xmlns="http://www.w3.org/2000/svg" xmlns:xlink="http://www.w3.org/1999/xlink">
<filter id = "dropshadow" height = "130%" ><feGaussianBlur in= "SourceAlpha" stdDeviation = "3"/><!--stdDeviation is how much to blur--><feOffset dx = "2" dy = "2" result = "offsetblur"/><!--how much to offset--><feMerge><feMergeNode/><!--this contains the offset blurred image--><feMergeNode in= "SourceGraphic"/><!--this contains the element that the filter is applied to --></feMerge></filter>
<g id="graph0" class="graph" transform="scale(1 1) rotate(0) translate(4 580)">
<title>G</title>
<!-- ValueType -->
<g id="ReusableTypeValueType" class="node"><title></title><polygon fill="#f7b733" stroke="black" points="205.79,-270 205.79,-306 278.79,-306 278.79,-270 205.79,-270" style="filter: url(#dropshadow)"/>
<text text-anchor="middle" x="232.79" y="-286.1" font-family="Times New Roman,serif" font-size="8.00">ValueType</text>
<polyline fill="none" stroke="black" points="259.79,-270 259.79,-306 "/>
<text text-anchor="middle" x="269.29" y="-286.1" font-family="Times New Roman,serif" font-size="8.00"> </text>
</g>
<!-- AttributeType -->
<g id="ReusableTypeAttributeType" class="node"><title></title><ellipse fill="#f7b733" stroke="black" cx="62.3951" cy="-558" rx="38.0086" ry="18" style="filter: url(#dropshadow)"/>
<text text-anchor="middle" x="62.3951" y="-556.1" font-family="Times New Roman,serif" font-size="8.00">AttributeType</text>
</g>
<!-- AttributeType&#45;&gt;ValueType -->
<g id="edge1" class="edge"><title>AttributeType&#45;&gt;ValueType</title>
<path fill="none" stroke="black" d="M93.1088,-547.141C122.267,-534.837 165.504,-511.845 187.79,-477 223.436,-421.267 235.78,-341.465 239.668,-306.081"/>
<text text-anchor="middle" x="165.29" y="-521.6" font-family="Times New Roman,serif" font-size="8.00">Value</text>
</g>
<!-- CategoryValueType -->
<g id="ReusableTypeCategoryValueType" class="node"><title></title><ellipse fill="#f7b733" stroke="black" cx="62.3951" cy="-504" rx="48.5642" ry="18" style="filter: url(#dropshadow)"/>
<text text-anchor="middle" x="62.3951" y="-502.1" font-family="Times New Roman,serif" font-size="8.00">CategoryValueType</text>
</g>
<!-- CategoryValueType&#45;&gt;ValueType -->
<g id="edge2" class="edge"><title>CategoryValueType&#45;&gt;ValueType</title>
<path fill="none" stroke="black" d="M97.1263,-491.287C106.378,-487.24 116.215,-482.394 124.79,-477 156.007,-457.365 166.37,-453.02 187.79,-423 214.294,-385.854 230.064,-333.749 237.03,-306.407"/>
<text text-anchor="middle" x="165.29" y="-466.6" font-family="Times New Roman,serif" font-size="8.00">Value</text>
</g>
<!-- CodeType -->
<g id="ReusableTypeCodeType" class="node"><title></title><ellipse fill="#f7b733" stroke="black" cx="62.3951" cy="-450" rx="30.1263" ry="18" style="filter: url(#dropshadow)"/>
<text text-anchor="middle" x="62.3951" y="-448.1" font-family="Times New Roman,serif" font-size="8.00">CodeType</text>
</g>
<!-- CodeType&#45;&gt;ValueType -->
<g id="edge3" class="edge"><title>CodeType&#45;&gt;ValueType</title>
<path fill="none" stroke="black" d="M88.4077,-440.891C99.8787,-436.245 113.423,-430.077 124.79,-423 155.853,-403.661 163.533,-397.394 187.79,-370 205.595,-349.893 221.801,-323.37 231.6,-306.01"/>
<text text-anchor="middle" x="165.29" y="-412.6" font-family="Times New Roman,serif" font-size="8.00">Value</text>
</g>
<!-- DimensionRankValueType -->
<g id="ReusableTypeDimensionRankValueType" class="node"><title></title><ellipse fill="#f7b733" stroke="black" cx="62.3951" cy="-396" rx="62.2904" ry="18" style="filter: url(#dropshadow)"/>
<text text-anchor="middle" x="62.3951" y="-394.1" font-family="Times New Roman,serif" font-size="8.00">DimensionRankValueType</text>
</g>
<!-- DimensionRankValueType&#45;&gt;ValueType -->
<g id="edge4" class="edge"><title>DimensionRankValueType&#45;&gt;ValueType</title>
<path fill="none" stroke="black" d="M99.2188,-381.335C107.72,-377.558 116.674,-373.329 124.79,-369 159.349,-350.566 195.92,-323.784 218.673,-306.135"/>
<text text-anchor="middle" x="165.29" y="-359.6" font-family="Times New Roman,serif" font-size="8.00">Value</text>
</g>
<!-- DomainSpecificValueType -->
<g id="ReusableTypeDomainSpecificValueType" class="node"><title></title><ellipse fill="#f7b733" stroke="black" cx="62.3951" cy="-342" rx="61.6562" ry="18" style="filter: url(#dropshadow)"/>
<text text-anchor="middle" x="62.3951" y="-340.1" font-family="Times New Roman,serif" font-size="8.00">DomainSpecificValueType</text>
</g>
<!-- DomainSpecificValueType&#45;&gt;ValueType -->
<g id="edge5" class="edge"><title>DomainSpecificValueType&#45;&gt;ValueType</title>
<path fill="none" stroke="black" d="M106.005,-329.066C136.431,-319.83 176.893,-307.548 205.618,-298.828"/>
<text text-anchor="middle" x="165.29" y="-318.6" font-family="Times New Roman,serif" font-size="8.00">Value</text>
</g>
<!-- FixedCellValueType -->
<g id="ReusableTypeFixedCellValueType" class="node"><title></title><ellipse fill="#f7b733" stroke="black" cx="62.3951" cy="-288" rx="48.5642" ry="18" style="filter: url(#dropshadow)"/>
<text text-anchor="middle" x="62.3951" y="-286.1" font-family="Times New Roman,serif" font-size="8.00">FixedCellValueType</text>
</g>
<!-- FixedCellValueType&#45;&gt;ValueType -->
<g id="edge6" class="edge"><title>FixedCellValueType&#45;&gt;ValueType</title>
<path fill="none" stroke="black" d="M111.536,-288C141.171,-288 178.522,-288 205.531,-288"/>
<text text-anchor="middle" x="165.29" y="-290.6" font-family="Times New Roman,serif" font-size="8.00">Value</text>
</g>
<!-- ItemValueType -->
<g id="ReusableTypeItemValueType" class="node"><title></title><ellipse fill="#f7b733" stroke="black" cx="62.3951" cy="-234" rx="40.0477" ry="18" style="filter: url(#dropshadow)"/>
<text text-anchor="middle" x="62.3951" y="-232.1" font-family="Times New Roman,serif" font-size="8.00">ItemValueType</text>
</g>
<!-- ItemValueType&#45;&gt;ValueType -->
<g id="edge7" class="edge"><title>ItemValueType&#45;&gt;ValueType</title>
<path fill="none" stroke="black" d="M96.0238,-243.904C127.018,-253.313 173.512,-267.426 205.508,-277.138"/>
<text text-anchor="middle" x="165.29" y="-272.6" font-family="Times New Roman,serif" font-size="8.00">Value</text>
</g>
<!-- ParameterType -->
<g id="ReusableTypeParameterType" class="node"><title></title><ellipse fill="#f7b733" stroke="black" cx="62.3951" cy="-180" rx="40.0477" ry="18" style="filter: url(#dropshadow)"/>
<text text-anchor="middle" x="62.3951" y="-178.1" font-family="Times New Roman,serif" font-size="8.00">ParameterType</text>
</g>
<!-- ParameterType&#45;&gt;ValueType -->
<g id="edge8" class="edge"><title>ParameterType&#45;&gt;ValueType</title>
<path fill="none" stroke="black" d="M92.8353,-191.953C103.095,-196.379 114.588,-201.633 124.79,-207 153.934,-222.333 160.797,-227.137 187.79,-246 198.437,-253.44 209.812,-262.241 219.324,-269.86"/>
<text text-anchor="middle" x="165.29" y="-248.6" font-family="Times New Roman,serif" font-size="8.00">DefaultValue</text>
</g>
<!-- RecordType -->
<g id="ReusableTypeRecordType0" class="node"><title></title><ellipse fill="#f7b733" stroke="black" cx="62.3951" cy="-126" rx="33.433" ry="18" style="filter: url(#dropshadow)"/>
<text text-anchor="middle" x="62.3951" y="-124.1" font-family="Times New Roman,serif" font-size="8.00">RecordType</text>
</g>
<!-- RecordType&#45;&gt;ValueType -->
<g id="edge9" class="edge"><title>RecordType&#45;&gt;ValueType</title>
<path fill="none" stroke="black" d="M90.4621,-136.075C101.447,-140.626 114.052,-146.455 124.79,-153 155.551,-171.75 163.801,-177.124 187.79,-204 206.096,-224.51 222.301,-251.946 231.953,-269.793"/>
<text text-anchor="middle" x="165.29" y="-206.6" font-family="Times New Roman,serif" font-size="8.00">Value</text>
</g>
<!-- UsedType -->
<g id="ReusableTypeUsedType1" class="node"><title></title><ellipse fill="#f7b733" stroke="black" cx="62.3951" cy="-72" rx="29.4917" ry="18" style="filter: url(#dropshadow)"/>
<text text-anchor="middle" x="62.3951" y="-70.1" font-family="Times New Roman,serif" font-size="8.00">UsedType</text>
</g>
<!-- UsedType&#45;&gt;ValueType -->
<g id="edge10" class="edge"><title>UsedType&#45;&gt;ValueType</title>
<path fill="none" stroke="black" d="M87.9471,-81.0354C116.347,-92.7659 162.439,-115.976 187.79,-151 215.038,-188.645 230.584,-242.008 237.294,-269.713"/>
<text text-anchor="middle" x="165.29" y="-153.6" font-family="Times New Roman,serif" font-size="8.00">DefaultValue</text>
</g>
<!-- VariableItemType -->
<g id="ReusableTypeVariableItemType2" class="node"><title></title><ellipse fill="#f7b733" stroke="black" cx="62.3951" cy="-18" rx="45.2568" ry="18" style="filter: url(#dropshadow)"/>
<text text-anchor="middle" x="62.3951" y="-16.1" font-family="Times New Roman,serif" font-size="8.00">VariableItemType</text>
</g>
<!-- VariableItemType&#45;&gt;ValueType -->
<g id="edge11" class="edge"><title>VariableItemType&#45;&gt;ValueType</title>
<path fill="none" stroke="black" d="M96.6676,-29.9037C125.649,-42.0977 166.3,-63.9786 187.79,-97 224.324,-153.137 236.226,-234.226 239.836,-269.946"/>
<text text-anchor="middle" x="165.29" y="-99.6" font-family="Times New Roman,serif" font-size="8.00">Value</text>
</g>
</g>
</svg>
