<?xml version="1.0" encoding="UTF-8" standalone="no"?>
<!DOCTYPE svg PUBLIC "-//W3C//DTD SVG 1.1//EN"
 "http://www.w3.org/Graphics/SVG/1.1/DTD/svg11.dtd">
<!-- Generated by graphviz version 2.38.0 (20140413.2041)
 -->
<!-- Title: G Pages: 1 -->
<svg width="1308pt" height="385pt"
 viewBox="0.00 0.00 1307.95 385.00" xmlns="http://www.w3.org/2000/svg" xmlns:xlink="http://www.w3.org/1999/xlink">
<filter id = "dropshadow" height = "130%" ><feGaussianBlur in= "SourceAlpha" stdDeviation = "3"/><!--stdDeviation is how much to blur--><feOffset dx = "2" dy = "2" result = "offsetblur"/><!--how much to offset--><feMerge><feMergeNode/><!--this contains the offset blurred image--><feMergeNode in= "SourceGraphic"/><!--this contains the element that the filter is applied to --></feMerge></filter>
<g id="graph0" class="graph" transform="scale(1 1) rotate(0) translate(4 381)">
<title>G</title>
<g id="clust1" class="cluster"><title>clusterWeighting</title>
<polygon fill="#4abdac" stroke="black" points="208.95,-100 208.95,-369 1291.95,-369 1291.95,-100 208.95,-100" style="filter: url(#dropshadow)"/>
<text text-anchor="middle" x="750.45" y="-358.6" font-family="Times New Roman,serif" font-size="8.00">Weighting</text>
</g>
<!-- WeightingProperties -->
<g id="ItemTypeWeightingProperties" class="node"><title></title><polygon fill="#f7b733" stroke="black" points="216.95,-144.5 216.95,-215.5 516.95,-215.5 516.95,-144.5 216.95,-144.5" style="filter: url(#dropshadow)"/>
<text text-anchor="middle" x="243.45" y="-178.1" font-family="Times New Roman,serif" font-size="8.00">Properties</text>
<polyline fill="none" stroke="black" points="269.95,-144.5 269.95,-215.5 "/>
<text text-anchor="start" x="277.95" y="-205.1" font-family="Times New Roman,serif" font-size="8.00">TypeOfWeighting : CodeValueType[0...1] </text>
<text text-anchor="start" x="277.95" y="-196.1" font-family="Times New Roman,serif" font-size="8.00">Description : StructuredStringType[0...1] </text>
<text text-anchor="start" x="277.95" y="-187.1" font-family="Times New Roman,serif" font-size="8.00">WeightingMethodologyReference : WeightingMethodology[0...n] </text>
<text text-anchor="start" x="277.95" y="-178.1" font-family="Times New Roman,serif" font-size="8.00">AnalysisUnit : CodeValueType[0...1] </text>
<text text-anchor="start" x="277.95" y="-169.1" font-family="Times New Roman,serif" font-size="8.00">UsageGuide : UsageGuideType[0...1] </text>
<text text-anchor="start" x="277.95" y="-160.1" font-family="Times New Roman,serif" font-size="8.00">StandardWeight : StandardWeightType[0...n] </text>
<text text-anchor="start" x="277.95" y="-151.1" font-family="Times New Roman,serif" font-size="8.00">BasedOnSampleReference : Sample[0...n] </text>
</g>
<!-- WeightingCodeValueType -->
<g id="ReusableTypeWeightingCodeValueType" class="node"><title></title><polygon fill="#fc4a1a" stroke="black" points="680.95,-108.5 680.95,-179.5 939.95,-179.5 939.95,-108.5 680.95,-108.5" style="filter: url(#dropshadow)"/>
<text text-anchor="middle" x="716.45" y="-142.1" font-family="Times New Roman,serif" font-size="8.00">CodeValueType</text>
<polyline fill="none" stroke="black" points="751.95,-108.5 751.95,-179.5 "/>
<text text-anchor="start" x="759.95" y="-169.1" font-family="Times New Roman,serif" font-size="8.00">ControlledVocabularyID : string[0...1] </text>
<text text-anchor="start" x="759.95" y="-160.1" font-family="Times New Roman,serif" font-size="8.00">ControlledVocabularyName : string[0...1] </text>
<text text-anchor="start" x="759.95" y="-151.1" font-family="Times New Roman,serif" font-size="8.00">ControlledVocabularyAgencyName : string[0...1] </text>
<text text-anchor="start" x="759.95" y="-142.1" font-family="Times New Roman,serif" font-size="8.00">ControlledVocabularyVersionID : string[0...1] </text>
<text text-anchor="start" x="759.95" y="-133.1" font-family="Times New Roman,serif" font-size="8.00">OtherValue : string[0...1] </text>
<text text-anchor="start" x="759.95" y="-124.1" font-family="Times New Roman,serif" font-size="8.00">ControlledVocabularyURN : string[0...1] </text>
<text text-anchor="start" x="759.95" y="-115.1" font-family="Times New Roman,serif" font-size="8.00">ControlledVocabularySchemeURN : string[0...1] </text>
</g>
<!-- WeightingProperties&#45;&gt;WeightingCodeValueType -->
<g id="edge1" class="edge"><title>WeightingProperties&#45;&gt;WeightingCodeValueType</title>
<path fill="none" stroke="black" d="M517.114,-167.837C570.167,-163.511 629.405,-158.681 680.612,-154.505"/>
<text text-anchor="middle" x="593.95" y="-169.6" font-family="Times New Roman,serif" font-size="8.00">TypeOfWeighting</text>
</g>
<!-- WeightingStructuredStringType -->
<g id="ReusableTypeWeightingStructuredStringType" class="node"><title></title><polygon fill="#fc4a1a" stroke="black" points="1070.95,-238 1070.95,-274 1283.95,-274 1283.95,-238 1070.95,-238" style="filter: url(#dropshadow)"/>
<text text-anchor="middle" x="1115.95" y="-254.1" font-family="Times New Roman,serif" font-size="8.00">StructuredStringType</text>
<polyline fill="none" stroke="black" points="1160.95,-238 1160.95,-274 "/>
<text text-anchor="start" x="1168.95" y="-254.1" font-family="Times New Roman,serif" font-size="8.00">Content : ContentType[0...n] </text>
</g>
<!-- WeightingProperties&#45;&gt;WeightingStructuredStringType -->
<g id="edge2" class="edge"><title>WeightingProperties&#45;&gt;WeightingStructuredStringType</title>
<path fill="none" stroke="black" d="M517.031,-187.862C656.079,-196.167 869.089,-211.375 1052.95,-235 1059.96,-235.901 1067.18,-236.911 1074.45,-237.989"/>
<text text-anchor="middle" x="810.45" y="-224.6" font-family="Times New Roman,serif" font-size="8.00">Description</text>
</g>
<!-- WeightingMethodology -->
<g id="ItemTypeWeightingMethodology" class="node"><title></title><ellipse fill="#f7b733" stroke="black" cx="810.45" cy="-72" rx="56.3116" ry="18" style="filter: url(#dropshadow)"/>
<text text-anchor="middle" x="810.45" y="-70.1" font-family="Times New Roman,serif" font-size="8.00">WeightingMethodology</text>
</g>
<!-- WeightingProperties&#45;&gt;WeightingMethodology -->
<g id="edge3" class="edge"><title>WeightingProperties&#45;&gt;WeightingMethodology</title>
<path fill="none" stroke="black" d="M485.622,-144.461C541.456,-128.35 609.301,-109.851 670.95,-96 699.998,-89.4735 732.814,-83.7169 759.211,-79.4786"/>
<text text-anchor="middle" x="593.95" y="-132.6" font-family="Times New Roman,serif" font-size="8.00">WeightingMethodologyReference</text>
<text text-anchor="middle" x="751.211" y="-73.0786" font-family="Times New Roman,serif" font-size="8.00">0...*</text>
<text text-anchor="middle" x="477.622" y="-138.061" font-family="Times New Roman,serif" font-size="8.00">0...*</text>
</g>
<!-- WeightingUsageGuideType -->
<g id="ReusableTypeWeightingUsageGuideType" class="node"><title></title><polygon fill="#fc4a1a" stroke="black" points="670.95,-244 670.95,-288 949.95,-288 949.95,-244 670.95,-244" style="filter: url(#dropshadow)"/>
<text text-anchor="middle" x="707.95" y="-264.1" font-family="Times New Roman,serif" font-size="8.00">UsageGuideType</text>
<polyline fill="none" stroke="black" points="744.95,-244 744.95,-288 "/>
<text text-anchor="start" x="752.95" y="-277.6" font-family="Times New Roman,serif" font-size="8.00">UsageExample : StructuredStringType[0...1] </text>
<text text-anchor="start" x="752.95" y="-268.6" font-family="Times New Roman,serif" font-size="8.00">UsageRestrictions : StructuredStringType[0...1] </text>
<text text-anchor="start" x="752.95" y="-259.6" font-family="Times New Roman,serif" font-size="8.00">UsageRecommendations : StructuredStringType[0...1] </text>
<text text-anchor="start" x="752.95" y="-250.6" font-family="Times New Roman,serif" font-size="8.00">CommandCode : CommandCodeType[0...n] </text>
</g>
<!-- WeightingProperties&#45;&gt;WeightingUsageGuideType -->
<g id="edge4" class="edge"><title>WeightingProperties&#45;&gt;WeightingUsageGuideType</title>
<path fill="none" stroke="black" d="M509.451,-215.552C518.064,-217.464 526.614,-219.296 534.95,-221 578.952,-229.994 627.21,-238.392 670.826,-245.44"/>
<text text-anchor="middle" x="593.95" y="-243.6" font-family="Times New Roman,serif" font-size="8.00">UsageGuide</text>
<text text-anchor="middle" x="662.826" y="-239.04" font-family="Times New Roman,serif" font-size="8.00">0...*</text>
<text text-anchor="middle" x="517.451" y="-218.152" font-family="Times New Roman,serif" font-size="8.00">0...*</text>
</g>
<!-- WeightingStandardWeightType -->
<g id="ReusableTypeWeightingStandardWeightType" class="node"><title></title><polygon fill="#fc4a1a" stroke="black" points="696.95,-307 696.95,-343 923.95,-343 923.95,-307 696.95,-307" style="filter: url(#dropshadow)"/>
<text text-anchor="middle" x="741.95" y="-323.1" font-family="Times New Roman,serif" font-size="8.00">StandardWeightType</text>
<polyline fill="none" stroke="black" points="786.95,-307 786.95,-343 "/>
<text text-anchor="start" x="794.95" y="-323.1" font-family="Times New Roman,serif" font-size="8.00">StandardWeightValue : float[0...1] </text>
</g>
<!-- WeightingProperties&#45;&gt;WeightingStandardWeightType -->
<g id="edge5" class="edge"><title>WeightingProperties&#45;&gt;WeightingStandardWeightType</title>
<path fill="none" stroke="black" d="M443.739,-215.584C472.085,-228.361 504.734,-242.454 534.95,-254 594.294,-276.677 609.439,-282.116 670.95,-298 683.284,-301.185 696.322,-304.19 709.269,-306.957"/>
<text text-anchor="middle" x="593.95" y="-294.6" font-family="Times New Roman,serif" font-size="8.00">StandardWeight</text>
<text text-anchor="middle" x="701.269" y="-300.557" font-family="Times New Roman,serif" font-size="8.00">0...*</text>
<text text-anchor="middle" x="435.739" y="-218.184" font-family="Times New Roman,serif" font-size="8.00">0...*</text>
</g>
<!-- Sample -->
<g id="ItemTypeSample" class="node"><title></title><ellipse fill="#f7b733" stroke="black" cx="810.45" cy="-18" rx="27" ry="18" style="filter: url(#dropshadow)"/>
<text text-anchor="middle" x="810.45" y="-16.1" font-family="Times New Roman,serif" font-size="8.00">Sample</text>
</g>
<!-- WeightingProperties&#45;&gt;Sample -->
<g id="edge6" class="edge"><title>WeightingProperties&#45;&gt;Sample</title>
<path fill="none" stroke="black" d="M426.897,-144.377C458.278,-126.318 497.941,-104.906 534.95,-89 593.317,-63.915 609.439,-60.8845 670.95,-45 709.969,-34.9239 756.03,-26.6487 783.972,-22.0204"/>
<text text-anchor="middle" x="593.95" y="-91.6" font-family="Times New Roman,serif" font-size="8.00">BasedOnSampleReference</text>
<text text-anchor="middle" x="775.972" y="-15.6204" font-family="Times New Roman,serif" font-size="8.00">0...*</text>
<text text-anchor="middle" x="418.897" y="-137.977" font-family="Times New Roman,serif" font-size="8.00">0...*</text>
</g>
<!-- WeightingUsageGuideType&#45;&gt;WeightingStructuredStringType -->
<g id="edge7" class="edge"><title>WeightingUsageGuideType&#45;&gt;WeightingStructuredStringType</title>
<path fill="none" stroke="black" d="M938.511,-243.978C948.45,-242.783 958.35,-241.762 967.95,-241 1005.61,-238.011 1015.24,-238.718 1052.95,-241 1058.77,-241.352 1064.74,-241.797 1070.75,-242.311"/>
<text text-anchor="middle" x="1010.45" y="-243.6" font-family="Times New Roman,serif" font-size="8.00">UsageExample</text>
<text text-anchor="middle" x="1062.75" y="-235.911" font-family="Times New Roman,serif" font-size="8.00">0...*</text>
<text text-anchor="middle" x="930.511" y="-237.578" font-family="Times New Roman,serif" font-size="8.00">0...*</text>
</g>
<!-- WeightingUsageGuideType&#45;&gt;WeightingStructuredStringType -->
<g id="edge8" class="edge"><title>WeightingUsageGuideType&#45;&gt;WeightingStructuredStringType</title>
<path fill="none" stroke="black" d="M949.961,-262.205C989.993,-261.108 1033.03,-259.929 1070.72,-258.897"/>
<text text-anchor="middle" x="1010.45" y="-263.6" font-family="Times New Roman,serif" font-size="8.00">UsageRestrictions</text>
<text text-anchor="middle" x="1062.72" y="-252.497" font-family="Times New Roman,serif" font-size="8.00">0...*</text>
<text text-anchor="middle" x="957.961" y="-255.805" font-family="Times New Roman,serif" font-size="8.00">0...*</text>
</g>
<!-- WeightingUsageGuideType&#45;&gt;WeightingStructuredStringType -->
<g id="edge9" class="edge"><title>WeightingUsageGuideType&#45;&gt;WeightingStructuredStringType</title>
<path fill="none" stroke="black" d="M950.11,-275.603C983.793,-276.553 1019.69,-276.411 1052.95,-274 1058.78,-273.577 1064.76,-273.043 1070.79,-272.426"/>
<text text-anchor="middle" x="1010.45" y="-278.6" font-family="Times New Roman,serif" font-size="8.00">UsageRecommendations</text>
<text text-anchor="middle" x="1062.79" y="-266.026" font-family="Times New Roman,serif" font-size="8.00">0...*</text>
<text text-anchor="middle" x="958.11" y="-269.203" font-family="Times New Roman,serif" font-size="8.00">0...*</text>
</g>
<!-- ProcessingEvent -->
<g id="ItemTypeProcessingEvent" class="node"><title></title><ellipse fill="#f7b733" stroke="black" cx="41.9749" cy="-207" rx="41.9498" ry="18" style="filter: url(#dropshadow)"/>
<text text-anchor="middle" x="41.9749" y="-205.1" font-family="Times New Roman,serif" font-size="8.00">ProcessingEvent</text>
</g>
<!-- ProcessingEvent&#45;&gt;WeightingProperties -->
<g id="edge10" class="edge"><title>ProcessingEvent&#45;&gt;WeightingProperties</title>
<path fill="none" stroke="black" d="M83.2268,-203.635C115.329,-200.951 162.495,-197.008 209.14,-193.109"/>
<text text-anchor="middle" x="150.45" y="-203.6" font-family="Times New Roman,serif" font-size="8.00">WeightingReference</text>
<text text-anchor="middle" x="201.14" y="-186.709" font-family="Times New Roman,serif" font-size="8.00">0...*</text>
<text text-anchor="middle" x="91.2268" y="-197.235" font-family="Times New Roman,serif" font-size="8.00">0...*</text>
</g>
<!-- Variable -->
<g id="ItemTypeVariable" class="node"><title></title><ellipse fill="#f7b733" stroke="black" cx="41.9749" cy="-153" rx="27" ry="18" style="filter: url(#dropshadow)"/>
<text text-anchor="middle" x="41.9749" y="-151.1" font-family="Times New Roman,serif" font-size="8.00">Variable</text>
</g>
<!-- Variable&#45;&gt;WeightingProperties -->
<g id="edge11" class="edge"><title>Variable&#45;&gt;WeightingProperties</title>
<path fill="none" stroke="black" d="M68.8593,-155.164C100.026,-157.769 154.973,-162.363 209.207,-166.897"/>
<text text-anchor="middle" x="150.45" y="-168.6" font-family="Times New Roman,serif" font-size="8.00">WeightingProcessReference</text>
<text text-anchor="middle" x="201.207" y="-160.497" font-family="Times New Roman,serif" font-size="8.00">0...*</text>
<text text-anchor="middle" x="76.8593" y="-148.764" font-family="Times New Roman,serif" font-size="8.00">0...*</text>
</g>
</g>
</svg>
