<?xml version="1.0" encoding="UTF-8" standalone="no"?>
<!DOCTYPE svg PUBLIC "-//W3C//DTD SVG 1.1//EN"
 "http://www.w3.org/Graphics/SVG/1.1/DTD/svg11.dtd">
<!-- Generated by graphviz version 2.38.0 (20140413.2041)
 -->
<!-- Title: G Pages: 1 -->
<svg width="564pt" height="208pt"
 viewBox="0.00 0.00 564.45 208.00" xmlns="http://www.w3.org/2000/svg" xmlns:xlink="http://www.w3.org/1999/xlink">
<filter id = "dropshadow" height = "130%" ><feGaussianBlur in= "SourceAlpha" stdDeviation = "3"/><!--stdDeviation is how much to blur--><feOffset dx = "2" dy = "2" result = "offsetblur"/><!--how much to offset--><feMerge><feMergeNode/><!--this contains the offset blurred image--><feMergeNode in= "SourceGraphic"/><!--this contains the element that the filter is applied to --></feMerge></filter>
<g id="graph0" class="graph" transform="scale(1 1) rotate(0) translate(4 204)">
<title>G</title>
<g id="clust1" class="cluster"><title>clusterExpression</title>
<polygon fill="#4abdac" stroke="black" points="121.454,-83 121.454,-180 548.454,-180 548.454,-83 121.454,-83" style="filter: url(#dropshadow)"/>
<text text-anchor="middle" x="334.954" y="-169.6" font-family="Times New Roman,serif" font-size="8.00">Expression</text>
</g>
<!-- ExpressionProperties -->
<g id="ReusableTypeExpressionProperties" class="node"><title></title><polygon fill="#f7b733" stroke="black" points="129.454,-92 129.454,-154 300.454,-154 300.454,-92 129.454,-92" style="filter: url(#dropshadow)"/>
<text text-anchor="middle" x="155.954" y="-121.1" font-family="Times New Roman,serif" font-size="8.00">Properties</text>
<polyline fill="none" stroke="black" points="182.454,-92 182.454,-154 "/>
<text text-anchor="start" x="190.454" y="-143.6" font-family="Times New Roman,serif" font-size="8.00">Operator : Operator[0...1] </text>
<text text-anchor="start" x="190.454" y="-134.6" font-family="Times New Roman,serif" font-size="8.00">TextConstant : string[0...1] </text>
<text text-anchor="start" x="190.454" y="-125.6" font-family="Times New Roman,serif" font-size="8.00">NumericConstant : int[0...1] </text>
<text text-anchor="start" x="190.454" y="-116.6" font-family="Times New Roman,serif" font-size="8.00">NullConstant : string[0...1] </text>
<text text-anchor="start" x="190.454" y="-107.6" font-family="Times New Roman,serif" font-size="8.00">Varname : string[0...1] </text>
<text text-anchor="start" x="190.454" y="-98.6" font-family="Times New Roman,serif" font-size="8.00">Missing : string[0...1] </text>
</g>
<!-- ExpressionOperator -->
<g id="ReusableTypeExpressionOperator" class="node"><title></title><polygon fill="#fc4a1a" stroke="black" points="368.454,-105 368.454,-141 540.454,-141 540.454,-105 368.454,-105" style="filter: url(#dropshadow)"/>
<text text-anchor="middle" x="392.454" y="-121.1" font-family="Times New Roman,serif" font-size="8.00">Operator</text>
<polyline fill="none" stroke="black" points="416.454,-105 416.454,-141 "/>
<text text-anchor="start" x="424.454" y="-125.6" font-family="Times New Roman,serif" font-size="8.00">OperatorSymbol : string[0...1] </text>
<text text-anchor="start" x="424.454" y="-116.6" font-family="Times New Roman,serif" font-size="8.00">Operands : Expression[0...n] </text>
</g>
<!-- ExpressionProperties&#45;&gt;ExpressionOperator -->
<g id="edge1" class="edge"><title>ExpressionProperties&#45;&gt;ExpressionOperator</title>
<path fill="none" stroke="black" d="M300.691,-123C322.672,-123 346.35,-123 368.35,-123"/>
<text text-anchor="middle" x="334.454" y="-125.6" font-family="Times New Roman,serif" font-size="8.00">Operator</text>
</g>
<!-- Compute -->
<g id="ItemTypeCompute" class="node"><title></title><ellipse fill="#f7b733" stroke="black" cx="27.227" cy="-182" rx="27.4558" ry="18" style="filter: url(#dropshadow)"/>
<text text-anchor="middle" x="27.227" y="-180.1" font-family="Times New Roman,serif" font-size="8.00">Compute</text>
</g>
<!-- Compute&#45;&gt;ExpressionProperties -->
<g id="edge2" class="edge"><title>Compute&#45;&gt;ExpressionProperties</title>
<path fill="none" stroke="black" d="M54.0347,-178.014C70.6302,-175.137 92.547,-170.749 111.454,-165 114.865,-163.963 118.32,-162.856 121.793,-161.694"/>
<text text-anchor="middle" x="91.9539" y="-177.6" font-family="Times New Roman,serif" font-size="8.00">Expression</text>
</g>
<!-- Compute&#45;&gt;ExpressionProperties -->
<g id="edge3" class="edge"><title>Compute&#45;&gt;ExpressionProperties</title>
<path fill="none" stroke="black" d="M46.956,-169.291C54.5978,-164.564 63.6872,-159.504 72.4539,-156 87.9927,-149.788 104.98,-144.58 121.622,-140.272"/>
<text text-anchor="middle" x="91.9539" y="-158.6" font-family="Times New Roman,serif" font-size="8.00">Condition</text>
</g>
<!-- DoIf -->
<g id="ItemTypeDoIf" class="node"><title></title><ellipse fill="#f7b733" stroke="black" cx="27.227" cy="-126" rx="27" ry="18" style="filter: url(#dropshadow)"/>
<text text-anchor="middle" x="27.227" y="-124.1" font-family="Times New Roman,serif" font-size="8.00">DoIf</text>
</g>
<!-- DoIf&#45;&gt;ExpressionProperties -->
<g id="edge4" class="edge"><title>DoIf&#45;&gt;ExpressionProperties</title>
<path fill="none" stroke="black" d="M54.4137,-124.65C60.3442,-124.391 66.6144,-124.153 72.4539,-124 88.4263,-123.583 105.416,-123.313 121.875,-123.142"/>
<text text-anchor="middle" x="91.9539" y="-126.6" font-family="Times New Roman,serif" font-size="8.00">Condition</text>
</g>
<!-- Select -->
<g id="ItemTypeSelect" class="node"><title></title><ellipse fill="#f7b733" stroke="black" cx="27.227" cy="-72" rx="27" ry="18" style="filter: url(#dropshadow)"/>
<text text-anchor="middle" x="27.227" y="-70.1" font-family="Times New Roman,serif" font-size="8.00">Select</text>
</g>
<!-- Select&#45;&gt;ExpressionProperties -->
<g id="edge5" class="edge"><title>Select&#45;&gt;ExpressionProperties</title>
<path fill="none" stroke="black" d="M52.5075,-78.6674C70.4829,-83.6034 96.2045,-90.6664 121.849,-97.7083"/>
<text text-anchor="middle" x="91.9539" y="-97.6" font-family="Times New Roman,serif" font-size="8.00">Condition</text>
</g>
<!-- Operator -->
<g id="ReusableTypeOperator" class="node"><title></title><ellipse fill="#f7b733" stroke="black" cx="27.227" cy="-18" rx="27.4558" ry="18" style="filter: url(#dropshadow)"/>
<text text-anchor="middle" x="27.227" y="-16.1" font-family="Times New Roman,serif" font-size="8.00">Operator</text>
</g>
<!-- Operator&#45;&gt;ExpressionProperties -->
<g id="edge6" class="edge"><title>Operator&#45;&gt;ExpressionProperties</title>
<path fill="none" stroke="black" d="M48.4565,-29.4367C71.2849,-42.3426 109.682,-64.0505 143.747,-83.3091"/>
<text text-anchor="middle" x="91.9539" y="-67.6" font-family="Times New Roman,serif" font-size="8.00">Operands</text>
</g>
</g>
</svg>
