<?xml version="1.0" encoding="UTF-8" standalone="no"?>
<!DOCTYPE svg PUBLIC "-//W3C//DTD SVG 1.1//EN"
 "http://www.w3.org/Graphics/SVG/1.1/DTD/svg11.dtd">
<!-- Generated by graphviz version 2.38.0 (20140413.2041)
 -->
<!-- Title: G Pages: 1 -->
<svg width="507pt" height="150pt"
 viewBox="0.00 0.00 507.00 150.00" xmlns="http://www.w3.org/2000/svg" xmlns:xlink="http://www.w3.org/1999/xlink">
<filter id = "dropshadow" height = "130%" ><feGaussianBlur in= "SourceAlpha" stdDeviation = "3"/><!--stdDeviation is how much to blur--><feOffset dx = "2" dy = "2" result = "offsetblur"/><!--how much to offset--><feMerge><feMergeNode/><!--this contains the offset blurred image--><feMergeNode in= "SourceGraphic"/><!--this contains the element that the filter is applied to --></feMerge></filter>
<g id="graph0" class="graph" transform="scale(1 1) rotate(0) translate(4 146)">
<title>G</title>
<g id="clust1" class="cluster"><title>clusterRecode</title>
<polygon fill="#4abdac" stroke="black" points="8,-8 8,-134 491,-134 491,-8 8,-8" style="filter: url(#dropshadow)"/>
<text text-anchor="middle" x="249.5" y="-123.6" font-family="Times New Roman,serif" font-size="8.00">Recode</text>
</g>
<!-- RecodeProperties -->
<g id="ItemTypeRecodeProperties" class="node"><title></title><polygon fill="#f7b733" stroke="black" points="16,-33 16,-69 228,-69 228,-33 16,-33" style="filter: url(#dropshadow)"/>
<text text-anchor="middle" x="42.5" y="-49.1" font-family="Times New Roman,serif" font-size="8.00">Properties</text>
<polyline fill="none" stroke="black" points="69,-33 69,-69 "/>
<text text-anchor="start" x="77" y="-53.6" font-family="Times New Roman,serif" font-size="8.00">RecodedVariables : RecodeVariable[0...n] </text>
<text text-anchor="start" x="77" y="-44.6" font-family="Times New Roman,serif" font-size="8.00">Rules : RecodeRule[0...n] </text>
</g>
<!-- RecodeRecodeVariable -->
<g id="ReusableTypeRecodeRecodeVariable" class="node"><title></title><polygon fill="#fc4a1a" stroke="black" points="324,-17 324,-53 483,-53 483,-17 324,-17" style="filter: url(#dropshadow)"/>
<text text-anchor="middle" x="358.5" y="-33.1" font-family="Times New Roman,serif" font-size="8.00">RecodeVariable</text>
<polyline fill="none" stroke="black" points="393,-17 393,-53 "/>
<text text-anchor="start" x="401" y="-37.6" font-family="Times New Roman,serif" font-size="8.00">Source : string[0...1] </text>
<text text-anchor="start" x="401" y="-28.6" font-family="Times New Roman,serif" font-size="8.00">Target : string[0...1] </text>
</g>
<!-- RecodeProperties&#45;&gt;RecodeRecodeVariable -->
<g id="edge1" class="edge"><title>RecodeProperties&#45;&gt;RecodeRecodeVariable</title>
<path fill="none" stroke="black" d="M228.269,-44.9739C259.992,-43.1579 294.243,-41.1972 323.912,-39.4988"/>
<text text-anchor="middle" x="276" y="-46.6" font-family="Times New Roman,serif" font-size="8.00">RecodedVariables</text>
</g>
<!-- RecodeRecodeRule -->
<g id="ReusableTypeRecodeRecodeRule" class="node"><title></title><polygon fill="#fc4a1a" stroke="black" points="332.5,-72 332.5,-108 474.5,-108 474.5,-72 332.5,-72" style="filter: url(#dropshadow)"/>
<text text-anchor="middle" x="360.5" y="-88.1" font-family="Times New Roman,serif" font-size="8.00">RecodeRule</text>
<polyline fill="none" stroke="black" points="388.5,-72 388.5,-108 "/>
<text text-anchor="start" x="396.5" y="-97.1" font-family="Times New Roman,serif" font-size="8.00">From : string[0...n] </text>
<text text-anchor="start" x="396.5" y="-88.1" font-family="Times New Roman,serif" font-size="8.00">To : string[0...1] </text>
<text text-anchor="start" x="396.5" y="-79.1" font-family="Times New Roman,serif" font-size="8.00">Label : string[0...1] </text>
</g>
<!-- RecodeProperties&#45;&gt;RecodeRecodeRule -->
<g id="edge2" class="edge"><title>RecodeProperties&#45;&gt;RecodeRecodeRule</title>
<path fill="none" stroke="black" d="M228.269,-65.6887C263.086,-70.5469 300.95,-75.8302 332.459,-80.2268"/>
<text text-anchor="middle" x="276" y="-78.6" font-family="Times New Roman,serif" font-size="8.00">Rules</text>
</g>
</g>
</svg>
