<?xml version="1.0" encoding="UTF-8" standalone="no"?>
<!DOCTYPE svg PUBLIC "-//W3C//DTD SVG 1.1//EN"
 "http://www.w3.org/Graphics/SVG/1.1/DTD/svg11.dtd">
<!-- Generated by graphviz version 2.38.0 (20140413.2041)
 -->
<!-- Title: G Pages: 1 -->
<svg width="1165pt" height="426pt"
 viewBox="0.00 0.00 1164.66 426.00" xmlns="http://www.w3.org/2000/svg" xmlns:xlink="http://www.w3.org/1999/xlink">
<filter id = "dropshadow" height = "130%" ><feGaussianBlur in= "SourceAlpha" stdDeviation = "3"/><!--stdDeviation is how much to blur--><feOffset dx = "2" dy = "2" result = "offsetblur"/><!--how much to offset--><feMerge><feMergeNode/><!--this contains the offset blurred image--><feMergeNode in= "SourceGraphic"/><!--this contains the element that the filter is applied to --></feMerge></filter>
<g id="graph0" class="graph" transform="scale(1 1) rotate(0) translate(4 422)">
<title>G</title>
<g id="clust1" class="cluster"><title>clusterCategory</title>
<polygon fill="#4abdac" stroke="black" points="248.656,-140 248.656,-410 1148.66,-410 1148.66,-140 248.656,-140" style="filter: url(#dropshadow)"/>
<text text-anchor="middle" x="698.656" y="-399.6" font-family="Times New Roman,serif" font-size="8.00">Category</text>
</g>
<!-- CategoryProperties -->
<g id="ItemTypeCategoryProperties" class="node"><title></title><polygon fill="#f7b733" stroke="black" points="256.656,-171.5 256.656,-242.5 470.656,-242.5 470.656,-171.5 256.656,-171.5" style="filter: url(#dropshadow)"/>
<text text-anchor="middle" x="283.156" y="-205.1" font-family="Times New Roman,serif" font-size="8.00">Properties</text>
<polyline fill="none" stroke="black" points="309.656,-171.5 309.656,-242.5 "/>
<text text-anchor="start" x="317.656" y="-232.1" font-family="Times New Roman,serif" font-size="8.00">CategoryName : NameType[0...n] </text>
<text text-anchor="start" x="317.656" y="-223.1" font-family="Times New Roman,serif" font-size="8.00">Label : LabelType[0...n] </text>
<text text-anchor="start" x="317.656" y="-214.1" font-family="Times New Roman,serif" font-size="8.00">Description : StructuredStringType[0...1] </text>
<text text-anchor="start" x="317.656" y="-205.1" font-family="Times New Roman,serif" font-size="8.00">ConceptReference : Concept[0...1] </text>
<text text-anchor="start" x="317.656" y="-196.1" font-family="Times New Roman,serif" font-size="8.00">Generation : GenerationType[0...1] </text>
<text text-anchor="start" x="317.656" y="-187.1" font-family="Times New Roman,serif" font-size="8.00">SubCategoryReference : Category[0...n] </text>
<text text-anchor="start" x="317.656" y="-178.1" font-family="Times New Roman,serif" font-size="8.00">IsMissing : boolean[0...1] </text>
</g>
<!-- CategoryProperties&#45;&gt;CategoryProperties -->
<g id="edge9" class="edge"><title>CategoryProperties&#45;&gt;CategoryProperties</title>
<path fill="none" stroke="black" d="M334.493,-242.574C335.501,-252.957 345.222,-261 363.656,-261 382.089,-261 391.81,-252.957 392.818,-242.574"/>
<text text-anchor="middle" x="363.656" y="-263.6" font-family="Times New Roman,serif" font-size="8.00">SubCategoryReference</text>
<text text-anchor="middle" x="384.818" y="-245.174" font-family="Times New Roman,serif" font-size="8.00">0...*</text>
<text text-anchor="middle" x="326.493" y="-245.174" font-family="Times New Roman,serif" font-size="8.00">0...*</text>
</g>
<!-- CategoryNameType -->
<g id="ReusableTypeCategoryNameType" class="node"><title></title><polygon fill="#fc4a1a" stroke="black" points="608.656,-149 608.656,-185 777.656,-185 777.656,-149 608.656,-149" style="filter: url(#dropshadow)"/>
<text text-anchor="middle" x="636.656" y="-165.1" font-family="Times New Roman,serif" font-size="8.00">NameType</text>
<polyline fill="none" stroke="black" points="664.656,-149 664.656,-185 "/>
<text text-anchor="start" x="672.656" y="-169.6" font-family="Times New Roman,serif" font-size="8.00">IsPreferred : boolean[0...1] </text>
<text text-anchor="start" x="672.656" y="-160.6" font-family="Times New Roman,serif" font-size="8.00">Context : string[0...1] </text>
</g>
<!-- CategoryProperties&#45;&gt;CategoryNameType -->
<g id="edge1" class="edge"><title>CategoryProperties&#45;&gt;CategoryNameType</title>
<path fill="none" stroke="black" d="M470.986,-194.013C515.624,-188.561 566.782,-182.313 608.645,-177.2"/>
<text text-anchor="middle" x="520.656" y="-194.6" font-family="Times New Roman,serif" font-size="8.00">CategoryName</text>
</g>
<!-- CategoryLabelType -->
<g id="ReusableTypeCategoryLabelType" class="node"><title></title><polygon fill="#fc4a1a" stroke="black" points="591.656,-204.5 591.656,-257.5 794.656,-257.5 794.656,-204.5 591.656,-204.5" style="filter: url(#dropshadow)"/>
<text text-anchor="middle" x="618.656" y="-229.1" font-family="Times New Roman,serif" font-size="8.00">LabelType</text>
<polyline fill="none" stroke="black" points="645.656,-204.5 645.656,-257.5 "/>
<text text-anchor="start" x="653.656" y="-247.1" font-family="Times New Roman,serif" font-size="8.00">TypeOfLabel : CodeValueType[0...1] </text>
<text text-anchor="start" x="653.656" y="-238.1" font-family="Times New Roman,serif" font-size="8.00">LocationVariant : string[0...1] </text>
<text text-anchor="start" x="653.656" y="-229.1" font-family="Times New Roman,serif" font-size="8.00">ValidForStartDate : cogsDate[0...1] </text>
<text text-anchor="start" x="653.656" y="-220.1" font-family="Times New Roman,serif" font-size="8.00">ValidForEndDate : cogsDate[0...1] </text>
<text text-anchor="start" x="653.656" y="-211.1" font-family="Times New Roman,serif" font-size="8.00">MaxLength : int[0...1] </text>
</g>
<!-- CategoryProperties&#45;&gt;CategoryLabelType -->
<g id="edge2" class="edge"><title>CategoryProperties&#45;&gt;CategoryLabelType</title>
<path fill="none" stroke="black" d="M470.986,-214.792C509.741,-217.632 553.41,-220.832 591.644,-223.634"/>
<text text-anchor="middle" x="520.656" y="-223.6" font-family="Times New Roman,serif" font-size="8.00">Label</text>
</g>
<!-- CategoryStructuredStringType -->
<g id="ReusableTypeCategoryStructuredStringType" class="node"><title></title><polygon fill="#fc4a1a" stroke="black" points="927.656,-288 927.656,-324 1140.66,-324 1140.66,-288 927.656,-288" style="filter: url(#dropshadow)"/>
<text text-anchor="middle" x="972.656" y="-304.1" font-family="Times New Roman,serif" font-size="8.00">StructuredStringType</text>
<polyline fill="none" stroke="black" points="1017.66,-288 1017.66,-324 "/>
<text text-anchor="start" x="1025.66" y="-304.1" font-family="Times New Roman,serif" font-size="8.00">Content : ContentType[0...n] </text>
</g>
<!-- CategoryProperties&#45;&gt;CategoryStructuredStringType -->
<g id="edge3" class="edge"><title>CategoryProperties&#45;&gt;CategoryStructuredStringType</title>
<path fill="none" stroke="black" d="M470.864,-242.317C502.645,-251.69 537.787,-260.891 570.656,-267 691.669,-289.493 832.932,-299.029 927.196,-303.062"/>
<text text-anchor="middle" x="693.156" y="-299.6" font-family="Times New Roman,serif" font-size="8.00">Description</text>
</g>
<!-- Concept -->
<g id="ItemTypeConcept" class="node"><title></title><ellipse fill="#f7b733" stroke="black" cx="693.156" cy="-112" rx="27" ry="18" style="filter: url(#dropshadow)"/>
<text text-anchor="middle" x="693.156" y="-110.1" font-family="Times New Roman,serif" font-size="8.00">Concept</text>
</g>
<!-- CategoryProperties&#45;&gt;Concept -->
<g id="edge4" class="edge"><title>CategoryProperties&#45;&gt;Concept</title>
<path fill="none" stroke="black" d="M458.935,-171.468C493.724,-159.166 533.676,-145.975 570.656,-136 603.456,-127.153 642.05,-120.084 666.792,-115.969"/>
<text text-anchor="middle" x="520.656" y="-163.6" font-family="Times New Roman,serif" font-size="8.00">ConceptReference</text>
<text text-anchor="middle" x="658.792" y="-109.569" font-family="Times New Roman,serif" font-size="8.00">0...*</text>
<text text-anchor="middle" x="466.935" y="-165.068" font-family="Times New Roman,serif" font-size="8.00">0...*</text>
</g>
<!-- CategoryGenerationType -->
<g id="ReusableTypeCategoryGenerationType" class="node"><title></title><polygon fill="#fc4a1a" stroke="black" points="570.656,-322 570.656,-384 815.656,-384 815.656,-322 570.656,-322" style="filter: url(#dropshadow)"/>
<text text-anchor="middle" x="607.656" y="-351.1" font-family="Times New Roman,serif" font-size="8.00">GenerationType</text>
<polyline fill="none" stroke="black" points="644.656,-322 644.656,-384 "/>
<text text-anchor="start" x="652.656" y="-373.6" font-family="Times New Roman,serif" font-size="8.00">ComponentReference : Category[0...n] </text>
<text text-anchor="start" x="652.656" y="-364.6" font-family="Times New Roman,serif" font-size="8.00">Description : StructuredStringType[0...1] </text>
<text text-anchor="start" x="652.656" y="-355.6" font-family="Times New Roman,serif" font-size="8.00">CommandCode : CommandCodeType[0...n] </text>
<text text-anchor="start" x="652.656" y="-346.6" font-family="Times New Roman,serif" font-size="8.00">OtherMaterial : OtherMaterialType[0...n] </text>
<text text-anchor="start" x="652.656" y="-337.6" font-family="Times New Roman,serif" font-size="8.00">IsDerived : boolean[0...1] </text>
<text text-anchor="start" x="652.656" y="-328.6" font-family="Times New Roman,serif" font-size="8.00">Qualification : string[0...1] </text>
</g>
<!-- CategoryProperties&#45;&gt;CategoryGenerationType -->
<g id="edge5" class="edge"><title>CategoryProperties&#45;&gt;CategoryGenerationType</title>
<path fill="none" stroke="black" d="M404.292,-242.513C427.469,-261.649 458.105,-284.286 488.656,-299 514.178,-311.292 542.898,-321.091 570.54,-328.78"/>
<text text-anchor="middle" x="520.656" y="-324.6" font-family="Times New Roman,serif" font-size="8.00">Generation</text>
<text text-anchor="middle" x="562.54" y="-322.38" font-family="Times New Roman,serif" font-size="8.00">0...*</text>
<text text-anchor="middle" x="412.292" y="-245.113" font-family="Times New Roman,serif" font-size="8.00">0...*</text>
</g>
<!-- Category -->
<g id="ItemTypeCategory" class="node"><title></title><ellipse fill="#f7b733" stroke="black" cx="1034.16" cy="-90" rx="27.4558" ry="18" style="filter: url(#dropshadow)"/>
<text text-anchor="middle" x="1034.16" y="-88.1" font-family="Times New Roman,serif" font-size="8.00">Category</text>
</g>
<!-- CategoryProperties&#45;&gt;Category -->
<g id="edge6" class="edge"><title>CategoryProperties&#45;&gt;Category</title>
<path fill="none" stroke="black" d="M404.961,-171.414C444.162,-139.365 506.969,-94.5348 570.656,-76 731.861,-29.0843 938.113,-68.1044 1008.41,-84.0135"/>
<text text-anchor="middle" x="693.156" y="-78.6" font-family="Times New Roman,serif" font-size="8.00">SubCategoryReference</text>
<text text-anchor="middle" x="1000.41" y="-77.6135" font-family="Times New Roman,serif" font-size="8.00">0...*</text>
<text text-anchor="middle" x="396.961" y="-165.014" font-family="Times New Roman,serif" font-size="8.00">0...*</text>
</g>
<!-- CategoryGenerationType&#45;&gt;CategoryStructuredStringType -->
<g id="edge8" class="edge"><title>CategoryGenerationType&#45;&gt;CategoryStructuredStringType</title>
<path fill="none" stroke="black" d="M816.064,-336.098C852.509,-331.045 892.149,-325.55 927.462,-320.654"/>
<text text-anchor="middle" x="871.656" y="-335.6" font-family="Times New Roman,serif" font-size="8.00">Description</text>
<text text-anchor="middle" x="919.462" y="-314.254" font-family="Times New Roman,serif" font-size="8.00">0...*</text>
<text text-anchor="middle" x="824.064" y="-329.698" font-family="Times New Roman,serif" font-size="8.00">0...*</text>
</g>
<!-- CategoryGenerationType&#45;&gt;Category -->
<g id="edge7" class="edge"><title>CategoryGenerationType&#45;&gt;Category</title>
<path fill="none" stroke="black" d="M792.964,-321.914C801.012,-317.529 808.708,-312.577 815.656,-307 886.502,-250.126 858.231,-194.601 927.656,-136 951.475,-115.894 985.441,-103.211 1008.34,-96.3698"/>
<text text-anchor="middle" x="871.656" y="-292.6" font-family="Times New Roman,serif" font-size="8.00">ComponentReference</text>
<text text-anchor="middle" x="1000.34" y="-89.9698" font-family="Times New Roman,serif" font-size="8.00">0...*</text>
<text text-anchor="middle" x="784.964" y="-315.514" font-family="Times New Roman,serif" font-size="8.00">0...*</text>
</g>
<!-- CategoryGroup -->
<g id="ItemTypeCategoryGroup" class="node"><title></title><ellipse fill="#f7b733" stroke="black" cx="61.8279" cy="-342" rx="39.278" ry="18" style="filter: url(#dropshadow)"/>
<text text-anchor="middle" x="61.8279" y="-340.1" font-family="Times New Roman,serif" font-size="8.00">CategoryGroup</text>
</g>
<!-- CategoryGroup&#45;&gt;CategoryProperties -->
<g id="edge10" class="edge"><title>CategoryGroup&#45;&gt;CategoryProperties</title>
<path fill="none" stroke="black" d="M100.992,-343.739C137.88,-343.953 194.509,-340.34 238.656,-320 242.09,-318.418 245.495,-316.705 248.864,-314.88"/>
<text text-anchor="middle" x="190.156" y="-344.6" font-family="Times New Roman,serif" font-size="8.00">DefiningCategoryReference</text>
<text text-anchor="middle" x="240.864" y="-308.48" font-family="Times New Roman,serif" font-size="8.00">0...*</text>
<text text-anchor="middle" x="108.992" y="-337.339" font-family="Times New Roman,serif" font-size="8.00">0...*</text>
</g>
<!-- CategoryGroup&#45;&gt;CategoryProperties -->
<g id="edge11" class="edge"><title>CategoryGroup&#45;&gt;CategoryProperties</title>
<path fill="none" stroke="black" d="M91.4866,-330.208C106.365,-324.22 124.892,-316.968 141.656,-311 184.294,-295.821 197.343,-298.484 238.656,-280 241.975,-278.515 245.317,-276.963 248.669,-275.356"/>
<text text-anchor="middle" x="190.156" y="-313.6" font-family="Times New Roman,serif" font-size="8.00">CategoryReference</text>
<text text-anchor="middle" x="240.669" y="-268.956" font-family="Times New Roman,serif" font-size="8.00">0...*</text>
<text text-anchor="middle" x="99.4866" y="-323.808" font-family="Times New Roman,serif" font-size="8.00">0...*</text>
</g>
<!-- CategoryScheme -->
<g id="ItemTypeCategoryScheme" class="node"><title></title><ellipse fill="#f7b733" stroke="black" cx="61.8279" cy="-288" rx="41.9498" ry="18" style="filter: url(#dropshadow)"/>
<text text-anchor="middle" x="61.8279" y="-286.1" font-family="Times New Roman,serif" font-size="8.00">CategoryScheme</text>
</g>
<!-- CategoryScheme&#45;&gt;CategoryProperties -->
<g id="edge12" class="edge"><title>CategoryScheme&#45;&gt;CategoryProperties</title>
<path fill="none" stroke="black" d="M97.8087,-278.55C134.765,-268.566 195.008,-252.291 248.708,-237.784"/>
<text text-anchor="middle" x="190.156" y="-269.6" font-family="Times New Roman,serif" font-size="8.00">CategoryReference</text>
<text text-anchor="middle" x="240.708" y="-231.384" font-family="Times New Roman,serif" font-size="8.00">0...*</text>
<text text-anchor="middle" x="105.809" y="-272.15" font-family="Times New Roman,serif" font-size="8.00">0...*</text>
</g>
<!-- AnchorType -->
<g id="ReusableTypeAnchorType0" class="node"><title></title><ellipse fill="#f7b733" stroke="black" cx="61.8279" cy="-234" rx="35.3371" ry="18" style="filter: url(#dropshadow)"/>
<text text-anchor="middle" x="61.8279" y="-232.1" font-family="Times New Roman,serif" font-size="8.00">AnchorType</text>
</g>
<!-- AnchorType&#45;&gt;CategoryProperties -->
<g id="edge13" class="edge"><title>AnchorType&#45;&gt;CategoryProperties</title>
<path fill="none" stroke="black" d="M96.6391,-230.955C133.574,-227.629 194.737,-222.121 249.108,-217.225"/>
<text text-anchor="middle" x="190.156" y="-229.6" font-family="Times New Roman,serif" font-size="8.00">CategoryReference</text>
<text text-anchor="middle" x="241.108" y="-210.825" font-family="Times New Roman,serif" font-size="8.00">0...*</text>
<text text-anchor="middle" x="104.639" y="-224.555" font-family="Times New Roman,serif" font-size="8.00">0...*</text>
</g>
<!-- AttachmentLocationType -->
<g id="ReusableTypeAttachmentLocationType1" class="node"><title></title><ellipse fill="#f7b733" stroke="black" cx="61.8279" cy="-180" rx="61.6562" ry="18" style="filter: url(#dropshadow)"/>
<text text-anchor="middle" x="61.8279" y="-178.1" font-family="Times New Roman,serif" font-size="8.00">AttachmentLocationType</text>
</g>
<!-- AttachmentLocationType&#45;&gt;CategoryProperties -->
<g id="edge14" class="edge"><title>AttachmentLocationType&#45;&gt;CategoryProperties</title>
<path fill="none" stroke="black" d="M120.993,-185.238C157.295,-188.507 205.259,-192.826 248.882,-196.754"/>
<text text-anchor="middle" x="190.156" y="-198.6" font-family="Times New Roman,serif" font-size="8.00">CategoryReference</text>
<text text-anchor="middle" x="240.882" y="-190.354" font-family="Times New Roman,serif" font-size="8.00">0...*</text>
<text text-anchor="middle" x="128.993" y="-178.838" font-family="Times New Roman,serif" font-size="8.00">0...*</text>
</g>
<!-- CodeType -->
<g id="ReusableTypeCodeType2" class="node"><title></title><ellipse fill="#f7b733" stroke="black" cx="61.8279" cy="-126" rx="30.1263" ry="18" style="filter: url(#dropshadow)"/>
<text text-anchor="middle" x="61.8279" y="-124.1" font-family="Times New Roman,serif" font-size="8.00">CodeType</text>
</g>
<!-- CodeType&#45;&gt;CategoryProperties -->
<g id="edge15" class="edge"><title>CodeType&#45;&gt;CategoryProperties</title>
<path fill="none" stroke="black" d="M89.4356,-133.188C125.17,-142.842 190.895,-160.598 248.927,-176.276"/>
<text text-anchor="middle" x="190.156" y="-174.6" font-family="Times New Roman,serif" font-size="8.00">CategoryReference</text>
<text text-anchor="middle" x="240.927" y="-169.876" font-family="Times New Roman,serif" font-size="8.00">0...*</text>
<text text-anchor="middle" x="97.4356" y="-126.788" font-family="Times New Roman,serif" font-size="8.00">0...*</text>
</g>
<!-- CohortType -->
<g id="ReusableTypeCohortType3" class="node"><title></title><ellipse fill="#f7b733" stroke="black" cx="61.8279" cy="-72" rx="34.0674" ry="18" style="filter: url(#dropshadow)"/>
<text text-anchor="middle" x="61.8279" y="-70.1" font-family="Times New Roman,serif" font-size="8.00">CohortType</text>
</g>
<!-- CohortType&#45;&gt;CategoryProperties -->
<g id="edge16" class="edge"><title>CohortType&#45;&gt;CategoryProperties</title>
<path fill="none" stroke="black" d="M91.7882,-80.5906C127.173,-91.4901 188.52,-111.699 238.656,-135 242.218,-136.656 245.813,-138.381 249.422,-140.161"/>
<text text-anchor="middle" x="190.156" y="-137.6" font-family="Times New Roman,serif" font-size="8.00">CategoryReference</text>
<text text-anchor="middle" x="241.422" y="-133.761" font-family="Times New Roman,serif" font-size="8.00">0...*</text>
<text text-anchor="middle" x="99.7882" y="-74.1906" font-family="Times New Roman,serif" font-size="8.00">0...*</text>
</g>
<!-- GenerationType -->
<g id="ReusableTypeGenerationType4" class="node"><title></title><ellipse fill="#f7b733" stroke="black" cx="61.8279" cy="-18" rx="41.9498" ry="18" style="filter: url(#dropshadow)"/>
<text text-anchor="middle" x="61.8279" y="-16.1" font-family="Times New Roman,serif" font-size="8.00">GenerationType</text>
</g>
<!-- GenerationType&#45;&gt;CategoryProperties -->
<g id="edge17" class="edge"><title>GenerationType&#45;&gt;CategoryProperties</title>
<path fill="none" stroke="black" d="M98.5241,-26.9033C135.54,-37.176 194.121,-56.4128 238.656,-85 262.408,-100.247 285.343,-120.621 304.893,-140.346"/>
<text text-anchor="middle" x="190.156" y="-87.6" font-family="Times New Roman,serif" font-size="8.00">ComponentReference</text>
<text text-anchor="middle" x="296.893" y="-133.946" font-family="Times New Roman,serif" font-size="8.00">0...*</text>
<text text-anchor="middle" x="106.524" y="-20.5033" font-family="Times New Roman,serif" font-size="8.00">0...*</text>
</g>
</g>
</svg>
