<?xml version="1.0" encoding="UTF-8" standalone="no"?>
<!DOCTYPE svg PUBLIC "-//W3C//DTD SVG 1.1//EN"
 "http://www.w3.org/Graphics/SVG/1.1/DTD/svg11.dtd">
<!-- Generated by graphviz version 2.38.0 (20140413.2041)
 -->
<!-- Title: G Pages: 1 -->
<svg width="1177pt" height="559pt"
 viewBox="0.00 0.00 1177.43 559.00" xmlns="http://www.w3.org/2000/svg" xmlns:xlink="http://www.w3.org/1999/xlink">
<filter id = "dropshadow" height = "130%" ><feGaussianBlur in= "SourceAlpha" stdDeviation = "3"/><!--stdDeviation is how much to blur--><feOffset dx = "2" dy = "2" result = "offsetblur"/><!--how much to offset--><feMerge><feMergeNode/><!--this contains the offset blurred image--><feMergeNode in= "SourceGraphic"/><!--this contains the element that the filter is applied to --></feMerge></filter>
<g id="graph0" class="graph" transform="scale(1 1) rotate(0) translate(4 555)">
<title>G</title>
<g id="clust1" class="cluster"><title>clusterCitationType</title>
<polygon fill="#4abdac" stroke="black" points="153.429,-98 153.429,-525 1161.43,-525 1161.43,-98 153.429,-98" style="filter: url(#dropshadow)"/>
<text text-anchor="middle" x="657.429" y="-514.6" font-family="Times New Roman,serif" font-size="8.00">CitationType</text>
</g>
<!-- CitationTypeProperties -->
<g id="ReusableTypeCitationTypeProperties" class="node"><title></title><polygon fill="#f7b733" stroke="black" points="161.429,-236.5 161.429,-343.5 436.429,-343.5 436.429,-236.5 161.429,-236.5" style="filter: url(#dropshadow)"/>
<text text-anchor="middle" x="187.929" y="-288.1" font-family="Times New Roman,serif" font-size="8.00">Properties</text>
<polyline fill="none" stroke="black" points="214.429,-236.5 214.429,-343.5 "/>
<text text-anchor="start" x="222.429" y="-333.1" font-family="Times New Roman,serif" font-size="8.00">Title : InternationalStringType[0...1] </text>
<text text-anchor="start" x="222.429" y="-324.1" font-family="Times New Roman,serif" font-size="8.00">SubTitle : InternationalStringType[0...n] </text>
<text text-anchor="start" x="222.429" y="-315.1" font-family="Times New Roman,serif" font-size="8.00">AlternateTitle : InternationalStringType[0...n] </text>
<text text-anchor="start" x="222.429" y="-306.1" font-family="Times New Roman,serif" font-size="8.00">Creator : CreatorType[0...n] </text>
<text text-anchor="start" x="222.429" y="-297.1" font-family="Times New Roman,serif" font-size="8.00">Publisher : PublisherType[0...n] </text>
<text text-anchor="start" x="222.429" y="-288.1" font-family="Times New Roman,serif" font-size="8.00">Contributor : ContributorType[0...n] </text>
<text text-anchor="start" x="222.429" y="-279.1" font-family="Times New Roman,serif" font-size="8.00">PublicationDate : DateType[0...1] </text>
<text text-anchor="start" x="222.429" y="-270.1" font-family="Times New Roman,serif" font-size="8.00">Language : CodeValueType[0...n] </text>
<text text-anchor="start" x="222.429" y="-261.1" font-family="Times New Roman,serif" font-size="8.00">InternationalIdentifier : InternationalIdentifierType[0...n] </text>
<text text-anchor="start" x="222.429" y="-252.1" font-family="Times New Roman,serif" font-size="8.00">Copyright : InternationalStringType[0...n] </text>
<text text-anchor="start" x="222.429" y="-243.1" font-family="Times New Roman,serif" font-size="8.00">DcTerms : DcTerms[0...n] </text>
</g>
<!-- CitationTypeInternationalStringType -->
<g id="ReusableTypeCitationTypeInternationalStringType" class="node"><title></title><polygon fill="#fc4a1a" stroke="black" points="584.929,-107 584.929,-143 792.929,-143 792.929,-107 584.929,-107" style="filter: url(#dropshadow)"/>
<text text-anchor="middle" x="635.429" y="-123.1" font-family="Times New Roman,serif" font-size="8.00">InternationalStringType</text>
<polyline fill="none" stroke="black" points="685.929,-107 685.929,-143 "/>
<text text-anchor="start" x="693.929" y="-123.1" font-family="Times New Roman,serif" font-size="8.00">String : StringType[0...n] </text>
</g>
<!-- CitationTypeProperties&#45;&gt;CitationTypeInternationalStringType -->
<g id="edge1" class="edge"><title>CitationTypeProperties&#45;&gt;CitationTypeInternationalStringType</title>
<path fill="none" stroke="black" d="M380.406,-236.375C428.19,-207.001 491.065,-172.501 551.429,-152 562.065,-148.388 573.341,-145.197 584.673,-142.394"/>
<text text-anchor="middle" x="493.929" y="-195.6" font-family="Times New Roman,serif" font-size="8.00">Title</text>
</g>
<!-- CitationTypeCreatorType -->
<g id="ReusableTypeCitationTypeCreatorType" class="node"><title></title><polygon fill="#fc4a1a" stroke="black" points="568.429,-162 568.429,-198 809.429,-198 809.429,-162 568.429,-162" style="filter: url(#dropshadow)"/>
<text text-anchor="middle" x="599.429" y="-178.1" font-family="Times New Roman,serif" font-size="8.00">CreatorType</text>
<polyline fill="none" stroke="black" points="630.429,-162 630.429,-198 "/>
<text text-anchor="start" x="638.429" y="-182.6" font-family="Times New Roman,serif" font-size="8.00">CreatorName : BibliographicNameType[0...1] </text>
<text text-anchor="start" x="638.429" y="-173.6" font-family="Times New Roman,serif" font-size="8.00">CreatorReference : Individual[0...1] </text>
</g>
<!-- CitationTypeProperties&#45;&gt;CitationTypeCreatorType -->
<g id="edge2" class="edge"><title>CitationTypeProperties&#45;&gt;CitationTypeCreatorType</title>
<path fill="none" stroke="black" d="M436.722,-241.457C473.681,-229.276 513.852,-216.876 551.429,-207 563.578,-203.807 576.423,-200.797 589.181,-198.027"/>
<text text-anchor="middle" x="493.929" y="-236.6" font-family="Times New Roman,serif" font-size="8.00">Creator</text>
</g>
<!-- CitationTypePublisherType -->
<g id="ReusableTypeCitationTypePublisherType" class="node"><title></title><polygon fill="#fc4a1a" stroke="black" points="563.429,-217 563.429,-253 814.429,-253 814.429,-217 563.429,-217" style="filter: url(#dropshadow)"/>
<text text-anchor="middle" x="596.929" y="-233.1" font-family="Times New Roman,serif" font-size="8.00">PublisherType</text>
<polyline fill="none" stroke="black" points="630.429,-217 630.429,-253 "/>
<text text-anchor="start" x="638.429" y="-242.1" font-family="Times New Roman,serif" font-size="8.00">PublisherName : BibliographicNameType[0...1] </text>
<text text-anchor="start" x="638.429" y="-233.1" font-family="Times New Roman,serif" font-size="8.00">PublisherRole : CodeValueType[0...n] </text>
<text text-anchor="start" x="638.429" y="-224.1" font-family="Times New Roman,serif" font-size="8.00">PublisherReference : Organization[0...1] </text>
</g>
<!-- CitationTypeProperties&#45;&gt;CitationTypePublisherType -->
<g id="edge3" class="edge"><title>CitationTypeProperties&#45;&gt;CitationTypePublisherType</title>
<path fill="none" stroke="black" d="M436.45,-270.648C477.703,-264.8 522.767,-258.412 563.208,-252.68"/>
<text text-anchor="middle" x="493.929" y="-270.6" font-family="Times New Roman,serif" font-size="8.00">Publisher</text>
</g>
<!-- CitationTypeContributorType -->
<g id="ReusableTypeCitationTypeContributorType" class="node"><title></title><polygon fill="#fc4a1a" stroke="black" points="554.429,-272 554.429,-308 823.429,-308 823.429,-272 554.429,-272" style="filter: url(#dropshadow)"/>
<text text-anchor="middle" x="592.429" y="-288.1" font-family="Times New Roman,serif" font-size="8.00">ContributorType</text>
<polyline fill="none" stroke="black" points="630.429,-272 630.429,-308 "/>
<text text-anchor="start" x="638.429" y="-297.1" font-family="Times New Roman,serif" font-size="8.00">ContributorName : BibliographicNameType[0...1] </text>
<text text-anchor="start" x="638.429" y="-288.1" font-family="Times New Roman,serif" font-size="8.00">ContributorRole : CodeValueType[0...n] </text>
<text text-anchor="start" x="638.429" y="-279.1" font-family="Times New Roman,serif" font-size="8.00">ContributorReference : Individual[0...1] </text>
</g>
<!-- CitationTypeProperties&#45;&gt;CitationTypeContributorType -->
<g id="edge4" class="edge"><title>CitationTypeProperties&#45;&gt;CitationTypeContributorType</title>
<path fill="none" stroke="black" d="M436.45,-290C474.647,-290 516.112,-290 554.148,-290"/>
<text text-anchor="middle" x="493.929" y="-292.6" font-family="Times New Roman,serif" font-size="8.00">Contributor</text>
</g>
<!-- CitationTypeDateType -->
<g id="ReusableTypeCitationTypeDateType" class="node"><title></title><polygon fill="#fc4a1a" stroke="black" points="571.429,-327.5 571.429,-398.5 806.429,-398.5 806.429,-327.5 571.429,-327.5" style="filter: url(#dropshadow)"/>
<text text-anchor="middle" x="597.429" y="-361.1" font-family="Times New Roman,serif" font-size="8.00">DateType</text>
<polyline fill="none" stroke="black" points="623.429,-327.5 623.429,-398.5 "/>
<text text-anchor="start" x="631.429" y="-388.1" font-family="Times New Roman,serif" font-size="8.00">SimpleDate : cogsDate[0...1] </text>
<text text-anchor="start" x="631.429" y="-379.1" font-family="Times New Roman,serif" font-size="8.00">HistoricalDate : HistoricalDateType[0...1] </text>
<text text-anchor="start" x="631.429" y="-370.1" font-family="Times New Roman,serif" font-size="8.00">StartDate : cogsDate[0...1] </text>
<text text-anchor="start" x="631.429" y="-361.1" font-family="Times New Roman,serif" font-size="8.00">HistoricalStartDate : HistoricalDateType[0...1] </text>
<text text-anchor="start" x="631.429" y="-352.1" font-family="Times New Roman,serif" font-size="8.00">EndDate : cogsDate[0...1] </text>
<text text-anchor="start" x="631.429" y="-343.1" font-family="Times New Roman,serif" font-size="8.00">HistoricalEndDate : HistoricalDateType[0...1] </text>
<text text-anchor="start" x="631.429" y="-334.1" font-family="Times New Roman,serif" font-size="8.00">Cycle : int[0...1] </text>
</g>
<!-- CitationTypeProperties&#45;&gt;CitationTypeDateType -->
<g id="edge5" class="edge"><title>CitationTypeProperties&#45;&gt;CitationTypeDateType</title>
<path fill="none" stroke="black" d="M436.45,-315.686C480.431,-323.961 528.745,-333.05 571.168,-341.032"/>
<text text-anchor="middle" x="493.929" y="-336.6" font-family="Times New Roman,serif" font-size="8.00">PublicationDate</text>
</g>
<!-- CitationTypeCodeValueType -->
<g id="ReusableTypeCitationTypeCodeValueType" class="node"><title></title><polygon fill="#fc4a1a" stroke="black" points="938.429,-359.5 938.429,-430.5 1153.43,-430.5 1153.43,-359.5 938.429,-359.5" style="filter: url(#dropshadow)"/>
<text text-anchor="middle" x="973.929" y="-393.1" font-family="Times New Roman,serif" font-size="8.00">CodeValueType</text>
<polyline fill="none" stroke="black" points="1009.43,-359.5 1009.43,-430.5 "/>
<text text-anchor="start" x="1017.43" y="-420.1" font-family="Times New Roman,serif" font-size="8.00">CodeListID : string[0...1] </text>
<text text-anchor="start" x="1017.43" y="-411.1" font-family="Times New Roman,serif" font-size="8.00">CodeListName_string : string[0...1] </text>
<text text-anchor="start" x="1017.43" y="-402.1" font-family="Times New Roman,serif" font-size="8.00">CodeListAgencyName : string[0...1] </text>
<text text-anchor="start" x="1017.43" y="-393.1" font-family="Times New Roman,serif" font-size="8.00">CodeListVersionID : string[0...1] </text>
<text text-anchor="start" x="1017.43" y="-384.1" font-family="Times New Roman,serif" font-size="8.00">OtherValue : string[0...1] </text>
<text text-anchor="start" x="1017.43" y="-375.1" font-family="Times New Roman,serif" font-size="8.00">CodeListURN : string[0...1] </text>
<text text-anchor="start" x="1017.43" y="-366.1" font-family="Times New Roman,serif" font-size="8.00">CodeListSchemeURN : string[0...1] </text>
</g>
<!-- CitationTypeProperties&#45;&gt;CitationTypeCodeValueType -->
<g id="edge6" class="edge"><title>CitationTypeProperties&#45;&gt;CitationTypeCodeValueType</title>
<path fill="none" stroke="black" d="M389.043,-343.551C435.657,-368.469 494.704,-395.354 551.429,-408 682.137,-437.139 837.132,-425.865 938.075,-412.655"/>
<text text-anchor="middle" x="688.929" y="-429.6" font-family="Times New Roman,serif" font-size="8.00">Language</text>
</g>
<!-- CitationTypeInternationalIdentifierType -->
<g id="ReusableTypeCitationTypeInternationalIdentifierType" class="node"><title></title><polygon fill="#fc4a1a" stroke="black" points="551.429,-463 551.429,-499 826.429,-499 826.429,-463 551.429,-463" style="filter: url(#dropshadow)"/>
<text text-anchor="middle" x="607.929" y="-479.1" font-family="Times New Roman,serif" font-size="8.00">InternationalIdentifierType</text>
<polyline fill="none" stroke="black" points="664.429,-463 664.429,-499 "/>
<text text-anchor="start" x="672.429" y="-483.6" font-family="Times New Roman,serif" font-size="8.00">IdentifierContent : string[0...1] </text>
<text text-anchor="start" x="672.429" y="-474.6" font-family="Times New Roman,serif" font-size="8.00">ManagingAgency : CodeValueType[0...1] </text>
</g>
<!-- CitationTypeProperties&#45;&gt;CitationTypeInternationalIdentifierType -->
<g id="edge7" class="edge"><title>CitationTypeProperties&#45;&gt;CitationTypeInternationalIdentifierType</title>
<path fill="none" stroke="black" d="M341.039,-343.836C369.275,-376.884 409.649,-417.128 454.429,-440 484.119,-455.164 518.397,-464.837 551.387,-470.975"/>
<text text-anchor="middle" x="493.929" y="-467.6" font-family="Times New Roman,serif" font-size="8.00">InternationalIdentifier</text>
</g>
<!-- Individual -->
<g id="ItemTypeIndividual" class="node"><title></title><ellipse fill="#f7b733" stroke="black" cx="1045.93" cy="-72" rx="28.2235" ry="18" style="filter: url(#dropshadow)"/>
<text text-anchor="middle" x="1045.93" y="-70.1" font-family="Times New Roman,serif" font-size="8.00">Individual</text>
</g>
<!-- CitationTypeCreatorType&#45;&gt;Individual -->
<g id="edge8" class="edge"><title>CitationTypeCreatorType&#45;&gt;Individual</title>
<path fill="none" stroke="black" d="M809.43,-164.751C815.59,-161.204 821.328,-156.991 826.429,-152 852.167,-126.814 816.335,-95.5279 844.429,-73 895.484,-32.0607 979.683,-50.7117 1020.81,-63.5086"/>
<text text-anchor="middle" x="882.429" y="-75.6" font-family="Times New Roman,serif" font-size="8.00">CreatorReference</text>
<text text-anchor="middle" x="1012.81" y="-57.1086" font-family="Times New Roman,serif" font-size="8.00">0...*</text>
<text text-anchor="middle" x="817.43" y="-158.351" font-family="Times New Roman,serif" font-size="8.00">0...*</text>
</g>
<!-- CitationTypePublisherType&#45;&gt;CitationTypeCodeValueType -->
<g id="edge9" class="edge"><title>CitationTypePublisherType&#45;&gt;CitationTypeCodeValueType</title>
<path fill="none" stroke="black" d="M797.332,-253.033C807.278,-255.662 817.112,-258.639 826.429,-262 890.552,-285.131 956.335,-328.34 998.733,-359.234"/>
<text text-anchor="middle" x="882.429" y="-307.6" font-family="Times New Roman,serif" font-size="8.00">PublisherRole</text>
<text text-anchor="middle" x="990.733" y="-352.834" font-family="Times New Roman,serif" font-size="8.00">0...*</text>
<text text-anchor="middle" x="789.332" y="-255.633" font-family="Times New Roman,serif" font-size="8.00">0...*</text>
</g>
<!-- Organization -->
<g id="ItemTypeOrganization0" class="node"><title></title><ellipse fill="#f7b733" stroke="black" cx="1045.93" cy="-18" rx="35.3371" ry="18" style="filter: url(#dropshadow)"/>
<text text-anchor="middle" x="1045.93" y="-16.1" font-family="Times New Roman,serif" font-size="8.00">Organization</text>
</g>
<!-- CitationTypePublisherType&#45;&gt;Organization -->
<g id="edge10" class="edge"><title>CitationTypePublisherType&#45;&gt;Organization</title>
<path fill="none" stroke="black" d="M809.399,-216.932C815.375,-214.066 821.099,-210.776 826.429,-207 839.117,-198.012 835.552,-189.766 844.429,-177 875.297,-132.606 891.535,-127.703 920.429,-82 930.201,-66.5428 924.246,-56.5436 938.429,-45 958.696,-28.5043 987.772,-21.9316 1010.42,-19.3854"/>
<text text-anchor="middle" x="882.429" y="-179.6" font-family="Times New Roman,serif" font-size="8.00">PublisherReference</text>
<text text-anchor="middle" x="1002.42" y="-12.9854" font-family="Times New Roman,serif" font-size="8.00">0...*</text>
<text text-anchor="middle" x="801.399" y="-210.532" font-family="Times New Roman,serif" font-size="8.00">0...*</text>
</g>
<!-- CitationTypeContributorType&#45;&gt;CitationTypeCodeValueType -->
<g id="edge11" class="edge"><title>CitationTypeContributorType&#45;&gt;CitationTypeCodeValueType</title>
<path fill="none" stroke="black" d="M788.1,-308.059C801.074,-311.051 814.13,-314.375 826.429,-318 834.662,-320.427 836.376,-322.029 844.429,-325 875.647,-336.516 909.773,-348.612 940.877,-359.448"/>
<text text-anchor="middle" x="882.429" y="-353.6" font-family="Times New Roman,serif" font-size="8.00">ContributorRole</text>
<text text-anchor="middle" x="932.877" y="-353.048" font-family="Times New Roman,serif" font-size="8.00">0...*</text>
<text text-anchor="middle" x="780.1" y="-310.659" font-family="Times New Roman,serif" font-size="8.00">0...*</text>
</g>
<!-- CitationTypeContributorType&#45;&gt;Individual -->
<g id="edge12" class="edge"><title>CitationTypeContributorType&#45;&gt;Individual</title>
<path fill="none" stroke="black" d="M800.929,-271.976C809.729,-269.123 818.335,-265.822 826.429,-262 875.011,-239.062 892.713,-232.023 920.429,-186 941.923,-150.308 909.123,-123.615 938.429,-94 958.88,-73.3332 993.266,-69.5698 1017.42,-69.8518"/>
<text text-anchor="middle" x="882.429" y="-256.6" font-family="Times New Roman,serif" font-size="8.00">ContributorReference</text>
<text text-anchor="middle" x="1009.42" y="-72.4518" font-family="Times New Roman,serif" font-size="8.00">0...*</text>
<text text-anchor="middle" x="792.929" y="-265.576" font-family="Times New Roman,serif" font-size="8.00">0...*</text>
</g>
<!-- CitationTypeInternationalIdentifierType&#45;&gt;CitationTypeCodeValueType -->
<g id="edge13" class="edge"><title>CitationTypeInternationalIdentifierType&#45;&gt;CitationTypeCodeValueType</title>
<path fill="none" stroke="black" d="M813.698,-462.99C848.49,-456.847 886.171,-449.166 920.429,-440 930.753,-437.238 941.434,-433.994 952.002,-430.535"/>
<text text-anchor="middle" x="882.429" y="-459.6" font-family="Times New Roman,serif" font-size="8.00">ManagingAgency</text>
<text text-anchor="middle" x="944.002" y="-433.135" font-family="Times New Roman,serif" font-size="8.00">0...*</text>
<text text-anchor="middle" x="805.698" y="-456.59" font-family="Times New Roman,serif" font-size="8.00">0...*</text>
</g>
<!-- DDIInstance -->
<g id="ItemTypeDDIInstance1" class="node"><title></title><ellipse fill="#f7b733" stroke="black" cx="48.2144" cy="-533" rx="34.7021" ry="18" style="filter: url(#dropshadow)"/>
<text text-anchor="middle" x="48.2144" y="-531.1" font-family="Times New Roman,serif" font-size="8.00">DDIInstance</text>
</g>
<!-- DDIInstance&#45;&gt;CitationTypeProperties -->
<g id="edge14" class="edge"><title>DDIInstance&#45;&gt;CitationTypeProperties</title>
<path fill="none" stroke="black" d="M74.1334,-520.595C81.6053,-516.397 89.6185,-511.393 96.4288,-506 115.828,-490.637 135.073,-473.392 153.532,-455.52"/>
<text text-anchor="middle" x="128.929" y="-492.6" font-family="Times New Roman,serif" font-size="8.00">Citation</text>
<text text-anchor="middle" x="145.532" y="-449.12" font-family="Times New Roman,serif" font-size="8.00">0...*</text>
<text text-anchor="middle" x="82.1334" y="-514.195" font-family="Times New Roman,serif" font-size="8.00">0...*</text>
</g>
<!-- Group -->
<g id="ItemTypeGroup2" class="node"><title></title><ellipse fill="#f7b733" stroke="black" cx="48.2144" cy="-479" rx="27" ry="18" style="filter: url(#dropshadow)"/>
<text text-anchor="middle" x="48.2144" y="-477.1" font-family="Times New Roman,serif" font-size="8.00">Group</text>
</g>
<!-- Group&#45;&gt;CitationTypeProperties -->
<g id="edge15" class="edge"><title>Group&#45;&gt;CitationTypeProperties</title>
<path fill="none" stroke="black" d="M69.8604,-468.121C78.2825,-463.447 88.0023,-457.744 96.4288,-452 115.362,-439.094 134.756,-424.894 153.675,-410.429"/>
<text text-anchor="middle" x="128.929" y="-438.6" font-family="Times New Roman,serif" font-size="8.00">Citation</text>
<text text-anchor="middle" x="145.675" y="-404.029" font-family="Times New Roman,serif" font-size="8.00">0...*</text>
<text text-anchor="middle" x="77.8604" y="-461.721" font-family="Times New Roman,serif" font-size="8.00">0...*</text>
</g>
<!-- PhysicalInstance -->
<g id="ItemTypePhysicalInstance3" class="node"><title></title><ellipse fill="#f7b733" stroke="black" cx="48.2144" cy="-425" rx="42.5843" ry="18" style="filter: url(#dropshadow)"/>
<text text-anchor="middle" x="48.2144" y="-423.1" font-family="Times New Roman,serif" font-size="8.00">PhysicalInstance</text>
</g>
<!-- PhysicalInstance&#45;&gt;CitationTypeProperties -->
<g id="edge16" class="edge"><title>PhysicalInstance&#45;&gt;CitationTypeProperties</title>
<path fill="none" stroke="black" d="M75.3611,-410.808C95.022,-400.136 123.675,-384.584 153.919,-368.167"/>
<text text-anchor="middle" x="128.929" y="-391.6" font-family="Times New Roman,serif" font-size="8.00">Citation</text>
<text text-anchor="middle" x="145.919" y="-361.767" font-family="Times New Roman,serif" font-size="8.00">0...*</text>
<text text-anchor="middle" x="67.3611" y="-404.408" font-family="Times New Roman,serif" font-size="8.00">0...*</text>
</g>
<!-- ResourcePackage -->
<g id="ItemTypeResourcePackage4" class="node"><title></title><ellipse fill="#f7b733" stroke="black" cx="48.2144" cy="-371" rx="43.219" ry="18" style="filter: url(#dropshadow)"/>
<text text-anchor="middle" x="48.2144" y="-369.1" font-family="Times New Roman,serif" font-size="8.00">ResourcePackage</text>
</g>
<!-- ResourcePackage&#45;&gt;CitationTypeProperties -->
<g id="edge17" class="edge"><title>ResourcePackage&#45;&gt;CitationTypeProperties</title>
<path fill="none" stroke="black" d="M82.7571,-360.076C101.846,-353.859 127.212,-345.598 153.816,-336.934"/>
<text text-anchor="middle" x="128.929" y="-352.6" font-family="Times New Roman,serif" font-size="8.00">Citation</text>
<text text-anchor="middle" x="145.816" y="-330.534" font-family="Times New Roman,serif" font-size="8.00">0...*</text>
<text text-anchor="middle" x="90.7571" y="-353.676" font-family="Times New Roman,serif" font-size="8.00">0...*</text>
</g>
<!-- StudyUnit -->
<g id="ItemTypeStudyUnit5" class="node"><title></title><ellipse fill="#f7b733" stroke="black" cx="48.2144" cy="-317" rx="28.8574" ry="18" style="filter: url(#dropshadow)"/>
<text text-anchor="middle" x="48.2144" y="-315.1" font-family="Times New Roman,serif" font-size="8.00">StudyUnit</text>
</g>
<!-- StudyUnit&#45;&gt;CitationTypeProperties -->
<g id="edge18" class="edge"><title>StudyUnit&#45;&gt;CitationTypeProperties</title>
<path fill="none" stroke="black" d="M76.7815,-314.007C96.3695,-311.881 124.342,-308.844 153.835,-305.643"/>
<text text-anchor="middle" x="128.929" y="-312.6" font-family="Times New Roman,serif" font-size="8.00">Citation</text>
<text text-anchor="middle" x="145.835" y="-299.243" font-family="Times New Roman,serif" font-size="8.00">0...*</text>
<text text-anchor="middle" x="84.7815" y="-307.607" font-family="Times New Roman,serif" font-size="8.00">0...*</text>
</g>
<!-- SubGroup -->
<g id="ItemTypeSubGroup6" class="node"><title></title><ellipse fill="#f7b733" stroke="black" cx="48.2144" cy="-263" rx="27.5899" ry="18" style="filter: url(#dropshadow)"/>
<text text-anchor="middle" x="48.2144" y="-261.1" font-family="Times New Roman,serif" font-size="8.00">SubGroup</text>
</g>
<!-- SubGroup&#45;&gt;CitationTypeProperties -->
<g id="edge19" class="edge"><title>SubGroup&#45;&gt;CitationTypeProperties</title>
<path fill="none" stroke="black" d="M75.8312,-265.889C95.4127,-268.015 123.729,-271.089 153.624,-274.334"/>
<text text-anchor="middle" x="128.929" y="-275.6" font-family="Times New Roman,serif" font-size="8.00">Citation</text>
<text text-anchor="middle" x="145.624" y="-267.934" font-family="Times New Roman,serif" font-size="8.00">0...*</text>
<text text-anchor="middle" x="83.8312" y="-259.489" font-family="Times New Roman,serif" font-size="8.00">0...*</text>
</g>
<!-- CollectionType -->
<g id="ReusableTypeCollectionType7" class="node"><title></title><ellipse fill="#f7b733" stroke="black" cx="48.2144" cy="-209" rx="40.0477" ry="18" style="filter: url(#dropshadow)"/>
<text text-anchor="middle" x="48.2144" y="-207.1" font-family="Times New Roman,serif" font-size="8.00">CollectionType</text>
</g>
<!-- CollectionType&#45;&gt;CitationTypeProperties -->
<g id="edge20" class="edge"><title>CollectionType&#45;&gt;CitationTypeProperties</title>
<path fill="none" stroke="black" d="M81.2203,-219.424C100.408,-225.673 126.316,-234.11 153.539,-242.976"/>
<text text-anchor="middle" x="128.929" y="-240.6" font-family="Times New Roman,serif" font-size="8.00">Citation</text>
<text text-anchor="middle" x="145.539" y="-245.576" font-family="Times New Roman,serif" font-size="8.00">0...*</text>
<text text-anchor="middle" x="89.2203" y="-222.024" font-family="Times New Roman,serif" font-size="8.00">0...*</text>
</g>
<!-- ItemType -->
<g id="ReusableTypeItemType8" class="node"><title></title><ellipse fill="#f7b733" stroke="black" cx="48.2144" cy="-155" rx="29.4917" ry="18" style="filter: url(#dropshadow)"/>
<text text-anchor="middle" x="48.2144" y="-153.1" font-family="Times New Roman,serif" font-size="8.00">ItemType</text>
</g>
<!-- ItemType&#45;&gt;CitationTypeProperties -->
<g id="edge21" class="edge"><title>ItemType&#45;&gt;CitationTypeProperties</title>
<path fill="none" stroke="black" d="M70.8511,-166.744C90.4428,-177.378 121.152,-194.047 153.726,-211.728"/>
<text text-anchor="middle" x="128.929" y="-205.6" font-family="Times New Roman,serif" font-size="8.00">Citation</text>
<text text-anchor="middle" x="161.726" y="-205.328" font-family="Times New Roman,serif" font-size="8.00">0...*</text>
<text text-anchor="middle" x="78.8511" y="-169.344" font-family="Times New Roman,serif" font-size="8.00">0...*</text>
</g>
<!-- OriginType -->
<g id="ReusableTypeOriginType9" class="node"><title></title><ellipse fill="#f7b733" stroke="black" cx="48.2144" cy="-101" rx="32.1649" ry="18" style="filter: url(#dropshadow)"/>
<text text-anchor="middle" x="48.2144" y="-99.1" font-family="Times New Roman,serif" font-size="8.00">OriginType</text>
</g>
<!-- OriginType&#45;&gt;CitationTypeProperties -->
<g id="edge22" class="edge"><title>OriginType&#45;&gt;CitationTypeProperties</title>
<path fill="none" stroke="black" d="M72.2312,-113.203C80.0714,-117.61 88.7825,-122.788 96.4288,-128 115.362,-140.906 134.756,-155.106 153.675,-169.571"/>
<text text-anchor="middle" x="128.929" y="-164.6" font-family="Times New Roman,serif" font-size="8.00">Citation</text>
<text text-anchor="middle" x="161.675" y="-163.171" font-family="Times New Roman,serif" font-size="8.00">0...*</text>
<text text-anchor="middle" x="80.2312" y="-115.803" font-family="Times New Roman,serif" font-size="8.00">0...*</text>
</g>
<!-- OtherMaterialType -->
<g id="ReusableTypeOtherMaterialType0" class="node"><title></title><ellipse fill="#f7b733" stroke="black" cx="48.2144" cy="-47" rx="48.4297" ry="18" style="filter: url(#dropshadow)"/>
<text text-anchor="middle" x="48.2144" y="-45.1" font-family="Times New Roman,serif" font-size="8.00">OtherMaterialType</text>
</g>
<!-- OtherMaterialType&#45;&gt;CitationTypeProperties -->
<g id="edge23" class="edge"><title>OtherMaterialType&#45;&gt;CitationTypeProperties</title>
<path fill="none" stroke="black" d="M77.5759,-61.376C84.0162,-65.1348 90.6548,-69.4275 96.4288,-74 115.828,-89.3626 135.073,-106.608 153.532,-124.48"/>
<text text-anchor="middle" x="128.929" y="-113.6" font-family="Times New Roman,serif" font-size="8.00">Citation</text>
<text text-anchor="middle" x="161.532" y="-118.08" font-family="Times New Roman,serif" font-size="8.00">0...*</text>
<text text-anchor="middle" x="69.5759" y="-63.976" font-family="Times New Roman,serif" font-size="8.00">0...*</text>
</g>
</g>
</svg>
