<?xml version="1.0" encoding="UTF-8" standalone="no"?>
<!DOCTYPE svg PUBLIC "-//W3C//DTD SVG 1.1//EN"
 "http://www.w3.org/Graphics/SVG/1.1/DTD/svg11.dtd">
<!-- Generated by graphviz version 2.38.0 (20140413.2041)
 -->
<!-- Title: G Pages: 1 -->
<svg width="1697pt" height="668pt"
 viewBox="0.00 0.00 1697.10 667.76" xmlns="http://www.w3.org/2000/svg" xmlns:xlink="http://www.w3.org/1999/xlink">
<filter id = "dropshadow" height = "130%" ><feGaussianBlur in= "SourceAlpha" stdDeviation = "3"/><!--stdDeviation is how much to blur--><feOffset dx = "2" dy = "2" result = "offsetblur"/><!--how much to offset--><feMerge><feMergeNode/><!--this contains the offset blurred image--><feMergeNode in= "SourceGraphic"/><!--this contains the element that the filter is applied to --></feMerge></filter>
<g id="graph0" class="graph" transform="scale(1 1) rotate(0) translate(4 663.764)">
<title>G</title>
<g id="clust1" class="cluster"><title>clusterCollectionType</title>
<polygon fill="#4abdac" stroke="black" points="167.101,-118.764 167.101,-634.764 1681.1,-634.764 1681.1,-118.764 167.101,-118.764" style="filter: url(#dropshadow)"/>
<text text-anchor="middle" x="924.101" y="-624.364" font-family="Times New Roman,serif" font-size="8.00">CollectionType</text>
</g>
<!-- CollectionTypeProperties -->
<g id="ReusableTypeCollectionTypeProperties" class="node"><title></title><polygon fill="#f7b733" stroke="black" points="175.101,-273.264 175.101,-398.264 455.101,-398.264 455.101,-273.264 175.101,-273.264" style="filter: url(#dropshadow)"/>
<text text-anchor="middle" x="201.601" y="-333.864" font-family="Times New Roman,serif" font-size="8.00">Properties</text>
<polyline fill="none" stroke="black" points="228.101,-273.264 228.101,-398.264 "/>
<text text-anchor="start" x="236.101" y="-387.864" font-family="Times New Roman,serif" font-size="8.00">Citation : CitationType[0...1] </text>
<text text-anchor="start" x="236.101" y="-378.864" font-family="Times New Roman,serif" font-size="8.00">LocationInArchive : InternationalStringType[0...n] </text>
<text text-anchor="start" x="236.101" y="-369.864" font-family="Times New Roman,serif" font-size="8.00">CallNumber : string[0...1] </text>
<text text-anchor="start" x="236.101" y="-360.864" font-family="Times New Roman,serif" font-size="8.00">URI : anyURI[0...1] </text>
<text text-anchor="start" x="236.101" y="-351.864" font-family="Times New Roman,serif" font-size="8.00">ItemQuantity : int[0...1] </text>
<text text-anchor="start" x="236.101" y="-342.864" font-family="Times New Roman,serif" font-size="8.00">StudyClass : StudyClassType[0...1] </text>
<text text-anchor="start" x="236.101" y="-333.864" font-family="Times New Roman,serif" font-size="8.00">DefaultAccess : AccessType[0...1] </text>
<text text-anchor="start" x="236.101" y="-324.864" font-family="Times New Roman,serif" font-size="8.00">OriginalArchiveOrganizationReference : Organization[0...n] </text>
<text text-anchor="start" x="236.101" y="-315.864" font-family="Times New Roman,serif" font-size="8.00">AvailabilityStatus : StructuredStringType[0...1] </text>
<text text-anchor="start" x="236.101" y="-306.864" font-family="Times New Roman,serif" font-size="8.00">DataFileQuantity : int[0...1] </text>
<text text-anchor="start" x="236.101" y="-297.864" font-family="Times New Roman,serif" font-size="8.00">CollectionCompleteness : StructuredStringType[0...1] </text>
<text text-anchor="start" x="236.101" y="-288.864" font-family="Times New Roman,serif" font-size="8.00">Item : ItemType[0...n] </text>
<text text-anchor="start" x="236.101" y="-279.864" font-family="Times New Roman,serif" font-size="8.00">Collection : CollectionType[0...n] </text>
</g>
<!-- CollectionTypeProperties&#45;&gt;CollectionTypeProperties -->
<g id="edge31" class="edge"><title>CollectionTypeProperties&#45;&gt;CollectionTypeProperties</title>
<path fill="none" stroke="black" d="M286.045,-398.595C290.015,-409.328 299.701,-416.764 315.101,-416.764 330.501,-416.764 340.187,-409.328 344.157,-398.595"/>
<text text-anchor="middle" x="315.101" y="-419.364" font-family="Times New Roman,serif" font-size="8.00">Collection</text>
<text text-anchor="middle" x="336.157" y="-401.195" font-family="Times New Roman,serif" font-size="8.00">0...*</text>
<text text-anchor="middle" x="278.045" y="-401.195" font-family="Times New Roman,serif" font-size="8.00">0...*</text>
</g>
<!-- CollectionTypeCitationType -->
<g id="ReusableTypeCollectionTypeCitationType" class="node"><title></title><polygon fill="#fc4a1a" stroke="black" points="970.101,-192.264 970.101,-299.264 1256.1,-299.264 1256.1,-192.264 970.101,-192.264" style="filter: url(#dropshadow)"/>
<text text-anchor="middle" x="1002.1" y="-243.864" font-family="Times New Roman,serif" font-size="8.00">CitationType</text>
<polyline fill="none" stroke="black" points="1034.1,-192.264 1034.1,-299.264 "/>
<text text-anchor="start" x="1042.1" y="-288.864" font-family="Times New Roman,serif" font-size="8.00">Title : InternationalStringType[0...1] </text>
<text text-anchor="start" x="1042.1" y="-279.864" font-family="Times New Roman,serif" font-size="8.00">SubTitle : InternationalStringType[0...n] </text>
<text text-anchor="start" x="1042.1" y="-270.864" font-family="Times New Roman,serif" font-size="8.00">AlternateTitle : InternationalStringType[0...n] </text>
<text text-anchor="start" x="1042.1" y="-261.864" font-family="Times New Roman,serif" font-size="8.00">Creator : CreatorType[0...n] </text>
<text text-anchor="start" x="1042.1" y="-252.864" font-family="Times New Roman,serif" font-size="8.00">Publisher : PublisherType[0...n] </text>
<text text-anchor="start" x="1042.1" y="-243.864" font-family="Times New Roman,serif" font-size="8.00">Contributor : ContributorType[0...n] </text>
<text text-anchor="start" x="1042.1" y="-234.864" font-family="Times New Roman,serif" font-size="8.00">PublicationDate : DateType[0...1] </text>
<text text-anchor="start" x="1042.1" y="-225.864" font-family="Times New Roman,serif" font-size="8.00">Language : CodeValueType[0...n] </text>
<text text-anchor="start" x="1042.1" y="-216.864" font-family="Times New Roman,serif" font-size="8.00">InternationalIdentifier : InternationalIdentifierType[0...n] </text>
<text text-anchor="start" x="1042.1" y="-207.864" font-family="Times New Roman,serif" font-size="8.00">Copyright : InternationalStringType[0...n] </text>
<text text-anchor="start" x="1042.1" y="-198.864" font-family="Times New Roman,serif" font-size="8.00">DcTerms : DcTerms[0...n] </text>
</g>
<!-- CollectionTypeProperties&#45;&gt;CollectionTypeCitationType -->
<g id="edge1" class="edge"><title>CollectionTypeProperties&#45;&gt;CollectionTypeCitationType</title>
<path fill="none" stroke="black" d="M445.885,-273.192C466.298,-265.651 487.477,-259.097 508.101,-254.764 663.589,-222.101 846.578,-224.946 970.062,-232.711"/>
<text text-anchor="middle" x="647.601" y="-257.364" font-family="Times New Roman,serif" font-size="8.00">Citation</text>
</g>
<!-- CollectionTypeInternationalStringType -->
<g id="ReusableTypeCollectionTypeInternationalStringType" class="node"><title></title><polygon fill="#fc4a1a" stroke="black" points="1462.6,-186.764 1462.6,-222.764 1670.6,-222.764 1670.6,-186.764 1462.6,-186.764" style="filter: url(#dropshadow)"/>
<text text-anchor="middle" x="1513.1" y="-202.864" font-family="Times New Roman,serif" font-size="8.00">InternationalStringType</text>
<polyline fill="none" stroke="black" points="1563.6,-186.764 1563.6,-222.764 "/>
<text text-anchor="start" x="1571.6" y="-202.864" font-family="Times New Roman,serif" font-size="8.00">String : StringType[0...n] </text>
</g>
<!-- CollectionTypeProperties&#45;&gt;CollectionTypeInternationalStringType -->
<g id="edge2" class="edge"><title>CollectionTypeProperties&#45;&gt;CollectionTypeInternationalStringType</title>
<path fill="none" stroke="black" d="M409.062,-273.198C439.521,-255.145 474.255,-237.032 508.101,-224.764 826.916,-109.212 928.041,-140.954 1267.1,-146.764 1344.91,-148.098 1366.09,-136.055 1442.1,-152.764 1473.91,-159.758 1507.86,-174.654 1532.1,-186.717"/>
<text text-anchor="middle" x="873.101" y="-150.364" font-family="Times New Roman,serif" font-size="8.00">LocationInArchive</text>
</g>
<!-- CollectionTypeStudyClassType -->
<g id="ReusableTypeCollectionTypeStudyClassType" class="node"><title></title><polygon fill="#fc4a1a" stroke="black" points="997.101,-552.764 997.101,-588.764 1229.1,-588.764 1229.1,-552.764 997.101,-552.764" style="filter: url(#dropshadow)"/>
<text text-anchor="middle" x="1032.6" y="-568.864" font-family="Times New Roman,serif" font-size="8.00">StudyClassType</text>
<polyline fill="none" stroke="black" points="1068.1,-552.764 1068.1,-588.764 "/>
<text text-anchor="start" x="1076.1" y="-573.364" font-family="Times New Roman,serif" font-size="8.00">Description : StructuredStringType[0...1] </text>
<text text-anchor="start" x="1076.1" y="-564.364" font-family="Times New Roman,serif" font-size="8.00">ClassType : CodeValueType[0...1] </text>
</g>
<!-- CollectionTypeProperties&#45;&gt;CollectionTypeStudyClassType -->
<g id="edge3" class="edge"><title>CollectionTypeProperties&#45;&gt;CollectionTypeStudyClassType</title>
<path fill="none" stroke="black" d="M358.48,-398.715C392.929,-444.13 445.904,-502.267 508.101,-530.764 592.236,-569.314 846.493,-573.753 996.965,-572.771"/>
<text text-anchor="middle" x="647.601" y="-571.364" font-family="Times New Roman,serif" font-size="8.00">StudyClass</text>
</g>
<!-- CollectionTypeAccessType -->
<g id="ReusableTypeCollectionTypeAccessType" class="node"><title></title><polygon fill="#fc4a1a" stroke="black" points="959.101,-363.264 959.101,-488.264 1267.1,-488.264 1267.1,-363.264 959.101,-363.264" style="filter: url(#dropshadow)"/>
<text text-anchor="middle" x="988.601" y="-423.864" font-family="Times New Roman,serif" font-size="8.00">AccessType</text>
<polyline fill="none" stroke="black" points="1018.1,-363.264 1018.1,-488.264 "/>
<text text-anchor="start" x="1026.1" y="-477.864" font-family="Times New Roman,serif" font-size="8.00">AccessTypeName : NameType[0...n] </text>
<text text-anchor="start" x="1026.1" y="-468.864" font-family="Times New Roman,serif" font-size="8.00">Label : LabelType[0...n] </text>
<text text-anchor="start" x="1026.1" y="-459.864" font-family="Times New Roman,serif" font-size="8.00">Description : StructuredStringType[0...1] </text>
<text text-anchor="start" x="1026.1" y="-450.864" font-family="Times New Roman,serif" font-size="8.00">ConfidentialityStatement : StructuredStringType[0...1] </text>
<text text-anchor="start" x="1026.1" y="-441.864" font-family="Times New Roman,serif" font-size="8.00">AccessPermission : FormType[0...n] </text>
<text text-anchor="start" x="1026.1" y="-432.864" font-family="Times New Roman,serif" font-size="8.00">Restrictions : StructuredStringType[0...1] </text>
<text text-anchor="start" x="1026.1" y="-423.864" font-family="Times New Roman,serif" font-size="8.00">CitationRequirement : StructuredStringType[0...1] </text>
<text text-anchor="start" x="1026.1" y="-414.864" font-family="Times New Roman,serif" font-size="8.00">DepositRequirement : StructuredStringType[0...1] </text>
<text text-anchor="start" x="1026.1" y="-405.864" font-family="Times New Roman,serif" font-size="8.00">AccessConditions : StructuredStringType[0...1] </text>
<text text-anchor="start" x="1026.1" y="-396.864" font-family="Times New Roman,serif" font-size="8.00">Disclaimer : StructuredStringType[0...1] </text>
<text text-anchor="start" x="1026.1" y="-387.864" font-family="Times New Roman,serif" font-size="8.00">AccessRestrictionDate : AccessRestrictionDateType[0...1] </text>
<text text-anchor="start" x="1026.1" y="-378.864" font-family="Times New Roman,serif" font-size="8.00">ContactOrganizationReference_Organization : Organization[0...n] </text>
<text text-anchor="start" x="1026.1" y="-369.864" font-family="Times New Roman,serif" font-size="8.00">ContactOrganizationReference_Individual : Individual[0...n] </text>
</g>
<!-- CollectionTypeProperties&#45;&gt;CollectionTypeAccessType -->
<g id="edge4" class="edge"><title>CollectionTypeProperties&#45;&gt;CollectionTypeAccessType</title>
<path fill="none" stroke="black" d="M428.618,-398.388C454.305,-411.382 481.795,-424.289 508.101,-434.764 635.773,-485.605 669.041,-501.462 805.101,-520.764 864.946,-529.254 885.258,-543.896 941.101,-520.764 951.554,-516.435 949.932,-509.392 959.101,-502.764 965.97,-497.8 973.206,-492.987 980.641,-488.352"/>
<text text-anchor="middle" x="647.601" y="-520.364" font-family="Times New Roman,serif" font-size="8.00">DefaultAccess</text>
</g>
<!-- Organization -->
<g id="ItemTypeOrganization" class="node"><title></title><ellipse fill="#f7b733" stroke="black" cx="1566.6" cy="-38.7644" rx="35.3371" ry="18" style="filter: url(#dropshadow)"/>
<text text-anchor="middle" x="1566.6" y="-36.8644" font-family="Times New Roman,serif" font-size="8.00">Organization</text>
</g>
<!-- CollectionTypeProperties&#45;&gt;Organization -->
<g id="edge5" class="edge"><title>CollectionTypeProperties&#45;&gt;Organization</title>
<path fill="none" stroke="black" d="M365.533,-273.146C401.193,-231.742 452.654,-179.138 508.101,-145.764 859.087,65.4922 1396.59,-9.18387 1533.17,-32.7461"/>
<text text-anchor="middle" x="873.101" y="-36.3644" font-family="Times New Roman,serif" font-size="8.00">OriginalArchiveOrganizationReference</text>
<text text-anchor="middle" x="1525.17" y="-26.3461" font-family="Times New Roman,serif" font-size="8.00">0...*</text>
<text text-anchor="middle" x="357.533" y="-266.746" font-family="Times New Roman,serif" font-size="8.00">0...*</text>
</g>
<!-- CollectionTypeStructuredStringType -->
<g id="ReusableTypeCollectionTypeStructuredStringType" class="node"><title></title><polygon fill="#fc4a1a" stroke="black" points="1460.1,-449.764 1460.1,-485.764 1673.1,-485.764 1673.1,-449.764 1460.1,-449.764" style="filter: url(#dropshadow)"/>
<text text-anchor="middle" x="1505.1" y="-465.864" font-family="Times New Roman,serif" font-size="8.00">StructuredStringType</text>
<polyline fill="none" stroke="black" points="1550.1,-449.764 1550.1,-485.764 "/>
<text text-anchor="start" x="1558.1" y="-465.864" font-family="Times New Roman,serif" font-size="8.00">Content : ContentType[0...n] </text>
</g>
<!-- CollectionTypeProperties&#45;&gt;CollectionTypeStructuredStringType -->
<g id="edge6" class="edge"><title>CollectionTypeProperties&#45;&gt;CollectionTypeStructuredStringType</title>
<path fill="none" stroke="black" d="M345.024,-398.336C376.095,-457.406 431.533,-542.594 508.101,-581.764 692.884,-676.296 1252.32,-671.811 1442.1,-587.764 1492.12,-565.611 1533.74,-513.81 1553.4,-486.068"/>
<text text-anchor="middle" x="873.101" y="-653.364" font-family="Times New Roman,serif" font-size="8.00">AvailabilityStatus</text>
<text text-anchor="middle" x="1561.4" y="-488.668" font-family="Times New Roman,serif" font-size="8.00">0...*</text>
<text text-anchor="middle" x="353.024" y="-400.936" font-family="Times New Roman,serif" font-size="8.00">0...*</text>
</g>
<!-- CollectionTypeItemType -->
<g id="ReusableTypeCollectionTypeItemType" class="node"><title></title><polygon fill="#fc4a1a" stroke="black" points="508.101,-273.264 508.101,-398.264 787.101,-398.264 787.101,-273.264 508.101,-273.264" style="filter: url(#dropshadow)"/>
<text text-anchor="middle" x="534.101" y="-333.864" font-family="Times New Roman,serif" font-size="8.00">ItemType</text>
<polyline fill="none" stroke="black" points="560.101,-273.264 560.101,-398.264 "/>
<text text-anchor="start" x="568.101" y="-387.864" font-family="Times New Roman,serif" font-size="8.00">Citation : CitationType[0...1] </text>
<text text-anchor="start" x="568.101" y="-378.864" font-family="Times New Roman,serif" font-size="8.00">LocationInArchive : InternationalStringType[0...n] </text>
<text text-anchor="start" x="568.101" y="-369.864" font-family="Times New Roman,serif" font-size="8.00">CallNumber : string[0...1] </text>
<text text-anchor="start" x="568.101" y="-360.864" font-family="Times New Roman,serif" font-size="8.00">URI : anyURI[0...1] </text>
<text text-anchor="start" x="568.101" y="-351.864" font-family="Times New Roman,serif" font-size="8.00">ItemFormat : CodeValueType[0...1] </text>
<text text-anchor="start" x="568.101" y="-342.864" font-family="Times New Roman,serif" font-size="8.00">Media : CodeValueType[0...1] </text>
<text text-anchor="start" x="568.101" y="-333.864" font-family="Times New Roman,serif" font-size="8.00">StudyClass : StudyClassType[0...1] </text>
<text text-anchor="start" x="568.101" y="-324.864" font-family="Times New Roman,serif" font-size="8.00">Access : AccessType[0...1] </text>
<text text-anchor="start" x="568.101" y="-315.864" font-family="Times New Roman,serif" font-size="8.00">OriginalArchiveOrganizationReference : Organization[0...n] </text>
<text text-anchor="start" x="568.101" y="-306.864" font-family="Times New Roman,serif" font-size="8.00">AvailabilityStatus : StructuredStringType[0...1] </text>
<text text-anchor="start" x="568.101" y="-297.864" font-family="Times New Roman,serif" font-size="8.00">DataFileQuantity : int[0...1] </text>
<text text-anchor="start" x="568.101" y="-288.864" font-family="Times New Roman,serif" font-size="8.00">CollectionCompleteness : StructuredStringType[0...1] </text>
<text text-anchor="start" x="568.101" y="-279.864" font-family="Times New Roman,serif" font-size="8.00">Item : ItemType[0...n] </text>
</g>
<!-- CollectionTypeProperties&#45;&gt;CollectionTypeItemType -->
<g id="edge7" class="edge"><title>CollectionTypeProperties&#45;&gt;CollectionTypeItemType</title>
<path fill="none" stroke="black" d="M455.305,-335.764C472.77,-335.764 490.633,-335.764 508.087,-335.764"/>
<text text-anchor="middle" x="481.601" y="-338.364" font-family="Times New Roman,serif" font-size="8.00">Item</text>
<text text-anchor="middle" x="500.087" y="-329.364" font-family="Times New Roman,serif" font-size="8.00">0...*</text>
<text text-anchor="middle" x="463.305" y="-329.364" font-family="Times New Roman,serif" font-size="8.00">0...*</text>
</g>
<!-- CollectionTypeCitationType&#45;&gt;CollectionTypeInternationalStringType -->
<g id="edge8" class="edge"><title>CollectionTypeCitationType&#45;&gt;CollectionTypeInternationalStringType</title>
<path fill="none" stroke="black" d="M1256.2,-244.275C1314.05,-242.368 1381.45,-238.484 1442.1,-230.764 1457.53,-228.8 1473.91,-225.926 1489.51,-222.797"/>
<text text-anchor="middle" x="1363.6" y="-246.364" font-family="Times New Roman,serif" font-size="8.00">Title</text>
<text text-anchor="middle" x="1481.51" y="-225.397" font-family="Times New Roman,serif" font-size="8.00">0...*</text>
<text text-anchor="middle" x="1264.2" y="-237.875" font-family="Times New Roman,serif" font-size="8.00">0...*</text>
</g>
<!-- CollectionTypeCitationType&#45;&gt;CollectionTypeInternationalStringType -->
<g id="edge9" class="edge"><title>CollectionTypeCitationType&#45;&gt;CollectionTypeInternationalStringType</title>
<path fill="none" stroke="black" d="M1256.15,-264.785C1314.3,-268.891 1381.92,-268.917 1442.1,-256.764 1474.25,-250.271 1508.45,-235.156 1532.69,-222.886"/>
<text text-anchor="middle" x="1363.6" y="-270.364" font-family="Times New Roman,serif" font-size="8.00">SubTitle</text>
<text text-anchor="middle" x="1524.69" y="-225.486" font-family="Times New Roman,serif" font-size="8.00">0...*</text>
<text text-anchor="middle" x="1264.15" y="-258.385" font-family="Times New Roman,serif" font-size="8.00">0...*</text>
</g>
<!-- CollectionTypeCitationType&#45;&gt;CollectionTypeInternationalStringType -->
<g id="edge10" class="edge"><title>CollectionTypeCitationType&#45;&gt;CollectionTypeInternationalStringType</title>
<path fill="none" stroke="black" d="M1256.5,-195.455C1266.1,-193.204 1275.69,-191.266 1285.1,-189.764 1354.01,-178.769 1372.45,-185.55 1442.1,-189.764 1448.78,-190.169 1455.66,-190.695 1462.58,-191.308"/>
<text text-anchor="middle" x="1363.6" y="-192.364" font-family="Times New Roman,serif" font-size="8.00">AlternateTitle</text>
<text text-anchor="middle" x="1454.58" y="-184.908" font-family="Times New Roman,serif" font-size="8.00">0...*</text>
<text text-anchor="middle" x="1264.5" y="-189.055" font-family="Times New Roman,serif" font-size="8.00">0...*</text>
</g>
<!-- CollectionTypeCitationType&#45;&gt;CollectionTypeInternationalStringType -->
<g id="edge11" class="edge"><title>CollectionTypeCitationType&#45;&gt;CollectionTypeInternationalStringType</title>
<path fill="none" stroke="black" d="M1256.29,-224.94C1266.03,-223.781 1275.71,-222.707 1285.1,-221.764 1343.72,-215.884 1409.44,-211.769 1462.53,-209.062"/>
<text text-anchor="middle" x="1363.6" y="-224.364" font-family="Times New Roman,serif" font-size="8.00">Copyright</text>
<text text-anchor="middle" x="1454.53" y="-202.662" font-family="Times New Roman,serif" font-size="8.00">0...*</text>
<text text-anchor="middle" x="1264.29" y="-218.54" font-family="Times New Roman,serif" font-size="8.00">0...*</text>
</g>
<!-- CollectionTypeStudyClassType&#45;&gt;CollectionTypeStructuredStringType -->
<g id="edge12" class="edge"><title>CollectionTypeStudyClassType&#45;&gt;CollectionTypeStructuredStringType</title>
<path fill="none" stroke="black" d="M1229.2,-577.204C1293.4,-577.327 1373.93,-571.64 1442.1,-548.764 1482.21,-535.306 1521.92,-505.547 1545.08,-486.091"/>
<text text-anchor="middle" x="1363.6" y="-577.364" font-family="Times New Roman,serif" font-size="8.00">Description</text>
<text text-anchor="middle" x="1537.08" y="-488.691" font-family="Times New Roman,serif" font-size="8.00">0...*</text>
<text text-anchor="middle" x="1237.2" y="-570.804" font-family="Times New Roman,serif" font-size="8.00">0...*</text>
</g>
<!-- CollectionTypeAccessType&#45;&gt;Organization -->
<g id="edge20" class="edge"><title>CollectionTypeAccessType&#45;&gt;Organization</title>
<path fill="none" stroke="black" d="M1255.75,-363.059C1259.92,-358.602 1263.73,-353.843 1267.1,-348.764 1299.75,-299.593 1245.29,-127.338 1285.1,-83.7644 1308.93,-57.6839 1407.22,-64.366 1442.1,-58.7644 1472.88,-53.8224 1507.95,-48.1366 1532.84,-44.0937"/>
<text text-anchor="middle" x="1363.6" y="-86.3644" font-family="Times New Roman,serif" font-size="8.00">ContactOrganizationReference_Organization</text>
<text text-anchor="middle" x="1524.84" y="-37.6937" font-family="Times New Roman,serif" font-size="8.00">0...*</text>
<text text-anchor="middle" x="1263.75" y="-356.659" font-family="Times New Roman,serif" font-size="8.00">0...*</text>
</g>
<!-- CollectionTypeAccessType&#45;&gt;CollectionTypeStructuredStringType -->
<g id="edge13" class="edge"><title>CollectionTypeAccessType&#45;&gt;CollectionTypeStructuredStringType</title>
<path fill="none" stroke="black" d="M1267.32,-370.642C1323.32,-358.362 1386.53,-353.865 1442.1,-372.764 1486.66,-387.921 1527.7,-426.362 1549.42,-449.433"/>
<text text-anchor="middle" x="1363.6" y="-375.364" font-family="Times New Roman,serif" font-size="8.00">Description</text>
<text text-anchor="middle" x="1541.42" y="-443.033" font-family="Times New Roman,serif" font-size="8.00">0...*</text>
<text text-anchor="middle" x="1275.32" y="-373.242" font-family="Times New Roman,serif" font-size="8.00">0...*</text>
</g>
<!-- CollectionTypeAccessType&#45;&gt;CollectionTypeStructuredStringType -->
<g id="edge14" class="edge"><title>CollectionTypeAccessType&#45;&gt;CollectionTypeStructuredStringType</title>
<path fill="none" stroke="black" d="M1267.18,-397.221C1322.88,-391.728 1385.93,-391.264 1442.1,-404.764 1477.91,-413.37 1515.03,-434.192 1539.1,-449.555"/>
<text text-anchor="middle" x="1363.6" y="-407.364" font-family="Times New Roman,serif" font-size="8.00">ConfidentialityStatement</text>
<text text-anchor="middle" x="1531.1" y="-443.155" font-family="Times New Roman,serif" font-size="8.00">0...*</text>
<text text-anchor="middle" x="1275.18" y="-390.821" font-family="Times New Roman,serif" font-size="8.00">0...*</text>
</g>
<!-- CollectionTypeAccessType&#45;&gt;CollectionTypeStructuredStringType -->
<g id="edge15" class="edge"><title>CollectionTypeAccessType&#45;&gt;CollectionTypeStructuredStringType</title>
<path fill="none" stroke="black" d="M1267.38,-424.182C1322.66,-425.381 1385.4,-428.789 1442.1,-436.764 1462.68,-439.658 1484.8,-444.607 1504.55,-449.711"/>
<text text-anchor="middle" x="1363.6" y="-439.364" font-family="Times New Roman,serif" font-size="8.00">Restrictions</text>
<text text-anchor="middle" x="1496.55" y="-443.311" font-family="Times New Roman,serif" font-size="8.00">0...*</text>
<text text-anchor="middle" x="1275.38" y="-417.782" font-family="Times New Roman,serif" font-size="8.00">0...*</text>
</g>
<!-- CollectionTypeAccessType&#45;&gt;CollectionTypeStructuredStringType -->
<g id="edge16" class="edge"><title>CollectionTypeAccessType&#45;&gt;CollectionTypeStructuredStringType</title>
<path fill="none" stroke="black" d="M1267.42,-443.983C1273.39,-444.602 1279.3,-445.198 1285.1,-445.764 1342.83,-451.402 1407.36,-456.544 1459.96,-460.436"/>
<text text-anchor="middle" x="1363.6" y="-461.364" font-family="Times New Roman,serif" font-size="8.00">CitationRequirement</text>
<text text-anchor="middle" x="1451.96" y="-454.036" font-family="Times New Roman,serif" font-size="8.00">0...*</text>
<text text-anchor="middle" x="1275.42" y="-437.583" font-family="Times New Roman,serif" font-size="8.00">0...*</text>
</g>
<!-- CollectionTypeAccessType&#45;&gt;CollectionTypeStructuredStringType -->
<g id="edge17" class="edge"><title>CollectionTypeAccessType&#45;&gt;CollectionTypeStructuredStringType</title>
<path fill="none" stroke="black" d="M1267.53,-469.074C1273.44,-470.094 1279.31,-470.999 1285.1,-471.764 1354.28,-480.906 1372.33,-472.894 1442.1,-471.764 1447.89,-471.671 1453.84,-471.552 1459.84,-471.415"/>
<text text-anchor="middle" x="1363.6" y="-479.364" font-family="Times New Roman,serif" font-size="8.00">DepositRequirement</text>
<text text-anchor="middle" x="1451.84" y="-465.015" font-family="Times New Roman,serif" font-size="8.00">0...*</text>
<text text-anchor="middle" x="1275.53" y="-462.674" font-family="Times New Roman,serif" font-size="8.00">0...*</text>
</g>
<!-- CollectionTypeAccessType&#45;&gt;CollectionTypeStructuredStringType -->
<g id="edge18" class="edge"><title>CollectionTypeAccessType&#45;&gt;CollectionTypeStructuredStringType</title>
<path fill="none" stroke="black" d="M1267.18,-486.001C1273.19,-487.426 1279.17,-488.692 1285.1,-489.764 1349.87,-501.488 1424.17,-494.774 1480.02,-485.785"/>
<text text-anchor="middle" x="1363.6" y="-499.364" font-family="Times New Roman,serif" font-size="8.00">AccessConditions</text>
<text text-anchor="middle" x="1472.02" y="-488.385" font-family="Times New Roman,serif" font-size="8.00">0...*</text>
<text text-anchor="middle" x="1275.18" y="-479.601" font-family="Times New Roman,serif" font-size="8.00">0...*</text>
</g>
<!-- CollectionTypeAccessType&#45;&gt;CollectionTypeStructuredStringType -->
<g id="edge19" class="edge"><title>CollectionTypeAccessType&#45;&gt;CollectionTypeStructuredStringType</title>
<path fill="none" stroke="black" d="M1232.14,-363.168C1295.79,-337.919 1374.85,-320.472 1442.1,-347.764 1493.07,-368.449 1534.57,-421.392 1553.88,-449.536"/>
<text text-anchor="middle" x="1363.6" y="-350.364" font-family="Times New Roman,serif" font-size="8.00">Disclaimer</text>
<text text-anchor="middle" x="1561.88" y="-443.136" font-family="Times New Roman,serif" font-size="8.00">0...*</text>
<text text-anchor="middle" x="1224.14" y="-356.768" font-family="Times New Roman,serif" font-size="8.00">0...*</text>
</g>
<!-- Individual -->
<g id="ItemTypeIndividual" class="node"><title></title><ellipse fill="#f7b733" stroke="black" cx="1566.6" cy="-92.7644" rx="28.2235" ry="18" style="filter: url(#dropshadow)"/>
<text text-anchor="middle" x="1566.6" y="-90.8644" font-family="Times New Roman,serif" font-size="8.00">Individual</text>
</g>
<!-- CollectionTypeAccessType&#45;&gt;Individual -->
<g id="edge21" class="edge"><title>CollectionTypeAccessType&#45;&gt;Individual</title>
<path fill="none" stroke="black" d="M1255.23,-363.237C1259.57,-358.726 1263.56,-353.908 1267.1,-348.764 1311.94,-283.635 1235.47,-233.317 1285.1,-171.764 1347.82,-93.9834 1480.72,-89.1962 1538.18,-91.07"/>
<text text-anchor="middle" x="1363.6" y="-174.364" font-family="Times New Roman,serif" font-size="8.00">ContactOrganizationReference_Individual</text>
<text text-anchor="middle" x="1530.18" y="-84.67" font-family="Times New Roman,serif" font-size="8.00">0...*</text>
<text text-anchor="middle" x="1247.23" y="-356.837" font-family="Times New Roman,serif" font-size="8.00">0...*</text>
</g>
<!-- CollectionTypeItemType&#45;&gt;CollectionTypeCitationType -->
<g id="edge22" class="edge"><title>CollectionTypeItemType&#45;&gt;CollectionTypeCitationType</title>
<path fill="none" stroke="black" d="M787.352,-308.822C844.96,-297.636 911.76,-284.666 969.743,-273.407"/>
<text text-anchor="middle" x="873.101" y="-307.364" font-family="Times New Roman,serif" font-size="8.00">Citation</text>
<text text-anchor="middle" x="961.743" y="-267.007" font-family="Times New Roman,serif" font-size="8.00">0...*</text>
<text text-anchor="middle" x="795.352" y="-302.422" font-family="Times New Roman,serif" font-size="8.00">0...*</text>
</g>
<!-- CollectionTypeItemType&#45;&gt;CollectionTypeInternationalStringType -->
<g id="edge23" class="edge"><title>CollectionTypeItemType&#45;&gt;CollectionTypeInternationalStringType</title>
<path fill="none" stroke="black" d="M776.612,-273.167C780.151,-271.355 783.653,-269.552 787.101,-267.764 864.441,-227.669 874.695,-195.324 959.101,-173.764 1145.27,-126.211 1373.76,-162.077 1489.95,-186.688"/>
<text text-anchor="middle" x="1113.1" y="-176.364" font-family="Times New Roman,serif" font-size="8.00">LocationInArchive</text>
<text text-anchor="middle" x="1481.95" y="-180.288" font-family="Times New Roman,serif" font-size="8.00">0...*</text>
<text text-anchor="middle" x="784.612" y="-266.767" font-family="Times New Roman,serif" font-size="8.00">0...*</text>
</g>
<!-- CollectionTypeItemType&#45;&gt;CollectionTypeStudyClassType -->
<g id="edge24" class="edge"><title>CollectionTypeItemType&#45;&gt;CollectionTypeStudyClassType</title>
<path fill="none" stroke="black" d="M700.037,-398.396C728.267,-429.315 765.529,-464.986 805.101,-488.764 863.382,-523.785 936.704,-544.091 997.076,-555.734"/>
<text text-anchor="middle" x="873.101" y="-544.364" font-family="Times New Roman,serif" font-size="8.00">StudyClass</text>
<text text-anchor="middle" x="989.076" y="-549.334" font-family="Times New Roman,serif" font-size="8.00">0...*</text>
<text text-anchor="middle" x="692.037" y="-400.996" font-family="Times New Roman,serif" font-size="8.00">0...*</text>
</g>
<!-- CollectionTypeItemType&#45;&gt;CollectionTypeAccessType -->
<g id="edge25" class="edge"><title>CollectionTypeItemType&#45;&gt;CollectionTypeAccessType</title>
<path fill="none" stroke="black" d="M787.352,-362.706C841.36,-373.193 903.446,-385.249 958.772,-395.992"/>
<text text-anchor="middle" x="873.101" y="-394.364" font-family="Times New Roman,serif" font-size="8.00">Access</text>
<text text-anchor="middle" x="950.772" y="-389.592" font-family="Times New Roman,serif" font-size="8.00">0...*</text>
<text text-anchor="middle" x="795.352" y="-356.306" font-family="Times New Roman,serif" font-size="8.00">0...*</text>
</g>
<!-- CollectionTypeItemType&#45;&gt;Organization -->
<g id="edge26" class="edge"><title>CollectionTypeItemType&#45;&gt;Organization</title>
<path fill="none" stroke="black" d="M782.949,-273.185C784.394,-271.425 785.78,-269.619 787.101,-267.764 824.777,-214.872 759.249,-168.75 805.101,-122.764 908.389,-19.1764 1396.87,-31.6554 1531.29,-37.1609"/>
<text text-anchor="middle" x="1113.1" y="-64.3644" font-family="Times New Roman,serif" font-size="8.00">OriginalArchiveOrganizationReference</text>
<text text-anchor="middle" x="1523.29" y="-30.7609" font-family="Times New Roman,serif" font-size="8.00">0...*</text>
<text text-anchor="middle" x="790.949" y="-275.785" font-family="Times New Roman,serif" font-size="8.00">0...*</text>
</g>
<!-- CollectionTypeItemType&#45;&gt;CollectionTypeStructuredStringType -->
<g id="edge27" class="edge"><title>CollectionTypeItemType&#45;&gt;CollectionTypeStructuredStringType</title>
<path fill="none" stroke="black" d="M787.425,-328.708C999.086,-318.877 1384.16,-304.988 1442.1,-330.764 1497.4,-355.365 1538.36,-418.314 1556.01,-449.579"/>
<text text-anchor="middle" x="1113.1" y="-324.364" font-family="Times New Roman,serif" font-size="8.00">AvailabilityStatus</text>
<text text-anchor="middle" x="1548.01" y="-443.179" font-family="Times New Roman,serif" font-size="8.00">0...*</text>
<text text-anchor="middle" x="795.425" y="-322.308" font-family="Times New Roman,serif" font-size="8.00">0...*</text>
</g>
<!-- CollectionTypeItemType&#45;&gt;CollectionTypeStructuredStringType -->
<g id="edge28" class="edge"><title>CollectionTypeItemType&#45;&gt;CollectionTypeStructuredStringType</title>
<path fill="none" stroke="black" d="M762.743,-398.439C842.342,-441.604 937.941,-492.162 959.101,-497.764 1062.89,-525.246 1336.17,-527.284 1442.1,-509.764 1470.03,-505.145 1500.13,-495.023 1523.62,-485.874"/>
<text text-anchor="middle" x="1113.1" y="-524.364" font-family="Times New Roman,serif" font-size="8.00">CollectionCompleteness</text>
<text text-anchor="middle" x="1515.62" y="-488.474" font-family="Times New Roman,serif" font-size="8.00">0...*</text>
<text text-anchor="middle" x="754.743" y="-401.039" font-family="Times New Roman,serif" font-size="8.00">0...*</text>
</g>
<!-- CollectionTypeItemType&#45;&gt;CollectionTypeItemType -->
<g id="edge29" class="edge"><title>CollectionTypeItemType&#45;&gt;CollectionTypeItemType</title>
<path fill="none" stroke="black" d="M618.545,-398.595C622.515,-409.328 632.201,-416.764 647.601,-416.764 663.001,-416.764 672.687,-409.328 676.657,-398.595"/>
<text text-anchor="middle" x="647.601" y="-419.364" font-family="Times New Roman,serif" font-size="8.00">Item</text>
<text text-anchor="middle" x="668.657" y="-401.195" font-family="Times New Roman,serif" font-size="8.00">0...*</text>
<text text-anchor="middle" x="610.545" y="-401.195" font-family="Times New Roman,serif" font-size="8.00">0...*</text>
</g>
<!-- ArchiveSpecificType -->
<g id="ReusableTypeArchiveSpecificType0" class="node"><title></title><ellipse fill="#f7b733" stroke="black" cx="51.0505" cy="-335.764" rx="51.1011" ry="18" style="filter: url(#dropshadow)"/>
<text text-anchor="middle" x="51.0505" y="-333.864" font-family="Times New Roman,serif" font-size="8.00">ArchiveSpecificType</text>
</g>
<!-- ArchiveSpecificType&#45;&gt;CollectionTypeProperties -->
<g id="edge30" class="edge"><title>ArchiveSpecificType&#45;&gt;CollectionTypeProperties</title>
<path fill="none" stroke="black" d="M102.266,-335.764C121.324,-335.764 144.123,-335.764 167.595,-335.764"/>
<text text-anchor="middle" x="138.601" y="-338.364" font-family="Times New Roman,serif" font-size="8.00">Collection</text>
<text text-anchor="middle" x="159.595" y="-329.364" font-family="Times New Roman,serif" font-size="8.00">0...*</text>
<text text-anchor="middle" x="110.266" y="-329.364" font-family="Times New Roman,serif" font-size="8.00">0...*</text>
</g>
</g>
</svg>
