<?xml version="1.0" encoding="UTF-8" standalone="no"?>
<!DOCTYPE svg PUBLIC "-//W3C//DTD SVG 1.1//EN"
 "http://www.w3.org/Graphics/SVG/1.1/DTD/svg11.dtd">
<!-- Generated by graphviz version 2.38.0 (20140413.2041)
 -->
<!-- Title: G Pages: 1 -->
<svg width="878pt" height="746pt"
 viewBox="0.00 0.00 878.45 746.00" xmlns="http://www.w3.org/2000/svg" xmlns:xlink="http://www.w3.org/1999/xlink">
<filter id = "dropshadow" height = "130%" ><feGaussianBlur in= "SourceAlpha" stdDeviation = "3"/><!--stdDeviation is how much to blur--><feOffset dx = "2" dy = "2" result = "offsetblur"/><!--how much to offset--><feMerge><feMergeNode/><!--this contains the offset blurred image--><feMergeNode in= "SourceGraphic"/><!--this contains the element that the filter is applied to --></feMerge></filter>
<g id="graph0" class="graph" transform="scale(1 1) rotate(0) translate(4 742)">
<title>G</title>
<g id="clust1" class="cluster"><title>clusterCommandCodeType</title>
<polygon fill="#4abdac" stroke="black" points="234.446,-294 234.446,-574 862.446,-574 862.446,-294 234.446,-294" style="filter: url(#dropshadow)"/>
<text text-anchor="middle" x="548.446" y="-563.6" font-family="Times New Roman,serif" font-size="8.00">CommandCodeType</text>
</g>
<!-- CommandCodeTypeProperties -->
<g id="ReusableTypeCommandCodeTypeProperties" class="node"><title></title><polygon fill="#f7b733" stroke="black" points="242.446,-390 242.446,-434 501.446,-434 501.446,-390 242.446,-390" style="filter: url(#dropshadow)"/>
<text text-anchor="middle" x="268.946" y="-410.1" font-family="Times New Roman,serif" font-size="8.00">Properties</text>
<polyline fill="none" stroke="black" points="295.446,-390 295.446,-434 "/>
<text text-anchor="start" x="303.446" y="-423.6" font-family="Times New Roman,serif" font-size="8.00">Description : StructuredStringType[0...1] </text>
<text text-anchor="start" x="303.446" y="-414.6" font-family="Times New Roman,serif" font-size="8.00">Command : CommandType[0...n] </text>
<text text-anchor="start" x="303.446" y="-405.6" font-family="Times New Roman,serif" font-size="8.00">CommandFile : CommandFileType[0...n] </text>
<text text-anchor="start" x="303.446" y="-396.6" font-family="Times New Roman,serif" font-size="8.00">StructuredCommand : StructuredCommandType[0...1] </text>
</g>
<!-- CommandCodeTypeStructuredStringType -->
<g id="ReusableTypeCommandCodeTypeStructuredStringType" class="node"><title></title><polygon fill="#fc4a1a" stroke="black" points="624.446,-303 624.446,-339 837.446,-339 837.446,-303 624.446,-303" style="filter: url(#dropshadow)"/>
<text text-anchor="middle" x="669.446" y="-319.1" font-family="Times New Roman,serif" font-size="8.00">StructuredStringType</text>
<polyline fill="none" stroke="black" points="714.446,-303 714.446,-339 "/>
<text text-anchor="start" x="722.446" y="-319.1" font-family="Times New Roman,serif" font-size="8.00">Content : ContentType[0...n] </text>
</g>
<!-- CommandCodeTypeProperties&#45;&gt;CommandCodeTypeStructuredStringType -->
<g id="edge1" class="edge"><title>CommandCodeTypeProperties&#45;&gt;CommandCodeTypeStructuredStringType</title>
<path fill="none" stroke="black" d="M451.991,-389.967C497.37,-377.518 555.489,-361.912 607.446,-349 620.89,-345.659 635.201,-342.252 649.123,-339.019"/>
<text text-anchor="middle" x="554.446" y="-373.6" font-family="Times New Roman,serif" font-size="8.00">Description</text>
</g>
<!-- CommandCodeTypeCommandType -->
<g id="ReusableTypeCommandCodeTypeCommandType" class="node"><title></title><polygon fill="#fc4a1a" stroke="black" points="613.446,-358.5 613.446,-411.5 848.446,-411.5 848.446,-358.5 613.446,-358.5" style="filter: url(#dropshadow)"/>
<text text-anchor="middle" x="648.946" y="-383.1" font-family="Times New Roman,serif" font-size="8.00">CommandType</text>
<polyline fill="none" stroke="black" points="684.446,-358.5 684.446,-411.5 "/>
<text text-anchor="start" x="692.446" y="-401.1" font-family="Times New Roman,serif" font-size="8.00">ProgramLanguage : CodeValueType[0...1] </text>
<text text-anchor="start" x="692.446" y="-392.1" font-family="Times New Roman,serif" font-size="8.00">InParameter : InParameterType[0...n] </text>
<text text-anchor="start" x="692.446" y="-383.1" font-family="Times New Roman,serif" font-size="8.00">OutParameter : ParameterType[0...n] </text>
<text text-anchor="start" x="692.446" y="-374.1" font-family="Times New Roman,serif" font-size="8.00">Binding : BindingType[0...n] </text>
<text text-anchor="start" x="692.446" y="-365.1" font-family="Times New Roman,serif" font-size="8.00">CommandContent : string[0...1] </text>
</g>
<!-- CommandCodeTypeProperties&#45;&gt;CommandCodeTypeCommandType -->
<g id="edge2" class="edge"><title>CommandCodeTypeProperties&#45;&gt;CommandCodeTypeCommandType</title>
<path fill="none" stroke="black" d="M501.579,-402.271C538.044,-399.514 577.529,-396.527 613.247,-393.826"/>
<text text-anchor="middle" x="554.446" y="-403.6" font-family="Times New Roman,serif" font-size="8.00">Command</text>
</g>
<!-- CommandCodeTypeCommandFileType -->
<g id="ReusableTypeCommandCodeTypeCommandFileType" class="node"><title></title><polygon fill="#fc4a1a" stroke="black" points="607.446,-431 607.446,-493 854.446,-493 854.446,-431 607.446,-431" style="filter: url(#dropshadow)"/>
<text text-anchor="middle" x="648.946" y="-460.1" font-family="Times New Roman,serif" font-size="8.00">CommandFileType</text>
<polyline fill="none" stroke="black" points="690.446,-431 690.446,-493 "/>
<text text-anchor="start" x="698.446" y="-482.6" font-family="Times New Roman,serif" font-size="8.00">ProgramLanguage : CodeValueType[0...1] </text>
<text text-anchor="start" x="698.446" y="-473.6" font-family="Times New Roman,serif" font-size="8.00">InParameter : InParameterType[0...n] </text>
<text text-anchor="start" x="698.446" y="-464.6" font-family="Times New Roman,serif" font-size="8.00">OutParameter : ParameterType[0...n] </text>
<text text-anchor="start" x="698.446" y="-455.6" font-family="Times New Roman,serif" font-size="8.00">Binding : BindingType[0...n] </text>
<text text-anchor="start" x="698.446" y="-446.6" font-family="Times New Roman,serif" font-size="8.00">Location : InternationalStringType[0...1] </text>
<text text-anchor="start" x="698.446" y="-437.6" font-family="Times New Roman,serif" font-size="8.00">URI : anyURI[0...1] </text>
</g>
<!-- CommandCodeTypeProperties&#45;&gt;CommandCodeTypeCommandFileType -->
<g id="edge3" class="edge"><title>CommandCodeTypeProperties&#45;&gt;CommandCodeTypeCommandFileType</title>
<path fill="none" stroke="black" d="M501.579,-430.016C536.046,-434.843 573.211,-440.048 607.342,-444.829"/>
<text text-anchor="middle" x="554.446" y="-444.6" font-family="Times New Roman,serif" font-size="8.00">CommandFile</text>
</g>
<!-- CommandCodeTypeStructuredCommandType -->
<g id="ReusableTypeCommandCodeTypeStructuredCommandType" class="node"><title></title><polygon fill="#fc4a1a" stroke="black" points="668.946,-512 668.946,-548 792.946,-548 792.946,-512 668.946,-512" style="filter: url(#dropshadow)"/>
<text text-anchor="middle" x="721.446" y="-528.1" font-family="Times New Roman,serif" font-size="8.00">StructuredCommandType</text>
<polyline fill="none" stroke="black" points="773.946,-512 773.946,-548 "/>
<text text-anchor="middle" x="783.446" y="-528.1" font-family="Times New Roman,serif" font-size="8.00"> </text>
</g>
<!-- CommandCodeTypeProperties&#45;&gt;CommandCodeTypeStructuredCommandType -->
<g id="edge4" class="edge"><title>CommandCodeTypeProperties&#45;&gt;CommandCodeTypeStructuredCommandType</title>
<path fill="none" stroke="black" d="M424.366,-434.161C471.392,-453.842 543.203,-482.438 607.446,-502 627.168,-508.005 649.022,-513.393 668.746,-517.8"/>
<text text-anchor="middle" x="554.446" y="-498.6" font-family="Times New Roman,serif" font-size="8.00">StructuredCommand</text>
</g>
<!-- ComputationItem -->
<g id="ItemTypeComputationItem" class="node"><title></title><ellipse fill="#f7b733" stroke="black" cx="56.7228" cy="-720" rx="44.6228" ry="18" style="filter: url(#dropshadow)"/>
<text text-anchor="middle" x="56.7228" y="-718.1" font-family="Times New Roman,serif" font-size="8.00">ComputationItem</text>
</g>
<!-- ComputationItem&#45;&gt;CommandCodeTypeProperties -->
<g id="edge5" class="edge"><title>ComputationItem&#45;&gt;CommandCodeTypeProperties</title>
<path fill="none" stroke="black" d="M99.7572,-714.971C136.119,-708.766 188.38,-695.191 224.446,-666 255.205,-641.104 280.792,-607.908 301.512,-573.747"/>
<text text-anchor="middle" x="177.946" y="-710.6" font-family="Times New Roman,serif" font-size="8.00">CommandCode</text>
</g>
<!-- GeneralInstruction -->
<g id="ItemTypeGeneralInstruction" class="node"><title></title><ellipse fill="#f7b733" stroke="black" cx="56.7228" cy="-666" rx="45.891" ry="18" style="filter: url(#dropshadow)"/>
<text text-anchor="middle" x="56.7228" y="-664.1" font-family="Times New Roman,serif" font-size="8.00">GeneralInstruction</text>
</g>
<!-- GeneralInstruction&#45;&gt;CommandCodeTypeProperties -->
<g id="edge6" class="edge"><title>GeneralInstruction&#45;&gt;CommandCodeTypeProperties</title>
<path fill="none" stroke="black" d="M100.435,-660.03C136.257,-653.342 187.36,-639.722 224.446,-613 240.08,-601.735 254.715,-588.29 268.224,-573.767"/>
<text text-anchor="middle" x="177.946" y="-655.6" font-family="Times New Roman,serif" font-size="8.00">CommandCode</text>
</g>
<!-- GenerationInstruction -->
<g id="ItemTypeGenerationInstruction" class="node"><title></title><ellipse fill="#f7b733" stroke="black" cx="56.7228" cy="-612" rx="52.5056" ry="18" style="filter: url(#dropshadow)"/>
<text text-anchor="middle" x="56.7228" y="-610.1" font-family="Times New Roman,serif" font-size="8.00">GenerationInstruction</text>
</g>
<!-- GenerationInstruction&#45;&gt;CommandCodeTypeProperties -->
<g id="edge7" class="edge"><title>GenerationInstruction&#45;&gt;CommandCodeTypeProperties</title>
<path fill="none" stroke="black" d="M105.665,-605.049C140.516,-598.421 187.806,-586.066 224.446,-564 227.905,-561.916 231.339,-559.73 234.741,-557.455"/>
<text text-anchor="middle" x="177.946" y="-602.6" font-family="Times New Roman,serif" font-size="8.00">CommandCode</text>
</g>
<!-- IfThenElse -->
<g id="ItemTypeIfThenElse" class="node"><title></title><ellipse fill="#f7b733" stroke="black" cx="56.7228" cy="-558" rx="31.5313" ry="18" style="filter: url(#dropshadow)"/>
<text text-anchor="middle" x="56.7228" y="-556.1" font-family="Times New Roman,serif" font-size="8.00">IfThenElse</text>
</g>
<!-- IfThenElse&#45;&gt;CommandCodeTypeProperties -->
<g id="edge8" class="edge"><title>IfThenElse&#45;&gt;CommandCodeTypeProperties</title>
<path fill="none" stroke="black" d="M88.5162,-556.14C122.985,-553.114 179.847,-545.25 224.446,-525 227.942,-523.413 231.431,-521.727 234.905,-519.956"/>
<text text-anchor="middle" x="177.946" y="-553.6" font-family="Times New Roman,serif" font-size="8.00">IfCondition</text>
</g>
<!-- Loop -->
<g id="ItemTypeLoop0" class="node"><title></title><ellipse fill="#f7b733" stroke="black" cx="56.7228" cy="-504" rx="27" ry="18" style="filter: url(#dropshadow)"/>
<text text-anchor="middle" x="56.7228" y="-502.1" font-family="Times New Roman,serif" font-size="8.00">Loop</text>
</g>
<!-- Loop&#45;&gt;CommandCodeTypeProperties -->
<g id="edge9" class="edge"><title>Loop&#45;&gt;CommandCodeTypeProperties</title>
<path fill="none" stroke="black" d="M83.1885,-507.822C116.426,-511.886 176.06,-515.989 224.446,-502 227.893,-501.003 231.341,-499.901 234.779,-498.707"/>
<text text-anchor="middle" x="177.946" y="-514.6" font-family="Times New Roman,serif" font-size="8.00">InitialValue</text>
</g>
<!-- Loop&#45;&gt;CommandCodeTypeProperties -->
<g id="edge10" class="edge"><title>Loop&#45;&gt;CommandCodeTypeProperties</title>
<path fill="none" stroke="black" d="M83.2017,-500.235C116.202,-495.034 175.319,-484.61 224.446,-470 227.801,-469.002 231.187,-467.959 234.592,-466.878"/>
<text text-anchor="middle" x="177.946" y="-494.6" font-family="Times New Roman,serif" font-size="8.00">LoopWhile</text>
</g>
<!-- Loop&#45;&gt;CommandCodeTypeProperties -->
<g id="edge11" class="edge"><title>Loop&#45;&gt;CommandCodeTypeProperties</title>
<path fill="none" stroke="black" d="M80.1873,-494.822C90.6632,-490.12 103.076,-483.927 113.446,-477 122.346,-471.054 121.875,-465.792 131.446,-461 141.764,-455.833 186.541,-446.213 234.636,-436.856"/>
<text text-anchor="middle" x="177.946" y="-463.6" font-family="Times New Roman,serif" font-size="8.00">StepValue</text>
</g>
<!-- RepeatUntil -->
<g id="ItemTypeRepeatUntil1" class="node"><title></title><ellipse fill="#f7b733" stroke="black" cx="56.7228" cy="-450" rx="33.433" ry="18" style="filter: url(#dropshadow)"/>
<text text-anchor="middle" x="56.7228" y="-448.1" font-family="Times New Roman,serif" font-size="8.00">RepeatUntil</text>
</g>
<!-- RepeatUntil&#45;&gt;CommandCodeTypeProperties -->
<g id="edge12" class="edge"><title>RepeatUntil&#45;&gt;CommandCodeTypeProperties</title>
<path fill="none" stroke="black" d="M85.4123,-440.645C99.1078,-436.396 115.98,-431.721 131.446,-429 164.651,-423.157 200.782,-419.309 234.675,-416.779"/>
<text text-anchor="middle" x="177.946" y="-431.6" font-family="Times New Roman,serif" font-size="8.00">UntilCondition</text>
</g>
<!-- RepeatWhile -->
<g id="ItemTypeRepeatWhile2" class="node"><title></title><ellipse fill="#f7b733" stroke="black" cx="56.7228" cy="-396" rx="35.3371" ry="18" style="filter: url(#dropshadow)"/>
<text text-anchor="middle" x="56.7228" y="-394.1" font-family="Times New Roman,serif" font-size="8.00">RepeatWhile</text>
</g>
<!-- RepeatWhile&#45;&gt;CommandCodeTypeProperties -->
<g id="edge13" class="edge"><title>RepeatWhile&#45;&gt;CommandCodeTypeProperties</title>
<path fill="none" stroke="black" d="M91.9175,-395.247C125.639,-394.73 178.634,-394.523 224.446,-397 227.749,-397.179 231.092,-397.377 234.463,-397.594"/>
<text text-anchor="middle" x="177.946" y="-399.6" font-family="Times New Roman,serif" font-size="8.00">WhileCondition</text>
</g>
<!-- Universe -->
<g id="ItemTypeUniverse3" class="node"><title></title><ellipse fill="#f7b733" stroke="black" cx="56.7228" cy="-342" rx="27" ry="18" style="filter: url(#dropshadow)"/>
<text text-anchor="middle" x="56.7228" y="-340.1" font-family="Times New Roman,serif" font-size="8.00">Universe</text>
</g>
<!-- Universe&#45;&gt;CommandCodeTypeProperties -->
<g id="edge14" class="edge"><title>Universe&#45;&gt;CommandCodeTypeProperties</title>
<path fill="none" stroke="black" d="M82.5627,-347.551C115.777,-354.974 177.177,-368.696 234.811,-381.576"/>
<text text-anchor="middle" x="177.946" y="-382.6" font-family="Times New Roman,serif" font-size="8.00">UniverseGenerationCode</text>
</g>
<!-- ConditionalTextType -->
<g id="ReusableTypeConditionalTextType4" class="node"><title></title><ellipse fill="#f7b733" stroke="black" cx="56.7228" cy="-288" rx="52.5056" ry="18" style="filter: url(#dropshadow)"/>
<text text-anchor="middle" x="56.7228" y="-286.1" font-family="Times New Roman,serif" font-size="8.00">ConditionalTextType</text>
</g>
<!-- ConditionalTextType&#45;&gt;CommandCodeTypeProperties -->
<g id="edge15" class="edge"><title>ConditionalTextType&#45;&gt;CommandCodeTypeProperties</title>
<path fill="none" stroke="black" d="M95.8175,-300.186C129.84,-311.321 180.885,-328.65 224.446,-346 227.907,-347.379 231.406,-348.793 234.929,-350.236"/>
<text text-anchor="middle" x="177.946" y="-348.6" font-family="Times New Roman,serif" font-size="8.00">Expression</text>
</g>
<!-- ElseIfType -->
<g id="ReusableTypeElseIfType5" class="node"><title></title><ellipse fill="#f7b733" stroke="black" cx="56.7228" cy="-234" rx="31.5313" ry="18" style="filter: url(#dropshadow)"/>
<text text-anchor="middle" x="56.7228" y="-232.1" font-family="Times New Roman,serif" font-size="8.00">ElseIfType</text>
</g>
<!-- ElseIfType&#45;&gt;CommandCodeTypeProperties -->
<g id="edge16" class="edge"><title>ElseIfType&#45;&gt;CommandCodeTypeProperties</title>
<path fill="none" stroke="black" d="M85.0093,-242.464C118.889,-253.528 177.893,-274.638 224.446,-301 227.856,-302.931 231.277,-304.933 234.699,-306.994"/>
<text text-anchor="middle" x="177.946" y="-303.6" font-family="Times New Roman,serif" font-size="8.00">IfCondition</text>
</g>
<!-- GenerationType -->
<g id="ReusableTypeGenerationType6" class="node"><title></title><ellipse fill="#f7b733" stroke="black" cx="56.7228" cy="-180" rx="41.9498" ry="18" style="filter: url(#dropshadow)"/>
<text text-anchor="middle" x="56.7228" y="-178.1" font-family="Times New Roman,serif" font-size="8.00">GenerationType</text>
</g>
<!-- GenerationType&#45;&gt;CommandCodeTypeProperties -->
<g id="edge17" class="edge"><title>GenerationType&#45;&gt;CommandCodeTypeProperties</title>
<path fill="none" stroke="black" d="M93.6128,-188.899C129.093,-198.864 183.814,-217.461 224.446,-246 243.941,-259.693 262.584,-276.487 279.644,-294.076"/>
<text text-anchor="middle" x="177.946" y="-248.6" font-family="Times New Roman,serif" font-size="8.00">CommandCode</text>
</g>
<!-- RestrictionProcessType -->
<g id="ReusableTypeRestrictionProcessType7" class="node"><title></title><ellipse fill="#f7b733" stroke="black" cx="56.7228" cy="-126" rx="56.9465" ry="18" style="filter: url(#dropshadow)"/>
<text text-anchor="middle" x="56.7228" y="-124.1" font-family="Times New Roman,serif" font-size="8.00">RestrictionProcessType</text>
</g>
<!-- RestrictionProcessType&#45;&gt;CommandCodeTypeProperties -->
<g id="edge18" class="edge"><title>RestrictionProcessType&#45;&gt;CommandCodeTypeProperties</title>
<path fill="none" stroke="black" d="M105.196,-135.534C140.93,-144.576 189.55,-161.045 224.446,-189 259.832,-217.348 289.575,-256.619 312.817,-294.315"/>
<text text-anchor="middle" x="177.946" y="-191.6" font-family="Times New Roman,serif" font-size="8.00">CommandCode</text>
</g>
<!-- RosterType -->
<g id="ReusableTypeRosterType8" class="node"><title></title><ellipse fill="#f7b733" stroke="black" cx="56.7228" cy="-72" rx="32.7988" ry="18" style="filter: url(#dropshadow)"/>
<text text-anchor="middle" x="56.7228" y="-70.1" font-family="Times New Roman,serif" font-size="8.00">RosterType</text>
</g>
<!-- RosterType&#45;&gt;CommandCodeTypeProperties -->
<g id="edge19" class="edge"><title>RosterType&#45;&gt;CommandCodeTypeProperties</title>
<path fill="none" stroke="black" d="M88.8248,-76.2408C125.154,-82.6289 185.261,-97.8333 224.446,-132 273.673,-174.924 308.797,-238.477 332.289,-294.19"/>
<text text-anchor="middle" x="177.946" y="-134.6" font-family="Times New Roman,serif" font-size="8.00">ConditionForContinuation</text>
</g>
<!-- SpecificSequenceType -->
<g id="ReusableTypeSpecificSequenceType9" class="node"><title></title><ellipse fill="#f7b733" stroke="black" cx="56.7228" cy="-18" rx="52.5056" ry="18" style="filter: url(#dropshadow)"/>
<text text-anchor="middle" x="56.7228" y="-16.1" font-family="Times New Roman,serif" font-size="8.00">SpecificSequenceType</text>
</g>
<!-- SpecificSequenceType&#45;&gt;CommandCodeTypeProperties -->
<g id="edge20" class="edge"><title>SpecificSequenceType&#45;&gt;CommandCodeTypeProperties</title>
<path fill="none" stroke="black" d="M107.317,-23.4287C143.691,-29.776 192.169,-43.4835 224.446,-73 287.915,-131.042 325.094,-221.339 346.108,-294.149"/>
<text text-anchor="middle" x="177.946" y="-75.6" font-family="Times New Roman,serif" font-size="8.00">AlternateSequenceType</text>
</g>
</g>
</svg>
