<?xml version="1.0" encoding="UTF-8" standalone="no"?>
<!DOCTYPE svg PUBLIC "-//W3C//DTD SVG 1.1//EN"
 "http://www.w3.org/Graphics/SVG/1.1/DTD/svg11.dtd">
<!-- Generated by graphviz version 2.38.0 (20140413.2041)
 -->
<!-- Title: G Pages: 1 -->
<svg width="846pt" height="340pt"
 viewBox="0.00 0.00 846.22 340.00" xmlns="http://www.w3.org/2000/svg" xmlns:xlink="http://www.w3.org/1999/xlink">
<filter id = "dropshadow" height = "130%" ><feGaussianBlur in= "SourceAlpha" stdDeviation = "3"/><!--stdDeviation is how much to blur--><feOffset dx = "2" dy = "2" result = "offsetblur"/><!--how much to offset--><feMerge><feMergeNode/><!--this contains the offset blurred image--><feMergeNode in= "SourceGraphic"/><!--this contains the element that the filter is applied to --></feMerge></filter>
<g id="graph0" class="graph" transform="scale(1 1) rotate(0) translate(4 336)">
<title>G</title>
<g id="clust1" class="cluster"><title>clusterComparison</title>
<polygon fill="#4abdac" stroke="black" points="191.219,-125 191.219,-324 830.219,-324 830.219,-125 191.219,-125" style="filter: url(#dropshadow)"/>
<text text-anchor="middle" x="510.719" y="-313.6" font-family="Times New Roman,serif" font-size="8.00">Comparison</text>
</g>
<!-- ComparisonProperties -->
<g id="ItemTypeComparisonProperties" class="node"><title></title><polygon fill="#f7b733" stroke="black" points="199.219,-133.5 199.219,-222.5 470.219,-222.5 470.219,-133.5 199.219,-133.5" style="filter: url(#dropshadow)"/>
<text text-anchor="middle" x="225.719" y="-176.1" font-family="Times New Roman,serif" font-size="8.00">Properties</text>
<polyline fill="none" stroke="black" points="252.219,-133.5 252.219,-222.5 "/>
<text text-anchor="start" x="260.219" y="-212.1" font-family="Times New Roman,serif" font-size="8.00">ComparisonName : NameType[0...n] </text>
<text text-anchor="start" x="260.219" y="-203.1" font-family="Times New Roman,serif" font-size="8.00">Label : LabelType[0...n] </text>
<text text-anchor="start" x="260.219" y="-194.1" font-family="Times New Roman,serif" font-size="8.00">Description : StructuredStringType[0...1] </text>
<text text-anchor="start" x="260.219" y="-185.1" font-family="Times New Roman,serif" font-size="8.00">ConceptMapReference : GenericMap[0...n] </text>
<text text-anchor="start" x="260.219" y="-176.1" font-family="Times New Roman,serif" font-size="8.00">VariableMapReference : GenericMap[0...n] </text>
<text text-anchor="start" x="260.219" y="-167.1" font-family="Times New Roman,serif" font-size="8.00">QuestionMapReference : GenericMap[0...n] </text>
<text text-anchor="start" x="260.219" y="-158.1" font-family="Times New Roman,serif" font-size="8.00">CategoryMapReference : GenericMap[0...n] </text>
<text text-anchor="start" x="260.219" y="-149.1" font-family="Times New Roman,serif" font-size="8.00">RepresentationMapReference : RepresentationMap[0...n] </text>
<text text-anchor="start" x="260.219" y="-140.1" font-family="Times New Roman,serif" font-size="8.00">UniverseMapReference : GenericMap[0...n] </text>
</g>
<!-- ComparisonNameType -->
<g id="ReusableTypeComparisonNameType" class="node"><title></title><polygon fill="#fc4a1a" stroke="black" points="631.219,-134 631.219,-170 800.219,-170 800.219,-134 631.219,-134" style="filter: url(#dropshadow)"/>
<text text-anchor="middle" x="659.219" y="-150.1" font-family="Times New Roman,serif" font-size="8.00">NameType</text>
<polyline fill="none" stroke="black" points="687.219,-134 687.219,-170 "/>
<text text-anchor="start" x="695.219" y="-154.6" font-family="Times New Roman,serif" font-size="8.00">IsPreferred : boolean[0...1] </text>
<text text-anchor="start" x="695.219" y="-145.6" font-family="Times New Roman,serif" font-size="8.00">Context : string[0...1] </text>
</g>
<!-- ComparisonProperties&#45;&gt;ComparisonNameType -->
<g id="edge1" class="edge"><title>ComparisonProperties&#45;&gt;ComparisonNameType</title>
<path fill="none" stroke="black" d="M470.377,-195.67C509.675,-197.499 552.462,-196.225 591.219,-188 599.783,-186.183 600.962,-182.91 609.219,-180 619.317,-176.441 630.096,-173.09 640.765,-170.027"/>
<text text-anchor="middle" x="539.719" y="-199.6" font-family="Times New Roman,serif" font-size="8.00">ComparisonName</text>
</g>
<!-- ComparisonLabelType -->
<g id="ReusableTypeComparisonLabelType" class="node"><title></title><polygon fill="#fc4a1a" stroke="black" points="614.219,-189.5 614.219,-242.5 817.219,-242.5 817.219,-189.5 614.219,-189.5" style="filter: url(#dropshadow)"/>
<text text-anchor="middle" x="641.219" y="-214.1" font-family="Times New Roman,serif" font-size="8.00">LabelType</text>
<polyline fill="none" stroke="black" points="668.219,-189.5 668.219,-242.5 "/>
<text text-anchor="start" x="676.219" y="-232.1" font-family="Times New Roman,serif" font-size="8.00">TypeOfLabel : CodeValueType[0...1] </text>
<text text-anchor="start" x="676.219" y="-223.1" font-family="Times New Roman,serif" font-size="8.00">LocationVariant : string[0...1] </text>
<text text-anchor="start" x="676.219" y="-214.1" font-family="Times New Roman,serif" font-size="8.00">ValidForStartDate : cogsDate[0...1] </text>
<text text-anchor="start" x="676.219" y="-205.1" font-family="Times New Roman,serif" font-size="8.00">ValidForEndDate : cogsDate[0...1] </text>
<text text-anchor="start" x="676.219" y="-196.1" font-family="Times New Roman,serif" font-size="8.00">MaxLength : int[0...1] </text>
</g>
<!-- ComparisonProperties&#45;&gt;ComparisonLabelType -->
<g id="edge2" class="edge"><title>ComparisonProperties&#45;&gt;ComparisonLabelType</title>
<path fill="none" stroke="black" d="M470.631,-207.657C476.56,-208.534 482.442,-209.323 488.219,-210 529.241,-214.808 574.716,-216.681 614.09,-217.218"/>
<text text-anchor="middle" x="539.719" y="-219.6" font-family="Times New Roman,serif" font-size="8.00">Label</text>
</g>
<!-- ComparisonStructuredStringType -->
<g id="ReusableTypeComparisonStructuredStringType" class="node"><title></title><polygon fill="#fc4a1a" stroke="black" points="609.219,-262 609.219,-298 822.219,-298 822.219,-262 609.219,-262" style="filter: url(#dropshadow)"/>
<text text-anchor="middle" x="654.219" y="-278.1" font-family="Times New Roman,serif" font-size="8.00">StructuredStringType</text>
<polyline fill="none" stroke="black" points="699.219,-262 699.219,-298 "/>
<text text-anchor="start" x="707.219" y="-278.1" font-family="Times New Roman,serif" font-size="8.00">Content : ContentType[0...n] </text>
</g>
<!-- ComparisonProperties&#45;&gt;ComparisonStructuredStringType -->
<g id="edge3" class="edge"><title>ComparisonProperties&#45;&gt;ComparisonStructuredStringType</title>
<path fill="none" stroke="black" d="M463.116,-222.608C471.58,-225.21 480.003,-227.7 488.219,-230 531.845,-242.212 580.869,-253.347 622.122,-261.993"/>
<text text-anchor="middle" x="539.719" y="-257.6" font-family="Times New Roman,serif" font-size="8.00">Description</text>
</g>
<!-- GenericMap -->
<g id="ItemTypeGenericMap" class="node"><title></title><ellipse fill="#f7b733" stroke="black" cx="715.719" cy="-97" rx="33.433" ry="18" style="filter: url(#dropshadow)"/>
<text text-anchor="middle" x="715.719" y="-95.1" font-family="Times New Roman,serif" font-size="8.00">GenericMap</text>
</g>
<!-- ComparisonProperties&#45;&gt;GenericMap -->
<g id="edge4" class="edge"><title>ComparisonProperties&#45;&gt;GenericMap</title>
<path fill="none" stroke="black" d="M470.395,-178.005C520.85,-175.621 570.883,-169.641 591.219,-156 605.745,-146.256 595.397,-131.721 609.219,-121 629.998,-104.882 659.602,-99.2154 682.164,-97.3894"/>
<text text-anchor="middle" x="539.719" y="-179.6" font-family="Times New Roman,serif" font-size="8.00">ConceptMapReference</text>
<text text-anchor="middle" x="674.164" y="-99.9894" font-family="Times New Roman,serif" font-size="8.00">0...*</text>
<text text-anchor="middle" x="478.395" y="-171.605" font-family="Times New Roman,serif" font-size="8.00">0...*</text>
</g>
<!-- ComparisonProperties&#45;&gt;GenericMap -->
<g id="edge5" class="edge"><title>ComparisonProperties&#45;&gt;GenericMap</title>
<path fill="none" stroke="black" d="M470.346,-149.73C509.351,-141.489 551.991,-132.433 591.219,-124 623.083,-117.15 659.536,-109.162 684.532,-103.661"/>
<text text-anchor="middle" x="539.719" y="-147.6" font-family="Times New Roman,serif" font-size="8.00">VariableMapReference</text>
<text text-anchor="middle" x="676.532" y="-106.261" font-family="Times New Roman,serif" font-size="8.00">0...*</text>
<text text-anchor="middle" x="478.346" y="-143.33" font-family="Times New Roman,serif" font-size="8.00">0...*</text>
</g>
<!-- ComparisonProperties&#45;&gt;GenericMap -->
<g id="edge6" class="edge"><title>ComparisonProperties&#45;&gt;GenericMap</title>
<path fill="none" stroke="black" d="M430.599,-133.487C449.35,-126.218 469.138,-119.579 488.219,-115 555.728,-98.7986 637.469,-96.3663 681.964,-96.4283"/>
<text text-anchor="middle" x="539.719" y="-117.6" font-family="Times New Roman,serif" font-size="8.00">QuestionMapReference</text>
<text text-anchor="middle" x="673.964" y="-90.0283" font-family="Times New Roman,serif" font-size="8.00">0...*</text>
<text text-anchor="middle" x="422.599" y="-127.087" font-family="Times New Roman,serif" font-size="8.00">0...*</text>
</g>
<!-- ComparisonProperties&#45;&gt;GenericMap -->
<g id="edge7" class="edge"><title>ComparisonProperties&#45;&gt;GenericMap</title>
<path fill="none" stroke="black" d="M394.301,-133.454C421.364,-115.595 454.855,-97.1109 488.219,-88 556.554,-69.3393 640.771,-81.3696 684.752,-90.1574"/>
<text text-anchor="middle" x="539.719" y="-90.6" font-family="Times New Roman,serif" font-size="8.00">CategoryMapReference</text>
<text text-anchor="middle" x="676.752" y="-83.7574" font-family="Times New Roman,serif" font-size="8.00">0...*</text>
<text text-anchor="middle" x="386.301" y="-127.054" font-family="Times New Roman,serif" font-size="8.00">0...*</text>
</g>
<!-- ComparisonProperties&#45;&gt;GenericMap -->
<g id="edge9" class="edge"><title>ComparisonProperties&#45;&gt;GenericMap</title>
<path fill="none" stroke="black" d="M380.365,-133.267C408.65,-108.195 447.483,-79.3516 488.219,-66 558.369,-43.0072 646.15,-69.7905 688.91,-86.1567"/>
<text text-anchor="middle" x="539.719" y="-68.6" font-family="Times New Roman,serif" font-size="8.00">UniverseMapReference</text>
<text text-anchor="middle" x="680.91" y="-79.7567" font-family="Times New Roman,serif" font-size="8.00">0...*</text>
<text text-anchor="middle" x="372.365" y="-126.867" font-family="Times New Roman,serif" font-size="8.00">0...*</text>
</g>
<!-- RepresentationMap -->
<g id="ItemTypeRepresentationMap" class="node"><title></title><ellipse fill="#f7b733" stroke="black" cx="715.719" cy="-18" rx="48.4297" ry="18" style="filter: url(#dropshadow)"/>
<text text-anchor="middle" x="715.719" y="-16.1" font-family="Times New Roman,serif" font-size="8.00">RepresentationMap</text>
</g>
<!-- ComparisonProperties&#45;&gt;RepresentationMap -->
<g id="edge8" class="edge"><title>ComparisonProperties&#45;&gt;RepresentationMap</title>
<path fill="none" stroke="black" d="M373.288,-133.443C401.579,-103.137 443.109,-65.0326 488.219,-45 546.127,-19.2836 620.127,-15.1658 667.483,-15.6939"/>
<text text-anchor="middle" x="539.719" y="-47.6" font-family="Times New Roman,serif" font-size="8.00">RepresentationMapReference</text>
<text text-anchor="middle" x="659.483" y="-9.29386" font-family="Times New Roman,serif" font-size="8.00">0...*</text>
<text text-anchor="middle" x="365.288" y="-136.043" font-family="Times New Roman,serif" font-size="8.00">0...*</text>
</g>
<!-- Group -->
<g id="ItemTypeGroup" class="node"><title></title><ellipse fill="#f7b733" stroke="black" cx="43.1093" cy="-232" rx="27" ry="18" style="filter: url(#dropshadow)"/>
<text text-anchor="middle" x="43.1093" y="-230.1" font-family="Times New Roman,serif" font-size="8.00">Group</text>
</g>
<!-- Group&#45;&gt;ComparisonProperties -->
<g id="edge10" class="edge"><title>Group&#45;&gt;ComparisonProperties</title>
<path fill="none" stroke="black" d="M69.3036,-227.302C97.2583,-222.09 144.652,-213.253 191.659,-204.488"/>
<text text-anchor="middle" x="142.719" y="-223.6" font-family="Times New Roman,serif" font-size="8.00">ComparisonReference</text>
<text text-anchor="middle" x="183.659" y="-198.088" font-family="Times New Roman,serif" font-size="8.00">0...*</text>
<text text-anchor="middle" x="77.3036" y="-220.902" font-family="Times New Roman,serif" font-size="8.00">0...*</text>
</g>
<!-- ResourcePackage -->
<g id="ItemTypeResourcePackage" class="node"><title></title><ellipse fill="#f7b733" stroke="black" cx="43.1093" cy="-178" rx="43.219" ry="18" style="filter: url(#dropshadow)"/>
<text text-anchor="middle" x="43.1093" y="-176.1" font-family="Times New Roman,serif" font-size="8.00">ResourcePackage</text>
</g>
<!-- ResourcePackage&#45;&gt;ComparisonProperties -->
<g id="edge11" class="edge"><title>ResourcePackage&#45;&gt;ComparisonProperties</title>
<path fill="none" stroke="black" d="M86.221,-178C114.312,-178 153.027,-178 191.498,-178"/>
<text text-anchor="middle" x="142.719" y="-180.6" font-family="Times New Roman,serif" font-size="8.00">ComparisonReference</text>
<text text-anchor="middle" x="183.498" y="-171.6" font-family="Times New Roman,serif" font-size="8.00">0...*</text>
<text text-anchor="middle" x="94.221" y="-171.6" font-family="Times New Roman,serif" font-size="8.00">0...*</text>
</g>
<!-- SubGroup -->
<g id="ItemTypeSubGroup" class="node"><title></title><ellipse fill="#f7b733" stroke="black" cx="43.1093" cy="-124" rx="27.5899" ry="18" style="filter: url(#dropshadow)"/>
<text text-anchor="middle" x="43.1093" y="-122.1" font-family="Times New Roman,serif" font-size="8.00">SubGroup</text>
</g>
<!-- SubGroup&#45;&gt;ComparisonProperties -->
<g id="edge12" class="edge"><title>SubGroup&#45;&gt;ComparisonProperties</title>
<path fill="none" stroke="black" d="M70.0651,-128.84C98.0699,-134.061 144.93,-142.799 191.442,-151.471"/>
<text text-anchor="middle" x="142.719" y="-152.6" font-family="Times New Roman,serif" font-size="8.00">ComparisonReference</text>
<text text-anchor="middle" x="183.442" y="-145.071" font-family="Times New Roman,serif" font-size="8.00">0...*</text>
<text text-anchor="middle" x="78.0651" y="-122.44" font-family="Times New Roman,serif" font-size="8.00">0...*</text>
</g>
</g>
</svg>
