<?xml version="1.0" encoding="UTF-8" standalone="no"?>
<!DOCTYPE svg PUBLIC "-//W3C//DTD SVG 1.1//EN"
 "http://www.w3.org/Graphics/SVG/1.1/DTD/svg11.dtd">
<!-- Generated by graphviz version 2.38.0 (20140413.2041)
 -->
<!-- Title: G Pages: 1 -->
<svg width="1209pt" height="1826pt"
 viewBox="0.00 0.00 1209.27 1826.00" xmlns="http://www.w3.org/2000/svg" xmlns:xlink="http://www.w3.org/1999/xlink">
<filter id = "dropshadow" height = "130%" ><feGaussianBlur in= "SourceAlpha" stdDeviation = "3"/><!--stdDeviation is how much to blur--><feOffset dx = "2" dy = "2" result = "offsetblur"/><!--how much to offset--><feMerge><feMergeNode/><!--this contains the offset blurred image--><feMergeNode in= "SourceGraphic"/><!--this contains the element that the filter is applied to --></feMerge></filter>
<g id="graph0" class="graph" transform="scale(1 1) rotate(0) translate(4 1822)">
<title>G</title>
<g id="clust1" class="cluster"><title>clusterConcept</title>
<polygon fill="#4abdac" stroke="black" points="271.269,-837 271.269,-1081 1193.27,-1081 1193.27,-837 271.269,-837" style="filter: url(#dropshadow)"/>
<text text-anchor="middle" x="732.269" y="-1070.6" font-family="Times New Roman,serif" font-size="8.00">Concept</text>
</g>
<!-- ConceptProperties -->
<g id="ItemTypeConceptProperties" class="node"><title></title><polygon fill="#f7b733" stroke="black" points="279.269,-905 279.269,-967 505.269,-967 505.269,-905 279.269,-905" style="filter: url(#dropshadow)"/>
<text text-anchor="middle" x="305.769" y="-934.1" font-family="Times New Roman,serif" font-size="8.00">Properties</text>
<polyline fill="none" stroke="black" points="332.269,-905 332.269,-967 "/>
<text text-anchor="start" x="340.269" y="-956.6" font-family="Times New Roman,serif" font-size="8.00">ConceptName : NameType[0...n] </text>
<text text-anchor="start" x="340.269" y="-947.6" font-family="Times New Roman,serif" font-size="8.00">Label : LabelType[0...n] </text>
<text text-anchor="start" x="340.269" y="-938.6" font-family="Times New Roman,serif" font-size="8.00">Description : StructuredStringType[0...1] </text>
<text text-anchor="start" x="340.269" y="-929.6" font-family="Times New Roman,serif" font-size="8.00">SimilarConcept : SimilarConceptType[0...n] </text>
<text text-anchor="start" x="340.269" y="-920.6" font-family="Times New Roman,serif" font-size="8.00">SubclassOfReference : Concept[0...n] </text>
<text text-anchor="start" x="340.269" y="-911.6" font-family="Times New Roman,serif" font-size="8.00">IsCharacteristic : boolean[0...1] </text>
</g>
<!-- ConceptProperties&#45;&gt;ConceptProperties -->
<g id="edge11" class="edge"><title>ConceptProperties&#45;&gt;ConceptProperties</title>
<path fill="none" stroke="black" d="M362.651,-967.419C362.955,-977.506 372.828,-985.5 392.269,-985.5 411.711,-985.5 421.583,-977.506 421.887,-967.419"/>
<text text-anchor="middle" x="392.269" y="-988.1" font-family="Times New Roman,serif" font-size="8.00">SubclassOfReference</text>
<text text-anchor="middle" x="413.887" y="-970.019" font-family="Times New Roman,serif" font-size="8.00">0...*</text>
<text text-anchor="middle" x="354.651" y="-970.019" font-family="Times New Roman,serif" font-size="8.00">0...*</text>
</g>
<!-- ConceptNameType -->
<g id="ReusableTypeConceptNameType" class="node"><title></title><polygon fill="#fc4a1a" stroke="black" points="637.269,-1019 637.269,-1055 806.269,-1055 806.269,-1019 637.269,-1019" style="filter: url(#dropshadow)"/>
<text text-anchor="middle" x="665.269" y="-1035.1" font-family="Times New Roman,serif" font-size="8.00">NameType</text>
<polyline fill="none" stroke="black" points="693.269,-1019 693.269,-1055 "/>
<text text-anchor="start" x="701.269" y="-1039.6" font-family="Times New Roman,serif" font-size="8.00">IsPreferred : boolean[0...1] </text>
<text text-anchor="start" x="701.269" y="-1030.6" font-family="Times New Roman,serif" font-size="8.00">Context : string[0...1] </text>
</g>
<!-- ConceptProperties&#45;&gt;ConceptNameType -->
<g id="edge1" class="edge"><title>ConceptProperties&#45;&gt;ConceptNameType</title>
<path fill="none" stroke="black" d="M452.959,-967.014C474.662,-977.357 499.662,-988.215 523.269,-996 559.852,-1008.06 601.462,-1017.33 637.023,-1023.98"/>
<text text-anchor="middle" x="550.269" y="-1014.6" font-family="Times New Roman,serif" font-size="8.00">ConceptName</text>
</g>
<!-- ConceptLabelType -->
<g id="ReusableTypeConceptLabelType" class="node"><title></title><polygon fill="#fc4a1a" stroke="black" points="620.269,-845.5 620.269,-898.5 823.269,-898.5 823.269,-845.5 620.269,-845.5" style="filter: url(#dropshadow)"/>
<text text-anchor="middle" x="647.269" y="-870.1" font-family="Times New Roman,serif" font-size="8.00">LabelType</text>
<polyline fill="none" stroke="black" points="674.269,-845.5 674.269,-898.5 "/>
<text text-anchor="start" x="682.269" y="-888.1" font-family="Times New Roman,serif" font-size="8.00">TypeOfLabel : CodeValueType[0...1] </text>
<text text-anchor="start" x="682.269" y="-879.1" font-family="Times New Roman,serif" font-size="8.00">LocationVariant : string[0...1] </text>
<text text-anchor="start" x="682.269" y="-870.1" font-family="Times New Roman,serif" font-size="8.00">ValidForStartDate : cogsDate[0...1] </text>
<text text-anchor="start" x="682.269" y="-861.1" font-family="Times New Roman,serif" font-size="8.00">ValidForEndDate : cogsDate[0...1] </text>
<text text-anchor="start" x="682.269" y="-852.1" font-family="Times New Roman,serif" font-size="8.00">MaxLength : int[0...1] </text>
</g>
<!-- ConceptProperties&#45;&gt;ConceptLabelType -->
<g id="edge2" class="edge"><title>ConceptProperties&#45;&gt;ConceptLabelType</title>
<path fill="none" stroke="black" d="M505.518,-914.064C542.736,-906.791 583.906,-898.746 620.189,-891.655"/>
<text text-anchor="middle" x="550.269" y="-912.6" font-family="Times New Roman,serif" font-size="8.00">Label</text>
</g>
<!-- ConceptStructuredStringType -->
<g id="ReusableTypeConceptStructuredStringType" class="node"><title></title><polygon fill="#fc4a1a" stroke="black" points="972.269,-959 972.269,-995 1185.27,-995 1185.27,-959 972.269,-959" style="filter: url(#dropshadow)"/>
<text text-anchor="middle" x="1017.27" y="-975.1" font-family="Times New Roman,serif" font-size="8.00">StructuredStringType</text>
<polyline fill="none" stroke="black" points="1062.27,-959 1062.27,-995 "/>
<text text-anchor="start" x="1070.27" y="-975.1" font-family="Times New Roman,serif" font-size="8.00">Content : ContentType[0...n] </text>
</g>
<!-- ConceptProperties&#45;&gt;ConceptStructuredStringType -->
<g id="edge3" class="edge"><title>ConceptProperties&#45;&gt;ConceptStructuredStringType</title>
<path fill="none" stroke="black" d="M505.532,-952.729C534.697,-956.601 566.111,-960.357 595.269,-963 724.633,-974.727 874.226,-977.386 972.128,-977.658"/>
<text text-anchor="middle" x="721.769" y="-978.6" font-family="Times New Roman,serif" font-size="8.00">Description</text>
</g>
<!-- ConceptSimilarConceptType -->
<g id="ReusableTypeConceptSimilarConceptType" class="node"><title></title><polygon fill="#fc4a1a" stroke="black" points="595.269,-918 595.269,-954 848.269,-954 848.269,-918 595.269,-918" style="filter: url(#dropshadow)"/>
<text text-anchor="middle" x="639.769" y="-934.1" font-family="Times New Roman,serif" font-size="8.00">SimilarConceptType</text>
<polyline fill="none" stroke="black" points="684.269,-918 684.269,-954 "/>
<text text-anchor="start" x="692.269" y="-938.6" font-family="Times New Roman,serif" font-size="8.00">SimilarConceptReference : Concept[0...1] </text>
<text text-anchor="start" x="692.269" y="-929.6" font-family="Times New Roman,serif" font-size="8.00">Difference : StructuredStringType[0...1] </text>
</g>
<!-- ConceptProperties&#45;&gt;ConceptSimilarConceptType -->
<g id="edge4" class="edge"><title>ConceptProperties&#45;&gt;ConceptSimilarConceptType</title>
<path fill="none" stroke="black" d="M505.518,-936C534.404,-936 565.67,-936 595.185,-936"/>
<text text-anchor="middle" x="550.269" y="-938.6" font-family="Times New Roman,serif" font-size="8.00">SimilarConcept</text>
</g>
<!-- Concept -->
<g id="ItemTypeConcept" class="node"><title></title><ellipse fill="#f7b733" stroke="black" cx="1078.77" cy="-811" rx="27" ry="18" style="filter: url(#dropshadow)"/>
<text text-anchor="middle" x="1078.77" y="-809.1" font-family="Times New Roman,serif" font-size="8.00">Concept</text>
</g>
<!-- ConceptProperties&#45;&gt;Concept -->
<g id="edge5" class="edge"><title>ConceptProperties&#45;&gt;Concept</title>
<path fill="none" stroke="black" d="M436.472,-904.99C475.754,-878.736 536.412,-842.909 595.269,-827 764.371,-781.293 978.957,-799.552 1052.05,-807.798"/>
<text text-anchor="middle" x="721.769" y="-829.6" font-family="Times New Roman,serif" font-size="8.00">SubclassOfReference</text>
<text text-anchor="middle" x="1044.05" y="-801.398" font-family="Times New Roman,serif" font-size="8.00">0...*</text>
<text text-anchor="middle" x="428.472" y="-898.59" font-family="Times New Roman,serif" font-size="8.00">0...*</text>
</g>
<!-- ConceptSimilarConceptType&#45;&gt;ConceptStructuredStringType -->
<g id="edge7" class="edge"><title>ConceptSimilarConceptType&#45;&gt;ConceptStructuredStringType</title>
<path fill="none" stroke="black" d="M848.429,-950.513C888.918,-955.189 933.353,-960.321 972.24,-964.812"/>
<text text-anchor="middle" x="910.269" y="-965.6" font-family="Times New Roman,serif" font-size="8.00">Difference</text>
<text text-anchor="middle" x="964.24" y="-958.412" font-family="Times New Roman,serif" font-size="8.00">0...*</text>
<text text-anchor="middle" x="856.429" y="-944.113" font-family="Times New Roman,serif" font-size="8.00">0...*</text>
</g>
<!-- ConceptSimilarConceptType&#45;&gt;Concept -->
<g id="edge6" class="edge"><title>ConceptSimilarConceptType&#45;&gt;Concept</title>
<path fill="none" stroke="black" d="M818.999,-917.918C829.024,-915.034 838.947,-911.742 848.269,-908 908.041,-884.006 912.332,-856.577 972.269,-833 998.386,-822.726 1030.12,-816.939 1051.92,-813.908"/>
<text text-anchor="middle" x="910.269" y="-902.6" font-family="Times New Roman,serif" font-size="8.00">SimilarConceptReference</text>
<text text-anchor="middle" x="1043.92" y="-816.508" font-family="Times New Roman,serif" font-size="8.00">0...*</text>
<text text-anchor="middle" x="810.999" y="-911.518" font-family="Times New Roman,serif" font-size="8.00">0...*</text>
</g>
<!-- Category -->
<g id="ItemTypeCategory" class="node"><title></title><ellipse fill="#f7b733" stroke="black" cx="68.6346" cy="-1800" rx="27.4558" ry="18" style="filter: url(#dropshadow)"/>
<text text-anchor="middle" x="68.6346" y="-1798.1" font-family="Times New Roman,serif" font-size="8.00">Category</text>
</g>
<!-- Category&#45;&gt;ConceptProperties -->
<g id="edge8" class="edge"><title>Category&#45;&gt;ConceptProperties</title>
<path fill="none" stroke="black" d="M95.5993,-1803.75C136.961,-1808.12 217.586,-1809.79 261.269,-1765 353.732,-1670.19 380.43,-1291.91 388.14,-1080.62"/>
<text text-anchor="middle" x="208.269" y="-1808.6" font-family="Times New Roman,serif" font-size="8.00">ConceptReference</text>
<text text-anchor="middle" x="396.14" y="-1074.22" font-family="Times New Roman,serif" font-size="8.00">0...*</text>
<text text-anchor="middle" x="103.599" y="-1797.35" font-family="Times New Roman,serif" font-size="8.00">0...*</text>
</g>
<!-- CategoryGroup -->
<g id="ItemTypeCategoryGroup" class="node"><title></title><ellipse fill="#f7b733" stroke="black" cx="68.6346" cy="-1746" rx="39.278" ry="18" style="filter: url(#dropshadow)"/>
<text text-anchor="middle" x="68.6346" y="-1744.1" font-family="Times New Roman,serif" font-size="8.00">CategoryGroup</text>
</g>
<!-- CategoryGroup&#45;&gt;ConceptProperties -->
<g id="edge9" class="edge"><title>CategoryGroup&#45;&gt;ConceptProperties</title>
<path fill="none" stroke="black" d="M106.278,-1751.1C149.561,-1754.88 220.784,-1753.68 261.269,-1713 347.648,-1626.21 376.792,-1280.7 386.507,-1080.85"/>
<text text-anchor="middle" x="208.269" y="-1754.6" font-family="Times New Roman,serif" font-size="8.00">ConceptReference</text>
<text text-anchor="middle" x="394.507" y="-1083.45" font-family="Times New Roman,serif" font-size="8.00">0...*</text>
<text text-anchor="middle" x="114.278" y="-1744.7" font-family="Times New Roman,serif" font-size="8.00">0...*</text>
</g>
<!-- CodeListGroup -->
<g id="ItemTypeCodeListGroup" class="node"><title></title><ellipse fill="#f7b733" stroke="black" cx="68.6346" cy="-1692" rx="38.6432" ry="18" style="filter: url(#dropshadow)"/>
<text text-anchor="middle" x="68.6346" y="-1690.1" font-family="Times New Roman,serif" font-size="8.00">CodeListGroup</text>
</g>
<!-- CodeListGroup&#45;&gt;ConceptProperties -->
<g id="edge10" class="edge"><title>CodeListGroup&#45;&gt;ConceptProperties</title>
<path fill="none" stroke="black" d="M105.35,-1697.81C148.388,-1702.59 220.042,-1703.14 261.269,-1663 342.255,-1584.15 373.351,-1269.08 384.863,-1080.57"/>
<text text-anchor="middle" x="208.269" y="-1702.6" font-family="Times New Roman,serif" font-size="8.00">ConceptReference</text>
<text text-anchor="middle" x="376.863" y="-1074.17" font-family="Times New Roman,serif" font-size="8.00">0...*</text>
<text text-anchor="middle" x="113.35" y="-1691.41" font-family="Times New Roman,serif" font-size="8.00">0...*</text>
</g>
<!-- ConceptGroup -->
<g id="ItemTypeConceptGroup0" class="node"><title></title><ellipse fill="#f7b733" stroke="black" cx="68.6346" cy="-1638" rx="38.0086" ry="18" style="filter: url(#dropshadow)"/>
<text text-anchor="middle" x="68.6346" y="-1636.1" font-family="Times New Roman,serif" font-size="8.00">ConceptGroup</text>
</g>
<!-- ConceptGroup&#45;&gt;ConceptProperties -->
<g id="edge12" class="edge"><title>ConceptGroup&#45;&gt;ConceptProperties</title>
<path fill="none" stroke="black" d="M98.255,-1626.55C114.747,-1620.23 135.974,-1612.56 155.269,-1607 201.593,-1593.65 227.45,-1618.35 261.269,-1584 329.959,-1514.22 364.84,-1249.49 380.462,-1080.74"/>
<text text-anchor="middle" x="208.269" y="-1609.6" font-family="Times New Roman,serif" font-size="8.00">GroupingConceptReference</text>
<text text-anchor="middle" x="372.462" y="-1083.34" font-family="Times New Roman,serif" font-size="8.00">0...*</text>
<text text-anchor="middle" x="106.255" y="-1620.15" font-family="Times New Roman,serif" font-size="8.00">0...*</text>
</g>
<!-- ConceptGroup&#45;&gt;ConceptProperties -->
<g id="edge13" class="edge"><title>ConceptGroup&#45;&gt;ConceptProperties</title>
<path fill="none" stroke="black" d="M103.984,-1645.05C146.637,-1651.62 218.927,-1655.3 261.269,-1616 337.642,-1545.12 370.195,-1258.35 383.252,-1080.62"/>
<text text-anchor="middle" x="208.269" y="-1652.6" font-family="Times New Roman,serif" font-size="8.00">ConceptReference</text>
<text text-anchor="middle" x="391.252" y="-1083.22" font-family="Times New Roman,serif" font-size="8.00">0...*</text>
<text text-anchor="middle" x="111.984" y="-1638.65" font-family="Times New Roman,serif" font-size="8.00">0...*</text>
</g>
<!-- ConceptScheme -->
<g id="ItemTypeConceptScheme1" class="node"><title></title><ellipse fill="#f7b733" stroke="black" cx="68.6346" cy="-1584" rx="40.6815" ry="18" style="filter: url(#dropshadow)"/>
<text text-anchor="middle" x="68.6346" y="-1582.1" font-family="Times New Roman,serif" font-size="8.00">ConceptScheme</text>
</g>
<!-- ConceptScheme&#45;&gt;ConceptProperties -->
<g id="edge14" class="edge"><title>ConceptScheme&#45;&gt;ConceptProperties</title>
<path fill="none" stroke="black" d="M107.845,-1578.51C160.584,-1570.58 250.445,-1555.72 261.269,-1545 325.623,-1481.26 361.428,-1240.04 378.486,-1080.99"/>
<text text-anchor="middle" x="208.269" y="-1573.6" font-family="Times New Roman,serif" font-size="8.00">ConceptReference</text>
<text text-anchor="middle" x="370.486" y="-1074.59" font-family="Times New Roman,serif" font-size="8.00">0...*</text>
<text text-anchor="middle" x="115.845" y="-1572.11" font-family="Times New Roman,serif" font-size="8.00">0...*</text>
</g>
<!-- ConceptualVariable -->
<g id="ItemTypeConceptualVariable2" class="node"><title></title><ellipse fill="#f7b733" stroke="black" cx="68.6346" cy="-1530" rx="47.16" ry="18" style="filter: url(#dropshadow)"/>
<text text-anchor="middle" x="68.6346" y="-1528.1" font-family="Times New Roman,serif" font-size="8.00">ConceptualVariable</text>
</g>
<!-- ConceptualVariable&#45;&gt;ConceptProperties -->
<g id="edge15" class="edge"><title>ConceptualVariable&#45;&gt;ConceptProperties</title>
<path fill="none" stroke="black" d="M115.073,-1533.38C158.438,-1533.99 222.71,-1527.62 261.269,-1490 318.78,-1433.89 355.69,-1225.44 374.961,-1080.88"/>
<text text-anchor="middle" x="208.269" y="-1534.6" font-family="Times New Roman,serif" font-size="8.00">ConceptReference</text>
<text text-anchor="middle" x="366.961" y="-1083.48" font-family="Times New Roman,serif" font-size="8.00">0...*</text>
<text text-anchor="middle" x="123.073" y="-1526.98" font-family="Times New Roman,serif" font-size="8.00">0...*</text>
</g>
<!-- ConceptualVariableGroup -->
<g id="ItemTypeConceptualVariableGroup3" class="node"><title></title><ellipse fill="#f7b733" stroke="black" cx="68.6346" cy="-1476" rx="58.9835" ry="18" style="filter: url(#dropshadow)"/>
<text text-anchor="middle" x="68.6346" y="-1474.1" font-family="Times New Roman,serif" font-size="8.00">ConceptualVariableGroup</text>
</g>
<!-- ConceptualVariableGroup&#45;&gt;ConceptProperties -->
<g id="edge16" class="edge"><title>ConceptualVariableGroup&#45;&gt;ConceptProperties</title>
<path fill="none" stroke="black" d="M127.253,-1478.77C169.661,-1477.61 225.871,-1468.87 261.269,-1435 311.977,-1386.48 349.335,-1210.22 370.676,-1080.88"/>
<text text-anchor="middle" x="208.269" y="-1479.6" font-family="Times New Roman,serif" font-size="8.00">ConceptReference</text>
<text text-anchor="middle" x="362.676" y="-1074.48" font-family="Times New Roman,serif" font-size="8.00">0...*</text>
<text text-anchor="middle" x="135.253" y="-1472.37" font-family="Times New Roman,serif" font-size="8.00">0...*</text>
</g>
<!-- ControlConstructGroup -->
<g id="ItemTypeControlConstructGroup4" class="node"><title></title><ellipse fill="#f7b733" stroke="black" cx="68.6346" cy="-1422" rx="55.6769" ry="18" style="filter: url(#dropshadow)"/>
<text text-anchor="middle" x="68.6346" y="-1420.1" font-family="Times New Roman,serif" font-size="8.00">ControlConstructGroup</text>
</g>
<!-- ControlConstructGroup&#45;&gt;ConceptProperties -->
<g id="edge17" class="edge"><title>ControlConstructGroup&#45;&gt;ConceptProperties</title>
<path fill="none" stroke="black" d="M123.951,-1423.91C166.547,-1422.43 224.575,-1413.39 261.269,-1379 342.68,-1302.69 373.992,-1178.38 385.618,-1080.83"/>
<text text-anchor="middle" x="208.269" y="-1424.6" font-family="Times New Roman,serif" font-size="8.00">ConceptReference</text>
<text text-anchor="middle" x="393.618" y="-1074.43" font-family="Times New Roman,serif" font-size="8.00">0...*</text>
<text text-anchor="middle" x="131.951" y="-1417.51" font-family="Times New Roman,serif" font-size="8.00">0...*</text>
</g>
<!-- GeographicLocationGroup -->
<g id="ItemTypeGeographicLocationGroup5" class="node"><title></title><ellipse fill="#f7b733" stroke="black" cx="68.6346" cy="-1368" rx="61.0222" ry="18" style="filter: url(#dropshadow)"/>
<text text-anchor="middle" x="68.6346" y="-1366.1" font-family="Times New Roman,serif" font-size="8.00">GeographicLocationGroup</text>
</g>
<!-- GeographicLocationGroup&#45;&gt;ConceptProperties -->
<g id="edge18" class="edge"><title>GeographicLocationGroup&#45;&gt;ConceptProperties</title>
<path fill="none" stroke="black" d="M130.243,-1368.14C171.922,-1365.05 225.92,-1354.33 261.269,-1322 328.674,-1260.36 361.155,-1162.65 376.794,-1080.96"/>
<text text-anchor="middle" x="208.269" y="-1368.6" font-family="Times New Roman,serif" font-size="8.00">ConceptReference</text>
<text text-anchor="middle" x="384.794" y="-1083.56" font-family="Times New Roman,serif" font-size="8.00">0...*</text>
<text text-anchor="middle" x="138.243" y="-1361.74" font-family="Times New Roman,serif" font-size="8.00">0...*</text>
</g>
<!-- GeographicStructureGroup -->
<g id="ItemTypeGeographicStructureGroup6" class="node"><title></title><ellipse fill="#f7b733" stroke="black" cx="68.6346" cy="-1314" rx="60.8874" ry="18" style="filter: url(#dropshadow)"/>
<text text-anchor="middle" x="68.6346" y="-1312.1" font-family="Times New Roman,serif" font-size="8.00">GeographicStructureGroup</text>
</g>
<!-- GeographicStructureGroup&#45;&gt;ConceptProperties -->
<g id="edge19" class="edge"><title>GeographicStructureGroup&#45;&gt;ConceptProperties</title>
<path fill="none" stroke="black" d="M129.366,-1312.2C170.899,-1307.95 225.089,-1296.01 261.269,-1264 314.488,-1216.91 346.169,-1145.15 364.905,-1080.74"/>
<text text-anchor="middle" x="208.269" y="-1311.6" font-family="Times New Roman,serif" font-size="8.00">ConceptReference</text>
<text text-anchor="middle" x="356.905" y="-1083.34" font-family="Times New Roman,serif" font-size="8.00">0...*</text>
<text text-anchor="middle" x="137.366" y="-1305.8" font-family="Times New Roman,serif" font-size="8.00">0...*</text>
</g>
<!-- InstructionGroup -->
<g id="ItemTypeInstructionGroup7" class="node"><title></title><ellipse fill="#f7b733" stroke="black" cx="68.6346" cy="-1260" rx="43.219" ry="18" style="filter: url(#dropshadow)"/>
<text text-anchor="middle" x="68.6346" y="-1258.1" font-family="Times New Roman,serif" font-size="8.00">InstructionGroup</text>
</g>
<!-- InstructionGroup&#45;&gt;ConceptProperties -->
<g id="edge20" class="edge"><title>InstructionGroup&#45;&gt;ConceptProperties</title>
<path fill="none" stroke="black" d="M111.61,-1257.99C153.84,-1253.91 218.647,-1241.78 261.269,-1206 300.14,-1173.37 328.263,-1126.4 348.186,-1080.76"/>
<text text-anchor="middle" x="208.269" y="-1253.6" font-family="Times New Roman,serif" font-size="8.00">ConceptReference</text>
<text text-anchor="middle" x="340.186" y="-1074.36" font-family="Times New Roman,serif" font-size="8.00">0...*</text>
<text text-anchor="middle" x="119.61" y="-1251.59" font-family="Times New Roman,serif" font-size="8.00">0...*</text>
</g>
<!-- InstrumentGroup -->
<g id="ItemTypeInstrumentGroup8" class="node"><title></title><ellipse fill="#f7b733" stroke="black" cx="68.6346" cy="-1206" rx="43.219" ry="18" style="filter: url(#dropshadow)"/>
<text text-anchor="middle" x="68.6346" y="-1204.1" font-family="Times New Roman,serif" font-size="8.00">InstrumentGroup</text>
</g>
<!-- InstrumentGroup&#45;&gt;ConceptProperties -->
<g id="edge21" class="edge"><title>InstrumentGroup&#45;&gt;ConceptProperties</title>
<path fill="none" stroke="black" d="M110.908,-1201.83C152.578,-1195.79 216.947,-1181.3 261.269,-1147 284.549,-1128.98 304.671,-1105.53 321.66,-1080.82"/>
<text text-anchor="middle" x="208.269" y="-1195.6" font-family="Times New Roman,serif" font-size="8.00">ConceptReference</text>
<text text-anchor="middle" x="313.66" y="-1074.42" font-family="Times New Roman,serif" font-size="8.00">0...*</text>
<text text-anchor="middle" x="118.908" y="-1195.43" font-family="Times New Roman,serif" font-size="8.00">0...*</text>
</g>
<!-- ManagedRepresentationGroup -->
<g id="ItemTypeManagedRepresentationGroup9" class="node"><title></title><ellipse fill="#f7b733" stroke="black" cx="68.6346" cy="-1152" rx="68.7695" ry="18" style="filter: url(#dropshadow)"/>
<text text-anchor="middle" x="68.6346" y="-1150.1" font-family="Times New Roman,serif" font-size="8.00">ManagedRepresentationGroup</text>
</g>
<!-- ManagedRepresentationGroup&#45;&gt;ConceptProperties -->
<g id="edge22" class="edge"><title>ManagedRepresentationGroup&#45;&gt;ConceptProperties</title>
<path fill="none" stroke="black" d="M125.219,-1141.78C165.515,-1132.47 219.959,-1115.83 261.269,-1088 264.724,-1085.67 268.141,-1083.23 271.515,-1080.69"/>
<text text-anchor="middle" x="208.269" y="-1136.6" font-family="Times New Roman,serif" font-size="8.00">ConceptReference</text>
<text text-anchor="middle" x="263.515" y="-1074.29" font-family="Times New Roman,serif" font-size="8.00">0...*</text>
<text text-anchor="middle" x="133.219" y="-1135.38" font-family="Times New Roman,serif" font-size="8.00">0...*</text>
</g>
<!-- NCubeGroup -->
<g id="ItemTypeNCubeGroup0" class="node"><title></title><ellipse fill="#f7b733" stroke="black" cx="68.6346" cy="-1098" rx="34.0674" ry="18" style="filter: url(#dropshadow)"/>
<text text-anchor="middle" x="68.6346" y="-1096.1" font-family="Times New Roman,serif" font-size="8.00">NCubeGroup</text>
</g>
<!-- NCubeGroup&#45;&gt;ConceptProperties -->
<g id="edge23" class="edge"><title>NCubeGroup&#45;&gt;ConceptProperties</title>
<path fill="none" stroke="black" d="M100.068,-1091.09C138.927,-1081.54 207.561,-1062.24 261.269,-1034 264.677,-1032.21 268.09,-1030.33 271.499,-1028.38"/>
<text text-anchor="middle" x="208.269" y="-1077.6" font-family="Times New Roman,serif" font-size="8.00">ConceptReference</text>
<text text-anchor="middle" x="263.499" y="-1021.98" font-family="Times New Roman,serif" font-size="8.00">0...*</text>
<text text-anchor="middle" x="108.068" y="-1084.69" font-family="Times New Roman,serif" font-size="8.00">0...*</text>
</g>
<!-- OrganizationGroup -->
<g id="ItemTypeOrganizationGroup1" class="node"><title></title><ellipse fill="#f7b733" stroke="black" cx="68.6346" cy="-1044" rx="47.16" ry="18" style="filter: url(#dropshadow)"/>
<text text-anchor="middle" x="68.6346" y="-1042.1" font-family="Times New Roman,serif" font-size="8.00">OrganizationGroup</text>
</g>
<!-- OrganizationGroup&#45;&gt;ConceptProperties -->
<g id="edge24" class="edge"><title>OrganizationGroup&#45;&gt;ConceptProperties</title>
<path fill="none" stroke="black" d="M108.557,-1034.15C147.548,-1023.97 209.1,-1007.06 261.269,-989 264.663,-987.825 268.096,-986.61 271.554,-985.363"/>
<text text-anchor="middle" x="208.269" y="-1023.6" font-family="Times New Roman,serif" font-size="8.00">ConceptReference</text>
<text text-anchor="middle" x="263.554" y="-978.963" font-family="Times New Roman,serif" font-size="8.00">0...*</text>
<text text-anchor="middle" x="116.557" y="-1027.75" font-family="Times New Roman,serif" font-size="8.00">0...*</text>
</g>
<!-- PhysicalStructureGroup -->
<g id="ItemTypePhysicalStructureGroup2" class="node"><title></title><ellipse fill="#f7b733" stroke="black" cx="68.6346" cy="-990" rx="55.6769" ry="18" style="filter: url(#dropshadow)"/>
<text text-anchor="middle" x="68.6346" y="-988.1" font-family="Times New Roman,serif" font-size="8.00">PhysicalStructureGroup</text>
</g>
<!-- PhysicalStructureGroup&#45;&gt;ConceptProperties -->
<g id="edge25" class="edge"><title>PhysicalStructureGroup&#45;&gt;ConceptProperties</title>
<path fill="none" stroke="black" d="M118.484,-981.799C159.018,-974.993 218.393,-965.025 271.407,-956.124"/>
<text text-anchor="middle" x="208.269" y="-978.6" font-family="Times New Roman,serif" font-size="8.00">ConceptReference</text>
<text text-anchor="middle" x="263.407" y="-949.724" font-family="Times New Roman,serif" font-size="8.00">0...*</text>
<text text-anchor="middle" x="126.484" y="-975.399" font-family="Times New Roman,serif" font-size="8.00">0...*</text>
</g>
<!-- ProcessingEventGroup -->
<g id="ItemTypeProcessingEventGroup3" class="node"><title></title><ellipse fill="#f7b733" stroke="black" cx="68.6346" cy="-936" rx="53.7736" ry="18" style="filter: url(#dropshadow)"/>
<text text-anchor="middle" x="68.6346" y="-934.1" font-family="Times New Roman,serif" font-size="8.00">ProcessingEventGroup</text>
</g>
<!-- ProcessingEventGroup&#45;&gt;ConceptProperties -->
<g id="edge26" class="edge"><title>ProcessingEventGroup&#45;&gt;ConceptProperties</title>
<path fill="none" stroke="black" d="M122.746,-936C163.135,-936 220.3,-936 271.511,-936"/>
<text text-anchor="middle" x="208.269" y="-938.6" font-family="Times New Roman,serif" font-size="8.00">ConceptReference</text>
<text text-anchor="middle" x="263.511" y="-929.6" font-family="Times New Roman,serif" font-size="8.00">0...*</text>
<text text-anchor="middle" x="130.746" y="-929.6" font-family="Times New Roman,serif" font-size="8.00">0...*</text>
</g>
<!-- ProcessingInstructionGroup -->
<g id="ItemTypeProcessingInstructionGroup4" class="node"><title></title><ellipse fill="#f7b733" stroke="black" cx="68.6346" cy="-882" rx="64.1937" ry="18" style="filter: url(#dropshadow)"/>
<text text-anchor="middle" x="68.6346" y="-880.1" font-family="Times New Roman,serif" font-size="8.00">ProcessingInstructionGroup</text>
</g>
<!-- ProcessingInstructionGroup&#45;&gt;ConceptProperties -->
<g id="edge27" class="edge"><title>ProcessingInstructionGroup&#45;&gt;ConceptProperties</title>
<path fill="none" stroke="black" d="M124.196,-891.16C164.51,-897.929 220.95,-907.405 271.566,-915.903"/>
<text text-anchor="middle" x="208.269" y="-916.6" font-family="Times New Roman,serif" font-size="8.00">ConceptReference</text>
<text text-anchor="middle" x="263.566" y="-909.503" font-family="Times New Roman,serif" font-size="8.00">0...*</text>
<text text-anchor="middle" x="132.196" y="-893.76" font-family="Times New Roman,serif" font-size="8.00">0...*</text>
</g>
<!-- QualityStatementGroup -->
<g id="ItemTypeQualityStatementGroup5" class="node"><title></title><ellipse fill="#f7b733" stroke="black" cx="68.6346" cy="-828" rx="55.6769" ry="18" style="filter: url(#dropshadow)"/>
<text text-anchor="middle" x="68.6346" y="-826.1" font-family="Times New Roman,serif" font-size="8.00">QualityStatementGroup</text>
</g>
<!-- QualityStatementGroup&#45;&gt;ConceptProperties -->
<g id="edge28" class="edge"><title>QualityStatementGroup&#45;&gt;ConceptProperties</title>
<path fill="none" stroke="black" d="M112.249,-839.188C151.33,-849.746 210.649,-866.525 261.269,-884 264.694,-885.182 268.161,-886.403 271.654,-887.654"/>
<text text-anchor="middle" x="208.269" y="-886.6" font-family="Times New Roman,serif" font-size="8.00">ConceptReference</text>
<text text-anchor="middle" x="263.654" y="-881.254" font-family="Times New Roman,serif" font-size="8.00">0...*</text>
<text text-anchor="middle" x="120.249" y="-841.788" font-family="Times New Roman,serif" font-size="8.00">0...*</text>
</g>
<!-- QuestionBlock -->
<g id="ItemTypeQuestionBlock6" class="node"><title></title><ellipse fill="#f7b733" stroke="black" cx="68.6346" cy="-774" rx="38.6432" ry="18" style="filter: url(#dropshadow)"/>
<text text-anchor="middle" x="68.6346" y="-772.1" font-family="Times New Roman,serif" font-size="8.00">QuestionBlock</text>
</g>
<!-- QuestionBlock&#45;&gt;ConceptProperties -->
<g id="edge29" class="edge"><title>QuestionBlock&#45;&gt;ConceptProperties</title>
<path fill="none" stroke="black" d="M103.48,-782.025C142.823,-792.125 209.028,-811.535 261.269,-839 264.64,-840.772 268.018,-842.628 271.393,-844.554"/>
<text text-anchor="middle" x="208.269" y="-841.6" font-family="Times New Roman,serif" font-size="8.00">ConceptReference</text>
<text text-anchor="middle" x="263.393" y="-838.154" font-family="Times New Roman,serif" font-size="8.00">0...*</text>
<text text-anchor="middle" x="111.48" y="-775.625" font-family="Times New Roman,serif" font-size="8.00">0...*</text>
</g>
<!-- QuestionGrid -->
<g id="ItemTypeQuestionGrid7" class="node"><title></title><ellipse fill="#f7b733" stroke="black" cx="68.6346" cy="-720" rx="35.3371" ry="18" style="filter: url(#dropshadow)"/>
<text text-anchor="middle" x="68.6346" y="-718.1" font-family="Times New Roman,serif" font-size="8.00">QuestionGrid</text>
</g>
<!-- QuestionGrid&#45;&gt;ConceptProperties -->
<g id="edge30" class="edge"><title>QuestionGrid&#45;&gt;ConceptProperties</title>
<path fill="none" stroke="black" d="M102.144,-725.783C142.254,-734.076 211.266,-752.215 261.269,-786 282.129,-800.094 301.67,-818.359 318.945,-837.266"/>
<text text-anchor="middle" x="208.269" y="-788.6" font-family="Times New Roman,serif" font-size="8.00">ConceptReference</text>
<text text-anchor="middle" x="310.945" y="-830.866" font-family="Times New Roman,serif" font-size="8.00">0...*</text>
<text text-anchor="middle" x="110.144" y="-719.383" font-family="Times New Roman,serif" font-size="8.00">0...*</text>
</g>
<!-- QuestionGroup -->
<g id="ItemTypeQuestionGroup8" class="node"><title></title><ellipse fill="#f7b733" stroke="black" cx="68.6346" cy="-666" rx="38.6432" ry="18" style="filter: url(#dropshadow)"/>
<text text-anchor="middle" x="68.6346" y="-664.1" font-family="Times New Roman,serif" font-size="8.00">QuestionGroup</text>
</g>
<!-- QuestionGroup&#45;&gt;ConceptProperties -->
<g id="edge31" class="edge"><title>QuestionGroup&#45;&gt;ConceptProperties</title>
<path fill="none" stroke="black" d="M106.33,-670.008C147.722,-676.144 215.252,-691.193 261.269,-727 298.228,-755.758 327.367,-798.195 348.608,-837.33"/>
<text text-anchor="middle" x="208.269" y="-729.6" font-family="Times New Roman,serif" font-size="8.00">ConceptReference</text>
<text text-anchor="middle" x="340.608" y="-830.93" font-family="Times New Roman,serif" font-size="8.00">0...*</text>
<text text-anchor="middle" x="114.33" y="-663.608" font-family="Times New Roman,serif" font-size="8.00">0...*</text>
</g>
<!-- QuestionItem -->
<g id="ItemTypeQuestionItem9" class="node"><title></title><ellipse fill="#f7b733" stroke="black" cx="68.6346" cy="-612" rx="36.1063" ry="18" style="filter: url(#dropshadow)"/>
<text text-anchor="middle" x="68.6346" y="-610.1" font-family="Times New Roman,serif" font-size="8.00">QuestionItem</text>
</g>
<!-- QuestionItem&#45;&gt;ConceptProperties -->
<g id="edge32" class="edge"><title>QuestionItem&#45;&gt;ConceptProperties</title>
<path fill="none" stroke="black" d="M104.748,-613.835C146.527,-617.748 216.267,-629.962 261.269,-668 312.847,-711.597 345.633,-780.458 365.377,-837.461"/>
<text text-anchor="middle" x="208.269" y="-670.6" font-family="Times New Roman,serif" font-size="8.00">ConceptReference</text>
<text text-anchor="middle" x="357.377" y="-831.061" font-family="Times New Roman,serif" font-size="8.00">0...*</text>
<text text-anchor="middle" x="112.748" y="-607.435" font-family="Times New Roman,serif" font-size="8.00">0...*</text>
</g>
<!-- RecordLayoutGroup -->
<g id="ItemTypeRecordLayoutGroup0" class="node"><title></title><ellipse fill="#f7b733" stroke="black" cx="68.6346" cy="-558" rx="48.5642" ry="18" style="filter: url(#dropshadow)"/>
<text text-anchor="middle" x="68.6346" y="-556.1" font-family="Times New Roman,serif" font-size="8.00">RecordLayoutGroup</text>
</g>
<!-- RecordLayoutGroup&#45;&gt;ConceptProperties -->
<g id="edge33" class="edge"><title>RecordLayoutGroup&#45;&gt;ConceptProperties</title>
<path fill="none" stroke="black" d="M117.373,-559.325C159.946,-562.953 221.515,-574.555 261.269,-610 326.89,-668.508 359.837,-764.623 376.096,-837.367"/>
<text text-anchor="middle" x="208.269" y="-612.6" font-family="Times New Roman,serif" font-size="8.00">ConceptReference</text>
<text text-anchor="middle" x="384.096" y="-839.967" font-family="Times New Roman,serif" font-size="8.00">0...*</text>
<text text-anchor="middle" x="125.373" y="-552.925" font-family="Times New Roman,serif" font-size="8.00">0...*</text>
</g>
<!-- RepresentedVariable -->
<g id="ItemTypeRepresentedVariable1" class="node"><title></title><ellipse fill="#f7b733" stroke="black" cx="68.6346" cy="-504" rx="48.5642" ry="18" style="filter: url(#dropshadow)"/>
<text text-anchor="middle" x="68.6346" y="-502.1" font-family="Times New Roman,serif" font-size="8.00">RepresentedVariable</text>
</g>
<!-- RepresentedVariable&#45;&gt;ConceptProperties -->
<g id="edge34" class="edge"><title>RepresentedVariable&#45;&gt;ConceptProperties</title>
<path fill="none" stroke="black" d="M117.75,-503.713C160.579,-506.032 222.313,-516.078 261.269,-552 341.089,-625.602 371.916,-749.935 383.812,-837.134"/>
<text text-anchor="middle" x="208.269" y="-554.6" font-family="Times New Roman,serif" font-size="8.00">ConceptReference</text>
<text text-anchor="middle" x="375.812" y="-830.734" font-family="Times New Roman,serif" font-size="8.00">0...*</text>
<text text-anchor="middle" x="125.75" y="-497.313" font-family="Times New Roman,serif" font-size="8.00">0...*</text>
</g>
<!-- RepresentedVariableGroup -->
<g id="ItemTypeRepresentedVariableGroup2" class="node"><title></title><ellipse fill="#f7b733" stroke="black" cx="68.6346" cy="-450" rx="60.8874" ry="18" style="filter: url(#dropshadow)"/>
<text text-anchor="middle" x="68.6346" y="-448.1" font-family="Times New Roman,serif" font-size="8.00">RepresentedVariableGroup</text>
</g>
<!-- RepresentedVariableGroup&#45;&gt;ConceptProperties -->
<g id="edge35" class="edge"><title>RepresentedVariableGroup&#45;&gt;ConceptProperties</title>
<path fill="none" stroke="black" d="M129.262,-449.015C171.29,-451.533 226.131,-461.777 261.269,-495 355.198,-583.809 382.312,-736.741 389.556,-837.125"/>
<text text-anchor="middle" x="208.269" y="-497.6" font-family="Times New Roman,serif" font-size="8.00">ConceptReference</text>
<text text-anchor="middle" x="397.556" y="-830.725" font-family="Times New Roman,serif" font-size="8.00">0...*</text>
<text text-anchor="middle" x="137.262" y="-442.615" font-family="Times New Roman,serif" font-size="8.00">0...*</text>
</g>
<!-- SubUniverseClass -->
<g id="ItemTypeSubUniverseClass3" class="node"><title></title><ellipse fill="#f7b733" stroke="black" cx="68.6346" cy="-396" rx="43.219" ry="18" style="filter: url(#dropshadow)"/>
<text text-anchor="middle" x="68.6346" y="-394.1" font-family="Times New Roman,serif" font-size="8.00">SubUniverseClass</text>
</g>
<!-- SubUniverseClass&#45;&gt;ConceptProperties -->
<g id="edge36" class="edge"><title>SubUniverseClass&#45;&gt;ConceptProperties</title>
<path fill="none" stroke="black" d="M111.699,-393.617C154.937,-393.562 221.408,-400.514 261.269,-439 317.79,-493.57 358.086,-708.419 377.72,-837.093"/>
<text text-anchor="middle" x="208.269" y="-441.6" font-family="Times New Roman,serif" font-size="8.00">DefiningConceptReference</text>
<text text-anchor="middle" x="369.72" y="-839.693" font-family="Times New Roman,serif" font-size="8.00">0...*</text>
<text text-anchor="middle" x="119.699" y="-387.217" font-family="Times New Roman,serif" font-size="8.00">0...*</text>
</g>
<!-- Universe -->
<g id="ItemTypeUniverse4" class="node"><title></title><ellipse fill="#f7b733" stroke="black" cx="68.6346" cy="-342" rx="27" ry="18" style="filter: url(#dropshadow)"/>
<text text-anchor="middle" x="68.6346" y="-340.1" font-family="Times New Roman,serif" font-size="8.00">Universe</text>
</g>
<!-- Universe&#45;&gt;ConceptProperties -->
<g id="edge37" class="edge"><title>Universe&#45;&gt;ConceptProperties</title>
<path fill="none" stroke="black" d="M95.6516,-339.681C136.719,-337.557 216.491,-339.912 261.269,-384 324.682,-446.435 363.361,-695.948 380.617,-837.195"/>
<text text-anchor="middle" x="208.269" y="-386.6" font-family="Times New Roman,serif" font-size="8.00">DefiningConceptReference</text>
<text text-anchor="middle" x="388.617" y="-839.795" font-family="Times New Roman,serif" font-size="8.00">0...*</text>
<text text-anchor="middle" x="103.652" y="-333.281" font-family="Times New Roman,serif" font-size="8.00">0...*</text>
</g>
<!-- UniverseGroup -->
<g id="ItemTypeUniverseGroup5" class="node"><title></title><ellipse fill="#f7b733" stroke="black" cx="68.6346" cy="-288" rx="38.6432" ry="18" style="filter: url(#dropshadow)"/>
<text text-anchor="middle" x="68.6346" y="-286.1" font-family="Times New Roman,serif" font-size="8.00">UniverseGroup</text>
</g>
<!-- UniverseGroup&#45;&gt;ConceptProperties -->
<g id="edge38" class="edge"><title>UniverseGroup&#45;&gt;ConceptProperties</title>
<path fill="none" stroke="black" d="M106.901,-284.902C150.116,-283.5 220.607,-288.347 261.269,-329 331.606,-399.322 368.097,-683.787 382.983,-837.041"/>
<text text-anchor="middle" x="208.269" y="-331.6" font-family="Times New Roman,serif" font-size="8.00">GroupingConceptReference</text>
<text text-anchor="middle" x="374.983" y="-830.641" font-family="Times New Roman,serif" font-size="8.00">0...*</text>
<text text-anchor="middle" x="114.901" y="-278.502" font-family="Times New Roman,serif" font-size="8.00">0...*</text>
</g>
<!-- Variable -->
<g id="ItemTypeVariable6" class="node"><title></title><ellipse fill="#f7b733" stroke="black" cx="68.6346" cy="-234" rx="27" ry="18" style="filter: url(#dropshadow)"/>
<text text-anchor="middle" x="68.6346" y="-232.1" font-family="Times New Roman,serif" font-size="8.00">Variable</text>
</g>
<!-- Variable&#45;&gt;ConceptProperties -->
<g id="edge39" class="edge"><title>Variable&#45;&gt;ConceptProperties</title>
<path fill="none" stroke="black" d="M95.4812,-231.203C136.677,-228.303 217.074,-229.277 261.269,-274 338.653,-352.307 372.488,-672.589 385.004,-837.238"/>
<text text-anchor="middle" x="208.269" y="-276.6" font-family="Times New Roman,serif" font-size="8.00">ConceptReference</text>
<text text-anchor="middle" x="393.004" y="-830.838" font-family="Times New Roman,serif" font-size="8.00">0...*</text>
<text text-anchor="middle" x="103.481" y="-224.803" font-family="Times New Roman,serif" font-size="8.00">0...*</text>
</g>
<!-- VariableGroup -->
<g id="ItemTypeVariableGroup7" class="node"><title></title><ellipse fill="#f7b733" stroke="black" cx="68.6346" cy="-180" rx="36.7401" ry="18" style="filter: url(#dropshadow)"/>
<text text-anchor="middle" x="68.6346" y="-178.1" font-family="Times New Roman,serif" font-size="8.00">VariableGroup</text>
</g>
<!-- VariableGroup&#45;&gt;ConceptProperties -->
<g id="edge40" class="edge"><title>VariableGroup&#45;&gt;ConceptProperties</title>
<path fill="none" stroke="black" d="M104.798,-176.362C147.955,-174.008 220.42,-177.267 261.269,-219 345.732,-305.291 376.515,-661.566 386.71,-837.204"/>
<text text-anchor="middle" x="208.269" y="-221.6" font-family="Times New Roman,serif" font-size="8.00">ConceptReference</text>
<text text-anchor="middle" x="394.71" y="-839.804" font-family="Times New Roman,serif" font-size="8.00">0...*</text>
<text text-anchor="middle" x="112.798" y="-169.962" font-family="Times New Roman,serif" font-size="8.00">0...*</text>
</g>
<!-- ComplianceType -->
<g id="ReusableTypeComplianceType8" class="node"><title></title><ellipse fill="#f7b733" stroke="black" cx="68.6346" cy="-126" rx="43.8539" ry="18" style="filter: url(#dropshadow)"/>
<text text-anchor="middle" x="68.6346" y="-124.1" font-family="Times New Roman,serif" font-size="8.00">ComplianceType</text>
</g>
<!-- ComplianceType&#45;&gt;ConceptProperties -->
<g id="edge41" class="edge"><title>ComplianceType&#45;&gt;ConceptProperties</title>
<path fill="none" stroke="black" d="M111.5,-121.964C155.217,-120.251 222.684,-125.091 261.269,-165 352.501,-259.362 380.081,-651.121 388.116,-837.121"/>
<text text-anchor="middle" x="208.269" y="-167.6" font-family="Times New Roman,serif" font-size="8.00">ComplianceConceptReference</text>
<text text-anchor="middle" x="380.116" y="-839.721" font-family="Times New Roman,serif" font-size="8.00">0...*</text>
<text text-anchor="middle" x="119.5" y="-115.564" font-family="Times New Roman,serif" font-size="8.00">0...*</text>
</g>
<!-- SimilarConceptType -->
<g id="ReusableTypeSimilarConceptType9" class="node"><title></title><ellipse fill="#f7b733" stroke="black" cx="68.6346" cy="-72" rx="50.4666" ry="18" style="filter: url(#dropshadow)"/>
<text text-anchor="middle" x="68.6346" y="-70.1" font-family="Times New Roman,serif" font-size="8.00">SimilarConceptType</text>
</g>
<!-- SimilarConceptType&#45;&gt;ConceptProperties -->
<g id="edge42" class="edge"><title>SimilarConceptType&#45;&gt;ConceptProperties</title>
<path fill="none" stroke="black" d="M117.755,-67.6825C161.507,-66.6151 224.659,-72.7245 261.269,-111 359.322,-213.515 383.432,-641.294 389.349,-837.223"/>
<text text-anchor="middle" x="208.269" y="-113.6" font-family="Times New Roman,serif" font-size="8.00">SimilarConceptReference</text>
<text text-anchor="middle" x="381.349" y="-830.823" font-family="Times New Roman,serif" font-size="8.00">0...*</text>
<text text-anchor="middle" x="125.755" y="-61.2825" font-family="Times New Roman,serif" font-size="8.00">0...*</text>
</g>
<!-- SourceRepresentationType -->
<g id="ReusableTypeSourceRepresentationType0" class="node"><title></title><ellipse fill="#f7b733" stroke="black" cx="68.6346" cy="-18" rx="62.2904" ry="18" style="filter: url(#dropshadow)"/>
<text text-anchor="middle" x="68.6346" y="-16.1" font-family="Times New Roman,serif" font-size="8.00">SourceRepresentationType</text>
</g>
<!-- SourceRepresentationType&#45;&gt;ConceptProperties -->
<g id="edge43" class="edge"><title>SourceRepresentationType&#45;&gt;ConceptProperties</title>
<path fill="none" stroke="black" d="M129.137,-13.1427C171.949,-13.1318 227.825,-20.8723 261.269,-56 366.562,-166.592 386.756,-631.428 390.495,-837.233"/>
<text text-anchor="middle" x="208.269" y="-58.6" font-family="Times New Roman,serif" font-size="8.00">ConceptReference</text>
<text text-anchor="middle" x="398.495" y="-830.833" font-family="Times New Roman,serif" font-size="8.00">0...*</text>
<text text-anchor="middle" x="137.137" y="-6.74268" font-family="Times New Roman,serif" font-size="8.00">0...*</text>
</g>
</g>
</svg>
