<?xml version="1.0" encoding="UTF-8" standalone="no"?>
<!DOCTYPE svg PUBLIC "-//W3C//DTD SVG 1.1//EN"
 "http://www.w3.org/Graphics/SVG/1.1/DTD/svg11.dtd">
<!-- Generated by graphviz version 2.38.0 (20140413.2041)
 -->
<!-- Title: G Pages: 1 -->
<svg width="517pt" height="692pt"
 viewBox="0.00 0.00 517.30 692.00" xmlns="http://www.w3.org/2000/svg" xmlns:xlink="http://www.w3.org/1999/xlink">
<filter id = "dropshadow" height = "130%" ><feGaussianBlur in= "SourceAlpha" stdDeviation = "3"/><!--stdDeviation is how much to blur--><feOffset dx = "2" dy = "2" result = "offsetblur"/><!--how much to offset--><feMerge><feMergeNode/><!--this contains the offset blurred image--><feMergeNode in= "SourceGraphic"/><!--this contains the element that the filter is applied to --></feMerge></filter>
<g id="graph0" class="graph" transform="scale(1 1) rotate(0) translate(4 688)">
<title>G</title>
<!-- ContentDateOffsetType -->
<g id="ReusableTypeContentDateOffsetType" class="node"><title></title><polygon fill="#f7b733" stroke="black" points="274.303,-324 274.303,-360 509.303,-360 509.303,-324 274.303,-324" style="filter: url(#dropshadow)"/>
<text text-anchor="middle" x="325.303" y="-340.1" font-family="Times New Roman,serif" font-size="8.00">ContentDateOffsetType</text>
<polyline fill="none" stroke="black" points="376.303,-324 376.303,-360 "/>
<text text-anchor="start" x="384.303" y="-344.6" font-family="Times New Roman,serif" font-size="8.00">NumberOfUnits : decimal[0...1] </text>
<text text-anchor="start" x="384.303" y="-335.6" font-family="Times New Roman,serif" font-size="8.00">IsNegativeOffset : boolean[0...1] </text>
</g>
<!-- CategoryDomainType -->
<g id="ReusableTypeCategoryDomainType" class="node"><title></title><ellipse fill="#f7b733" stroke="black" cx="85.6514" cy="-666" rx="53.7736" ry="18" style="filter: url(#dropshadow)"/>
<text text-anchor="middle" x="85.6514" y="-664.1" font-family="Times New Roman,serif" font-size="8.00">CategoryDomainType</text>
</g>
<!-- CategoryDomainType&#45;&gt;ContentDateOffsetType -->
<g id="edge1" class="edge"><title>CategoryDomainType&#45;&gt;ContentDateOffsetType</title>
<path fill="none" stroke="black" d="M130.602,-655.803C168.368,-644.99 222.006,-624.451 256.303,-589 325.222,-517.762 369.413,-404.19 384.757,-360.217"/>
<text text-anchor="middle" x="222.803" y="-636.6" font-family="Times New Roman,serif" font-size="8.00">ContentDateOffset</text>
</g>
<!-- CodeDomainType -->
<g id="ReusableTypeCodeDomainType" class="node"><title></title><ellipse fill="#f7b733" stroke="black" cx="85.6514" cy="-612" rx="45.2568" ry="18" style="filter: url(#dropshadow)"/>
<text text-anchor="middle" x="85.6514" y="-610.1" font-family="Times New Roman,serif" font-size="8.00">CodeDomainType</text>
</g>
<!-- CodeDomainType&#45;&gt;ContentDateOffsetType -->
<g id="edge2" class="edge"><title>CodeDomainType&#45;&gt;ContentDateOffsetType</title>
<path fill="none" stroke="black" d="M124.31,-602.47C161.552,-591.448 218.329,-570.16 256.303,-535 314.89,-480.754 362.434,-396.804 381.634,-360.154"/>
<text text-anchor="middle" x="222.803" y="-578.6" font-family="Times New Roman,serif" font-size="8.00">ContentDateOffset</text>
</g>
<!-- DateTimeDomainType -->
<g id="ReusableTypeDateTimeDomainType" class="node"><title></title><ellipse fill="#f7b733" stroke="black" cx="85.6514" cy="-558" rx="55.6769" ry="18" style="filter: url(#dropshadow)"/>
<text text-anchor="middle" x="85.6514" y="-556.1" font-family="Times New Roman,serif" font-size="8.00">DateTimeDomainType</text>
</g>
<!-- DateTimeDomainType&#45;&gt;ContentDateOffsetType -->
<g id="edge3" class="edge"><title>DateTimeDomainType&#45;&gt;ContentDateOffsetType</title>
<path fill="none" stroke="black" d="M129.107,-546.489C142.817,-542.238 157.923,-536.979 171.303,-531 211.318,-513.119 221.861,-508.107 256.303,-481 304.592,-442.995 352.572,-388.296 376.01,-360.191"/>
<text text-anchor="middle" x="222.803" y="-524.6" font-family="Times New Roman,serif" font-size="8.00">ContentDateOffset</text>
</g>
<!-- DistributionDomainType -->
<g id="ReusableTypeDistributionDomainType" class="node"><title></title><ellipse fill="#f7b733" stroke="black" cx="85.6514" cy="-504" rx="58.9835" ry="18" style="filter: url(#dropshadow)"/>
<text text-anchor="middle" x="85.6514" y="-502.1" font-family="Times New Roman,serif" font-size="8.00">DistributionDomainType</text>
</g>
<!-- DistributionDomainType&#45;&gt;ContentDateOffsetType -->
<g id="edge4" class="edge"><title>DistributionDomainType&#45;&gt;ContentDateOffsetType</title>
<path fill="none" stroke="black" d="M130.41,-492.083C143.769,-487.905 158.346,-482.79 171.303,-477 246.459,-443.416 326.972,-388.368 366.316,-360.06"/>
<text text-anchor="middle" x="222.803" y="-470.6" font-family="Times New Roman,serif" font-size="8.00">ContentDateOffset</text>
</g>
<!-- GeographicLocationCodeDomainType -->
<g id="ReusableTypeGeographicLocationCodeDomainType" class="node"><title></title><ellipse fill="#f7b733" stroke="black" cx="85.6514" cy="-450" rx="85.8032" ry="18" style="filter: url(#dropshadow)"/>
<text text-anchor="middle" x="85.6514" y="-448.1" font-family="Times New Roman,serif" font-size="8.00">GeographicLocationCodeDomainType</text>
</g>
<!-- GeographicLocationCodeDomainType&#45;&gt;ContentDateOffsetType -->
<g id="edge5" class="edge"><title>GeographicLocationCodeDomainType&#45;&gt;ContentDateOffsetType</title>
<path fill="none" stroke="black" d="M134.677,-435.094C146.673,-431.257 159.487,-427.062 171.303,-423 231.035,-402.464 299.189,-376.991 343.495,-360.154"/>
<text text-anchor="middle" x="222.803" y="-416.6" font-family="Times New Roman,serif" font-size="8.00">ContentDateOffset</text>
</g>
<!-- GeographicStructureCodeDomainType -->
<g id="ReusableTypeGeographicStructureCodeDomainType" class="node"><title></title><ellipse fill="#f7b733" stroke="black" cx="85.6514" cy="-396" rx="85.1685" ry="18" style="filter: url(#dropshadow)"/>
<text text-anchor="middle" x="85.6514" y="-394.1" font-family="Times New Roman,serif" font-size="8.00">GeographicStructureCodeDomainType</text>
</g>
<!-- GeographicStructureCodeDomainType&#45;&gt;ContentDateOffsetType -->
<g id="edge6" class="edge"><title>GeographicStructureCodeDomainType&#45;&gt;ContentDateOffsetType</title>
<path fill="none" stroke="black" d="M151.527,-384.482C191.566,-377.373 243.787,-368.102 289.223,-360.035"/>
<text text-anchor="middle" x="222.803" y="-378.6" font-family="Times New Roman,serif" font-size="8.00">ContentDateOffset</text>
</g>
<!-- LocationDomainType -->
<g id="ReusableTypeLocationDomainType" class="node"><title></title><ellipse fill="#f7b733" stroke="black" cx="85.6514" cy="-342" rx="53.7736" ry="18" style="filter: url(#dropshadow)"/>
<text text-anchor="middle" x="85.6514" y="-340.1" font-family="Times New Roman,serif" font-size="8.00">LocationDomainType</text>
</g>
<!-- LocationDomainType&#45;&gt;ContentDateOffsetType -->
<g id="edge7" class="edge"><title>LocationDomainType&#45;&gt;ContentDateOffsetType</title>
<path fill="none" stroke="black" d="M139.631,-342C176.734,-342 227.776,-342 274.161,-342"/>
<text text-anchor="middle" x="222.803" y="-344.6" font-family="Times New Roman,serif" font-size="8.00">ContentDateOffset</text>
</g>
<!-- NominalDomainType -->
<g id="ReusableTypeNominalDomainType" class="node"><title></title><ellipse fill="#f7b733" stroke="black" cx="85.6514" cy="-288" rx="52.5056" ry="18" style="filter: url(#dropshadow)"/>
<text text-anchor="middle" x="85.6514" y="-286.1" font-family="Times New Roman,serif" font-size="8.00">NominalDomainType</text>
</g>
<!-- NominalDomainType&#45;&gt;ContentDateOffsetType -->
<g id="edge8" class="edge"><title>NominalDomainType&#45;&gt;ContentDateOffsetType</title>
<path fill="none" stroke="black" d="M132.846,-296.201C174.225,-303.548 236.367,-314.581 289.29,-323.977"/>
<text text-anchor="middle" x="222.803" y="-318.6" font-family="Times New Roman,serif" font-size="8.00">ContentDateOffset</text>
</g>
<!-- NumericDomainType -->
<g id="ReusableTypeNumericDomainType0" class="node"><title></title><ellipse fill="#f7b733" stroke="black" cx="85.6514" cy="-234" rx="52.3706" ry="18" style="filter: url(#dropshadow)"/>
<text text-anchor="middle" x="85.6514" y="-232.1" font-family="Times New Roman,serif" font-size="8.00">NumericDomainType</text>
</g>
<!-- NumericDomainType&#45;&gt;ContentDateOffsetType -->
<g id="edge9" class="edge"><title>NumericDomainType&#45;&gt;ContentDateOffsetType</title>
<path fill="none" stroke="black" d="M125.119,-245.869C139.639,-250.455 156.277,-255.834 171.303,-261 231.035,-281.536 299.189,-307.009 343.495,-323.846"/>
<text text-anchor="middle" x="222.803" y="-293.6" font-family="Times New Roman,serif" font-size="8.00">ContentDateOffset</text>
</g>
<!-- RankingDomainType -->
<g id="ReusableTypeRankingDomainType1" class="node"><title></title><ellipse fill="#f7b733" stroke="black" cx="85.6514" cy="-180" rx="52.3706" ry="18" style="filter: url(#dropshadow)"/>
<text text-anchor="middle" x="85.6514" y="-178.1" font-family="Times New Roman,serif" font-size="8.00">RankingDomainType</text>
</g>
<!-- RankingDomainType&#45;&gt;ContentDateOffsetType -->
<g id="edge10" class="edge"><title>RankingDomainType&#45;&gt;ContentDateOffsetType</title>
<path fill="none" stroke="black" d="M127.352,-191.048C141.508,-195.395 157.333,-200.831 171.303,-207 246.606,-240.254 327.055,-295.446 366.351,-323.862"/>
<text text-anchor="middle" x="222.803" y="-251.6" font-family="Times New Roman,serif" font-size="8.00">ContentDateOffset</text>
</g>
<!-- ScaleDomainType -->
<g id="ReusableTypeScaleDomainType2" class="node"><title></title><ellipse fill="#f7b733" stroke="black" cx="85.6514" cy="-126" rx="45.2568" ry="18" style="filter: url(#dropshadow)"/>
<text text-anchor="middle" x="85.6514" y="-124.1" font-family="Times New Roman,serif" font-size="8.00">ScaleDomainType</text>
</g>
<!-- ScaleDomainType&#45;&gt;ContentDateOffsetType -->
<g id="edge11" class="edge"><title>ScaleDomainType&#45;&gt;ContentDateOffsetType</title>
<path fill="none" stroke="black" d="M123.955,-136.016C138.938,-140.522 156.204,-146.332 171.303,-153 211.192,-170.615 221.967,-175.121 256.303,-202 304.871,-240.021 352.731,-295.224 376.078,-323.615"/>
<text text-anchor="middle" x="222.803" y="-204.6" font-family="Times New Roman,serif" font-size="8.00">ContentDateOffset</text>
</g>
<!-- TextDomainType -->
<g id="ReusableTypeTextDomainType3" class="node"><title></title><ellipse fill="#f7b733" stroke="black" cx="85.6514" cy="-72" rx="45.2568" ry="18" style="filter: url(#dropshadow)"/>
<text text-anchor="middle" x="85.6514" y="-70.1" font-family="Times New Roman,serif" font-size="8.00">TextDomainType</text>
</g>
<!-- TextDomainType&#45;&gt;ContentDateOffsetType -->
<g id="edge12" class="edge"><title>TextDomainType&#45;&gt;ContentDateOffsetType</title>
<path fill="none" stroke="black" d="M124.648,-81.3988C161.886,-92.222 218.42,-113.147 256.303,-148 315.418,-202.386 362.855,-287.213 381.843,-323.988"/>
<text text-anchor="middle" x="222.803" y="-150.6" font-family="Times New Roman,serif" font-size="8.00">ContentDateOffset</text>
</g>
<!-- VariableRepresentationType -->
<g id="ReusableTypeVariableRepresentationType4" class="node"><title></title><ellipse fill="#f7b733" stroke="black" cx="85.6514" cy="-18" rx="65.5975" ry="18" style="filter: url(#dropshadow)"/>
<text text-anchor="middle" x="85.6514" y="-16.1" font-family="Times New Roman,serif" font-size="8.00">VariableRepresentationType</text>
</g>
<!-- VariableRepresentationType&#45;&gt;ContentDateOffsetType -->
<g id="edge13" class="edge"><title>VariableRepresentationType&#45;&gt;ContentDateOffsetType</title>
<path fill="none" stroke="black" d="M136.617,-29.3881C173.859,-40.1736 223.71,-59.7879 256.303,-93 326.335,-164.362 370.018,-279.613 384.989,-323.882"/>
<text text-anchor="middle" x="222.803" y="-95.6" font-family="Times New Roman,serif" font-size="8.00">ContentDateOffset</text>
</g>
</g>
</svg>
