<?xml version="1.0" encoding="UTF-8" standalone="no"?>
<!DOCTYPE svg PUBLIC "-//W3C//DTD SVG 1.1//EN"
 "http://www.w3.org/Graphics/SVG/1.1/DTD/svg11.dtd">
<!-- Generated by graphviz version 2.38.0 (20140413.2041)
 -->
<!-- Title: G Pages: 1 -->
<svg width="1731pt" height="360pt"
 viewBox="0.00 0.00 1731.43 360.00" xmlns="http://www.w3.org/2000/svg" xmlns:xlink="http://www.w3.org/1999/xlink">
<filter id = "dropshadow" height = "130%" ><feGaussianBlur in= "SourceAlpha" stdDeviation = "3"/><!--stdDeviation is how much to blur--><feOffset dx = "2" dy = "2" result = "offsetblur"/><!--how much to offset--><feMerge><feMergeNode/><!--this contains the offset blurred image--><feMergeNode in= "SourceGraphic"/><!--this contains the element that the filter is applied to --></feMerge></filter>
<g id="graph0" class="graph" transform="scale(1 1) rotate(0) translate(4 356)">
<title>G</title>
<g id="clust1" class="cluster"><title>clusterDataRelationship</title>
<polygon fill="#4abdac" stroke="black" points="219.429,-8 219.429,-344 1715.43,-344 1715.43,-8 219.429,-8" style="filter: url(#dropshadow)"/>
<text text-anchor="middle" x="967.429" y="-333.6" font-family="Times New Roman,serif" font-size="8.00">DataRelationship</text>
</g>
<!-- DataRelationshipProperties -->
<g id="ItemTypeDataRelationshipProperties" class="node"><title></title><polygon fill="#f7b733" stroke="black" points="227.429,-140.5 227.429,-193.5 481.429,-193.5 481.429,-140.5 227.429,-140.5" style="filter: url(#dropshadow)"/>
<text text-anchor="middle" x="253.929" y="-165.1" font-family="Times New Roman,serif" font-size="8.00">Properties</text>
<polyline fill="none" stroke="black" points="280.429,-140.5 280.429,-193.5 "/>
<text text-anchor="start" x="288.429" y="-183.1" font-family="Times New Roman,serif" font-size="8.00">DataRelationshipName : NameType[0...n] </text>
<text text-anchor="start" x="288.429" y="-174.1" font-family="Times New Roman,serif" font-size="8.00">Label : LabelType[0...n] </text>
<text text-anchor="start" x="288.429" y="-165.1" font-family="Times New Roman,serif" font-size="8.00">Description : StructuredStringType[0...1] </text>
<text text-anchor="start" x="288.429" y="-156.1" font-family="Times New Roman,serif" font-size="8.00">LogicalRecord : LogicalRecordType[0...n] </text>
<text text-anchor="start" x="288.429" y="-147.1" font-family="Times New Roman,serif" font-size="8.00">RecordRelationship : RecordRelationshipType[0...n] </text>
</g>
<!-- DataRelationshipNameType -->
<g id="ReusableTypeDataRelationshipNameType" class="node"><title></title><polygon fill="#fc4a1a" stroke="black" points="1516.43,-36 1516.43,-72 1685.43,-72 1685.43,-36 1516.43,-36" style="filter: url(#dropshadow)"/>
<text text-anchor="middle" x="1544.43" y="-52.1" font-family="Times New Roman,serif" font-size="8.00">NameType</text>
<polyline fill="none" stroke="black" points="1572.43,-36 1572.43,-72 "/>
<text text-anchor="start" x="1580.43" y="-56.6" font-family="Times New Roman,serif" font-size="8.00">IsPreferred : boolean[0...1] </text>
<text text-anchor="start" x="1580.43" y="-47.6" font-family="Times New Roman,serif" font-size="8.00">Context : string[0...1] </text>
</g>
<!-- DataRelationshipProperties&#45;&gt;DataRelationshipNameType -->
<g id="edge1" class="edge"><title>DataRelationshipProperties&#45;&gt;DataRelationshipNameType</title>
<path fill="none" stroke="black" d="M416.141,-140.486C441.483,-130.297 471.479,-119.359 499.429,-112 536.811,-102.158 547.171,-104.537 585.429,-99 794.132,-68.7956 845.049,-48.4786 1055.43,-34 1203.08,-23.8385 1240.43,-33.1591 1388.43,-34 1427.54,-34.2222 1437.45,-31.796 1476.43,-35 1489.4,-36.0662 1503.08,-37.6763 1516.41,-39.5168"/>
<text text-anchor="middle" x="983.429" y="-48.6" font-family="Times New Roman,serif" font-size="8.00">DataRelationshipName</text>
</g>
<!-- DataRelationshipLabelType -->
<g id="ReusableTypeDataRelationshipLabelType" class="node"><title></title><polygon fill="#fc4a1a" stroke="black" points="1499.43,-252.5 1499.43,-305.5 1702.43,-305.5 1702.43,-252.5 1499.43,-252.5" style="filter: url(#dropshadow)"/>
<text text-anchor="middle" x="1526.43" y="-277.1" font-family="Times New Roman,serif" font-size="8.00">LabelType</text>
<polyline fill="none" stroke="black" points="1553.43,-252.5 1553.43,-305.5 "/>
<text text-anchor="start" x="1561.43" y="-295.1" font-family="Times New Roman,serif" font-size="8.00">TypeOfLabel : CodeValueType[0...1] </text>
<text text-anchor="start" x="1561.43" y="-286.1" font-family="Times New Roman,serif" font-size="8.00">LocationVariant : string[0...1] </text>
<text text-anchor="start" x="1561.43" y="-277.1" font-family="Times New Roman,serif" font-size="8.00">ValidForStartDate : cogsDate[0...1] </text>
<text text-anchor="start" x="1561.43" y="-268.1" font-family="Times New Roman,serif" font-size="8.00">ValidForEndDate : cogsDate[0...1] </text>
<text text-anchor="start" x="1561.43" y="-259.1" font-family="Times New Roman,serif" font-size="8.00">MaxLength : int[0...1] </text>
</g>
<!-- DataRelationshipProperties&#45;&gt;DataRelationshipLabelType -->
<g id="edge2" class="edge"><title>DataRelationshipProperties&#45;&gt;DataRelationshipLabelType</title>
<path fill="none" stroke="black" d="M424.926,-193.505C470.06,-209.756 530.503,-229.73 585.429,-242 913.315,-315.248 1315.41,-299.926 1499.39,-287.324"/>
<text text-anchor="middle" x="983.429" y="-296.6" font-family="Times New Roman,serif" font-size="8.00">Label</text>
</g>
<!-- DataRelationshipStructuredStringType -->
<g id="ReusableTypeDataRelationshipStructuredStringType" class="node"><title></title><polygon fill="#fc4a1a" stroke="black" points="1494.43,-197 1494.43,-233 1707.43,-233 1707.43,-197 1494.43,-197" style="filter: url(#dropshadow)"/>
<text text-anchor="middle" x="1539.43" y="-213.1" font-family="Times New Roman,serif" font-size="8.00">StructuredStringType</text>
<polyline fill="none" stroke="black" points="1584.43,-197 1584.43,-233 "/>
<text text-anchor="start" x="1592.43" y="-213.1" font-family="Times New Roman,serif" font-size="8.00">Content : ContentType[0...n] </text>
</g>
<!-- DataRelationshipProperties&#45;&gt;DataRelationshipStructuredStringType -->
<g id="edge3" class="edge"><title>DataRelationshipProperties&#45;&gt;DataRelationshipStructuredStringType</title>
<path fill="none" stroke="black" d="M481.712,-193.171C515.342,-199.739 551.7,-206.481 585.429,-212 793.362,-246.022 845.183,-260.193 1055.43,-274 1203.11,-283.699 1241.92,-294.983 1388.43,-274 1437.02,-267.041 1447.15,-256.186 1494.43,-243 1506.2,-239.717 1518.74,-236.31 1530.91,-233.051"/>
<text text-anchor="middle" x="983.429" y="-274.6" font-family="Times New Roman,serif" font-size="8.00">Description</text>
</g>
<!-- DataRelationshipLogicalRecordType -->
<g id="ReusableTypeDataRelationshipLogicalRecordType" class="node"><title></title><polygon fill="#fc4a1a" stroke="black" points="1055.43,-81.5 1055.43,-188.5 1388.43,-188.5 1388.43,-81.5 1055.43,-81.5" style="filter: url(#dropshadow)"/>
<text text-anchor="middle" x="1097.93" y="-133.1" font-family="Times New Roman,serif" font-size="8.00">LogicalRecordType</text>
<polyline fill="none" stroke="black" points="1140.43,-81.5 1140.43,-188.5 "/>
<text text-anchor="start" x="1148.43" y="-178.1" font-family="Times New Roman,serif" font-size="8.00">LogicalRecordName : NameType[0...n] </text>
<text text-anchor="start" x="1148.43" y="-169.1" font-family="Times New Roman,serif" font-size="8.00">Label : LabelType[0...n] </text>
<text text-anchor="start" x="1148.43" y="-160.1" font-family="Times New Roman,serif" font-size="8.00">Description : StructuredStringType[0...1] </text>
<text text-anchor="start" x="1148.43" y="-151.1" font-family="Times New Roman,serif" font-size="8.00">VariableValueReference : VariableValueReferenceType[0...1] </text>
<text text-anchor="start" x="1148.43" y="-142.1" font-family="Times New Roman,serif" font-size="8.00">SupportForMultipleSegments : VariableValueReferenceType[0...1] </text>
<text text-anchor="start" x="1148.43" y="-133.1" font-family="Times New Roman,serif" font-size="8.00">CaseIdentification : CaseIdentificationType[0...n] </text>
<text text-anchor="start" x="1148.43" y="-124.1" font-family="Times New Roman,serif" font-size="8.00">VariablesInRecord : VariablesInRecordType[0...1] </text>
<text text-anchor="start" x="1148.43" y="-115.1" font-family="Times New Roman,serif" font-size="8.00">NCubesInRecord : NCubesInRecordType[0...1] </text>
<text text-anchor="start" x="1148.43" y="-106.1" font-family="Times New Roman,serif" font-size="8.00">DefaultMissingValues : DefaultMissingValuesType[0...1] </text>
<text text-anchor="start" x="1148.43" y="-97.1" font-family="Times New Roman,serif" font-size="8.00">HasLocator : boolean[0...1] </text>
<text text-anchor="start" x="1148.43" y="-88.1" font-family="Times New Roman,serif" font-size="8.00">VariableQuantity : int[0...1] </text>
</g>
<!-- DataRelationshipProperties&#45;&gt;DataRelationshipLogicalRecordType -->
<g id="edge4" class="edge"><title>DataRelationshipProperties&#45;&gt;DataRelationshipLogicalRecordType</title>
<path fill="none" stroke="black" d="M446.624,-140.482C488.513,-129.627 539.082,-118.368 585.429,-113 744.166,-94.6156 926.57,-104.055 1055.13,-115.731"/>
<text text-anchor="middle" x="748.429" y="-115.6" font-family="Times New Roman,serif" font-size="8.00">LogicalRecord</text>
</g>
<!-- DataRelationshipRecordRelationshipType -->
<g id="ReusableTypeDataRelationshipRecordRelationshipType" class="node"><title></title><polygon fill="#fc4a1a" stroke="black" points="585.429,-131.5 585.429,-202.5 911.429,-202.5 911.429,-131.5 585.429,-131.5" style="filter: url(#dropshadow)"/>
<text text-anchor="middle" x="636.929" y="-165.1" font-family="Times New Roman,serif" font-size="8.00">RecordRelationshipType</text>
<polyline fill="none" stroke="black" points="688.429,-131.5 688.429,-202.5 "/>
<text text-anchor="start" x="696.429" y="-192.1" font-family="Times New Roman,serif" font-size="8.00">RecordRelationshipName : NameType[0...n] </text>
<text text-anchor="start" x="696.429" y="-183.1" font-family="Times New Roman,serif" font-size="8.00">Label : LabelType[0...n] </text>
<text text-anchor="start" x="696.429" y="-174.1" font-family="Times New Roman,serif" font-size="8.00">Description : StructuredStringType[0...1] </text>
<text text-anchor="start" x="696.429" y="-165.1" font-family="Times New Roman,serif" font-size="8.00">SourceLogicalRecordReference : LogicalRecordType[0...1] </text>
<text text-anchor="start" x="696.429" y="-156.1" font-family="Times New Roman,serif" font-size="8.00">TargetLogicalRecordReference : LogicalRecordType[0...1] </text>
<text text-anchor="start" x="696.429" y="-147.1" font-family="Times New Roman,serif" font-size="8.00">SourceTargetLink : SourceTargetLinkType[0...n] </text>
<text text-anchor="start" x="696.429" y="-138.1" font-family="Times New Roman,serif" font-size="8.00">RelationToTarget : string[0...1] </text>
</g>
<!-- DataRelationshipProperties&#45;&gt;DataRelationshipRecordRelationshipType -->
<g id="edge5" class="edge"><title>DataRelationshipProperties&#45;&gt;DataRelationshipRecordRelationshipType</title>
<path fill="none" stroke="black" d="M481.618,-167C514.631,-167 550.683,-167 585.284,-167"/>
<text text-anchor="middle" x="533.429" y="-169.6" font-family="Times New Roman,serif" font-size="8.00">RecordRelationship</text>
</g>
<!-- DataRelationshipLogicalRecordType&#45;&gt;DataRelationshipNameType -->
<g id="edge6" class="edge"><title>DataRelationshipLogicalRecordType&#45;&gt;DataRelationshipNameType</title>
<path fill="none" stroke="black" d="M1388.56,-99.4133C1432.75,-89.92 1478.63,-80.0611 1516.31,-71.9649"/>
<text text-anchor="middle" x="1441.43" y="-97.6" font-family="Times New Roman,serif" font-size="8.00">LogicalRecordName</text>
</g>
<!-- DataRelationshipLogicalRecordType&#45;&gt;DataRelationshipLabelType -->
<g id="edge7" class="edge"><title>DataRelationshipLogicalRecordType&#45;&gt;DataRelationshipLabelType</title>
<path fill="none" stroke="black" d="M1353.61,-188.509C1398.11,-206.322 1448.27,-225.955 1494.43,-243 1502.96,-246.151 1511.92,-249.358 1520.85,-252.495"/>
<text text-anchor="middle" x="1441.43" y="-236.6" font-family="Times New Roman,serif" font-size="8.00">Label</text>
</g>
<!-- DataRelationshipLogicalRecordType&#45;&gt;DataRelationshipStructuredStringType -->
<g id="edge8" class="edge"><title>DataRelationshipLogicalRecordType&#45;&gt;DataRelationshipStructuredStringType</title>
<path fill="none" stroke="black" d="M1388.56,-170.147C1432.25,-179.419 1477.61,-189.043 1515.05,-196.988"/>
<text text-anchor="middle" x="1441.43" y="-189.6" font-family="Times New Roman,serif" font-size="8.00">Description</text>
</g>
<!-- DataRelationshipRecordRelationshipType&#45;&gt;DataRelationshipNameType -->
<g id="edge9" class="edge"><title>DataRelationshipRecordRelationshipType&#45;&gt;DataRelationshipNameType</title>
<path fill="none" stroke="black" d="M895.05,-131.373C900.601,-129.626 906.077,-127.834 911.429,-126 977.513,-103.354 987.172,-77.8676 1055.43,-63 1215.47,-28.1392 1408.28,-36.341 1516.2,-45.2858"/>
<text text-anchor="middle" x="1221.93" y="-65.6" font-family="Times New Roman,serif" font-size="8.00">RecordRelationshipName</text>
</g>
<!-- DataRelationshipRecordRelationshipType&#45;&gt;DataRelationshipLabelType -->
<g id="edge10" class="edge"><title>DataRelationshipRecordRelationshipType&#45;&gt;DataRelationshipLabelType</title>
<path fill="none" stroke="black" d="M911.788,-199.852C958.066,-208.506 1008.62,-217.289 1055.43,-224 1209.67,-246.116 1389.75,-262.468 1499.27,-271.365"/>
<text text-anchor="middle" x="1221.93" y="-263.6" font-family="Times New Roman,serif" font-size="8.00">Label</text>
</g>
<!-- DataRelationshipRecordRelationshipType&#45;&gt;DataRelationshipStructuredStringType -->
<g id="edge11" class="edge"><title>DataRelationshipRecordRelationshipType&#45;&gt;DataRelationshipStructuredStringType</title>
<path fill="none" stroke="black" d="M911.632,-185.56C958.02,-190.29 1008.68,-194.906 1055.43,-198 1207.84,-208.087 1384.65,-212.213 1494.42,-213.884"/>
<text text-anchor="middle" x="1221.93" y="-213.6" font-family="Times New Roman,serif" font-size="8.00">Description</text>
</g>
<!-- DataRelationshipRecordRelationshipType&#45;&gt;DataRelationshipLogicalRecordType -->
<g id="edge12" class="edge"><title>DataRelationshipRecordRelationshipType&#45;&gt;DataRelationshipLogicalRecordType</title>
<path fill="none" stroke="black" d="M911.654,-137.778C917.645,-137.108 923.585,-136.51 929.429,-136 970.14,-132.45 1014.17,-131.039 1055.38,-130.773"/>
<text text-anchor="middle" x="983.429" y="-138.6" font-family="Times New Roman,serif" font-size="8.00">SourceLogicalRecordReference</text>
</g>
<!-- DataRelationshipRecordRelationshipType&#45;&gt;DataRelationshipLogicalRecordType -->
<g id="edge13" class="edge"><title>DataRelationshipRecordRelationshipType&#45;&gt;DataRelationshipLogicalRecordType</title>
<path fill="none" stroke="black" d="M911.692,-155.987C958.043,-152.842 1008.6,-149.41 1055.16,-146.25"/>
<text text-anchor="middle" x="983.429" y="-156.6" font-family="Times New Roman,serif" font-size="8.00">TargetLogicalRecordReference</text>
</g>
<!-- BaseLogicalProduct -->
<g id="ItemTypeBaseLogicalProduct" class="node"><title></title><ellipse fill="#f7b733" stroke="black" cx="48.2144" cy="-194" rx="48.4297" ry="18" style="filter: url(#dropshadow)"/>
<text text-anchor="middle" x="48.2144" y="-192.1" font-family="Times New Roman,serif" font-size="8.00">BaseLogicalProduct</text>
</g>
<!-- BaseLogicalProduct&#45;&gt;DataRelationshipProperties -->
<g id="edge14" class="edge"><title>BaseLogicalProduct&#45;&gt;DataRelationshipProperties</title>
<path fill="none" stroke="black" d="M95.418,-189.899C128.572,-186.957 175.051,-182.832 219.442,-178.892"/>
<text text-anchor="middle" x="161.929" y="-191.6" font-family="Times New Roman,serif" font-size="8.00">DataRelationshipReference</text>
</g>
<!-- PhysicalInstance -->
<g id="ItemTypePhysicalInstance" class="node"><title></title><ellipse fill="#f7b733" stroke="black" cx="48.2144" cy="-140" rx="42.5843" ry="18" style="filter: url(#dropshadow)"/>
<text text-anchor="middle" x="48.2144" y="-138.1" font-family="Times New Roman,serif" font-size="8.00">PhysicalInstance</text>
</g>
<!-- PhysicalInstance&#45;&gt;DataRelationshipProperties -->
<g id="edge15" class="edge"><title>PhysicalInstance&#45;&gt;DataRelationshipProperties</title>
<path fill="none" stroke="black" d="M89.9264,-143.613C123.353,-146.58 172.666,-150.957 219.62,-155.124"/>
<text text-anchor="middle" x="161.929" y="-156.6" font-family="Times New Roman,serif" font-size="8.00">DataRelationshipReference</text>
</g>
</g>
</svg>
