<?xml version="1.0" encoding="UTF-8" standalone="no"?>
<!DOCTYPE svg PUBLIC "-//W3C//DTD SVG 1.1//EN"
 "http://www.w3.org/Graphics/SVG/1.1/DTD/svg11.dtd">
<!-- Generated by graphviz version 2.38.0 (20140413.2041)
 -->
<!-- Title: G Pages: 1 -->
<svg width="690pt" height="352pt"
 viewBox="0.00 0.00 690.00 352.00" xmlns="http://www.w3.org/2000/svg" xmlns:xlink="http://www.w3.org/1999/xlink">
<filter id = "dropshadow" height = "130%" ><feGaussianBlur in= "SourceAlpha" stdDeviation = "3"/><!--stdDeviation is how much to blur--><feOffset dx = "2" dy = "2" result = "offsetblur"/><!--how much to offset--><feMerge><feMergeNode/><!--this contains the offset blurred image--><feMergeNode in= "SourceGraphic"/><!--this contains the element that the filter is applied to --></feMerge></filter>
<g id="graph0" class="graph" transform="scale(1 1) rotate(0) translate(4 348)">
<title>G</title>
<g id="clust1" class="cluster"><title>clusterDataSet</title>
<polygon fill="#4abdac" stroke="black" points="8,-100 8,-336 674,-336 674,-100 8,-100" style="filter: url(#dropshadow)"/>
<text text-anchor="middle" x="341" y="-325.6" font-family="Times New Roman,serif" font-size="8.00">DataSet</text>
</g>
<!-- DataSetProperties -->
<g id="ItemTypeDataSetProperties" class="node"><title></title><polygon fill="#f7b733" stroke="black" points="16,-115.5 16,-186.5 284,-186.5 284,-115.5 16,-115.5" style="filter: url(#dropshadow)"/>
<text text-anchor="middle" x="42.5" y="-149.1" font-family="Times New Roman,serif" font-size="8.00">Properties</text>
<polyline fill="none" stroke="black" points="69,-115.5 69,-186.5 "/>
<text text-anchor="start" x="77" y="-176.1" font-family="Times New Roman,serif" font-size="8.00">ArrayBase : int[0...1] </text>
<text text-anchor="start" x="77" y="-167.1" font-family="Times New Roman,serif" font-size="8.00">DataSetName : NameType[0...n] </text>
<text text-anchor="start" x="77" y="-158.1" font-family="Times New Roman,serif" font-size="8.00">IdentifyingVariableReference : Variable[0...1] </text>
<text text-anchor="start" x="77" y="-149.1" font-family="Times New Roman,serif" font-size="8.00">DefaultVariableSchemeReference : VariableScheme[0...1] </text>
<text text-anchor="start" x="77" y="-140.1" font-family="Times New Roman,serif" font-size="8.00">RecordSet : RecordSetType[0...1] </text>
<text text-anchor="start" x="77" y="-131.1" font-family="Times New Roman,serif" font-size="8.00">ItemSet : ItemSetType[0...1] </text>
<text text-anchor="start" x="77" y="-122.1" font-family="Times New Roman,serif" font-size="8.00">VariableSet : VariableSetType[0...1] </text>
</g>
<!-- DataSetNameType -->
<g id="ReusableTypeDataSetNameType" class="node"><title></title><polygon fill="#fc4a1a" stroke="black" points="466,-109 466,-145 635,-145 635,-109 466,-109" style="filter: url(#dropshadow)"/>
<text text-anchor="middle" x="494" y="-125.1" font-family="Times New Roman,serif" font-size="8.00">NameType</text>
<polyline fill="none" stroke="black" points="522,-109 522,-145 "/>
<text text-anchor="start" x="530" y="-129.6" font-family="Times New Roman,serif" font-size="8.00">IsPreferred : boolean[0...1] </text>
<text text-anchor="start" x="530" y="-120.6" font-family="Times New Roman,serif" font-size="8.00">Context : string[0...1] </text>
</g>
<!-- DataSetProperties&#45;&gt;DataSetNameType -->
<g id="edge1" class="edge"><title>DataSetProperties&#45;&gt;DataSetNameType</title>
<path fill="none" stroke="black" d="M284.249,-142.975C344.209,-139.364 413.158,-135.211 465.729,-132.045"/>
<text text-anchor="middle" x="359.5" y="-144.6" font-family="Times New Roman,serif" font-size="8.00">DataSetName</text>
</g>
<!-- Variable -->
<g id="ItemTypeVariable" class="node"><title></title><ellipse fill="#f7b733" stroke="black" cx="550.5" cy="-72" rx="27" ry="18" style="filter: url(#dropshadow)"/>
<text text-anchor="middle" x="550.5" y="-70.1" font-family="Times New Roman,serif" font-size="8.00">Variable</text>
</g>
<!-- DataSetProperties&#45;&gt;Variable -->
<g id="edge2" class="edge"><title>DataSetProperties&#45;&gt;Variable</title>
<path fill="none" stroke="black" d="M284.249,-124.584C371.134,-107.36 476.895,-86.3934 524.345,-76.9867"/>
<text text-anchor="middle" x="359.5" y="-123.6" font-family="Times New Roman,serif" font-size="8.00">IdentifyingVariableReference</text>
<text text-anchor="middle" x="516.345" y="-70.5867" font-family="Times New Roman,serif" font-size="8.00">0...*</text>
<text text-anchor="middle" x="292.249" y="-118.184" font-family="Times New Roman,serif" font-size="8.00">0...*</text>
</g>
<!-- VariableScheme -->
<g id="ItemTypeVariableScheme" class="node"><title></title><ellipse fill="#f7b733" stroke="black" cx="550.5" cy="-18" rx="40.0477" ry="18" style="filter: url(#dropshadow)"/>
<text text-anchor="middle" x="550.5" y="-16.1" font-family="Times New Roman,serif" font-size="8.00">VariableScheme</text>
</g>
<!-- DataSetProperties&#45;&gt;VariableScheme -->
<g id="edge3" class="edge"><title>DataSetProperties&#45;&gt;VariableScheme</title>
<path fill="none" stroke="black" d="M231.15,-115.359C253.876,-105.71 278.759,-95.5727 302,-87 360.158,-65.5474 375.236,-61.4583 435,-45 461.287,-37.7608 491.295,-30.7294 513.995,-25.6576"/>
<text text-anchor="middle" x="359.5" y="-89.6" font-family="Times New Roman,serif" font-size="8.00">DefaultVariableSchemeReference</text>
<text text-anchor="middle" x="505.995" y="-19.2576" font-family="Times New Roman,serif" font-size="8.00">0...*</text>
<text text-anchor="middle" x="223.15" y="-108.959" font-family="Times New Roman,serif" font-size="8.00">0...*</text>
</g>
<!-- DataSetRecordSetType -->
<g id="ReusableTypeDataSetRecordSetType" class="node"><title></title><polygon fill="#fc4a1a" stroke="black" points="435,-164 435,-200 666,-200 666,-164 435,-164" style="filter: url(#dropshadow)"/>
<text text-anchor="middle" x="470" y="-180.1" font-family="Times New Roman,serif" font-size="8.00">RecordSetType</text>
<polyline fill="none" stroke="black" points="505,-164 505,-200 "/>
<text text-anchor="start" x="513" y="-184.6" font-family="Times New Roman,serif" font-size="8.00">VariableOrder : VariableOrderType[0...1] </text>
<text text-anchor="start" x="513" y="-175.6" font-family="Times New Roman,serif" font-size="8.00">Record : RecordType[0...n] </text>
</g>
<!-- DataSetProperties&#45;&gt;DataSetRecordSetType -->
<g id="edge4" class="edge"><title>DataSetProperties&#45;&gt;DataSetRecordSetType</title>
<path fill="none" stroke="black" d="M284.249,-161.366C333.009,-165.159 387.713,-169.414 434.72,-173.071"/>
<text text-anchor="middle" x="359.5" y="-174.6" font-family="Times New Roman,serif" font-size="8.00">RecordSet</text>
<text text-anchor="middle" x="426.72" y="-166.671" font-family="Times New Roman,serif" font-size="8.00">0...*</text>
<text text-anchor="middle" x="292.249" y="-154.966" font-family="Times New Roman,serif" font-size="8.00">0...*</text>
</g>
<!-- DataSetItemSetType -->
<g id="ReusableTypeDataSetItemSetType" class="node"><title></title><polygon fill="#fc4a1a" stroke="black" points="451,-219 451,-255 650,-255 650,-219 451,-219" style="filter: url(#dropshadow)"/>
<text text-anchor="middle" x="482" y="-235.1" font-family="Times New Roman,serif" font-size="8.00">ItemSetType</text>
<polyline fill="none" stroke="black" points="513,-219 513,-255 "/>
<text text-anchor="start" x="521" y="-235.1" font-family="Times New Roman,serif" font-size="8.00">ItemValue : ItemValueType[0...n] </text>
</g>
<!-- DataSetProperties&#45;&gt;DataSetItemSetType -->
<g id="edge5" class="edge"><title>DataSetProperties&#45;&gt;DataSetItemSetType</title>
<path fill="none" stroke="black" d="M284.367,-181.139C290.325,-182.451 296.223,-183.743 302,-185 355.092,-196.554 414.689,-209.089 462.096,-218.956"/>
<text text-anchor="middle" x="359.5" y="-211.6" font-family="Times New Roman,serif" font-size="8.00">ItemSet</text>
<text text-anchor="middle" x="454.096" y="-212.556" font-family="Times New Roman,serif" font-size="8.00">0...*</text>
<text text-anchor="middle" x="292.367" y="-174.739" font-family="Times New Roman,serif" font-size="8.00">0...*</text>
</g>
<!-- DataSetVariableSetType -->
<g id="ReusableTypeDataSetVariableSetType" class="node"><title></title><polygon fill="#fc4a1a" stroke="black" points="436,-274 436,-310 665,-310 665,-274 436,-274" style="filter: url(#dropshadow)"/>
<text text-anchor="middle" x="473" y="-290.1" font-family="Times New Roman,serif" font-size="8.00">VariableSetType</text>
<polyline fill="none" stroke="black" points="510,-274 510,-310 "/>
<text text-anchor="start" x="518" y="-290.1" font-family="Times New Roman,serif" font-size="8.00">VariableItem : VariableItemType[0...n] </text>
</g>
<!-- DataSetProperties&#45;&gt;DataSetVariableSetType -->
<g id="edge6" class="edge"><title>DataSetProperties&#45;&gt;DataSetVariableSetType</title>
<path fill="none" stroke="black" d="M222.002,-186.654C246.989,-198.593 275.46,-211.519 302,-222 359.781,-244.819 375.163,-248.302 435,-265 446.016,-268.074 457.692,-271.096 469.211,-273.94"/>
<text text-anchor="middle" x="359.5" y="-261.6" font-family="Times New Roman,serif" font-size="8.00">VariableSet</text>
<text text-anchor="middle" x="461.211" y="-267.54" font-family="Times New Roman,serif" font-size="8.00">0...*</text>
<text text-anchor="middle" x="214.002" y="-189.254" font-family="Times New Roman,serif" font-size="8.00">0...*</text>
</g>
</g>
</svg>
