<?xml version="1.0" encoding="UTF-8" standalone="no"?>
<!DOCTYPE svg PUBLIC "-//W3C//DTD SVG 1.1//EN"
 "http://www.w3.org/Graphics/SVG/1.1/DTD/svg11.dtd">
<!-- Generated by graphviz version 2.38.0 (20140413.2041)
 -->
<!-- Title: G Pages: 1 -->
<svg width="846pt" height="1232pt"
 viewBox="0.00 0.00 846.33 1232.00" xmlns="http://www.w3.org/2000/svg" xmlns:xlink="http://www.w3.org/1999/xlink">
<filter id = "dropshadow" height = "130%" ><feGaussianBlur in= "SourceAlpha" stdDeviation = "3"/><!--stdDeviation is how much to blur--><feOffset dx = "2" dy = "2" result = "offsetblur"/><!--how much to offset--><feMerge><feMergeNode/><!--this contains the offset blurred image--><feMergeNode in= "SourceGraphic"/><!--this contains the element that the filter is applied to --></feMerge></filter>
<g id="graph0" class="graph" transform="scale(1 1) rotate(0) translate(4 1228)">
<title>G</title>
<g id="clust1" class="cluster"><title>clusterDateType</title>
<polygon fill="#4abdac" stroke="black" points="227.328,-568 227.328,-673 830.328,-673 830.328,-568 227.328,-568" style="filter: url(#dropshadow)"/>
<text text-anchor="middle" x="528.828" y="-662.6" font-family="Times New Roman,serif" font-size="8.00">DateType</text>
</g>
<!-- DateTypeProperties -->
<g id="ReusableTypeDateTypeProperties" class="node"><title></title><polygon fill="#f7b733" stroke="black" points="235.328,-576.5 235.328,-647.5 471.328,-647.5 471.328,-576.5 235.328,-576.5" style="filter: url(#dropshadow)"/>
<text text-anchor="middle" x="261.828" y="-610.1" font-family="Times New Roman,serif" font-size="8.00">Properties</text>
<polyline fill="none" stroke="black" points="288.328,-576.5 288.328,-647.5 "/>
<text text-anchor="start" x="296.328" y="-637.1" font-family="Times New Roman,serif" font-size="8.00">SimpleDate : cogsDate[0...1] </text>
<text text-anchor="start" x="296.328" y="-628.1" font-family="Times New Roman,serif" font-size="8.00">HistoricalDate : HistoricalDateType[0...1] </text>
<text text-anchor="start" x="296.328" y="-619.1" font-family="Times New Roman,serif" font-size="8.00">StartDate : cogsDate[0...1] </text>
<text text-anchor="start" x="296.328" y="-610.1" font-family="Times New Roman,serif" font-size="8.00">HistoricalStartDate : HistoricalDateType[0...1] </text>
<text text-anchor="start" x="296.328" y="-601.1" font-family="Times New Roman,serif" font-size="8.00">EndDate : cogsDate[0...1] </text>
<text text-anchor="start" x="296.328" y="-592.1" font-family="Times New Roman,serif" font-size="8.00">HistoricalEndDate : HistoricalDateType[0...1] </text>
<text text-anchor="start" x="296.328" y="-583.1" font-family="Times New Roman,serif" font-size="8.00">Cycle : int[0...1] </text>
</g>
<!-- DateTypeHistoricalDateType -->
<g id="ReusableTypeDateTypeHistoricalDateType" class="node"><title></title><polygon fill="#fc4a1a" stroke="black" points="558.328,-594 558.328,-630 822.328,-630 822.328,-594 558.328,-594" style="filter: url(#dropshadow)"/>
<text text-anchor="middle" x="601.328" y="-610.1" font-family="Times New Roman,serif" font-size="8.00">HistoricalDateType</text>
<polyline fill="none" stroke="black" points="644.328,-594 644.328,-630 "/>
<text text-anchor="start" x="652.328" y="-619.1" font-family="Times New Roman,serif" font-size="8.00">NonISODate : string[0...1] </text>
<text text-anchor="start" x="652.328" y="-610.1" font-family="Times New Roman,serif" font-size="8.00">HistoricalDateFormat : CodeValueType[0...1] </text>
<text text-anchor="start" x="652.328" y="-601.1" font-family="Times New Roman,serif" font-size="8.00">Calendar : CodeValueType[0...1] </text>
</g>
<!-- DateTypeProperties&#45;&gt;DateTypeHistoricalDateType -->
<g id="edge1" class="edge"><title>DateTypeProperties&#45;&gt;DateTypeHistoricalDateType</title>
<path fill="none" stroke="black" d="M471.495,-612C499.514,-612 529.604,-612 558.208,-612"/>
<text text-anchor="middle" x="514.828" y="-614.6" font-family="Times New Roman,serif" font-size="8.00">HistoricalDate</text>
</g>
<!-- Relation -->
<g id="ItemTypeRelation" class="node"><title></title><ellipse fill="#f7b733" stroke="black" cx="64.664" cy="-1206" rx="27" ry="18" style="filter: url(#dropshadow)"/>
<text text-anchor="middle" x="64.664" y="-1204.1" font-family="Times New Roman,serif" font-size="8.00">Relation</text>
</g>
<!-- Relation&#45;&gt;DateTypeProperties -->
<g id="edge2" class="edge"><title>Relation&#45;&gt;DateTypeProperties</title>
<path fill="none" stroke="black" d="M91.4927,-1203.01C125.422,-1197.68 184.528,-1183.33 217.328,-1146 279.518,-1075.22 325.96,-796.968 344.046,-672.613"/>
<text text-anchor="middle" x="182.328" y="-1190.6" font-family="Times New Roman,serif" font-size="8.00">EffectivePeriod</text>
</g>
<!-- AdditionalInformationType -->
<g id="ReusableTypeAdditionalInformationType" class="node"><title></title><ellipse fill="#f7b733" stroke="black" cx="64.664" cy="-1152" rx="64.8284" ry="18" style="filter: url(#dropshadow)"/>
<text text-anchor="middle" x="64.664" y="-1150.1" font-family="Times New Roman,serif" font-size="8.00">AdditionalInformationType</text>
</g>
<!-- AdditionalInformationType&#45;&gt;DateTypeProperties -->
<g id="edge3" class="edge"><title>AdditionalInformationType&#45;&gt;DateTypeProperties</title>
<path fill="none" stroke="black" d="M119.96,-1142.65C152.462,-1134.34 192.208,-1118.98 217.328,-1091 324.803,-971.279 347.354,-772.291 351.661,-672.694"/>
<text text-anchor="middle" x="182.328" y="-1135.6" font-family="Times New Roman,serif" font-size="8.00">EffectivePeriod</text>
</g>
<!-- AddressType -->
<g id="ReusableTypeAddressType" class="node"><title></title><ellipse fill="#f7b733" stroke="black" cx="64.664" cy="-1098" rx="35.3371" ry="18" style="filter: url(#dropshadow)"/>
<text text-anchor="middle" x="64.664" y="-1096.1" font-family="Times New Roman,serif" font-size="8.00">AddressType</text>
</g>
<!-- AddressType&#45;&gt;DateTypeProperties -->
<g id="edge4" class="edge"><title>AddressType&#45;&gt;DateTypeProperties</title>
<path fill="none" stroke="black" d="M98.4055,-1092.71C132.674,-1085.51 185.791,-1069.33 217.328,-1035 311.85,-932.105 340.199,-762.872 348.696,-672.815"/>
<text text-anchor="middle" x="182.328" y="-1080.6" font-family="Times New Roman,serif" font-size="8.00">EffectivePeriod</text>
</g>
<!-- CitationType -->
<g id="ReusableTypeCitationType" class="node"><title></title><ellipse fill="#f7b733" stroke="black" cx="64.664" cy="-1044" rx="36.1063" ry="18" style="filter: url(#dropshadow)"/>
<text text-anchor="middle" x="64.664" y="-1042.1" font-family="Times New Roman,serif" font-size="8.00">CitationType</text>
</g>
<!-- CitationType&#45;&gt;DateTypeProperties -->
<g id="edge5" class="edge"><title>CitationType&#45;&gt;DateTypeProperties</title>
<path fill="none" stroke="black" d="M99.0901,-1037.78C133.169,-1029.78 185.43,-1012.71 217.328,-979 299.111,-892.578 332.189,-752.474 344.918,-672.698"/>
<text text-anchor="middle" x="182.328" y="-1024.6" font-family="Times New Roman,serif" font-size="8.00">PublicationDate</text>
</g>
<!-- CollectionEventType -->
<g id="ReusableTypeCollectionEventType" class="node"><title></title><ellipse fill="#f7b733" stroke="black" cx="64.664" cy="-990" rx="52.3706" ry="18" style="filter: url(#dropshadow)"/>
<text text-anchor="middle" x="64.664" y="-988.1" font-family="Times New Roman,serif" font-size="8.00">CollectionEventType</text>
</g>
<!-- CollectionEventType&#45;&gt;DateTypeProperties -->
<g id="edge6" class="edge"><title>CollectionEventType&#45;&gt;DateTypeProperties</title>
<path fill="none" stroke="black" d="M108.63,-980.033C142.103,-970.284 187.715,-952.371 217.328,-922 285.823,-851.75 322.425,-741.086 339.582,-672.726"/>
<text text-anchor="middle" x="182.328" y="-968.6" font-family="Times New Roman,serif" font-size="8.00">DataCollectionDate</text>
</g>
<!-- ComponentPartsType -->
<g id="ReusableTypeComponentPartsType" class="node"><title></title><ellipse fill="#f7b733" stroke="black" cx="64.664" cy="-936" rx="53.7736" ry="18" style="filter: url(#dropshadow)"/>
<text text-anchor="middle" x="64.664" y="-934.1" font-family="Times New Roman,serif" font-size="8.00">ComponentPartsType</text>
</g>
<!-- ComponentPartsType&#45;&gt;DateTypeProperties -->
<g id="edge7" class="edge"><title>ComponentPartsType&#45;&gt;DateTypeProperties</title>
<path fill="none" stroke="black" d="M106.754,-924.72C140.035,-913.815 186.327,-894.414 217.328,-864 272.589,-809.785 310.627,-728.086 331.914,-672.519"/>
<text text-anchor="middle" x="182.328" y="-911.6" font-family="Times New Roman,serif" font-size="8.00">GeographicTime</text>
</g>
<!-- DefiningCharacteristicType -->
<g id="ReusableTypeDefiningCharacteristicType" class="node"><title></title><ellipse fill="#f7b733" stroke="black" cx="64.664" cy="-882" rx="64.1937" ry="18" style="filter: url(#dropshadow)"/>
<text text-anchor="middle" x="64.664" y="-880.1" font-family="Times New Roman,serif" font-size="8.00">DefiningCharacteristicType</text>
</g>
<!-- DefiningCharacteristicType&#45;&gt;DateTypeProperties -->
<g id="edge8" class="edge"><title>DefiningCharacteristicType&#45;&gt;DateTypeProperties</title>
<path fill="none" stroke="black" d="M106.281,-868.287C139.062,-855.704 184.902,-834.522 217.328,-805 259.145,-766.928 295.181,-713.662 319.477,-672.732"/>
<text text-anchor="middle" x="182.328" y="-853.6" font-family="Times New Roman,serif" font-size="8.00">GeographicTime</text>
</g>
<!-- EmailType -->
<g id="ReusableTypeEmailType0" class="node"><title></title><ellipse fill="#f7b733" stroke="black" cx="64.664" cy="-828" rx="31.5313" ry="18" style="filter: url(#dropshadow)"/>
<text text-anchor="middle" x="64.664" y="-826.1" font-family="Times New Roman,serif" font-size="8.00">EmailType</text>
</g>
<!-- EmailType&#45;&gt;DateTypeProperties -->
<g id="edge9" class="edge"><title>EmailType&#45;&gt;DateTypeProperties</title>
<path fill="none" stroke="black" d="M91.0398,-817.968C102.817,-813.127 116.924,-807.062 129.328,-801 169.547,-781.344 181.849,-779.298 217.328,-752 247.476,-728.803 277.235,-698.909 301.108,-672.706"/>
<text text-anchor="middle" x="182.328" y="-794.6" font-family="Times New Roman,serif" font-size="8.00">EffectivePeriod</text>
</g>
<!-- EmbargoType -->
<g id="ReusableTypeEmbargoType1" class="node"><title></title><ellipse fill="#f7b733" stroke="black" cx="64.664" cy="-774" rx="37.3742" ry="18" style="filter: url(#dropshadow)"/>
<text text-anchor="middle" x="64.664" y="-772.1" font-family="Times New Roman,serif" font-size="8.00">EmbargoType</text>
</g>
<!-- EmbargoType&#45;&gt;DateTypeProperties -->
<g id="edge10" class="edge"><title>EmbargoType&#45;&gt;DateTypeProperties</title>
<path fill="none" stroke="black" d="M93.7457,-762.6C104.901,-757.939 117.797,-752.385 129.328,-747 169.13,-728.412 179.434,-724.22 217.328,-702 232.784,-692.937 248.895,-682.821 264.379,-672.735"/>
<text text-anchor="middle" x="182.328" y="-741.6" font-family="Times New Roman,serif" font-size="8.00">Date</text>
</g>
<!-- GeographicBoundaryType -->
<g id="ReusableTypeGeographicBoundaryType2" class="node"><title></title><ellipse fill="#f7b733" stroke="black" cx="64.664" cy="-720" rx="60.8874" ry="18" style="filter: url(#dropshadow)"/>
<text text-anchor="middle" x="64.664" y="-718.1" font-family="Times New Roman,serif" font-size="8.00">GeographicBoundaryType</text>
</g>
<!-- GeographicBoundaryType&#45;&gt;DateTypeProperties -->
<g id="edge11" class="edge"><title>GeographicBoundaryType&#45;&gt;DateTypeProperties</title>
<path fill="none" stroke="black" d="M103.739,-706.108C134.446,-694.865 178.723,-678.562 217.328,-664 220.714,-662.723 224.147,-661.424 227.611,-660.112"/>
<text text-anchor="middle" x="182.328" y="-691.6" font-family="Times New Roman,serif" font-size="8.00">GeographicTime</text>
</g>
<!-- IndividualLanguageType -->
<g id="ReusableTypeIndividualLanguageType3" class="node"><title></title><ellipse fill="#f7b733" stroke="black" cx="64.664" cy="-666" rx="57.0809" ry="18" style="filter: url(#dropshadow)"/>
<text text-anchor="middle" x="64.664" y="-664.1" font-family="Times New Roman,serif" font-size="8.00">IndividualLanguageType</text>
</g>
<!-- IndividualLanguageType&#45;&gt;DateTypeProperties -->
<g id="edge12" class="edge"><title>IndividualLanguageType&#45;&gt;DateTypeProperties</title>
<path fill="none" stroke="black" d="M114.293,-656.84C145.496,-650.962 187.539,-643.042 227.608,-635.494"/>
<text text-anchor="middle" x="182.328" y="-653.6" font-family="Times New Roman,serif" font-size="8.00">EffectivePeriod</text>
</g>
<!-- IndividualNameType -->
<g id="ReusableTypeIndividualNameType4" class="node"><title></title><ellipse fill="#f7b733" stroke="black" cx="64.664" cy="-612" rx="50.4666" ry="18" style="filter: url(#dropshadow)"/>
<text text-anchor="middle" x="64.664" y="-610.1" font-family="Times New Roman,serif" font-size="8.00">IndividualNameType</text>
</g>
<!-- IndividualNameType&#45;&gt;DateTypeProperties -->
<g id="edge13" class="edge"><title>IndividualNameType&#45;&gt;DateTypeProperties</title>
<path fill="none" stroke="black" d="M115.27,-612C146.422,-612 188.093,-612 227.804,-612"/>
<text text-anchor="middle" x="182.328" y="-614.6" font-family="Times New Roman,serif" font-size="8.00">EffectivePeriod</text>
</g>
<!-- InstantMessagingType -->
<g id="ReusableTypeInstantMessagingType5" class="node"><title></title><ellipse fill="#f7b733" stroke="black" cx="64.664" cy="-558" rx="53.7736" ry="18" style="filter: url(#dropshadow)"/>
<text text-anchor="middle" x="64.664" y="-556.1" font-family="Times New Roman,serif" font-size="8.00">InstantMessagingType</text>
</g>
<!-- InstantMessagingType&#45;&gt;DateTypeProperties -->
<g id="edge14" class="edge"><title>InstantMessagingType&#45;&gt;DateTypeProperties</title>
<path fill="none" stroke="black" d="M112.04,-566.736C143.442,-572.651 186.531,-580.768 227.558,-588.497"/>
<text text-anchor="middle" x="182.328" y="-587.6" font-family="Times New Roman,serif" font-size="8.00">EffectivePeriod</text>
</g>
<!-- LifecycleEventType -->
<g id="ReusableTypeLifecycleEventType6" class="node"><title></title><ellipse fill="#f7b733" stroke="black" cx="64.664" cy="-504" rx="50.4666" ry="18" style="filter: url(#dropshadow)"/>
<text text-anchor="middle" x="64.664" y="-502.1" font-family="Times New Roman,serif" font-size="8.00">LifecycleEventType</text>
</g>
<!-- LifecycleEventType&#45;&gt;DateTypeProperties -->
<g id="edge15" class="edge"><title>LifecycleEventType&#45;&gt;DateTypeProperties</title>
<path fill="none" stroke="black" d="M100.004,-516.887C130.748,-528.429 177.055,-545.825 217.328,-561 223.537,-563.34 229.907,-565.741 236.337,-568.166"/>
<text text-anchor="middle" x="182.328" y="-563.6" font-family="Times New Roman,serif" font-size="8.00">Date</text>
</g>
<!-- LocationNameType -->
<g id="ReusableTypeLocationNameType7" class="node"><title></title><ellipse fill="#f7b733" stroke="black" cx="64.664" cy="-450" rx="49.1982" ry="18" style="filter: url(#dropshadow)"/>
<text text-anchor="middle" x="64.664" y="-448.1" font-family="Times New Roman,serif" font-size="8.00">LocationNameType</text>
</g>
<!-- LocationNameType&#45;&gt;DateTypeProperties -->
<g id="edge16" class="edge"><title>LocationNameType&#45;&gt;DateTypeProperties</title>
<path fill="none" stroke="black" d="M98.2755,-463.236C108.31,-467.467 119.341,-472.282 129.328,-477 169.231,-495.853 179.301,-500.604 217.328,-523 241.105,-537.004 266.526,-553.375 288.824,-568.231"/>
<text text-anchor="middle" x="182.328" y="-525.6" font-family="Times New Roman,serif" font-size="8.00">EffectivePeriod</text>
</g>
<!-- LocationValueType -->
<g id="ReusableTypeLocationValueType8" class="node"><title></title><ellipse fill="#f7b733" stroke="black" cx="64.664" cy="-396" rx="48.5642" ry="18" style="filter: url(#dropshadow)"/>
<text text-anchor="middle" x="64.664" y="-394.1" font-family="Times New Roman,serif" font-size="8.00">LocationValueType</text>
</g>
<!-- LocationValueType&#45;&gt;DateTypeProperties -->
<g id="edge17" class="edge"><title>LocationValueType&#45;&gt;DateTypeProperties</title>
<path fill="none" stroke="black" d="M98.3791,-409.021C108.418,-413.244 119.426,-418.107 129.328,-423 169.657,-442.926 181.746,-445.479 217.328,-473 253.934,-501.313 290.181,-539.335 315.885,-568.456"/>
<text text-anchor="middle" x="182.328" y="-475.6" font-family="Times New Roman,serif" font-size="8.00">GeographicTime</text>
</g>
<!-- OrganizationNameType -->
<g id="ReusableTypeOrganizationNameType9" class="node"><title></title><ellipse fill="#f7b733" stroke="black" cx="64.664" cy="-342" rx="57.0809" ry="18" style="filter: url(#dropshadow)"/>
<text text-anchor="middle" x="64.664" y="-340.1" font-family="Times New Roman,serif" font-size="8.00">OrganizationNameType</text>
</g>
<!-- OrganizationNameType&#45;&gt;DateTypeProperties -->
<g id="edge18" class="edge"><title>OrganizationNameType&#45;&gt;DateTypeProperties</title>
<path fill="none" stroke="black" d="M103.987,-355.108C136.897,-367.802 184.142,-389.6 217.328,-420 264.793,-463.48 305.084,-526.408 328.981,-568.226"/>
<text text-anchor="middle" x="182.328" y="-422.6" font-family="Times New Roman,serif" font-size="8.00">EffectivePeriod</text>
</g>
<!-- PrivateImageType -->
<g id="ReusableTypePrivateImageType0" class="node"><title></title><ellipse fill="#f7b733" stroke="black" cx="64.664" cy="-288" rx="46.5254" ry="18" style="filter: url(#dropshadow)"/>
<text text-anchor="middle" x="64.664" y="-286.1" font-family="Times New Roman,serif" font-size="8.00">PrivateImageType</text>
</g>
<!-- PrivateImageType&#45;&gt;DateTypeProperties -->
<g id="edge19" class="edge"><title>PrivateImageType&#45;&gt;DateTypeProperties</title>
<path fill="none" stroke="black" d="M102.829,-298.506C136.334,-309.593 185.144,-329.963 217.328,-362 277.391,-421.788 317.64,-513.928 337.617,-568.067"/>
<text text-anchor="middle" x="182.328" y="-364.6" font-family="Times New Roman,serif" font-size="8.00">EffectivePeriod</text>
</g>
<!-- ResearcherIDType -->
<g id="ReusableTypeResearcherIDType1" class="node"><title></title><ellipse fill="#f7b733" stroke="black" cx="64.664" cy="-234" rx="46.5254" ry="18" style="filter: url(#dropshadow)"/>
<text text-anchor="middle" x="64.664" y="-232.1" font-family="Times New Roman,serif" font-size="8.00">ResearcherIDType</text>
</g>
<!-- ResearcherIDType&#45;&gt;DateTypeProperties -->
<g id="edge20" class="edge"><title>ResearcherIDType&#45;&gt;DateTypeProperties</title>
<path fill="none" stroke="black" d="M104.644,-243.328C138.437,-253.233 186.61,-271.983 217.328,-304 290.736,-380.514 327.933,-503.482 343.352,-568.482"/>
<text text-anchor="middle" x="182.328" y="-306.6" font-family="Times New Roman,serif" font-size="8.00">EffectivePeriod</text>
</g>
<!-- RoleType -->
<g id="ReusableTypeRoleType2" class="node"><title></title><ellipse fill="#f7b733" stroke="black" cx="64.664" cy="-180" rx="28.8574" ry="18" style="filter: url(#dropshadow)"/>
<text text-anchor="middle" x="64.664" y="-178.1" font-family="Times New Roman,serif" font-size="8.00">RoleType</text>
</g>
<!-- RoleType&#45;&gt;DateTypeProperties -->
<g id="edge21" class="edge"><title>RoleType&#45;&gt;DateTypeProperties</title>
<path fill="none" stroke="black" d="M92.4584,-185.063C126.074,-192.758 183.412,-210.536 217.328,-247 303.838,-340.009 336.093,-493.264 347.125,-568.114"/>
<text text-anchor="middle" x="182.328" y="-249.6" font-family="Times New Roman,serif" font-size="8.00">EffectivePeriod</text>
</g>
<!-- SoftwareType -->
<g id="ReusableTypeSoftwareType3" class="node"><title></title><ellipse fill="#f7b733" stroke="black" cx="64.664" cy="-126" rx="36.7401" ry="18" style="filter: url(#dropshadow)"/>
<text text-anchor="middle" x="64.664" y="-124.1" font-family="Times New Roman,serif" font-size="8.00">SoftwareType</text>
</g>
<!-- SoftwareType&#45;&gt;DateTypeProperties -->
<g id="edge22" class="edge"><title>SoftwareType&#45;&gt;DateTypeProperties</title>
<path fill="none" stroke="black" d="M99.6988,-132.024C134.019,-139.833 186.244,-156.733 217.328,-191 316.92,-300.789 343.078,-484.513 349.92,-568.147"/>
<text text-anchor="middle" x="182.328" y="-193.6" font-family="Times New Roman,serif" font-size="8.00">Date</text>
</g>
<!-- TelephoneType -->
<g id="ReusableTypeTelephoneType4" class="node"><title></title><ellipse fill="#f7b733" stroke="black" cx="64.664" cy="-72" rx="41.3155" ry="18" style="filter: url(#dropshadow)"/>
<text text-anchor="middle" x="64.664" y="-70.1" font-family="Times New Roman,serif" font-size="8.00">TelephoneType</text>
</g>
<!-- TelephoneType&#45;&gt;DateTypeProperties -->
<g id="edge23" class="edge"><title>TelephoneType&#45;&gt;DateTypeProperties</title>
<path fill="none" stroke="black" d="M103.818,-78.1812C138.248,-85.7331 187.879,-101.857 217.328,-135 330.114,-261.934 349.239,-476.533 352.079,-568.279"/>
<text text-anchor="middle" x="182.328" y="-137.6" font-family="Times New Roman,serif" font-size="8.00">EffectivePeriod</text>
</g>
<!-- VersionDistinctionType -->
<g id="ReusableTypeVersionDistinctionType5" class="node"><title></title><ellipse fill="#f7b733" stroke="black" cx="64.664" cy="-18" rx="57.0809" ry="18" style="filter: url(#dropshadow)"/>
<text text-anchor="middle" x="64.664" y="-16.1" font-family="Times New Roman,serif" font-size="8.00">VersionDistinctionType</text>
</g>
<!-- VersionDistinctionType&#45;&gt;DateTypeProperties -->
<g id="edge24" class="edge"><title>VersionDistinctionType&#45;&gt;DateTypeProperties</title>
<path fill="none" stroke="black" d="M115.489,-26.3151C148.903,-34.4459 191.387,-50.16 217.328,-80 281.891,-154.265 330.151,-454.995 346.388,-568.42"/>
<text text-anchor="middle" x="182.328" y="-82.6" font-family="Times New Roman,serif" font-size="8.00">EffectivePeriod</text>
</g>
</g>
</svg>
