<?xml version="1.0" encoding="UTF-8" standalone="no"?>
<!DOCTYPE svg PUBLIC "-//W3C//DTD SVG 1.1//EN"
 "http://www.w3.org/Graphics/SVG/1.1/DTD/svg11.dtd">
<!-- Generated by graphviz version 2.38.0 (20140413.2041)
 -->
<!-- Title: G Pages: 1 -->
<svg width="1083pt" height="468pt"
 viewBox="0.00 0.00 1083.22 468.00" xmlns="http://www.w3.org/2000/svg" xmlns:xlink="http://www.w3.org/1999/xlink">
<filter id = "dropshadow" height = "130%" ><feGaussianBlur in= "SourceAlpha" stdDeviation = "3"/><!--stdDeviation is how much to blur--><feOffset dx = "2" dy = "2" result = "offsetblur"/><!--how much to offset--><feMerge><feMergeNode/><!--this contains the offset blurred image--><feMergeNode in= "SourceGraphic"/><!--this contains the element that the filter is applied to --></feMerge></filter>
<g id="graph0" class="graph" transform="scale(1 1) rotate(0) translate(4 464)">
<title>G</title>
<g id="clust1" class="cluster"><title>clusterDDIProfile</title>
<polygon fill="#4abdac" stroke="black" points="188.219,-8 188.219,-452 1067.22,-452 1067.22,-8 188.219,-8" style="filter: url(#dropshadow)"/>
<text text-anchor="middle" x="627.719" y="-441.6" font-family="Times New Roman,serif" font-size="8.00">DDIProfile</text>
</g>
<!-- DDIProfileProperties -->
<g id="ItemTypeDDIProfileProperties" class="node"><title></title><polygon fill="#f7b733" stroke="black" points="196.219,-176.5 196.219,-283.5 428.219,-283.5 428.219,-176.5 196.219,-176.5" style="filter: url(#dropshadow)"/>
<text text-anchor="middle" x="222.719" y="-228.1" font-family="Times New Roman,serif" font-size="8.00">Properties</text>
<polyline fill="none" stroke="black" points="249.219,-176.5 249.219,-283.5 "/>
<text text-anchor="start" x="257.219" y="-273.1" font-family="Times New Roman,serif" font-size="8.00">DDIProfileName : NameType[0...n] </text>
<text text-anchor="start" x="257.219" y="-264.1" font-family="Times New Roman,serif" font-size="8.00">Label : LabelType[0...n] </text>
<text text-anchor="start" x="257.219" y="-255.1" font-family="Times New Roman,serif" font-size="8.00">Description : StructuredStringType[0...1] </text>
<text text-anchor="start" x="257.219" y="-246.1" font-family="Times New Roman,serif" font-size="8.00">ApplicationOfProfile : CodeValueType[0...n] </text>
<text text-anchor="start" x="257.219" y="-237.1" font-family="Times New Roman,serif" font-size="8.00">Purpose : StructuredStringType[0...1] </text>
<text text-anchor="start" x="257.219" y="-228.1" font-family="Times New Roman,serif" font-size="8.00">XPathVersion : decimal[0...1] </text>
<text text-anchor="start" x="257.219" y="-219.1" font-family="Times New Roman,serif" font-size="8.00">DDINamespace : decimal[0...1] </text>
<text text-anchor="start" x="257.219" y="-210.1" font-family="Times New Roman,serif" font-size="8.00">XMLPrefixMap : XMLPrefixMapType[0...n] </text>
<text text-anchor="start" x="257.219" y="-201.1" font-family="Times New Roman,serif" font-size="8.00">Instructions : StructuredStringType[0...1] </text>
<text text-anchor="start" x="257.219" y="-192.1" font-family="Times New Roman,serif" font-size="8.00">Used : UsedType[0...1] </text>
<text text-anchor="start" x="257.219" y="-183.1" font-family="Times New Roman,serif" font-size="8.00">NotUsed : NotUsedType[0...1] </text>
</g>
<!-- DDIProfileNameType -->
<g id="ReusableTypeDDIProfileNameType" class="node"><title></title><polygon fill="#fc4a1a" stroke="black" points="558.219,-17 558.219,-53 727.219,-53 727.219,-17 558.219,-17" style="filter: url(#dropshadow)"/>
<text text-anchor="middle" x="586.219" y="-33.1" font-family="Times New Roman,serif" font-size="8.00">NameType</text>
<polyline fill="none" stroke="black" points="614.219,-17 614.219,-53 "/>
<text text-anchor="start" x="622.219" y="-37.6" font-family="Times New Roman,serif" font-size="8.00">IsPreferred : boolean[0...1] </text>
<text text-anchor="start" x="622.219" y="-28.6" font-family="Times New Roman,serif" font-size="8.00">Context : string[0...1] </text>
</g>
<!-- DDIProfileProperties&#45;&gt;DDIProfileNameType -->
<g id="edge1" class="edge"><title>DDIProfileProperties&#45;&gt;DDIProfileNameType</title>
<path fill="none" stroke="black" d="M364.88,-176.311C404.725,-138.327 463.19,-89.5954 524.219,-63 534.888,-58.3504 546.454,-54.4008 558.026,-51.0662"/>
<text text-anchor="middle" x="476.219" y="-110.6" font-family="Times New Roman,serif" font-size="8.00">DDIProfileName</text>
</g>
<!-- DDIProfileLabelType -->
<g id="ReusableTypeDDIProfileLabelType" class="node"><title></title><polygon fill="#fc4a1a" stroke="black" points="541.219,-72.5 541.219,-125.5 744.219,-125.5 744.219,-72.5 541.219,-72.5" style="filter: url(#dropshadow)"/>
<text text-anchor="middle" x="568.219" y="-97.1" font-family="Times New Roman,serif" font-size="8.00">LabelType</text>
<polyline fill="none" stroke="black" points="595.219,-72.5 595.219,-125.5 "/>
<text text-anchor="start" x="603.219" y="-115.1" font-family="Times New Roman,serif" font-size="8.00">TypeOfLabel : CodeValueType[0...1] </text>
<text text-anchor="start" x="603.219" y="-106.1" font-family="Times New Roman,serif" font-size="8.00">LocationVariant : string[0...1] </text>
<text text-anchor="start" x="603.219" y="-97.1" font-family="Times New Roman,serif" font-size="8.00">ValidForStartDate : cogsDate[0...1] </text>
<text text-anchor="start" x="603.219" y="-88.1" font-family="Times New Roman,serif" font-size="8.00">ValidForEndDate : cogsDate[0...1] </text>
<text text-anchor="start" x="603.219" y="-79.1" font-family="Times New Roman,serif" font-size="8.00">MaxLength : int[0...1] </text>
</g>
<!-- DDIProfileProperties&#45;&gt;DDIProfileLabelType -->
<g id="edge2" class="edge"><title>DDIProfileProperties&#45;&gt;DDIProfileLabelType</title>
<path fill="none" stroke="black" d="M391.258,-176.42C408.806,-165.941 427.722,-155.799 446.219,-148 476.123,-135.391 510.021,-125.486 541.092,-117.982"/>
<text text-anchor="middle" x="476.219" y="-150.6" font-family="Times New Roman,serif" font-size="8.00">Label</text>
</g>
<!-- DDIProfileStructuredStringType -->
<g id="ReusableTypeDDIProfileStructuredStringType" class="node"><title></title><polygon fill="#fc4a1a" stroke="black" points="845.219,-244 845.219,-280 1058.22,-280 1058.22,-244 845.219,-244" style="filter: url(#dropshadow)"/>
<text text-anchor="middle" x="890.219" y="-260.1" font-family="Times New Roman,serif" font-size="8.00">StructuredStringType</text>
<polyline fill="none" stroke="black" points="935.219,-244 935.219,-280 "/>
<text text-anchor="start" x="943.219" y="-260.1" font-family="Times New Roman,serif" font-size="8.00">Content : ContentType[0...n] </text>
</g>
<!-- DDIProfileProperties&#45;&gt;DDIProfileStructuredStringType -->
<g id="edge3" class="edge"><title>DDIProfileProperties&#45;&gt;DDIProfileStructuredStringType</title>
<path fill="none" stroke="black" d="M398.327,-283.591C435.491,-303.961 480.504,-324.724 524.219,-335 626.757,-359.103 657.661,-354.257 761.219,-335 817.371,-324.558 878.341,-298.099 915.545,-280.076"/>
<text text-anchor="middle" x="642.719" y="-353.6" font-family="Times New Roman,serif" font-size="8.00">Description</text>
</g>
<!-- DDIProfileCodeValueType -->
<g id="ReusableTypeDDIProfileCodeValueType" class="node"><title></title><polygon fill="#fc4a1a" stroke="black" points="844.219,-95.5 844.219,-166.5 1059.22,-166.5 1059.22,-95.5 844.219,-95.5" style="filter: url(#dropshadow)"/>
<text text-anchor="middle" x="879.719" y="-129.1" font-family="Times New Roman,serif" font-size="8.00">CodeValueType</text>
<polyline fill="none" stroke="black" points="915.219,-95.5 915.219,-166.5 "/>
<text text-anchor="start" x="923.219" y="-156.1" font-family="Times New Roman,serif" font-size="8.00">CodeListID : string[0...1] </text>
<text text-anchor="start" x="923.219" y="-147.1" font-family="Times New Roman,serif" font-size="8.00">CodeListName_string : string[0...1] </text>
<text text-anchor="start" x="923.219" y="-138.1" font-family="Times New Roman,serif" font-size="8.00">CodeListAgencyName : string[0...1] </text>
<text text-anchor="start" x="923.219" y="-129.1" font-family="Times New Roman,serif" font-size="8.00">CodeListVersionID : string[0...1] </text>
<text text-anchor="start" x="923.219" y="-120.1" font-family="Times New Roman,serif" font-size="8.00">OtherValue : string[0...1] </text>
<text text-anchor="start" x="923.219" y="-111.1" font-family="Times New Roman,serif" font-size="8.00">CodeListURN : string[0...1] </text>
<text text-anchor="start" x="923.219" y="-102.1" font-family="Times New Roman,serif" font-size="8.00">CodeListSchemeURN : string[0...1] </text>
</g>
<!-- DDIProfileProperties&#45;&gt;DDIProfileCodeValueType -->
<g id="edge4" class="edge"><title>DDIProfileProperties&#45;&gt;DDIProfileCodeValueType</title>
<path fill="none" stroke="black" d="M428.428,-193.766C459.284,-185.169 492.802,-176.817 524.219,-171 632.081,-151.028 757.236,-140.792 843.949,-135.702"/>
<text text-anchor="middle" x="642.719" y="-173.6" font-family="Times New Roman,serif" font-size="8.00">ApplicationOfProfile</text>
</g>
<!-- DDIProfileXMLPrefixMapType -->
<g id="ReusableTypeDDIProfileXMLPrefixMapType" class="node"><title></title><polygon fill="#fc4a1a" stroke="black" points="534.219,-289 534.219,-325 751.219,-325 751.219,-289 534.219,-289" style="filter: url(#dropshadow)"/>
<text text-anchor="middle" x="580.219" y="-305.1" font-family="Times New Roman,serif" font-size="8.00">XMLPrefixMapType</text>
<polyline fill="none" stroke="black" points="626.219,-289 626.219,-325 "/>
<text text-anchor="start" x="634.219" y="-309.6" font-family="Times New Roman,serif" font-size="8.00">XMLPrefix : string[0...1] </text>
<text text-anchor="start" x="634.219" y="-300.6" font-family="Times New Roman,serif" font-size="8.00">XMLNamespace : string[0...1] </text>
</g>
<!-- DDIProfileProperties&#45;&gt;DDIProfileXMLPrefixMapType -->
<g id="edge5" class="edge"><title>DDIProfileProperties&#45;&gt;DDIProfileXMLPrefixMapType</title>
<path fill="none" stroke="black" d="M428.444,-257.454C459.525,-264.819 493.148,-272.749 524.219,-280 536.754,-282.926 550.048,-286.004 563.013,-288.992"/>
<text text-anchor="middle" x="476.219" y="-276.6" font-family="Times New Roman,serif" font-size="8.00">XMLPrefixMap</text>
</g>
<!-- DDIProfileUsedType -->
<g id="ReusableTypeDDIProfileUsedType" class="node"><title></title><polygon fill="#fc4a1a" stroke="black" points="524.219,-190 524.219,-270 761.219,-270 761.219,-190 524.219,-190" style="filter: url(#dropshadow)"/>
<text text-anchor="middle" x="550.219" y="-228.1" font-family="Times New Roman,serif" font-size="8.00">UsedType</text>
<polyline fill="none" stroke="black" points="576.219,-190 576.219,-270 "/>
<text text-anchor="start" x="584.219" y="-259.6" font-family="Times New Roman,serif" font-size="8.00">AlternateName : InternationalStringType[0...1] </text>
<text text-anchor="start" x="584.219" y="-250.6" font-family="Times New Roman,serif" font-size="8.00">Description : StructuredStringType[0...1] </text>
<text text-anchor="start" x="584.219" y="-241.6" font-family="Times New Roman,serif" font-size="8.00">Instructions : StructuredStringType[0...1] </text>
<text text-anchor="start" x="584.219" y="-232.6" font-family="Times New Roman,serif" font-size="8.00">IsRequired : boolean[0...1] </text>
<text text-anchor="start" x="584.219" y="-223.6" font-family="Times New Roman,serif" font-size="8.00">Xpath : string[1...1] </text>
<text text-anchor="start" x="584.219" y="-214.6" font-family="Times New Roman,serif" font-size="8.00">DefaultValue_string : string[0...1] </text>
<text text-anchor="start" x="584.219" y="-205.6" font-family="Times New Roman,serif" font-size="8.00">LimitMaxOccurs : string[0...1] </text>
<text text-anchor="start" x="584.219" y="-196.6" font-family="Times New Roman,serif" font-size="8.00">FixedValue : boolean[0...1] </text>
</g>
<!-- DDIProfileProperties&#45;&gt;DDIProfileUsedType -->
<g id="edge6" class="edge"><title>DDIProfileProperties&#45;&gt;DDIProfileUsedType</title>
<path fill="none" stroke="black" d="M428.574,-230C459.539,-230 493.057,-230 524.141,-230"/>
<text text-anchor="middle" x="476.219" y="-232.6" font-family="Times New Roman,serif" font-size="8.00">Used</text>
</g>
<!-- DDIProfileNotUsedType -->
<g id="ReusableTypeDDIProfileNotUsedType" class="node"><title></title><polygon fill="#fc4a1a" stroke="black" points="565.719,-390 565.719,-426 719.719,-426 719.719,-390 565.719,-390" style="filter: url(#dropshadow)"/>
<text text-anchor="middle" x="598.219" y="-406.1" font-family="Times New Roman,serif" font-size="8.00">NotUsedType</text>
<polyline fill="none" stroke="black" points="630.719,-390 630.719,-426 "/>
<text text-anchor="start" x="638.719" y="-406.1" font-family="Times New Roman,serif" font-size="8.00">Xpath : string[1...1] </text>
</g>
<!-- DDIProfileProperties&#45;&gt;DDIProfileNotUsedType -->
<g id="edge7" class="edge"><title>DDIProfileProperties&#45;&gt;DDIProfileNotUsedType</title>
<path fill="none" stroke="black" d="M352.407,-283.83C376.322,-312.813 409.343,-346.688 446.219,-367 482.67,-387.078 527.905,-397.342 565.679,-402.58"/>
<text text-anchor="middle" x="476.219" y="-391.6" font-family="Times New Roman,serif" font-size="8.00">NotUsed</text>
</g>
<!-- DDIProfileLabelType&#45;&gt;DDIProfileCodeValueType -->
<g id="edge8" class="edge"><title>DDIProfileLabelType&#45;&gt;DDIProfileCodeValueType</title>
<path fill="none" stroke="black" d="M744.242,-109.478C776.243,-112.814 811.746,-116.514 844.159,-119.893"/>
<text text-anchor="middle" x="802.719" y="-120.6" font-family="Times New Roman,serif" font-size="8.00">TypeOfLabel</text>
</g>
<!-- DDIProfileUsedType&#45;&gt;DDIProfileStructuredStringType -->
<g id="edge9" class="edge"><title>DDIProfileUsedType&#45;&gt;DDIProfileStructuredStringType</title>
<path fill="none" stroke="black" d="M761.305,-226.523C782.953,-227.051 805.312,-228.378 826.219,-231 847.436,-233.661 870.248,-238.685 890.475,-243.927"/>
<text text-anchor="middle" x="802.719" y="-233.6" font-family="Times New Roman,serif" font-size="8.00">Description</text>
</g>
<!-- DDIProfileUsedType&#45;&gt;DDIProfileStructuredStringType -->
<g id="edge10" class="edge"><title>DDIProfileUsedType&#45;&gt;DDIProfileStructuredStringType</title>
<path fill="none" stroke="black" d="M761.535,-242.281C788.928,-245.136 817.926,-248.158 844.771,-250.957"/>
<text text-anchor="middle" x="802.719" y="-250.6" font-family="Times New Roman,serif" font-size="8.00">Instructions</text>
</g>
<!-- DDIInstance -->
<g id="ItemTypeDDIInstance" class="node"><title></title><ellipse fill="#f7b733" stroke="black" cx="43.1093" cy="-338" rx="34.7021" ry="18" style="filter: url(#dropshadow)"/>
<text text-anchor="middle" x="43.1093" y="-336.1" font-family="Times New Roman,serif" font-size="8.00">DDIInstance</text>
</g>
<!-- DDIInstance&#45;&gt;DDIProfileProperties -->
<g id="edge11" class="edge"><title>DDIInstance&#45;&gt;DDIProfileProperties</title>
<path fill="none" stroke="black" d="M71.1912,-327.05C99.0876,-315.771 144.571,-297.38 188.484,-279.625"/>
<text text-anchor="middle" x="141.219" y="-313.6" font-family="Times New Roman,serif" font-size="8.00">DDIProfileReference</text>
</g>
<!-- Group -->
<g id="ItemTypeGroup0" class="node"><title></title><ellipse fill="#f7b733" stroke="black" cx="43.1093" cy="-284" rx="27" ry="18" style="filter: url(#dropshadow)"/>
<text text-anchor="middle" x="43.1093" y="-282.1" font-family="Times New Roman,serif" font-size="8.00">Group</text>
</g>
<!-- Group&#45;&gt;DDIProfileProperties -->
<g id="edge12" class="edge"><title>Group&#45;&gt;DDIProfileProperties</title>
<path fill="none" stroke="black" d="M69.2383,-278.92C96.9224,-273.323 143.5,-263.907 188.439,-254.822"/>
<text text-anchor="middle" x="141.219" y="-272.6" font-family="Times New Roman,serif" font-size="8.00">DDIProfileReference</text>
</g>
<!-- ResourcePackage -->
<g id="ItemTypeResourcePackage1" class="node"><title></title><ellipse fill="#f7b733" stroke="black" cx="43.1093" cy="-230" rx="43.219" ry="18" style="filter: url(#dropshadow)"/>
<text text-anchor="middle" x="43.1093" y="-228.1" font-family="Times New Roman,serif" font-size="8.00">ResourcePackage</text>
</g>
<!-- ResourcePackage&#45;&gt;DDIProfileProperties -->
<g id="edge13" class="edge"><title>ResourcePackage&#45;&gt;DDIProfileProperties</title>
<path fill="none" stroke="black" d="M86.4336,-230C114.107,-230 151.79,-230 188.392,-230"/>
<text text-anchor="middle" x="141.219" y="-232.6" font-family="Times New Roman,serif" font-size="8.00">DDIProfileReference</text>
</g>
<!-- StudyUnit -->
<g id="ItemTypeStudyUnit2" class="node"><title></title><ellipse fill="#f7b733" stroke="black" cx="43.1093" cy="-176" rx="28.8574" ry="18" style="filter: url(#dropshadow)"/>
<text text-anchor="middle" x="43.1093" y="-174.1" font-family="Times New Roman,serif" font-size="8.00">StudyUnit</text>
</g>
<!-- StudyUnit&#45;&gt;DDIProfileProperties -->
<g id="edge14" class="edge"><title>StudyUnit&#45;&gt;DDIProfileProperties</title>
<path fill="none" stroke="black" d="M71.1912,-181.475C99.0876,-187.115 144.571,-196.31 188.484,-205.188"/>
<text text-anchor="middle" x="141.219" y="-205.6" font-family="Times New Roman,serif" font-size="8.00">DDIProfileReference</text>
</g>
<!-- SubGroup -->
<g id="ItemTypeSubGroup3" class="node"><title></title><ellipse fill="#f7b733" stroke="black" cx="43.1093" cy="-122" rx="27.5899" ry="18" style="filter: url(#dropshadow)"/>
<text text-anchor="middle" x="43.1093" y="-120.1" font-family="Times New Roman,serif" font-size="8.00">SubGroup</text>
</g>
<!-- SubGroup&#45;&gt;DDIProfileProperties -->
<g id="edge15" class="edge"><title>SubGroup&#45;&gt;DDIProfileProperties</title>
<path fill="none" stroke="black" d="M67.3463,-131.395C94.8158,-142.502 142.636,-161.837 188.695,-180.46"/>
<text text-anchor="middle" x="141.219" y="-178.6" font-family="Times New Roman,serif" font-size="8.00">DDIProfileReference</text>
</g>
</g>
</svg>
