<?xml version="1.0" encoding="UTF-8" standalone="no"?>
<!DOCTYPE svg PUBLIC "-//W3C//DTD SVG 1.1//EN"
 "http://www.w3.org/Graphics/SVG/1.1/DTD/svg11.dtd">
<!-- Generated by graphviz version 2.38.0 (20140413.2041)
 -->
<!-- Title: G Pages: 1 -->
<svg width="1544pt" height="304pt"
 viewBox="0.00 0.00 1543.93 304.00" xmlns="http://www.w3.org/2000/svg" xmlns:xlink="http://www.w3.org/1999/xlink">
<filter id = "dropshadow" height = "130%" ><feGaussianBlur in= "SourceAlpha" stdDeviation = "3"/><!--stdDeviation is how much to blur--><feOffset dx = "2" dy = "2" result = "offsetblur"/><!--how much to offset--><feMerge><feMergeNode/><!--this contains the offset blurred image--><feMergeNode in= "SourceGraphic"/><!--this contains the element that the filter is applied to --></feMerge></filter>
<g id="graph0" class="graph" transform="scale(1 1) rotate(0) translate(4 300)">
<title>G</title>
<g id="clust1" class="cluster"><title>clusterGenericMap</title>
<polygon fill="#4abdac" stroke="black" points="176.933,-8 176.933,-288 1527.93,-288 1527.93,-8 176.933,-8" style="filter: url(#dropshadow)"/>
<text text-anchor="middle" x="852.433" y="-277.6" font-family="Times New Roman,serif" font-size="8.00">GenericMap</text>
</g>
<!-- GenericMapProperties -->
<g id="ItemTypeGenericMapProperties" class="node"><title></title><polygon fill="#f7b733" stroke="black" points="184.933,-109.5 184.933,-180.5 448.933,-180.5 448.933,-109.5 184.933,-109.5" style="filter: url(#dropshadow)"/>
<text text-anchor="middle" x="211.433" y="-143.1" font-family="Times New Roman,serif" font-size="8.00">Properties</text>
<polyline fill="none" stroke="black" points="237.933,-109.5 237.933,-180.5 "/>
<text text-anchor="start" x="245.933" y="-170.1" font-family="Times New Roman,serif" font-size="8.00">MapName : NameType[0...n] </text>
<text text-anchor="start" x="245.933" y="-161.1" font-family="Times New Roman,serif" font-size="8.00">Label : LabelType[0...n] </text>
<text text-anchor="start" x="245.933" y="-152.1" font-family="Times New Roman,serif" font-size="8.00">Description : StructuredStringType[0...1] </text>
<text text-anchor="start" x="245.933" y="-143.1" font-family="Times New Roman,serif" font-size="8.00">SourceSchemeReference : SchemeReferenceType[0...1] </text>
<text text-anchor="start" x="245.933" y="-134.1" font-family="Times New Roman,serif" font-size="8.00">TargetSchemeReference : SchemeReferenceType[0...1] </text>
<text text-anchor="start" x="245.933" y="-125.1" font-family="Times New Roman,serif" font-size="8.00">Correspondence : CorrespondenceType[0...1] </text>
<text text-anchor="start" x="245.933" y="-116.1" font-family="Times New Roman,serif" font-size="8.00">ItemMap : ItemMapType[0...n] </text>
</g>
<!-- GenericMapNameType -->
<g id="ReusableTypeGenericMapNameType" class="node"><title></title><polygon fill="#fc4a1a" stroke="black" points="559.933,-17 559.933,-53 728.933,-53 728.933,-17 559.933,-17" style="filter: url(#dropshadow)"/>
<text text-anchor="middle" x="587.933" y="-33.1" font-family="Times New Roman,serif" font-size="8.00">NameType</text>
<polyline fill="none" stroke="black" points="615.933,-17 615.933,-53 "/>
<text text-anchor="start" x="623.933" y="-37.6" font-family="Times New Roman,serif" font-size="8.00">IsPreferred : boolean[0...1] </text>
<text text-anchor="start" x="623.933" y="-28.6" font-family="Times New Roman,serif" font-size="8.00">Context : string[0...1] </text>
</g>
<!-- GenericMapProperties&#45;&gt;GenericMapNameType -->
<g id="edge1" class="edge"><title>GenericMapProperties&#45;&gt;GenericMapNameType</title>
<path fill="none" stroke="black" d="M398.281,-109.337C435.424,-93.7272 480.418,-76.04 521.933,-63 534.014,-59.2052 546.919,-55.6826 559.639,-52.5059"/>
<text text-anchor="middle" x="485.433" y="-83.6" font-family="Times New Roman,serif" font-size="8.00">MapName</text>
</g>
<!-- GenericMapLabelType -->
<g id="ReusableTypeGenericMapLabelType" class="node"><title></title><polygon fill="#fc4a1a" stroke="black" points="542.933,-72.5 542.933,-125.5 745.933,-125.5 745.933,-72.5 542.933,-72.5" style="filter: url(#dropshadow)"/>
<text text-anchor="middle" x="569.933" y="-97.1" font-family="Times New Roman,serif" font-size="8.00">LabelType</text>
<polyline fill="none" stroke="black" points="596.933,-72.5 596.933,-125.5 "/>
<text text-anchor="start" x="604.933" y="-115.1" font-family="Times New Roman,serif" font-size="8.00">TypeOfLabel : CodeValueType[0...1] </text>
<text text-anchor="start" x="604.933" y="-106.1" font-family="Times New Roman,serif" font-size="8.00">LocationVariant : string[0...1] </text>
<text text-anchor="start" x="604.933" y="-97.1" font-family="Times New Roman,serif" font-size="8.00">ValidForStartDate : cogsDate[0...1] </text>
<text text-anchor="start" x="604.933" y="-88.1" font-family="Times New Roman,serif" font-size="8.00">ValidForEndDate : cogsDate[0...1] </text>
<text text-anchor="start" x="604.933" y="-79.1" font-family="Times New Roman,serif" font-size="8.00">MaxLength : int[0...1] </text>
</g>
<!-- GenericMapProperties&#45;&gt;GenericMapLabelType -->
<g id="edge2" class="edge"><title>GenericMapProperties&#45;&gt;GenericMapLabelType</title>
<path fill="none" stroke="black" d="M449.388,-126.423C480.53,-122.022 513.261,-117.396 542.784,-113.224"/>
<text text-anchor="middle" x="485.433" y="-125.6" font-family="Times New Roman,serif" font-size="8.00">Label</text>
</g>
<!-- GenericMapStructuredStringType -->
<g id="ReusableTypeGenericMapStructuredStringType" class="node"><title></title><polygon fill="#fc4a1a" stroke="black" points="1306.93,-151 1306.93,-187 1519.93,-187 1519.93,-151 1306.93,-151" style="filter: url(#dropshadow)"/>
<text text-anchor="middle" x="1351.93" y="-167.1" font-family="Times New Roman,serif" font-size="8.00">StructuredStringType</text>
<polyline fill="none" stroke="black" points="1396.93,-151 1396.93,-187 "/>
<text text-anchor="start" x="1404.93" y="-167.1" font-family="Times New Roman,serif" font-size="8.00">Content : ContentType[0...n] </text>
</g>
<!-- GenericMapProperties&#45;&gt;GenericMapStructuredStringType -->
<g id="edge3" class="edge"><title>GenericMapProperties&#45;&gt;GenericMapStructuredStringType</title>
<path fill="none" stroke="black" d="M448.953,-146.018C624.828,-147.649 946.979,-151.565 1221.93,-160 1249.4,-160.843 1279.08,-162.085 1306.66,-163.379"/>
<text text-anchor="middle" x="812.933" y="-153.6" font-family="Times New Roman,serif" font-size="8.00">Description</text>
</g>
<!-- GenericMapCorrespondenceType -->
<g id="ReusableTypeGenericMapCorrespondenceType" class="node"><title></title><polygon fill="#fc4a1a" stroke="black" points="858.933,-169.5 858.933,-222.5 1221.93,-222.5 1221.93,-169.5 858.933,-169.5" style="filter: url(#dropshadow)"/>
<text text-anchor="middle" x="904.433" y="-194.1" font-family="Times New Roman,serif" font-size="8.00">CorrespondenceType</text>
<polyline fill="none" stroke="black" points="949.933,-169.5 949.933,-222.5 "/>
<text text-anchor="start" x="957.933" y="-212.1" font-family="Times New Roman,serif" font-size="8.00">Commonality : StructuredStringType[0...1] </text>
<text text-anchor="start" x="957.933" y="-203.1" font-family="Times New Roman,serif" font-size="8.00">Difference : StructuredStringType[0...1] </text>
<text text-anchor="start" x="957.933" y="-194.1" font-family="Times New Roman,serif" font-size="8.00">CommonalityTypeCoded : CodeValueType[0...1] </text>
<text text-anchor="start" x="957.933" y="-185.1" font-family="Times New Roman,serif" font-size="8.00">CommonalityWeight : float[0...1] </text>
<text text-anchor="start" x="957.933" y="-176.1" font-family="Times New Roman,serif" font-size="8.00">UserDefinedCorrespondenceProperty : StandardKeyValuePairType[0...n] </text>
</g>
<!-- GenericMapProperties&#45;&gt;GenericMapCorrespondenceType -->
<g id="edge4" class="edge"><title>GenericMapProperties&#45;&gt;GenericMapCorrespondenceType</title>
<path fill="none" stroke="black" d="M449.009,-154.265C563.68,-162.371 731.35,-174.223 858.738,-183.227"/>
<text text-anchor="middle" x="644.433" y="-178.6" font-family="Times New Roman,serif" font-size="8.00">Correspondence</text>
</g>
<!-- GenericMapItemMapType -->
<g id="ReusableTypeGenericMapItemMapType" class="node"><title></title><polygon fill="#fc4a1a" stroke="black" points="521.933,-209.5 521.933,-262.5 766.933,-262.5 766.933,-209.5 521.933,-209.5" style="filter: url(#dropshadow)"/>
<text text-anchor="middle" x="555.933" y="-234.1" font-family="Times New Roman,serif" font-size="8.00">ItemMapType</text>
<polyline fill="none" stroke="black" points="589.933,-209.5 589.933,-262.5 "/>
<text text-anchor="start" x="597.933" y="-252.1" font-family="Times New Roman,serif" font-size="8.00">SourceItem : IDType[0...1] </text>
<text text-anchor="start" x="597.933" y="-243.1" font-family="Times New Roman,serif" font-size="8.00">TargetItem : IDType[0...1] </text>
<text text-anchor="start" x="597.933" y="-234.1" font-family="Times New Roman,serif" font-size="8.00">Correspondence : CorrespondenceType[0...1] </text>
<text text-anchor="start" x="597.933" y="-225.1" font-family="Times New Roman,serif" font-size="8.00">RelatedMapReference : ReferenceType[0...n] </text>
<text text-anchor="start" x="597.933" y="-216.1" font-family="Times New Roman,serif" font-size="8.00">Alias : string[0...1] </text>
</g>
<!-- GenericMapProperties&#45;&gt;GenericMapItemMapType -->
<g id="edge5" class="edge"><title>GenericMapProperties&#45;&gt;GenericMapItemMapType</title>
<path fill="none" stroke="black" d="M443.925,-180.552C451.71,-182.737 459.427,-184.9 466.933,-187 493.118,-194.325 521.5,-202.223 547.69,-209.494"/>
<text text-anchor="middle" x="485.433" y="-198.6" font-family="Times New Roman,serif" font-size="8.00">ItemMap</text>
</g>
<!-- GenericMapCorrespondenceType&#45;&gt;GenericMapStructuredStringType -->
<g id="edge6" class="edge"><title>GenericMapCorrespondenceType&#45;&gt;GenericMapStructuredStringType</title>
<path fill="none" stroke="black" d="M1222.01,-171.379C1228.05,-170.864 1234.04,-170.402 1239.93,-170 1261.45,-168.534 1284.5,-167.814 1306.53,-167.536"/>
<text text-anchor="middle" x="1264.43" y="-172.6" font-family="Times New Roman,serif" font-size="8.00">Commonality</text>
</g>
<!-- GenericMapCorrespondenceType&#45;&gt;GenericMapStructuredStringType -->
<g id="edge7" class="edge"><title>GenericMapCorrespondenceType&#45;&gt;GenericMapStructuredStringType</title>
<path fill="none" stroke="black" d="M1222.25,-183.837C1244.7,-182.251 1267.35,-180.615 1288.93,-179 1294.72,-178.567 1300.67,-178.113 1306.67,-177.649"/>
<text text-anchor="middle" x="1264.43" y="-184.6" font-family="Times New Roman,serif" font-size="8.00">Difference</text>
</g>
<!-- GenericMapItemMapType&#45;&gt;GenericMapCorrespondenceType -->
<g id="edge8" class="edge"><title>GenericMapItemMapType&#45;&gt;GenericMapCorrespondenceType</title>
<path fill="none" stroke="black" d="M767.13,-223.645C796.178,-220.696 827.797,-217.486 858.868,-214.331"/>
<text text-anchor="middle" x="812.933" y="-222.6" font-family="Times New Roman,serif" font-size="8.00">Correspondence</text>
</g>
<!-- Comparison -->
<g id="ItemTypeComparison" class="node"><title></title><ellipse fill="#f7b733" stroke="black" cx="33.4665" cy="-145" rx="33.433" ry="18" style="filter: url(#dropshadow)"/>
<text text-anchor="middle" x="33.4665" y="-143.1" font-family="Times New Roman,serif" font-size="8.00">Comparison</text>
</g>
<!-- Comparison&#45;&gt;GenericMapProperties -->
<g id="edge9" class="edge"><title>Comparison&#45;&gt;GenericMapProperties</title>
<path fill="none" stroke="black" d="M48.5581,-161.414C57.8082,-170.876 70.7835,-181.882 84.9329,-187 114.014,-197.518 146.146,-198.113 176.967,-193.743"/>
<text text-anchor="middle" x="125.933" y="-198.6" font-family="Times New Roman,serif" font-size="8.00">ConceptMapReference</text>
</g>
<!-- Comparison&#45;&gt;GenericMapProperties -->
<g id="edge10" class="edge"><title>Comparison&#45;&gt;GenericMapProperties</title>
<path fill="none" stroke="black" d="M64.478,-151.947C71.1739,-153.217 78.266,-154.346 84.9329,-155 114.672,-157.918 146.649,-158.293 177.046,-157.358"/>
<text text-anchor="middle" x="125.933" y="-159.6" font-family="Times New Roman,serif" font-size="8.00">VariableMapReference</text>
</g>
<!-- Comparison&#45;&gt;GenericMapProperties -->
<g id="edge11" class="edge"><title>Comparison&#45;&gt;GenericMapProperties</title>
<path fill="none" stroke="black" d="M67.0292,-145C94.5475,-145 135.96,-145 177.15,-145"/>
<text text-anchor="middle" x="125.933" y="-147.6" font-family="Times New Roman,serif" font-size="8.00">QuestionMapReference</text>
</g>
<!-- Comparison&#45;&gt;GenericMapProperties -->
<g id="edge12" class="edge"><title>Comparison&#45;&gt;GenericMapProperties</title>
<path fill="none" stroke="black" d="M63.0462,-136.305C70.1312,-134.521 77.7523,-132.91 84.9329,-132 114.689,-128.229 146.74,-127.764 177.215,-128.997"/>
<text text-anchor="middle" x="125.933" y="-134.6" font-family="Times New Roman,serif" font-size="8.00">CategoryMapReference</text>
</g>
<!-- Comparison&#45;&gt;GenericMapProperties -->
<g id="edge13" class="edge"><title>Comparison&#45;&gt;GenericMapProperties</title>
<path fill="none" stroke="black" d="M53.481,-130.391C62.4954,-124.365 73.7285,-118.079 84.9329,-115 114.321,-106.925 146.426,-106.204 177.101,-109.207"/>
<text text-anchor="middle" x="125.933" y="-117.6" font-family="Times New Roman,serif" font-size="8.00">UniverseMapReference</text>
</g>
</g>
</svg>
