<?xml version="1.0" encoding="UTF-8" standalone="no"?>
<!DOCTYPE svg PUBLIC "-//W3C//DTD SVG 1.1//EN"
 "http://www.w3.org/Graphics/SVG/1.1/DTD/svg11.dtd">
<!-- Generated by graphviz version 2.38.0 (20140413.2041)
 -->
<!-- Title: G Pages: 1 -->
<svg width="1440pt" height="385pt"
 viewBox="0.00 0.00 1439.71 385.00" xmlns="http://www.w3.org/2000/svg" xmlns:xlink="http://www.w3.org/1999/xlink">
<filter id = "dropshadow" height = "130%" ><feGaussianBlur in= "SourceAlpha" stdDeviation = "3"/><!--stdDeviation is how much to blur--><feOffset dx = "2" dy = "2" result = "offsetblur"/><!--how much to offset--><feMerge><feMergeNode/><!--this contains the offset blurred image--><feMergeNode in= "SourceGraphic"/><!--this contains the element that the filter is applied to --></feMerge></filter>
<g id="graph0" class="graph" transform="scale(1 1) rotate(0) translate(4 381)">
<title>G</title>
<g id="clust1" class="cluster"><title>clusterGeographicLevelType</title>
<polygon fill="#4abdac" stroke="black" points="326.706,-52 326.706,-369 1423.71,-369 1423.71,-52 326.706,-52" style="filter: url(#dropshadow)"/>
<text text-anchor="middle" x="875.206" y="-358.6" font-family="Times New Roman,serif" font-size="8.00">GeographicLevelType</text>
</g>
<!-- GeographicLevelTypeProperties -->
<g id="ReusableTypeGeographicLevelTypeProperties" class="node"><title></title><polygon fill="#f7b733" stroke="black" points="334.706,-171.5 334.706,-242.5 632.706,-242.5 632.706,-171.5 334.706,-171.5" style="filter: url(#dropshadow)"/>
<text text-anchor="middle" x="361.206" y="-205.1" font-family="Times New Roman,serif" font-size="8.00">Properties</text>
<polyline fill="none" stroke="black" points="387.706,-171.5 387.706,-242.5 "/>
<text text-anchor="start" x="395.706" y="-232.1" font-family="Times New Roman,serif" font-size="8.00">GeographicLevelName : NameType[0...n] </text>
<text text-anchor="start" x="395.706" y="-223.1" font-family="Times New Roman,serif" font-size="8.00">Description : StructuredStringType[0...1] </text>
<text text-anchor="start" x="395.706" y="-214.1" font-family="Times New Roman,serif" font-size="8.00">GeographicLevelCode : CodeValueType[0...n] </text>
<text text-anchor="start" x="395.706" y="-205.1" font-family="Times New Roman,serif" font-size="8.00">CoverageLimitation : InternationalStringType[0...1] </text>
<text text-anchor="start" x="395.706" y="-196.1" font-family="Times New Roman,serif" font-size="8.00">PrimaryComponentLevel : PrimaryComponentLevelType[0...n] </text>
<text text-anchor="start" x="395.706" y="-187.1" font-family="Times New Roman,serif" font-size="8.00">ParentGeographicLevelReference : GeographicLevelType[0...1] </text>
<text text-anchor="start" x="395.706" y="-178.1" font-family="Times New Roman,serif" font-size="8.00">GeographicLayerBaseReference : GeographicLevelType[2...n] </text>
</g>
<!-- GeographicLevelTypeProperties&#45;&gt;GeographicLevelTypeProperties -->
<g id="edge12" class="edge"><title>GeographicLevelTypeProperties&#45;&gt;GeographicLevelTypeProperties</title>
<path fill="none" stroke="black" d="M463.891,-242.574C464.576,-252.957 471.181,-261 483.706,-261 496.232,-261 502.837,-252.957 503.522,-242.574"/>
<text text-anchor="middle" x="483.706" y="-263.6" font-family="Times New Roman,serif" font-size="8.00">ParentGeographicLevelReference</text>
</g>
<!-- GeographicLevelTypeProperties&#45;&gt;GeographicLevelTypeProperties -->
<g id="edge13" class="edge"><title>GeographicLevelTypeProperties&#45;&gt;GeographicLevelTypeProperties</title>
<path fill="none" stroke="black" d="M445.596,-242.563C439.12,-261.63 451.823,-279 483.706,-279 515.589,-279 528.292,-261.63 521.816,-242.563"/>
<text text-anchor="middle" x="483.706" y="-281.6" font-family="Times New Roman,serif" font-size="8.00">GeographicLayerBaseReference</text>
</g>
<!-- GeographicLevelTypeNameType -->
<g id="ReusableTypeGeographicLevelTypeNameType" class="node"><title></title><polygon fill="#fc4a1a" stroke="black" points="845.706,-61 845.706,-97 1014.71,-97 1014.71,-61 845.706,-61" style="filter: url(#dropshadow)"/>
<text text-anchor="middle" x="873.706" y="-77.1" font-family="Times New Roman,serif" font-size="8.00">NameType</text>
<polyline fill="none" stroke="black" points="901.706,-61 901.706,-97 "/>
<text text-anchor="start" x="909.706" y="-81.6" font-family="Times New Roman,serif" font-size="8.00">IsPreferred : boolean[0...1] </text>
<text text-anchor="start" x="909.706" y="-72.6" font-family="Times New Roman,serif" font-size="8.00">Context : string[0...1] </text>
</g>
<!-- GeographicLevelTypeProperties&#45;&gt;GeographicLevelTypeNameType -->
<g id="edge1" class="edge"><title>GeographicLevelTypeProperties&#45;&gt;GeographicLevelTypeNameType</title>
<path fill="none" stroke="black" d="M567.893,-171.485C621.515,-149.812 693.214,-123.08 758.706,-106 786.546,-98.7397 817.482,-93.1278 845.278,-88.9489"/>
<text text-anchor="middle" x="695.706" y="-142.6" font-family="Times New Roman,serif" font-size="8.00">GeographicLevelName</text>
</g>
<!-- GeographicLevelTypeStructuredStringType -->
<g id="ReusableTypeGeographicLevelTypeStructuredStringType" class="node"><title></title><polygon fill="#fc4a1a" stroke="black" points="823.706,-116 823.706,-152 1036.71,-152 1036.71,-116 823.706,-116" style="filter: url(#dropshadow)"/>
<text text-anchor="middle" x="868.706" y="-132.1" font-family="Times New Roman,serif" font-size="8.00">StructuredStringType</text>
<polyline fill="none" stroke="black" points="913.706,-116 913.706,-152 "/>
<text text-anchor="start" x="921.706" y="-132.1" font-family="Times New Roman,serif" font-size="8.00">Content : ContentType[0...n] </text>
</g>
<!-- GeographicLevelTypeProperties&#45;&gt;GeographicLevelTypeStructuredStringType -->
<g id="edge2" class="edge"><title>GeographicLevelTypeProperties&#45;&gt;GeographicLevelTypeStructuredStringType</title>
<path fill="none" stroke="black" d="M632.718,-182.692C695.224,-172.427 766.581,-160.708 823.626,-151.339"/>
<text text-anchor="middle" x="695.706" y="-182.6" font-family="Times New Roman,serif" font-size="8.00">Description</text>
</g>
<!-- GeographicLevelTypeCodeValueType -->
<g id="ReusableTypeGeographicLevelTypeCodeValueType" class="node"><title></title><polygon fill="#fc4a1a" stroke="black" points="822.706,-171.5 822.706,-242.5 1037.71,-242.5 1037.71,-171.5 822.706,-171.5" style="filter: url(#dropshadow)"/>
<text text-anchor="middle" x="858.206" y="-205.1" font-family="Times New Roman,serif" font-size="8.00">CodeValueType</text>
<polyline fill="none" stroke="black" points="893.706,-171.5 893.706,-242.5 "/>
<text text-anchor="start" x="901.706" y="-232.1" font-family="Times New Roman,serif" font-size="8.00">CodeListID : string[0...1] </text>
<text text-anchor="start" x="901.706" y="-223.1" font-family="Times New Roman,serif" font-size="8.00">CodeListName_string : string[0...1] </text>
<text text-anchor="start" x="901.706" y="-214.1" font-family="Times New Roman,serif" font-size="8.00">CodeListAgencyName : string[0...1] </text>
<text text-anchor="start" x="901.706" y="-205.1" font-family="Times New Roman,serif" font-size="8.00">CodeListVersionID : string[0...1] </text>
<text text-anchor="start" x="901.706" y="-196.1" font-family="Times New Roman,serif" font-size="8.00">OtherValue : string[0...1] </text>
<text text-anchor="start" x="901.706" y="-187.1" font-family="Times New Roman,serif" font-size="8.00">CodeListURN : string[0...1] </text>
<text text-anchor="start" x="901.706" y="-178.1" font-family="Times New Roman,serif" font-size="8.00">CodeListSchemeURN : string[0...1] </text>
</g>
<!-- GeographicLevelTypeProperties&#45;&gt;GeographicLevelTypeCodeValueType -->
<g id="edge3" class="edge"><title>GeographicLevelTypeProperties&#45;&gt;GeographicLevelTypeCodeValueType</title>
<path fill="none" stroke="black" d="M632.718,-207C694.845,-207 765.717,-207 822.587,-207"/>
<text text-anchor="middle" x="695.706" y="-209.6" font-family="Times New Roman,serif" font-size="8.00">GeographicLevelCode</text>
</g>
<!-- GeographicLevelTypeInternationalStringType -->
<g id="ReusableTypeGeographicLevelTypeInternationalStringType" class="node"><title></title><polygon fill="#fc4a1a" stroke="black" points="1207.71,-273 1207.71,-309 1415.71,-309 1415.71,-273 1207.71,-273" style="filter: url(#dropshadow)"/>
<text text-anchor="middle" x="1258.21" y="-289.1" font-family="Times New Roman,serif" font-size="8.00">InternationalStringType</text>
<polyline fill="none" stroke="black" points="1308.71,-273 1308.71,-309 "/>
<text text-anchor="start" x="1316.71" y="-289.1" font-family="Times New Roman,serif" font-size="8.00">String : StringType[0...n] </text>
</g>
<!-- GeographicLevelTypeProperties&#45;&gt;GeographicLevelTypeInternationalStringType -->
<g id="edge4" class="edge"><title>GeographicLevelTypeProperties&#45;&gt;GeographicLevelTypeInternationalStringType</title>
<path fill="none" stroke="black" d="M632.956,-233.91C673.614,-240.59 717.77,-247.203 758.706,-252 914.717,-270.283 1096.61,-281.12 1207.69,-286.565"/>
<text text-anchor="middle" x="930.206" y="-283.6" font-family="Times New Roman,serif" font-size="8.00">CoverageLimitation</text>
</g>
<!-- GeographicLevelTypePrimaryComponentLevelType -->
<g id="ReusableTypeGeographicLevelTypePrimaryComponentLevelType" class="node"><title></title><polygon fill="#fc4a1a" stroke="black" points="758.706,-307 758.706,-343 1101.71,-343 1101.71,-307 758.706,-307" style="filter: url(#dropshadow)"/>
<text text-anchor="middle" x="821.206" y="-323.1" font-family="Times New Roman,serif" font-size="8.00">PrimaryComponentLevelType</text>
<polyline fill="none" stroke="black" points="883.706,-307 883.706,-343 "/>
<text text-anchor="start" x="891.706" y="-327.6" font-family="Times New Roman,serif" font-size="8.00">GeographicLevelReference : GeographicLevelType[0...1] </text>
<text text-anchor="start" x="891.706" y="-318.6" font-family="Times New Roman,serif" font-size="8.00">CoverageLimitation : InternationalStringType[0...1] </text>
</g>
<!-- GeographicLevelTypeProperties&#45;&gt;GeographicLevelTypePrimaryComponentLevelType -->
<g id="edge5" class="edge"><title>GeographicLevelTypeProperties&#45;&gt;GeographicLevelTypePrimaryComponentLevelType</title>
<path fill="none" stroke="black" d="M550.031,-242.62C579.935,-257.52 616.309,-273.726 650.706,-284 685.008,-294.245 722.481,-301.984 758.502,-307.812"/>
<text text-anchor="middle" x="695.706" y="-306.6" font-family="Times New Roman,serif" font-size="8.00">PrimaryComponentLevel</text>
</g>
<!-- GeographicLevelTypePrimaryComponentLevelType&#45;&gt;GeographicLevelTypeInternationalStringType -->
<g id="edge6" class="edge"><title>GeographicLevelTypePrimaryComponentLevelType&#45;&gt;GeographicLevelTypeInternationalStringType</title>
<path fill="none" stroke="black" d="M1101.81,-309.716C1137.94,-306.479 1175,-303.158 1207.69,-300.229"/>
<text text-anchor="middle" x="1154.71" y="-310.6" font-family="Times New Roman,serif" font-size="8.00">CoverageLimitation</text>
</g>
<!-- GeographicLocation -->
<g id="ItemTypeGeographicLocation" class="node"><title></title><ellipse fill="#f7b733" stroke="black" cx="87.3531" cy="-342" rx="49.1982" ry="18" style="filter: url(#dropshadow)"/>
<text text-anchor="middle" x="87.3531" y="-340.1" font-family="Times New Roman,serif" font-size="8.00">GeographicLocation</text>
</g>
<!-- GeographicLocation&#45;&gt;GeographicLevelTypeProperties -->
<g id="edge7" class="edge"><title>GeographicLocation&#45;&gt;GeographicLevelTypeProperties</title>
<path fill="none" stroke="black" d="M136.48,-340.048C183.636,-336.891 256.928,-328.627 316.706,-307 320.043,-305.793 323.387,-304.515 326.731,-303.175"/>
<text text-anchor="middle" x="254.706" y="-337.6" font-family="Times New Roman,serif" font-size="8.00">GeographicLevelReference</text>
</g>
<!-- GeographicStructure -->
<g id="ItemTypeGeographicStructure" class="node"><title></title><ellipse fill="#f7b733" stroke="black" cx="87.3531" cy="-288" rx="48.5642" ry="18" style="filter: url(#dropshadow)"/>
<text text-anchor="middle" x="87.3531" y="-286.1" font-family="Times New Roman,serif" font-size="8.00">GeographicStructure</text>
</g>
<!-- GeographicStructure&#45;&gt;GeographicLevelTypeProperties -->
<g id="edge8" class="edge"><title>GeographicStructure&#45;&gt;GeographicLevelTypeProperties</title>
<path fill="none" stroke="black" d="M135.385,-291.807C182.031,-294.362 255.231,-295.07 316.706,-281 320.131,-280.216 323.571,-279.361 327.019,-278.441"/>
<text text-anchor="middle" x="254.706" y="-296.6" font-family="Times New Roman,serif" font-size="8.00">GeographicLevel</text>
</g>
<!-- GeographicStructure&#45;&gt;GeographicLevelTypeProperties -->
<g id="edge9" class="edge"><title>GeographicStructure&#45;&gt;GeographicLevelTypeProperties</title>
<path fill="none" stroke="black" d="M130.556,-279.332C177.429,-269.704 255.867,-253.593 326.832,-239.017"/>
<text text-anchor="middle" x="254.706" y="-269.6" font-family="Times New Roman,serif" font-size="8.00">GeographicLevelReference</text>
</g>
<!-- GeographicCoverageType -->
<g id="ReusableTypeGeographicCoverageType" class="node"><title></title><ellipse fill="#f7b733" stroke="black" cx="87.3531" cy="-234" rx="60.8874" ry="18" style="filter: url(#dropshadow)"/>
<text text-anchor="middle" x="87.3531" y="-232.1" font-family="Times New Roman,serif" font-size="8.00">GeographicCoverageType</text>
</g>
<!-- GeographicCoverageType&#45;&gt;GeographicLevelTypeProperties -->
<g id="edge10" class="edge"><title>GeographicCoverageType&#45;&gt;GeographicLevelTypeProperties</title>
<path fill="none" stroke="black" d="M146.541,-230.016C194.093,-226.76 263.588,-222.002 327.067,-217.656"/>
<text text-anchor="middle" x="254.706" y="-229.6" font-family="Times New Roman,serif" font-size="8.00">GeographicLevelReference</text>
</g>
<!-- GeographicCoverageType&#45;&gt;GeographicLevelTypeProperties -->
<g id="edge11" class="edge"><title>GeographicCoverageType&#45;&gt;GeographicLevelTypeProperties</title>
<path fill="none" stroke="black" d="M130.061,-221.164C148.984,-215.977 171.77,-210.606 192.706,-208 236.04,-202.607 283.298,-200.754 326.848,-200.66"/>
<text text-anchor="middle" x="254.706" y="-210.6" font-family="Times New Roman,serif" font-size="8.00">SummaryDataReference</text>
</g>
<!-- IdentificationPortionType -->
<g id="ReusableTypeIdentificationPortionType0" class="node"><title></title><ellipse fill="#f7b733" stroke="black" cx="87.3531" cy="-180" rx="62.2904" ry="18" style="filter: url(#dropshadow)"/>
<text text-anchor="middle" x="87.3531" y="-178.1" font-family="Times New Roman,serif" font-size="8.00">IdentificationPortionType</text>
</g>
<!-- IdentificationPortionType&#45;&gt;GeographicLevelTypeProperties -->
<g id="edge14" class="edge"><title>IdentificationPortionType&#45;&gt;GeographicLevelTypeProperties</title>
<path fill="none" stroke="black" d="M149.969,-180.842C195.966,-181.791 260.335,-183.793 316.706,-188 320.141,-188.256 323.615,-188.53 327.116,-188.818"/>
<text text-anchor="middle" x="254.706" y="-190.6" font-family="Times New Roman,serif" font-size="8.00">GeographicLevelReference</text>
</g>
<!-- IncludedGeographicStructureCodesType -->
<g id="ReusableTypeIncludedGeographicStructureCodesType1" class="node"><title></title><ellipse fill="#f7b733" stroke="black" cx="87.3531" cy="-126" rx="87.2065" ry="18" style="filter: url(#dropshadow)"/>
<text text-anchor="middle" x="87.3531" y="-124.1" font-family="Times New Roman,serif" font-size="8.00">IncludedGeographicStructureCodesType</text>
</g>
<!-- IncludedGeographicStructureCodesType&#45;&gt;GeographicLevelTypeProperties -->
<g id="edge15" class="edge"><title>IncludedGeographicStructureCodesType&#45;&gt;GeographicLevelTypeProperties</title>
<path fill="none" stroke="black" d="M152.924,-137.926C198.709,-146.508 261.562,-158.544 316.706,-170 320.139,-170.713 323.611,-171.44 327.11,-172.177"/>
<text text-anchor="middle" x="254.706" y="-172.6" font-family="Times New Roman,serif" font-size="8.00">ExcludedGeographicLevelReference</text>
</g>
<!-- LevelReferenceType -->
<g id="ReusableTypeLevelReferenceType2" class="node"><title></title><ellipse fill="#f7b733" stroke="black" cx="87.3531" cy="-72" rx="50.4666" ry="18" style="filter: url(#dropshadow)"/>
<text text-anchor="middle" x="87.3531" y="-70.1" font-family="Times New Roman,serif" font-size="8.00">LevelReferenceType</text>
</g>
<!-- LevelReferenceType&#45;&gt;GeographicLevelTypeProperties -->
<g id="edge16" class="edge"><title>LevelReferenceType&#45;&gt;GeographicLevelTypeProperties</title>
<path fill="none" stroke="black" d="M130.598,-81.4698C176.872,-92.3033 252.992,-111.483 316.706,-134 320.034,-135.176 323.389,-136.389 326.762,-137.634"/>
<text text-anchor="middle" x="254.706" y="-136.6" font-family="Times New Roman,serif" font-size="8.00">GeographicLevelReference</text>
</g>
<!-- PrimaryComponentLevelType -->
<g id="ReusableTypePrimaryComponentLevelType3" class="node"><title></title><ellipse fill="#f7b733" stroke="black" cx="87.3531" cy="-18" rx="70.8072" ry="18" style="filter: url(#dropshadow)"/>
<text text-anchor="middle" x="87.3531" y="-16.1" font-family="Times New Roman,serif" font-size="8.00">PrimaryComponentLevelType</text>
</g>
<!-- PrimaryComponentLevelType&#45;&gt;GeographicLevelTypeProperties -->
<g id="edge17" class="edge"><title>PrimaryComponentLevelType&#45;&gt;GeographicLevelTypeProperties</title>
<path fill="none" stroke="black" d="M144.815,-28.8087C192.311,-39.2317 261.163,-57.5094 316.706,-85 320.168,-86.7132 323.633,-88.499 327.094,-90.3482"/>
<text text-anchor="middle" x="254.706" y="-87.6" font-family="Times New Roman,serif" font-size="8.00">GeographicLevelReference</text>
</g>
</g>
</svg>
