<?xml version="1.0" encoding="UTF-8" standalone="no"?>
<!DOCTYPE svg PUBLIC "-//W3C//DTD SVG 1.1//EN"
 "http://www.w3.org/Graphics/SVG/1.1/DTD/svg11.dtd">
<!-- Generated by graphviz version 2.38.0 (20140413.2041)
 -->
<!-- Title: G Pages: 1 -->
<svg width="1434pt" height="746pt"
 viewBox="0.00 0.00 1434.39 746.00" xmlns="http://www.w3.org/2000/svg" xmlns:xlink="http://www.w3.org/1999/xlink">
<filter id = "dropshadow" height = "130%" ><feGaussianBlur in= "SourceAlpha" stdDeviation = "3"/><!--stdDeviation is how much to blur--><feOffset dx = "2" dy = "2" result = "offsetblur"/><!--how much to offset--><feMerge><feMergeNode/><!--this contains the offset blurred image--><feMergeNode in= "SourceGraphic"/><!--this contains the element that the filter is applied to --></feMerge></filter>
<g id="graph0" class="graph" transform="scale(1 1) rotate(0) translate(4 742)">
<title>G</title>
<g id="clust1" class="cluster"><title>clusterIndividual</title>
<polygon fill="#4abdac" stroke="black" points="316.387,-134 316.387,-639 1418.39,-639 1418.39,-134 316.387,-134" style="filter: url(#dropshadow)"/>
<text text-anchor="middle" x="867.387" y="-628.6" font-family="Times New Roman,serif" font-size="8.00">Individual</text>
</g>
<!-- IndividualProperties -->
<g id="ItemTypeIndividualProperties" class="node"><title></title><polygon fill="#f7b733" stroke="black" points="324.387,-329 324.387,-409 605.387,-409 605.387,-329 324.387,-329" style="filter: url(#dropshadow)"/>
<text text-anchor="middle" x="350.887" y="-367.1" font-family="Times New Roman,serif" font-size="8.00">Properties</text>
<polyline fill="none" stroke="black" points="377.387,-329 377.387,-409 "/>
<text text-anchor="start" x="385.387" y="-398.6" font-family="Times New Roman,serif" font-size="8.00">IndividualIdentification : IndividualIdentificationType[0...1] </text>
<text text-anchor="start" x="385.387" y="-389.6" font-family="Times New Roman,serif" font-size="8.00">Description : StructuredStringType[0...1] </text>
<text text-anchor="start" x="385.387" y="-380.6" font-family="Times New Roman,serif" font-size="8.00">Keyword : InternationalCodeValueType[0...n] </text>
<text text-anchor="start" x="385.387" y="-371.6" font-family="Times New Roman,serif" font-size="8.00">RegionalCoverage : CodeValueType[0...n] </text>
<text text-anchor="start" x="385.387" y="-362.6" font-family="Times New Roman,serif" font-size="8.00">AdditionalInformation : AdditionalInformationType[0...n] </text>
<text text-anchor="start" x="385.387" y="-353.6" font-family="Times New Roman,serif" font-size="8.00">LanguageAbility : IndividualLanguageType[0...n] </text>
<text text-anchor="start" x="385.387" y="-344.6" font-family="Times New Roman,serif" font-size="8.00">ContactInformation : ContactInformationType[0...n] </text>
<text text-anchor="start" x="385.387" y="-335.6" font-family="Times New Roman,serif" font-size="8.00">Privacy : string[0...1] </text>
</g>
<!-- IndividualIndividualIdentificationType -->
<g id="ReusableTypeIndividualIndividualIdentificationType" class="node"><title></title><polygon fill="#fc4a1a" stroke="black" points="723.387,-143 723.387,-187 1096.39,-187 1096.39,-143 723.387,-143" style="filter: url(#dropshadow)"/>
<text text-anchor="middle" x="781.387" y="-163.1" font-family="Times New Roman,serif" font-size="8.00">IndividualIdentificationType</text>
<polyline fill="none" stroke="black" points="839.387,-143 839.387,-187 "/>
<text text-anchor="start" x="847.387" y="-176.6" font-family="Times New Roman,serif" font-size="8.00">IndividualName : IndividualNameType[0...n] </text>
<text text-anchor="start" x="847.387" y="-167.6" font-family="Times New Roman,serif" font-size="8.00">DDIMaintenanceAgencyID : DDIMaintenanceAgencyIDType[0...n] </text>
<text text-anchor="start" x="847.387" y="-158.6" font-family="Times New Roman,serif" font-size="8.00">ResearcherID : ResearcherIDType[0...n] </text>
<text text-anchor="start" x="847.387" y="-149.6" font-family="Times New Roman,serif" font-size="8.00">IndividualImage : PrivateImageType[0...n] </text>
</g>
<!-- IndividualProperties&#45;&gt;IndividualIndividualIdentificationType -->
<g id="edge1" class="edge"><title>IndividualProperties&#45;&gt;IndividualIndividualIdentificationType</title>
<path fill="none" stroke="black" d="M509.21,-328.62C557.341,-286.645 639.396,-223.333 723.387,-196 733.478,-192.716 743.996,-189.767 754.671,-187.119"/>
<text text-anchor="middle" x="664.387" y="-246.6" font-family="Times New Roman,serif" font-size="8.00">IndividualIdentification</text>
</g>
<!-- IndividualStructuredStringType -->
<g id="ReusableTypeIndividualStructuredStringType" class="node"><title></title><polygon fill="#fc4a1a" stroke="black" points="803.387,-206 803.387,-242 1016.39,-242 1016.39,-206 803.387,-206" style="filter: url(#dropshadow)"/>
<text text-anchor="middle" x="848.387" y="-222.1" font-family="Times New Roman,serif" font-size="8.00">StructuredStringType</text>
<polyline fill="none" stroke="black" points="893.387,-206 893.387,-242 "/>
<text text-anchor="start" x="901.387" y="-222.1" font-family="Times New Roman,serif" font-size="8.00">Content : ContentType[0...n] </text>
</g>
<!-- IndividualProperties&#45;&gt;IndividualStructuredStringType -->
<g id="edge2" class="edge"><title>IndividualProperties&#45;&gt;IndividualStructuredStringType</title>
<path fill="none" stroke="black" d="M539.546,-328.911C589.931,-303.163 659.007,-271.082 723.387,-252 748.837,-244.457 776.883,-238.879 803.293,-234.779"/>
<text text-anchor="middle" x="664.387" y="-289.6" font-family="Times New Roman,serif" font-size="8.00">Description</text>
</g>
<!-- IndividualInternationalCodeValueType -->
<g id="ReusableTypeIndividualInternationalCodeValueType" class="node"><title></title><polygon fill="#fc4a1a" stroke="black" points="779.387,-261.5 779.387,-332.5 1040.39,-332.5 1040.39,-261.5 779.387,-261.5" style="filter: url(#dropshadow)"/>
<text text-anchor="middle" x="837.887" y="-295.1" font-family="Times New Roman,serif" font-size="8.00">InternationalCodeValueType</text>
<polyline fill="none" stroke="black" points="896.387,-261.5 896.387,-332.5 "/>
<text text-anchor="start" x="904.387" y="-322.1" font-family="Times New Roman,serif" font-size="8.00">CodeListID : string[0...1] </text>
<text text-anchor="start" x="904.387" y="-313.1" font-family="Times New Roman,serif" font-size="8.00">CodeListName_string : string[0...1] </text>
<text text-anchor="start" x="904.387" y="-304.1" font-family="Times New Roman,serif" font-size="8.00">CodeListAgencyName : string[0...1] </text>
<text text-anchor="start" x="904.387" y="-295.1" font-family="Times New Roman,serif" font-size="8.00">CodeListVersionID : string[0...1] </text>
<text text-anchor="start" x="904.387" y="-286.1" font-family="Times New Roman,serif" font-size="8.00">OtherValue : string[0...1] </text>
<text text-anchor="start" x="904.387" y="-277.1" font-family="Times New Roman,serif" font-size="8.00">CodeListURN : string[0...1] </text>
<text text-anchor="start" x="904.387" y="-268.1" font-family="Times New Roman,serif" font-size="8.00">CodeListSchemeURN : string[0...1] </text>
</g>
<!-- IndividualProperties&#45;&gt;IndividualInternationalCodeValueType -->
<g id="edge3" class="edge"><title>IndividualProperties&#45;&gt;IndividualInternationalCodeValueType</title>
<path fill="none" stroke="black" d="M605.447,-346.318C660.989,-337.29 724.533,-326.963 779.072,-318.099"/>
<text text-anchor="middle" x="664.387" y="-344.6" font-family="Times New Roman,serif" font-size="8.00">Keyword</text>
</g>
<!-- IndividualCodeValueType -->
<g id="ReusableTypeIndividualCodeValueType" class="node"><title></title><polygon fill="#fc4a1a" stroke="black" points="1195.39,-443.5 1195.39,-514.5 1410.39,-514.5 1410.39,-443.5 1195.39,-443.5" style="filter: url(#dropshadow)"/>
<text text-anchor="middle" x="1230.89" y="-477.1" font-family="Times New Roman,serif" font-size="8.00">CodeValueType</text>
<polyline fill="none" stroke="black" points="1266.39,-443.5 1266.39,-514.5 "/>
<text text-anchor="start" x="1274.39" y="-504.1" font-family="Times New Roman,serif" font-size="8.00">CodeListID : string[0...1] </text>
<text text-anchor="start" x="1274.39" y="-495.1" font-family="Times New Roman,serif" font-size="8.00">CodeListName_string : string[0...1] </text>
<text text-anchor="start" x="1274.39" y="-486.1" font-family="Times New Roman,serif" font-size="8.00">CodeListAgencyName : string[0...1] </text>
<text text-anchor="start" x="1274.39" y="-477.1" font-family="Times New Roman,serif" font-size="8.00">CodeListVersionID : string[0...1] </text>
<text text-anchor="start" x="1274.39" y="-468.1" font-family="Times New Roman,serif" font-size="8.00">OtherValue : string[0...1] </text>
<text text-anchor="start" x="1274.39" y="-459.1" font-family="Times New Roman,serif" font-size="8.00">CodeListURN : string[0...1] </text>
<text text-anchor="start" x="1274.39" y="-450.1" font-family="Times New Roman,serif" font-size="8.00">CodeListSchemeURN : string[0...1] </text>
</g>
<!-- IndividualProperties&#45;&gt;IndividualCodeValueType -->
<g id="edge4" class="edge"><title>IndividualProperties&#45;&gt;IndividualCodeValueType</title>
<path fill="none" stroke="black" d="M605.683,-358.8C734.193,-352.298 929.498,-349.694 1096.39,-378 1152.83,-387.573 1210.79,-418.333 1250.71,-443.416"/>
<text text-anchor="middle" x="909.887" y="-380.6" font-family="Times New Roman,serif" font-size="8.00">RegionalCoverage</text>
</g>
<!-- IndividualAdditionalInformationType -->
<g id="ReusableTypeIndividualAdditionalInformationType" class="node"><title></title><polygon fill="#fc4a1a" stroke="black" points="784.387,-397 784.387,-433 1035.39,-433 1035.39,-397 784.387,-397" style="filter: url(#dropshadow)"/>
<text text-anchor="middle" x="841.387" y="-413.1" font-family="Times New Roman,serif" font-size="8.00">AdditionalInformationType</text>
<polyline fill="none" stroke="black" points="898.387,-397 898.387,-433 "/>
<text text-anchor="start" x="906.387" y="-417.6" font-family="Times New Roman,serif" font-size="8.00">EffectivePeriod : DateType[0...1] </text>
<text text-anchor="start" x="906.387" y="-408.6" font-family="Times New Roman,serif" font-size="8.00">Privacy : string[0...1] </text>
</g>
<!-- IndividualProperties&#45;&gt;IndividualAdditionalInformationType -->
<g id="edge5" class="edge"><title>IndividualProperties&#45;&gt;IndividualAdditionalInformationType</title>
<path fill="none" stroke="black" d="M605.447,-383.492C662.764,-389.443 728.603,-396.28 784.273,-402.06"/>
<text text-anchor="middle" x="664.387" y="-396.6" font-family="Times New Roman,serif" font-size="8.00">AdditionalInformation</text>
</g>
<!-- IndividualIndividualLanguageType -->
<g id="ReusableTypeIndividualIndividualLanguageType" class="node"><title></title><polygon fill="#fc4a1a" stroke="black" points="790.887,-452.5 790.887,-505.5 1028.89,-505.5 1028.89,-452.5 790.887,-452.5" style="filter: url(#dropshadow)"/>
<text text-anchor="middle" x="841.387" y="-477.1" font-family="Times New Roman,serif" font-size="8.00">IndividualLanguageType</text>
<polyline fill="none" stroke="black" points="891.887,-452.5 891.887,-505.5 "/>
<text text-anchor="start" x="899.887" y="-495.1" font-family="Times New Roman,serif" font-size="8.00">Language : CodeValueType[0...1] </text>
<text text-anchor="start" x="899.887" y="-486.1" font-family="Times New Roman,serif" font-size="8.00">Read : CodeValueType[0...1] </text>
<text text-anchor="start" x="899.887" y="-477.1" font-family="Times New Roman,serif" font-size="8.00">Write : CodeValueType[0...1] </text>
<text text-anchor="start" x="899.887" y="-468.1" font-family="Times New Roman,serif" font-size="8.00">Speak : CodeValueType[0...1] </text>
<text text-anchor="start" x="899.887" y="-459.1" font-family="Times New Roman,serif" font-size="8.00">EffectivePeriod : DateType[0...1] </text>
</g>
<!-- IndividualProperties&#45;&gt;IndividualIndividualLanguageType -->
<g id="edge6" class="edge"><title>IndividualProperties&#45;&gt;IndividualIndividualLanguageType</title>
<path fill="none" stroke="black" d="M599.335,-409.008C639.08,-420.333 682.845,-432.226 723.387,-442 745.096,-447.233 768.36,-452.297 790.821,-456.912"/>
<text text-anchor="middle" x="664.387" y="-439.6" font-family="Times New Roman,serif" font-size="8.00">LanguageAbility</text>
</g>
<!-- IndividualContactInformationType -->
<g id="ReusableTypeIndividualContactInformationType" class="node"><title></title><polygon fill="#fc4a1a" stroke="black" points="763.887,-524.5 763.887,-613.5 1055.89,-613.5 1055.89,-524.5 763.887,-524.5" style="filter: url(#dropshadow)"/>
<text text-anchor="middle" x="816.887" y="-567.1" font-family="Times New Roman,serif" font-size="8.00">ContactInformationType</text>
<polyline fill="none" stroke="black" points="869.887,-524.5 869.887,-613.5 "/>
<text text-anchor="start" x="877.887" y="-603.1" font-family="Times New Roman,serif" font-size="8.00">LocationName : LocationNameType[0...n] </text>
<text text-anchor="start" x="877.887" y="-594.1" font-family="Times New Roman,serif" font-size="8.00">Address : AddressType[0...n] </text>
<text text-anchor="start" x="877.887" y="-585.1" font-family="Times New Roman,serif" font-size="8.00">Telephone : TelephoneType[0...n] </text>
<text text-anchor="start" x="877.887" y="-576.1" font-family="Times New Roman,serif" font-size="8.00">URL : URLType[0...n] </text>
<text text-anchor="start" x="877.887" y="-567.1" font-family="Times New Roman,serif" font-size="8.00">Email : EmailType[0...n] </text>
<text text-anchor="start" x="877.887" y="-558.1" font-family="Times New Roman,serif" font-size="8.00">InstantMessaging : InstantMessagingType[0...n] </text>
<text text-anchor="start" x="877.887" y="-549.1" font-family="Times New Roman,serif" font-size="8.00">RegionalCoverage : CodeValueType[0...1] </text>
<text text-anchor="start" x="877.887" y="-540.1" font-family="Times New Roman,serif" font-size="8.00">TypeOfLocation : CodeValueType[0...1] </text>
<text text-anchor="start" x="877.887" y="-531.1" font-family="Times New Roman,serif" font-size="8.00">Privacy : string[0...1] </text>
</g>
<!-- IndividualProperties&#45;&gt;IndividualContactInformationType -->
<g id="edge7" class="edge"><title>IndividualProperties&#45;&gt;IndividualContactInformationType</title>
<path fill="none" stroke="black" d="M527.037,-409.071C577.949,-441.09 653.2,-485.364 723.387,-515 736.21,-520.415 749.751,-525.493 763.439,-530.201"/>
<text text-anchor="middle" x="664.387" y="-508.6" font-family="Times New Roman,serif" font-size="8.00">ContactInformation</text>
</g>
<!-- IndividualIndividualLanguageType&#45;&gt;IndividualCodeValueType -->
<g id="edge8" class="edge"><title>IndividualIndividualLanguageType&#45;&gt;IndividualCodeValueType</title>
<path fill="none" stroke="black" d="M1029.02,-469.483C1052.65,-463.822 1076.35,-455.159 1096.39,-442 1108.13,-434.285 1101.94,-422.523 1114.39,-416 1139.19,-403.005 1150.15,-409.501 1177.39,-416 1200.83,-421.594 1224.86,-432.357 1245.48,-443.425"/>
<text text-anchor="middle" x="1145.89" y="-418.6" font-family="Times New Roman,serif" font-size="8.00">Language</text>
</g>
<!-- IndividualIndividualLanguageType&#45;&gt;IndividualCodeValueType -->
<g id="edge9" class="edge"><title>IndividualIndividualLanguageType&#45;&gt;IndividualCodeValueType</title>
<path fill="none" stroke="black" d="M1029,-453.154C1075.29,-446.193 1128.84,-442.047 1177.39,-448 1183.25,-448.718 1189.23,-449.62 1195.24,-450.66"/>
<text text-anchor="middle" x="1145.89" y="-450.6" font-family="Times New Roman,serif" font-size="8.00">Read</text>
</g>
<!-- IndividualIndividualLanguageType&#45;&gt;IndividualCodeValueType -->
<g id="edge10" class="edge"><title>IndividualIndividualLanguageType&#45;&gt;IndividualCodeValueType</title>
<path fill="none" stroke="black" d="M1029,-479C1081.83,-479 1143.65,-479 1195.08,-479"/>
<text text-anchor="middle" x="1145.89" y="-481.6" font-family="Times New Roman,serif" font-size="8.00">Write</text>
</g>
<!-- IndividualIndividualLanguageType&#45;&gt;IndividualCodeValueType -->
<g id="edge11" class="edge"><title>IndividualIndividualLanguageType&#45;&gt;IndividualCodeValueType</title>
<path fill="none" stroke="black" d="M1028.96,-487.366C1075.25,-489.615 1128.81,-490.948 1177.39,-489 1183.24,-488.765 1189.24,-488.469 1195.29,-488.127"/>
<text text-anchor="middle" x="1145.89" y="-492.6" font-family="Times New Roman,serif" font-size="8.00">Speak</text>
</g>
<!-- IndividualContactInformationType&#45;&gt;IndividualCodeValueType -->
<g id="edge12" class="edge"><title>IndividualContactInformationType&#45;&gt;IndividualCodeValueType</title>
<path fill="none" stroke="black" d="M1055.93,-535.615C1102.11,-524.985 1152.32,-513.426 1195.27,-503.541"/>
<text text-anchor="middle" x="1145.89" y="-524.6" font-family="Times New Roman,serif" font-size="8.00">RegionalCoverage</text>
</g>
<!-- IndividualContactInformationType&#45;&gt;IndividualCodeValueType -->
<g id="edge13" class="edge"><title>IndividualContactInformationType&#45;&gt;IndividualCodeValueType</title>
<path fill="none" stroke="black" d="M1055.95,-558.376C1095.79,-553.336 1138.67,-545.916 1177.39,-535 1195.75,-529.823 1214.87,-522.365 1232.47,-514.571"/>
<text text-anchor="middle" x="1145.89" y="-551.6" font-family="Times New Roman,serif" font-size="8.00">TypeOfLocation</text>
</g>
<!-- OrganizationGroup -->
<g id="ItemTypeOrganizationGroup" class="node"><title></title><ellipse fill="#f7b733" stroke="black" cx="60.6934" cy="-720" rx="47.16" ry="18" style="filter: url(#dropshadow)"/>
<text text-anchor="middle" x="60.6934" y="-718.1" font-family="Times New Roman,serif" font-size="8.00">OrganizationGroup</text>
</g>
<!-- OrganizationGroup&#45;&gt;IndividualProperties -->
<g id="edge14" class="edge"><title>OrganizationGroup&#45;&gt;IndividualProperties</title>
<path fill="none" stroke="black" d="M106.455,-724.378C159.321,-727.154 247.499,-723.998 306.387,-681 322.941,-668.913 337.869,-654.583 351.311,-638.812"/>
<text text-anchor="middle" x="222.887" y="-727.6" font-family="Times New Roman,serif" font-size="8.00">IndividualReference</text>
</g>
<!-- OrganizationScheme -->
<g id="ItemTypeOrganizationScheme0" class="node"><title></title><ellipse fill="#f7b733" stroke="black" cx="60.6934" cy="-666" rx="49.8323" ry="18" style="filter: url(#dropshadow)"/>
<text text-anchor="middle" x="60.6934" y="-664.1" font-family="Times New Roman,serif" font-size="8.00">OrganizationScheme</text>
</g>
<!-- OrganizationScheme&#45;&gt;IndividualProperties -->
<g id="edge15" class="edge"><title>OrganizationScheme&#45;&gt;IndividualProperties</title>
<path fill="none" stroke="black" d="M110.125,-668.681C162.831,-669.216 247.443,-662.882 306.387,-623 309.862,-620.649 313.274,-618.193 316.625,-615.641"/>
<text text-anchor="middle" x="222.887" y="-670.6" font-family="Times New Roman,serif" font-size="8.00">IndividualReference</text>
</g>
<!-- Versionable -->
<g id="ItemTypeVersionable1" class="node"><title></title><ellipse fill="#f7b733" stroke="black" cx="60.6934" cy="-612" rx="31.5313" ry="18" style="filter: url(#dropshadow)"/>
<text text-anchor="middle" x="60.6934" y="-610.1" font-family="Times New Roman,serif" font-size="8.00">Versionable</text>
</g>
<!-- Versionable&#45;&gt;IndividualProperties -->
<g id="edge16" class="edge"><title>Versionable&#45;&gt;IndividualProperties</title>
<path fill="none" stroke="black" d="M92.6846,-612.505C141.606,-611.931 238.17,-605.127 306.387,-564 309.801,-561.942 313.172,-559.781 316.499,-557.528"/>
<text text-anchor="middle" x="222.887" y="-612.6" font-family="Times New Roman,serif" font-size="8.00">VersionResponsibilityReference_Individual</text>
</g>
<!-- AccessType -->
<g id="ReusableTypeAccessType2" class="node"><title></title><ellipse fill="#f7b733" stroke="black" cx="60.6934" cy="-558" rx="33.433" ry="18" style="filter: url(#dropshadow)"/>
<text text-anchor="middle" x="60.6934" y="-556.1" font-family="Times New Roman,serif" font-size="8.00">AccessType</text>
</g>
<!-- AccessType&#45;&gt;IndividualProperties -->
<g id="edge17" class="edge"><title>AccessType&#45;&gt;IndividualProperties</title>
<path fill="none" stroke="black" d="M94.2526,-555.865C142.784,-551.597 235.932,-539.163 306.387,-504 309.891,-502.251 313.381,-500.408 316.852,-498.48"/>
<text text-anchor="middle" x="222.887" y="-553.6" font-family="Times New Roman,serif" font-size="8.00">ContactOrganizationReference_Individual</text>
</g>
<!-- ArchiveSpecificType -->
<g id="ReusableTypeArchiveSpecificType3" class="node"><title></title><ellipse fill="#f7b733" stroke="black" cx="60.6934" cy="-504" rx="51.1011" ry="18" style="filter: url(#dropshadow)"/>
<text text-anchor="middle" x="60.6934" y="-502.1" font-family="Times New Roman,serif" font-size="8.00">ArchiveSpecificType</text>
</g>
<!-- ArchiveSpecificType&#45;&gt;IndividualProperties -->
<g id="edge18" class="edge"><title>ArchiveSpecificType&#45;&gt;IndividualProperties</title>
<path fill="none" stroke="black" d="M108.212,-497.091C158.171,-488.859 239.404,-473.112 306.387,-449 309.754,-447.788 313.141,-446.52 316.54,-445.204"/>
<text text-anchor="middle" x="222.887" y="-493.6" font-family="Times New Roman,serif" font-size="8.00">ArchiveOrganizationReference_Individual</text>
</g>
<!-- AuthorizationSourceType -->
<g id="ReusableTypeAuthorizationSourceType4" class="node"><title></title><ellipse fill="#f7b733" stroke="black" cx="60.6934" cy="-450" rx="60.8874" ry="18" style="filter: url(#dropshadow)"/>
<text text-anchor="middle" x="60.6934" y="-448.1" font-family="Times New Roman,serif" font-size="8.00">AuthorizationSourceType</text>
</g>
<!-- AuthorizationSourceType&#45;&gt;IndividualProperties -->
<g id="edge19" class="edge"><title>AuthorizationSourceType&#45;&gt;IndividualProperties</title>
<path fill="none" stroke="black" d="M113.346,-440.799C162.935,-431.845 239.906,-417.632 306.387,-404 309.705,-403.32 313.062,-402.625 316.445,-401.92"/>
<text text-anchor="middle" x="222.887" y="-438.6" font-family="Times New Roman,serif" font-size="8.00">AuthorizingAgencyReference_Individual</text>
</g>
<!-- CollectionEventType -->
<g id="ReusableTypeCollectionEventType5" class="node"><title></title><ellipse fill="#f7b733" stroke="black" cx="60.6934" cy="-396" rx="52.3706" ry="18" style="filter: url(#dropshadow)"/>
<text text-anchor="middle" x="60.6934" y="-394.1" font-family="Times New Roman,serif" font-size="8.00">CollectionEventType</text>
</g>
<!-- CollectionEventType&#45;&gt;IndividualProperties -->
<g id="edge20" class="edge"><title>CollectionEventType&#45;&gt;IndividualProperties</title>
<path fill="none" stroke="black" d="M112.224,-392.608C163.318,-389.178 244.754,-383.711 316.398,-378.901"/>
<text text-anchor="middle" x="222.887" y="-393.6" font-family="Times New Roman,serif" font-size="8.00">DataCollectorOrganizationReference_Individual</text>
</g>
<!-- ContributorType -->
<g id="ReusableTypeContributorType6" class="node"><title></title><ellipse fill="#f7b733" stroke="black" cx="60.6934" cy="-342" rx="43.219" ry="18" style="filter: url(#dropshadow)"/>
<text text-anchor="middle" x="60.6934" y="-340.1" font-family="Times New Roman,serif" font-size="8.00">ContributorType</text>
</g>
<!-- ContributorType&#45;&gt;IndividualProperties -->
<g id="edge21" class="edge"><title>ContributorType&#45;&gt;IndividualProperties</title>
<path fill="none" stroke="black" d="M103.597,-344.813C153.883,-348.189 240.931,-354.033 316.866,-359.13"/>
<text text-anchor="middle" x="222.887" y="-360.6" font-family="Times New Roman,serif" font-size="8.00">ContributorReference</text>
</g>
<!-- CreatorType -->
<g id="ReusableTypeCreatorType7" class="node"><title></title><ellipse fill="#f7b733" stroke="black" cx="60.6934" cy="-288" rx="35.3371" ry="18" style="filter: url(#dropshadow)"/>
<text text-anchor="middle" x="60.6934" y="-286.1" font-family="Times New Roman,serif" font-size="8.00">CreatorType</text>
</g>
<!-- CreatorType&#45;&gt;IndividualProperties -->
<g id="edge22" class="edge"><title>CreatorType&#45;&gt;IndividualProperties</title>
<path fill="none" stroke="black" d="M94.1965,-293.999C141.114,-302.713 230.517,-319.526 306.387,-335 309.702,-335.676 313.055,-336.364 316.435,-337.062"/>
<text text-anchor="middle" x="222.887" y="-337.6" font-family="Times New Roman,serif" font-size="8.00">CreatorReference</text>
</g>
<!-- DataFileVersionType -->
<g id="ReusableTypeDataFileVersionType8" class="node"><title></title><ellipse fill="#f7b733" stroke="black" cx="60.6934" cy="-234" rx="51.7358" ry="18" style="filter: url(#dropshadow)"/>
<text text-anchor="middle" x="60.6934" y="-232.1" font-family="Times New Roman,serif" font-size="8.00">DataFileVersionType</text>
</g>
<!-- DataFileVersionType&#45;&gt;IndividualProperties -->
<g id="edge23" class="edge"><title>DataFileVersionType&#45;&gt;IndividualProperties</title>
<path fill="none" stroke="black" d="M108.154,-241.518C158.064,-250.351 239.257,-266.925 306.387,-291 309.753,-292.207 313.14,-293.467 316.541,-294.773"/>
<text text-anchor="middle" x="222.887" y="-293.6" font-family="Times New Roman,serif" font-size="8.00">VersionResponsibilityReference_Individual</text>
</g>
<!-- EvaluatorType -->
<g id="ReusableTypeEvaluatorType9" class="node"><title></title><ellipse fill="#f7b733" stroke="black" cx="60.6934" cy="-180" rx="39.278" ry="18" style="filter: url(#dropshadow)"/>
<text text-anchor="middle" x="60.6934" y="-178.1" font-family="Times New Roman,serif" font-size="8.00">EvaluatorType</text>
</g>
<!-- EvaluatorType&#45;&gt;IndividualProperties -->
<g id="edge24" class="edge"><title>EvaluatorType&#45;&gt;IndividualProperties</title>
<path fill="none" stroke="black" d="M99.6166,-183.084C149.374,-188.349 238.351,-202.027 306.387,-236 309.833,-237.721 313.267,-239.532 316.685,-241.422"/>
<text text-anchor="middle" x="222.887" y="-238.6" font-family="Times New Roman,serif" font-size="8.00">EvaluatorReference_Individual</text>
</g>
<!-- OperationType -->
<g id="ReusableTypeOperationType0" class="node"><title></title><ellipse fill="#f7b733" stroke="black" cx="60.6934" cy="-126" rx="40.0477" ry="18" style="filter: url(#dropshadow)"/>
<text text-anchor="middle" x="60.6934" y="-124.1" font-family="Times New Roman,serif" font-size="8.00">OperationType</text>
</g>
<!-- OperationType&#45;&gt;IndividualProperties -->
<g id="edge25" class="edge"><title>OperationType&#45;&gt;IndividualProperties</title>
<path fill="none" stroke="black" d="M101.056,-126.086C151.988,-127.888 241.831,-136.956 306.387,-176 309.767,-178.044 313.106,-180.188 316.402,-182.422"/>
<text text-anchor="middle" x="222.887" y="-178.6" font-family="Times New Roman,serif" font-size="8.00">AgencyOrganizationReference_Individual</text>
</g>
<!-- SourceObjectType -->
<g id="ReusableTypeSourceObjectType1" class="node"><title></title><ellipse fill="#f7b733" stroke="black" cx="60.6934" cy="-72" rx="45.2568" ry="18" style="filter: url(#dropshadow)"/>
<text text-anchor="middle" x="60.6934" y="-70.1" font-family="Times New Roman,serif" font-size="8.00">SourceObjectType</text>
</g>
<!-- SourceObjectType&#45;&gt;IndividualProperties -->
<g id="edge26" class="edge"><title>SourceObjectType&#45;&gt;IndividualProperties</title>
<path fill="none" stroke="black" d="M105.886,-69.6106C158.198,-68.9602 245.837,-74.9354 306.387,-116 314.493,-121.498 322.262,-127.566 329.699,-134.091"/>
<text text-anchor="middle" x="222.887" y="-118.6" font-family="Times New Roman,serif" font-size="8.00">IndividualReference</text>
</g>
<!-- TargetObjectType -->
<g id="ReusableTypeTargetObjectType2" class="node"><title></title><ellipse fill="#f7b733" stroke="black" cx="60.6934" cy="-18" rx="45.891" ry="18" style="filter: url(#dropshadow)"/>
<text text-anchor="middle" x="60.6934" y="-16.1" font-family="Times New Roman,serif" font-size="8.00">TargetObjectType</text>
</g>
<!-- TargetObjectType&#45;&gt;IndividualProperties -->
<g id="edge27" class="edge"><title>TargetObjectType&#45;&gt;IndividualProperties</title>
<path fill="none" stroke="black" d="M105.529,-13.8957C158.293,-11.2946 247.172,-14.6412 306.387,-58 334.142,-78.3228 357.336,-104.952 376.627,-134.085"/>
<text text-anchor="middle" x="222.887" y="-60.6" font-family="Times New Roman,serif" font-size="8.00">IndividualReference</text>
</g>
</g>
</svg>
