<?xml version="1.0" encoding="UTF-8" standalone="no"?>
<!DOCTYPE svg PUBLIC "-//W3C//DTD SVG 1.1//EN"
 "http://www.w3.org/Graphics/SVG/1.1/DTD/svg11.dtd">
<!-- Generated by graphviz version 2.38.0 (20140413.2041)
 -->
<!-- Title: G Pages: 1 -->
<svg width="870pt" height="396pt"
 viewBox="0.00 0.00 870.27 396.00" xmlns="http://www.w3.org/2000/svg" xmlns:xlink="http://www.w3.org/1999/xlink">
<filter id = "dropshadow" height = "130%" ><feGaussianBlur in= "SourceAlpha" stdDeviation = "3"/><!--stdDeviation is how much to blur--><feOffset dx = "2" dy = "2" result = "offsetblur"/><!--how much to offset--><feMerge><feMergeNode/><!--this contains the offset blurred image--><feMergeNode in= "SourceGraphic"/><!--this contains the element that the filter is applied to --></feMerge></filter>
<g id="graph0" class="graph" transform="scale(1 1) rotate(0) translate(4 392)">
<title>G</title>
<g id="clust1" class="cluster"><title>clusterInstruction</title>
<polygon fill="#4abdac" stroke="black" points="278.269,-8 278.269,-380 854.269,-380 854.269,-8 278.269,-8" style="filter: url(#dropshadow)"/>
<text text-anchor="middle" x="566.269" y="-369.6" font-family="Times New Roman,serif" font-size="8.00">Instruction</text>
</g>
<!-- InstructionProperties -->
<g id="ItemTypeInstructionProperties" class="node"><title></title><polygon fill="#f7b733" stroke="black" points="286.269,-154 286.269,-216 509.269,-216 509.269,-154 286.269,-154" style="filter: url(#dropshadow)"/>
<text text-anchor="middle" x="312.769" y="-183.1" font-family="Times New Roman,serif" font-size="8.00">Properties</text>
<polyline fill="none" stroke="black" points="339.269,-154 339.269,-216 "/>
<text text-anchor="start" x="347.269" y="-205.6" font-family="Times New Roman,serif" font-size="8.00">InstructionName : NameType[0...n] </text>
<text text-anchor="start" x="347.269" y="-196.6" font-family="Times New Roman,serif" font-size="8.00">Label : LabelType[0...n] </text>
<text text-anchor="start" x="347.269" y="-187.6" font-family="Times New Roman,serif" font-size="8.00">Description : StructuredStringType[0...1] </text>
<text text-anchor="start" x="347.269" y="-178.6" font-family="Times New Roman,serif" font-size="8.00">InParameter : InParameterType[0...n] </text>
<text text-anchor="start" x="347.269" y="-169.6" font-family="Times New Roman,serif" font-size="8.00">AssociatedImage : ImageType[0...n] </text>
<text text-anchor="start" x="347.269" y="-160.6" font-family="Times New Roman,serif" font-size="8.00">InstructionText : DynamicTextType[0...n] </text>
</g>
<!-- InstructionNameType -->
<g id="ReusableTypeInstructionNameType" class="node"><title></title><polygon fill="#fc4a1a" stroke="black" points="640.769,-17 640.769,-53 809.769,-53 809.769,-17 640.769,-17" style="filter: url(#dropshadow)"/>
<text text-anchor="middle" x="668.769" y="-33.1" font-family="Times New Roman,serif" font-size="8.00">NameType</text>
<polyline fill="none" stroke="black" points="696.769,-17 696.769,-53 "/>
<text text-anchor="start" x="704.769" y="-37.6" font-family="Times New Roman,serif" font-size="8.00">IsPreferred : boolean[0...1] </text>
<text text-anchor="start" x="704.769" y="-28.6" font-family="Times New Roman,serif" font-size="8.00">Context : string[0...1] </text>
</g>
<!-- InstructionProperties&#45;&gt;InstructionNameType -->
<g id="edge1" class="edge"><title>InstructionProperties&#45;&gt;InstructionNameType</title>
<path fill="none" stroke="black" d="M442.02,-153.956C482.261,-126.408 544.799,-86.9255 604.269,-63 615.78,-58.3689 628.235,-54.3991 640.615,-51.0285"/>
<text text-anchor="middle" x="556.769" y="-103.6" font-family="Times New Roman,serif" font-size="8.00">InstructionName</text>
</g>
<!-- InstructionLabelType -->
<g id="ReusableTypeInstructionLabelType" class="node"><title></title><polygon fill="#fc4a1a" stroke="black" points="623.769,-72.5 623.769,-125.5 826.769,-125.5 826.769,-72.5 623.769,-72.5" style="filter: url(#dropshadow)"/>
<text text-anchor="middle" x="650.769" y="-97.1" font-family="Times New Roman,serif" font-size="8.00">LabelType</text>
<polyline fill="none" stroke="black" points="677.769,-72.5 677.769,-125.5 "/>
<text text-anchor="start" x="685.769" y="-115.1" font-family="Times New Roman,serif" font-size="8.00">TypeOfLabel : CodeValueType[0...1] </text>
<text text-anchor="start" x="685.769" y="-106.1" font-family="Times New Roman,serif" font-size="8.00">LocationVariant : string[0...1] </text>
<text text-anchor="start" x="685.769" y="-97.1" font-family="Times New Roman,serif" font-size="8.00">ValidForStartDate : cogsDate[0...1] </text>
<text text-anchor="start" x="685.769" y="-88.1" font-family="Times New Roman,serif" font-size="8.00">ValidForEndDate : cogsDate[0...1] </text>
<text text-anchor="start" x="685.769" y="-79.1" font-family="Times New Roman,serif" font-size="8.00">MaxLength : int[0...1] </text>
</g>
<!-- InstructionProperties&#45;&gt;InstructionLabelType -->
<g id="edge2" class="edge"><title>InstructionProperties&#45;&gt;InstructionLabelType</title>
<path fill="none" stroke="black" d="M509.423,-155.764C546.468,-145.977 587.538,-135.126 623.764,-125.554"/>
<text text-anchor="middle" x="556.769" y="-152.6" font-family="Times New Roman,serif" font-size="8.00">Label</text>
</g>
<!-- InstructionStructuredStringType -->
<g id="ReusableTypeInstructionStructuredStringType" class="node"><title></title><polygon fill="#fc4a1a" stroke="black" points="618.769,-145 618.769,-181 831.769,-181 831.769,-145 618.769,-145" style="filter: url(#dropshadow)"/>
<text text-anchor="middle" x="663.769" y="-161.1" font-family="Times New Roman,serif" font-size="8.00">StructuredStringType</text>
<polyline fill="none" stroke="black" points="708.769,-145 708.769,-181 "/>
<text text-anchor="start" x="716.769" y="-161.1" font-family="Times New Roman,serif" font-size="8.00">Content : ContentType[0...n] </text>
</g>
<!-- InstructionProperties&#45;&gt;InstructionStructuredStringType -->
<g id="edge3" class="edge"><title>InstructionProperties&#45;&gt;InstructionStructuredStringType</title>
<path fill="none" stroke="black" d="M509.423,-177.521C544.717,-175.136 583.665,-172.503 618.596,-170.142"/>
<text text-anchor="middle" x="556.769" y="-178.6" font-family="Times New Roman,serif" font-size="8.00">Description</text>
</g>
<!-- InstructionInParameterType -->
<g id="ReusableTypeInstructionInParameterType" class="node"><title></title><polygon fill="#fc4a1a" stroke="black" points="622.769,-200 622.769,-236 827.769,-236 827.769,-200 622.769,-200" style="filter: url(#dropshadow)"/>
<text text-anchor="middle" x="662.269" y="-216.1" font-family="Times New Roman,serif" font-size="8.00">InParameterType</text>
<polyline fill="none" stroke="black" points="701.769,-200 701.769,-236 "/>
<text text-anchor="start" x="709.769" y="-216.1" font-family="Times New Roman,serif" font-size="8.00">LimitArrayIndex : string[0...1] </text>
</g>
<!-- InstructionProperties&#45;&gt;InstructionInParameterType -->
<g id="edge4" class="edge"><title>InstructionProperties&#45;&gt;InstructionInParameterType</title>
<path fill="none" stroke="black" d="M509.423,-196.218C546.099,-199.937 586.721,-204.055 622.681,-207.701"/>
<text text-anchor="middle" x="556.769" y="-206.6" font-family="Times New Roman,serif" font-size="8.00">InParameter</text>
</g>
<!-- InstructionImageType -->
<g id="ReusableTypeInstructionImageType" class="node"><title></title><polygon fill="#fc4a1a" stroke="black" points="621.769,-255 621.769,-299 828.769,-299 828.769,-255 621.769,-255" style="filter: url(#dropshadow)"/>
<text text-anchor="middle" x="649.769" y="-275.1" font-family="Times New Roman,serif" font-size="8.00">ImageType</text>
<polyline fill="none" stroke="black" points="677.769,-255 677.769,-299 "/>
<text text-anchor="start" x="685.769" y="-288.6" font-family="Times New Roman,serif" font-size="8.00">ImageLocation : anyURI[0...1] </text>
<text text-anchor="start" x="685.769" y="-279.6" font-family="Times New Roman,serif" font-size="8.00">TypeOfImage : CodeValueType[0...1] </text>
<text text-anchor="start" x="685.769" y="-270.6" font-family="Times New Roman,serif" font-size="8.00">Dpi : int[0...1] </text>
<text text-anchor="start" x="685.769" y="-261.6" font-family="Times New Roman,serif" font-size="8.00">LanguageOfImage : language[0...1] </text>
</g>
<!-- InstructionProperties&#45;&gt;InstructionImageType -->
<g id="edge5" class="edge"><title>InstructionProperties&#45;&gt;InstructionImageType</title>
<path fill="none" stroke="black" d="M500.737,-216.051C533.704,-225.88 570.471,-236.621 604.269,-246 614.947,-248.963 626.185,-251.988 637.326,-254.931"/>
<text text-anchor="middle" x="556.769" y="-241.6" font-family="Times New Roman,serif" font-size="8.00">AssociatedImage</text>
</g>
<!-- InstructionDynamicTextType -->
<g id="ReusableTypeInstructionDynamicTextType" class="node"><title></title><polygon fill="#fc4a1a" stroke="black" points="604.269,-318 604.269,-354 846.269,-354 846.269,-318 604.269,-318" style="filter: url(#dropshadow)"/>
<text text-anchor="middle" x="646.269" y="-334.1" font-family="Times New Roman,serif" font-size="8.00">DynamicTextType</text>
<polyline fill="none" stroke="black" points="688.269,-318 688.269,-354 "/>
<text text-anchor="start" x="696.269" y="-343.1" font-family="Times New Roman,serif" font-size="8.00">TextContent : TextContentType[0...n] </text>
<text text-anchor="start" x="696.269" y="-334.1" font-family="Times New Roman,serif" font-size="8.00">IsStructureRequired : boolean[0...1] </text>
<text text-anchor="start" x="696.269" y="-325.1" font-family="Times New Roman,serif" font-size="8.00">AudienceLanguage : language[0...1] </text>
</g>
<!-- InstructionProperties&#45;&gt;InstructionDynamicTextType -->
<g id="edge6" class="edge"><title>InstructionProperties&#45;&gt;InstructionDynamicTextType</title>
<path fill="none" stroke="black" d="M441.118,-216.156C481.243,-244.278 544.147,-284.839 604.269,-309 612.591,-312.344 621.412,-315.318 630.345,-317.953"/>
<text text-anchor="middle" x="556.769" y="-300.6" font-family="Times New Roman,serif" font-size="8.00">InstructionText</text>
</g>
<!-- ControlConstruct -->
<g id="ItemTypeControlConstruct" class="node"><title></title><ellipse fill="#f7b733" stroke="black" cx="68.6346" cy="-320" rx="43.8539" ry="18" style="filter: url(#dropshadow)"/>
<text text-anchor="middle" x="68.6346" y="-318.1" font-family="Times New Roman,serif" font-size="8.00">ControlConstruct</text>
</g>
<!-- ControlConstruct&#45;&gt;InstructionProperties -->
<g id="edge7" class="edge"><title>ControlConstruct&#45;&gt;InstructionProperties</title>
<path fill="none" stroke="black" d="M106.325,-310.775C146.813,-300.046 213.497,-280.736 268.269,-257 271.627,-255.545 275.012,-254.027 278.409,-252.459"/>
<text text-anchor="middle" x="211.769" y="-298.6" font-family="Times New Roman,serif" font-size="8.00">InterviewerInstructionReference</text>
</g>
<!-- InstructionGroup -->
<g id="ItemTypeInstructionGroup" class="node"><title></title><ellipse fill="#f7b733" stroke="black" cx="68.6346" cy="-266" rx="43.219" ry="18" style="filter: url(#dropshadow)"/>
<text text-anchor="middle" x="68.6346" y="-264.1" font-family="Times New Roman,serif" font-size="8.00">InstructionGroup</text>
</g>
<!-- InstructionGroup&#45;&gt;InstructionProperties -->
<g id="edge8" class="edge"><title>InstructionGroup&#45;&gt;InstructionProperties</title>
<path fill="none" stroke="black" d="M106.649,-257.222C146.571,-247.716 211.985,-232.027 268.269,-218 271.719,-217.14 275.221,-216.264 278.755,-215.377"/>
<text text-anchor="middle" x="211.769" y="-246.6" font-family="Times New Roman,serif" font-size="8.00">InstructionReference</text>
</g>
<!-- InterviewerInstructionScheme -->
<g id="ItemTypeInterviewerInstructionScheme0" class="node"><title></title><ellipse fill="#f7b733" stroke="black" cx="68.6346" cy="-212" rx="68.7695" ry="18" style="filter: url(#dropshadow)"/>
<text text-anchor="middle" x="68.6346" y="-210.1" font-family="Times New Roman,serif" font-size="8.00">InterviewerInstructionScheme</text>
</g>
<!-- InterviewerInstructionScheme&#45;&gt;InstructionProperties -->
<g id="edge9" class="edge"><title>InterviewerInstructionScheme&#45;&gt;InstructionProperties</title>
<path fill="none" stroke="black" d="M134.266,-206.666C175.36,-203.274 229.8,-198.781 278.445,-194.766"/>
<text text-anchor="middle" x="211.769" y="-207.6" font-family="Times New Roman,serif" font-size="8.00">InstructionReference</text>
</g>
<!-- QuestionBlock -->
<g id="ItemTypeQuestionBlock1" class="node"><title></title><ellipse fill="#f7b733" stroke="black" cx="68.6346" cy="-158" rx="38.6432" ry="18" style="filter: url(#dropshadow)"/>
<text text-anchor="middle" x="68.6346" y="-156.1" font-family="Times New Roman,serif" font-size="8.00">QuestionBlock</text>
</g>
<!-- QuestionBlock&#45;&gt;InstructionProperties -->
<g id="edge10" class="edge"><title>QuestionBlock&#45;&gt;InstructionProperties</title>
<path fill="none" stroke="black" d="M106.843,-161.071C148.437,-164.504 217.905,-170.237 278.414,-175.232"/>
<text text-anchor="middle" x="211.769" y="-176.6" font-family="Times New Roman,serif" font-size="8.00">InterviewerInstructionReference</text>
</g>
<!-- QuestionGrid -->
<g id="ItemTypeQuestionGrid2" class="node"><title></title><ellipse fill="#f7b733" stroke="black" cx="68.6346" cy="-104" rx="35.3371" ry="18" style="filter: url(#dropshadow)"/>
<text text-anchor="middle" x="68.6346" y="-102.1" font-family="Times New Roman,serif" font-size="8.00">QuestionGrid</text>
</g>
<!-- QuestionGrid&#45;&gt;InstructionProperties -->
<g id="edge11" class="edge"><title>QuestionGrid&#45;&gt;InstructionProperties</title>
<path fill="none" stroke="black" d="M100.605,-111.618C139.688,-121.235 208.971,-138.303 268.269,-153 271.714,-153.854 275.211,-154.721 278.741,-155.597"/>
<text text-anchor="middle" x="211.769" y="-155.6" font-family="Times New Roman,serif" font-size="8.00">InterviewerInstructionReference</text>
</g>
<!-- QuestionItem -->
<g id="ItemTypeQuestionItem3" class="node"><title></title><ellipse fill="#f7b733" stroke="black" cx="68.6346" cy="-50" rx="36.1063" ry="18" style="filter: url(#dropshadow)"/>
<text text-anchor="middle" x="68.6346" y="-48.1" font-family="Times New Roman,serif" font-size="8.00">QuestionItem</text>
</g>
<!-- QuestionItem&#45;&gt;InstructionProperties -->
<g id="edge12" class="edge"><title>QuestionItem&#45;&gt;InstructionProperties</title>
<path fill="none" stroke="black" d="M101.284,-58.1591C141.067,-68.874 211.073,-89.2604 268.269,-114 271.677,-115.474 275.113,-117.01 278.562,-118.596"/>
<text text-anchor="middle" x="211.769" y="-116.6" font-family="Times New Roman,serif" font-size="8.00">InterviewerInstructionReference</text>
</g>
</g>
</svg>
