<?xml version="1.0" encoding="UTF-8" standalone="no"?>
<!DOCTYPE svg PUBLIC "-//W3C//DTD SVG 1.1//EN"
 "http://www.w3.org/Graphics/SVG/1.1/DTD/svg11.dtd">
<!-- Generated by graphviz version 2.38.0 (20140413.2041)
 -->
<!-- Title: G Pages: 1 -->
<svg width="751pt" height="967pt"
 viewBox="0.00 0.00 750.81 967.40" xmlns="http://www.w3.org/2000/svg" xmlns:xlink="http://www.w3.org/1999/xlink">
<filter id = "dropshadow" height = "130%" ><feGaussianBlur in= "SourceAlpha" stdDeviation = "3"/><!--stdDeviation is how much to blur--><feOffset dx = "2" dy = "2" result = "offsetblur"/><!--how much to offset--><feMerge><feMergeNode/><!--this contains the offset blurred image--><feMergeNode in= "SourceGraphic"/><!--this contains the element that the filter is applied to --></feMerge></filter>
<g id="graph0" class="graph" transform="scale(1 1) rotate(0) translate(4 963.4)">
<title>G</title>
<g id="clust1" class="cluster"><title>clusterInternationalStringType</title>
<polygon fill="#4abdac" stroke="black" points="273.807,-474.4 273.807,-561.4 734.807,-561.4 734.807,-474.4 273.807,-474.4" style="filter: url(#dropshadow)"/>
<text text-anchor="middle" x="504.307" y="-551" font-family="Times New Roman,serif" font-size="8.00">InternationalStringType</text>
</g>
<!-- InternationalStringTypeProperties -->
<g id="ReusableTypeInternationalStringTypeProperties" class="node"><title></title><polygon fill="#f7b733" stroke="black" points="281.807,-491.4 281.807,-527.4 441.807,-527.4 441.807,-491.4 281.807,-491.4" style="filter: url(#dropshadow)"/>
<text text-anchor="middle" x="308.307" y="-507.5" font-family="Times New Roman,serif" font-size="8.00">Properties</text>
<polyline fill="none" stroke="black" points="334.807,-491.4 334.807,-527.4 "/>
<text text-anchor="start" x="342.807" y="-507.5" font-family="Times New Roman,serif" font-size="8.00">String : StringType[0...n] </text>
</g>
<!-- InternationalStringTypeStringType -->
<g id="ReusableTypeInternationalStringTypeStringType" class="node"><title></title><polygon fill="#fc4a1a" stroke="black" points="498.807,-482.9 498.807,-535.9 726.807,-535.9 726.807,-482.9 498.807,-482.9" style="filter: url(#dropshadow)"/>
<text text-anchor="middle" x="526.807" y="-507.5" font-family="Times New Roman,serif" font-size="8.00">StringType</text>
<polyline fill="none" stroke="black" points="554.807,-482.9 554.807,-535.9 "/>
<text text-anchor="start" x="562.807" y="-525.5" font-family="Times New Roman,serif" font-size="8.00">Lang : language[0...1] </text>
<text text-anchor="start" x="562.807" y="-516.5" font-family="Times New Roman,serif" font-size="8.00">IsTranslated : boolean[0...1] </text>
<text text-anchor="start" x="562.807" y="-507.5" font-family="Times New Roman,serif" font-size="8.00">IsTranslatable : boolean[0...1] </text>
<text text-anchor="start" x="562.807" y="-498.5" font-family="Times New Roman,serif" font-size="8.00">TranslationSourceLanguage : language[0...n] </text>
<text text-anchor="start" x="562.807" y="-489.5" font-family="Times New Roman,serif" font-size="8.00">TranslationDate : date[0...1] </text>
</g>
<!-- InternationalStringTypeProperties&#45;&gt;InternationalStringTypeStringType -->
<g id="edge1" class="edge"><title>InternationalStringTypeProperties&#45;&gt;InternationalStringTypeStringType</title>
<path fill="none" stroke="black" d="M441.934,-509.4C460.02,-509.4 479.585,-509.4 498.783,-509.4"/>
<text text-anchor="middle" x="470.307" y="-512" font-family="Times New Roman,serif" font-size="8.00">String</text>
</g>
<!-- Group -->
<g id="ItemTypeGroup" class="node"><title></title><ellipse fill="#f7b733" stroke="black" cx="70.9035" cy="-941.4" rx="27" ry="18" style="filter: url(#dropshadow)"/>
<text text-anchor="middle" x="70.9035" y="-939.5" font-family="Times New Roman,serif" font-size="8.00">Group</text>
</g>
<!-- Group&#45;&gt;InternationalStringTypeProperties -->
<g id="edge2" class="edge"><title>Group&#45;&gt;InternationalStringTypeProperties</title>
<path fill="none" stroke="black" d="M97.8463,-944.291C138.818,-947.314 218.493,-946.68 263.807,-903.4 312.894,-856.516 343.046,-656.941 354.954,-561.134"/>
<text text-anchor="middle" x="211.807" y="-946" font-family="Times New Roman,serif" font-size="8.00">AnalysisUnitsCovered</text>
</g>
<!-- StudyUnit -->
<g id="ItemTypeStudyUnit" class="node"><title></title><ellipse fill="#f7b733" stroke="black" cx="70.9035" cy="-887.4" rx="28.8574" ry="18" style="filter: url(#dropshadow)"/>
<text text-anchor="middle" x="70.9035" y="-885.5" font-family="Times New Roman,serif" font-size="8.00">StudyUnit</text>
</g>
<!-- StudyUnit&#45;&gt;InternationalStringTypeProperties -->
<g id="edge3" class="edge"><title>StudyUnit&#45;&gt;InternationalStringTypeProperties</title>
<path fill="none" stroke="black" d="M99.6571,-890.567C140.9,-893.639 218.37,-892.882 263.807,-851.4 306.595,-812.335 338.797,-646.608 352.925,-561.025"/>
<text text-anchor="middle" x="211.807" y="-893" font-family="Times New Roman,serif" font-size="8.00">AnalysisUnitsCovered</text>
</g>
<!-- SubGroup -->
<g id="ItemTypeSubGroup" class="node"><title></title><ellipse fill="#f7b733" stroke="black" cx="70.9035" cy="-833.4" rx="27.5899" ry="18" style="filter: url(#dropshadow)"/>
<text text-anchor="middle" x="70.9035" y="-831.5" font-family="Times New Roman,serif" font-size="8.00">SubGroup</text>
</g>
<!-- SubGroup&#45;&gt;InternationalStringTypeProperties -->
<g id="edge4" class="edge"><title>SubGroup&#45;&gt;InternationalStringTypeProperties</title>
<path fill="none" stroke="black" d="M98.3596,-836.879C138.957,-840.667 216.837,-841.58 263.807,-801.4 334.563,-740.871 353.935,-627.391 359.094,-561.132"/>
<text text-anchor="middle" x="211.807" y="-841" font-family="Times New Roman,serif" font-size="8.00">AnalysisUnitsCovered</text>
</g>
<!-- BasedOnObjectType -->
<g id="ReusableTypeBasedOnObjectType" class="node"><title></title><ellipse fill="#f7b733" stroke="black" cx="70.9035" cy="-779.4" rx="49.8323" ry="18" style="filter: url(#dropshadow)"/>
<text text-anchor="middle" x="70.9035" y="-777.5" font-family="Times New Roman,serif" font-size="8.00">BasedOnObjectType</text>
</g>
<!-- BasedOnObjectType&#45;&gt;InternationalStringTypeProperties -->
<g id="edge5" class="edge"><title>BasedOnObjectType&#45;&gt;InternationalStringTypeProperties</title>
<path fill="none" stroke="black" d="M117.087,-786.483C159.362,-790.514 222.087,-789.515 263.807,-757.4 325.124,-710.198 347.726,-618.707 356.026,-561.016"/>
<text text-anchor="middle" x="211.807" y="-791" font-family="Times New Roman,serif" font-size="8.00">BasedOnRationaleDescription</text>
</g>
<!-- CitationType -->
<g id="ReusableTypeCitationType" class="node"><title></title><ellipse fill="#f7b733" stroke="black" cx="70.9035" cy="-725.4" rx="36.1063" ry="18" style="filter: url(#dropshadow)"/>
<text text-anchor="middle" x="70.9035" y="-723.5" font-family="Times New Roman,serif" font-size="8.00">CitationType</text>
</g>
<!-- CitationType&#45;&gt;InternationalStringTypeProperties -->
<g id="edge6" class="edge"><title>CitationType&#45;&gt;InternationalStringTypeProperties</title>
<path fill="none" stroke="black" d="M101.99,-734.733C142.335,-745.31 214.579,-757.257 263.807,-725.4 319.635,-689.271 343.639,-612.554 353.747,-560.97"/>
<text text-anchor="middle" x="211.807" y="-749" font-family="Times New Roman,serif" font-size="8.00">Title</text>
</g>
<!-- CitationType&#45;&gt;InternationalStringTypeProperties -->
<g id="edge7" class="edge"><title>CitationType&#45;&gt;InternationalStringTypeProperties</title>
<path fill="none" stroke="black" d="M106.337,-721.336C158.092,-714.979 251.245,-702.471 263.807,-693.4 307.963,-661.512 333.759,-603.328 347.502,-560.903"/>
<text text-anchor="middle" x="211.807" y="-717" font-family="Times New Roman,serif" font-size="8.00">SubTitle</text>
</g>
<!-- CitationType&#45;&gt;InternationalStringTypeProperties -->
<g id="edge8" class="edge"><title>CitationType&#45;&gt;InternationalStringTypeProperties</title>
<path fill="none" stroke="black" d="M102.025,-715.946C114.693,-711.422 129.351,-705.446 141.807,-698.4 150.628,-693.409 150.635,-688.71 159.807,-684.4 202.65,-664.264 225.012,-688.527 263.807,-661.4 299.125,-636.704 324.509,-594.613 340.429,-560.977"/>
<text text-anchor="middle" x="211.807" y="-687" font-family="Times New Roman,serif" font-size="8.00">AlternateTitle</text>
</g>
<!-- CitationType&#45;&gt;InternationalStringTypeProperties -->
<g id="edge9" class="edge"><title>CitationType&#45;&gt;InternationalStringTypeProperties</title>
<path fill="none" stroke="black" d="M104.997,-718.701C117.853,-714.667 131.85,-708.313 141.807,-698.4 157.365,-682.91 143.126,-666.672 159.807,-652.4 195.777,-621.624 223.557,-654.317 263.807,-629.4 291.023,-612.551 313.965,-585.288 330.693,-561.003"/>
<text text-anchor="middle" x="211.807" y="-655" font-family="Times New Roman,serif" font-size="8.00">Copyright</text>
</g>
<!-- CollectionType -->
<g id="ReusableTypeCollectionType" class="node"><title></title><ellipse fill="#f7b733" stroke="black" cx="70.9035" cy="-671.4" rx="40.0477" ry="18" style="filter: url(#dropshadow)"/>
<text text-anchor="middle" x="70.9035" y="-669.5" font-family="Times New Roman,serif" font-size="8.00">CollectionType</text>
</g>
<!-- CollectionType&#45;&gt;InternationalStringTypeProperties -->
<g id="edge10" class="edge"><title>CollectionType&#45;&gt;InternationalStringTypeProperties</title>
<path fill="none" stroke="black" d="M106.228,-662.413C118.239,-658.206 131.33,-652.33 141.807,-644.4 152.438,-636.352 148.6,-627.622 159.807,-620.4 199.599,-594.755 221.757,-619.143 263.807,-597.4 281.726,-588.134 298.875,-574.722 313.635,-561.149"/>
<text text-anchor="middle" x="211.807" y="-623" font-family="Times New Roman,serif" font-size="8.00">LocationInArchive</text>
</g>
<!-- CommandFileType -->
<g id="ReusableTypeCommandFileType" class="node"><title></title><ellipse fill="#f7b733" stroke="black" cx="70.9035" cy="-617.4" rx="47.16" ry="18" style="filter: url(#dropshadow)"/>
<text text-anchor="middle" x="70.9035" y="-615.5" font-family="Times New Roman,serif" font-size="8.00">CommandFileType</text>
</g>
<!-- CommandFileType&#45;&gt;InternationalStringTypeProperties -->
<g id="edge11" class="edge"><title>CommandFileType&#45;&gt;InternationalStringTypeProperties</title>
<path fill="none" stroke="black" d="M106.859,-605.451C122.932,-600.065 142.28,-593.731 159.807,-588.4 205.716,-574.434 219.137,-576.928 263.807,-559.4 267.184,-558.074 270.599,-556.668 274.026,-555.199"/>
<text text-anchor="middle" x="211.807" y="-591" font-family="Times New Roman,serif" font-size="8.00">Location</text>
</g>
<!-- DataFileIdentificationType -->
<g id="ReusableTypeDataFileIdentificationType0" class="node"><title></title><ellipse fill="#f7b733" stroke="black" cx="70.9035" cy="-563.4" rx="63.5591" ry="18" style="filter: url(#dropshadow)"/>
<text text-anchor="middle" x="70.9035" y="-561.5" font-family="Times New Roman,serif" font-size="8.00">DataFileIdentificationType</text>
</g>
<!-- DataFileIdentificationType&#45;&gt;InternationalStringTypeProperties -->
<g id="edge12" class="edge"><title>DataFileIdentificationType&#45;&gt;InternationalStringTypeProperties</title>
<path fill="none" stroke="black" d="M124.557,-553.558C166.192,-545.776 225.199,-534.747 273.825,-525.658"/>
<text text-anchor="middle" x="211.807" y="-549" font-family="Times New Roman,serif" font-size="8.00">Location</text>
</g>
<!-- FormType -->
<g id="ReusableTypeFormType1" class="node"><title></title><ellipse fill="#f7b733" stroke="black" cx="70.9035" cy="-509.4" rx="30.7612" ry="18" style="filter: url(#dropshadow)"/>
<text text-anchor="middle" x="70.9035" y="-507.5" font-family="Times New Roman,serif" font-size="8.00">FormType</text>
</g>
<!-- FormType&#45;&gt;InternationalStringTypeProperties -->
<g id="edge13" class="edge"><title>FormType&#45;&gt;InternationalStringTypeProperties</title>
<path fill="none" stroke="black" d="M101.733,-509.4C142.022,-509.4 215.51,-509.4 273.955,-509.4"/>
<text text-anchor="middle" x="211.807" y="-512" font-family="Times New Roman,serif" font-size="8.00">Statement</text>
</g>
<!-- GeographicLevelType -->
<g id="ReusableTypeGeographicLevelType2" class="node"><title></title><ellipse fill="#f7b733" stroke="black" cx="70.9035" cy="-455.4" rx="53.1395" ry="18" style="filter: url(#dropshadow)"/>
<text text-anchor="middle" x="70.9035" y="-453.5" font-family="Times New Roman,serif" font-size="8.00">GeographicLevelType</text>
</g>
<!-- GeographicLevelType&#45;&gt;InternationalStringTypeProperties -->
<g id="edge14" class="edge"><title>GeographicLevelType&#45;&gt;InternationalStringTypeProperties</title>
<path fill="none" stroke="black" d="M118.001,-464.016C159.908,-471.849 222.849,-483.613 274.147,-493.202"/>
<text text-anchor="middle" x="211.807" y="-493" font-family="Times New Roman,serif" font-size="8.00">CoverageLimitation</text>
</g>
<!-- IndividualNameType -->
<g id="ReusableTypeIndividualNameType3" class="node"><title></title><ellipse fill="#f7b733" stroke="black" cx="70.9035" cy="-401.4" rx="50.4666" ry="18" style="filter: url(#dropshadow)"/>
<text text-anchor="middle" x="70.9035" y="-399.5" font-family="Times New Roman,serif" font-size="8.00">IndividualNameType</text>
</g>
<!-- IndividualNameType&#45;&gt;InternationalStringTypeProperties -->
<g id="edge15" class="edge"><title>IndividualNameType&#45;&gt;InternationalStringTypeProperties</title>
<path fill="none" stroke="black" d="M112.657,-411.77C151.985,-422.279 212.887,-439.883 263.807,-460.4 274.143,-464.564 284.873,-469.415 295.264,-474.414"/>
<text text-anchor="middle" x="211.807" y="-463" font-family="Times New Roman,serif" font-size="8.00">FullName</text>
</g>
<!-- IndividualNameType&#45;&gt;InternationalStringTypeProperties -->
<g id="edge16" class="edge"><title>IndividualNameType&#45;&gt;InternationalStringTypeProperties</title>
<path fill="none" stroke="black" d="M118.267,-395.1C158.544,-391.666 217.519,-391.655 263.807,-412.4 293.646,-425.772 319.379,-452.702 336.828,-474.8"/>
<text text-anchor="middle" x="211.807" y="-415" font-family="Times New Roman,serif" font-size="8.00">Abbreviation</text>
</g>
<!-- ItemType -->
<g id="ReusableTypeItemType4" class="node"><title></title><ellipse fill="#f7b733" stroke="black" cx="70.9035" cy="-347.4" rx="29.4917" ry="18" style="filter: url(#dropshadow)"/>
<text text-anchor="middle" x="70.9035" y="-345.5" font-family="Times New Roman,serif" font-size="8.00">ItemType</text>
</g>
<!-- ItemType&#45;&gt;InternationalStringTypeProperties -->
<g id="edge17" class="edge"><title>ItemType&#45;&gt;InternationalStringTypeProperties</title>
<path fill="none" stroke="black" d="M100.517,-346.192C140.127,-345.839 212.57,-350.068 263.807,-381.4 300.224,-403.669 327.775,-445.08 344.04,-474.774"/>
<text text-anchor="middle" x="211.807" y="-384" font-family="Times New Roman,serif" font-size="8.00">LocationInArchive</text>
</g>
<!-- NoteType -->
<g id="ReusableTypeNoteType5" class="node"><title></title><ellipse fill="#f7b733" stroke="black" cx="70.9035" cy="-293.4" rx="30.1263" ry="18" style="filter: url(#dropshadow)"/>
<text text-anchor="middle" x="70.9035" y="-291.5" font-family="Times New Roman,serif" font-size="8.00">NoteType</text>
</g>
<!-- NoteType&#45;&gt;InternationalStringTypeProperties -->
<g id="edge18" class="edge"><title>NoteType&#45;&gt;InternationalStringTypeProperties</title>
<path fill="none" stroke="black" d="M101.257,-293.035C141.735,-293.986 215.191,-301.101 263.807,-337.4 309.932,-371.838 337.28,-435.094 350.639,-474.55"/>
<text text-anchor="middle" x="211.807" y="-340" font-family="Times New Roman,serif" font-size="8.00">Header</text>
</g>
<!-- OrganizationNameType -->
<g id="ReusableTypeOrganizationNameType6" class="node"><title></title><ellipse fill="#f7b733" stroke="black" cx="70.9035" cy="-239.4" rx="57.0809" ry="18" style="filter: url(#dropshadow)"/>
<text text-anchor="middle" x="70.9035" y="-237.5" font-family="Times New Roman,serif" font-size="8.00">OrganizationNameType</text>
</g>
<!-- OrganizationNameType&#45;&gt;InternationalStringTypeProperties -->
<g id="edge19" class="edge"><title>OrganizationNameType&#45;&gt;InternationalStringTypeProperties</title>
<path fill="none" stroke="black" d="M128.271,-240.237C170.041,-243.674 226.04,-254.566 263.807,-286.4 321.756,-335.244 346.131,-425.238 355.523,-474.654"/>
<text text-anchor="middle" x="211.807" y="-289" font-family="Times New Roman,serif" font-size="8.00">Abbreviation</text>
</g>
<!-- PrimaryComponentLevelType -->
<g id="ReusableTypePrimaryComponentLevelType7" class="node"><title></title><ellipse fill="#f7b733" stroke="black" cx="70.9035" cy="-185.4" rx="70.8072" ry="18" style="filter: url(#dropshadow)"/>
<text text-anchor="middle" x="70.9035" y="-183.5" font-family="Times New Roman,serif" font-size="8.00">PrimaryComponentLevelType</text>
</g>
<!-- PrimaryComponentLevelType&#45;&gt;InternationalStringTypeProperties -->
<g id="edge20" class="edge"><title>PrimaryComponentLevelType&#45;&gt;InternationalStringTypeProperties</title>
<path fill="none" stroke="black" d="M142.076,-186.616C182.195,-190.867 230.917,-202.544 263.807,-232.4 334.618,-296.677 353.737,-415.596 358.899,-474.484"/>
<text text-anchor="middle" x="211.807" y="-235" font-family="Times New Roman,serif" font-size="8.00">CoverageLimitation</text>
</g>
<!-- UsedType -->
<g id="ReusableTypeUsedType8" class="node"><title></title><ellipse fill="#f7b733" stroke="black" cx="70.9035" cy="-131.4" rx="29.4917" ry="18" style="filter: url(#dropshadow)"/>
<text text-anchor="middle" x="70.9035" y="-129.5" font-family="Times New Roman,serif" font-size="8.00">UsedType</text>
</g>
<!-- UsedType&#45;&gt;InternationalStringTypeProperties -->
<g id="edge21" class="edge"><title>UsedType&#45;&gt;InternationalStringTypeProperties</title>
<path fill="none" stroke="black" d="M100.447,-129.915C141.989,-129.378 219.022,-134.756 263.807,-177.4 348.259,-257.812 360.402,-407.272 361.343,-474.751"/>
<text text-anchor="middle" x="211.807" y="-180" font-family="Times New Roman,serif" font-size="8.00">AlternateName</text>
</g>
<!-- VersionRationaleType -->
<g id="ReusableTypeVersionRationaleType9" class="node"><title></title><ellipse fill="#f7b733" stroke="black" cx="70.9035" cy="-77.3995" rx="53.7736" ry="18" style="filter: url(#dropshadow)"/>
<text text-anchor="middle" x="70.9035" y="-75.4995" font-family="Times New Roman,serif" font-size="8.00">VersionRationaleType</text>
</g>
<!-- VersionRationaleType&#45;&gt;InternationalStringTypeProperties -->
<g id="edge22" class="edge"><title>VersionRationaleType&#45;&gt;InternationalStringTypeProperties</title>
<path fill="none" stroke="black" d="M124.532,-75.3198C167.606,-76.5656 227.199,-85.5019 263.807,-121.4 314.497,-171.106 346.099,-388.982 356.763,-474.639"/>
<text text-anchor="middle" x="211.807" y="-124" font-family="Times New Roman,serif" font-size="8.00">RationaleDescription</text>
</g>
<!-- VocabularyType -->
<g id="ReusableTypeVocabularyType0" class="node"><title></title><ellipse fill="#f7b733" stroke="black" cx="70.9035" cy="-23.3995" rx="41.9498" ry="18" style="filter: url(#dropshadow)"/>
<text text-anchor="middle" x="70.9035" y="-21.4995" font-family="Times New Roman,serif" font-size="8.00">VocabularyType</text>
</g>
<!-- VocabularyType&#45;&gt;InternationalStringTypeProperties -->
<g id="edge23" class="edge"><title>VocabularyType&#45;&gt;InternationalStringTypeProperties</title>
<path fill="none" stroke="black" d="M111.909,-27.3279C161.729,-33.0462 242.854,-45.3444 263.807,-66.3995 321.599,-124.474 349.535,-380.922 357.962,-474.808"/>
<text text-anchor="middle" x="211.807" y="-68.9995" font-family="Times New Roman,serif" font-size="8.00">VocabularyTitle</text>
</g>
<!-- VocabularyType&#45;&gt;InternationalStringTypeProperties -->
<g id="edge24" class="edge"><title>VocabularyType&#45;&gt;InternationalStringTypeProperties</title>
<path fill="none" stroke="black" d="M104.228,-12.3962C146.076,-0.391597 218.942,12.5765 263.807,-24.3995 333.596,-81.9176 354.21,-373.136 359.323,-474.532"/>
<text text-anchor="middle" x="211.807" y="-26.9995" font-family="Times New Roman,serif" font-size="8.00">Abbreviation</text>
</g>
</g>
</svg>
