<?xml version="1.0" encoding="UTF-8" standalone="no"?>
<!DOCTYPE svg PUBLIC "-//W3C//DTD SVG 1.1//EN"
 "http://www.w3.org/Graphics/SVG/1.1/DTD/svg11.dtd">
<!-- Generated by graphviz version 2.38.0 (20140413.2041)
 -->
<!-- Title: G Pages: 1 -->
<svg width="473pt" height="1621pt"
 viewBox="0.00 0.00 473.27 1621.00" xmlns="http://www.w3.org/2000/svg" xmlns:xlink="http://www.w3.org/1999/xlink">
<filter id = "dropshadow" height = "130%" ><feGaussianBlur in= "SourceAlpha" stdDeviation = "3"/><!--stdDeviation is how much to blur--><feOffset dx = "2" dy = "2" result = "offsetblur"/><!--how much to offset--><feMerge><feMergeNode/><!--this contains the offset blurred image--><feMergeNode in= "SourceGraphic"/><!--this contains the element that the filter is applied to --></feMerge></filter>
<g id="graph0" class="graph" transform="scale(1 1) rotate(0) translate(4 1617)">
<title>G</title>
<!-- InternationalCodeValueType -->
<g id="ReusableTypeInternationalCodeValueType" class="node"><title></title><polygon fill="#f7b733" stroke="black" points="204.269,-791.5 204.269,-862.5 465.269,-862.5 465.269,-791.5 204.269,-791.5" style="filter: url(#dropshadow)"/>
<text text-anchor="middle" x="262.769" y="-825.1" font-family="Times New Roman,serif" font-size="8.00">InternationalCodeValueType</text>
<polyline fill="none" stroke="black" points="321.269,-791.5 321.269,-862.5 "/>
<text text-anchor="start" x="329.269" y="-852.1" font-family="Times New Roman,serif" font-size="8.00">CodeListID : string[0...1] </text>
<text text-anchor="start" x="329.269" y="-843.1" font-family="Times New Roman,serif" font-size="8.00">CodeListName_string : string[0...1] </text>
<text text-anchor="start" x="329.269" y="-834.1" font-family="Times New Roman,serif" font-size="8.00">CodeListAgencyName : string[0...1] </text>
<text text-anchor="start" x="329.269" y="-825.1" font-family="Times New Roman,serif" font-size="8.00">CodeListVersionID : string[0...1] </text>
<text text-anchor="start" x="329.269" y="-816.1" font-family="Times New Roman,serif" font-size="8.00">OtherValue : string[0...1] </text>
<text text-anchor="start" x="329.269" y="-807.1" font-family="Times New Roman,serif" font-size="8.00">CodeListURN : string[0...1] </text>
<text text-anchor="start" x="329.269" y="-798.1" font-family="Times New Roman,serif" font-size="8.00">CodeListSchemeURN : string[0...1] </text>
</g>
<!-- CategoryGroup -->
<g id="ItemTypeCategoryGroup" class="node"><title></title><ellipse fill="#f7b733" stroke="black" cx="68.6346" cy="-1595" rx="39.278" ry="18" style="filter: url(#dropshadow)"/>
<text text-anchor="middle" x="68.6346" y="-1593.1" font-family="Times New Roman,serif" font-size="8.00">CategoryGroup</text>
</g>
<!-- CategoryGroup&#45;&gt;InternationalCodeValueType -->
<g id="edge1" class="edge"><title>CategoryGroup&#45;&gt;InternationalCodeValueType</title>
<path fill="none" stroke="black" d="M103.356,-1603.38C129.132,-1607.64 163.926,-1608.42 186.269,-1589 298.015,-1491.88 326.601,-1000.02 332.456,-862.667"/>
<text text-anchor="middle" x="170.769" y="-1605.6" font-family="Times New Roman,serif" font-size="8.00">Subject</text>
</g>
<!-- CategoryGroup&#45;&gt;InternationalCodeValueType -->
<g id="edge2" class="edge"><title>CategoryGroup&#45;&gt;InternationalCodeValueType</title>
<path fill="none" stroke="black" d="M106.567,-1590.51C132.636,-1585.37 166.342,-1574.4 186.269,-1551 277.037,-1444.44 320.245,-993.352 331.014,-862.635"/>
<text text-anchor="middle" x="170.769" y="-1575.6" font-family="Times New Roman,serif" font-size="8.00">Keyword</text>
</g>
<!-- CodeListGroup -->
<g id="ItemTypeCodeListGroup" class="node"><title></title><ellipse fill="#f7b733" stroke="black" cx="68.6346" cy="-1528" rx="38.6432" ry="18" style="filter: url(#dropshadow)"/>
<text text-anchor="middle" x="68.6346" y="-1526.1" font-family="Times New Roman,serif" font-size="8.00">CodeListGroup</text>
</g>
<!-- CodeListGroup&#45;&gt;InternationalCodeValueType -->
<g id="edge3" class="edge"><title>CodeListGroup&#45;&gt;InternationalCodeValueType</title>
<path fill="none" stroke="black" d="M102.092,-1537.09C127.845,-1542.18 163.227,-1544.18 186.269,-1525 290.035,-1438.64 324.035,-993.2 331.843,-862.864"/>
<text text-anchor="middle" x="170.769" y="-1540.6" font-family="Times New Roman,serif" font-size="8.00">Subject</text>
</g>
<!-- CodeListGroup&#45;&gt;InternationalCodeValueType -->
<g id="edge4" class="edge"><title>CodeListGroup&#45;&gt;InternationalCodeValueType</title>
<path fill="none" stroke="black" d="M106.655,-1524.36C132.593,-1519.84 166.099,-1509.71 186.269,-1487 270.677,-1391.98 317.811,-985.636 330.347,-862.503"/>
<text text-anchor="middle" x="170.769" y="-1510.6" font-family="Times New Roman,serif" font-size="8.00">Keyword</text>
</g>
<!-- ConceptGroup -->
<g id="ItemTypeConceptGroup" class="node"><title></title><ellipse fill="#f7b733" stroke="black" cx="68.6346" cy="-1462" rx="38.0086" ry="18" style="filter: url(#dropshadow)"/>
<text text-anchor="middle" x="68.6346" y="-1460.1" font-family="Times New Roman,serif" font-size="8.00">ConceptGroup</text>
</g>
<!-- ConceptGroup&#45;&gt;InternationalCodeValueType -->
<g id="edge5" class="edge"><title>ConceptGroup&#45;&gt;InternationalCodeValueType</title>
<path fill="none" stroke="black" d="M101.129,-1471.45C126.834,-1477.09 162.642,-1479.93 186.269,-1461 281.635,-1384.61 321.135,-984.877 331.103,-862.584"/>
<text text-anchor="middle" x="170.769" y="-1476.6" font-family="Times New Roman,serif" font-size="8.00">Subject</text>
</g>
<!-- ConceptGroup&#45;&gt;InternationalCodeValueType -->
<g id="edge6" class="edge"><title>ConceptGroup&#45;&gt;InternationalCodeValueType</title>
<path fill="none" stroke="black" d="M106.206,-1458.6C132.094,-1454.27 165.734,-1444.41 186.269,-1422 263.287,-1337.94 314.703,-977.829 329.425,-862.607"/>
<text text-anchor="middle" x="170.769" y="-1445.6" font-family="Times New Roman,serif" font-size="8.00">Keyword</text>
</g>
<!-- ConceptualVariableGroup -->
<g id="ItemTypeConceptualVariableGroup" class="node"><title></title><ellipse fill="#f7b733" stroke="black" cx="68.6346" cy="-1391" rx="58.9835" ry="18" style="filter: url(#dropshadow)"/>
<text text-anchor="middle" x="68.6346" y="-1389.1" font-family="Times New Roman,serif" font-size="8.00">ConceptualVariableGroup</text>
</g>
<!-- ConceptualVariableGroup&#45;&gt;InternationalCodeValueType -->
<g id="edge7" class="edge"><title>ConceptualVariableGroup&#45;&gt;InternationalCodeValueType</title>
<path fill="none" stroke="black" d="M107.301,-1404.64C132.213,-1411.07 164.224,-1414.07 186.269,-1397 272.754,-1330.05 317.719,-976.72 330.145,-862.587"/>
<text text-anchor="middle" x="170.769" y="-1411.6" font-family="Times New Roman,serif" font-size="8.00">Subject</text>
</g>
<!-- ConceptualVariableGroup&#45;&gt;InternationalCodeValueType -->
<g id="edge8" class="edge"><title>ConceptualVariableGroup&#45;&gt;InternationalCodeValueType</title>
<path fill="none" stroke="black" d="M126.307,-1387.16C147.59,-1382.98 170.436,-1374.79 186.269,-1359 258.12,-1287.34 312.024,-970.247 328.512,-862.767"/>
<text text-anchor="middle" x="170.769" y="-1380.6" font-family="Times New Roman,serif" font-size="8.00">Keyword</text>
</g>
<!-- ControlConstructGroup -->
<g id="ItemTypeControlConstructGroup" class="node"><title></title><ellipse fill="#f7b733" stroke="black" cx="68.6346" cy="-1336" rx="55.6769" ry="18" style="filter: url(#dropshadow)"/>
<text text-anchor="middle" x="68.6346" y="-1334.1" font-family="Times New Roman,serif" font-size="8.00">ControlConstructGroup</text>
</g>
<!-- ControlConstructGroup&#45;&gt;InternationalCodeValueType -->
<g id="edge9" class="edge"><title>ControlConstructGroup&#45;&gt;InternationalCodeValueType</title>
<path fill="none" stroke="black" d="M113.961,-1346.55C137.707,-1349.54 166.131,-1348.51 186.269,-1333 262.833,-1274.01 313.476,-967.819 328.842,-862.572"/>
<text text-anchor="middle" x="170.769" y="-1348.6" font-family="Times New Roman,serif" font-size="8.00">Subject</text>
</g>
<!-- ControlConstructGroup&#45;&gt;InternationalCodeValueType -->
<g id="edge10" class="edge"><title>ControlConstructGroup&#45;&gt;InternationalCodeValueType</title>
<path fill="none" stroke="black" d="M120.284,-1329.22C143.144,-1323.75 168.863,-1313.86 186.269,-1296 307.357,-1171.76 329.147,-949.167 332.986,-862.708"/>
<text text-anchor="middle" x="170.769" y="-1318.6" font-family="Times New Roman,serif" font-size="8.00">Keyword</text>
</g>
<!-- GeographicLocationGroup -->
<g id="ItemTypeGeographicLocationGroup" class="node"><title></title><ellipse fill="#f7b733" stroke="black" cx="68.6346" cy="-1280" rx="61.0222" ry="18" style="filter: url(#dropshadow)"/>
<text text-anchor="middle" x="68.6346" y="-1278.1" font-family="Times New Roman,serif" font-size="8.00">GeographicLocationGroup</text>
</g>
<!-- GeographicLocationGroup&#45;&gt;InternationalCodeValueType -->
<g id="edge11" class="edge"><title>GeographicLocationGroup&#45;&gt;InternationalCodeValueType</title>
<path fill="none" stroke="black" d="M125.453,-1286.91C146.491,-1286.6 169.389,-1282.41 186.269,-1269 315.006,-1166.72 332.299,-948.235 333.96,-862.538"/>
<text text-anchor="middle" x="170.769" y="-1285.6" font-family="Times New Roman,serif" font-size="8.00">Subject</text>
</g>
<!-- GeographicLocationGroup&#45;&gt;InternationalCodeValueType -->
<g id="edge12" class="edge"><title>GeographicLocationGroup&#45;&gt;InternationalCodeValueType</title>
<path fill="none" stroke="black" d="M119.462,-1269.82C142.414,-1262.86 168.447,-1251.45 186.269,-1233 289.825,-1125.8 321.491,-940.338 330.475,-862.749"/>
<text text-anchor="middle" x="170.769" y="-1256.6" font-family="Times New Roman,serif" font-size="8.00">Keyword</text>
</g>
<!-- GeographicStructureGroup -->
<g id="ItemTypeGeographicStructureGroup" class="node"><title></title><ellipse fill="#f7b733" stroke="black" cx="68.6346" cy="-1222" rx="60.8874" ry="18" style="filter: url(#dropshadow)"/>
<text text-anchor="middle" x="68.6346" y="-1220.1" font-family="Times New Roman,serif" font-size="8.00">GeographicStructureGroup</text>
</g>
<!-- GeographicStructureGroup&#45;&gt;InternationalCodeValueType -->
<g id="edge13" class="edge"><title>GeographicStructureGroup&#45;&gt;InternationalCodeValueType</title>
<path fill="none" stroke="black" d="M128.639,-1224.97C148.738,-1223.17 170.172,-1217.8 186.269,-1205 295.583,-1118.08 324.047,-939.093 331.326,-862.76"/>
<text text-anchor="middle" x="170.769" y="-1222.6" font-family="Times New Roman,serif" font-size="8.00">Subject</text>
</g>
<!-- GeographicStructureGroup&#45;&gt;InternationalCodeValueType -->
<g id="edge14" class="edge"><title>GeographicStructureGroup&#45;&gt;InternationalCodeValueType</title>
<path fill="none" stroke="black" d="M110.341,-1208.82C135.249,-1198.9 166.101,-1183.03 186.269,-1160 265.934,-1069.02 308.89,-928.126 325.524,-862.673"/>
<text text-anchor="middle" x="170.769" y="-1187.6" font-family="Times New Roman,serif" font-size="8.00">Keyword</text>
</g>
<!-- Individual -->
<g id="ItemTypeIndividual" class="node"><title></title><ellipse fill="#f7b733" stroke="black" cx="68.6346" cy="-1163" rx="28.2235" ry="18" style="filter: url(#dropshadow)"/>
<text text-anchor="middle" x="68.6346" y="-1161.1" font-family="Times New Roman,serif" font-size="8.00">Individual</text>
</g>
<!-- Individual&#45;&gt;InternationalCodeValueType -->
<g id="edge15" class="edge"><title>Individual&#45;&gt;InternationalCodeValueType</title>
<path fill="none" stroke="black" d="M97.0975,-1161.8C122.792,-1159.33 160.916,-1152.07 186.269,-1131 271.988,-1059.76 311.717,-926.811 326.505,-862.994"/>
<text text-anchor="middle" x="170.769" y="-1149.6" font-family="Times New Roman,serif" font-size="8.00">Keyword</text>
</g>
<!-- InstructionGroup -->
<g id="ItemTypeInstructionGroup0" class="node"><title></title><ellipse fill="#f7b733" stroke="black" cx="68.6346" cy="-1104" rx="43.219" ry="18" style="filter: url(#dropshadow)"/>
<text text-anchor="middle" x="68.6346" y="-1102.1" font-family="Times New Roman,serif" font-size="8.00">InstructionGroup</text>
</g>
<!-- InstructionGroup&#45;&gt;InternationalCodeValueType -->
<g id="edge16" class="edge"><title>InstructionGroup&#45;&gt;InternationalCodeValueType</title>
<path fill="none" stroke="black" d="M103.256,-1114.84C127.989,-1120.69 161.477,-1124.01 186.269,-1109 276.068,-1054.63 313.821,-925.627 327.319,-862.725"/>
<text text-anchor="middle" x="170.769" y="-1120.6" font-family="Times New Roman,serif" font-size="8.00">Subject</text>
</g>
<!-- InstructionGroup&#45;&gt;InternationalCodeValueType -->
<g id="edge17" class="edge"><title>InstructionGroup&#45;&gt;InternationalCodeValueType</title>
<path fill="none" stroke="black" d="M109.944,-1098.47C134.087,-1093.5 164.26,-1084.2 186.269,-1067 256.012,-1012.48 300.868,-915.083 321.165,-862.691"/>
<text text-anchor="middle" x="170.769" y="-1085.6" font-family="Times New Roman,serif" font-size="8.00">Keyword</text>
</g>
<!-- InstrumentGroup -->
<g id="ItemTypeInstrumentGroup1" class="node"><title></title><ellipse fill="#f7b733" stroke="black" cx="68.6346" cy="-1044" rx="43.219" ry="18" style="filter: url(#dropshadow)"/>
<text text-anchor="middle" x="68.6346" y="-1042.1" font-family="Times New Roman,serif" font-size="8.00">InstrumentGroup</text>
</g>
<!-- InstrumentGroup&#45;&gt;InternationalCodeValueType -->
<g id="edge18" class="edge"><title>InstrumentGroup&#45;&gt;InternationalCodeValueType</title>
<path fill="none" stroke="black" d="M106.192,-1052.92C130.316,-1056.81 161.854,-1057.96 186.269,-1045 259.124,-1006.33 302.57,-913.815 321.859,-862.609"/>
<text text-anchor="middle" x="170.769" y="-1056.6" font-family="Times New Roman,serif" font-size="8.00">Subject</text>
</g>
<!-- InstrumentGroup&#45;&gt;InternationalCodeValueType -->
<g id="edge19" class="edge"><title>InstrumentGroup&#45;&gt;InternationalCodeValueType</title>
<path fill="none" stroke="black" d="M107.475,-1036.17C131.545,-1029.92 162.535,-1019.43 186.269,-1003 240.841,-965.211 286.821,-902.128 312.3,-862.638"/>
<text text-anchor="middle" x="170.769" y="-1021.6" font-family="Times New Roman,serif" font-size="8.00">Keyword</text>
</g>
<!-- ManagedRepresentationGroup -->
<g id="ItemTypeManagedRepresentationGroup2" class="node"><title></title><ellipse fill="#f7b733" stroke="black" cx="68.6346" cy="-988" rx="68.7695" ry="18" style="filter: url(#dropshadow)"/>
<text text-anchor="middle" x="68.6346" y="-986.1" font-family="Times New Roman,serif" font-size="8.00">ManagedRepresentationGroup</text>
</g>
<!-- ManagedRepresentationGroup&#45;&gt;InternationalCodeValueType -->
<g id="edge20" class="edge"><title>ManagedRepresentationGroup&#45;&gt;InternationalCodeValueType</title>
<path fill="none" stroke="black" d="M135.287,-992.496C152.506,-991.447 170.621,-988.242 186.269,-981 241.201,-955.577 286.132,-899.811 311.429,-862.831"/>
<text text-anchor="middle" x="170.769" y="-992.6" font-family="Times New Roman,serif" font-size="8.00">Subject</text>
</g>
<!-- ManagedRepresentationGroup&#45;&gt;InternationalCodeValueType -->
<g id="edge21" class="edge"><title>ManagedRepresentationGroup&#45;&gt;InternationalCodeValueType</title>
<path fill="none" stroke="black" d="M109.07,-973.376C132.197,-964.164 161.621,-951.326 186.269,-937 223.692,-915.249 262.822,-885.706 291.368,-862.714"/>
<text text-anchor="middle" x="170.769" y="-955.6" font-family="Times New Roman,serif" font-size="8.00">Keyword</text>
</g>
<!-- NCubeGroup -->
<g id="ItemTypeNCubeGroup3" class="node"><title></title><ellipse fill="#f7b733" stroke="black" cx="68.6346" cy="-930" rx="34.0674" ry="18" style="filter: url(#dropshadow)"/>
<text text-anchor="middle" x="68.6346" y="-928.1" font-family="Times New Roman,serif" font-size="8.00">NCubeGroup</text>
</g>
<!-- NCubeGroup&#45;&gt;InternationalCodeValueType -->
<g id="edge22" class="edge"><title>NCubeGroup&#45;&gt;InternationalCodeValueType</title>
<path fill="none" stroke="black" d="M102.895,-930.104C126.696,-929.272 159.182,-926.261 186.269,-917 222.602,-904.578 259.477,-882.078 287.269,-862.684"/>
<text text-anchor="middle" x="170.769" y="-926.6" font-family="Times New Roman,serif" font-size="8.00">Subject</text>
</g>
<!-- NCubeGroup&#45;&gt;InternationalCodeValueType -->
<g id="edge23" class="edge"><title>NCubeGroup&#45;&gt;InternationalCodeValueType</title>
<path fill="none" stroke="black" d="M96.4148,-919.557C130.515,-906.26 191.189,-882.599 242.655,-862.53"/>
<text text-anchor="middle" x="170.769" y="-895.6" font-family="Times New Roman,serif" font-size="8.00">Keyword</text>
</g>
<!-- Organization -->
<g id="ItemTypeOrganization4" class="node"><title></title><ellipse fill="#f7b733" stroke="black" cx="68.6346" cy="-875" rx="35.3371" ry="18" style="filter: url(#dropshadow)"/>
<text text-anchor="middle" x="68.6346" y="-873.1" font-family="Times New Roman,serif" font-size="8.00">Organization</text>
</g>
<!-- Organization&#45;&gt;InternationalCodeValueType -->
<g id="edge24" class="edge"><title>Organization&#45;&gt;InternationalCodeValueType</title>
<path fill="none" stroke="black" d="M102.023,-869.114C127.99,-864.395 166.249,-857.443 204.229,-850.541"/>
<text text-anchor="middle" x="170.769" y="-860.6" font-family="Times New Roman,serif" font-size="8.00">Keyword</text>
</g>
<!-- OrganizationGroup -->
<g id="ItemTypeOrganizationGroup5" class="node"><title></title><ellipse fill="#f7b733" stroke="black" cx="68.6346" cy="-816" rx="47.16" ry="18" style="filter: url(#dropshadow)"/>
<text text-anchor="middle" x="68.6346" y="-814.1" font-family="Times New Roman,serif" font-size="8.00">OrganizationGroup</text>
</g>
<!-- OrganizationGroup&#45;&gt;InternationalCodeValueType -->
<g id="edge25" class="edge"><title>OrganizationGroup&#45;&gt;InternationalCodeValueType</title>
<path fill="none" stroke="black" d="M115.399,-818.882C128.29,-819.637 142.326,-820.405 155.269,-821 171.066,-821.727 187.653,-822.402 204.089,-823.017"/>
<text text-anchor="middle" x="170.769" y="-824.6" font-family="Times New Roman,serif" font-size="8.00">Subject</text>
</g>
<!-- OrganizationGroup&#45;&gt;InternationalCodeValueType -->
<g id="edge26" class="edge"><title>OrganizationGroup&#45;&gt;InternationalCodeValueType</title>
<path fill="none" stroke="black" d="M115.396,-813.467C128.288,-812.861 142.324,-812.302 155.269,-812 169.043,-811.678 172.509,-811.302 186.269,-812 192.053,-812.293 197.96,-812.651 203.923,-813.059"/>
<text text-anchor="middle" x="170.769" y="-814.6" font-family="Times New Roman,serif" font-size="8.00">Keyword</text>
</g>
<!-- PhysicalStructureGroup -->
<g id="ItemTypePhysicalStructureGroup6" class="node"><title></title><ellipse fill="#f7b733" stroke="black" cx="68.6346" cy="-751" rx="55.6769" ry="18" style="filter: url(#dropshadow)"/>
<text text-anchor="middle" x="68.6346" y="-749.1" font-family="Times New Roman,serif" font-size="8.00">PhysicalStructureGroup</text>
</g>
<!-- PhysicalStructureGroup&#45;&gt;InternationalCodeValueType -->
<g id="edge27" class="edge"><title>PhysicalStructureGroup&#45;&gt;InternationalCodeValueType</title>
<path fill="none" stroke="black" d="M110.906,-762.875C137.82,-770.619 174.487,-781.169 210.305,-791.475"/>
<text text-anchor="middle" x="170.769" y="-786.6" font-family="Times New Roman,serif" font-size="8.00">Subject</text>
</g>
<!-- PhysicalStructureGroup&#45;&gt;InternationalCodeValueType -->
<g id="edge28" class="edge"><title>PhysicalStructureGroup&#45;&gt;InternationalCodeValueType</title>
<path fill="none" stroke="black" d="M123.657,-753.711C143.573,-755.573 166.172,-758.711 186.269,-764 211.717,-770.697 238.476,-781.034 262.111,-791.412"/>
<text text-anchor="middle" x="170.769" y="-766.6" font-family="Times New Roman,serif" font-size="8.00">Keyword</text>
</g>
<!-- ProcessingEventGroup -->
<g id="ItemTypeProcessingEventGroup7" class="node"><title></title><ellipse fill="#f7b733" stroke="black" cx="68.6346" cy="-696" rx="53.7736" ry="18" style="filter: url(#dropshadow)"/>
<text text-anchor="middle" x="68.6346" y="-694.1" font-family="Times New Roman,serif" font-size="8.00">ProcessingEventGroup</text>
</g>
<!-- ProcessingEventGroup&#45;&gt;InternationalCodeValueType -->
<g id="edge29" class="edge"><title>ProcessingEventGroup&#45;&gt;InternationalCodeValueType</title>
<path fill="none" stroke="black" d="M103.383,-709.875C114.217,-714.355 126.26,-719.362 137.269,-724 159.104,-733.198 164.998,-734.563 186.269,-745 215.334,-759.261 246.789,-776.488 273.156,-791.464"/>
<text text-anchor="middle" x="170.769" y="-747.6" font-family="Times New Roman,serif" font-size="8.00">Subject</text>
</g>
<!-- ProcessingEventGroup&#45;&gt;InternationalCodeValueType -->
<g id="edge30" class="edge"><title>ProcessingEventGroup&#45;&gt;InternationalCodeValueType</title>
<path fill="none" stroke="black" d="M120.767,-700.59C141.704,-703.745 165.777,-709.059 186.269,-718 227.273,-735.891 267.697,-766.976 295.828,-791.383"/>
<text text-anchor="middle" x="170.769" y="-720.6" font-family="Times New Roman,serif" font-size="8.00">Keyword</text>
</g>
<!-- ProcessingInstructionGroup -->
<g id="ItemTypeProcessingInstructionGroup8" class="node"><title></title><ellipse fill="#f7b733" stroke="black" cx="68.6346" cy="-640" rx="64.1937" ry="18" style="filter: url(#dropshadow)"/>
<text text-anchor="middle" x="68.6346" y="-638.1" font-family="Times New Roman,serif" font-size="8.00">ProcessingInstructionGroup</text>
</g>
<!-- ProcessingInstructionGroup&#45;&gt;InternationalCodeValueType -->
<g id="edge31" class="edge"><title>ProcessingInstructionGroup&#45;&gt;InternationalCodeValueType</title>
<path fill="none" stroke="black" d="M105.636,-654.909C115.917,-659.309 127.09,-664.227 137.269,-669 159.405,-679.379 166.129,-680.14 186.269,-694 228.307,-722.931 271.038,-762.863 299.609,-791.406"/>
<text text-anchor="middle" x="170.769" y="-696.6" font-family="Times New Roman,serif" font-size="8.00">Subject</text>
</g>
<!-- ProcessingInstructionGroup&#45;&gt;InternationalCodeValueType -->
<g id="edge32" class="edge"><title>ProcessingInstructionGroup&#45;&gt;InternationalCodeValueType</title>
<path fill="none" stroke="black" d="M130.371,-645.087C149.189,-648.563 169.396,-654.359 186.269,-664 240.78,-695.146 286.14,-753.568 311.601,-791.352"/>
<text text-anchor="middle" x="170.769" y="-666.6" font-family="Times New Roman,serif" font-size="8.00">Keyword</text>
</g>
<!-- QualityStatementGroup -->
<g id="ItemTypeQualityStatementGroup9" class="node"><title></title><ellipse fill="#f7b733" stroke="black" cx="68.6346" cy="-582" rx="55.6769" ry="18" style="filter: url(#dropshadow)"/>
<text text-anchor="middle" x="68.6346" y="-580.1" font-family="Times New Roman,serif" font-size="8.00">QualityStatementGroup</text>
</g>
<!-- QualityStatementGroup&#45;&gt;InternationalCodeValueType -->
<g id="edge33" class="edge"><title>QualityStatementGroup&#45;&gt;InternationalCodeValueType</title>
<path fill="none" stroke="black" d="M107.767,-594.875C131.956,-604.289 162.968,-618.771 186.269,-638 240.362,-682.639 287.148,-750.396 312.812,-791.499"/>
<text text-anchor="middle" x="170.769" y="-640.6" font-family="Times New Roman,serif" font-size="8.00">Subject</text>
</g>
<!-- QualityStatementGroup&#45;&gt;InternationalCodeValueType -->
<g id="edge34" class="edge"><title>QualityStatementGroup&#45;&gt;InternationalCodeValueType</title>
<path fill="none" stroke="black" d="M124.109,-583.908C144.962,-586.803 168.085,-592.837 186.269,-605 255.117,-651.05 299.799,-741.239 320.45,-791.328"/>
<text text-anchor="middle" x="170.769" y="-607.6" font-family="Times New Roman,serif" font-size="8.00">Keyword</text>
</g>
<!-- QuestionGroup -->
<g id="ItemTypeQuestionGroup0" class="node"><title></title><ellipse fill="#f7b733" stroke="black" cx="68.6346" cy="-516" rx="38.6432" ry="18" style="filter: url(#dropshadow)"/>
<text text-anchor="middle" x="68.6346" y="-514.1" font-family="Times New Roman,serif" font-size="8.00">QuestionGroup</text>
</g>
<!-- QuestionGroup&#45;&gt;InternationalCodeValueType -->
<g id="edge35" class="edge"><title>QuestionGroup&#45;&gt;InternationalCodeValueType</title>
<path fill="none" stroke="black" d="M99.7632,-526.666C125.146,-536.813 161.225,-554.087 186.269,-578 251.862,-640.63 298.286,-738.729 319.964,-791.144"/>
<text text-anchor="middle" x="170.769" y="-580.6" font-family="Times New Roman,serif" font-size="8.00">Subject</text>
</g>
<!-- QuestionGroup&#45;&gt;InternationalCodeValueType -->
<g id="edge36" class="edge"><title>QuestionGroup&#45;&gt;InternationalCodeValueType</title>
<path fill="none" stroke="black" d="M107.214,-516.389C131.931,-518.431 163.751,-524.658 186.269,-542 269.473,-606.079 310.118,-730.313 325.767,-791.372"/>
<text text-anchor="middle" x="170.769" y="-544.6" font-family="Times New Roman,serif" font-size="8.00">Keyword</text>
</g>
<!-- RecordLayoutGroup -->
<g id="ItemTypeRecordLayoutGroup1" class="node"><title></title><ellipse fill="#f7b733" stroke="black" cx="68.6346" cy="-455" rx="48.5642" ry="18" style="filter: url(#dropshadow)"/>
<text text-anchor="middle" x="68.6346" y="-453.1" font-family="Times New Roman,serif" font-size="8.00">RecordLayoutGroup</text>
</g>
<!-- RecordLayoutGroup&#45;&gt;InternationalCodeValueType -->
<g id="edge37" class="edge"><title>RecordLayoutGroup&#45;&gt;InternationalCodeValueType</title>
<path fill="none" stroke="black" d="M106.952,-466.287C132.028,-475.467 164.37,-490.607 186.269,-513 266.279,-594.815 308.773,-728.151 325.367,-791.463"/>
<text text-anchor="middle" x="170.769" y="-515.6" font-family="Times New Roman,serif" font-size="8.00">Subject</text>
</g>
<!-- RecordLayoutGroup&#45;&gt;InternationalCodeValueType -->
<g id="edge38" class="edge"><title>RecordLayoutGroup&#45;&gt;InternationalCodeValueType</title>
<path fill="none" stroke="black" d="M117.388,-453.431C140.394,-455.028 167.083,-460.625 186.269,-476 287.239,-556.912 320.038,-719.311 329.883,-791.271"/>
<text text-anchor="middle" x="170.769" y="-478.6" font-family="Times New Roman,serif" font-size="8.00">Keyword</text>
</g>
<!-- Relation -->
<g id="ItemTypeRelation2" class="node"><title></title><ellipse fill="#f7b733" stroke="black" cx="68.6346" cy="-396" rx="27" ry="18" style="filter: url(#dropshadow)"/>
<text text-anchor="middle" x="68.6346" y="-394.1" font-family="Times New Roman,serif" font-size="8.00">Relation</text>
</g>
<!-- Relation&#45;&gt;InternationalCodeValueType -->
<g id="edge39" class="edge"><title>Relation&#45;&gt;InternationalCodeValueType</title>
<path fill="none" stroke="black" d="M94.7576,-401.007C120.869,-407.433 161.337,-420.999 186.269,-447 282.514,-547.37 317.912,-717.543 329.167,-791.225"/>
<text text-anchor="middle" x="170.769" y="-449.6" font-family="Times New Roman,serif" font-size="8.00">Keyword</text>
</g>
<!-- RepresentedVariableGroup -->
<g id="ItemTypeRepresentedVariableGroup3" class="node"><title></title><ellipse fill="#f7b733" stroke="black" cx="68.6346" cy="-342" rx="60.8874" ry="18" style="filter: url(#dropshadow)"/>
<text text-anchor="middle" x="68.6346" y="-340.1" font-family="Times New Roman,serif" font-size="8.00">RepresentedVariableGroup</text>
</g>
<!-- RepresentedVariableGroup&#45;&gt;InternationalCodeValueType -->
<g id="edge40" class="edge"><title>RepresentedVariableGroup&#45;&gt;InternationalCodeValueType</title>
<path fill="none" stroke="black" d="M109.422,-355.402C135.44,-366.271 167.898,-384.23 186.269,-411 271.904,-535.782 313.197,-715.627 327.598,-791.306"/>
<text text-anchor="middle" x="170.769" y="-413.6" font-family="Times New Roman,serif" font-size="8.00">Subject</text>
</g>
<!-- RepresentedVariableGroup&#45;&gt;InternationalCodeValueType -->
<g id="edge41" class="edge"><title>RepresentedVariableGroup&#45;&gt;InternationalCodeValueType</title>
<path fill="none" stroke="black" d="M129.134,-344.084C149.4,-347.594 170.815,-354.793 186.269,-369 311.266,-483.905 330.758,-705.053 333.484,-791.312"/>
<text text-anchor="middle" x="170.769" y="-371.6" font-family="Times New Roman,serif" font-size="8.00">Keyword</text>
</g>
<!-- UniverseGroup -->
<g id="ItemTypeUniverseGroup4" class="node"><title></title><ellipse fill="#f7b733" stroke="black" cx="68.6346" cy="-288" rx="38.6432" ry="18" style="filter: url(#dropshadow)"/>
<text text-anchor="middle" x="68.6346" y="-286.1" font-family="Times New Roman,serif" font-size="8.00">UniverseGroup</text>
</g>
<!-- UniverseGroup&#45;&gt;InternationalCodeValueType -->
<g id="edge42" class="edge"><title>UniverseGroup&#45;&gt;InternationalCodeValueType</title>
<path fill="none" stroke="black" d="M104.895,-294.482C130.981,-301.083 165.459,-313.908 186.269,-338 304.373,-474.727 327.914,-703.572 332.604,-791.291"/>
<text text-anchor="middle" x="170.769" y="-340.6" font-family="Times New Roman,serif" font-size="8.00">Subject</text>
</g>
<!-- UniverseGroup&#45;&gt;InternationalCodeValueType -->
<g id="edge43" class="edge"><title>UniverseGroup&#45;&gt;InternationalCodeValueType</title>
<path fill="none" stroke="black" d="M105.305,-282.295C130.745,-280.318 164.219,-282.269 186.269,-301 262.888,-366.087 313.761,-684.1 328.985,-791.494"/>
<text text-anchor="middle" x="170.769" y="-303.6" font-family="Times New Roman,serif" font-size="8.00">Keyword</text>
</g>
<!-- VariableGroup -->
<g id="ItemTypeVariableGroup5" class="node"><title></title><ellipse fill="#f7b733" stroke="black" cx="68.6346" cy="-234" rx="36.7401" ry="18" style="filter: url(#dropshadow)"/>
<text text-anchor="middle" x="68.6346" y="-232.1" font-family="Times New Roman,serif" font-size="8.00">VariableGroup</text>
</g>
<!-- VariableGroup&#45;&gt;InternationalCodeValueType -->
<g id="edge44" class="edge"><title>VariableGroup&#45;&gt;InternationalCodeValueType</title>
<path fill="none" stroke="black" d="M105.241,-236.705C131.16,-240.55 165.264,-249.802 186.269,-272 259.163,-349.033 312.771,-681.34 328.803,-791.425"/>
<text text-anchor="middle" x="170.769" y="-274.6" font-family="Times New Roman,serif" font-size="8.00">Subject</text>
</g>
<!-- VariableGroup&#45;&gt;InternationalCodeValueType -->
<g id="edge45" class="edge"><title>VariableGroup&#45;&gt;InternationalCodeValueType</title>
<path fill="none" stroke="black" d="M101.425,-225.565C127.133,-220.78 162.792,-219.021 186.269,-238 274.19,-309.076 318.329,-674.558 330.329,-791.186"/>
<text text-anchor="middle" x="170.769" y="-240.6" font-family="Times New Roman,serif" font-size="8.00">Keyword</text>
</g>
<!-- ReferenceDateType -->
<g id="ReusableTypeReferenceDateType6" class="node"><title></title><ellipse fill="#f7b733" stroke="black" cx="68.6346" cy="-180" rx="48.5642" ry="18" style="filter: url(#dropshadow)"/>
<text text-anchor="middle" x="68.6346" y="-178.1" font-family="Times New Roman,serif" font-size="8.00">ReferenceDateType</text>
</g>
<!-- ReferenceDateType&#45;&gt;InternationalCodeValueType -->
<g id="edge46" class="edge"><title>ReferenceDateType&#45;&gt;InternationalCodeValueType</title>
<path fill="none" stroke="black" d="M117.378,-181.55C141.094,-184.805 168.42,-192.703 186.269,-211 268.819,-295.619 316.748,-672.592 329.983,-791.171"/>
<text text-anchor="middle" x="170.769" y="-213.6" font-family="Times New Roman,serif" font-size="8.00">Subject</text>
</g>
<!-- RoleType -->
<g id="ReusableTypeRoleType7" class="node"><title></title><ellipse fill="#f7b733" stroke="black" cx="68.6346" cy="-126" rx="28.8574" ry="18" style="filter: url(#dropshadow)"/>
<text text-anchor="middle" x="68.6346" y="-124.1" font-family="Times New Roman,serif" font-size="8.00">RoleType</text>
</g>
<!-- RoleType&#45;&gt;InternationalCodeValueType -->
<g id="edge47" class="edge"><title>RoleType&#45;&gt;InternationalCodeValueType</title>
<path fill="none" stroke="black" d="M96.8434,-130.53C123.869,-136.525 164.349,-149.829 186.269,-178 262.815,-276.374 315.104,-669.897 329.654,-791.21"/>
<text text-anchor="middle" x="170.769" y="-180.6" font-family="Times New Roman,serif" font-size="8.00">Keyword</text>
</g>
<!-- TopicalCoverageType -->
<g id="ReusableTypeTopicalCoverageType8" class="node"><title></title><ellipse fill="#f7b733" stroke="black" cx="68.6346" cy="-72" rx="53.7736" ry="18" style="filter: url(#dropshadow)"/>
<text text-anchor="middle" x="68.6346" y="-70.1" font-family="Times New Roman,serif" font-size="8.00">TopicalCoverageType</text>
</g>
<!-- TopicalCoverageType&#45;&gt;InternationalCodeValueType -->
<g id="edge48" class="edge"><title>TopicalCoverageType&#45;&gt;InternationalCodeValueType</title>
<path fill="none" stroke="black" d="M109.335,-83.9249C136.027,-94.1986 169.32,-111.901 186.269,-140 319.218,-360.403 333.211,-684.19 334.023,-791.211"/>
<text text-anchor="middle" x="170.769" y="-142.6" font-family="Times New Roman,serif" font-size="8.00">Subject</text>
</g>
<!-- TopicalCoverageType&#45;&gt;InternationalCodeValueType -->
<g id="edge49" class="edge"><title>TopicalCoverageType&#45;&gt;InternationalCodeValueType</title>
<path fill="none" stroke="black" d="M122.39,-70.0805C144.864,-72.0766 169.671,-78.4702 186.269,-95 286.738,-195.054 323.205,-658.592 331.691,-791.371"/>
<text text-anchor="middle" x="170.769" y="-97.6" font-family="Times New Roman,serif" font-size="8.00">Keyword</text>
</g>
<!-- VocabularyType -->
<g id="ReusableTypeVocabularyType9" class="node"><title></title><ellipse fill="#f7b733" stroke="black" cx="68.6346" cy="-18" rx="41.9498" ry="18" style="filter: url(#dropshadow)"/>
<text text-anchor="middle" x="68.6346" y="-16.1" font-family="Times New Roman,serif" font-size="8.00">VocabularyType</text>
</g>
<!-- VocabularyType&#45;&gt;InternationalCodeValueType -->
<g id="edge50" class="edge"><title>VocabularyType&#45;&gt;InternationalCodeValueType</title>
<path fill="none" stroke="black" d="M108.62,-23.5187C134.45,-29.246 167.009,-40.8076 186.269,-64 280.762,-177.783 321.59,-656.328 331.365,-791.377"/>
<text text-anchor="middle" x="170.769" y="-66.6" font-family="Times New Roman,serif" font-size="8.00">Keyword</text>
</g>
</g>
</svg>
