<?xml version="1.0" encoding="UTF-8" standalone="no"?>
<!DOCTYPE svg PUBLIC "-//W3C//DTD SVG 1.1//EN"
 "http://www.w3.org/Graphics/SVG/1.1/DTD/svg11.dtd">
<!-- Generated by graphviz version 2.38.0 (20140413.2041)
 -->
<!-- Title: G Pages: 1 -->
<svg width="1248pt" height="607pt"
 viewBox="0.00 0.00 1248.10 607.00" xmlns="http://www.w3.org/2000/svg" xmlns:xlink="http://www.w3.org/1999/xlink">
<filter id = "dropshadow" height = "130%" ><feGaussianBlur in= "SourceAlpha" stdDeviation = "3"/><!--stdDeviation is how much to blur--><feOffset dx = "2" dy = "2" result = "offsetblur"/><!--how much to offset--><feMerge><feMergeNode/><!--this contains the offset blurred image--><feMergeNode in= "SourceGraphic"/><!--this contains the element that the filter is applied to --></feMerge></filter>
<g id="graph0" class="graph" transform="scale(1 1) rotate(0) translate(4 603.003)">
<title>G</title>
<g id="clust1" class="cluster"><title>clusterItemType</title>
<polygon fill="#4abdac" stroke="black" points="147.101,-58.0026 147.101,-555.003 1232.1,-555.003 1232.1,-58.0026 147.101,-58.0026" style="filter: url(#dropshadow)"/>
<text text-anchor="middle" x="689.601" y="-544.603" font-family="Times New Roman,serif" font-size="8.00">ItemType</text>
</g>
<!-- ItemTypeProperties -->
<g id="ReusableTypeItemTypeProperties" class="node"><title></title><polygon fill="#f7b733" stroke="black" points="155.101,-218.503 155.101,-343.503 435.101,-343.503 435.101,-218.503 155.101,-218.503" style="filter: url(#dropshadow)"/>
<text text-anchor="middle" x="181.601" y="-279.103" font-family="Times New Roman,serif" font-size="8.00">Properties</text>
<polyline fill="none" stroke="black" points="208.101,-218.503 208.101,-343.503 "/>
<text text-anchor="start" x="216.101" y="-333.103" font-family="Times New Roman,serif" font-size="8.00">Citation : CitationType[0...1] </text>
<text text-anchor="start" x="216.101" y="-324.103" font-family="Times New Roman,serif" font-size="8.00">LocationInArchive : InternationalStringType[0...n] </text>
<text text-anchor="start" x="216.101" y="-315.103" font-family="Times New Roman,serif" font-size="8.00">CallNumber : string[0...1] </text>
<text text-anchor="start" x="216.101" y="-306.103" font-family="Times New Roman,serif" font-size="8.00">URI : anyURI[0...1] </text>
<text text-anchor="start" x="216.101" y="-297.103" font-family="Times New Roman,serif" font-size="8.00">ItemFormat : CodeValueType[0...1] </text>
<text text-anchor="start" x="216.101" y="-288.103" font-family="Times New Roman,serif" font-size="8.00">Media : CodeValueType[0...1] </text>
<text text-anchor="start" x="216.101" y="-279.103" font-family="Times New Roman,serif" font-size="8.00">StudyClass : StudyClassType[0...1] </text>
<text text-anchor="start" x="216.101" y="-270.103" font-family="Times New Roman,serif" font-size="8.00">Access : AccessType[0...1] </text>
<text text-anchor="start" x="216.101" y="-261.103" font-family="Times New Roman,serif" font-size="8.00">OriginalArchiveOrganizationReference : Organization[0...n] </text>
<text text-anchor="start" x="216.101" y="-252.103" font-family="Times New Roman,serif" font-size="8.00">AvailabilityStatus : StructuredStringType[0...1] </text>
<text text-anchor="start" x="216.101" y="-243.103" font-family="Times New Roman,serif" font-size="8.00">DataFileQuantity : int[0...1] </text>
<text text-anchor="start" x="216.101" y="-234.103" font-family="Times New Roman,serif" font-size="8.00">CollectionCompleteness : StructuredStringType[0...1] </text>
<text text-anchor="start" x="216.101" y="-225.103" font-family="Times New Roman,serif" font-size="8.00">Item : ItemType[0...n] </text>
</g>
<!-- ItemTypeProperties&#45;&gt;ItemTypeProperties -->
<g id="edge26" class="edge"><title>ItemTypeProperties&#45;&gt;ItemTypeProperties</title>
<path fill="none" stroke="black" d="M266.045,-343.833C270.015,-354.566 279.701,-362.003 295.101,-362.003 310.501,-362.003 320.187,-354.566 324.157,-343.833"/>
<text text-anchor="middle" x="295.101" y="-364.603" font-family="Times New Roman,serif" font-size="8.00">Item</text>
<text text-anchor="middle" x="316.157" y="-346.433" font-family="Times New Roman,serif" font-size="8.00">0...*</text>
<text text-anchor="middle" x="258.045" y="-346.433" font-family="Times New Roman,serif" font-size="8.00">0...*</text>
</g>
<!-- ItemTypeCitationType -->
<g id="ReusableTypeItemTypeCitationType" class="node"><title></title><polygon fill="#fc4a1a" stroke="black" points="519.101,-408.503 519.101,-515.503 805.101,-515.503 805.101,-408.503 519.101,-408.503" style="filter: url(#dropshadow)"/>
<text text-anchor="middle" x="551.101" y="-460.103" font-family="Times New Roman,serif" font-size="8.00">CitationType</text>
<polyline fill="none" stroke="black" points="583.101,-408.503 583.101,-515.503 "/>
<text text-anchor="start" x="591.101" y="-505.103" font-family="Times New Roman,serif" font-size="8.00">Title : InternationalStringType[0...1] </text>
<text text-anchor="start" x="591.101" y="-496.103" font-family="Times New Roman,serif" font-size="8.00">SubTitle : InternationalStringType[0...n] </text>
<text text-anchor="start" x="591.101" y="-487.103" font-family="Times New Roman,serif" font-size="8.00">AlternateTitle : InternationalStringType[0...n] </text>
<text text-anchor="start" x="591.101" y="-478.103" font-family="Times New Roman,serif" font-size="8.00">Creator : CreatorType[0...n] </text>
<text text-anchor="start" x="591.101" y="-469.103" font-family="Times New Roman,serif" font-size="8.00">Publisher : PublisherType[0...n] </text>
<text text-anchor="start" x="591.101" y="-460.103" font-family="Times New Roman,serif" font-size="8.00">Contributor : ContributorType[0...n] </text>
<text text-anchor="start" x="591.101" y="-451.103" font-family="Times New Roman,serif" font-size="8.00">PublicationDate : DateType[0...1] </text>
<text text-anchor="start" x="591.101" y="-442.103" font-family="Times New Roman,serif" font-size="8.00">Language : CodeValueType[0...n] </text>
<text text-anchor="start" x="591.101" y="-433.103" font-family="Times New Roman,serif" font-size="8.00">InternationalIdentifier : InternationalIdentifierType[0...n] </text>
<text text-anchor="start" x="591.101" y="-424.103" font-family="Times New Roman,serif" font-size="8.00">Copyright : InternationalStringType[0...n] </text>
<text text-anchor="start" x="591.101" y="-415.103" font-family="Times New Roman,serif" font-size="8.00">DcTerms : DcTerms[0...n] </text>
</g>
<!-- ItemTypeProperties&#45;&gt;ItemTypeCitationType -->
<g id="edge1" class="edge"><title>ItemTypeProperties&#45;&gt;ItemTypeCitationType</title>
<path fill="none" stroke="black" d="M381.869,-343.712C404.403,-358.679 429.127,-373.828 453.101,-386.003 473.926,-396.578 496.58,-406.414 519.023,-415.266"/>
<text text-anchor="middle" x="471.601" y="-404.603" font-family="Times New Roman,serif" font-size="8.00">Citation</text>
</g>
<!-- ItemTypeInternationalStringType -->
<g id="ReusableTypeItemTypeInternationalStringType" class="node"><title></title><polygon fill="#fc4a1a" stroke="black" points="1012.6,-439.003 1012.6,-475.003 1220.6,-475.003 1220.6,-439.003 1012.6,-439.003" style="filter: url(#dropshadow)"/>
<text text-anchor="middle" x="1063.1" y="-455.103" font-family="Times New Roman,serif" font-size="8.00">InternationalStringType</text>
<polyline fill="none" stroke="black" points="1113.6,-439.003 1113.6,-475.003 "/>
<text text-anchor="start" x="1121.6" y="-455.103" font-family="Times New Roman,serif" font-size="8.00">String : StringType[0...n] </text>
</g>
<!-- ItemTypeProperties&#45;&gt;ItemTypeInternationalStringType -->
<g id="edge2" class="edge"><title>ItemTypeProperties&#45;&gt;ItemTypeInternationalStringType</title>
<path fill="none" stroke="black" d="M435.242,-338.721C459.196,-346.765 484.11,-353.983 508.101,-359.003 613.348,-381.024 893.643,-342.573 991.101,-388.003 1001.64,-392.917 999.672,-400.19 1009.1,-407.003 1026.82,-419.802 1048.33,-430.637 1067.37,-438.914"/>
<text text-anchor="middle" x="662.101" y="-369.603" font-family="Times New Roman,serif" font-size="8.00">LocationInArchive</text>
</g>
<!-- ItemTypeCodeValueType -->
<g id="ReusableTypeItemTypeCodeValueType" class="node"><title></title><polygon fill="#fc4a1a" stroke="black" points="1009.1,-326.503 1009.1,-397.503 1224.1,-397.503 1224.1,-326.503 1009.1,-326.503" style="filter: url(#dropshadow)"/>
<text text-anchor="middle" x="1044.6" y="-360.103" font-family="Times New Roman,serif" font-size="8.00">CodeValueType</text>
<polyline fill="none" stroke="black" points="1080.1,-326.503 1080.1,-397.503 "/>
<text text-anchor="start" x="1088.1" y="-387.103" font-family="Times New Roman,serif" font-size="8.00">CodeListID : string[0...1] </text>
<text text-anchor="start" x="1088.1" y="-378.103" font-family="Times New Roman,serif" font-size="8.00">CodeListName_string : string[0...1] </text>
<text text-anchor="start" x="1088.1" y="-369.103" font-family="Times New Roman,serif" font-size="8.00">CodeListAgencyName : string[0...1] </text>
<text text-anchor="start" x="1088.1" y="-360.103" font-family="Times New Roman,serif" font-size="8.00">CodeListVersionID : string[0...1] </text>
<text text-anchor="start" x="1088.1" y="-351.103" font-family="Times New Roman,serif" font-size="8.00">OtherValue : string[0...1] </text>
<text text-anchor="start" x="1088.1" y="-342.103" font-family="Times New Roman,serif" font-size="8.00">CodeListURN : string[0...1] </text>
<text text-anchor="start" x="1088.1" y="-333.103" font-family="Times New Roman,serif" font-size="8.00">CodeListSchemeURN : string[0...1] </text>
</g>
<!-- ItemTypeProperties&#45;&gt;ItemTypeCodeValueType -->
<g id="edge3" class="edge"><title>ItemTypeProperties&#45;&gt;ItemTypeCodeValueType</title>
<path fill="none" stroke="black" d="M435.247,-299.058C586.117,-318.694 806.846,-347.626 816.101,-350.003 824.415,-352.138 825.679,-355.345 834.101,-357.003 866.593,-363.397 943.553,-364.423 1008.8,-363.973"/>
<text text-anchor="middle" x="662.101" y="-352.603" font-family="Times New Roman,serif" font-size="8.00">ItemFormat</text>
</g>
<!-- ItemTypeStudyClassType -->
<g id="ReusableTypeItemTypeStudyClassType" class="node"><title></title><polygon fill="#fc4a1a" stroke="black" points="546.101,-263.003 546.101,-299.003 778.101,-299.003 778.101,-263.003 546.101,-263.003" style="filter: url(#dropshadow)"/>
<text text-anchor="middle" x="581.601" y="-279.103" font-family="Times New Roman,serif" font-size="8.00">StudyClassType</text>
<polyline fill="none" stroke="black" points="617.101,-263.003 617.101,-299.003 "/>
<text text-anchor="start" x="625.101" y="-283.603" font-family="Times New Roman,serif" font-size="8.00">Description : StructuredStringType[0...1] </text>
<text text-anchor="start" x="625.101" y="-274.603" font-family="Times New Roman,serif" font-size="8.00">ClassType : CodeValueType[0...1] </text>
</g>
<!-- ItemTypeProperties&#45;&gt;ItemTypeStudyClassType -->
<g id="edge4" class="edge"><title>ItemTypeProperties&#45;&gt;ItemTypeStudyClassType</title>
<path fill="none" stroke="black" d="M435.133,-281.003C471.699,-281.003 510.736,-281.003 545.898,-281.003"/>
<text text-anchor="middle" x="471.601" y="-283.603" font-family="Times New Roman,serif" font-size="8.00">StudyClass</text>
</g>
<!-- ItemTypeAccessType -->
<g id="ReusableTypeItemTypeAccessType" class="node"><title></title><polygon fill="#fc4a1a" stroke="black" points="508.101,-118.503 508.101,-243.503 816.101,-243.503 816.101,-118.503 508.101,-118.503" style="filter: url(#dropshadow)"/>
<text text-anchor="middle" x="537.601" y="-179.103" font-family="Times New Roman,serif" font-size="8.00">AccessType</text>
<polyline fill="none" stroke="black" points="567.101,-118.503 567.101,-243.503 "/>
<text text-anchor="start" x="575.101" y="-233.103" font-family="Times New Roman,serif" font-size="8.00">AccessTypeName : NameType[0...n] </text>
<text text-anchor="start" x="575.101" y="-224.103" font-family="Times New Roman,serif" font-size="8.00">Label : LabelType[0...n] </text>
<text text-anchor="start" x="575.101" y="-215.103" font-family="Times New Roman,serif" font-size="8.00">Description : StructuredStringType[0...1] </text>
<text text-anchor="start" x="575.101" y="-206.103" font-family="Times New Roman,serif" font-size="8.00">ConfidentialityStatement : StructuredStringType[0...1] </text>
<text text-anchor="start" x="575.101" y="-197.103" font-family="Times New Roman,serif" font-size="8.00">AccessPermission : FormType[0...n] </text>
<text text-anchor="start" x="575.101" y="-188.103" font-family="Times New Roman,serif" font-size="8.00">Restrictions : StructuredStringType[0...1] </text>
<text text-anchor="start" x="575.101" y="-179.103" font-family="Times New Roman,serif" font-size="8.00">CitationRequirement : StructuredStringType[0...1] </text>
<text text-anchor="start" x="575.101" y="-170.103" font-family="Times New Roman,serif" font-size="8.00">DepositRequirement : StructuredStringType[0...1] </text>
<text text-anchor="start" x="575.101" y="-161.103" font-family="Times New Roman,serif" font-size="8.00">AccessConditions : StructuredStringType[0...1] </text>
<text text-anchor="start" x="575.101" y="-152.103" font-family="Times New Roman,serif" font-size="8.00">Disclaimer : StructuredStringType[0...1] </text>
<text text-anchor="start" x="575.101" y="-143.103" font-family="Times New Roman,serif" font-size="8.00">AccessRestrictionDate : AccessRestrictionDateType[0...1] </text>
<text text-anchor="start" x="575.101" y="-134.103" font-family="Times New Roman,serif" font-size="8.00">ContactOrganizationReference_Organization : Organization[0...n] </text>
<text text-anchor="start" x="575.101" y="-125.103" font-family="Times New Roman,serif" font-size="8.00">ContactOrganizationReference_Individual : Individual[0...n] </text>
</g>
<!-- ItemTypeProperties&#45;&gt;ItemTypeAccessType -->
<g id="edge5" class="edge"><title>ItemTypeProperties&#45;&gt;ItemTypeAccessType</title>
<path fill="none" stroke="black" d="M435.133,-242.912C458.906,-236.399 483.723,-229.599 507.841,-222.992"/>
<text text-anchor="middle" x="471.601" y="-239.603" font-family="Times New Roman,serif" font-size="8.00">Access</text>
</g>
<!-- Organization -->
<g id="ItemTypeOrganization" class="node"><title></title><ellipse fill="#f7b733" stroke="black" cx="1116.6" cy="-26.0026" rx="35.3371" ry="18" style="filter: url(#dropshadow)"/>
<text text-anchor="middle" x="1116.6" y="-24.1026" font-family="Times New Roman,serif" font-size="8.00">Organization</text>
</g>
<!-- ItemTypeProperties&#45;&gt;Organization -->
<g id="edge6" class="edge"><title>ItemTypeProperties&#45;&gt;Organization</title>
<path fill="none" stroke="black" d="M333.443,-218.401C370.099,-163.75 431.573,-88.2772 508.101,-56.0026 712.184,30.0666 989.664,-4.76403 1083.26,-20.1586"/>
<text text-anchor="middle" x="662.101" y="-58.6026" font-family="Times New Roman,serif" font-size="8.00">OriginalArchiveOrganizationReference</text>
<text text-anchor="middle" x="1075.26" y="-13.7586" font-family="Times New Roman,serif" font-size="8.00">0...*</text>
<text text-anchor="middle" x="325.443" y="-212.001" font-family="Times New Roman,serif" font-size="8.00">0...*</text>
</g>
<!-- ItemTypeStructuredStringType -->
<g id="ReusableTypeItemTypeStructuredStringType" class="node"><title></title><polygon fill="#fc4a1a" stroke="black" points="1010.1,-169.003 1010.1,-205.003 1223.1,-205.003 1223.1,-169.003 1010.1,-169.003" style="filter: url(#dropshadow)"/>
<text text-anchor="middle" x="1055.1" y="-185.103" font-family="Times New Roman,serif" font-size="8.00">StructuredStringType</text>
<polyline fill="none" stroke="black" points="1100.1,-169.003 1100.1,-205.003 "/>
<text text-anchor="start" x="1108.1" y="-185.103" font-family="Times New Roman,serif" font-size="8.00">Content : ContentType[0...n] </text>
</g>
<!-- ItemTypeProperties&#45;&gt;ItemTypeStructuredStringType -->
<g id="edge7" class="edge"><title>ItemTypeProperties&#45;&gt;ItemTypeStructuredStringType</title>
<path fill="none" stroke="black" d="M349.533,-218.288C388.803,-176.919 445.964,-125.772 508.101,-100.003 557.745,-79.414 940.965,-54.6426 991.101,-74.0026 1040.66,-93.1398 1082.68,-142.18 1102.83,-168.933"/>
<text text-anchor="middle" x="662.101" y="-102.603" font-family="Times New Roman,serif" font-size="8.00">AvailabilityStatus</text>
<text text-anchor="middle" x="1110.83" y="-162.533" font-family="Times New Roman,serif" font-size="8.00">0...*</text>
<text text-anchor="middle" x="341.533" y="-211.888" font-family="Times New Roman,serif" font-size="8.00">0...*</text>
</g>
<!-- ItemTypeCitationType&#45;&gt;ItemTypeInternationalStringType -->
<g id="edge8" class="edge"><title>ItemTypeCitationType&#45;&gt;ItemTypeInternationalStringType</title>
<path fill="none" stroke="black" d="M805.392,-458.46C815.107,-458.284 824.748,-458.129 834.101,-458.003 893.108,-457.208 959.079,-456.94 1012.32,-456.879"/>
<text text-anchor="middle" x="912.601" y="-460.603" font-family="Times New Roman,serif" font-size="8.00">Title</text>
<text text-anchor="middle" x="1004.32" y="-450.479" font-family="Times New Roman,serif" font-size="8.00">0...*</text>
<text text-anchor="middle" x="813.392" y="-452.06" font-family="Times New Roman,serif" font-size="8.00">0...*</text>
</g>
<!-- ItemTypeCitationType&#45;&gt;ItemTypeInternationalStringType -->
<g id="edge9" class="edge"><title>ItemTypeCitationType&#45;&gt;ItemTypeInternationalStringType</title>
<path fill="none" stroke="black" d="M805.218,-467.593C862.922,-468.971 930.212,-469.444 991.101,-467.003 998.034,-466.725 1005.18,-466.36 1012.38,-465.934"/>
<text text-anchor="middle" x="912.601" y="-471.603" font-family="Times New Roman,serif" font-size="8.00">SubTitle</text>
<text text-anchor="middle" x="1004.38" y="-459.534" font-family="Times New Roman,serif" font-size="8.00">0...*</text>
<text text-anchor="middle" x="813.218" y="-461.193" font-family="Times New Roman,serif" font-size="8.00">0...*</text>
</g>
<!-- ItemTypeCitationType&#45;&gt;ItemTypeInternationalStringType -->
<g id="edge10" class="edge"><title>ItemTypeCitationType&#45;&gt;ItemTypeInternationalStringType</title>
<path fill="none" stroke="black" d="M805.365,-480.578C863.09,-485.538 930.357,-488.041 991.101,-482.003 1006.35,-480.487 1022.49,-477.952 1037.92,-475.062"/>
<text text-anchor="middle" x="912.601" y="-488.603" font-family="Times New Roman,serif" font-size="8.00">AlternateTitle</text>
<text text-anchor="middle" x="1029.92" y="-477.662" font-family="Times New Roman,serif" font-size="8.00">0...*</text>
<text text-anchor="middle" x="813.365" y="-474.178" font-family="Times New Roman,serif" font-size="8.00">0...*</text>
</g>
<!-- ItemTypeCitationType&#45;&gt;ItemTypeInternationalStringType -->
<g id="edge12" class="edge"><title>ItemTypeCitationType&#45;&gt;ItemTypeInternationalStringType</title>
<path fill="none" stroke="black" d="M805.306,-445.89C815.042,-445.14 824.711,-444.495 834.101,-444.003 903.783,-440.345 921.418,-440.374 991.101,-444.003 998.046,-444.364 1005.2,-444.839 1012.4,-445.392"/>
<text text-anchor="middle" x="912.601" y="-446.603" font-family="Times New Roman,serif" font-size="8.00">Copyright</text>
<text text-anchor="middle" x="1004.4" y="-438.992" font-family="Times New Roman,serif" font-size="8.00">0...*</text>
<text text-anchor="middle" x="813.306" y="-439.49" font-family="Times New Roman,serif" font-size="8.00">0...*</text>
</g>
<!-- ItemTypeCitationType&#45;&gt;ItemTypeCodeValueType -->
<g id="edge11" class="edge"><title>ItemTypeCitationType&#45;&gt;ItemTypeCodeValueType</title>
<path fill="none" stroke="black" d="M805.344,-430.568C871.16,-416.023 948.032,-399.035 1008.79,-385.607"/>
<text text-anchor="middle" x="912.601" y="-426.603" font-family="Times New Roman,serif" font-size="8.00">Language</text>
<text text-anchor="middle" x="1000.79" y="-379.207" font-family="Times New Roman,serif" font-size="8.00">0...*</text>
<text text-anchor="middle" x="813.344" y="-424.168" font-family="Times New Roman,serif" font-size="8.00">0...*</text>
</g>
<!-- ItemTypeStudyClassType&#45;&gt;ItemTypeCodeValueType -->
<g id="edge14" class="edge"><title>ItemTypeStudyClassType&#45;&gt;ItemTypeCodeValueType</title>
<path fill="none" stroke="black" d="M769.43,-299.079C785.338,-303.17 801.342,-308.099 816.101,-314.003 824.806,-317.484 825.261,-321.879 834.101,-325.003 842.583,-327.999 932.95,-339.612 1009.04,-349.039"/>
<text text-anchor="middle" x="912.601" y="-349.603" font-family="Times New Roman,serif" font-size="8.00">ClassType</text>
<text text-anchor="middle" x="1001.04" y="-342.639" font-family="Times New Roman,serif" font-size="8.00">0...*</text>
<text text-anchor="middle" x="761.43" y="-301.679" font-family="Times New Roman,serif" font-size="8.00">0...*</text>
</g>
<!-- ItemTypeStudyClassType&#45;&gt;ItemTypeStructuredStringType -->
<g id="edge13" class="edge"><title>ItemTypeStudyClassType&#45;&gt;ItemTypeStructuredStringType</title>
<path fill="none" stroke="black" d="M778.305,-282.981C842.175,-281.251 922.346,-274.364 991.101,-254.003 1027.58,-243.199 1065.53,-220.916 1089.79,-205.015"/>
<text text-anchor="middle" x="912.601" y="-282.603" font-family="Times New Roman,serif" font-size="8.00">Description</text>
<text text-anchor="middle" x="1097.79" y="-207.615" font-family="Times New Roman,serif" font-size="8.00">0...*</text>
<text text-anchor="middle" x="786.305" y="-276.581" font-family="Times New Roman,serif" font-size="8.00">0...*</text>
</g>
<!-- ItemTypeAccessType&#45;&gt;Organization -->
<g id="edge22" class="edge"><title>ItemTypeAccessType&#45;&gt;Organization</title>
<path fill="none" stroke="black" d="M791.074,-118.243C799.988,-111.654 808.455,-104.57 816.101,-97.0026 827.699,-85.5237 820.615,-74.1899 834.101,-65.0026 873.704,-38.0227 1015.28,-29.5323 1081.28,-27.006"/>
<text text-anchor="middle" x="912.601" y="-67.6026" font-family="Times New Roman,serif" font-size="8.00">ContactOrganizationReference_Organization</text>
<text text-anchor="middle" x="1073.28" y="-29.606" font-family="Times New Roman,serif" font-size="8.00">0...*</text>
<text text-anchor="middle" x="783.074" y="-111.843" font-family="Times New Roman,serif" font-size="8.00">0...*</text>
</g>
<!-- ItemTypeAccessType&#45;&gt;ItemTypeStructuredStringType -->
<g id="edge15" class="edge"><title>ItemTypeAccessType&#45;&gt;ItemTypeStructuredStringType</title>
<path fill="none" stroke="black" d="M816.297,-183.034C880.011,-183.879 952.383,-184.838 1010,-185.602"/>
<text text-anchor="middle" x="912.601" y="-188.603" font-family="Times New Roman,serif" font-size="8.00">Description</text>
<text text-anchor="middle" x="1002" y="-179.202" font-family="Times New Roman,serif" font-size="8.00">0...*</text>
<text text-anchor="middle" x="824.297" y="-176.634" font-family="Times New Roman,serif" font-size="8.00">0...*</text>
</g>
<!-- ItemTypeAccessType&#45;&gt;ItemTypeStructuredStringType -->
<g id="edge16" class="edge"><title>ItemTypeAccessType&#45;&gt;ItemTypeStructuredStringType</title>
<path fill="none" stroke="black" d="M816.405,-196.044C822.378,-196.409 828.293,-196.731 834.101,-197.003 903.803,-200.256 921.379,-199.798 991.101,-197.003 997.276,-196.755 1003.62,-196.439 1010.02,-196.072"/>
<text text-anchor="middle" x="912.601" y="-202.603" font-family="Times New Roman,serif" font-size="8.00">ConfidentialityStatement</text>
<text text-anchor="middle" x="1002.02" y="-189.672" font-family="Times New Roman,serif" font-size="8.00">0...*</text>
<text text-anchor="middle" x="824.405" y="-189.644" font-family="Times New Roman,serif" font-size="8.00">0...*</text>
</g>
<!-- ItemTypeAccessType&#45;&gt;ItemTypeStructuredStringType -->
<g id="edge17" class="edge"><title>ItemTypeAccessType&#45;&gt;ItemTypeStructuredStringType</title>
<path fill="none" stroke="black" d="M816.261,-211.081C822.274,-211.812 828.237,-212.459 834.101,-213.003 903.581,-219.448 921.693,-220.173 991.101,-213.003 1007.57,-211.301 1025.08,-208.365 1041.6,-205.063"/>
<text text-anchor="middle" x="912.601" y="-221.603" font-family="Times New Roman,serif" font-size="8.00">Restrictions</text>
<text text-anchor="middle" x="1033.6" y="-207.663" font-family="Times New Roman,serif" font-size="8.00">0...*</text>
<text text-anchor="middle" x="824.261" y="-204.681" font-family="Times New Roman,serif" font-size="8.00">0...*</text>
</g>
<!-- ItemTypeAccessType&#45;&gt;ItemTypeStructuredStringType -->
<g id="edge18" class="edge"><title>ItemTypeAccessType&#45;&gt;ItemTypeStructuredStringType</title>
<path fill="none" stroke="black" d="M816.439,-229.016C822.375,-230.148 828.277,-231.153 834.101,-232.003 903.147,-242.08 922.37,-244.043 991.101,-232.003 1020.64,-226.827 1052.42,-215.235 1076.47,-205.112"/>
<text text-anchor="middle" x="912.601" y="-243.603" font-family="Times New Roman,serif" font-size="8.00">CitationRequirement</text>
<text text-anchor="middle" x="1068.47" y="-207.712" font-family="Times New Roman,serif" font-size="8.00">0...*</text>
<text text-anchor="middle" x="824.439" y="-222.616" font-family="Times New Roman,serif" font-size="8.00">0...*</text>
</g>
<!-- ItemTypeAccessType&#45;&gt;ItemTypeStructuredStringType -->
<g id="edge19" class="edge"><title>ItemTypeAccessType&#45;&gt;ItemTypeStructuredStringType</title>
<path fill="none" stroke="black" d="M763.936,-118.487C786.268,-107.54 810.37,-97.8087 834.101,-92.0026 901.88,-75.4201 924.996,-69.6624 991.101,-92.0026 1035.92,-107.149 1077.33,-145.593 1099.26,-168.668"/>
<text text-anchor="middle" x="912.601" y="-94.6026" font-family="Times New Roman,serif" font-size="8.00">DepositRequirement</text>
<text text-anchor="middle" x="1091.26" y="-162.268" font-family="Times New Roman,serif" font-size="8.00">0...*</text>
<text text-anchor="middle" x="755.936" y="-112.087" font-family="Times New Roman,serif" font-size="8.00">0...*</text>
</g>
<!-- ItemTypeAccessType&#45;&gt;ItemTypeStructuredStringType -->
<g id="edge20" class="edge"><title>ItemTypeAccessType&#45;&gt;ItemTypeStructuredStringType</title>
<path fill="none" stroke="black" d="M816.325,-127.347C822.292,-126.08 828.232,-124.955 834.101,-124.003 902.978,-112.825 923.229,-107.808 991.101,-124.003 1027.15,-132.605 1064.58,-153.428 1088.86,-168.791"/>
<text text-anchor="middle" x="912.601" y="-126.603" font-family="Times New Roman,serif" font-size="8.00">AccessConditions</text>
<text text-anchor="middle" x="1080.86" y="-162.391" font-family="Times New Roman,serif" font-size="8.00">0...*</text>
<text text-anchor="middle" x="824.325" y="-120.947" font-family="Times New Roman,serif" font-size="8.00">0...*</text>
</g>
<!-- ItemTypeAccessType&#45;&gt;ItemTypeStructuredStringType -->
<g id="edge21" class="edge"><title>ItemTypeAccessType&#45;&gt;ItemTypeStructuredStringType</title>
<path fill="none" stroke="black" d="M816.306,-170.352C871.448,-168.098 934.104,-167.355 991.101,-171.003 997.299,-171.399 1003.66,-171.906 1010.07,-172.493"/>
<text text-anchor="middle" x="912.601" y="-173.603" font-family="Times New Roman,serif" font-size="8.00">Disclaimer</text>
<text text-anchor="middle" x="1002.07" y="-166.093" font-family="Times New Roman,serif" font-size="8.00">0...*</text>
<text text-anchor="middle" x="824.306" y="-163.952" font-family="Times New Roman,serif" font-size="8.00">0...*</text>
</g>
<!-- Individual -->
<g id="ItemTypeIndividual" class="node"><title></title><ellipse fill="#f7b733" stroke="black" cx="1116.6" cy="-581.003" rx="28.2235" ry="18" style="filter: url(#dropshadow)"/>
<text text-anchor="middle" x="1116.6" y="-579.103" font-family="Times New Roman,serif" font-size="8.00">Individual</text>
</g>
<!-- ItemTypeAccessType&#45;&gt;Individual -->
<g id="edge23" class="edge"><title>ItemTypeAccessType&#45;&gt;Individual</title>
<path fill="none" stroke="black" d="M808.828,-243.63C811.424,-246.614 813.857,-249.736 816.101,-253.003 847.141,-298.18 800.634,-455.593 834.101,-499.003 895.638,-578.823 1030.38,-584.224 1088.28,-582.574"/>
<text text-anchor="middle" x="912.601" y="-578.603" font-family="Times New Roman,serif" font-size="8.00">ContactOrganizationReference_Individual</text>
<text text-anchor="middle" x="1080.28" y="-576.174" font-family="Times New Roman,serif" font-size="8.00">0...*</text>
<text text-anchor="middle" x="800.828" y="-246.23" font-family="Times New Roman,serif" font-size="8.00">0...*</text>
</g>
<!-- ArchiveSpecificType -->
<g id="ReusableTypeArchiveSpecificType0" class="node"><title></title><ellipse fill="#f7b733" stroke="black" cx="51.0505" cy="-308.003" rx="51.1011" ry="18" style="filter: url(#dropshadow)"/>
<text text-anchor="middle" x="51.0505" y="-306.103" font-family="Times New Roman,serif" font-size="8.00">ArchiveSpecificType</text>
</g>
<!-- ArchiveSpecificType&#45;&gt;ItemTypeProperties -->
<g id="edge24" class="edge"><title>ArchiveSpecificType&#45;&gt;ItemTypeProperties</title>
<path fill="none" stroke="black" d="M99.8719,-302.668C114.097,-301.081 130.484,-299.254 147.582,-297.346"/>
<text text-anchor="middle" x="128.601" y="-303.603" font-family="Times New Roman,serif" font-size="8.00">Item</text>
<text text-anchor="middle" x="139.582" y="-290.946" font-family="Times New Roman,serif" font-size="8.00">0...*</text>
<text text-anchor="middle" x="107.872" y="-296.268" font-family="Times New Roman,serif" font-size="8.00">0...*</text>
</g>
<!-- CollectionType -->
<g id="ReusableTypeCollectionType1" class="node"><title></title><ellipse fill="#f7b733" stroke="black" cx="51.0505" cy="-254.003" rx="40.0477" ry="18" style="filter: url(#dropshadow)"/>
<text text-anchor="middle" x="51.0505" y="-252.103" font-family="Times New Roman,serif" font-size="8.00">CollectionType</text>
</g>
<!-- CollectionType&#45;&gt;ItemTypeProperties -->
<g id="edge25" class="edge"><title>CollectionType&#45;&gt;ItemTypeProperties</title>
<path fill="none" stroke="black" d="M90.4042,-258.281C106.491,-260.075 126.311,-262.286 147.211,-264.617"/>
<text text-anchor="middle" x="128.601" y="-265.603" font-family="Times New Roman,serif" font-size="8.00">Item</text>
<text text-anchor="middle" x="139.211" y="-258.217" font-family="Times New Roman,serif" font-size="8.00">0...*</text>
<text text-anchor="middle" x="98.4042" y="-251.881" font-family="Times New Roman,serif" font-size="8.00">0...*</text>
</g>
</g>
</svg>
