<?xml version="1.0" encoding="UTF-8" standalone="no"?>
<!DOCTYPE svg PUBLIC "-//W3C//DTD SVG 1.1//EN"
 "http://www.w3.org/Graphics/SVG/1.1/DTD/svg11.dtd">
<!-- Generated by graphviz version 2.38.0 (20140413.2041)
 -->
<!-- Title: G Pages: 1 -->
<svg width="1119pt" height="558pt"
 viewBox="0.00 0.00 1118.74 558.00" xmlns="http://www.w3.org/2000/svg" xmlns:xlink="http://www.w3.org/1999/xlink">
<filter id = "dropshadow" height = "130%" ><feGaussianBlur in= "SourceAlpha" stdDeviation = "3"/><!--stdDeviation is how much to blur--><feOffset dx = "2" dy = "2" result = "offsetblur"/><!--how much to offset--><feMerge><feMergeNode/><!--this contains the offset blurred image--><feMergeNode in= "SourceGraphic"/><!--this contains the element that the filter is applied to --></feMerge></filter>
<g id="graph0" class="graph" transform="scale(1 1) rotate(0) translate(4 554)">
<title>G</title>
<g id="clust1" class="cluster"><title>clusterNCubeGroup</title>
<polygon fill="#4abdac" stroke="black" points="180.74,-208 180.74,-542 1102.74,-542 1102.74,-208 180.74,-208" style="filter: url(#dropshadow)"/>
<text text-anchor="middle" x="641.74" y="-531.6" font-family="Times New Roman,serif" font-size="8.00">NCubeGroup</text>
</g>
<!-- NCubeGroupProperties -->
<g id="ItemTypeNCubeGroupProperties" class="node"><title></title><polygon fill="#f7b733" stroke="black" points="188.74,-216.5 188.74,-323.5 420.74,-323.5 420.74,-216.5 188.74,-216.5" style="filter: url(#dropshadow)"/>
<text text-anchor="middle" x="215.24" y="-268.1" font-family="Times New Roman,serif" font-size="8.00">Properties</text>
<polyline fill="none" stroke="black" points="241.74,-216.5 241.74,-323.5 "/>
<text text-anchor="start" x="249.74" y="-313.1" font-family="Times New Roman,serif" font-size="8.00">TypeOfNCubeGroup : CodeValueType[0...1] </text>
<text text-anchor="start" x="249.74" y="-304.1" font-family="Times New Roman,serif" font-size="8.00">NCubeGroupName : NameType[0...n] </text>
<text text-anchor="start" x="249.74" y="-295.1" font-family="Times New Roman,serif" font-size="8.00">Label : LabelType[0...n] </text>
<text text-anchor="start" x="249.74" y="-286.1" font-family="Times New Roman,serif" font-size="8.00">Description : StructuredStringType[0...1] </text>
<text text-anchor="start" x="249.74" y="-277.1" font-family="Times New Roman,serif" font-size="8.00">UniverseReference : Universe[0...n] </text>
<text text-anchor="start" x="249.74" y="-268.1" font-family="Times New Roman,serif" font-size="8.00">ConceptReference : Concept[0...1] </text>
<text text-anchor="start" x="249.74" y="-259.1" font-family="Times New Roman,serif" font-size="8.00">Subject : InternationalCodeValueType[0...n] </text>
<text text-anchor="start" x="249.74" y="-250.1" font-family="Times New Roman,serif" font-size="8.00">Keyword : InternationalCodeValueType[0...n] </text>
<text text-anchor="start" x="249.74" y="-241.1" font-family="Times New Roman,serif" font-size="8.00">NCubeReference : NCube[0...1] </text>
<text text-anchor="start" x="249.74" y="-232.1" font-family="Times New Roman,serif" font-size="8.00">NCubeGroupReference : NCubeGroup[0...1] </text>
<text text-anchor="start" x="249.74" y="-223.1" font-family="Times New Roman,serif" font-size="8.00">IsOrdered : boolean[0...1] </text>
</g>
<!-- NCubeGroupProperties&#45;&gt;NCubeGroupProperties -->
<g id="edge11" class="edge"><title>NCubeGroupProperties&#45;&gt;NCubeGroupProperties</title>
<path fill="none" stroke="black" d="M273.82,-323.694C277.3,-334.38 287.607,-342 304.74,-342 321.872,-342 332.179,-334.38 335.659,-323.694"/>
<text text-anchor="middle" x="304.74" y="-344.6" font-family="Times New Roman,serif" font-size="8.00">NCubeGroupReference</text>
<text text-anchor="middle" x="327.659" y="-326.294" font-family="Times New Roman,serif" font-size="8.00">0...*</text>
<text text-anchor="middle" x="265.82" y="-326.294" font-family="Times New Roman,serif" font-size="8.00">0...*</text>
</g>
<!-- NCubeGroupCodeValueType -->
<g id="ReusableTypeNCubeGroupCodeValueType" class="node"><title></title><polygon fill="#fc4a1a" stroke="black" points="879.74,-240.5 879.74,-311.5 1094.74,-311.5 1094.74,-240.5 879.74,-240.5" style="filter: url(#dropshadow)"/>
<text text-anchor="middle" x="915.24" y="-274.1" font-family="Times New Roman,serif" font-size="8.00">CodeValueType</text>
<polyline fill="none" stroke="black" points="950.74,-240.5 950.74,-311.5 "/>
<text text-anchor="start" x="958.74" y="-301.1" font-family="Times New Roman,serif" font-size="8.00">CodeListID : string[0...1] </text>
<text text-anchor="start" x="958.74" y="-292.1" font-family="Times New Roman,serif" font-size="8.00">CodeListName_string : string[0...1] </text>
<text text-anchor="start" x="958.74" y="-283.1" font-family="Times New Roman,serif" font-size="8.00">CodeListAgencyName : string[0...1] </text>
<text text-anchor="start" x="958.74" y="-274.1" font-family="Times New Roman,serif" font-size="8.00">CodeListVersionID : string[0...1] </text>
<text text-anchor="start" x="958.74" y="-265.1" font-family="Times New Roman,serif" font-size="8.00">OtherValue : string[0...1] </text>
<text text-anchor="start" x="958.74" y="-256.1" font-family="Times New Roman,serif" font-size="8.00">CodeListURN : string[0...1] </text>
<text text-anchor="start" x="958.74" y="-247.1" font-family="Times New Roman,serif" font-size="8.00">CodeListSchemeURN : string[0...1] </text>
</g>
<!-- NCubeGroupProperties&#45;&gt;NCubeGroupCodeValueType -->
<g id="edge1" class="edge"><title>NCubeGroupProperties&#45;&gt;NCubeGroupCodeValueType</title>
<path fill="none" stroke="black" d="M420.746,-253.828C457.416,-249.389 498.212,-245.195 535.74,-243 651.542,-236.226 681.17,-233.012 796.74,-243 823.689,-245.329 852.555,-249.488 879.428,-254.086"/>
<text text-anchor="middle" x="666.24" y="-245.6" font-family="Times New Roman,serif" font-size="8.00">TypeOfNCubeGroup</text>
</g>
<!-- NCubeGroupNameType -->
<g id="ReusableTypeNCubeGroupNameType" class="node"><title></title><polygon fill="#fc4a1a" stroke="black" points="581.74,-262 581.74,-298 750.74,-298 750.74,-262 581.74,-262" style="filter: url(#dropshadow)"/>
<text text-anchor="middle" x="609.74" y="-278.1" font-family="Times New Roman,serif" font-size="8.00">NameType</text>
<polyline fill="none" stroke="black" points="637.74,-262 637.74,-298 "/>
<text text-anchor="start" x="645.74" y="-282.6" font-family="Times New Roman,serif" font-size="8.00">IsPreferred : boolean[0...1] </text>
<text text-anchor="start" x="645.74" y="-273.6" font-family="Times New Roman,serif" font-size="8.00">Context : string[0...1] </text>
</g>
<!-- NCubeGroupProperties&#45;&gt;NCubeGroupNameType -->
<g id="edge2" class="edge"><title>NCubeGroupProperties&#45;&gt;NCubeGroupNameType</title>
<path fill="none" stroke="black" d="M420.971,-273.205C473.239,-274.659 533.899,-276.347 581.694,-277.676"/>
<text text-anchor="middle" x="478.24" y="-278.6" font-family="Times New Roman,serif" font-size="8.00">NCubeGroupName</text>
</g>
<!-- NCubeGroupLabelType -->
<g id="ReusableTypeNCubeGroupLabelType" class="node"><title></title><polygon fill="#fc4a1a" stroke="black" points="564.74,-317.5 564.74,-370.5 767.74,-370.5 767.74,-317.5 564.74,-317.5" style="filter: url(#dropshadow)"/>
<text text-anchor="middle" x="591.74" y="-342.1" font-family="Times New Roman,serif" font-size="8.00">LabelType</text>
<polyline fill="none" stroke="black" points="618.74,-317.5 618.74,-370.5 "/>
<text text-anchor="start" x="626.74" y="-360.1" font-family="Times New Roman,serif" font-size="8.00">TypeOfLabel : CodeValueType[0...1] </text>
<text text-anchor="start" x="626.74" y="-351.1" font-family="Times New Roman,serif" font-size="8.00">LocationVariant : string[0...1] </text>
<text text-anchor="start" x="626.74" y="-342.1" font-family="Times New Roman,serif" font-size="8.00">ValidForStartDate : cogsDate[0...1] </text>
<text text-anchor="start" x="626.74" y="-333.1" font-family="Times New Roman,serif" font-size="8.00">ValidForEndDate : cogsDate[0...1] </text>
<text text-anchor="start" x="626.74" y="-324.1" font-family="Times New Roman,serif" font-size="8.00">MaxLength : int[0...1] </text>
</g>
<!-- NCubeGroupProperties&#45;&gt;NCubeGroupLabelType -->
<g id="edge3" class="edge"><title>NCubeGroupProperties&#45;&gt;NCubeGroupLabelType</title>
<path fill="none" stroke="black" d="M420.971,-293.719C467.181,-303.231 519.949,-314.093 564.588,-323.282"/>
<text text-anchor="middle" x="478.24" y="-316.6" font-family="Times New Roman,serif" font-size="8.00">Label</text>
</g>
<!-- NCubeGroupStructuredStringType -->
<g id="ReusableTypeNCubeGroupStructuredStringType" class="node"><title></title><polygon fill="#fc4a1a" stroke="black" points="559.74,-390 559.74,-426 772.74,-426 772.74,-390 559.74,-390" style="filter: url(#dropshadow)"/>
<text text-anchor="middle" x="604.74" y="-406.1" font-family="Times New Roman,serif" font-size="8.00">StructuredStringType</text>
<polyline fill="none" stroke="black" points="649.74,-390 649.74,-426 "/>
<text text-anchor="start" x="657.74" y="-406.1" font-family="Times New Roman,serif" font-size="8.00">Content : ContentType[0...n] </text>
</g>
<!-- NCubeGroupProperties&#45;&gt;NCubeGroupStructuredStringType -->
<g id="edge4" class="edge"><title>NCubeGroupProperties&#45;&gt;NCubeGroupStructuredStringType</title>
<path fill="none" stroke="black" d="M404.655,-323.544C444.505,-343.45 491.451,-364.854 535.74,-380 546.513,-383.684 557.962,-386.991 569.422,-389.928"/>
<text text-anchor="middle" x="478.24" y="-375.6" font-family="Times New Roman,serif" font-size="8.00">Description</text>
</g>
<!-- Universe -->
<g id="ItemTypeUniverse" class="node"><title></title><ellipse fill="#f7b733" stroke="black" cx="666.24" cy="-180" rx="27" ry="18" style="filter: url(#dropshadow)"/>
<text text-anchor="middle" x="666.24" y="-178.1" font-family="Times New Roman,serif" font-size="8.00">Universe</text>
</g>
<!-- NCubeGroupProperties&#45;&gt;Universe -->
<g id="edge5" class="edge"><title>NCubeGroupProperties&#45;&gt;Universe</title>
<path fill="none" stroke="black" d="M421.018,-225.201C426.979,-223.344 432.91,-221.596 438.74,-220 510.184,-200.443 597.016,-188.226 639.423,-182.98"/>
<text text-anchor="middle" x="478.24" y="-222.6" font-family="Times New Roman,serif" font-size="8.00">UniverseReference</text>
<text text-anchor="middle" x="631.423" y="-176.58" font-family="Times New Roman,serif" font-size="8.00">0...*</text>
<text text-anchor="middle" x="429.018" y="-218.801" font-family="Times New Roman,serif" font-size="8.00">0...*</text>
</g>
<!-- Concept -->
<g id="ItemTypeConcept" class="node"><title></title><ellipse fill="#f7b733" stroke="black" cx="666.24" cy="-126" rx="27" ry="18" style="filter: url(#dropshadow)"/>
<text text-anchor="middle" x="666.24" y="-124.1" font-family="Times New Roman,serif" font-size="8.00">Concept</text>
</g>
<!-- NCubeGroupProperties&#45;&gt;Concept -->
<g id="edge6" class="edge"><title>NCubeGroupProperties&#45;&gt;Concept</title>
<path fill="none" stroke="black" d="M389.634,-216.49C405.661,-207.146 422.507,-197.901 438.74,-190 480.227,-169.807 491.46,-165.972 535.74,-153 571.224,-142.605 613.296,-134.606 639.635,-130.1"/>
<text text-anchor="middle" x="478.24" y="-192.6" font-family="Times New Roman,serif" font-size="8.00">ConceptReference</text>
<text text-anchor="middle" x="631.635" y="-123.7" font-family="Times New Roman,serif" font-size="8.00">0...*</text>
<text text-anchor="middle" x="381.634" y="-210.09" font-family="Times New Roman,serif" font-size="8.00">0...*</text>
</g>
<!-- NCubeGroupInternationalCodeValueType -->
<g id="ReusableTypeNCubeGroupInternationalCodeValueType" class="node"><title></title><polygon fill="#fc4a1a" stroke="black" points="535.74,-445.5 535.74,-516.5 796.74,-516.5 796.74,-445.5 535.74,-445.5" style="filter: url(#dropshadow)"/>
<text text-anchor="middle" x="594.24" y="-479.1" font-family="Times New Roman,serif" font-size="8.00">InternationalCodeValueType</text>
<polyline fill="none" stroke="black" points="652.74,-445.5 652.74,-516.5 "/>
<text text-anchor="start" x="660.74" y="-506.1" font-family="Times New Roman,serif" font-size="8.00">CodeListID : string[0...1] </text>
<text text-anchor="start" x="660.74" y="-497.1" font-family="Times New Roman,serif" font-size="8.00">CodeListName_string : string[0...1] </text>
<text text-anchor="start" x="660.74" y="-488.1" font-family="Times New Roman,serif" font-size="8.00">CodeListAgencyName : string[0...1] </text>
<text text-anchor="start" x="660.74" y="-479.1" font-family="Times New Roman,serif" font-size="8.00">CodeListVersionID : string[0...1] </text>
<text text-anchor="start" x="660.74" y="-470.1" font-family="Times New Roman,serif" font-size="8.00">OtherValue : string[0...1] </text>
<text text-anchor="start" x="660.74" y="-461.1" font-family="Times New Roman,serif" font-size="8.00">CodeListURN : string[0...1] </text>
<text text-anchor="start" x="660.74" y="-452.1" font-family="Times New Roman,serif" font-size="8.00">CodeListSchemeURN : string[0...1] </text>
</g>
<!-- NCubeGroupProperties&#45;&gt;NCubeGroupInternationalCodeValueType -->
<g id="edge7" class="edge"><title>NCubeGroupProperties&#45;&gt;NCubeGroupInternationalCodeValueType</title>
<path fill="none" stroke="black" d="M361.219,-323.72C384.194,-344.512 411.746,-367.668 438.74,-386 478.863,-413.249 491.165,-416.881 535.74,-436 543.177,-439.19 550.923,-442.326 558.764,-445.367"/>
<text text-anchor="middle" x="478.24" y="-429.6" font-family="Times New Roman,serif" font-size="8.00">Subject</text>
<text text-anchor="middle" x="550.764" y="-438.967" font-family="Times New Roman,serif" font-size="8.00">0...*</text>
<text text-anchor="middle" x="353.219" y="-326.32" font-family="Times New Roman,serif" font-size="8.00">0...*</text>
</g>
<!-- NCube -->
<g id="ItemTypeNCube" class="node"><title></title><ellipse fill="#f7b733" stroke="black" cx="666.24" cy="-72" rx="27" ry="18" style="filter: url(#dropshadow)"/>
<text text-anchor="middle" x="666.24" y="-70.1" font-family="Times New Roman,serif" font-size="8.00">NCube</text>
</g>
<!-- NCubeGroupProperties&#45;&gt;NCube -->
<g id="edge8" class="edge"><title>NCubeGroupProperties&#45;&gt;NCube</title>
<path fill="none" stroke="black" d="M356.017,-216.338C379.692,-192.924 409.183,-166.255 438.74,-146 478.256,-118.919 490.394,-114.45 535.74,-99 570.739,-87.0752 612.936,-79.4705 639.434,-75.4685"/>
<text text-anchor="middle" x="478.24" y="-148.6" font-family="Times New Roman,serif" font-size="8.00">NCubeReference</text>
<text text-anchor="middle" x="631.434" y="-69.0685" font-family="Times New Roman,serif" font-size="8.00">0...*</text>
<text text-anchor="middle" x="348.017" y="-209.938" font-family="Times New Roman,serif" font-size="8.00">0...*</text>
</g>
<!-- NCubeGroup -->
<g id="ItemTypeNCubeGroup0" class="node"><title></title><ellipse fill="#f7b733" stroke="black" cx="666.24" cy="-18" rx="34.0674" ry="18" style="filter: url(#dropshadow)"/>
<text text-anchor="middle" x="666.24" y="-16.1" font-family="Times New Roman,serif" font-size="8.00">NCubeGroup</text>
</g>
<!-- NCubeGroupProperties&#45;&gt;NCubeGroup -->
<g id="edge9" class="edge"><title>NCubeGroupProperties&#45;&gt;NCubeGroup</title>
<path fill="none" stroke="black" d="M336.645,-216.301C360.675,-178.156 396.895,-127.744 438.74,-93 496.263,-45.2374 585.271,-27.5424 632.768,-21.2594"/>
<text text-anchor="middle" x="478.24" y="-95.6" font-family="Times New Roman,serif" font-size="8.00">NCubeGroupReference</text>
<text text-anchor="middle" x="624.768" y="-14.8594" font-family="Times New Roman,serif" font-size="8.00">0...*</text>
<text text-anchor="middle" x="328.645" y="-209.901" font-family="Times New Roman,serif" font-size="8.00">0...*</text>
</g>
<!-- NCubeGroupLabelType&#45;&gt;NCubeGroupCodeValueType -->
<g id="edge10" class="edge"><title>NCubeGroupLabelType&#45;&gt;NCubeGroupCodeValueType</title>
<path fill="none" stroke="black" d="M768.173,-322.484C803.676,-314.916 843.674,-306.39 879.629,-298.726"/>
<text text-anchor="middle" x="838.24" y="-315.6" font-family="Times New Roman,serif" font-size="8.00">TypeOfLabel</text>
<text text-anchor="middle" x="871.629" y="-292.326" font-family="Times New Roman,serif" font-size="8.00">0...*</text>
<text text-anchor="middle" x="776.173" y="-316.084" font-family="Times New Roman,serif" font-size="8.00">0...*</text>
</g>
<!-- NCubeScheme -->
<g id="ItemTypeNCubeScheme1" class="node"><title></title><ellipse fill="#f7b733" stroke="black" cx="36.8698" cy="-270" rx="36.7401" ry="18" style="filter: url(#dropshadow)"/>
<text text-anchor="middle" x="36.8698" y="-268.1" font-family="Times New Roman,serif" font-size="8.00">NCubeScheme</text>
</g>
<!-- NCubeScheme&#45;&gt;NCubeGroupProperties -->
<g id="edge12" class="edge"><title>NCubeScheme&#45;&gt;NCubeGroupProperties</title>
<path fill="none" stroke="black" d="M74.0029,-270C101.871,-270 142.136,-270 181.197,-270"/>
<text text-anchor="middle" x="131.24" y="-272.6" font-family="Times New Roman,serif" font-size="8.00">NCubeGroupReference</text>
<text text-anchor="middle" x="173.197" y="-263.6" font-family="Times New Roman,serif" font-size="8.00">0...*</text>
<text text-anchor="middle" x="82.0029" y="-263.6" font-family="Times New Roman,serif" font-size="8.00">0...*</text>
</g>
</g>
</svg>
