<?xml version="1.0" encoding="UTF-8" standalone="no"?>
<!DOCTYPE svg PUBLIC "-//W3C//DTD SVG 1.1//EN"
 "http://www.w3.org/Graphics/SVG/1.1/DTD/svg11.dtd">
<!-- Generated by graphviz version 2.38.0 (20140413.2041)
 -->
<!-- Title: G Pages: 1 -->
<svg width="2113pt" height="561pt"
 viewBox="0.00 0.00 2113.37 561.00" xmlns="http://www.w3.org/2000/svg" xmlns:xlink="http://www.w3.org/1999/xlink">
<filter id = "dropshadow" height = "130%" ><feGaussianBlur in= "SourceAlpha" stdDeviation = "3"/><!--stdDeviation is how much to blur--><feOffset dx = "2" dy = "2" result = "offsetblur"/><!--how much to offset--><feMerge><feMergeNode/><!--this contains the offset blurred image--><feMergeNode in= "SourceGraphic"/><!--this contains the element that the filter is applied to --></feMerge></filter>
<g id="graph0" class="graph" transform="scale(1 1) rotate(0) translate(4 557)">
<title>G</title>
<g id="clust1" class="cluster"><title>clusterNCube</title>
<polygon fill="#4abdac" stroke="black" points="190.37,-138 190.37,-497 2097.37,-497 2097.37,-138 190.37,-138" style="filter: url(#dropshadow)"/>
<text text-anchor="middle" x="1143.87" y="-486.6" font-family="Times New Roman,serif" font-size="8.00">NCube</text>
</g>
<!-- NCubeProperties -->
<g id="ItemTypeNCubeProperties" class="node"><title></title><polygon fill="#f7b733" stroke="black" points="198.37,-164 198.37,-316 529.37,-316 529.37,-164 198.37,-164" style="filter: url(#dropshadow)"/>
<text text-anchor="middle" x="224.87" y="-238.1" font-family="Times New Roman,serif" font-size="8.00">Properties</text>
<polyline fill="none" stroke="black" points="251.37,-164 251.37,-316 "/>
<text text-anchor="start" x="259.37" y="-305.6" font-family="Times New Roman,serif" font-size="8.00">NCubeName : NameType[0...n] </text>
<text text-anchor="start" x="259.37" y="-296.6" font-family="Times New Roman,serif" font-size="8.00">Label : LabelType[0...n] </text>
<text text-anchor="start" x="259.37" y="-287.6" font-family="Times New Roman,serif" font-size="8.00">Description : StructuredStringType[0...1] </text>
<text text-anchor="start" x="259.37" y="-278.6" font-family="Times New Roman,serif" font-size="8.00">UniverseReference : Universe[0...n] </text>
<text text-anchor="start" x="259.37" y="-269.6" font-family="Times New Roman,serif" font-size="8.00">ImputationReference_GeneralInstruction : GeneralInstruction[0...1] </text>
<text text-anchor="start" x="259.37" y="-260.6" font-family="Times New Roman,serif" font-size="8.00">ImputationReference_GenerationInstruction : GenerationInstruction[0...1] </text>
<text text-anchor="start" x="259.37" y="-251.6" font-family="Times New Roman,serif" font-size="8.00">SourceUnit : CodeValueType[0...1] </text>
<text text-anchor="start" x="259.37" y="-242.6" font-family="Times New Roman,serif" font-size="8.00">AnalysisUnit : CodeValueType[0...1] </text>
<text text-anchor="start" x="259.37" y="-233.6" font-family="Times New Roman,serif" font-size="8.00">Purpose : StructuredStringType[0...1] </text>
<text text-anchor="start" x="259.37" y="-224.6" font-family="Times New Roman,serif" font-size="8.00">Dimension : DimensionType[0...n] </text>
<text text-anchor="start" x="259.37" y="-215.6" font-family="Times New Roman,serif" font-size="8.00">CoordinateRegion : CoordinateRegionType[0...n] </text>
<text text-anchor="start" x="259.37" y="-206.6" font-family="Times New Roman,serif" font-size="8.00">MeasureDefinition : MeasureDefinitionType[0...n] </text>
<text text-anchor="start" x="259.37" y="-197.6" font-family="Times New Roman,serif" font-size="8.00">Attribute : AttributeType[0...n] </text>
<text text-anchor="start" x="259.37" y="-188.6" font-family="Times New Roman,serif" font-size="8.00">DimensionCount : int[0...1] </text>
<text text-anchor="start" x="259.37" y="-179.6" font-family="Times New Roman,serif" font-size="8.00">CellCount : int[0...1] </text>
<text text-anchor="start" x="259.37" y="-170.6" font-family="Times New Roman,serif" font-size="8.00">IsClean : boolean[0...1] </text>
</g>
<!-- NCubeNameType -->
<g id="ReusableTypeNCubeNameType" class="node"><title></title><polygon fill="#fc4a1a" stroke="black" points="784.37,-147 784.37,-183 953.37,-183 953.37,-147 784.37,-147" style="filter: url(#dropshadow)"/>
<text text-anchor="middle" x="812.37" y="-163.1" font-family="Times New Roman,serif" font-size="8.00">NameType</text>
<polyline fill="none" stroke="black" points="840.37,-147 840.37,-183 "/>
<text text-anchor="start" x="848.37" y="-167.6" font-family="Times New Roman,serif" font-size="8.00">IsPreferred : boolean[0...1] </text>
<text text-anchor="start" x="848.37" y="-158.6" font-family="Times New Roman,serif" font-size="8.00">Context : string[0...1] </text>
</g>
<!-- NCubeProperties&#45;&gt;NCubeNameType -->
<g id="edge1" class="edge"><title>NCubeProperties&#45;&gt;NCubeNameType</title>
<path fill="none" stroke="black" d="M529.666,-192.373C535.623,-191.154 541.537,-190.023 547.37,-189 627.061,-175.023 719.298,-169.18 784.304,-166.74"/>
<text text-anchor="middle" x="624.87" y="-191.6" font-family="Times New Roman,serif" font-size="8.00">NCubeName</text>
</g>
<!-- NCubeLabelType -->
<g id="ReusableTypeNCubeLabelType" class="node"><title></title><polygon fill="#fc4a1a" stroke="black" points="1583.37,-176.5 1583.37,-229.5 1786.37,-229.5 1786.37,-176.5 1583.37,-176.5" style="filter: url(#dropshadow)"/>
<text text-anchor="middle" x="1610.37" y="-201.1" font-family="Times New Roman,serif" font-size="8.00">LabelType</text>
<polyline fill="none" stroke="black" points="1637.37,-176.5 1637.37,-229.5 "/>
<text text-anchor="start" x="1645.37" y="-219.1" font-family="Times New Roman,serif" font-size="8.00">TypeOfLabel : CodeValueType[0...1] </text>
<text text-anchor="start" x="1645.37" y="-210.1" font-family="Times New Roman,serif" font-size="8.00">LocationVariant : string[0...1] </text>
<text text-anchor="start" x="1645.37" y="-201.1" font-family="Times New Roman,serif" font-size="8.00">ValidForStartDate : cogsDate[0...1] </text>
<text text-anchor="start" x="1645.37" y="-192.1" font-family="Times New Roman,serif" font-size="8.00">ValidForEndDate : cogsDate[0...1] </text>
<text text-anchor="start" x="1645.37" y="-183.1" font-family="Times New Roman,serif" font-size="8.00">MaxLength : int[0...1] </text>
</g>
<!-- NCubeProperties&#45;&gt;NCubeLabelType -->
<g id="edge2" class="edge"><title>NCubeProperties&#45;&gt;NCubeLabelType</title>
<path fill="none" stroke="black" d="M529.569,-227.605C689.197,-216.253 938.217,-200.292 1154.37,-194 1297.42,-189.836 1333.29,-190.899 1476.37,-194 1511.16,-194.754 1549.2,-196.219 1583.11,-197.751"/>
<text text-anchor="middle" x="1085.87" y="-201.6" font-family="Times New Roman,serif" font-size="8.00">Label</text>
</g>
<!-- NCubeStructuredStringType -->
<g id="ReusableTypeNCubeStructuredStringType" class="node"><title></title><polygon fill="#fc4a1a" stroke="black" points="1578.37,-249 1578.37,-285 1791.37,-285 1791.37,-249 1578.37,-249" style="filter: url(#dropshadow)"/>
<text text-anchor="middle" x="1623.37" y="-265.1" font-family="Times New Roman,serif" font-size="8.00">StructuredStringType</text>
<polyline fill="none" stroke="black" points="1668.37,-249 1668.37,-285 "/>
<text text-anchor="start" x="1676.37" y="-265.1" font-family="Times New Roman,serif" font-size="8.00">Content : ContentType[0...n] </text>
</g>
<!-- NCubeProperties&#45;&gt;NCubeStructuredStringType -->
<g id="edge3" class="edge"><title>NCubeProperties&#45;&gt;NCubeStructuredStringType</title>
<path fill="none" stroke="black" d="M529.47,-243.765C589.548,-245.123 658.033,-246.652 720.37,-248 913.255,-252.17 961.477,-253.179 1154.37,-257 1301.34,-259.912 1471.25,-263.087 1578.13,-265.061"/>
<text text-anchor="middle" x="1085.87" y="-259.6" font-family="Times New Roman,serif" font-size="8.00">Description</text>
</g>
<!-- Universe -->
<g id="ItemTypeUniverse" class="node"><title></title><ellipse fill="#f7b733" stroke="black" cx="1684.87" cy="-112" rx="27" ry="18" style="filter: url(#dropshadow)"/>
<text text-anchor="middle" x="1684.87" y="-110.1" font-family="Times New Roman,serif" font-size="8.00">Universe</text>
</g>
<!-- NCubeProperties&#45;&gt;Universe -->
<g id="edge4" class="edge"><title>NCubeProperties&#45;&gt;Universe</title>
<path fill="none" stroke="black" d="M529.497,-173.358C535.501,-171.468 541.472,-169.674 547.37,-168 622.516,-146.673 642.659,-144.925 720.37,-137 1090.76,-99.229 1545.14,-108.229 1657.72,-111.232"/>
<text text-anchor="middle" x="1085.87" y="-118.6" font-family="Times New Roman,serif" font-size="8.00">UniverseReference</text>
<text text-anchor="middle" x="1649.72" y="-104.832" font-family="Times New Roman,serif" font-size="8.00">0...*</text>
<text text-anchor="middle" x="537.497" y="-166.958" font-family="Times New Roman,serif" font-size="8.00">0...*</text>
</g>
<!-- GeneralInstruction -->
<g id="ItemTypeGeneralInstruction" class="node"><title></title><ellipse fill="#f7b733" stroke="black" cx="868.87" cy="-72" rx="45.891" ry="18" style="filter: url(#dropshadow)"/>
<text text-anchor="middle" x="868.87" y="-70.1" font-family="Times New Roman,serif" font-size="8.00">GeneralInstruction</text>
</g>
<!-- NCubeProperties&#45;&gt;GeneralInstruction -->
<g id="edge5" class="edge"><title>NCubeProperties&#45;&gt;GeneralInstruction</title>
<path fill="none" stroke="black" d="M439.567,-163.888C470.323,-137.332 507.967,-110.352 547.37,-95 640.803,-58.5976 761.039,-61.9757 824.375,-67.2175"/>
<text text-anchor="middle" x="624.87" y="-97.6" font-family="Times New Roman,serif" font-size="8.00">ImputationReference_GeneralInstruction</text>
<text text-anchor="middle" x="816.375" y="-60.8175" font-family="Times New Roman,serif" font-size="8.00">0...*</text>
<text text-anchor="middle" x="431.567" y="-157.488" font-family="Times New Roman,serif" font-size="8.00">0...*</text>
</g>
<!-- GenerationInstruction -->
<g id="ItemTypeGenerationInstruction" class="node"><title></title><ellipse fill="#f7b733" stroke="black" cx="868.87" cy="-18" rx="52.5056" ry="18" style="filter: url(#dropshadow)"/>
<text text-anchor="middle" x="868.87" y="-16.1" font-family="Times New Roman,serif" font-size="8.00">GenerationInstruction</text>
</g>
<!-- NCubeProperties&#45;&gt;GenerationInstruction -->
<g id="edge6" class="edge"><title>NCubeProperties&#45;&gt;GenerationInstruction</title>
<path fill="none" stroke="black" d="M418.503,-163.669C450.968,-123.717 495.981,-78.0252 547.37,-53 635.184,-10.2365 752.198,-9.50951 817.803,-13.3808"/>
<text text-anchor="middle" x="624.87" y="-55.6" font-family="Times New Roman,serif" font-size="8.00">ImputationReference_GenerationInstruction</text>
<text text-anchor="middle" x="809.803" y="-6.9808" font-family="Times New Roman,serif" font-size="8.00">0...*</text>
<text text-anchor="middle" x="410.503" y="-157.269" font-family="Times New Roman,serif" font-size="8.00">0...*</text>
</g>
<!-- NCubeCodeValueType -->
<g id="ReusableTypeNCubeCodeValueType" class="node"><title></title><polygon fill="#fc4a1a" stroke="black" points="1874.37,-243.5 1874.37,-314.5 2089.37,-314.5 2089.37,-243.5 1874.37,-243.5" style="filter: url(#dropshadow)"/>
<text text-anchor="middle" x="1909.87" y="-277.1" font-family="Times New Roman,serif" font-size="8.00">CodeValueType</text>
<polyline fill="none" stroke="black" points="1945.37,-243.5 1945.37,-314.5 "/>
<text text-anchor="start" x="1953.37" y="-304.1" font-family="Times New Roman,serif" font-size="8.00">CodeListID : string[0...1] </text>
<text text-anchor="start" x="1953.37" y="-295.1" font-family="Times New Roman,serif" font-size="8.00">CodeListName_string : string[0...1] </text>
<text text-anchor="start" x="1953.37" y="-286.1" font-family="Times New Roman,serif" font-size="8.00">CodeListAgencyName : string[0...1] </text>
<text text-anchor="start" x="1953.37" y="-277.1" font-family="Times New Roman,serif" font-size="8.00">CodeListVersionID : string[0...1] </text>
<text text-anchor="start" x="1953.37" y="-268.1" font-family="Times New Roman,serif" font-size="8.00">OtherValue : string[0...1] </text>
<text text-anchor="start" x="1953.37" y="-259.1" font-family="Times New Roman,serif" font-size="8.00">CodeListURN : string[0...1] </text>
<text text-anchor="start" x="1953.37" y="-250.1" font-family="Times New Roman,serif" font-size="8.00">CodeListSchemeURN : string[0...1] </text>
</g>
<!-- NCubeProperties&#45;&gt;NCubeCodeValueType -->
<g id="edge7" class="edge"><title>NCubeProperties&#45;&gt;NCubeCodeValueType</title>
<path fill="none" stroke="black" d="M529.661,-249.977C762.991,-263.532 1203.07,-286.995 1578.37,-295 1673.02,-297.019 1696.79,-298.986 1791.37,-295 1818.25,-293.867 1847.23,-291.834 1874.23,-289.588"/>
<text text-anchor="middle" x="1315.37" y="-294.6" font-family="Times New Roman,serif" font-size="8.00">SourceUnit</text>
<text text-anchor="middle" x="1866.23" y="-283.188" font-family="Times New Roman,serif" font-size="8.00">0...*</text>
<text text-anchor="middle" x="537.661" y="-243.577" font-family="Times New Roman,serif" font-size="8.00">0...*</text>
</g>
<!-- NCubeDimensionType -->
<g id="ReusableTypeNCubeDimensionType" class="node"><title></title><polygon fill="#fc4a1a" stroke="black" points="763.87,-435 763.87,-471 973.87,-471 973.87,-435 763.87,-435" style="filter: url(#dropshadow)"/>
<text text-anchor="middle" x="800.37" y="-451.1" font-family="Times New Roman,serif" font-size="8.00">DimensionType</text>
<polyline fill="none" stroke="black" points="836.87,-435 836.87,-471 "/>
<text text-anchor="start" x="844.87" y="-455.6" font-family="Times New Roman,serif" font-size="8.00">VariableReference : Variable[0...1] </text>
<text text-anchor="start" x="844.87" y="-446.6" font-family="Times New Roman,serif" font-size="8.00">Rank : int[1...1] </text>
</g>
<!-- NCubeProperties&#45;&gt;NCubeDimensionType -->
<g id="edge8" class="edge"><title>NCubeProperties&#45;&gt;NCubeDimensionType</title>
<path fill="none" stroke="black" d="M425.483,-316.034C457.8,-351.139 500.528,-389.861 547.37,-412 614.823,-443.88 698.695,-453.701 763.72,-455.779"/>
<text text-anchor="middle" x="624.87" y="-453.6" font-family="Times New Roman,serif" font-size="8.00">Dimension</text>
<text text-anchor="middle" x="755.72" y="-449.379" font-family="Times New Roman,serif" font-size="8.00">0...*</text>
<text text-anchor="middle" x="417.483" y="-318.634" font-family="Times New Roman,serif" font-size="8.00">0...*</text>
</g>
<!-- NCubeCoordinateRegionType -->
<g id="ReusableTypeNCubeCoordinateRegionType0" class="node"><title></title><polygon fill="#fc4a1a" stroke="black" points="1185.87,-204 1185.87,-248 1444.87,-248 1444.87,-204 1185.87,-204" style="filter: url(#dropshadow)"/>
<text text-anchor="middle" x="1234.87" y="-224.1" font-family="Times New Roman,serif" font-size="8.00">CoordinateRegionType</text>
<polyline fill="none" stroke="black" points="1283.87,-204 1283.87,-248 "/>
<text text-anchor="start" x="1291.87" y="-237.6" font-family="Times New Roman,serif" font-size="8.00">Label : LabelType[0...n] </text>
<text text-anchor="start" x="1291.87" y="-228.6" font-family="Times New Roman,serif" font-size="8.00">UniverseReference : Universe[0...n] </text>
<text text-anchor="start" x="1291.87" y="-219.6" font-family="Times New Roman,serif" font-size="8.00">Description : StructuredStringType[0...1] </text>
<text text-anchor="start" x="1291.87" y="-210.6" font-family="Times New Roman,serif" font-size="8.00">DimensionValue : CohortType[0...n] </text>
</g>
<!-- NCubeProperties&#45;&gt;NCubeCoordinateRegionType -->
<g id="edge9" class="edge"><title>NCubeProperties&#45;&gt;NCubeCoordinateRegionType</title>
<path fill="none" stroke="black" d="M529.447,-237.573C715.799,-234.826 1015.54,-230.406 1185.62,-227.898"/>
<text text-anchor="middle" x="868.87" y="-237.6" font-family="Times New Roman,serif" font-size="8.00">CoordinateRegion</text>
<text text-anchor="middle" x="1177.62" y="-221.498" font-family="Times New Roman,serif" font-size="8.00">0...*</text>
<text text-anchor="middle" x="537.447" y="-231.173" font-family="Times New Roman,serif" font-size="8.00">0...*</text>
</g>
<!-- NCubeMeasureDefinitionType -->
<g id="ReusableTypeNCubeMeasureDefinitionType1" class="node"><title></title><polygon fill="#fc4a1a" stroke="black" points="1154.37,-389 1154.37,-425 1476.37,-425 1476.37,-389 1154.37,-389" style="filter: url(#dropshadow)"/>
<text text-anchor="middle" x="1204.37" y="-405.1" font-family="Times New Roman,serif" font-size="8.00">MeasureDefinitionType</text>
<polyline fill="none" stroke="black" points="1254.37,-389 1254.37,-425 "/>
<text text-anchor="start" x="1262.37" y="-409.6" font-family="Times New Roman,serif" font-size="8.00">VariableReference : Variable[0...1] </text>
<text text-anchor="start" x="1262.37" y="-400.6" font-family="Times New Roman,serif" font-size="8.00">AggregationDefinition : AggregationDefinitionType[0...1] </text>
</g>
<!-- NCubeProperties&#45;&gt;NCubeMeasureDefinitionType -->
<g id="edge10" class="edge"><title>NCubeProperties&#45;&gt;NCubeMeasureDefinitionType</title>
<path fill="none" stroke="black" d="M511.475,-316.027C523.5,-321.364 535.566,-326.432 547.37,-331 746.256,-407.976 994.779,-418.564 1154.05,-415.59"/>
<text text-anchor="middle" x="868.87" y="-416.6" font-family="Times New Roman,serif" font-size="8.00">MeasureDefinition</text>
<text text-anchor="middle" x="1146.05" y="-409.19" font-family="Times New Roman,serif" font-size="8.00">0...*</text>
<text text-anchor="middle" x="503.475" y="-318.627" font-family="Times New Roman,serif" font-size="8.00">0...*</text>
</g>
<!-- NCubeAttributeType -->
<g id="ReusableTypeNCubeAttributeType2" class="node"><title></title><polygon fill="#fc4a1a" stroke="black" points="720.37,-308 720.37,-370 1017.37,-370 1017.37,-308 720.37,-308" style="filter: url(#dropshadow)"/>
<text text-anchor="middle" x="753.87" y="-337.1" font-family="Times New Roman,serif" font-size="8.00">AttributeType</text>
<polyline fill="none" stroke="black" points="787.37,-308 787.37,-370 "/>
<text text-anchor="start" x="795.37" y="-359.6" font-family="Times New Roman,serif" font-size="8.00">VariableReference : Variable[0...1] </text>
<text text-anchor="start" x="795.37" y="-350.6" font-family="Times New Roman,serif" font-size="8.00">AttachmentValue : string[0...1] </text>
<text text-anchor="start" x="795.37" y="-341.6" font-family="Times New Roman,serif" font-size="8.00">AttachmentRegionReference : CoordinateRegionType[0...1] </text>
<text text-anchor="start" x="795.37" y="-332.6" font-family="Times New Roman,serif" font-size="8.00">MeasureDefinitionReference : MeasureDefinitionType[0...n] </text>
<text text-anchor="start" x="795.37" y="-323.6" font-family="Times New Roman,serif" font-size="8.00">Value : ValueType[0...n] </text>
<text text-anchor="start" x="795.37" y="-314.6" font-family="Times New Roman,serif" font-size="8.00">AttachmentLevel : string[0...1] </text>
</g>
<!-- NCubeProperties&#45;&gt;NCubeAttributeType -->
<g id="edge11" class="edge"><title>NCubeProperties&#45;&gt;NCubeAttributeType</title>
<path fill="none" stroke="black" d="M529.738,-289.002C535.674,-290.408 541.565,-291.747 547.37,-293 603.416,-305.098 665.68,-314.858 720.311,-322.222"/>
<text text-anchor="middle" x="624.87" y="-320.6" font-family="Times New Roman,serif" font-size="8.00">Attribute</text>
<text text-anchor="middle" x="712.311" y="-315.822" font-family="Times New Roman,serif" font-size="8.00">0...*</text>
<text text-anchor="middle" x="537.738" y="-282.602" font-family="Times New Roman,serif" font-size="8.00">0...*</text>
</g>
<!-- NCubeLabelType&#45;&gt;NCubeCodeValueType -->
<g id="edge12" class="edge"><title>NCubeLabelType&#45;&gt;NCubeCodeValueType</title>
<path fill="none" stroke="black" d="M1786.57,-228.942C1814.86,-236.231 1845.71,-244.18 1874.33,-251.553"/>
<text text-anchor="middle" x="1832.87" y="-248.6" font-family="Times New Roman,serif" font-size="8.00">TypeOfLabel</text>
<text text-anchor="middle" x="1866.33" y="-245.153" font-family="Times New Roman,serif" font-size="8.00">0...*</text>
<text text-anchor="middle" x="1794.57" y="-222.542" font-family="Times New Roman,serif" font-size="8.00">0...*</text>
</g>
<!-- Variable -->
<g id="ItemTypeVariable3" class="node"><title></title><ellipse fill="#f7b733" stroke="black" cx="1684.87" cy="-523" rx="27" ry="18" style="filter: url(#dropshadow)"/>
<text text-anchor="middle" x="1684.87" y="-521.1" font-family="Times New Roman,serif" font-size="8.00">Variable</text>
</g>
<!-- NCubeDimensionType&#45;&gt;Variable -->
<g id="edge13" class="edge"><title>NCubeDimensionType&#45;&gt;Variable</title>
<path fill="none" stroke="black" d="M973.994,-455.545C1095.04,-459.306 1300.69,-468.175 1476.37,-488 1542.62,-495.476 1619.87,-510.081 1658.76,-517.85"/>
<text text-anchor="middle" x="1315.37" y="-490.6" font-family="Times New Roman,serif" font-size="8.00">VariableReference</text>
<text text-anchor="middle" x="1650.76" y="-511.45" font-family="Times New Roman,serif" font-size="8.00">0...*</text>
<text text-anchor="middle" x="981.994" y="-449.145" font-family="Times New Roman,serif" font-size="8.00">0...*</text>
</g>
<!-- NCubeCoordinateRegionType&#45;&gt;NCubeLabelType -->
<g id="edge14" class="edge"><title>NCubeCoordinateRegionType&#45;&gt;NCubeLabelType</title>
<path fill="none" stroke="black" d="M1444.9,-217.956C1490.23,-215.119 1540.51,-211.972 1583.2,-209.301"/>
<text text-anchor="middle" x="1527.37" y="-217.6" font-family="Times New Roman,serif" font-size="8.00">Label</text>
<text text-anchor="middle" x="1575.2" y="-202.901" font-family="Times New Roman,serif" font-size="8.00">0...*</text>
<text text-anchor="middle" x="1452.9" y="-211.556" font-family="Times New Roman,serif" font-size="8.00">0...*</text>
</g>
<!-- NCubeCoordinateRegionType&#45;&gt;NCubeStructuredStringType -->
<g id="edge16" class="edge"><title>NCubeCoordinateRegionType&#45;&gt;NCubeStructuredStringType</title>
<path fill="none" stroke="black" d="M1444.9,-240.34C1488.47,-245.201 1536.61,-250.571 1578.19,-255.21"/>
<text text-anchor="middle" x="1527.37" y="-255.6" font-family="Times New Roman,serif" font-size="8.00">Description</text>
<text text-anchor="middle" x="1570.19" y="-248.81" font-family="Times New Roman,serif" font-size="8.00">0...*</text>
<text text-anchor="middle" x="1452.9" y="-233.94" font-family="Times New Roman,serif" font-size="8.00">0...*</text>
</g>
<!-- NCubeCoordinateRegionType&#45;&gt;Universe -->
<g id="edge15" class="edge"><title>NCubeCoordinateRegionType&#45;&gt;Universe</title>
<path fill="none" stroke="black" d="M1372.16,-203.993C1424.74,-183.832 1506.04,-154.146 1578.37,-134 1605.41,-126.47 1636.98,-120.211 1658.49,-116.319"/>
<text text-anchor="middle" x="1527.37" y="-161.6" font-family="Times New Roman,serif" font-size="8.00">UniverseReference</text>
<text text-anchor="middle" x="1650.49" y="-118.919" font-family="Times New Roman,serif" font-size="8.00">0...*</text>
<text text-anchor="middle" x="1364.16" y="-197.593" font-family="Times New Roman,serif" font-size="8.00">0...*</text>
</g>
<!-- NCubeMeasureDefinitionType&#45;&gt;Variable -->
<g id="edge17" class="edge"><title>NCubeMeasureDefinitionType&#45;&gt;Variable</title>
<path fill="none" stroke="black" d="M1476.55,-408.148C1507.05,-414.936 1536.76,-426.883 1560.37,-447 1579.62,-463.409 1559.47,-484.18 1578.37,-501 1600.03,-520.281 1634.14,-524.279 1657.68,-524.433"/>
<text text-anchor="middle" x="1527.37" y="-449.6" font-family="Times New Roman,serif" font-size="8.00">VariableReference</text>
<text text-anchor="middle" x="1649.68" y="-527.033" font-family="Times New Roman,serif" font-size="8.00">0...*</text>
<text text-anchor="middle" x="1484.55" y="-401.748" font-family="Times New Roman,serif" font-size="8.00">0...*</text>
</g>
<!-- NCubeAttributeType&#45;&gt;NCubeCoordinateRegionType -->
<g id="edge19" class="edge"><title>NCubeAttributeType&#45;&gt;NCubeCoordinateRegionType</title>
<path fill="none" stroke="black" d="M1017.37,-309.251C1056.23,-300.771 1098.02,-291.079 1136.37,-281 1173.44,-271.258 1214.33,-258.75 1247.56,-248.125"/>
<text text-anchor="middle" x="1085.87" y="-305.6" font-family="Times New Roman,serif" font-size="8.00">AttachmentRegionReference</text>
<text text-anchor="middle" x="1239.56" y="-250.725" font-family="Times New Roman,serif" font-size="8.00">0...*</text>
<text text-anchor="middle" x="1025.37" y="-302.851" font-family="Times New Roman,serif" font-size="8.00">0...*</text>
</g>
<!-- NCubeAttributeType&#45;&gt;NCubeMeasureDefinitionType -->
<g id="edge20" class="edge"><title>NCubeAttributeType&#45;&gt;NCubeMeasureDefinitionType</title>
<path fill="none" stroke="black" d="M1017.57,-361.596C1075.81,-370.504 1141.76,-380.594 1196.68,-388.996"/>
<text text-anchor="middle" x="1085.87" y="-381.6" font-family="Times New Roman,serif" font-size="8.00">MeasureDefinitionReference</text>
<text text-anchor="middle" x="1188.68" y="-382.596" font-family="Times New Roman,serif" font-size="8.00">0...*</text>
<text text-anchor="middle" x="1025.57" y="-355.196" font-family="Times New Roman,serif" font-size="8.00">0...*</text>
</g>
<!-- NCubeAttributeType&#45;&gt;Variable -->
<g id="edge18" class="edge"><title>NCubeAttributeType&#45;&gt;Variable</title>
<path fill="none" stroke="black" d="M1002.89,-370.045C1007.85,-372.216 1012.69,-374.531 1017.37,-377 1026.32,-381.724 1144.99,-493.208 1154.37,-497 1335.48,-570.222 1580.26,-539.9 1658.63,-527.397"/>
<text text-anchor="middle" x="1315.37" y="-546.6" font-family="Times New Roman,serif" font-size="8.00">VariableReference</text>
<text text-anchor="middle" x="1650.63" y="-520.997" font-family="Times New Roman,serif" font-size="8.00">0...*</text>
<text text-anchor="middle" x="994.886" y="-372.645" font-family="Times New Roman,serif" font-size="8.00">0...*</text>
</g>
<!-- NCubeGroup -->
<g id="ItemTypeNCubeGroup4" class="node"><title></title><ellipse fill="#f7b733" stroke="black" cx="52.185" cy="-294" rx="34.0674" ry="18" style="filter: url(#dropshadow)"/>
<text text-anchor="middle" x="52.185" y="-292.1" font-family="Times New Roman,serif" font-size="8.00">NCubeGroup</text>
</g>
<!-- NCubeGroup&#45;&gt;NCubeProperties -->
<g id="edge21" class="edge"><title>NCubeGroup&#45;&gt;NCubeProperties</title>
<path fill="none" stroke="black" d="M84.8714,-288.475C110.849,-283.945 149.84,-277.146 190.465,-270.062"/>
<text text-anchor="middle" x="151.37" y="-283.6" font-family="Times New Roman,serif" font-size="8.00">NCubeReference</text>
<text text-anchor="middle" x="182.465" y="-263.662" font-family="Times New Roman,serif" font-size="8.00">0...*</text>
<text text-anchor="middle" x="92.8714" y="-291.075" font-family="Times New Roman,serif" font-size="8.00">0...*</text>
</g>
<!-- NCubeScheme -->
<g id="ItemTypeNCubeScheme5" class="node"><title></title><ellipse fill="#f7b733" stroke="black" cx="52.185" cy="-240" rx="36.7401" ry="18" style="filter: url(#dropshadow)"/>
<text text-anchor="middle" x="52.185" y="-238.1" font-family="Times New Roman,serif" font-size="8.00">NCubeScheme</text>
</g>
<!-- NCubeScheme&#45;&gt;NCubeProperties -->
<g id="edge22" class="edge"><title>NCubeScheme&#45;&gt;NCubeProperties</title>
<path fill="none" stroke="black" d="M89.3159,-240C115.193,-240 152.126,-240 190.513,-240"/>
<text text-anchor="middle" x="151.37" y="-242.6" font-family="Times New Roman,serif" font-size="8.00">NCubeReference</text>
<text text-anchor="middle" x="182.513" y="-233.6" font-family="Times New Roman,serif" font-size="8.00">0...*</text>
<text text-anchor="middle" x="97.3159" y="-233.6" font-family="Times New Roman,serif" font-size="8.00">0...*</text>
</g>
<!-- NCubesInRecordType -->
<g id="ReusableTypeNCubesInRecordType6" class="node"><title></title><ellipse fill="#f7b733" stroke="black" cx="52.185" cy="-186" rx="52.3706" ry="18" style="filter: url(#dropshadow)"/>
<text text-anchor="middle" x="52.185" y="-184.1" font-family="Times New Roman,serif" font-size="8.00">NCubesInRecordType</text>
</g>
<!-- NCubesInRecordType&#45;&gt;NCubeProperties -->
<g id="edge23" class="edge"><title>NCubesInRecordType&#45;&gt;NCubeProperties</title>
<path fill="none" stroke="black" d="M99.2136,-194.026C124.199,-198.383 156.827,-204.072 190.575,-209.957"/>
<text text-anchor="middle" x="151.37" y="-211.6" font-family="Times New Roman,serif" font-size="8.00">NCubeReference</text>
<text text-anchor="middle" x="182.575" y="-203.557" font-family="Times New Roman,serif" font-size="8.00">0...*</text>
<text text-anchor="middle" x="107.214" y="-187.626" font-family="Times New Roman,serif" font-size="8.00">0...*</text>
</g>
</g>
</svg>
