<?xml version="1.0" encoding="UTF-8" standalone="no"?>
<!DOCTYPE svg PUBLIC "-//W3C//DTD SVG 1.1//EN"
 "http://www.w3.org/Graphics/SVG/1.1/DTD/svg11.dtd">
<!-- Generated by graphviz version 2.38.0 (20140413.2041)
 -->
<!-- Title: G Pages: 1 -->
<svg width="1049pt" height="439pt"
 viewBox="0.00 0.00 1049.00 439.00" xmlns="http://www.w3.org/2000/svg" xmlns:xlink="http://www.w3.org/1999/xlink">
<filter id = "dropshadow" height = "130%" ><feGaussianBlur in= "SourceAlpha" stdDeviation = "3"/><!--stdDeviation is how much to blur--><feOffset dx = "2" dy = "2" result = "offsetblur"/><!--how much to offset--><feMerge><feMergeNode/><!--this contains the offset blurred image--><feMergeNode in= "SourceGraphic"/><!--this contains the element that the filter is applied to --></feMerge></filter>
<g id="graph0" class="graph" transform="scale(1 1) rotate(0) translate(4 435)">
<title>G</title>
<g id="clust1" class="cluster"><title>clusterNoteType</title>
<polygon fill="#4abdac" stroke="black" points="8,-98 8,-423 1033,-423 1033,-98 8,-98" style="filter: url(#dropshadow)"/>
<text text-anchor="middle" x="520.5" y="-412.6" font-family="Times New Roman,serif" font-size="8.00">NoteType</text>
</g>
<!-- NoteTypeProperties -->
<g id="ReusableTypeNoteTypeProperties" class="node"><title></title><polygon fill="#f7b733" stroke="black" points="16,-215 16,-295 246,-295 246,-215 16,-215" style="filter: url(#dropshadow)"/>
<text text-anchor="middle" x="42.5" y="-253.1" font-family="Times New Roman,serif" font-size="8.00">Properties</text>
<polyline fill="none" stroke="black" points="69,-215 69,-295 "/>
<text text-anchor="start" x="77" y="-284.6" font-family="Times New Roman,serif" font-size="8.00">TypeOfNote : CodeValueType[0...1] </text>
<text text-anchor="start" x="77" y="-275.6" font-family="Times New Roman,serif" font-size="8.00">NoteSubject : CodeValueType[0...1] </text>
<text text-anchor="start" x="77" y="-266.6" font-family="Times New Roman,serif" font-size="8.00">Relationship : RelationshipType[0...n] </text>
<text text-anchor="start" x="77" y="-257.6" font-family="Times New Roman,serif" font-size="8.00">Responsibility : string[0...1] </text>
<text text-anchor="start" x="77" y="-248.6" font-family="Times New Roman,serif" font-size="8.00">Header : InternationalStringType[0...1] </text>
<text text-anchor="start" x="77" y="-239.6" font-family="Times New Roman,serif" font-size="8.00">NoteContent : StructuredStringType[0...1] </text>
<text text-anchor="start" x="77" y="-230.6" font-family="Times New Roman,serif" font-size="8.00">ProprietaryInfo : ProprietaryInfoType[0...1] </text>
<text text-anchor="start" x="77" y="-221.6" font-family="Times New Roman,serif" font-size="8.00">Lang : language[0...1] </text>
</g>
<!-- NoteTypeCodeValueType -->
<g id="ReusableTypeNoteTypeCodeValueType" class="node"><title></title><polygon fill="#fc4a1a" stroke="black" points="389,-106.5 389,-177.5 604,-177.5 604,-106.5 389,-106.5" style="filter: url(#dropshadow)"/>
<text text-anchor="middle" x="424.5" y="-140.1" font-family="Times New Roman,serif" font-size="8.00">CodeValueType</text>
<polyline fill="none" stroke="black" points="460,-106.5 460,-177.5 "/>
<text text-anchor="start" x="468" y="-167.1" font-family="Times New Roman,serif" font-size="8.00">CodeListID : string[0...1] </text>
<text text-anchor="start" x="468" y="-158.1" font-family="Times New Roman,serif" font-size="8.00">CodeListName_string : string[0...1] </text>
<text text-anchor="start" x="468" y="-149.1" font-family="Times New Roman,serif" font-size="8.00">CodeListAgencyName : string[0...1] </text>
<text text-anchor="start" x="468" y="-140.1" font-family="Times New Roman,serif" font-size="8.00">CodeListVersionID : string[0...1] </text>
<text text-anchor="start" x="468" y="-131.1" font-family="Times New Roman,serif" font-size="8.00">OtherValue : string[0...1] </text>
<text text-anchor="start" x="468" y="-122.1" font-family="Times New Roman,serif" font-size="8.00">CodeListURN : string[0...1] </text>
<text text-anchor="start" x="468" y="-113.1" font-family="Times New Roman,serif" font-size="8.00">CodeListSchemeURN : string[0...1] </text>
</g>
<!-- NoteTypeProperties&#45;&gt;NoteTypeCodeValueType -->
<g id="edge1" class="edge"><title>NoteTypeProperties&#45;&gt;NoteTypeCodeValueType</title>
<path fill="none" stroke="black" d="M246.147,-216.407C275.966,-206.576 308.123,-196.195 338,-187 354.308,-181.981 371.623,-176.843 388.578,-171.917"/>
<text text-anchor="middle" x="292" y="-213.6" font-family="Times New Roman,serif" font-size="8.00">TypeOfNote</text>
</g>
<!-- NoteTypeRelationshipType -->
<g id="ReusableTypeNoteTypeRelationshipType" class="node"><title></title><polygon fill="#fc4a1a" stroke="black" points="338,-197 338,-241 655,-241 655,-197 338,-197" style="filter: url(#dropshadow)"/>
<text text-anchor="middle" x="377.5" y="-217.1" font-family="Times New Roman,serif" font-size="8.00">RelationshipType</text>
<polyline fill="none" stroke="black" points="417,-197 417,-241 "/>
<text text-anchor="start" x="425" y="-230.6" font-family="Times New Roman,serif" font-size="8.00">RelatedToReference_IdentifiableType : IdentifiableType[0...1] </text>
<text text-anchor="start" x="425" y="-221.6" font-family="Times New Roman,serif" font-size="8.00">RelatedToReference_Versionable : Versionable[0...1] </text>
<text text-anchor="start" x="425" y="-212.6" font-family="Times New Roman,serif" font-size="8.00">RelatedToReference_Maintainable : Maintainable[0...1] </text>
<text text-anchor="start" x="425" y="-203.6" font-family="Times New Roman,serif" font-size="8.00">RelationshipDescription : StructuredStringType[0...1] </text>
</g>
<!-- NoteTypeProperties&#45;&gt;NoteTypeRelationshipType -->
<g id="edge2" class="edge"><title>NoteTypeProperties&#45;&gt;NoteTypeRelationshipType</title>
<path fill="none" stroke="black" d="M246.016,-243.708C275.165,-240.821 307.027,-237.666 337.938,-234.604"/>
<text text-anchor="middle" x="292" y="-243.6" font-family="Times New Roman,serif" font-size="8.00">Relationship</text>
</g>
<!-- NoteTypeInternationalStringType -->
<g id="ReusableTypeNoteTypeInternationalStringType" class="node"><title></title><polygon fill="#fc4a1a" stroke="black" points="392.5,-260 392.5,-296 600.5,-296 600.5,-260 392.5,-260" style="filter: url(#dropshadow)"/>
<text text-anchor="middle" x="443" y="-276.1" font-family="Times New Roman,serif" font-size="8.00">InternationalStringType</text>
<polyline fill="none" stroke="black" points="493.5,-260 493.5,-296 "/>
<text text-anchor="start" x="501.5" y="-276.1" font-family="Times New Roman,serif" font-size="8.00">String : StringType[0...n] </text>
</g>
<!-- NoteTypeProperties&#45;&gt;NoteTypeInternationalStringType -->
<g id="edge3" class="edge"><title>NoteTypeProperties&#45;&gt;NoteTypeInternationalStringType</title>
<path fill="none" stroke="black" d="M246.016,-262.214C292.863,-265.178 346.716,-268.586 392.37,-271.475"/>
<text text-anchor="middle" x="292" y="-268.6" font-family="Times New Roman,serif" font-size="8.00">Header</text>
</g>
<!-- NoteTypeStructuredStringType -->
<g id="ReusableTypeNoteTypeStructuredStringType" class="node"><title></title><polygon fill="#fc4a1a" stroke="black" points="812,-286 812,-322 1025,-322 1025,-286 812,-286" style="filter: url(#dropshadow)"/>
<text text-anchor="middle" x="857" y="-302.1" font-family="Times New Roman,serif" font-size="8.00">StructuredStringType</text>
<polyline fill="none" stroke="black" points="902,-286 902,-322 "/>
<text text-anchor="start" x="910" y="-302.1" font-family="Times New Roman,serif" font-size="8.00">Content : ContentType[0...n] </text>
</g>
<!-- NoteTypeProperties&#45;&gt;NoteTypeStructuredStringType -->
<g id="edge4" class="edge"><title>NoteTypeProperties&#45;&gt;NoteTypeStructuredStringType</title>
<path fill="none" stroke="black" d="M246.03,-288.454C275.708,-295.716 307.828,-302.321 338,-306 502.533,-326.064 695.301,-319.475 811.82,-312.229"/>
<text text-anchor="middle" x="496.5" y="-321.6" font-family="Times New Roman,serif" font-size="8.00">NoteContent</text>
</g>
<!-- NoteTypeProprietaryInfoType -->
<g id="ReusableTypeNoteTypeProprietaryInfoType" class="node"><title></title><polygon fill="#fc4a1a" stroke="black" points="343.5,-361 343.5,-397 649.5,-397 649.5,-361 343.5,-361" style="filter: url(#dropshadow)"/>
<text text-anchor="middle" x="389" y="-377.1" font-family="Times New Roman,serif" font-size="8.00">ProprietaryInfoType</text>
<polyline fill="none" stroke="black" points="434.5,-361 434.5,-397 "/>
<text text-anchor="start" x="442.5" y="-377.1" font-family="Times New Roman,serif" font-size="8.00">ProprietaryProperty : StandardKeyValuePairType[0...n] </text>
</g>
<!-- NoteTypeProperties&#45;&gt;NoteTypeProprietaryInfoType -->
<g id="edge5" class="edge"><title>NoteTypeProperties&#45;&gt;NoteTypeProprietaryInfoType</title>
<path fill="none" stroke="black" d="M185.357,-295.164C208.455,-310.753 236.472,-327.377 264,-338 289.418,-347.809 317.32,-355.29 344.682,-360.991"/>
<text text-anchor="middle" x="292" y="-357.6" font-family="Times New Roman,serif" font-size="8.00">ProprietaryInfo</text>
</g>
<!-- NoteTypeRelationshipType&#45;&gt;NoteTypeStructuredStringType -->
<g id="edge8" class="edge"><title>NoteTypeRelationshipType&#45;&gt;NoteTypeStructuredStringType</title>
<path fill="none" stroke="black" d="M606.207,-241C675.234,-254.97 763.463,-272.826 828.353,-285.958"/>
<text text-anchor="middle" x="733.5" y="-280.6" font-family="Times New Roman,serif" font-size="8.00">RelationshipDescription</text>
<text text-anchor="middle" x="820.353" y="-279.558" font-family="Times New Roman,serif" font-size="8.00">0...*</text>
<text text-anchor="middle" x="598.207" y="-243.6" font-family="Times New Roman,serif" font-size="8.00">0...*</text>
</g>
<!-- Versionable -->
<g id="ItemTypeVersionable" class="node"><title></title><ellipse fill="#f7b733" stroke="black" cx="918.5" cy="-72" rx="31.5313" ry="18" style="filter: url(#dropshadow)"/>
<text text-anchor="middle" x="918.5" y="-70.1" font-family="Times New Roman,serif" font-size="8.00">Versionable</text>
</g>
<!-- NoteTypeRelationshipType&#45;&gt;Versionable -->
<g id="edge6" class="edge"><title>NoteTypeRelationshipType&#45;&gt;Versionable</title>
<path fill="none" stroke="black" d="M624.929,-196.958C635.227,-194.017 645.366,-190.71 655,-187 730.683,-157.853 736.393,-123.341 812,-94 836.42,-84.5234 865.682,-78.8322 887.188,-75.6204"/>
<text text-anchor="middle" x="733.5" y="-181.6" font-family="Times New Roman,serif" font-size="8.00">RelatedToReference_Versionable</text>
<text text-anchor="middle" x="879.188" y="-69.2204" font-family="Times New Roman,serif" font-size="8.00">0...*</text>
<text text-anchor="middle" x="616.929" y="-190.558" font-family="Times New Roman,serif" font-size="8.00">0...*</text>
</g>
<!-- Maintainable -->
<g id="ItemTypeMaintainable" class="node"><title></title><ellipse fill="#f7b733" stroke="black" cx="918.5" cy="-18" rx="35.3371" ry="18" style="filter: url(#dropshadow)"/>
<text text-anchor="middle" x="918.5" y="-16.1" font-family="Times New Roman,serif" font-size="8.00">Maintainable</text>
</g>
<!-- NoteTypeRelationshipType&#45;&gt;Maintainable -->
<g id="edge7" class="edge"><title>NoteTypeRelationshipType&#45;&gt;Maintainable</title>
<path fill="none" stroke="black" d="M643.307,-196.981C647.463,-193.997 651.381,-190.681 655,-187 685.74,-155.734 644.068,-122.947 673,-90 701.03,-58.0798 824.546,-33.5399 884.552,-23.265"/>
<text text-anchor="middle" x="733.5" y="-92.6" font-family="Times New Roman,serif" font-size="8.00">RelatedToReference_Maintainable</text>
<text text-anchor="middle" x="876.552" y="-16.865" font-family="Times New Roman,serif" font-size="8.00">0...*</text>
<text text-anchor="middle" x="635.307" y="-190.581" font-family="Times New Roman,serif" font-size="8.00">0...*</text>
</g>
<!-- Maintainable&#45;&gt;NoteTypeProperties -->
<g id="edge9" class="edge"><title>Maintainable&#45;&gt;NoteTypeProperties</title>
<path fill="none" stroke="black" d="M883.385,-15.4732C791.064,-10.0002 530.347,-3.66056 338,-88 330.885,-91.1199 323.812,-94.5541 316.808,-98.2476"/>
<text text-anchor="middle" x="496.5" y="-90.6" font-family="Times New Roman,serif" font-size="8.00">Note</text>
<text text-anchor="middle" x="308.808" y="-91.8476" font-family="Times New Roman,serif" font-size="8.00">0...*</text>
<text text-anchor="middle" x="875.385" y="-9.07322" font-family="Times New Roman,serif" font-size="8.00">0...*</text>
</g>
</g>
</svg>
