<?xml version="1.0" encoding="UTF-8" standalone="no"?>
<!DOCTYPE svg PUBLIC "-//W3C//DTD SVG 1.1//EN"
 "http://www.w3.org/Graphics/SVG/1.1/DTD/svg11.dtd">
<!-- Generated by graphviz version 2.38.0 (20140413.2041)
 -->
<!-- Title: G Pages: 1 -->
<svg width="1491pt" height="962pt"
 viewBox="0.00 0.00 1491.39 962.00" xmlns="http://www.w3.org/2000/svg" xmlns:xlink="http://www.w3.org/1999/xlink">
<filter id = "dropshadow" height = "130%" ><feGaussianBlur in= "SourceAlpha" stdDeviation = "3"/><!--stdDeviation is how much to blur--><feOffset dx = "2" dy = "2" result = "offsetblur"/><!--how much to offset--><feMerge><feMergeNode/><!--this contains the offset blurred image--><feMergeNode in= "SourceGraphic"/><!--this contains the element that the filter is applied to --></feMerge></filter>
<g id="graph0" class="graph" transform="scale(1 1) rotate(0) translate(4 958)">
<title>G</title>
<g id="clust1" class="cluster"><title>clusterOrganization</title>
<polygon fill="#4abdac" stroke="black" points="327.387,-246 327.387,-733 1475.39,-733 1475.39,-246 327.387,-246" style="filter: url(#dropshadow)"/>
<text text-anchor="middle" x="901.387" y="-722.6" font-family="Times New Roman,serif" font-size="8.00">Organization</text>
</g>
<!-- OrganizationProperties -->
<g id="ItemTypeOrganizationProperties" class="node"><title></title><polygon fill="#f7b733" stroke="black" points="335.387,-432 335.387,-512 639.387,-512 639.387,-432 335.387,-432" style="filter: url(#dropshadow)"/>
<text text-anchor="middle" x="361.887" y="-470.1" font-family="Times New Roman,serif" font-size="8.00">Properties</text>
<polyline fill="none" stroke="black" points="388.387,-432 388.387,-512 "/>
<text text-anchor="start" x="396.387" y="-501.6" font-family="Times New Roman,serif" font-size="8.00">OrganizationIdentification : OrganizationIdentificationType[0...1] </text>
<text text-anchor="start" x="396.387" y="-492.6" font-family="Times New Roman,serif" font-size="8.00">Description : StructuredStringType[0...1] </text>
<text text-anchor="start" x="396.387" y="-483.6" font-family="Times New Roman,serif" font-size="8.00">Keyword : InternationalCodeValueType[0...n] </text>
<text text-anchor="start" x="396.387" y="-474.6" font-family="Times New Roman,serif" font-size="8.00">RegionalCoverage : CodeValueType[0...n] </text>
<text text-anchor="start" x="396.387" y="-465.6" font-family="Times New Roman,serif" font-size="8.00">AdditionalInformation : AdditionalInformationType[0...n] </text>
<text text-anchor="start" x="396.387" y="-456.6" font-family="Times New Roman,serif" font-size="8.00">VersionDistinction : VersionDistinctionType[0...n] </text>
<text text-anchor="start" x="396.387" y="-447.6" font-family="Times New Roman,serif" font-size="8.00">ContactInformation : ContactInformationType[0...n] </text>
<text text-anchor="start" x="396.387" y="-438.6" font-family="Times New Roman,serif" font-size="8.00">Privacy : string[0...1] </text>
</g>
<!-- OrganizationOrganizationIdentificationType -->
<g id="ReusableTypeOrganizationOrganizationIdentificationType" class="node"><title></title><polygon fill="#fc4a1a" stroke="black" points="768.387,-255 768.387,-291 1153.39,-291 1153.39,-255 768.387,-255" style="filter: url(#dropshadow)"/>
<text text-anchor="middle" x="832.387" y="-271.1" font-family="Times New Roman,serif" font-size="8.00">OrganizationIdentificationType</text>
<polyline fill="none" stroke="black" points="896.387,-255 896.387,-291 "/>
<text text-anchor="start" x="904.387" y="-280.1" font-family="Times New Roman,serif" font-size="8.00">OrganizationName : OrganizationNameType[0...n] </text>
<text text-anchor="start" x="904.387" y="-271.1" font-family="Times New Roman,serif" font-size="8.00">DDIMaintenanceAgencyID : DDIMaintenanceAgencyIDType[0...n] </text>
<text text-anchor="start" x="904.387" y="-262.1" font-family="Times New Roman,serif" font-size="8.00">OrganizationImage : PrivateImageType[0...n] </text>
</g>
<!-- OrganizationProperties&#45;&gt;OrganizationOrganizationIdentificationType -->
<g id="edge1" class="edge"><title>OrganizationProperties&#45;&gt;OrganizationOrganizationIdentificationType</title>
<path fill="none" stroke="black" d="M518.811,-431.877C549.441,-394.683 600.239,-341.131 657.387,-314 691.618,-297.749 730.325,-287.377 768.338,-280.868"/>
<text text-anchor="middle" x="703.887" y="-316.6" font-family="Times New Roman,serif" font-size="8.00">OrganizationIdentification</text>
</g>
<!-- OrganizationStructuredStringType -->
<g id="ReusableTypeOrganizationStructuredStringType" class="node"><title></title><polygon fill="#fc4a1a" stroke="black" points="1253.39,-352 1253.39,-388 1466.39,-388 1466.39,-352 1253.39,-352" style="filter: url(#dropshadow)"/>
<text text-anchor="middle" x="1298.39" y="-368.1" font-family="Times New Roman,serif" font-size="8.00">StructuredStringType</text>
<polyline fill="none" stroke="black" points="1343.39,-352 1343.39,-388 "/>
<text text-anchor="start" x="1351.39" y="-368.1" font-family="Times New Roman,serif" font-size="8.00">Content : ContentType[0...n] </text>
</g>
<!-- OrganizationProperties&#45;&gt;OrganizationStructuredStringType -->
<g id="edge2" class="edge"><title>OrganizationProperties&#45;&gt;OrganizationStructuredStringType</title>
<path fill="none" stroke="black" d="M550.422,-431.984C605.253,-399.148 688.682,-355.211 768.387,-337 948.062,-295.947 1166.09,-328.688 1280.34,-351.923"/>
<text text-anchor="middle" x="960.887" y="-339.6" font-family="Times New Roman,serif" font-size="8.00">Description</text>
</g>
<!-- OrganizationInternationalCodeValueType -->
<g id="ReusableTypeOrganizationInternationalCodeValueType" class="node"><title></title><polygon fill="#fc4a1a" stroke="black" points="830.387,-355.5 830.387,-426.5 1091.39,-426.5 1091.39,-355.5 830.387,-355.5" style="filter: url(#dropshadow)"/>
<text text-anchor="middle" x="888.887" y="-389.1" font-family="Times New Roman,serif" font-size="8.00">InternationalCodeValueType</text>
<polyline fill="none" stroke="black" points="947.387,-355.5 947.387,-426.5 "/>
<text text-anchor="start" x="955.387" y="-416.1" font-family="Times New Roman,serif" font-size="8.00">CodeListID : string[0...1] </text>
<text text-anchor="start" x="955.387" y="-407.1" font-family="Times New Roman,serif" font-size="8.00">CodeListName_string : string[0...1] </text>
<text text-anchor="start" x="955.387" y="-398.1" font-family="Times New Roman,serif" font-size="8.00">CodeListAgencyName : string[0...1] </text>
<text text-anchor="start" x="955.387" y="-389.1" font-family="Times New Roman,serif" font-size="8.00">CodeListVersionID : string[0...1] </text>
<text text-anchor="start" x="955.387" y="-380.1" font-family="Times New Roman,serif" font-size="8.00">OtherValue : string[0...1] </text>
<text text-anchor="start" x="955.387" y="-371.1" font-family="Times New Roman,serif" font-size="8.00">CodeListURN : string[0...1] </text>
<text text-anchor="start" x="955.387" y="-362.1" font-family="Times New Roman,serif" font-size="8.00">CodeListSchemeURN : string[0...1] </text>
</g>
<!-- OrganizationProperties&#45;&gt;OrganizationInternationalCodeValueType -->
<g id="edge3" class="edge"><title>OrganizationProperties&#45;&gt;OrganizationInternationalCodeValueType</title>
<path fill="none" stroke="black" d="M639.518,-446.037C700.932,-435.486 771.179,-423.419 830.214,-413.277"/>
<text text-anchor="middle" x="703.887" y="-444.6" font-family="Times New Roman,serif" font-size="8.00">Keyword</text>
</g>
<!-- OrganizationCodeValueType -->
<g id="ReusableTypeOrganizationCodeValueType" class="node"><title></title><polygon fill="#fc4a1a" stroke="black" points="1252.39,-614.5 1252.39,-685.5 1467.39,-685.5 1467.39,-614.5 1252.39,-614.5" style="filter: url(#dropshadow)"/>
<text text-anchor="middle" x="1287.89" y="-648.1" font-family="Times New Roman,serif" font-size="8.00">CodeValueType</text>
<polyline fill="none" stroke="black" points="1323.39,-614.5 1323.39,-685.5 "/>
<text text-anchor="start" x="1331.39" y="-675.1" font-family="Times New Roman,serif" font-size="8.00">CodeListID : string[0...1] </text>
<text text-anchor="start" x="1331.39" y="-666.1" font-family="Times New Roman,serif" font-size="8.00">CodeListName_string : string[0...1] </text>
<text text-anchor="start" x="1331.39" y="-657.1" font-family="Times New Roman,serif" font-size="8.00">CodeListAgencyName : string[0...1] </text>
<text text-anchor="start" x="1331.39" y="-648.1" font-family="Times New Roman,serif" font-size="8.00">CodeListVersionID : string[0...1] </text>
<text text-anchor="start" x="1331.39" y="-639.1" font-family="Times New Roman,serif" font-size="8.00">OtherValue : string[0...1] </text>
<text text-anchor="start" x="1331.39" y="-630.1" font-family="Times New Roman,serif" font-size="8.00">CodeListURN : string[0...1] </text>
<text text-anchor="start" x="1331.39" y="-621.1" font-family="Times New Roman,serif" font-size="8.00">CodeListSchemeURN : string[0...1] </text>
</g>
<!-- OrganizationProperties&#45;&gt;OrganizationCodeValueType -->
<g id="edge4" class="edge"><title>OrganizationProperties&#45;&gt;OrganizationCodeValueType</title>
<path fill="none" stroke="black" d="M527.438,-512.34C577.777,-561.139 670.538,-640.643 768.387,-672 930.926,-724.088 1131.61,-699.18 1252.2,-675.355"/>
<text text-anchor="middle" x="960.887" y="-705.6" font-family="Times New Roman,serif" font-size="8.00">RegionalCoverage</text>
</g>
<!-- OrganizationAdditionalInformationType -->
<g id="ReusableTypeOrganizationAdditionalInformationType" class="node"><title></title><polygon fill="#fc4a1a" stroke="black" points="835.387,-518 835.387,-554 1086.39,-554 1086.39,-518 835.387,-518" style="filter: url(#dropshadow)"/>
<text text-anchor="middle" x="892.387" y="-534.1" font-family="Times New Roman,serif" font-size="8.00">AdditionalInformationType</text>
<polyline fill="none" stroke="black" points="949.387,-518 949.387,-554 "/>
<text text-anchor="start" x="957.387" y="-538.6" font-family="Times New Roman,serif" font-size="8.00">EffectivePeriod : DateType[0...1] </text>
<text text-anchor="start" x="957.387" y="-529.6" font-family="Times New Roman,serif" font-size="8.00">Privacy : string[0...1] </text>
</g>
<!-- OrganizationProperties&#45;&gt;OrganizationAdditionalInformationType -->
<g id="edge5" class="edge"><title>OrganizationProperties&#45;&gt;OrganizationAdditionalInformationType</title>
<path fill="none" stroke="black" d="M639.518,-492.514C702.683,-501.088 775.192,-510.93 835.235,-519.08"/>
<text text-anchor="middle" x="703.887" y="-508.6" font-family="Times New Roman,serif" font-size="8.00">AdditionalInformation</text>
</g>
<!-- OrganizationVersionDistinctionType -->
<g id="ReusableTypeOrganizationVersionDistinctionType" class="node"><title></title><polygon fill="#fc4a1a" stroke="black" points="824.387,-445.5 824.387,-498.5 1097.39,-498.5 1097.39,-445.5 824.387,-445.5" style="filter: url(#dropshadow)"/>
<text text-anchor="middle" x="874.887" y="-470.1" font-family="Times New Roman,serif" font-size="8.00">VersionDistinctionType</text>
<polyline fill="none" stroke="black" points="925.387,-445.5 925.387,-498.5 "/>
<text text-anchor="start" x="933.387" y="-488.1" font-family="Times New Roman,serif" font-size="8.00">VersionDistinctionName : NameType[0...n] </text>
<text text-anchor="start" x="933.387" y="-479.1" font-family="Times New Roman,serif" font-size="8.00">Label : LabelType[0...n] </text>
<text text-anchor="start" x="933.387" y="-470.1" font-family="Times New Roman,serif" font-size="8.00">Description : StructuredStringType[0...1] </text>
<text text-anchor="start" x="933.387" y="-461.1" font-family="Times New Roman,serif" font-size="8.00">EffectivePeriod : DateType[0...1] </text>
<text text-anchor="start" x="933.387" y="-452.1" font-family="Times New Roman,serif" font-size="8.00">RegExp : string[0...1] </text>
</g>
<!-- OrganizationProperties&#45;&gt;OrganizationVersionDistinctionType -->
<g id="edge6" class="edge"><title>OrganizationProperties&#45;&gt;OrganizationVersionDistinctionType</title>
<path fill="none" stroke="black" d="M639.518,-472C698.912,-472 766.567,-472 824.353,-472"/>
<text text-anchor="middle" x="703.887" y="-474.6" font-family="Times New Roman,serif" font-size="8.00">VersionDistinction</text>
</g>
<!-- OrganizationContactInformationType -->
<g id="ReusableTypeOrganizationContactInformationType" class="node"><title></title><polygon fill="#fc4a1a" stroke="black" points="814.887,-573.5 814.887,-662.5 1106.89,-662.5 1106.89,-573.5 814.887,-573.5" style="filter: url(#dropshadow)"/>
<text text-anchor="middle" x="867.887" y="-616.1" font-family="Times New Roman,serif" font-size="8.00">ContactInformationType</text>
<polyline fill="none" stroke="black" points="920.887,-573.5 920.887,-662.5 "/>
<text text-anchor="start" x="928.887" y="-652.1" font-family="Times New Roman,serif" font-size="8.00">LocationName : LocationNameType[0...n] </text>
<text text-anchor="start" x="928.887" y="-643.1" font-family="Times New Roman,serif" font-size="8.00">Address : AddressType[0...n] </text>
<text text-anchor="start" x="928.887" y="-634.1" font-family="Times New Roman,serif" font-size="8.00">Telephone : TelephoneType[0...n] </text>
<text text-anchor="start" x="928.887" y="-625.1" font-family="Times New Roman,serif" font-size="8.00">URL : URLType[0...n] </text>
<text text-anchor="start" x="928.887" y="-616.1" font-family="Times New Roman,serif" font-size="8.00">Email : EmailType[0...n] </text>
<text text-anchor="start" x="928.887" y="-607.1" font-family="Times New Roman,serif" font-size="8.00">InstantMessaging : InstantMessagingType[0...n] </text>
<text text-anchor="start" x="928.887" y="-598.1" font-family="Times New Roman,serif" font-size="8.00">RegionalCoverage : CodeValueType[0...1] </text>
<text text-anchor="start" x="928.887" y="-589.1" font-family="Times New Roman,serif" font-size="8.00">TypeOfLocation : CodeValueType[0...1] </text>
<text text-anchor="start" x="928.887" y="-580.1" font-family="Times New Roman,serif" font-size="8.00">Privacy : string[0...1] </text>
</g>
<!-- OrganizationProperties&#45;&gt;OrganizationContactInformationType -->
<g id="edge7" class="edge"><title>OrganizationProperties&#45;&gt;OrganizationContactInformationType</title>
<path fill="none" stroke="black" d="M608.692,-512.107C658.056,-528.3 715.844,-546.922 768.387,-563 783.354,-567.58 799.013,-572.259 814.652,-576.86"/>
<text text-anchor="middle" x="703.887" y="-558.6" font-family="Times New Roman,serif" font-size="8.00">ContactInformation</text>
</g>
<!-- OrganizationVersionDistinctionType&#45;&gt;OrganizationStructuredStringType -->
<g id="edge8" class="edge"><title>OrganizationVersionDistinctionType&#45;&gt;OrganizationStructuredStringType</title>
<path fill="none" stroke="black" d="M1097.57,-448.674C1116.4,-444.803 1135.43,-440.552 1153.39,-436 1207.14,-422.371 1267.43,-402.442 1308.73,-388.052"/>
<text text-anchor="middle" x="1202.89" y="-433.6" font-family="Times New Roman,serif" font-size="8.00">Description</text>
</g>
<!-- OrganizationContactInformationType&#45;&gt;OrganizationCodeValueType -->
<g id="edge9" class="edge"><title>OrganizationContactInformationType&#45;&gt;OrganizationCodeValueType</title>
<path fill="none" stroke="black" d="M1106.9,-612.082C1148.22,-612.141 1193.19,-613.872 1234.39,-619 1240.24,-619.729 1246.22,-620.64 1252.24,-621.686"/>
<text text-anchor="middle" x="1202.89" y="-621.6" font-family="Times New Roman,serif" font-size="8.00">RegionalCoverage</text>
</g>
<!-- OrganizationContactInformationType&#45;&gt;OrganizationCodeValueType -->
<g id="edge10" class="edge"><title>OrganizationContactInformationType&#45;&gt;OrganizationCodeValueType</title>
<path fill="none" stroke="black" d="M1106.9,-629.689C1154.96,-633.563 1207.55,-637.802 1252.19,-641.4"/>
<text text-anchor="middle" x="1202.89" y="-642.6" font-family="Times New Roman,serif" font-size="8.00">TypeOfLocation</text>
</g>
<!-- OrganizationGroup -->
<g id="ItemTypeOrganizationGroup" class="node"><title></title><ellipse fill="#f7b733" stroke="black" cx="60.6934" cy="-936" rx="47.16" ry="18" style="filter: url(#dropshadow)"/>
<text text-anchor="middle" x="60.6934" y="-934.1" font-family="Times New Roman,serif" font-size="8.00">OrganizationGroup</text>
</g>
<!-- OrganizationGroup&#45;&gt;OrganizationProperties -->
<g id="edge11" class="edge"><title>OrganizationGroup&#45;&gt;OrganizationProperties</title>
<path fill="none" stroke="black" d="M104.692,-942.761C159.932,-948.943 255.992,-950.918 317.387,-903 372.111,-860.289 409.146,-797.337 434.199,-732.665"/>
<text text-anchor="middle" x="228.387" y="-947.6" font-family="Times New Roman,serif" font-size="8.00">OrganizationReference</text>
</g>
<!-- OrganizationScheme -->
<g id="ItemTypeOrganizationScheme0" class="node"><title></title><ellipse fill="#f7b733" stroke="black" cx="60.6934" cy="-882" rx="49.8323" ry="18" style="filter: url(#dropshadow)"/>
<text text-anchor="middle" x="60.6934" y="-880.1" font-family="Times New Roman,serif" font-size="8.00">OrganizationScheme</text>
</g>
<!-- OrganizationScheme&#45;&gt;OrganizationProperties -->
<g id="edge12" class="edge"><title>OrganizationScheme&#45;&gt;OrganizationProperties</title>
<path fill="none" stroke="black" d="M107.717,-888.42C163.068,-893.551 256.157,-893.616 317.387,-848 357.285,-818.276 387.977,-776.968 411.52,-732.56"/>
<text text-anchor="middle" x="228.387" y="-892.6" font-family="Times New Roman,serif" font-size="8.00">OrganizationReference</text>
</g>
<!-- Versionable -->
<g id="ItemTypeVersionable1" class="node"><title></title><ellipse fill="#f7b733" stroke="black" cx="60.6934" cy="-828" rx="31.5313" ry="18" style="filter: url(#dropshadow)"/>
<text text-anchor="middle" x="60.6934" y="-826.1" font-family="Times New Roman,serif" font-size="8.00">Versionable</text>
</g>
<!-- Versionable&#45;&gt;OrganizationProperties -->
<g id="edge13" class="edge"><title>Versionable&#45;&gt;OrganizationProperties</title>
<path fill="none" stroke="black" d="M92.0493,-831.873C143.427,-836.766 248.631,-839.43 317.387,-791 340.084,-775.013 359.986,-755.007 377.382,-732.852"/>
<text text-anchor="middle" x="228.387" y="-837.6" font-family="Times New Roman,serif" font-size="8.00">VersionResponsibilityReference_Organization</text>
</g>
<!-- AccessType -->
<g id="ReusableTypeAccessType2" class="node"><title></title><ellipse fill="#f7b733" stroke="black" cx="60.6934" cy="-774" rx="33.433" ry="18" style="filter: url(#dropshadow)"/>
<text text-anchor="middle" x="60.6934" y="-772.1" font-family="Times New Roman,serif" font-size="8.00">AccessType</text>
</g>
<!-- AccessType&#45;&gt;OrganizationProperties -->
<g id="edge14" class="edge"><title>AccessType&#45;&gt;OrganizationProperties</title>
<path fill="none" stroke="black" d="M94.1266,-776.79C145.758,-779.595 247.894,-778.29 317.387,-733 320.904,-730.708 324.364,-728.314 327.766,-725.826"/>
<text text-anchor="middle" x="228.387" y="-780.6" font-family="Times New Roman,serif" font-size="8.00">ContactOrganizationReference_Organization</text>
</g>
<!-- ArchiveSpecificType -->
<g id="ReusableTypeArchiveSpecificType3" class="node"><title></title><ellipse fill="#f7b733" stroke="black" cx="60.6934" cy="-720" rx="51.1011" ry="18" style="filter: url(#dropshadow)"/>
<text text-anchor="middle" x="60.6934" y="-718.1" font-family="Times New Roman,serif" font-size="8.00">ArchiveSpecificType</text>
</g>
<!-- ArchiveSpecificType&#45;&gt;OrganizationProperties -->
<g id="edge15" class="edge"><title>ArchiveSpecificType&#45;&gt;OrganizationProperties</title>
<path fill="none" stroke="black" d="M111.74,-720.584C165.928,-719.088 253.204,-710.324 317.387,-673 320.779,-671.027 324.134,-668.96 327.451,-666.807"/>
<text text-anchor="middle" x="228.387" y="-722.6" font-family="Times New Roman,serif" font-size="8.00">ArchiveOrganizationReference_Organization</text>
</g>
<!-- AuthorizationSourceType -->
<g id="ReusableTypeAuthorizationSourceType4" class="node"><title></title><ellipse fill="#f7b733" stroke="black" cx="60.6934" cy="-666" rx="60.8874" ry="18" style="filter: url(#dropshadow)"/>
<text text-anchor="middle" x="60.6934" y="-664.1" font-family="Times New Roman,serif" font-size="8.00">AuthorizationSourceType</text>
</g>
<!-- AuthorizationSourceType&#45;&gt;OrganizationProperties -->
<g id="edge16" class="edge"><title>AuthorizationSourceType&#45;&gt;OrganizationProperties</title>
<path fill="none" stroke="black" d="M120.161,-662.358C173.756,-657.147 254.153,-644.523 317.387,-614 320.825,-612.341 324.251,-610.595 327.661,-608.773"/>
<text text-anchor="middle" x="228.387" y="-662.6" font-family="Times New Roman,serif" font-size="8.00">AuthorizingAgencyReference_Organization</text>
</g>
<!-- CollectionEventType -->
<g id="ReusableTypeCollectionEventType5" class="node"><title></title><ellipse fill="#f7b733" stroke="black" cx="60.6934" cy="-612" rx="52.3706" ry="18" style="filter: url(#dropshadow)"/>
<text text-anchor="middle" x="60.6934" y="-610.1" font-family="Times New Roman,serif" font-size="8.00">CollectionEventType</text>
</g>
<!-- CollectionEventType&#45;&gt;OrganizationProperties -->
<g id="edge17" class="edge"><title>CollectionEventType&#45;&gt;OrganizationProperties</title>
<path fill="none" stroke="black" d="M109.843,-605.689C162.021,-597.968 247.225,-582.774 317.387,-558 320.737,-556.817 324.104,-555.581 327.482,-554.299"/>
<text text-anchor="middle" x="228.387" y="-603.6" font-family="Times New Roman,serif" font-size="8.00">DataCollectorOrganizationReference_Organization</text>
</g>
<!-- CollectionType -->
<g id="ReusableTypeCollectionType6" class="node"><title></title><ellipse fill="#f7b733" stroke="black" cx="60.6934" cy="-558" rx="40.0477" ry="18" style="filter: url(#dropshadow)"/>
<text text-anchor="middle" x="60.6934" y="-556.1" font-family="Times New Roman,serif" font-size="8.00">CollectionType</text>
</g>
<!-- CollectionType&#45;&gt;OrganizationProperties -->
<g id="edge18" class="edge"><title>CollectionType&#45;&gt;OrganizationProperties</title>
<path fill="none" stroke="black" d="M98.6332,-551.748C148.437,-543.195 239.822,-527.07 317.387,-511 320.704,-510.313 324.056,-509.611 327.433,-508.896"/>
<text text-anchor="middle" x="228.387" y="-547.6" font-family="Times New Roman,serif" font-size="8.00">OriginalArchiveOrganizationReference</text>
</g>
<!-- DataFileVersionType -->
<g id="ReusableTypeDataFileVersionType7" class="node"><title></title><ellipse fill="#f7b733" stroke="black" cx="60.6934" cy="-504" rx="51.7358" ry="18" style="filter: url(#dropshadow)"/>
<text text-anchor="middle" x="60.6934" y="-502.1" font-family="Times New Roman,serif" font-size="8.00">DataFileVersionType</text>
</g>
<!-- DataFileVersionType&#45;&gt;OrganizationProperties -->
<g id="edge19" class="edge"><title>DataFileVersionType&#45;&gt;OrganizationProperties</title>
<path fill="none" stroke="black" d="M111.242,-500.267C164.235,-496.274 251.033,-489.734 327.797,-483.949"/>
<text text-anchor="middle" x="228.387" y="-500.6" font-family="Times New Roman,serif" font-size="8.00">VersionResponsibilityReference_Organization</text>
</g>
<!-- EmbargoType -->
<g id="ReusableTypeEmbargoType8" class="node"><title></title><ellipse fill="#f7b733" stroke="black" cx="60.6934" cy="-450" rx="37.3742" ry="18" style="filter: url(#dropshadow)"/>
<text text-anchor="middle" x="60.6934" y="-448.1" font-family="Times New Roman,serif" font-size="8.00">EmbargoType</text>
</g>
<!-- EmbargoType&#45;&gt;OrganizationProperties -->
<g id="edge20" class="edge"><title>EmbargoType&#45;&gt;OrganizationProperties</title>
<path fill="none" stroke="black" d="M98.2701,-451.895C149.148,-454.53 244.44,-459.467 327.865,-463.788"/>
<text text-anchor="middle" x="228.387" y="-465.6" font-family="Times New Roman,serif" font-size="8.00">AgencyOrganizationReference</text>
</g>
<!-- EmbargoType&#45;&gt;OrganizationProperties -->
<g id="edge21" class="edge"><title>EmbargoType&#45;&gt;OrganizationProperties</title>
<path fill="none" stroke="black" d="M97.2179,-445.568C110.434,-444.123 125.574,-442.709 139.387,-442 218.394,-437.943 238.581,-435.06 317.387,-442 320.824,-442.303 324.295,-442.639 327.792,-443.006"/>
<text text-anchor="middle" x="228.387" y="-444.6" font-family="Times New Roman,serif" font-size="8.00">EnforcementAgencyOrganizationReference</text>
</g>
<!-- EvaluatorType -->
<g id="ReusableTypeEvaluatorType9" class="node"><title></title><ellipse fill="#f7b733" stroke="black" cx="60.6934" cy="-396" rx="39.278" ry="18" style="filter: url(#dropshadow)"/>
<text text-anchor="middle" x="60.6934" y="-394.1" font-family="Times New Roman,serif" font-size="8.00">EvaluatorType</text>
</g>
<!-- EvaluatorType&#45;&gt;OrganizationProperties -->
<g id="edge22" class="edge"><title>EvaluatorType&#45;&gt;OrganizationProperties</title>
<path fill="none" stroke="black" d="M99.6702,-398.421C149.858,-402.049 240.861,-410.116 317.387,-425 320.82,-425.668 324.285,-426.37 327.773,-427.103"/>
<text text-anchor="middle" x="228.387" y="-427.6" font-family="Times New Roman,serif" font-size="8.00">EvaluatorReference_Organization</text>
</g>
<!-- FundingInformationType -->
<g id="ReusableTypeFundingInformationType0" class="node"><title></title><ellipse fill="#f7b733" stroke="black" cx="60.6934" cy="-342" rx="59.618" ry="18" style="filter: url(#dropshadow)"/>
<text text-anchor="middle" x="60.6934" y="-340.1" font-family="Times New Roman,serif" font-size="8.00">FundingInformationType</text>
</g>
<!-- FundingInformationType&#45;&gt;OrganizationProperties -->
<g id="edge23" class="edge"><title>FundingInformationType&#45;&gt;OrganizationProperties</title>
<path fill="none" stroke="black" d="M117.151,-347.737C169.693,-354.207 250.318,-366.837 317.387,-389 320.791,-390.125 324.214,-391.306 327.648,-392.536"/>
<text text-anchor="middle" x="228.387" y="-391.6" font-family="Times New Roman,serif" font-size="8.00">AgencyOrganizationReference</text>
</g>
<!-- ItemType -->
<g id="ReusableTypeItemType1" class="node"><title></title><ellipse fill="#f7b733" stroke="black" cx="60.6934" cy="-288" rx="29.4917" ry="18" style="filter: url(#dropshadow)"/>
<text text-anchor="middle" x="60.6934" y="-286.1" font-family="Times New Roman,serif" font-size="8.00">ItemType</text>
</g>
<!-- ItemType&#45;&gt;OrganizationProperties -->
<g id="edge24" class="edge"><title>ItemType&#45;&gt;OrganizationProperties</title>
<path fill="none" stroke="black" d="M90.2608,-289.371C138.971,-292.632 240.304,-303.479 317.387,-339 320.856,-340.599 324.318,-342.282 327.767,-344.04"/>
<text text-anchor="middle" x="228.387" y="-341.6" font-family="Times New Roman,serif" font-size="8.00">OriginalArchiveOrganizationReference</text>
</g>
<!-- LifecycleEventType -->
<g id="ReusableTypeLifecycleEventType2" class="node"><title></title><ellipse fill="#f7b733" stroke="black" cx="60.6934" cy="-234" rx="50.4666" ry="18" style="filter: url(#dropshadow)"/>
<text text-anchor="middle" x="60.6934" y="-232.1" font-family="Times New Roman,serif" font-size="8.00">LifecycleEventType</text>
</g>
<!-- LifecycleEventType&#45;&gt;OrganizationProperties -->
<g id="edge25" class="edge"><title>LifecycleEventType&#45;&gt;OrganizationProperties</title>
<path fill="none" stroke="black" d="M111.552,-233.995C165.578,-236.035 252.714,-245.425 317.387,-282 320.886,-283.979 324.35,-286.057 327.777,-288.226"/>
<text text-anchor="middle" x="228.387" y="-284.6" font-family="Times New Roman,serif" font-size="8.00">AgencyOrganizationReference</text>
</g>
<!-- OperationType -->
<g id="ReusableTypeOperationType3" class="node"><title></title><ellipse fill="#f7b733" stroke="black" cx="60.6934" cy="-180" rx="40.0477" ry="18" style="filter: url(#dropshadow)"/>
<text text-anchor="middle" x="60.6934" y="-178.1" font-family="Times New Roman,serif" font-size="8.00">OperationType</text>
</g>
<!-- OperationType&#45;&gt;OrganizationProperties -->
<g id="edge26" class="edge"><title>OperationType&#45;&gt;OrganizationProperties</title>
<path fill="none" stroke="black" d="M101.009,-177.45C154.314,-175.908 250.521,-180.089 317.387,-223 328.147,-229.906 338.395,-237.767 348.13,-246.337"/>
<text text-anchor="middle" x="228.387" y="-225.6" font-family="Times New Roman,serif" font-size="8.00">AgencyOrganizationReference_Organization</text>
</g>
<!-- PublisherType -->
<g id="ReusableTypePublisherType4" class="node"><title></title><ellipse fill="#f7b733" stroke="black" cx="60.6934" cy="-126" rx="38.0086" ry="18" style="filter: url(#dropshadow)"/>
<text text-anchor="middle" x="60.6934" y="-124.1" font-family="Times New Roman,serif" font-size="8.00">PublisherType</text>
</g>
<!-- PublisherType&#45;&gt;OrganizationProperties -->
<g id="edge27" class="edge"><title>PublisherType&#45;&gt;OrganizationProperties</title>
<path fill="none" stroke="black" d="M97.9534,-122.069C151.072,-118.245 250.927,-118.603 317.387,-165 347.896,-186.299 373.473,-214.943 394.734,-246.206"/>
<text text-anchor="middle" x="228.387" y="-167.6" font-family="Times New Roman,serif" font-size="8.00">PublisherReference</text>
</g>
<!-- SourceObjectType -->
<g id="ReusableTypeSourceObjectType5" class="node"><title></title><ellipse fill="#f7b733" stroke="black" cx="60.6934" cy="-72" rx="45.2568" ry="18" style="filter: url(#dropshadow)"/>
<text text-anchor="middle" x="60.6934" y="-70.1" font-family="Times New Roman,serif" font-size="8.00">SourceObjectType</text>
</g>
<!-- SourceObjectType&#45;&gt;OrganizationProperties -->
<g id="edge28" class="edge"><title>SourceObjectType&#45;&gt;OrganizationProperties</title>
<path fill="none" stroke="black" d="M104.303,-66.415C159.122,-61.607 254.728,-61.5425 317.387,-108 364.133,-142.659 398.365,-193.449 423.274,-246.154"/>
<text text-anchor="middle" x="228.387" y="-110.6" font-family="Times New Roman,serif" font-size="8.00">OrganizationReference</text>
</g>
<!-- TargetObjectType -->
<g id="ReusableTypeTargetObjectType6" class="node"><title></title><ellipse fill="#f7b733" stroke="black" cx="60.6934" cy="-18" rx="45.891" ry="18" style="filter: url(#dropshadow)"/>
<text text-anchor="middle" x="60.6934" y="-16.1" font-family="Times New Roman,serif" font-size="8.00">TargetObjectType</text>
</g>
<!-- TargetObjectType&#45;&gt;OrganizationProperties -->
<g id="edge29" class="edge"><title>TargetObjectType&#45;&gt;OrganizationProperties</title>
<path fill="none" stroke="black" d="M103.698,-11.6225C158.73,-5.69726 255.487,-3.93753 317.387,-52 378.968,-99.8146 418.199,-173.633 443.156,-246.124"/>
<text text-anchor="middle" x="228.387" y="-54.6" font-family="Times New Roman,serif" font-size="8.00">OrganizationReference</text>
</g>
</g>
</svg>
