<?xml version="1.0" encoding="UTF-8" standalone="no"?>
<!DOCTYPE svg PUBLIC "-//W3C//DTD SVG 1.1//EN"
 "http://www.w3.org/Graphics/SVG/1.1/DTD/svg11.dtd">
<!-- Generated by graphviz version 2.38.0 (20140413.2041)
 -->
<!-- Title: G Pages: 1 -->
<svg width="1021pt" height="1232pt"
 viewBox="0.00 0.00 1021.30 1232.00" xmlns="http://www.w3.org/2000/svg" xmlns:xlink="http://www.w3.org/1999/xlink">
<filter id = "dropshadow" height = "130%" ><feGaussianBlur in= "SourceAlpha" stdDeviation = "3"/><!--stdDeviation is how much to blur--><feOffset dx = "2" dy = "2" result = "offsetblur"/><!--how much to offset--><feMerge><feMergeNode/><!--this contains the offset blurred image--><feMergeNode in= "SourceGraphic"/><!--this contains the element that the filter is applied to --></feMerge></filter>
<g id="graph0" class="graph" transform="scale(1 1) rotate(0) translate(4 1228)">
<title>G</title>
<g id="clust1" class="cluster"><title>clusterParameterType</title>
<polygon fill="#4abdac" stroke="black" points="293.303,-560 293.303,-814 1005.3,-814 1005.3,-560 293.303,-560" style="filter: url(#dropshadow)"/>
<text text-anchor="middle" x="649.303" y="-803.6" font-family="Times New Roman,serif" font-size="8.00">ParameterType</text>
</g>
<!-- ParameterTypeProperties -->
<g id="ReusableTypeParameterTypeProperties" class="node"><title></title><polygon fill="#f7b733" stroke="black" points="301.303,-630.5 301.303,-701.5 613.303,-701.5 613.303,-630.5 301.303,-630.5" style="filter: url(#dropshadow)"/>
<text text-anchor="middle" x="327.803" y="-664.1" font-family="Times New Roman,serif" font-size="8.00">Properties</text>
<polyline fill="none" stroke="black" points="354.303,-630.5 354.303,-701.5 "/>
<text text-anchor="start" x="362.303" y="-691.1" font-family="Times New Roman,serif" font-size="8.00">ParameterName : NameType[0...n] </text>
<text text-anchor="start" x="362.303" y="-682.1" font-family="Times New Roman,serif" font-size="8.00">Alias : string[0...1] </text>
<text text-anchor="start" x="362.303" y="-673.1" font-family="Times New Roman,serif" font-size="8.00">Description : StructuredStringType[0...1] </text>
<text text-anchor="start" x="362.303" y="-664.1" font-family="Times New Roman,serif" font-size="8.00">ValueRepresentation : RepresentationType[0...1] </text>
<text text-anchor="start" x="362.303" y="-655.1" font-family="Times New Roman,serif" font-size="8.00">ValueRepresentationReference : RepresentationReferenceType[0...1] </text>
<text text-anchor="start" x="362.303" y="-646.1" font-family="Times New Roman,serif" font-size="8.00">DefaultValue : ValueType[0...1] </text>
<text text-anchor="start" x="362.303" y="-637.1" font-family="Times New Roman,serif" font-size="8.00">IsArray : boolean[0...1] </text>
</g>
<!-- ParameterTypeNameType -->
<g id="ReusableTypeParameterTypeNameType" class="node"><title></title><polygon fill="#fc4a1a" stroke="black" points="774.803,-569 774.803,-605 943.803,-605 943.803,-569 774.803,-569" style="filter: url(#dropshadow)"/>
<text text-anchor="middle" x="802.803" y="-585.1" font-family="Times New Roman,serif" font-size="8.00">NameType</text>
<polyline fill="none" stroke="black" points="830.803,-569 830.803,-605 "/>
<text text-anchor="start" x="838.803" y="-589.6" font-family="Times New Roman,serif" font-size="8.00">IsPreferred : boolean[0...1] </text>
<text text-anchor="start" x="838.803" y="-580.6" font-family="Times New Roman,serif" font-size="8.00">Context : string[0...1] </text>
</g>
<!-- ParameterTypeProperties&#45;&gt;ParameterTypeNameType -->
<g id="edge1" class="edge"><title>ParameterTypeProperties&#45;&gt;ParameterTypeNameType</title>
<path fill="none" stroke="black" d="M613.361,-635.326C648.831,-628.313 686.371,-620.896 721.303,-614 738.546,-610.596 757.01,-606.955 774.621,-603.484"/>
<text text-anchor="middle" x="667.303" y="-634.6" font-family="Times New Roman,serif" font-size="8.00">ParameterName</text>
</g>
<!-- ParameterTypeStructuredStringType -->
<g id="ReusableTypeParameterTypeStructuredStringType" class="node"><title></title><polygon fill="#fc4a1a" stroke="black" points="752.803,-624 752.803,-660 965.803,-660 965.803,-624 752.803,-624" style="filter: url(#dropshadow)"/>
<text text-anchor="middle" x="797.803" y="-640.1" font-family="Times New Roman,serif" font-size="8.00">StructuredStringType</text>
<polyline fill="none" stroke="black" points="842.803,-624 842.803,-660 "/>
<text text-anchor="start" x="850.803" y="-640.1" font-family="Times New Roman,serif" font-size="8.00">Content : ContentType[0...n] </text>
</g>
<!-- ParameterTypeProperties&#45;&gt;ParameterTypeStructuredStringType -->
<g id="edge2" class="edge"><title>ParameterTypeProperties&#45;&gt;ParameterTypeStructuredStringType</title>
<path fill="none" stroke="black" d="M613.526,-656.687C660.082,-653.893 710.05,-650.895 752.623,-648.341"/>
<text text-anchor="middle" x="667.303" y="-658.6" font-family="Times New Roman,serif" font-size="8.00">Description</text>
</g>
<!-- ParameterTypeRepresentationType -->
<g id="ReusableTypeParameterTypeRepresentationType" class="node"><title></title><polygon fill="#fc4a1a" stroke="black" points="721.303,-679.5 721.303,-732.5 997.303,-732.5 997.303,-679.5 721.303,-679.5" style="filter: url(#dropshadow)"/>
<text text-anchor="middle" x="765.303" y="-704.1" font-family="Times New Roman,serif" font-size="8.00">RepresentationType</text>
<polyline fill="none" stroke="black" points="809.303,-679.5 809.303,-732.5 "/>
<text text-anchor="start" x="817.303" y="-722.1" font-family="Times New Roman,serif" font-size="8.00">RecommendedDataType : CodeValueType[0...1] </text>
<text text-anchor="start" x="817.303" y="-713.1" font-family="Times New Roman,serif" font-size="8.00">GenericOutputFormat : CodeValueType[0...1] </text>
<text text-anchor="start" x="817.303" y="-704.1" font-family="Times New Roman,serif" font-size="8.00">MissingValue : string[0...1] </text>
<text text-anchor="start" x="817.303" y="-695.1" font-family="Times New Roman,serif" font-size="8.00">BlankIsMissingValue : boolean[0...1] </text>
<text text-anchor="start" x="817.303" y="-686.1" font-family="Times New Roman,serif" font-size="8.00">ClassificationLevel : string[0...1] </text>
</g>
<!-- ParameterTypeProperties&#45;&gt;ParameterTypeRepresentationType -->
<g id="edge3" class="edge"><title>ParameterTypeProperties&#45;&gt;ParameterTypeRepresentationType</title>
<path fill="none" stroke="black" d="M613.526,-681.522C648.992,-685.069 686.438,-688.814 721.087,-692.278"/>
<text text-anchor="middle" x="667.303" y="-692.6" font-family="Times New Roman,serif" font-size="8.00">ValueRepresentation</text>
</g>
<!-- ParameterTypeValueType -->
<g id="ReusableTypeParameterTypeValueType" class="node"><title></title><polygon fill="#fc4a1a" stroke="black" points="822.803,-752 822.803,-788 895.803,-788 895.803,-752 822.803,-752" style="filter: url(#dropshadow)"/>
<text text-anchor="middle" x="849.803" y="-768.1" font-family="Times New Roman,serif" font-size="8.00">ValueType</text>
<polyline fill="none" stroke="black" points="876.803,-752 876.803,-788 "/>
<text text-anchor="middle" x="886.303" y="-768.1" font-family="Times New Roman,serif" font-size="8.00"> </text>
</g>
<!-- ParameterTypeProperties&#45;&gt;ParameterTypeValueType -->
<g id="edge4" class="edge"><title>ParameterTypeProperties&#45;&gt;ParameterTypeValueType</title>
<path fill="none" stroke="black" d="M573.963,-701.581C619.643,-715.066 672.731,-730.039 721.303,-742 755.483,-750.417 794.895,-758.282 822.647,-763.52"/>
<text text-anchor="middle" x="667.303" y="-739.6" font-family="Times New Roman,serif" font-size="8.00">DefaultValue</text>
</g>
<!-- ComputationItem -->
<g id="ItemTypeComputationItem" class="node"><title></title><ellipse fill="#f7b733" stroke="black" cx="85.6514" cy="-1206" rx="44.6228" ry="18" style="filter: url(#dropshadow)"/>
<text text-anchor="middle" x="85.6514" y="-1204.1" font-family="Times New Roman,serif" font-size="8.00">ComputationItem</text>
</g>
<!-- ComputationItem&#45;&gt;ParameterTypeProperties -->
<g id="edge5" class="edge"><title>ComputationItem&#45;&gt;ParameterTypeProperties</title>
<path fill="none" stroke="black" d="M130.471,-1206.77C174.4,-1205.18 241.369,-1195.99 283.303,-1158 380.549,-1069.91 423.135,-923.889 441.781,-813.755"/>
<text text-anchor="middle" x="236.303" y="-1202.6" font-family="Times New Roman,serif" font-size="8.00">AssignedVariableReference</text>
</g>
<!-- ControlConstruct -->
<g id="ItemTypeControlConstruct" class="node"><title></title><ellipse fill="#f7b733" stroke="black" cx="85.6514" cy="-1152" rx="43.8539" ry="18" style="filter: url(#dropshadow)"/>
<text text-anchor="middle" x="85.6514" y="-1150.1" font-family="Times New Roman,serif" font-size="8.00">ControlConstruct</text>
</g>
<!-- ControlConstruct&#45;&gt;ParameterTypeProperties -->
<g id="edge6" class="edge"><title>ControlConstruct&#45;&gt;ParameterTypeProperties</title>
<path fill="none" stroke="black" d="M129.384,-1151.96C173.074,-1149.69 240.437,-1139.67 283.303,-1102 367.044,-1028.4 410.695,-908.831 433.186,-813.506"/>
<text text-anchor="middle" x="236.303" y="-1147.6" font-family="Times New Roman,serif" font-size="8.00">OutParameter</text>
</g>
<!-- Loop -->
<g id="ItemTypeLoop" class="node"><title></title><ellipse fill="#f7b733" stroke="black" cx="85.6514" cy="-1098" rx="27" ry="18" style="filter: url(#dropshadow)"/>
<text text-anchor="middle" x="85.6514" y="-1096.1" font-family="Times New Roman,serif" font-size="8.00">Loop</text>
</g>
<!-- Loop&#45;&gt;ParameterTypeProperties -->
<g id="edge7" class="edge"><title>Loop&#45;&gt;ParameterTypeProperties</title>
<path fill="none" stroke="black" d="M112.781,-1098.08C153.772,-1096.84 233.631,-1088.77 283.303,-1047 353.83,-987.697 396.939,-893.625 422.486,-813.797"/>
<text text-anchor="middle" x="236.303" y="-1091.6" font-family="Times New Roman,serif" font-size="8.00">LoopVariableReference</text>
</g>
<!-- QuestionBlock -->
<g id="ItemTypeQuestionBlock" class="node"><title></title><ellipse fill="#f7b733" stroke="black" cx="85.6514" cy="-1044" rx="38.6432" ry="18" style="filter: url(#dropshadow)"/>
<text text-anchor="middle" x="85.6514" y="-1042.1" font-family="Times New Roman,serif" font-size="8.00">QuestionBlock</text>
</g>
<!-- QuestionBlock&#45;&gt;ParameterTypeProperties -->
<g id="edge8" class="edge"><title>QuestionBlock&#45;&gt;ParameterTypeProperties</title>
<path fill="none" stroke="black" d="M124.289,-1043.3C167.068,-1040.65 236.951,-1030.51 283.303,-994 341.332,-948.289 382.097,-877.661 409.416,-813.636"/>
<text text-anchor="middle" x="236.303" y="-1036.6" font-family="Times New Roman,serif" font-size="8.00">OutParameter</text>
</g>
<!-- QuestionGrid -->
<g id="ItemTypeQuestionGrid0" class="node"><title></title><ellipse fill="#f7b733" stroke="black" cx="85.6514" cy="-990" rx="35.3371" ry="18" style="filter: url(#dropshadow)"/>
<text text-anchor="middle" x="85.6514" y="-988.1" font-family="Times New Roman,serif" font-size="8.00">QuestionGrid</text>
</g>
<!-- QuestionGrid&#45;&gt;ParameterTypeProperties -->
<g id="edge9" class="edge"><title>QuestionGrid&#45;&gt;ParameterTypeProperties</title>
<path fill="none" stroke="black" d="M121.178,-989.707C163.201,-987.722 234.574,-978.933 283.303,-944 329.323,-911.009 365.723,-861.603 393.021,-813.551"/>
<text text-anchor="middle" x="236.303" y="-983.6" font-family="Times New Roman,serif" font-size="8.00">OutParameter</text>
</g>
<!-- QuestionItem -->
<g id="ItemTypeQuestionItem1" class="node"><title></title><ellipse fill="#f7b733" stroke="black" cx="85.6514" cy="-936" rx="36.1063" ry="18" style="filter: url(#dropshadow)"/>
<text text-anchor="middle" x="85.6514" y="-934.1" font-family="Times New Roman,serif" font-size="8.00">QuestionItem</text>
</g>
<!-- QuestionItem&#45;&gt;ParameterTypeProperties -->
<g id="edge10" class="edge"><title>QuestionItem&#45;&gt;ParameterTypeProperties</title>
<path fill="none" stroke="black" d="M122.104,-936.64C163.77,-935.793 233.528,-929.239 283.303,-898 317.453,-876.567 347.193,-845.774 371.932,-813.596"/>
<text text-anchor="middle" x="236.303" y="-933.6" font-family="Times New Roman,serif" font-size="8.00">OutParameter</text>
</g>
<!-- Variable -->
<g id="ItemTypeVariable2" class="node"><title></title><ellipse fill="#f7b733" stroke="black" cx="85.6514" cy="-882" rx="27" ry="18" style="filter: url(#dropshadow)"/>
<text text-anchor="middle" x="85.6514" y="-880.1" font-family="Times New Roman,serif" font-size="8.00">Variable</text>
</g>
<!-- Variable&#45;&gt;ParameterTypeProperties -->
<g id="edge11" class="edge"><title>Variable&#45;&gt;ParameterTypeProperties</title>
<path fill="none" stroke="black" d="M112.523,-884.743C151.797,-887.714 227.758,-888.705 283.303,-860 306.192,-848.171 327.476,-831.969 346.733,-813.933"/>
<text text-anchor="middle" x="236.303" y="-887.6" font-family="Times New Roman,serif" font-size="8.00">OutParameter</text>
</g>
<!-- Variable&#45;&gt;ParameterTypeProperties -->
<g id="edge12" class="edge"><title>Variable&#45;&gt;ParameterTypeProperties</title>
<path fill="none" stroke="black" d="M110.606,-874.371C131.344,-867.861 162.185,-858.407 189.303,-851 230.793,-839.668 245.481,-848.479 283.303,-828 291.391,-823.62 299.386,-818.771 307.242,-813.566"/>
<text text-anchor="middle" x="236.303" y="-853.6" font-family="Times New Roman,serif" font-size="8.00">SourceParameterReference</text>
</g>
<!-- BindingType -->
<g id="ReusableTypeBindingType3" class="node"><title></title><ellipse fill="#f7b733" stroke="black" cx="85.6514" cy="-828" rx="35.3371" ry="18" style="filter: url(#dropshadow)"/>
<text text-anchor="middle" x="85.6514" y="-826.1" font-family="Times New Roman,serif" font-size="8.00">BindingType</text>
</g>
<!-- BindingType&#45;&gt;ParameterTypeProperties -->
<g id="edge13" class="edge"><title>BindingType&#45;&gt;ParameterTypeProperties</title>
<path fill="none" stroke="black" d="M120.382,-824.485C168.601,-819.127 254.585,-808.239 283.303,-796 286.803,-794.508 290.297,-792.931 293.779,-791.278"/>
<text text-anchor="middle" x="236.303" y="-818.6" font-family="Times New Roman,serif" font-size="8.00">SourceParameterReference</text>
</g>
<!-- BindingType&#45;&gt;ParameterTypeProperties -->
<g id="edge14" class="edge"><title>BindingType&#45;&gt;ParameterTypeProperties</title>
<path fill="none" stroke="black" d="M118.265,-820.762C134.647,-816.315 154.653,-809.772 171.303,-801 180.269,-796.276 180.314,-791.681 189.303,-787 228.08,-766.805 242.932,-774.784 283.303,-758 286.623,-756.62 289.964,-755.196 293.319,-753.736"/>
<text text-anchor="middle" x="236.303" y="-789.6" font-family="Times New Roman,serif" font-size="8.00">TargetParameterReference</text>
</g>
<!-- CategoryDomainType -->
<g id="ReusableTypeCategoryDomainType4" class="node"><title></title><ellipse fill="#f7b733" stroke="black" cx="85.6514" cy="-774" rx="53.7736" ry="18" style="filter: url(#dropshadow)"/>
<text text-anchor="middle" x="85.6514" y="-772.1" font-family="Times New Roman,serif" font-size="8.00">CategoryDomainType</text>
</g>
<!-- CategoryDomainType&#45;&gt;ParameterTypeProperties -->
<g id="edge15" class="edge"><title>CategoryDomainType&#45;&gt;ParameterTypeProperties</title>
<path fill="none" stroke="black" d="M127.377,-762.589C167.181,-751.393 229.474,-733.753 283.303,-718 286.661,-717.017 290.055,-716.021 293.475,-715.015"/>
<text text-anchor="middle" x="236.303" y="-747.6" font-family="Times New Roman,serif" font-size="8.00">OutParameter</text>
</g>
<!-- CodeDomainType -->
<g id="ReusableTypeCodeDomainType5" class="node"><title></title><ellipse fill="#f7b733" stroke="black" cx="85.6514" cy="-720" rx="45.2568" ry="18" style="filter: url(#dropshadow)"/>
<text text-anchor="middle" x="85.6514" y="-718.1" font-family="Times New Roman,serif" font-size="8.00">CodeDomainType</text>
</g>
<!-- CodeDomainType&#45;&gt;ParameterTypeProperties -->
<g id="edge16" class="edge"><title>CodeDomainType&#45;&gt;ParameterTypeProperties</title>
<path fill="none" stroke="black" d="M128.695,-713.858C169.154,-707.948 232.952,-698.628 293.541,-689.777"/>
<text text-anchor="middle" x="236.303" y="-707.6" font-family="Times New Roman,serif" font-size="8.00">OutParameter</text>
</g>
<!-- CommandFileType -->
<g id="ReusableTypeCommandFileType6" class="node"><title></title><ellipse fill="#f7b733" stroke="black" cx="85.6514" cy="-666" rx="47.16" ry="18" style="filter: url(#dropshadow)"/>
<text text-anchor="middle" x="85.6514" y="-664.1" font-family="Times New Roman,serif" font-size="8.00">CommandFileType</text>
</g>
<!-- CommandFileType&#45;&gt;ParameterTypeProperties -->
<g id="edge17" class="edge"><title>CommandFileType&#45;&gt;ParameterTypeProperties</title>
<path fill="none" stroke="black" d="M133.094,-666C173.642,-666 234.983,-666 293.367,-666"/>
<text text-anchor="middle" x="236.303" y="-668.6" font-family="Times New Roman,serif" font-size="8.00">OutParameter</text>
</g>
<!-- CommandType -->
<g id="ReusableTypeCommandType7" class="node"><title></title><ellipse fill="#f7b733" stroke="black" cx="85.6514" cy="-612" rx="40.0477" ry="18" style="filter: url(#dropshadow)"/>
<text text-anchor="middle" x="85.6514" y="-610.1" font-family="Times New Roman,serif" font-size="8.00">CommandType</text>
</g>
<!-- CommandType&#45;&gt;ParameterTypeProperties -->
<g id="edge18" class="edge"><title>CommandType&#45;&gt;ParameterTypeProperties</title>
<path fill="none" stroke="black" d="M124.13,-617.475C164.256,-623.337 230.675,-633.039 293.618,-642.234"/>
<text text-anchor="middle" x="236.303" y="-643.6" font-family="Times New Roman,serif" font-size="8.00">OutParameter</text>
</g>
<!-- ConditionalTextType -->
<g id="ReusableTypeConditionalTextType8" class="node"><title></title><ellipse fill="#f7b733" stroke="black" cx="85.6514" cy="-558" rx="52.5056" ry="18" style="filter: url(#dropshadow)"/>
<text text-anchor="middle" x="85.6514" y="-556.1" font-family="Times New Roman,serif" font-size="8.00">ConditionalTextType</text>
</g>
<!-- ConditionalTextType&#45;&gt;ParameterTypeProperties -->
<g id="edge19" class="edge"><title>ConditionalTextType&#45;&gt;ParameterTypeProperties</title>
<path fill="none" stroke="black" d="M126.591,-569.519C166.333,-580.994 229.055,-599.142 283.303,-615 286.752,-616.008 290.24,-617.029 293.756,-618.058"/>
<text text-anchor="middle" x="236.303" y="-617.6" font-family="Times New Roman,serif" font-size="8.00">SourceParameterReference</text>
</g>
<!-- DateTimeDomainType -->
<g id="ReusableTypeDateTimeDomainType9" class="node"><title></title><ellipse fill="#f7b733" stroke="black" cx="85.6514" cy="-504" rx="55.6769" ry="18" style="filter: url(#dropshadow)"/>
<text text-anchor="middle" x="85.6514" y="-502.1" font-family="Times New Roman,serif" font-size="8.00">DateTimeDomainType</text>
</g>
<!-- DateTimeDomainType&#45;&gt;ParameterTypeProperties -->
<g id="edge20" class="edge"><title>DateTimeDomainType&#45;&gt;ParameterTypeProperties</title>
<path fill="none" stroke="black" d="M126.901,-516.175C141.018,-520.62 156.933,-525.829 171.303,-531 221.78,-549.163 234.561,-553.594 283.303,-576 286.706,-577.564 290.138,-579.161 293.59,-580.786"/>
<text text-anchor="middle" x="236.303" y="-578.6" font-family="Times New Roman,serif" font-size="8.00">OutParameter</text>
</g>
<!-- DistributionDomainType -->
<g id="ReusableTypeDistributionDomainType0" class="node"><title></title><ellipse fill="#f7b733" stroke="black" cx="85.6514" cy="-450" rx="58.9835" ry="18" style="filter: url(#dropshadow)"/>
<text text-anchor="middle" x="85.6514" y="-448.1" font-family="Times New Roman,serif" font-size="8.00">DistributionDomainType</text>
</g>
<!-- DistributionDomainType&#45;&gt;ParameterTypeProperties -->
<g id="edge21" class="edge"><title>DistributionDomainType&#45;&gt;ParameterTypeProperties</title>
<path fill="none" stroke="black" d="M128.689,-462.531C142.374,-466.843 157.571,-471.881 171.303,-477 222.048,-495.917 236.974,-496.954 283.303,-525 300.679,-535.519 318.193,-547.642 335.059,-560.272"/>
<text text-anchor="middle" x="236.303" y="-527.6" font-family="Times New Roman,serif" font-size="8.00">OutParameter</text>
</g>
<!-- GeographicLocationCodeDomainType -->
<g id="ReusableTypeGeographicLocationCodeDomainType1" class="node"><title></title><ellipse fill="#f7b733" stroke="black" cx="85.6514" cy="-396" rx="85.8032" ry="18" style="filter: url(#dropshadow)"/>
<text text-anchor="middle" x="85.6514" y="-394.1" font-family="Times New Roman,serif" font-size="8.00">GeographicLocationCodeDomainType</text>
</g>
<!-- GeographicLocationCodeDomainType&#45;&gt;ParameterTypeProperties -->
<g id="edge22" class="edge"><title>GeographicLocationCodeDomainType&#45;&gt;ParameterTypeProperties</title>
<path fill="none" stroke="black" d="M143.006,-409.389C184.537,-421.157 240.933,-441.27 283.303,-472 317.265,-496.632 349.376,-528.959 376.501,-560.143"/>
<text text-anchor="middle" x="236.303" y="-474.6" font-family="Times New Roman,serif" font-size="8.00">OutParameter</text>
</g>
<!-- GeographicStructureCodeDomainType -->
<g id="ReusableTypeGeographicStructureCodeDomainType2" class="node"><title></title><ellipse fill="#f7b733" stroke="black" cx="85.6514" cy="-342" rx="85.1685" ry="18" style="filter: url(#dropshadow)"/>
<text text-anchor="middle" x="85.6514" y="-340.1" font-family="Times New Roman,serif" font-size="8.00">GeographicStructureCodeDomainType</text>
</g>
<!-- GeographicStructureCodeDomainType&#45;&gt;ParameterTypeProperties -->
<g id="edge23" class="edge"><title>GeographicStructureCodeDomainType&#45;&gt;ParameterTypeProperties</title>
<path fill="none" stroke="black" d="M150.319,-353.901C191.605,-364.126 244.692,-382.241 283.303,-413 332.851,-452.472 373.73,-509.947 403.286,-560.145"/>
<text text-anchor="middle" x="236.303" y="-415.6" font-family="Times New Roman,serif" font-size="8.00">OutParameter</text>
</g>
<!-- LocationDomainType -->
<g id="ReusableTypeLocationDomainType3" class="node"><title></title><ellipse fill="#f7b733" stroke="black" cx="85.6514" cy="-288" rx="53.7736" ry="18" style="filter: url(#dropshadow)"/>
<text text-anchor="middle" x="85.6514" y="-286.1" font-family="Times New Roman,serif" font-size="8.00">LocationDomainType</text>
</g>
<!-- LocationDomainType&#45;&gt;ParameterTypeProperties -->
<g id="edge24" class="edge"><title>LocationDomainType&#45;&gt;ParameterTypeProperties</title>
<path fill="none" stroke="black" d="M136.491,-294.296C179.549,-301.978 241.291,-318.629 283.303,-354 347.731,-408.245 392.526,-492.896 420.367,-560.344"/>
<text text-anchor="middle" x="236.303" y="-356.6" font-family="Times New Roman,serif" font-size="8.00">OutParameter</text>
</g>
<!-- NominalDomainType -->
<g id="ReusableTypeNominalDomainType4" class="node"><title></title><ellipse fill="#f7b733" stroke="black" cx="85.6514" cy="-234" rx="52.5056" ry="18" style="filter: url(#dropshadow)"/>
<text text-anchor="middle" x="85.6514" y="-232.1" font-family="Times New Roman,serif" font-size="8.00">NominalDomainType</text>
</g>
<!-- NominalDomainType&#45;&gt;ParameterTypeProperties -->
<g id="edge25" class="edge"><title>NominalDomainType&#45;&gt;ParameterTypeProperties</title>
<path fill="none" stroke="black" d="M136.956,-238.568C180.316,-244.911 242.24,-260.027 283.303,-296 362.01,-364.951 407.461,-477.348 431.844,-560.195"/>
<text text-anchor="middle" x="236.303" y="-298.6" font-family="Times New Roman,serif" font-size="8.00">OutParameter</text>
</g>
<!-- NumericDomainType -->
<g id="ReusableTypeNumericDomainType5" class="node"><title></title><ellipse fill="#f7b733" stroke="black" cx="85.6514" cy="-180" rx="52.3706" ry="18" style="filter: url(#dropshadow)"/>
<text text-anchor="middle" x="85.6514" y="-178.1" font-family="Times New Roman,serif" font-size="8.00">NumericDomainType</text>
</g>
<!-- NumericDomainType&#45;&gt;ParameterTypeProperties -->
<g id="edge26" class="edge"><title>NumericDomainType&#45;&gt;ParameterTypeProperties</title>
<path fill="none" stroke="black" d="M137.369,-182.596C180.997,-187.386 243.083,-200.657 283.303,-237 376.518,-321.229 420.411,-462.719 440.453,-560.032"/>
<text text-anchor="middle" x="236.303" y="-239.6" font-family="Times New Roman,serif" font-size="8.00">OutParameter</text>
</g>
<!-- RankingDomainType -->
<g id="ReusableTypeRankingDomainType6" class="node"><title></title><ellipse fill="#f7b733" stroke="black" cx="85.6514" cy="-126" rx="52.3706" ry="18" style="filter: url(#dropshadow)"/>
<text text-anchor="middle" x="85.6514" y="-124.1" font-family="Times New Roman,serif" font-size="8.00">RankingDomainType</text>
</g>
<!-- RankingDomainType&#45;&gt;ParameterTypeProperties -->
<g id="edge27" class="edge"><title>RankingDomainType&#45;&gt;ParameterTypeProperties</title>
<path fill="none" stroke="black" d="M138.111,-127.066C181.916,-130.666 243.845,-142.508 283.303,-179 391.045,-278.642 431.731,-449.754 447.067,-560.337"/>
<text text-anchor="middle" x="236.303" y="-181.6" font-family="Times New Roman,serif" font-size="8.00">OutParameter</text>
</g>
<!-- ScaleDomainType -->
<g id="ReusableTypeScaleDomainType7" class="node"><title></title><ellipse fill="#f7b733" stroke="black" cx="85.6514" cy="-72" rx="45.2568" ry="18" style="filter: url(#dropshadow)"/>
<text text-anchor="middle" x="85.6514" y="-70.1" font-family="Times New Roman,serif" font-size="8.00">ScaleDomainType</text>
</g>
<!-- ScaleDomainType&#45;&gt;ParameterTypeProperties -->
<g id="edge28" class="edge"><title>ScaleDomainType&#45;&gt;ParameterTypeProperties</title>
<path fill="none" stroke="black" d="M131.158,-71.4909C175.311,-73.4096 242.163,-83.2155 283.303,-122 405.318,-237.03 441.617,-437.65 452.205,-560.467"/>
<text text-anchor="middle" x="236.303" y="-124.6" font-family="Times New Roman,serif" font-size="8.00">OutParameter</text>
</g>
<!-- TextDomainType -->
<g id="ReusableTypeTextDomainType8" class="node"><title></title><ellipse fill="#f7b733" stroke="black" cx="85.6514" cy="-18" rx="45.2568" ry="18" style="filter: url(#dropshadow)"/>
<text text-anchor="middle" x="85.6514" y="-16.1" font-family="Times New Roman,serif" font-size="8.00">TextDomainType</text>
</g>
<!-- TextDomainType&#45;&gt;ParameterTypeProperties -->
<g id="edge29" class="edge"><title>TextDomainType&#45;&gt;ParameterTypeProperties</title>
<path fill="none" stroke="black" d="M130.929,-16.7405C175.222,-17.9408 242.477,-26.8264 283.303,-66 354.254,-134.079 411.52,-406.949 438.869,-560.194"/>
<text text-anchor="middle" x="236.303" y="-68.6" font-family="Times New Roman,serif" font-size="8.00">OutParameter</text>
</g>
</g>
</svg>
