<?xml version="1.0" encoding="UTF-8" standalone="no"?>
<!DOCTYPE svg PUBLIC "-//W3C//DTD SVG 1.1//EN"
 "http://www.w3.org/Graphics/SVG/1.1/DTD/svg11.dtd">
<!-- Generated by graphviz version 2.38.0 (20140413.2041)
 -->
<!-- Title: G Pages: 1 -->
<svg width="873pt" height="584pt"
 viewBox="0.00 0.00 872.98 584.00" xmlns="http://www.w3.org/2000/svg" xmlns:xlink="http://www.w3.org/1999/xlink">
<filter id = "dropshadow" height = "130%" ><feGaussianBlur in= "SourceAlpha" stdDeviation = "3"/><!--stdDeviation is how much to blur--><feOffset dx = "2" dy = "2" result = "offsetblur"/><!--how much to offset--><feMerge><feMergeNode/><!--this contains the offset blurred image--><feMergeNode in= "SourceGraphic"/><!--this contains the element that the filter is applied to --></feMerge></filter>
<g id="graph0" class="graph" transform="scale(1 1) rotate(0) translate(4 580)">
<title>G</title>
<g id="clust1" class="cluster"><title>clusterQualityStatement</title>
<polygon fill="#4abdac" stroke="black" points="241.983,-173 241.983,-427 856.983,-427 856.983,-173 241.983,-173" style="filter: url(#dropshadow)"/>
<text text-anchor="middle" x="549.483" y="-416.6" font-family="Times New Roman,serif" font-size="8.00">QualityStatement</text>
</g>
<!-- QualityStatementProperties -->
<g id="ItemTypeQualityStatementProperties" class="node"><title></title><polygon fill="#f7b733" stroke="black" points="249.983,-261.5 249.983,-314.5 504.983,-314.5 504.983,-261.5 249.983,-261.5" style="filter: url(#dropshadow)"/>
<text text-anchor="middle" x="276.483" y="-286.1" font-family="Times New Roman,serif" font-size="8.00">Properties</text>
<polyline fill="none" stroke="black" points="302.983,-261.5 302.983,-314.5 "/>
<text text-anchor="start" x="310.983" y="-304.1" font-family="Times New Roman,serif" font-size="8.00">QualityStatementName : NameType[0...n] </text>
<text text-anchor="start" x="310.983" y="-295.1" font-family="Times New Roman,serif" font-size="8.00">Label : LabelType[0...n] </text>
<text text-anchor="start" x="310.983" y="-286.1" font-family="Times New Roman,serif" font-size="8.00">Description : StructuredStringType[0...1] </text>
<text text-anchor="start" x="310.983" y="-277.1" font-family="Times New Roman,serif" font-size="8.00">Standard : StandardType[0...1] </text>
<text text-anchor="start" x="310.983" y="-268.1" font-family="Times New Roman,serif" font-size="8.00">OtherQualityStatement : StructuredStringType[0...1] </text>
</g>
<!-- QualityStatementNameType -->
<g id="ReusableTypeQualityStatementNameType" class="node"><title></title><polygon fill="#fc4a1a" stroke="black" points="651.483,-182 651.483,-218 820.483,-218 820.483,-182 651.483,-182" style="filter: url(#dropshadow)"/>
<text text-anchor="middle" x="679.483" y="-198.1" font-family="Times New Roman,serif" font-size="8.00">NameType</text>
<polyline fill="none" stroke="black" points="707.483,-182 707.483,-218 "/>
<text text-anchor="start" x="715.483" y="-202.6" font-family="Times New Roman,serif" font-size="8.00">IsPreferred : boolean[0...1] </text>
<text text-anchor="start" x="715.483" y="-193.6" font-family="Times New Roman,serif" font-size="8.00">Context : string[0...1] </text>
</g>
<!-- QualityStatementProperties&#45;&gt;QualityStatementNameType -->
<g id="edge1" class="edge"><title>QualityStatementProperties&#45;&gt;QualityStatementNameType</title>
<path fill="none" stroke="black" d="M485.929,-261.478C542.821,-247.434 611.204,-230.554 661.91,-218.038"/>
<text text-anchor="middle" x="563.983" y="-254.6" font-family="Times New Roman,serif" font-size="8.00">QualityStatementName</text>
</g>
<!-- QualityStatementLabelType -->
<g id="ReusableTypeQualityStatementLabelType" class="node"><title></title><polygon fill="#fc4a1a" stroke="black" points="634.483,-237.5 634.483,-290.5 837.483,-290.5 837.483,-237.5 634.483,-237.5" style="filter: url(#dropshadow)"/>
<text text-anchor="middle" x="661.483" y="-262.1" font-family="Times New Roman,serif" font-size="8.00">LabelType</text>
<polyline fill="none" stroke="black" points="688.483,-237.5 688.483,-290.5 "/>
<text text-anchor="start" x="696.483" y="-280.1" font-family="Times New Roman,serif" font-size="8.00">TypeOfLabel : CodeValueType[0...1] </text>
<text text-anchor="start" x="696.483" y="-271.1" font-family="Times New Roman,serif" font-size="8.00">LocationVariant : string[0...1] </text>
<text text-anchor="start" x="696.483" y="-262.1" font-family="Times New Roman,serif" font-size="8.00">ValidForStartDate : cogsDate[0...1] </text>
<text text-anchor="start" x="696.483" y="-253.1" font-family="Times New Roman,serif" font-size="8.00">ValidForEndDate : cogsDate[0...1] </text>
<text text-anchor="start" x="696.483" y="-244.1" font-family="Times New Roman,serif" font-size="8.00">MaxLength : int[0...1] </text>
</g>
<!-- QualityStatementProperties&#45;&gt;QualityStatementLabelType -->
<g id="edge2" class="edge"><title>QualityStatementProperties&#45;&gt;QualityStatementLabelType</title>
<path fill="none" stroke="black" d="M505.176,-279.471C547.604,-276.615 594.296,-273.471 634.447,-270.768"/>
<text text-anchor="middle" x="563.983" y="-281.6" font-family="Times New Roman,serif" font-size="8.00">Label</text>
</g>
<!-- QualityStatementStructuredStringType -->
<g id="ReusableTypeQualityStatementStructuredStringType" class="node"><title></title><polygon fill="#fc4a1a" stroke="black" points="629.483,-310 629.483,-346 842.483,-346 842.483,-310 629.483,-310" style="filter: url(#dropshadow)"/>
<text text-anchor="middle" x="674.483" y="-326.1" font-family="Times New Roman,serif" font-size="8.00">StructuredStringType</text>
<polyline fill="none" stroke="black" points="719.483,-310 719.483,-346 "/>
<text text-anchor="start" x="727.483" y="-326.1" font-family="Times New Roman,serif" font-size="8.00">Content : ContentType[0...n] </text>
</g>
<!-- QualityStatementProperties&#45;&gt;QualityStatementStructuredStringType -->
<g id="edge3" class="edge"><title>QualityStatementProperties&#45;&gt;QualityStatementStructuredStringType</title>
<path fill="none" stroke="black" d="M505.176,-302.215C545.803,-306.774 590.34,-311.771 629.299,-316.142"/>
<text text-anchor="middle" x="563.983" y="-315.6" font-family="Times New Roman,serif" font-size="8.00">Description</text>
</g>
<!-- QualityStatementStandardType -->
<g id="ReusableTypeQualityStatementStandardType" class="node"><title></title><polygon fill="#fc4a1a" stroke="black" points="622.983,-365 622.983,-401 848.983,-401 848.983,-365 622.983,-365" style="filter: url(#dropshadow)"/>
<text text-anchor="middle" x="655.483" y="-381.1" font-family="Times New Roman,serif" font-size="8.00">StandardType</text>
<polyline fill="none" stroke="black" points="687.983,-365 687.983,-401 "/>
<text text-anchor="start" x="695.983" y="-385.6" font-family="Times New Roman,serif" font-size="8.00">StandardUsed : OtherMaterialType[0...1] </text>
<text text-anchor="start" x="695.983" y="-376.6" font-family="Times New Roman,serif" font-size="8.00">Compliance : ComplianceType[0...n] </text>
</g>
<!-- QualityStatementProperties&#45;&gt;QualityStatementStandardType -->
<g id="edge4" class="edge"><title>QualityStatementProperties&#45;&gt;QualityStatementStandardType</title>
<path fill="none" stroke="black" d="M473.27,-314.508C518.527,-327.027 573.489,-342.033 622.983,-355 635.489,-358.276 648.803,-361.679 661.724,-364.937"/>
<text text-anchor="middle" x="563.983" y="-352.6" font-family="Times New Roman,serif" font-size="8.00">Standard</text>
</g>
<!-- Group -->
<g id="ItemTypeGroup" class="node"><title></title><ellipse fill="#f7b733" stroke="black" cx="58.9917" cy="-558" rx="27" ry="18" style="filter: url(#dropshadow)"/>
<text text-anchor="middle" x="58.9917" y="-556.1" font-family="Times New Roman,serif" font-size="8.00">Group</text>
</g>
<!-- Group&#45;&gt;QualityStatementProperties -->
<g id="edge5" class="edge"><title>Group&#45;&gt;QualityStatementProperties</title>
<path fill="none" stroke="black" d="M85.3805,-553.881C121.156,-547.034 187.045,-530.504 231.983,-496 256.883,-476.882 279.133,-452.25 298.274,-426.666"/>
<text text-anchor="middle" x="183.983" y="-542.6" font-family="Times New Roman,serif" font-size="8.00">QualityStatementReference</text>
</g>
<!-- Methodology -->
<g id="ItemTypeMethodology" class="node"><title></title><ellipse fill="#f7b733" stroke="black" cx="58.9917" cy="-504" rx="35.9723" ry="18" style="filter: url(#dropshadow)"/>
<text text-anchor="middle" x="58.9917" y="-502.1" font-family="Times New Roman,serif" font-size="8.00">Methodology</text>
</g>
<!-- Methodology&#45;&gt;QualityStatementProperties -->
<g id="edge6" class="edge"><title>Methodology&#45;&gt;QualityStatementProperties</title>
<path fill="none" stroke="black" d="M91.434,-496.4C127.478,-486.715 187.328,-467.593 231.983,-438 237.249,-434.511 242.469,-430.799 247.624,-426.912"/>
<text text-anchor="middle" x="183.983" y="-485.6" font-family="Times New Roman,serif" font-size="8.00">QualityStatementReference</text>
</g>
<!-- PhysicalInstance -->
<g id="ItemTypePhysicalInstance" class="node"><title></title><ellipse fill="#f7b733" stroke="black" cx="58.9917" cy="-450" rx="42.5843" ry="18" style="filter: url(#dropshadow)"/>
<text text-anchor="middle" x="58.9917" y="-448.1" font-family="Times New Roman,serif" font-size="8.00">PhysicalInstance</text>
</g>
<!-- PhysicalInstance&#45;&gt;QualityStatementProperties -->
<g id="edge7" class="edge"><title>PhysicalInstance&#45;&gt;QualityStatementProperties</title>
<path fill="none" stroke="black" d="M94.3034,-439.916C129.771,-428.881 186.252,-409.582 231.983,-386 235.41,-384.233 238.853,-382.4 242.302,-380.511"/>
<text text-anchor="middle" x="183.983" y="-427.6" font-family="Times New Roman,serif" font-size="8.00">QualityStatementReference</text>
</g>
<!-- ProcessingEvent -->
<g id="ItemTypeProcessingEvent" class="node"><title></title><ellipse fill="#f7b733" stroke="black" cx="58.9917" cy="-396" rx="41.9498" ry="18" style="filter: url(#dropshadow)"/>
<text text-anchor="middle" x="58.9917" y="-394.1" font-family="Times New Roman,serif" font-size="8.00">ProcessingEvent</text>
</g>
<!-- ProcessingEvent&#45;&gt;QualityStatementProperties -->
<g id="edge8" class="edge"><title>ProcessingEvent&#45;&gt;QualityStatementProperties</title>
<path fill="none" stroke="black" d="M94.1058,-385.876C128.935,-375.403 184.478,-358.321 231.983,-342 235.377,-340.834 238.811,-339.642 242.272,-338.431"/>
<text text-anchor="middle" x="183.983" y="-375.6" font-family="Times New Roman,serif" font-size="8.00">QualityStatementReference</text>
</g>
<!-- QualityStatementGroup -->
<g id="ItemTypeQualityStatementGroup0" class="node"><title></title><ellipse fill="#f7b733" stroke="black" cx="58.9917" cy="-342" rx="55.6769" ry="18" style="filter: url(#dropshadow)"/>
<text text-anchor="middle" x="58.9917" y="-340.1" font-family="Times New Roman,serif" font-size="8.00">QualityStatementGroup</text>
</g>
<!-- QualityStatementGroup&#45;&gt;QualityStatementProperties -->
<g id="edge9" class="edge"><title>QualityStatementGroup&#45;&gt;QualityStatementProperties</title>
<path fill="none" stroke="black" d="M108.405,-333.74C144.155,-327.64 194.662,-319.022 242.213,-310.909"/>
<text text-anchor="middle" x="183.983" y="-331.6" font-family="Times New Roman,serif" font-size="8.00">QualityStatementReference</text>
</g>
<!-- QualityStatementScheme -->
<g id="ItemTypeQualityStatementScheme1" class="node"><title></title><ellipse fill="#f7b733" stroke="black" cx="58.9917" cy="-288" rx="58.9835" ry="18" style="filter: url(#dropshadow)"/>
<text text-anchor="middle" x="58.9917" y="-286.1" font-family="Times New Roman,serif" font-size="8.00">QualityStatementScheme</text>
</g>
<!-- QualityStatementScheme&#45;&gt;QualityStatementProperties -->
<g id="edge10" class="edge"><title>QualityStatementScheme&#45;&gt;QualityStatementProperties</title>
<path fill="none" stroke="black" d="M118.041,-288C152.961,-288 198.939,-288 242.422,-288"/>
<text text-anchor="middle" x="183.983" y="-290.6" font-family="Times New Roman,serif" font-size="8.00">QualityStatementReference</text>
</g>
<!-- ResourcePackage -->
<g id="ItemTypeResourcePackage2" class="node"><title></title><ellipse fill="#f7b733" stroke="black" cx="58.9917" cy="-234" rx="43.219" ry="18" style="filter: url(#dropshadow)"/>
<text text-anchor="middle" x="58.9917" y="-232.1" font-family="Times New Roman,serif" font-size="8.00">ResourcePackage</text>
</g>
<!-- ResourcePackage&#45;&gt;QualityStatementProperties -->
<g id="edge11" class="edge"><title>ResourcePackage&#45;&gt;QualityStatementProperties</title>
<path fill="none" stroke="black" d="M99.1173,-240.676C135.058,-246.808 190.456,-256.26 242.32,-265.109"/>
<text text-anchor="middle" x="183.983" y="-265.6" font-family="Times New Roman,serif" font-size="8.00">QualityStatementReference</text>
</g>
<!-- StudyUnit -->
<g id="ItemTypeStudyUnit3" class="node"><title></title><ellipse fill="#f7b733" stroke="black" cx="58.9917" cy="-180" rx="28.8574" ry="18" style="filter: url(#dropshadow)"/>
<text text-anchor="middle" x="58.9917" y="-178.1" font-family="Times New Roman,serif" font-size="8.00">StudyUnit</text>
</g>
<!-- StudyUnit&#45;&gt;QualityStatementProperties -->
<g id="edge12" class="edge"><title>StudyUnit&#45;&gt;QualityStatementProperties</title>
<path fill="none" stroke="black" d="M85.1663,-187.687C118.774,-198.031 180.092,-217.195 231.983,-235 235.378,-236.165 238.814,-237.353 242.277,-238.559"/>
<text text-anchor="middle" x="183.983" y="-237.6" font-family="Times New Roman,serif" font-size="8.00">QualityStatementReference</text>
</g>
<!-- SubGroup -->
<g id="ItemTypeSubGroup4" class="node"><title></title><ellipse fill="#f7b733" stroke="black" cx="58.9917" cy="-126" rx="27.5899" ry="18" style="filter: url(#dropshadow)"/>
<text text-anchor="middle" x="58.9917" y="-124.1" font-family="Times New Roman,serif" font-size="8.00">SubGroup</text>
</g>
<!-- SubGroup&#45;&gt;QualityStatementProperties -->
<g id="edge13" class="edge"><title>SubGroup&#45;&gt;QualityStatementProperties</title>
<path fill="none" stroke="black" d="M84.3594,-133.468C118.36,-144.305 181.536,-165.966 231.983,-192 235.353,-193.739 238.741,-195.539 242.137,-197.39"/>
<text text-anchor="middle" x="183.983" y="-194.6" font-family="Times New Roman,serif" font-size="8.00">QualityStatementReference</text>
</g>
<!-- ArchiveSpecificType -->
<g id="ReusableTypeArchiveSpecificType5" class="node"><title></title><ellipse fill="#f7b733" stroke="black" cx="58.9917" cy="-72" rx="51.1011" ry="18" style="filter: url(#dropshadow)"/>
<text text-anchor="middle" x="58.9917" y="-70.1" font-family="Times New Roman,serif" font-size="8.00">ArchiveSpecificType</text>
</g>
<!-- ArchiveSpecificType&#45;&gt;QualityStatementProperties -->
<g id="edge14" class="edge"><title>ArchiveSpecificType&#45;&gt;QualityStatementProperties</title>
<path fill="none" stroke="black" d="M100.184,-82.6358C136.585,-93.4467 190.678,-112.527 231.983,-140 246.606,-149.726 260.915,-161.137 274.497,-173.234"/>
<text text-anchor="middle" x="183.983" y="-142.6" font-family="Times New Roman,serif" font-size="8.00">QualityStatementReference</text>
</g>
<!-- CollectionEventType -->
<g id="ReusableTypeCollectionEventType6" class="node"><title></title><ellipse fill="#f7b733" stroke="black" cx="58.9917" cy="-18" rx="52.3706" ry="18" style="filter: url(#dropshadow)"/>
<text text-anchor="middle" x="58.9917" y="-16.1" font-family="Times New Roman,serif" font-size="8.00">CollectionEventType</text>
</g>
<!-- CollectionEventType&#45;&gt;QualityStatementProperties -->
<g id="edge15" class="edge"><title>CollectionEventType&#45;&gt;QualityStatementProperties</title>
<path fill="none" stroke="black" d="M104.582,-26.806C141.613,-35.8357 194.161,-52.7874 231.983,-82 263.886,-106.64 291.563,-140.281 313.917,-173.233"/>
<text text-anchor="middle" x="183.983" y="-84.6" font-family="Times New Roman,serif" font-size="8.00">QualityStatementReference</text>
</g>
</g>
</svg>
