<?xml version="1.0" encoding="UTF-8" standalone="no"?>
<!DOCTYPE svg PUBLIC "-//W3C//DTD SVG 1.1//EN"
 "http://www.w3.org/Graphics/SVG/1.1/DTD/svg11.dtd">
<!-- Generated by graphviz version 2.38.0 (20140413.2041)
 -->
<!-- Title: G Pages: 1 -->
<svg width="1228pt" height="486pt"
 viewBox="0.00 0.00 1227.83 486.00" xmlns="http://www.w3.org/2000/svg" xmlns:xlink="http://www.w3.org/1999/xlink">
<filter id = "dropshadow" height = "130%" ><feGaussianBlur in= "SourceAlpha" stdDeviation = "3"/><!--stdDeviation is how much to blur--><feOffset dx = "2" dy = "2" result = "offsetblur"/><!--how much to offset--><feMerge><feMergeNode/><!--this contains the offset blurred image--><feMergeNode in= "SourceGraphic"/><!--this contains the element that the filter is applied to --></feMerge></filter>
<g id="graph0" class="graph" transform="scale(1 1) rotate(0) translate(4 482)">
<title>G</title>
<g id="clust1" class="cluster"><title>clusterRelation</title>
<polygon fill="#4abdac" stroke="black" points="191.832,-98 191.832,-470 1211.83,-470 1211.83,-98 191.832,-98" style="filter: url(#dropshadow)"/>
<text text-anchor="middle" x="701.832" y="-459.6" font-family="Times New Roman,serif" font-size="8.00">Relation</text>
</g>
<!-- RelationProperties -->
<g id="ItemTypeRelationProperties" class="node"><title></title><polygon fill="#f7b733" stroke="black" points="199.832,-244.5 199.832,-315.5 476.832,-315.5 476.832,-244.5 199.832,-244.5" style="filter: url(#dropshadow)"/>
<text text-anchor="middle" x="226.332" y="-278.1" font-family="Times New Roman,serif" font-size="8.00">Properties</text>
<polyline fill="none" stroke="black" points="252.832,-244.5 252.832,-315.5 "/>
<text text-anchor="start" x="260.832" y="-305.1" font-family="Times New Roman,serif" font-size="8.00">SourceObject : SourceObjectType[0...1] </text>
<text text-anchor="start" x="260.832" y="-296.1" font-family="Times New Roman,serif" font-size="8.00">TargetObject : TargetObjectType[0...1] </text>
<text text-anchor="start" x="260.832" y="-287.1" font-family="Times New Roman,serif" font-size="8.00">Description : StructuredStringType[0...1] </text>
<text text-anchor="start" x="260.832" y="-278.1" font-family="Times New Roman,serif" font-size="8.00">Keyword : InternationalCodeValueType[0...n] </text>
<text text-anchor="start" x="260.832" y="-269.1" font-family="Times New Roman,serif" font-size="8.00">EffectivePeriod : DateType[0...n] </text>
<text text-anchor="start" x="260.832" y="-260.1" font-family="Times New Roman,serif" font-size="8.00">AdditionalInformation : AdditionalInformationType[0...n] </text>
<text text-anchor="start" x="260.832" y="-251.1" font-family="Times New Roman,serif" font-size="8.00">Privacy : string[0...1] </text>
</g>
<!-- RelationSourceObjectType -->
<g id="ReusableTypeRelationSourceObjectType" class="node"><title></title><polygon fill="#fc4a1a" stroke="black" points="596.332,-162 596.332,-198 848.332,-198 848.332,-162 596.332,-162" style="filter: url(#dropshadow)"/>
<text text-anchor="middle" x="636.332" y="-178.1" font-family="Times New Roman,serif" font-size="8.00">SourceObjectType</text>
<polyline fill="none" stroke="black" points="676.332,-162 676.332,-198 "/>
<text text-anchor="start" x="684.332" y="-187.1" font-family="Times New Roman,serif" font-size="8.00">OrganizationReference : Organization[0...1] </text>
<text text-anchor="start" x="684.332" y="-178.1" font-family="Times New Roman,serif" font-size="8.00">IndividualReference : Individual[0...1] </text>
<text text-anchor="start" x="684.332" y="-169.1" font-family="Times New Roman,serif" font-size="8.00">RelationshipCode : string[0...1] </text>
</g>
<!-- RelationProperties&#45;&gt;RelationSourceObjectType -->
<g id="edge1" class="edge"><title>RelationProperties&#45;&gt;RelationSourceObjectType</title>
<path fill="none" stroke="black" d="M455.428,-244.436C498.124,-231.886 546.993,-218.139 591.832,-207 604.314,-203.899 617.531,-200.863 630.566,-198.012"/>
<text text-anchor="middle" x="534.332" y="-234.6" font-family="Times New Roman,serif" font-size="8.00">SourceObject</text>
</g>
<!-- RelationTargetObjectType -->
<g id="ReusableTypeRelationTargetObjectType" class="node"><title></title><polygon fill="#fc4a1a" stroke="black" points="595.832,-107 595.832,-143 848.832,-143 848.832,-107 595.832,-107" style="filter: url(#dropshadow)"/>
<text text-anchor="middle" x="636.332" y="-123.1" font-family="Times New Roman,serif" font-size="8.00">TargetObjectType</text>
<polyline fill="none" stroke="black" points="676.832,-107 676.832,-143 "/>
<text text-anchor="start" x="684.832" y="-132.1" font-family="Times New Roman,serif" font-size="8.00">OrganizationReference : Organization[0...1] </text>
<text text-anchor="start" x="684.832" y="-123.1" font-family="Times New Roman,serif" font-size="8.00">IndividualReference : Individual[0...1] </text>
<text text-anchor="start" x="684.832" y="-114.1" font-family="Times New Roman,serif" font-size="8.00">Role : RoleType[0...n] </text>
</g>
<!-- RelationProperties&#45;&gt;RelationTargetObjectType -->
<g id="edge2" class="edge"><title>RelationProperties&#45;&gt;RelationTargetObjectType</title>
<path fill="none" stroke="black" d="M398.013,-244.427C447.935,-215.609 522.381,-175.985 591.832,-152 601.492,-148.664 611.707,-145.672 621.991,-143.005"/>
<text text-anchor="middle" x="534.332" y="-194.6" font-family="Times New Roman,serif" font-size="8.00">TargetObject</text>
</g>
<!-- RelationStructuredStringType -->
<g id="ReusableTypeRelationStructuredStringType" class="node"><title></title><polygon fill="#fc4a1a" stroke="black" points="615.832,-217 615.832,-253 828.832,-253 828.832,-217 615.832,-217" style="filter: url(#dropshadow)"/>
<text text-anchor="middle" x="660.832" y="-233.1" font-family="Times New Roman,serif" font-size="8.00">StructuredStringType</text>
<polyline fill="none" stroke="black" points="705.832,-217 705.832,-253 "/>
<text text-anchor="start" x="713.832" y="-233.1" font-family="Times New Roman,serif" font-size="8.00">Content : ContentType[0...n] </text>
</g>
<!-- RelationProperties&#45;&gt;RelationStructuredStringType -->
<g id="edge3" class="edge"><title>RelationProperties&#45;&gt;RelationStructuredStringType</title>
<path fill="none" stroke="black" d="M476.973,-263.786C522.62,-258.408 572.688,-252.51 615.553,-247.461"/>
<text text-anchor="middle" x="534.332" y="-263.6" font-family="Times New Roman,serif" font-size="8.00">Description</text>
</g>
<!-- RelationInternationalCodeValueType -->
<g id="ReusableTypeRelationInternationalCodeValueType" class="node"><title></title><polygon fill="#fc4a1a" stroke="black" points="591.832,-272.5 591.832,-343.5 852.832,-343.5 852.832,-272.5 591.832,-272.5" style="filter: url(#dropshadow)"/>
<text text-anchor="middle" x="650.332" y="-306.1" font-family="Times New Roman,serif" font-size="8.00">InternationalCodeValueType</text>
<polyline fill="none" stroke="black" points="708.832,-272.5 708.832,-343.5 "/>
<text text-anchor="start" x="716.832" y="-333.1" font-family="Times New Roman,serif" font-size="8.00">CodeListID : string[0...1] </text>
<text text-anchor="start" x="716.832" y="-324.1" font-family="Times New Roman,serif" font-size="8.00">CodeListName_string : string[0...1] </text>
<text text-anchor="start" x="716.832" y="-315.1" font-family="Times New Roman,serif" font-size="8.00">CodeListAgencyName : string[0...1] </text>
<text text-anchor="start" x="716.832" y="-306.1" font-family="Times New Roman,serif" font-size="8.00">CodeListVersionID : string[0...1] </text>
<text text-anchor="start" x="716.832" y="-297.1" font-family="Times New Roman,serif" font-size="8.00">OtherValue : string[0...1] </text>
<text text-anchor="start" x="716.832" y="-288.1" font-family="Times New Roman,serif" font-size="8.00">CodeListURN : string[0...1] </text>
<text text-anchor="start" x="716.832" y="-279.1" font-family="Times New Roman,serif" font-size="8.00">CodeListSchemeURN : string[0...1] </text>
</g>
<!-- RelationProperties&#45;&gt;RelationInternationalCodeValueType -->
<g id="edge4" class="edge"><title>RelationProperties&#45;&gt;RelationInternationalCodeValueType</title>
<path fill="none" stroke="black" d="M476.973,-290.089C514.389,-292.831 554.775,-295.792 591.729,-298.5"/>
<text text-anchor="middle" x="534.332" y="-298.6" font-family="Times New Roman,serif" font-size="8.00">Keyword</text>
</g>
<!-- RelationDateType -->
<g id="ReusableTypeRelationDateType" class="node"><title></title><polygon fill="#fc4a1a" stroke="black" points="968.832,-356.5 968.832,-427.5 1203.83,-427.5 1203.83,-356.5 968.832,-356.5" style="filter: url(#dropshadow)"/>
<text text-anchor="middle" x="994.832" y="-390.1" font-family="Times New Roman,serif" font-size="8.00">DateType</text>
<polyline fill="none" stroke="black" points="1020.83,-356.5 1020.83,-427.5 "/>
<text text-anchor="start" x="1028.83" y="-417.1" font-family="Times New Roman,serif" font-size="8.00">SimpleDate : cogsDate[0...1] </text>
<text text-anchor="start" x="1028.83" y="-408.1" font-family="Times New Roman,serif" font-size="8.00">HistoricalDate : HistoricalDateType[0...1] </text>
<text text-anchor="start" x="1028.83" y="-399.1" font-family="Times New Roman,serif" font-size="8.00">StartDate : cogsDate[0...1] </text>
<text text-anchor="start" x="1028.83" y="-390.1" font-family="Times New Roman,serif" font-size="8.00">HistoricalStartDate : HistoricalDateType[0...1] </text>
<text text-anchor="start" x="1028.83" y="-381.1" font-family="Times New Roman,serif" font-size="8.00">EndDate : cogsDate[0...1] </text>
<text text-anchor="start" x="1028.83" y="-372.1" font-family="Times New Roman,serif" font-size="8.00">HistoricalEndDate : HistoricalDateType[0...1] </text>
<text text-anchor="start" x="1028.83" y="-363.1" font-family="Times New Roman,serif" font-size="8.00">Cycle : int[0...1] </text>
</g>
<!-- RelationProperties&#45;&gt;RelationDateType -->
<g id="edge5" class="edge"><title>RelationProperties&#45;&gt;RelationDateType</title>
<path fill="none" stroke="black" d="M444.466,-315.562C489.372,-329.397 542.674,-344.047 591.832,-353 719.508,-376.253 868.262,-385.643 968.809,-389.435"/>
<text text-anchor="middle" x="722.332" y="-385.6" font-family="Times New Roman,serif" font-size="8.00">EffectivePeriod</text>
</g>
<!-- RelationAdditionalInformationType -->
<g id="ReusableTypeRelationAdditionalInformationType" class="node"><title></title><polygon fill="#fc4a1a" stroke="black" points="596.832,-408 596.832,-444 847.832,-444 847.832,-408 596.832,-408" style="filter: url(#dropshadow)"/>
<text text-anchor="middle" x="653.832" y="-424.1" font-family="Times New Roman,serif" font-size="8.00">AdditionalInformationType</text>
<polyline fill="none" stroke="black" points="710.832,-408 710.832,-444 "/>
<text text-anchor="start" x="718.832" y="-428.6" font-family="Times New Roman,serif" font-size="8.00">EffectivePeriod : DateType[0...1] </text>
<text text-anchor="start" x="718.832" y="-419.6" font-family="Times New Roman,serif" font-size="8.00">Privacy : string[0...1] </text>
</g>
<!-- RelationProperties&#45;&gt;RelationAdditionalInformationType -->
<g id="edge6" class="edge"><title>RelationProperties&#45;&gt;RelationAdditionalInformationType</title>
<path fill="none" stroke="black" d="M381.45,-315.56C411.261,-338.867 453.195,-368.055 494.832,-385 526.757,-397.992 562.88,-406.884 596.749,-412.963"/>
<text text-anchor="middle" x="534.332" y="-410.6" font-family="Times New Roman,serif" font-size="8.00">AdditionalInformation</text>
</g>
<!-- Organization -->
<g id="ItemTypeOrganization" class="node"><title></title><ellipse fill="#f7b733" stroke="black" cx="1086.33" cy="-18" rx="35.3371" ry="18" style="filter: url(#dropshadow)"/>
<text text-anchor="middle" x="1086.33" y="-16.1" font-family="Times New Roman,serif" font-size="8.00">Organization</text>
</g>
<!-- RelationSourceObjectType&#45;&gt;Organization -->
<g id="edge7" class="edge"><title>RelationSourceObjectType&#45;&gt;Organization</title>
<path fill="none" stroke="black" d="M837.347,-161.849C842.811,-159.001 848.017,-155.738 852.832,-152 866.963,-141.032 857.076,-127.436 870.832,-116 899.281,-92.3497 923.662,-118.109 950.832,-93 967.565,-77.5365 951.701,-60.0214 968.832,-45 991.389,-25.2206 1025.6,-19.1679 1051.12,-17.6476"/>
<text text-anchor="middle" x="910.832" y="-118.6" font-family="Times New Roman,serif" font-size="8.00">OrganizationReference</text>
<text text-anchor="middle" x="1043.12" y="-11.2476" font-family="Times New Roman,serif" font-size="8.00">0...*</text>
<text text-anchor="middle" x="829.347" y="-155.449" font-family="Times New Roman,serif" font-size="8.00">0...*</text>
</g>
<!-- Individual -->
<g id="ItemTypeIndividual" class="node"><title></title><ellipse fill="#f7b733" stroke="black" cx="1086.33" cy="-72" rx="28.2235" ry="18" style="filter: url(#dropshadow)"/>
<text text-anchor="middle" x="1086.33" y="-70.1" font-family="Times New Roman,serif" font-size="8.00">Individual</text>
</g>
<!-- RelationSourceObjectType&#45;&gt;Individual -->
<g id="edge8" class="edge"><title>RelationSourceObjectType&#45;&gt;Individual</title>
<path fill="none" stroke="black" d="M848.493,-171.348C884.396,-163.858 921.672,-150.726 950.832,-128 964.318,-117.489 955.07,-104.146 968.832,-94 994.678,-74.9462 1032.28,-70.9448 1057.72,-70.7261"/>
<text text-anchor="middle" x="910.832" y="-168.6" font-family="Times New Roman,serif" font-size="8.00">IndividualReference</text>
<text text-anchor="middle" x="1049.72" y="-64.3261" font-family="Times New Roman,serif" font-size="8.00">0...*</text>
<text text-anchor="middle" x="856.493" y="-164.948" font-family="Times New Roman,serif" font-size="8.00">0...*</text>
</g>
<!-- RelationTargetObjectType&#45;&gt;Organization -->
<g id="edge9" class="edge"><title>RelationTargetObjectType&#45;&gt;Organization</title>
<path fill="none" stroke="black" d="M760.789,-106.904C790.168,-93.2912 832.381,-74.9935 870.832,-63 933.673,-43.3988 1009.54,-29.7393 1052.13,-22.9423"/>
<text text-anchor="middle" x="910.832" y="-65.6" font-family="Times New Roman,serif" font-size="8.00">OrganizationReference</text>
<text text-anchor="middle" x="1044.13" y="-25.5423" font-family="Times New Roman,serif" font-size="8.00">0...*</text>
<text text-anchor="middle" x="752.789" y="-100.504" font-family="Times New Roman,serif" font-size="8.00">0...*</text>
</g>
<!-- RelationTargetObjectType&#45;&gt;Individual -->
<g id="edge10" class="edge"><title>RelationTargetObjectType&#45;&gt;Individual</title>
<path fill="none" stroke="black" d="M777.343,-106.976C804.987,-98.5249 839.363,-89.1916 870.832,-84 937.257,-73.0415 1016.65,-71.5706 1057.7,-71.6561"/>
<text text-anchor="middle" x="910.832" y="-86.6" font-family="Times New Roman,serif" font-size="8.00">IndividualReference</text>
<text text-anchor="middle" x="1049.7" y="-74.2561" font-family="Times New Roman,serif" font-size="8.00">0...*</text>
<text text-anchor="middle" x="769.343" y="-100.576" font-family="Times New Roman,serif" font-size="8.00">0...*</text>
</g>
<!-- RelationAdditionalInformationType&#45;&gt;RelationDateType -->
<g id="edge11" class="edge"><title>RelationAdditionalInformationType&#45;&gt;RelationDateType</title>
<path fill="none" stroke="black" d="M847.912,-414.299C887.077,-410.621 930.159,-406.574 968.748,-402.95"/>
<text text-anchor="middle" x="910.832" y="-414.6" font-family="Times New Roman,serif" font-size="8.00">EffectivePeriod</text>
<text text-anchor="middle" x="960.748" y="-396.55" font-family="Times New Roman,serif" font-size="8.00">0...*</text>
<text text-anchor="middle" x="855.912" y="-407.899" font-family="Times New Roman,serif" font-size="8.00">0...*</text>
</g>
<!-- OrganizationGroup -->
<g id="ItemTypeOrganizationGroup0" class="node"><title></title><ellipse fill="#f7b733" stroke="black" cx="49.9161" cy="-307" rx="47.16" ry="18" style="filter: url(#dropshadow)"/>
<text text-anchor="middle" x="49.9161" y="-305.1" font-family="Times New Roman,serif" font-size="8.00">OrganizationGroup</text>
</g>
<!-- OrganizationGroup&#45;&gt;RelationProperties -->
<g id="edge12" class="edge"><title>OrganizationGroup&#45;&gt;RelationProperties</title>
<path fill="none" stroke="black" d="M95.9837,-302.752C122.31,-300.27 157.162,-296.984 192.171,-293.684"/>
<text text-anchor="middle" x="149.832" y="-302.6" font-family="Times New Roman,serif" font-size="8.00">RelationReference</text>
<text text-anchor="middle" x="184.171" y="-287.284" font-family="Times New Roman,serif" font-size="8.00">0...*</text>
<text text-anchor="middle" x="103.984" y="-296.352" font-family="Times New Roman,serif" font-size="8.00">0...*</text>
</g>
<!-- OrganizationScheme -->
<g id="ItemTypeOrganizationScheme1" class="node"><title></title><ellipse fill="#f7b733" stroke="black" cx="49.9161" cy="-253" rx="49.8323" ry="18" style="filter: url(#dropshadow)"/>
<text text-anchor="middle" x="49.9161" y="-251.1" font-family="Times New Roman,serif" font-size="8.00">OrganizationScheme</text>
</g>
<!-- OrganizationScheme&#45;&gt;RelationProperties -->
<g id="edge13" class="edge"><title>OrganizationScheme&#45;&gt;RelationProperties</title>
<path fill="none" stroke="black" d="M98.5334,-257.489C124.487,-259.935 158.15,-263.109 191.973,-266.297"/>
<text text-anchor="middle" x="149.832" y="-266.6" font-family="Times New Roman,serif" font-size="8.00">RelationReference</text>
<text text-anchor="middle" x="183.973" y="-259.897" font-family="Times New Roman,serif" font-size="8.00">0...*</text>
<text text-anchor="middle" x="106.533" y="-260.089" font-family="Times New Roman,serif" font-size="8.00">0...*</text>
</g>
</g>
</svg>
