<?xml version="1.0" encoding="UTF-8" standalone="no"?>
<!DOCTYPE svg PUBLIC "-//W3C//DTD SVG 1.1//EN"
 "http://www.w3.org/Graphics/SVG/1.1/DTD/svg11.dtd">
<!-- Generated by graphviz version 2.38.0 (20140413.2041)
 -->
<!-- Title: G Pages: 1 -->
<svg width="1870pt" height="1062pt"
 viewBox="0.00 0.00 1869.93 1062.48" xmlns="http://www.w3.org/2000/svg" xmlns:xlink="http://www.w3.org/1999/xlink">
<filter id = "dropshadow" height = "130%" ><feGaussianBlur in= "SourceAlpha" stdDeviation = "3"/><!--stdDeviation is how much to blur--><feOffset dx = "2" dy = "2" result = "offsetblur"/><!--how much to offset--><feMerge><feMergeNode/><!--this contains the offset blurred image--><feMergeNode in= "SourceGraphic"/><!--this contains the element that the filter is applied to --></feMerge></filter>
<g id="graph0" class="graph" transform="scale(1 1) rotate(0) translate(4 1058.48)">
<title>G</title>
<g id="clust1" class="cluster"><title>clusterRepresentationMap</title>
<polygon fill="#4abdac" stroke="black" points="197.933,-551.48 197.933,-1046.48 1853.93,-1046.48 1853.93,-551.48 197.933,-551.48" style="filter: url(#dropshadow)"/>
<text text-anchor="middle" x="1025.93" y="-1036.08" font-family="Times New Roman,serif" font-size="8.00">RepresentationMap</text>
</g>
<!-- RepresentationMapProperties -->
<g id="ItemTypeRepresentationMapProperties" class="node"><title></title><polygon fill="#f7b733" stroke="black" points="205.933,-656.98 205.933,-745.98 572.933,-745.98 572.933,-656.98 205.933,-656.98" style="filter: url(#dropshadow)"/>
<text text-anchor="middle" x="232.433" y="-699.58" font-family="Times New Roman,serif" font-size="8.00">Properties</text>
<polyline fill="none" stroke="black" points="258.933,-656.98 258.933,-745.98 "/>
<text text-anchor="start" x="266.933" y="-735.58" font-family="Times New Roman,serif" font-size="8.00">RepresentationMapName : NameType[0...n] </text>
<text text-anchor="start" x="266.933" y="-726.58" font-family="Times New Roman,serif" font-size="8.00">Label : LabelType[0...n] </text>
<text text-anchor="start" x="266.933" y="-717.58" font-family="Times New Roman,serif" font-size="8.00">Description : StructuredStringType[0...1] </text>
<text text-anchor="start" x="266.933" y="-708.58" font-family="Times New Roman,serif" font-size="8.00">SourceRepresentation : SourceRepresentationType[0...1] </text>
<text text-anchor="start" x="266.933" y="-699.58" font-family="Times New Roman,serif" font-size="8.00">TargetRepresentation : TargetRepresentationType[0...1] </text>
<text text-anchor="start" x="266.933" y="-690.58" font-family="Times New Roman,serif" font-size="8.00">Correspondence : CorrespondenceType[0...1] </text>
<text text-anchor="start" x="266.933" y="-681.58" font-family="Times New Roman,serif" font-size="8.00">ProcessingInstructionReference_GeneralInstruction : GeneralInstruction[0...1] </text>
<text text-anchor="start" x="266.933" y="-672.58" font-family="Times New Roman,serif" font-size="8.00">ProcessingInstructionReference_GenerationInstruction : GenerationInstruction[0...1] </text>
<text text-anchor="start" x="266.933" y="-663.58" font-family="Times New Roman,serif" font-size="8.00">ContextSpecificComparison : boolean[0...1] </text>
</g>
<!-- RepresentationMapNameType -->
<g id="ReusableTypeRepresentationMapNameType" class="node"><title></title><polygon fill="#fc4a1a" stroke="black" points="986.933,-560.48 986.933,-596.48 1155.93,-596.48 1155.93,-560.48 986.933,-560.48" style="filter: url(#dropshadow)"/>
<text text-anchor="middle" x="1014.93" y="-576.58" font-family="Times New Roman,serif" font-size="8.00">NameType</text>
<polyline fill="none" stroke="black" points="1042.93,-560.48 1042.93,-596.48 "/>
<text text-anchor="start" x="1050.93" y="-581.08" font-family="Times New Roman,serif" font-size="8.00">IsPreferred : boolean[0...1] </text>
<text text-anchor="start" x="1050.93" y="-572.08" font-family="Times New Roman,serif" font-size="8.00">Context : string[0...1] </text>
</g>
<!-- RepresentationMapProperties&#45;&gt;RepresentationMapNameType -->
<g id="edge1" class="edge"><title>RepresentationMapProperties&#45;&gt;RepresentationMapNameType</title>
<path fill="none" stroke="black" d="M560.824,-656.935C634.009,-639.11 720.751,-619.709 799.933,-606.48 862.217,-596.073 933.256,-588.898 986.9,-584.418"/>
<text text-anchor="middle" x="686.433" y="-651.08" font-family="Times New Roman,serif" font-size="8.00">RepresentationMapName</text>
</g>
<!-- RepresentationMapLabelType -->
<g id="ReusableTypeRepresentationMapLabelType" class="node"><title></title><polygon fill="#fc4a1a" stroke="black" points="969.933,-615.98 969.933,-668.98 1172.93,-668.98 1172.93,-615.98 969.933,-615.98" style="filter: url(#dropshadow)"/>
<text text-anchor="middle" x="996.933" y="-640.58" font-family="Times New Roman,serif" font-size="8.00">LabelType</text>
<polyline fill="none" stroke="black" points="1023.93,-615.98 1023.93,-668.98 "/>
<text text-anchor="start" x="1031.93" y="-658.58" font-family="Times New Roman,serif" font-size="8.00">TypeOfLabel : CodeValueType[0...1] </text>
<text text-anchor="start" x="1031.93" y="-649.58" font-family="Times New Roman,serif" font-size="8.00">LocationVariant : string[0...1] </text>
<text text-anchor="start" x="1031.93" y="-640.58" font-family="Times New Roman,serif" font-size="8.00">ValidForStartDate : cogsDate[0...1] </text>
<text text-anchor="start" x="1031.93" y="-631.58" font-family="Times New Roman,serif" font-size="8.00">ValidForEndDate : cogsDate[0...1] </text>
<text text-anchor="start" x="1031.93" y="-622.58" font-family="Times New Roman,serif" font-size="8.00">MaxLength : int[0...1] </text>
</g>
<!-- RepresentationMapProperties&#45;&gt;RepresentationMapLabelType -->
<g id="edge2" class="edge"><title>RepresentationMapProperties&#45;&gt;RepresentationMapLabelType</title>
<path fill="none" stroke="black" d="M573.108,-685.63C700.369,-674.588 865.354,-660.273 969.588,-651.229"/>
<text text-anchor="middle" x="686.433" y="-687.08" font-family="Times New Roman,serif" font-size="8.00">Label</text>
</g>
<!-- RepresentationMapStructuredStringType -->
<g id="ReusableTypeRepresentationMapStructuredStringType" class="node"><title></title><polygon fill="#fc4a1a" stroke="black" points="1632.93,-946.48 1632.93,-982.48 1845.93,-982.48 1845.93,-946.48 1632.93,-946.48" style="filter: url(#dropshadow)"/>
<text text-anchor="middle" x="1677.93" y="-962.58" font-family="Times New Roman,serif" font-size="8.00">StructuredStringType</text>
<polyline fill="none" stroke="black" points="1722.93,-946.48 1722.93,-982.48 "/>
<text text-anchor="start" x="1730.93" y="-962.58" font-family="Times New Roman,serif" font-size="8.00">Content : ContentType[0...n] </text>
</g>
<!-- RepresentationMapProperties&#45;&gt;RepresentationMapStructuredStringType -->
<g id="edge3" class="edge"><title>RepresentationMapProperties&#45;&gt;RepresentationMapStructuredStringType</title>
<path fill="none" stroke="black" d="M454.933,-746.005C532.727,-796.985 669.368,-878.017 799.933,-913.48 887.444,-937.248 1524.41,-951.16 1614.93,-956.48 1620.72,-956.82 1626.67,-957.177 1632.67,-957.545"/>
<text text-anchor="middle" x="1071.43" y="-949.08" font-family="Times New Roman,serif" font-size="8.00">Description</text>
</g>
<!-- RepresentationMapSourceRepresentationType -->
<g id="ReusableTypeRepresentationMapSourceRepresentationType" class="node"><title></title><polygon fill="#fc4a1a" stroke="black" points="800.433,-688.48 800.433,-786.48 1342.43,-786.48 1342.43,-688.48 800.433,-688.48" style="filter: url(#dropshadow)"/>
<text text-anchor="middle" x="855.433" y="-735.58" font-family="Times New Roman,serif" font-size="8.00">SourceRepresentationType</text>
<polyline fill="none" stroke="black" points="910.433,-688.48 910.433,-786.48 "/>
<text text-anchor="start" x="918.433" y="-776.08" font-family="Times New Roman,serif" font-size="8.00">ManagedRepresentationReference_ManagedMissingValuesRepresentation : ManagedMissingValuesRepresentation[0...1] </text>
<text text-anchor="start" x="918.433" y="-767.08" font-family="Times New Roman,serif" font-size="8.00">ManagedRepresentationReference_ManagedScaleRepresentation : ManagedScaleRepresentation[0...1] </text>
<text text-anchor="start" x="918.433" y="-758.08" font-family="Times New Roman,serif" font-size="8.00">ManagedRepresentationReference_ManagedNumericRepresentation : ManagedNumericRepresentation[0...1] </text>
<text text-anchor="start" x="918.433" y="-749.08" font-family="Times New Roman,serif" font-size="8.00">ManagedRepresentationReference_ManagedDateTimeRepresentation : ManagedDateTimeRepresentation[0...1] </text>
<text text-anchor="start" x="918.433" y="-740.08" font-family="Times New Roman,serif" font-size="8.00">ManagedRepresentationReference_ManagedTextRepresentation : ManagedTextRepresentation[0...1] </text>
<text text-anchor="start" x="918.433" y="-731.08" font-family="Times New Roman,serif" font-size="8.00">CategorySchemeReference : CategoryScheme[0...1] </text>
<text text-anchor="start" x="918.433" y="-722.08" font-family="Times New Roman,serif" font-size="8.00">CodeListReference : CodeList[0...1] </text>
<text text-anchor="start" x="918.433" y="-713.08" font-family="Times New Roman,serif" font-size="8.00">GeographicStructureReference : GeographicStructure[0...1] </text>
<text text-anchor="start" x="918.433" y="-704.08" font-family="Times New Roman,serif" font-size="8.00">GeographicLocationReference : GeographicLocation[0...1] </text>
<text text-anchor="start" x="918.433" y="-695.08" font-family="Times New Roman,serif" font-size="8.00">ConceptReference : Concept[0...1] </text>
</g>
<!-- RepresentationMapProperties&#45;&gt;RepresentationMapSourceRepresentationType -->
<g id="edge4" class="edge"><title>RepresentationMapProperties&#45;&gt;RepresentationMapSourceRepresentationType</title>
<path fill="none" stroke="black" d="M573.108,-711.151C642.934,-714.847 724.118,-719.145 800.392,-723.183"/>
<text text-anchor="middle" x="686.433" y="-724.08" font-family="Times New Roman,serif" font-size="8.00">SourceRepresentation</text>
</g>
<!-- RepresentationMapTargetRepresentationType -->
<g id="ReusableTypeRepresentationMapTargetRepresentationType" class="node"><title></title><polygon fill="#fc4a1a" stroke="black" points="799.933,-805.48 799.933,-903.48 1342.93,-903.48 1342.93,-805.48 799.933,-805.48" style="filter: url(#dropshadow)"/>
<text text-anchor="middle" x="855.433" y="-852.58" font-family="Times New Roman,serif" font-size="8.00">TargetRepresentationType</text>
<polyline fill="none" stroke="black" points="910.933,-805.48 910.933,-903.48 "/>
<text text-anchor="start" x="918.933" y="-893.08" font-family="Times New Roman,serif" font-size="8.00">ManagedRepresentationReference_ManagedMissingValuesRepresentation : ManagedMissingValuesRepresentation[0...1] </text>
<text text-anchor="start" x="918.933" y="-884.08" font-family="Times New Roman,serif" font-size="8.00">ManagedRepresentationReference_ManagedScaleRepresentation : ManagedScaleRepresentation[0...1] </text>
<text text-anchor="start" x="918.933" y="-875.08" font-family="Times New Roman,serif" font-size="8.00">ManagedRepresentationReference_ManagedNumericRepresentation : ManagedNumericRepresentation[0...1] </text>
<text text-anchor="start" x="918.933" y="-866.08" font-family="Times New Roman,serif" font-size="8.00">ManagedRepresentationReference_ManagedDateTimeRepresentation : ManagedDateTimeRepresentation[0...1] </text>
<text text-anchor="start" x="918.933" y="-857.08" font-family="Times New Roman,serif" font-size="8.00">ManagedRepresentationReference_ManagedTextRepresentation : ManagedTextRepresentation[0...1] </text>
<text text-anchor="start" x="918.933" y="-848.08" font-family="Times New Roman,serif" font-size="8.00">CategorySchemeReference : CategoryScheme[0...1] </text>
<text text-anchor="start" x="918.933" y="-839.08" font-family="Times New Roman,serif" font-size="8.00">CodeListReference : CodeList[0...1] </text>
<text text-anchor="start" x="918.933" y="-830.08" font-family="Times New Roman,serif" font-size="8.00">CodeSubsetInformation : CodeSubsetInformationType[0...1] </text>
<text text-anchor="start" x="918.933" y="-821.08" font-family="Times New Roman,serif" font-size="8.00">IncludedGeographicStructureCodes : IncludedGeographicStructureCodesType[0...1] </text>
<text text-anchor="start" x="918.933" y="-812.08" font-family="Times New Roman,serif" font-size="8.00">IncludedGeographicLocationCodes : IncludedGeographicLocationCodesType[0...1] </text>
</g>
<!-- RepresentationMapProperties&#45;&gt;RepresentationMapTargetRepresentationType -->
<g id="edge5" class="edge"><title>RepresentationMapProperties&#45;&gt;RepresentationMapTargetRepresentationType</title>
<path fill="none" stroke="black" d="M572.984,-744.518C643.794,-761.032 725.587,-779.887 799.933,-796.48 813.175,-799.435 826.789,-802.445 840.531,-805.46"/>
<text text-anchor="middle" x="686.433" y="-794.08" font-family="Times New Roman,serif" font-size="8.00">TargetRepresentation</text>
</g>
<!-- RepresentationMapCorrespondenceType -->
<g id="ReusableTypeRepresentationMapCorrespondenceType" class="node"><title></title><polygon fill="#fc4a1a" stroke="black" points="889.933,-967.98 889.933,-1020.98 1252.93,-1020.98 1252.93,-967.98 889.933,-967.98" style="filter: url(#dropshadow)"/>
<text text-anchor="middle" x="935.433" y="-992.58" font-family="Times New Roman,serif" font-size="8.00">CorrespondenceType</text>
<polyline fill="none" stroke="black" points="980.933,-967.98 980.933,-1020.98 "/>
<text text-anchor="start" x="988.933" y="-1010.58" font-family="Times New Roman,serif" font-size="8.00">Commonality : StructuredStringType[0...1] </text>
<text text-anchor="start" x="988.933" y="-1001.58" font-family="Times New Roman,serif" font-size="8.00">Difference : StructuredStringType[0...1] </text>
<text text-anchor="start" x="988.933" y="-992.58" font-family="Times New Roman,serif" font-size="8.00">CommonalityTypeCoded : CodeValueType[0...1] </text>
<text text-anchor="start" x="988.933" y="-983.58" font-family="Times New Roman,serif" font-size="8.00">CommonalityWeight : float[0...1] </text>
<text text-anchor="start" x="988.933" y="-974.58" font-family="Times New Roman,serif" font-size="8.00">UserDefinedCorrespondenceProperty : StandardKeyValuePairType[0...n] </text>
</g>
<!-- RepresentationMapProperties&#45;&gt;RepresentationMapCorrespondenceType -->
<g id="edge6" class="edge"><title>RepresentationMapProperties&#45;&gt;RepresentationMapCorrespondenceType</title>
<path fill="none" stroke="black" d="M412.823,-746.171C444.092,-803.311 506.624,-900.25 590.933,-945.48 681.54,-994.087 795.636,-1007.32 889.798,-1007.94"/>
<text text-anchor="middle" x="686.433" y="-1003.08" font-family="Times New Roman,serif" font-size="8.00">Correspondence</text>
</g>
<!-- GeneralInstruction -->
<g id="ItemTypeGeneralInstruction" class="node"><title></title><ellipse fill="#f7b733" stroke="black" cx="1071.43" cy="-523.48" rx="45.891" ry="18" style="filter: url(#dropshadow)"/>
<text text-anchor="middle" x="1071.43" y="-521.58" font-family="Times New Roman,serif" font-size="8.00">GeneralInstruction</text>
</g>
<!-- RepresentationMapProperties&#45;&gt;GeneralInstruction -->
<g id="edge7" class="edge"><title>RepresentationMapProperties&#45;&gt;GeneralInstruction</title>
<path fill="none" stroke="black" d="M465.55,-656.961C502.366,-636.598 547.941,-613.498 590.933,-597.48 743.27,-540.72 938.447,-527.483 1025.28,-524.406"/>
<text text-anchor="middle" x="686.433" y="-600.08" font-family="Times New Roman,serif" font-size="8.00">ProcessingInstructionReference_GeneralInstruction</text>
<text text-anchor="middle" x="1017.28" y="-518.006" font-family="Times New Roman,serif" font-size="8.00">0...*</text>
<text text-anchor="middle" x="457.55" y="-650.561" font-family="Times New Roman,serif" font-size="8.00">0...*</text>
</g>
<!-- GenerationInstruction -->
<g id="ItemTypeGenerationInstruction" class="node"><title></title><ellipse fill="#f7b733" stroke="black" cx="1071.43" cy="-469.48" rx="52.5056" ry="18" style="filter: url(#dropshadow)"/>
<text text-anchor="middle" x="1071.43" y="-467.58" font-family="Times New Roman,serif" font-size="8.00">GenerationInstruction</text>
</g>
<!-- RepresentationMapProperties&#45;&gt;GenerationInstruction -->
<g id="edge8" class="edge"><title>RepresentationMapProperties&#45;&gt;GenerationInstruction</title>
<path fill="none" stroke="black" d="M432.653,-656.657C470.523,-619.223 529.456,-567.456 590.933,-538.48 734.908,-470.618 928.062,-465.382 1019,-467.266"/>
<text text-anchor="middle" x="686.433" y="-541.08" font-family="Times New Roman,serif" font-size="8.00">ProcessingInstructionReference_GenerationInstruction</text>
<text text-anchor="middle" x="1011" y="-460.866" font-family="Times New Roman,serif" font-size="8.00">0...*</text>
<text text-anchor="middle" x="424.653" y="-650.257" font-family="Times New Roman,serif" font-size="8.00">0...*</text>
</g>
<!-- ManagedMissingValuesRepresentation -->
<g id="ItemTypeManagedMissingValuesRepresentation0" class="node"><title></title><ellipse fill="#f7b733" stroke="black" cx="1739.43" cy="-363.48" rx="83.8996" ry="18" style="filter: url(#dropshadow)"/>
<text text-anchor="middle" x="1739.43" y="-361.58" font-family="Times New Roman,serif" font-size="8.00">ManagedMissingValuesRepresentation</text>
</g>
<!-- RepresentationMapSourceRepresentationType&#45;&gt;ManagedMissingValuesRepresentation -->
<g id="edge9" class="edge"><title>RepresentationMapSourceRepresentationType&#45;&gt;ManagedMissingValuesRepresentation</title>
<path fill="none" stroke="black" d="M1333.48,-688.273C1336.77,-685.177 1339.92,-681.915 1342.93,-678.48 1374.96,-641.91 1327.51,-495.776 1360.93,-460.48 1439.28,-377.733 1521.95,-491.354 1614.93,-425.48 1629.21,-415.368 1619.26,-401.385 1632.93,-390.48 1642.98,-382.464 1655.14,-376.802 1667.57,-372.808"/>
<text text-anchor="middle" x="1487.93" y="-463.08" font-family="Times New Roman,serif" font-size="8.00">ManagedRepresentationReference_ManagedMissingValuesRepresentation</text>
<text text-anchor="middle" x="1659.57" y="-375.408" font-family="Times New Roman,serif" font-size="8.00">0...*</text>
<text text-anchor="middle" x="1325.48" y="-681.873" font-family="Times New Roman,serif" font-size="8.00">0...*</text>
</g>
<!-- ManagedScaleRepresentation -->
<g id="ItemTypeManagedScaleRepresentation1" class="node"><title></title><ellipse fill="#f7b733" stroke="black" cx="1739.43" cy="-525.48" rx="66.2317" ry="18" style="filter: url(#dropshadow)"/>
<text text-anchor="middle" x="1739.43" y="-523.58" font-family="Times New Roman,serif" font-size="8.00">ManagedScaleRepresentation</text>
</g>
<!-- RepresentationMapSourceRepresentationType&#45;&gt;ManagedScaleRepresentation -->
<g id="edge10" class="edge"><title>RepresentationMapSourceRepresentationType&#45;&gt;ManagedScaleRepresentation</title>
<path fill="none" stroke="black" d="M1342.49,-692.829C1473.1,-670.086 1604.19,-645.047 1614.93,-634.48 1643.08,-606.789 1605.03,-575.422 1632.93,-547.48 1643.71,-536.689 1658.31,-530.539 1673.22,-527.169"/>
<text text-anchor="middle" x="1487.93" y="-691.08" font-family="Times New Roman,serif" font-size="8.00">ManagedRepresentationReference_ManagedScaleRepresentation</text>
<text text-anchor="middle" x="1665.22" y="-529.769" font-family="Times New Roman,serif" font-size="8.00">0...*</text>
<text text-anchor="middle" x="1350.49" y="-686.429" font-family="Times New Roman,serif" font-size="8.00">0...*</text>
</g>
<!-- ManagedNumericRepresentation -->
<g id="ItemTypeManagedNumericRepresentation2" class="node"><title></title><ellipse fill="#f7b733" stroke="black" cx="1739.43" cy="-255.48" rx="73.3453" ry="18" style="filter: url(#dropshadow)"/>
<text text-anchor="middle" x="1739.43" y="-253.58" font-family="Times New Roman,serif" font-size="8.00">ManagedNumericRepresentation</text>
</g>
<!-- RepresentationMapSourceRepresentationType&#45;&gt;ManagedNumericRepresentation -->
<g id="edge11" class="edge"><title>RepresentationMapSourceRepresentationType&#45;&gt;ManagedNumericRepresentation</title>
<path fill="none" stroke="black" d="M1333.67,-688.437C1336.9,-685.29 1339.99,-681.974 1342.93,-678.48 1373.07,-642.651 1327.21,-289.961 1360.93,-257.48 1404.48,-215.536 1581.33,-233.011 1676.73,-246.045"/>
<text text-anchor="middle" x="1487.93" y="-260.08" font-family="Times New Roman,serif" font-size="8.00">ManagedRepresentationReference_ManagedNumericRepresentation</text>
<text text-anchor="middle" x="1668.73" y="-239.645" font-family="Times New Roman,serif" font-size="8.00">0...*</text>
<text text-anchor="middle" x="1341.67" y="-682.037" font-family="Times New Roman,serif" font-size="8.00">0...*</text>
</g>
<!-- ManagedDateTimeRepresentation -->
<g id="ItemTypeManagedDateTimeRepresentation3" class="node"><title></title><ellipse fill="#f7b733" stroke="black" cx="1739.43" cy="-309.48" rx="76.6517" ry="18" style="filter: url(#dropshadow)"/>
<text text-anchor="middle" x="1739.43" y="-307.58" font-family="Times New Roman,serif" font-size="8.00">ManagedDateTimeRepresentation</text>
</g>
<!-- RepresentationMapSourceRepresentationType&#45;&gt;ManagedDateTimeRepresentation -->
<g id="edge12" class="edge"><title>RepresentationMapSourceRepresentationType&#45;&gt;ManagedDateTimeRepresentation</title>
<path fill="none" stroke="black" d="M1333.58,-688.363C1336.84,-685.239 1339.96,-681.948 1342.93,-678.48 1385.95,-628.262 1317.26,-431.127 1360.93,-381.48 1399.99,-337.081 1565.93,-319.648 1664.33,-313.123"/>
<text text-anchor="middle" x="1487.93" y="-384.08" font-family="Times New Roman,serif" font-size="8.00">ManagedRepresentationReference_ManagedDateTimeRepresentation</text>
<text text-anchor="middle" x="1656.33" y="-306.723" font-family="Times New Roman,serif" font-size="8.00">0...*</text>
<text text-anchor="middle" x="1325.58" y="-681.963" font-family="Times New Roman,serif" font-size="8.00">0...*</text>
</g>
<!-- ManagedTextRepresentation -->
<g id="ItemTypeManagedTextRepresentation4" class="node"><title></title><ellipse fill="#f7b733" stroke="black" cx="1739.43" cy="-201.48" rx="66.2317" ry="18" style="filter: url(#dropshadow)"/>
<text text-anchor="middle" x="1739.43" y="-199.58" font-family="Times New Roman,serif" font-size="8.00">ManagedTextRepresentation</text>
</g>
<!-- RepresentationMapSourceRepresentationType&#45;&gt;ManagedTextRepresentation -->
<g id="edge13" class="edge"><title>RepresentationMapSourceRepresentationType&#45;&gt;ManagedTextRepresentation</title>
<path fill="none" stroke="black" d="M1333.68,-688.451C1336.91,-685.3 1340,-681.979 1342.93,-678.48 1375.79,-639.278 1324.87,-254.755 1360.93,-218.48 1403.77,-175.385 1582.29,-185.758 1677.69,-194.783"/>
<text text-anchor="middle" x="1487.93" y="-221.08" font-family="Times New Roman,serif" font-size="8.00">ManagedRepresentationReference_ManagedTextRepresentation</text>
<text text-anchor="middle" x="1669.69" y="-188.383" font-family="Times New Roman,serif" font-size="8.00">0...*</text>
<text text-anchor="middle" x="1325.68" y="-691.051" font-family="Times New Roman,serif" font-size="8.00">0...*</text>
</g>
<!-- CategoryScheme -->
<g id="ItemTypeCategoryScheme5" class="node"><title></title><ellipse fill="#f7b733" stroke="black" cx="1739.43" cy="-471.48" rx="41.9498" ry="18" style="filter: url(#dropshadow)"/>
<text text-anchor="middle" x="1739.43" y="-469.58" font-family="Times New Roman,serif" font-size="8.00">CategoryScheme</text>
</g>
<!-- RepresentationMapSourceRepresentationType&#45;&gt;CategoryScheme -->
<g id="edge14" class="edge"><title>RepresentationMapSourceRepresentationType&#45;&gt;CategoryScheme</title>
<path fill="none" stroke="black" d="M1332.06,-688.416C1335.83,-685.283 1339.46,-681.974 1342.93,-678.48 1370.16,-651.092 1332.06,-619.122 1360.93,-593.48 1403.31,-555.845 1571.88,-607.339 1614.93,-570.48 1639.99,-549.028 1609.67,-521.868 1632.93,-498.48 1649.73,-481.588 1675.55,-474.783 1697.44,-472.228"/>
<text text-anchor="middle" x="1487.93" y="-596.08" font-family="Times New Roman,serif" font-size="8.00">CategorySchemeReference</text>
<text text-anchor="middle" x="1689.44" y="-474.828" font-family="Times New Roman,serif" font-size="8.00">0...*</text>
<text text-anchor="middle" x="1340.06" y="-682.016" font-family="Times New Roman,serif" font-size="8.00">0...*</text>
</g>
<!-- CodeList -->
<g id="ItemTypeCodeList6" class="node"><title></title><ellipse fill="#f7b733" stroke="black" cx="1739.43" cy="-417.48" rx="27" ry="18" style="filter: url(#dropshadow)"/>
<text text-anchor="middle" x="1739.43" y="-415.58" font-family="Times New Roman,serif" font-size="8.00">CodeList</text>
</g>
<!-- RepresentationMapSourceRepresentationType&#45;&gt;CodeList -->
<g id="edge15" class="edge"><title>RepresentationMapSourceRepresentationType&#45;&gt;CodeList</title>
<path fill="none" stroke="black" d="M1333.04,-688.356C1336.48,-685.237 1339.78,-681.948 1342.93,-678.48 1388.1,-628.793 1312.86,-575.356 1360.93,-528.48 1401.53,-488.898 1571.09,-540.427 1614.93,-504.48 1636.46,-486.827 1612.85,-463.759 1632.93,-444.48 1654.07,-424.186 1688.29,-418.569 1712,-417.295"/>
<text text-anchor="middle" x="1487.93" y="-531.08" font-family="Times New Roman,serif" font-size="8.00">CodeListReference</text>
<text text-anchor="middle" x="1704" y="-410.895" font-family="Times New Roman,serif" font-size="8.00">0...*</text>
<text text-anchor="middle" x="1341.04" y="-690.956" font-family="Times New Roman,serif" font-size="8.00">0...*</text>
</g>
<!-- GeographicStructure -->
<g id="ItemTypeGeographicStructure7" class="node"><title></title><ellipse fill="#f7b733" stroke="black" cx="1739.43" cy="-147.48" rx="48.5642" ry="18" style="filter: url(#dropshadow)"/>
<text text-anchor="middle" x="1739.43" y="-145.58" font-family="Times New Roman,serif" font-size="8.00">GeographicStructure</text>
</g>
<!-- RepresentationMapSourceRepresentationType&#45;&gt;GeographicStructure -->
<g id="edge16" class="edge"><title>RepresentationMapSourceRepresentationType&#45;&gt;GeographicStructure</title>
<path fill="none" stroke="black" d="M1333.7,-688.465C1336.92,-685.31 1340.01,-681.984 1342.93,-678.48 1378.85,-635.472 1322.02,-214.804 1360.93,-174.48 1450.58,-81.5689 1625.02,-115.383 1701.26,-136.12"/>
<text text-anchor="middle" x="1487.93" y="-177.08" font-family="Times New Roman,serif" font-size="8.00">GeographicStructureReference</text>
<text text-anchor="middle" x="1693.26" y="-129.72" font-family="Times New Roman,serif" font-size="8.00">0...*</text>
<text text-anchor="middle" x="1325.7" y="-691.065" font-family="Times New Roman,serif" font-size="8.00">0...*</text>
</g>
<!-- GeographicLocation -->
<g id="ItemTypeGeographicLocation8" class="node"><title></title><ellipse fill="#f7b733" stroke="black" cx="1739.43" cy="-93.4796" rx="49.1982" ry="18" style="filter: url(#dropshadow)"/>
<text text-anchor="middle" x="1739.43" y="-91.5796" font-family="Times New Roman,serif" font-size="8.00">GeographicLocation</text>
</g>
<!-- RepresentationMapSourceRepresentationType&#45;&gt;GeographicLocation -->
<g id="edge17" class="edge"><title>RepresentationMapSourceRepresentationType&#45;&gt;GeographicLocation</title>
<path fill="none" stroke="black" d="M1333.98,-688.234C1337.1,-685.147 1340.09,-681.898 1342.93,-678.48 1384.01,-629.072 1315.21,-145.627 1360.93,-100.48 1406.58,-55.4006 1603.14,-75.168 1693.13,-86.9695"/>
<text text-anchor="middle" x="1487.93" y="-103.08" font-family="Times New Roman,serif" font-size="8.00">GeographicLocationReference</text>
<text text-anchor="middle" x="1685.13" y="-80.5695" font-family="Times New Roman,serif" font-size="8.00">0...*</text>
<text text-anchor="middle" x="1341.98" y="-681.834" font-family="Times New Roman,serif" font-size="8.00">0...*</text>
</g>
<!-- Concept -->
<g id="ItemTypeConcept9" class="node"><title></title><ellipse fill="#f7b733" stroke="black" cx="1739.43" cy="-39.4796" rx="27" ry="18" style="filter: url(#dropshadow)"/>
<text text-anchor="middle" x="1739.43" y="-37.5796" font-family="Times New Roman,serif" font-size="8.00">Concept</text>
</g>
<!-- RepresentationMapSourceRepresentationType&#45;&gt;Concept -->
<g id="edge18" class="edge"><title>RepresentationMapSourceRepresentationType&#45;&gt;Concept</title>
<path fill="none" stroke="black" d="M1333.99,-688.242C1337.11,-685.153 1340.09,-681.901 1342.93,-678.48 1386.87,-625.525 1312.86,-108.71 1360.93,-59.4796 1456.99,38.897 1648.64,-10.347 1715.1,-31.4822"/>
<text text-anchor="middle" x="1487.93" y="-62.0796" font-family="Times New Roman,serif" font-size="8.00">ConceptReference</text>
<text text-anchor="middle" x="1707.1" y="-25.0822" font-family="Times New Roman,serif" font-size="8.00">0...*</text>
<text text-anchor="middle" x="1341.99" y="-690.842" font-family="Times New Roman,serif" font-size="8.00">0...*</text>
</g>
<!-- RepresentationMapTargetRepresentationType&#45;&gt;ManagedMissingValuesRepresentation -->
<g id="edge19" class="edge"><title>RepresentationMapTargetRepresentationType&#45;&gt;ManagedMissingValuesRepresentation</title>
<path fill="none" stroke="black" d="M1334.53,-805.29C1337.44,-802.489 1340.25,-799.555 1342.93,-796.48 1377.53,-756.863 1324.01,-597.934 1360.93,-560.48 1400.72,-520.121 1574.23,-576.918 1614.93,-537.48 1662.2,-491.677 1589.48,-439.919 1632.93,-390.48 1640.92,-381.391 1651.51,-375.159 1662.9,-370.924"/>
<text text-anchor="middle" x="1487.93" y="-563.08" font-family="Times New Roman,serif" font-size="8.00">ManagedRepresentationReference_ManagedMissingValuesRepresentation</text>
<text text-anchor="middle" x="1654.9" y="-364.524" font-family="Times New Roman,serif" font-size="8.00">0...*</text>
<text text-anchor="middle" x="1326.53" y="-798.89" font-family="Times New Roman,serif" font-size="8.00">0...*</text>
</g>
<!-- RepresentationMapTargetRepresentationType&#45;&gt;ManagedScaleRepresentation -->
<g id="edge20" class="edge"><title>RepresentationMapTargetRepresentationType&#45;&gt;ManagedScaleRepresentation</title>
<path fill="none" stroke="black" d="M1342.94,-858.785C1442.44,-845.786 1547.24,-812.221 1614.93,-735.48 1642.7,-704.005 1604.93,-578.744 1632.93,-547.48 1643.23,-535.981 1657.85,-529.608 1672.93,-526.253"/>
<text text-anchor="middle" x="1487.93" y="-857.08" font-family="Times New Roman,serif" font-size="8.00">ManagedRepresentationReference_ManagedScaleRepresentation</text>
<text text-anchor="middle" x="1664.93" y="-519.853" font-family="Times New Roman,serif" font-size="8.00">0...*</text>
<text text-anchor="middle" x="1350.94" y="-852.385" font-family="Times New Roman,serif" font-size="8.00">0...*</text>
</g>
<!-- RepresentationMapTargetRepresentationType&#45;&gt;ManagedNumericRepresentation -->
<g id="edge21" class="edge"><title>RepresentationMapTargetRepresentationType&#45;&gt;ManagedNumericRepresentation</title>
<path fill="none" stroke="black" d="M1334.65,-805.399C1337.53,-802.564 1340.29,-799.593 1342.93,-796.48 1370.48,-763.985 1331.47,-444.25 1360.93,-413.48 1400.13,-372.545 1573.39,-429.028 1614.93,-390.48 1650.61,-357.382 1600.02,-318.326 1632.93,-282.48 1642.65,-271.895 1655.9,-265.215 1669.72,-261.055"/>
<text text-anchor="middle" x="1487.93" y="-416.08" font-family="Times New Roman,serif" font-size="8.00">ManagedRepresentationReference_ManagedNumericRepresentation</text>
<text text-anchor="middle" x="1661.72" y="-254.655" font-family="Times New Roman,serif" font-size="8.00">0...*</text>
<text text-anchor="middle" x="1342.65" y="-798.999" font-family="Times New Roman,serif" font-size="8.00">0...*</text>
</g>
<!-- RepresentationMapTargetRepresentationType&#45;&gt;ManagedDateTimeRepresentation -->
<g id="edge22" class="edge"><title>RepresentationMapTargetRepresentationType&#45;&gt;ManagedDateTimeRepresentation</title>
<path fill="none" stroke="black" d="M1334.6,-805.353C1337.49,-802.533 1340.27,-799.577 1342.93,-796.48 1387.01,-745.13 1313.83,-541.072 1360.93,-492.48 1400.38,-451.784 1573.98,-508.659 1614.93,-469.48 1658.03,-428.243 1593.27,-381.033 1632.93,-336.48 1641.92,-326.383 1654.12,-319.82 1667.03,-315.604"/>
<text text-anchor="middle" x="1487.93" y="-495.08" font-family="Times New Roman,serif" font-size="8.00">ManagedRepresentationReference_ManagedDateTimeRepresentation</text>
<text text-anchor="middle" x="1659.03" y="-318.204" font-family="Times New Roman,serif" font-size="8.00">0...*</text>
<text text-anchor="middle" x="1342.6" y="-807.953" font-family="Times New Roman,serif" font-size="8.00">0...*</text>
</g>
<!-- RepresentationMapTargetRepresentationType&#45;&gt;ManagedTextRepresentation -->
<g id="edge23" class="edge"><title>RepresentationMapTargetRepresentationType&#45;&gt;ManagedTextRepresentation</title>
<path fill="none" stroke="black" d="M1334.7,-805.437C1337.56,-802.591 1340.31,-799.607 1342.93,-796.48 1378.09,-754.572 1324.48,-345.264 1360.93,-304.48 1437,-219.378 1523.27,-334.506 1614.93,-266.48 1629.94,-255.342 1618.51,-240.368 1632.93,-228.48 1645.41,-218.196 1661.31,-211.77 1676.97,-207.772"/>
<text text-anchor="middle" x="1487.93" y="-307.08" font-family="Times New Roman,serif" font-size="8.00">ManagedRepresentationReference_ManagedTextRepresentation</text>
<text text-anchor="middle" x="1668.97" y="-201.372" font-family="Times New Roman,serif" font-size="8.00">0...*</text>
<text text-anchor="middle" x="1326.7" y="-799.037" font-family="Times New Roman,serif" font-size="8.00">0...*</text>
</g>
<!-- RepresentationMapTargetRepresentationType&#45;&gt;CategoryScheme -->
<g id="edge24" class="edge"><title>RepresentationMapTargetRepresentationType&#45;&gt;CategoryScheme</title>
<path fill="none" stroke="black" d="M1333.01,-805.322C1336.43,-802.518 1339.74,-799.573 1342.93,-796.48 1366.92,-773.214 1335.58,-745.253 1360.93,-723.48 1403.93,-686.551 1574.89,-740.584 1614.93,-700.48 1646.78,-668.59 1603.74,-532.816 1632.93,-498.48 1648.61,-480.042 1674.98,-473.292 1697.44,-471.151"/>
<text text-anchor="middle" x="1487.93" y="-726.08" font-family="Times New Roman,serif" font-size="8.00">CategorySchemeReference</text>
<text text-anchor="middle" x="1689.44" y="-464.751" font-family="Times New Roman,serif" font-size="8.00">0...*</text>
<text text-anchor="middle" x="1325.01" y="-807.922" font-family="Times New Roman,serif" font-size="8.00">0...*</text>
</g>
<!-- RepresentationMapTargetRepresentationType&#45;&gt;CodeList -->
<g id="edge25" class="edge"><title>RepresentationMapTargetRepresentationType&#45;&gt;CodeList</title>
<path fill="none" stroke="black" d="M1334.14,-805.424C1337.19,-802.584 1340.12,-799.605 1342.93,-796.48 1368.48,-768.063 1333.72,-652.301 1360.93,-625.48 1401.3,-585.697 1574.4,-642.089 1614.93,-602.48 1665.48,-553.085 1586.5,-497.761 1632.93,-444.48 1652.43,-422.102 1687.7,-417.017 1712.05,-416.43"/>
<text text-anchor="middle" x="1487.93" y="-628.08" font-family="Times New Roman,serif" font-size="8.00">CodeListReference</text>
<text text-anchor="middle" x="1704.05" y="-419.03" font-family="Times New Roman,serif" font-size="8.00">0...*</text>
<text text-anchor="middle" x="1342.14" y="-799.024" font-family="Times New Roman,serif" font-size="8.00">0...*</text>
</g>
<!-- RepresentationMapCorrespondenceType&#45;&gt;RepresentationMapStructuredStringType -->
<g id="edge26" class="edge"><title>RepresentationMapCorrespondenceType&#45;&gt;RepresentationMapStructuredStringType</title>
<path fill="none" stroke="black" d="M1253.06,-973.594C1288.76,-970.237 1325.99,-967.278 1360.93,-965.48 1452.57,-960.764 1556.87,-960.907 1632.59,-962.005"/>
<text text-anchor="middle" x="1487.93" y="-968.08" font-family="Times New Roman,serif" font-size="8.00">Commonality</text>
<text text-anchor="middle" x="1624.59" y="-955.605" font-family="Times New Roman,serif" font-size="8.00">0...*</text>
<text text-anchor="middle" x="1261.06" y="-967.194" font-family="Times New Roman,serif" font-size="8.00">0...*</text>
</g>
<!-- RepresentationMapCorrespondenceType&#45;&gt;RepresentationMapStructuredStringType -->
<g id="edge27" class="edge"><title>RepresentationMapCorrespondenceType&#45;&gt;RepresentationMapStructuredStringType</title>
<path fill="none" stroke="black" d="M1253.05,-989.808C1358.61,-986.581 1494.39,-981.579 1614.93,-974.48 1620.73,-974.138 1626.68,-973.757 1632.68,-973.35"/>
<text text-anchor="middle" x="1487.93" y="-988.08" font-family="Times New Roman,serif" font-size="8.00">Difference</text>
<text text-anchor="middle" x="1624.68" y="-966.95" font-family="Times New Roman,serif" font-size="8.00">0...*</text>
<text text-anchor="middle" x="1261.05" y="-983.408" font-family="Times New Roman,serif" font-size="8.00">0...*</text>
</g>
<!-- Comparison -->
<g id="ItemTypeComparison0" class="node"><title></title><ellipse fill="#f7b733" stroke="black" cx="33.4665" cy="-701.48" rx="33.433" ry="18" style="filter: url(#dropshadow)"/>
<text text-anchor="middle" x="33.4665" y="-699.58" font-family="Times New Roman,serif" font-size="8.00">Comparison</text>
</g>
<!-- Comparison&#45;&gt;RepresentationMapProperties -->
<g id="edge28" class="edge"><title>Comparison&#45;&gt;RepresentationMapProperties</title>
<path fill="none" stroke="black" d="M67.1323,-701.48C98.126,-701.48 147.39,-701.48 198.124,-701.48"/>
<text text-anchor="middle" x="136.433" y="-704.08" font-family="Times New Roman,serif" font-size="8.00">RepresentationMapReference</text>
<text text-anchor="middle" x="190.124" y="-695.08" font-family="Times New Roman,serif" font-size="8.00">0...*</text>
<text text-anchor="middle" x="75.1323" y="-695.08" font-family="Times New Roman,serif" font-size="8.00">0...*</text>
</g>
</g>
</svg>
