<?xml version="1.0" encoding="UTF-8" standalone="no"?>
<!DOCTYPE svg PUBLIC "-//W3C//DTD SVG 1.1//EN"
 "http://www.w3.org/Graphics/SVG/1.1/DTD/svg11.dtd">
<!-- Generated by graphviz version 2.38.0 (20140413.2041)
 -->
<!-- Title: G Pages: 1 -->
<svg width="411pt" height="746pt"
 viewBox="0.00 0.00 411.30 746.00" xmlns="http://www.w3.org/2000/svg" xmlns:xlink="http://www.w3.org/1999/xlink">
<filter id = "dropshadow" height = "130%" ><feGaussianBlur in= "SourceAlpha" stdDeviation = "3"/><!--stdDeviation is how much to blur--><feOffset dx = "2" dy = "2" result = "offsetblur"/><!--how much to offset--><feMerge><feMergeNode/><!--this contains the offset blurred image--><feMergeNode in= "SourceGraphic"/><!--this contains the element that the filter is applied to --></feMerge></filter>
<g id="graph0" class="graph" transform="scale(1 1) rotate(0) translate(4 742)">
<title>G</title>
<!-- ResponseCardinalityType -->
<g id="ReusableTypeResponseCardinalityType" class="node"><title></title><polygon fill="#f7b733" stroke="black" points="278.303,-351 278.303,-387 403.303,-387 403.303,-351 278.303,-351" style="filter: url(#dropshadow)"/>
<text text-anchor="middle" x="331.303" y="-367.1" font-family="Times New Roman,serif" font-size="8.00">ResponseCardinalityType</text>
<polyline fill="none" stroke="black" points="384.303,-351 384.303,-387 "/>
<text text-anchor="middle" x="393.803" y="-367.1" font-family="Times New Roman,serif" font-size="8.00"> </text>
</g>
<!-- QuestionBlock -->
<g id="ItemTypeQuestionBlock" class="node"><title></title><ellipse fill="#f7b733" stroke="black" cx="85.6514" cy="-720" rx="38.6432" ry="18" style="filter: url(#dropshadow)"/>
<text text-anchor="middle" x="85.6514" y="-718.1" font-family="Times New Roman,serif" font-size="8.00">QuestionBlock</text>
</g>
<!-- QuestionBlock&#45;&gt;ResponseCardinalityType -->
<g id="edge1" class="edge"><title>QuestionBlock&#45;&gt;ResponseCardinalityType</title>
<path fill="none" stroke="black" d="M123.372,-715.795C163.133,-709.238 225.518,-692.759 260.303,-652 328.88,-571.645 338.534,-436.207 339.717,-387.303"/>
<text text-anchor="middle" x="224.803" y="-700.6" font-family="Times New Roman,serif" font-size="8.00">ResponseCardinality</text>
</g>
<!-- QuestionItem -->
<g id="ItemTypeQuestionItem" class="node"><title></title><ellipse fill="#f7b733" stroke="black" cx="85.6514" cy="-666" rx="36.1063" ry="18" style="filter: url(#dropshadow)"/>
<text text-anchor="middle" x="85.6514" y="-664.1" font-family="Times New Roman,serif" font-size="8.00">QuestionItem</text>
</g>
<!-- QuestionItem&#45;&gt;ResponseCardinalityType -->
<g id="edge2" class="edge"><title>QuestionItem&#45;&gt;ResponseCardinalityType</title>
<path fill="none" stroke="black" d="M120.89,-661.184C160.195,-653.842 223.911,-636.08 260.303,-595 315.739,-532.421 333.133,-428.788 338.047,-387.147"/>
<text text-anchor="middle" x="224.803" y="-641.6" font-family="Times New Roman,serif" font-size="8.00">ResponseCardinality</text>
</g>
<!-- CategoryDomainType -->
<g id="ReusableTypeCategoryDomainType" class="node"><title></title><ellipse fill="#f7b733" stroke="black" cx="85.6514" cy="-612" rx="53.7736" ry="18" style="filter: url(#dropshadow)"/>
<text text-anchor="middle" x="85.6514" y="-610.1" font-family="Times New Roman,serif" font-size="8.00">CategoryDomainType</text>
</g>
<!-- CategoryDomainType&#45;&gt;ResponseCardinalityType -->
<g id="edge3" class="edge"><title>CategoryDomainType&#45;&gt;ResponseCardinalityType</title>
<path fill="none" stroke="black" d="M132.334,-602.853C171.17,-592.863 225.948,-573.212 260.303,-537 302.832,-492.172 326.22,-420.402 335.305,-387.083"/>
<text text-anchor="middle" x="224.803" y="-584.6" font-family="Times New Roman,serif" font-size="8.00">ResponseCardinality</text>
</g>
<!-- CodeDomainType -->
<g id="ReusableTypeCodeDomainType" class="node"><title></title><ellipse fill="#f7b733" stroke="black" cx="85.6514" cy="-558" rx="45.2568" ry="18" style="filter: url(#dropshadow)"/>
<text text-anchor="middle" x="85.6514" y="-556.1" font-family="Times New Roman,serif" font-size="8.00">CodeDomainType</text>
</g>
<!-- CodeDomainType&#45;&gt;ResponseCardinalityType -->
<g id="edge4" class="edge"><title>CodeDomainType&#45;&gt;ResponseCardinalityType</title>
<path fill="none" stroke="black" d="M124.692,-548.629C162.688,-537.681 220.955,-516.404 260.303,-481 291.323,-453.089 317.083,-411 330.279,-387.16"/>
<text text-anchor="middle" x="224.803" y="-526.6" font-family="Times New Roman,serif" font-size="8.00">ResponseCardinality</text>
</g>
<!-- DateTimeDomainType -->
<g id="ReusableTypeDateTimeDomainType" class="node"><title></title><ellipse fill="#f7b733" stroke="black" cx="85.6514" cy="-504" rx="55.6769" ry="18" style="filter: url(#dropshadow)"/>
<text text-anchor="middle" x="85.6514" y="-502.1" font-family="Times New Roman,serif" font-size="8.00">DateTimeDomainType</text>
</g>
<!-- DateTimeDomainType&#45;&gt;ResponseCardinalityType -->
<g id="edge5" class="edge"><title>DateTimeDomainType&#45;&gt;ResponseCardinalityType</title>
<path fill="none" stroke="black" d="M128.056,-492.321C141.979,-487.993 157.48,-482.729 171.303,-477 212.437,-459.952 222.809,-455.016 260.303,-431 281.085,-417.689 303.091,-400.232 318.669,-387.235"/>
<text text-anchor="middle" x="224.803" y="-470.6" font-family="Times New Roman,serif" font-size="8.00">ResponseCardinality</text>
</g>
<!-- DistributionDomainType -->
<g id="ReusableTypeDistributionDomainType" class="node"><title></title><ellipse fill="#f7b733" stroke="black" cx="85.6514" cy="-450" rx="58.9835" ry="18" style="filter: url(#dropshadow)"/>
<text text-anchor="middle" x="85.6514" y="-448.1" font-family="Times New Roman,serif" font-size="8.00">DistributionDomainType</text>
</g>
<!-- DistributionDomainType&#45;&gt;ResponseCardinalityType -->
<g id="edge6" class="edge"><title>DistributionDomainType&#45;&gt;ResponseCardinalityType</title>
<path fill="none" stroke="black" d="M128.917,-437.646C164.178,-427.209 215.683,-411.659 260.303,-397 269.756,-393.894 279.797,-390.463 289.446,-387.098"/>
<text text-anchor="middle" x="224.803" y="-420.6" font-family="Times New Roman,serif" font-size="8.00">ResponseCardinality</text>
</g>
<!-- GeographicLocationCodeDomainType -->
<g id="ReusableTypeGeographicLocationCodeDomainType" class="node"><title></title><ellipse fill="#f7b733" stroke="black" cx="85.6514" cy="-396" rx="85.8032" ry="18" style="filter: url(#dropshadow)"/>
<text text-anchor="middle" x="85.6514" y="-394.1" font-family="Times New Roman,serif" font-size="8.00">GeographicLocationCodeDomainType</text>
</g>
<!-- GeographicLocationCodeDomainType&#45;&gt;ResponseCardinalityType -->
<g id="edge7" class="edge"><title>GeographicLocationCodeDomainType&#45;&gt;ResponseCardinalityType</title>
<path fill="none" stroke="black" d="M162.262,-387.936C199.269,-383.989 243.252,-379.298 278.182,-375.572"/>
<text text-anchor="middle" x="224.803" y="-386.6" font-family="Times New Roman,serif" font-size="8.00">ResponseCardinality</text>
</g>
<!-- GeographicStructureCodeDomainType -->
<g id="ReusableTypeGeographicStructureCodeDomainType" class="node"><title></title><ellipse fill="#f7b733" stroke="black" cx="85.6514" cy="-342" rx="85.1685" ry="18" style="filter: url(#dropshadow)"/>
<text text-anchor="middle" x="85.6514" y="-340.1" font-family="Times New Roman,serif" font-size="8.00">GeographicStructureCodeDomainType</text>
</g>
<!-- GeographicStructureCodeDomainType&#45;&gt;ResponseCardinalityType -->
<g id="edge8" class="edge"><title>GeographicStructureCodeDomainType&#45;&gt;ResponseCardinalityType</title>
<path fill="none" stroke="black" d="M161.92,-350.028C198.939,-353.976 243.007,-358.676 278.019,-362.41"/>
<text text-anchor="middle" x="224.803" y="-362.6" font-family="Times New Roman,serif" font-size="8.00">ResponseCardinality</text>
</g>
<!-- LocationDomainType -->
<g id="ReusableTypeLocationDomainType0" class="node"><title></title><ellipse fill="#f7b733" stroke="black" cx="85.6514" cy="-288" rx="53.7736" ry="18" style="filter: url(#dropshadow)"/>
<text text-anchor="middle" x="85.6514" y="-286.1" font-family="Times New Roman,serif" font-size="8.00">LocationDomainType</text>
</g>
<!-- LocationDomainType&#45;&gt;ResponseCardinalityType -->
<g id="edge9" class="edge"><title>LocationDomainType&#45;&gt;ResponseCardinalityType</title>
<path fill="none" stroke="black" d="M127.564,-299.515C162.889,-309.633 215.2,-325.035 260.303,-340 270.482,-343.377 281.321,-347.187 291.614,-350.907"/>
<text text-anchor="middle" x="224.803" y="-342.6" font-family="Times New Roman,serif" font-size="8.00">ResponseCardinality</text>
</g>
<!-- NominalDomainType -->
<g id="ReusableTypeNominalDomainType1" class="node"><title></title><ellipse fill="#f7b733" stroke="black" cx="85.6514" cy="-234" rx="52.5056" ry="18" style="filter: url(#dropshadow)"/>
<text text-anchor="middle" x="85.6514" y="-232.1" font-family="Times New Roman,serif" font-size="8.00">NominalDomainType</text>
</g>
<!-- NominalDomainType&#45;&gt;ResponseCardinalityType -->
<g id="edge10" class="edge"><title>NominalDomainType&#45;&gt;ResponseCardinalityType</title>
<path fill="none" stroke="black" d="M126.739,-245.35C140.986,-249.76 157.026,-255.157 171.303,-261 212.325,-277.788 222.965,-282.114 260.303,-306 281.516,-319.571 303.836,-337.638 319.408,-350.944"/>
<text text-anchor="middle" x="224.803" y="-308.6" font-family="Times New Roman,serif" font-size="8.00">ResponseCardinality</text>
</g>
<!-- NumericDomainType -->
<g id="ReusableTypeNumericDomainType2" class="node"><title></title><ellipse fill="#f7b733" stroke="black" cx="85.6514" cy="-180" rx="52.3706" ry="18" style="filter: url(#dropshadow)"/>
<text text-anchor="middle" x="85.6514" y="-178.1" font-family="Times New Roman,serif" font-size="8.00">NumericDomainType</text>
</g>
<!-- NumericDomainType&#45;&gt;ResponseCardinalityType -->
<g id="edge11" class="edge"><title>NumericDomainType&#45;&gt;ResponseCardinalityType</title>
<path fill="none" stroke="black" d="M128.671,-190.262C166.664,-201.284 222.309,-221.965 260.303,-256 291.569,-284.008 317.239,-326.529 330.353,-350.633"/>
<text text-anchor="middle" x="224.803" y="-258.6" font-family="Times New Roman,serif" font-size="8.00">ResponseCardinality</text>
</g>
<!-- RankingDomainType -->
<g id="ReusableTypeRankingDomainType3" class="node"><title></title><ellipse fill="#f7b733" stroke="black" cx="85.6514" cy="-126" rx="52.3706" ry="18" style="filter: url(#dropshadow)"/>
<text text-anchor="middle" x="85.6514" y="-124.1" font-family="Times New Roman,serif" font-size="8.00">RankingDomainType</text>
</g>
<!-- RankingDomainType&#45;&gt;ResponseCardinalityType -->
<g id="edge12" class="edge"><title>RankingDomainType&#45;&gt;ResponseCardinalityType</title>
<path fill="none" stroke="black" d="M131.906,-134.516C170.736,-144.021 225.743,-163.043 260.303,-199 303.653,-244.102 326.697,-317.176 335.509,-350.894"/>
<text text-anchor="middle" x="224.803" y="-201.6" font-family="Times New Roman,serif" font-size="8.00">ResponseCardinality</text>
</g>
<!-- ScaleDomainType -->
<g id="ReusableTypeScaleDomainType4" class="node"><title></title><ellipse fill="#f7b733" stroke="black" cx="85.6514" cy="-72" rx="45.2568" ry="18" style="filter: url(#dropshadow)"/>
<text text-anchor="middle" x="85.6514" y="-70.1" font-family="Times New Roman,serif" font-size="8.00">ScaleDomainType</text>
</g>
<!-- ScaleDomainType&#45;&gt;ResponseCardinalityType -->
<g id="edge13" class="edge"><title>ScaleDomainType&#45;&gt;ResponseCardinalityType</title>
<path fill="none" stroke="black" d="M128.814,-77.9152C168.275,-85.6541 226.128,-103.018 260.303,-141 316.802,-203.793 333.613,-308.992 338.21,-350.937"/>
<text text-anchor="middle" x="224.803" y="-143.6" font-family="Times New Roman,serif" font-size="8.00">ResponseCardinality</text>
</g>
<!-- TextDomainType -->
<g id="ReusableTypeTextDomainType5" class="node"><title></title><ellipse fill="#f7b733" stroke="black" cx="85.6514" cy="-18" rx="45.2568" ry="18" style="filter: url(#dropshadow)"/>
<text text-anchor="middle" x="85.6514" y="-16.1" font-family="Times New Roman,serif" font-size="8.00">TextDomainType</text>
</g>
<!-- TextDomainType&#45;&gt;ResponseCardinalityType -->
<g id="edge14" class="edge"><title>TextDomainType&#45;&gt;ResponseCardinalityType</title>
<path fill="none" stroke="black" d="M129.537,-22.5851C169.239,-29.1445 227.009,-44.9774 260.303,-83 330.75,-163.452 339.226,-301.382 339.909,-350.757"/>
<text text-anchor="middle" x="224.803" y="-85.6" font-family="Times New Roman,serif" font-size="8.00">ResponseCardinality</text>
</g>
</g>
</svg>
