<?xml version="1.0" encoding="UTF-8" standalone="no"?>
<!DOCTYPE svg PUBLIC "-//W3C//DTD SVG 1.1//EN"
 "http://www.w3.org/Graphics/SVG/1.1/DTD/svg11.dtd">
<!-- Generated by graphviz version 2.38.0 (20140413.2041)
 -->
<!-- Title: G Pages: 1 -->
<svg width="1306pt" height="357pt"
 viewBox="0.00 0.00 1306.23 357.00" xmlns="http://www.w3.org/2000/svg" xmlns:xlink="http://www.w3.org/1999/xlink">
<filter id = "dropshadow" height = "130%" ><feGaussianBlur in= "SourceAlpha" stdDeviation = "3"/><!--stdDeviation is how much to blur--><feOffset dx = "2" dy = "2" result = "offsetblur"/><!--how much to offset--><feMerge><feMergeNode/><!--this contains the offset blurred image--><feMergeNode in= "SourceGraphic"/><!--this contains the element that the filter is applied to --></feMerge></filter>
<g id="graph0" class="graph" transform="scale(1 1) rotate(0) translate(4 353)">
<title>G</title>
<g id="clust1" class="cluster"><title>clusterTextDomainType</title>
<polygon fill="#4abdac" stroke="black" points="287.227,-8 287.227,-341 1290.23,-341 1290.23,-8 287.227,-8" style="filter: url(#dropshadow)"/>
<text text-anchor="middle" x="788.727" y="-330.6" font-family="Times New Roman,serif" font-size="8.00">TextDomainType</text>
</g>
<!-- TextDomainTypeProperties -->
<g id="ReusableTypeTextDomainTypeProperties" class="node"><title></title><polygon fill="#f7b733" stroke="black" points="295.227,-142.5 295.227,-195.5 555.227,-195.5 555.227,-142.5 295.227,-142.5" style="filter: url(#dropshadow)"/>
<text text-anchor="middle" x="321.727" y="-167.1" font-family="Times New Roman,serif" font-size="8.00">Properties</text>
<polyline fill="none" stroke="black" points="348.227,-142.5 348.227,-195.5 "/>
<text text-anchor="start" x="356.227" y="-185.1" font-family="Times New Roman,serif" font-size="8.00">Label : LabelType[0...n] </text>
<text text-anchor="start" x="356.227" y="-176.1" font-family="Times New Roman,serif" font-size="8.00">Description : StructuredStringType[0...1] </text>
<text text-anchor="start" x="356.227" y="-167.1" font-family="Times New Roman,serif" font-size="8.00">OutParameter : ParameterType[0...1] </text>
<text text-anchor="start" x="356.227" y="-158.1" font-family="Times New Roman,serif" font-size="8.00">ResponseCardinality : ResponseCardinalityType[0...1] </text>
<text text-anchor="start" x="356.227" y="-149.1" font-family="Times New Roman,serif" font-size="8.00">ContentDateOffset : ContentDateOffsetType[0...1] </text>
</g>
<!-- TextDomainTypeLabelType -->
<g id="ReusableTypeTextDomainTypeLabelType" class="node"><title></title><polygon fill="#fc4a1a" stroke="black" points="725.727,-16.5 725.727,-69.5 928.727,-69.5 928.727,-16.5 725.727,-16.5" style="filter: url(#dropshadow)"/>
<text text-anchor="middle" x="752.727" y="-41.1" font-family="Times New Roman,serif" font-size="8.00">LabelType</text>
<polyline fill="none" stroke="black" points="779.727,-16.5 779.727,-69.5 "/>
<text text-anchor="start" x="787.727" y="-59.1" font-family="Times New Roman,serif" font-size="8.00">TypeOfLabel : CodeValueType[0...1] </text>
<text text-anchor="start" x="787.727" y="-50.1" font-family="Times New Roman,serif" font-size="8.00">LocationVariant : string[0...1] </text>
<text text-anchor="start" x="787.727" y="-41.1" font-family="Times New Roman,serif" font-size="8.00">ValidForStartDate : cogsDate[0...1] </text>
<text text-anchor="start" x="787.727" y="-32.1" font-family="Times New Roman,serif" font-size="8.00">ValidForEndDate : cogsDate[0...1] </text>
<text text-anchor="start" x="787.727" y="-23.1" font-family="Times New Roman,serif" font-size="8.00">MaxLength : int[0...1] </text>
</g>
<!-- TextDomainTypeProperties&#45;&gt;TextDomainTypeLabelType -->
<g id="edge1" class="edge"><title>TextDomainTypeProperties&#45;&gt;TextDomainTypeLabelType</title>
<path fill="none" stroke="black" d="M468.786,-142.458C497.36,-125.721 536.384,-104.905 573.227,-92 622.102,-74.8808 678.503,-63.225 725.631,-55.5919"/>
<text text-anchor="middle" x="608.727" y="-94.6" font-family="Times New Roman,serif" font-size="8.00">Label</text>
</g>
<!-- TextDomainTypeStructuredStringType -->
<g id="ReusableTypeTextDomainTypeStructuredStringType" class="node"><title></title><polygon fill="#fc4a1a" stroke="black" points="1069.23,-100 1069.23,-136 1282.23,-136 1282.23,-100 1069.23,-100" style="filter: url(#dropshadow)"/>
<text text-anchor="middle" x="1114.23" y="-116.1" font-family="Times New Roman,serif" font-size="8.00">StructuredStringType</text>
<polyline fill="none" stroke="black" points="1159.23,-100 1159.23,-136 "/>
<text text-anchor="start" x="1167.23" y="-116.1" font-family="Times New Roman,serif" font-size="8.00">Content : ContentType[0...n] </text>
</g>
<!-- TextDomainTypeProperties&#45;&gt;TextDomainTypeStructuredStringType -->
<g id="edge2" class="edge"><title>TextDomainTypeProperties&#45;&gt;TextDomainTypeStructuredStringType</title>
<path fill="none" stroke="black" d="M519.845,-142.48C562.835,-131.625 614.719,-120.366 662.227,-115 807.967,-98.5391 845.566,-113.795 992.227,-115 1017.1,-115.204 1043.88,-115.566 1069.06,-115.968"/>
<text text-anchor="middle" x="827.227" y="-117.6" font-family="Times New Roman,serif" font-size="8.00">Description</text>
</g>
<!-- TextDomainTypeParameterType -->
<g id="ReusableTypeTextDomainTypeParameterType" class="node"><title></title><polygon fill="#fc4a1a" stroke="black" points="662.227,-133.5 662.227,-204.5 992.227,-204.5 992.227,-133.5 662.227,-133.5" style="filter: url(#dropshadow)"/>
<text text-anchor="middle" x="697.727" y="-167.1" font-family="Times New Roman,serif" font-size="8.00">ParameterType</text>
<polyline fill="none" stroke="black" points="733.227,-133.5 733.227,-204.5 "/>
<text text-anchor="start" x="741.227" y="-194.1" font-family="Times New Roman,serif" font-size="8.00">ParameterName : NameType[0...n] </text>
<text text-anchor="start" x="741.227" y="-185.1" font-family="Times New Roman,serif" font-size="8.00">Alias : string[0...1] </text>
<text text-anchor="start" x="741.227" y="-176.1" font-family="Times New Roman,serif" font-size="8.00">Description : StructuredStringType[0...1] </text>
<text text-anchor="start" x="741.227" y="-167.1" font-family="Times New Roman,serif" font-size="8.00">ValueRepresentation : RepresentationType[0...1] </text>
<text text-anchor="start" x="741.227" y="-158.1" font-family="Times New Roman,serif" font-size="8.00">ValueRepresentationReference : RepresentationReferenceType[0...1] </text>
<text text-anchor="start" x="741.227" y="-149.1" font-family="Times New Roman,serif" font-size="8.00">DefaultValue : ValueType[0...1] </text>
<text text-anchor="start" x="741.227" y="-140.1" font-family="Times New Roman,serif" font-size="8.00">IsArray : boolean[0...1] </text>
</g>
<!-- TextDomainTypeProperties&#45;&gt;TextDomainTypeParameterType -->
<g id="edge3" class="edge"><title>TextDomainTypeProperties&#45;&gt;TextDomainTypeParameterType</title>
<path fill="none" stroke="black" d="M555.267,-169C589.287,-169 626.454,-169 662.055,-169"/>
<text text-anchor="middle" x="608.727" y="-171.6" font-family="Times New Roman,serif" font-size="8.00">OutParameter</text>
</g>
<!-- TextDomainTypeResponseCardinalityType -->
<g id="ReusableTypeTextDomainTypeResponseCardinalityType" class="node"><title></title><polygon fill="#fc4a1a" stroke="black" points="764.727,-224 764.727,-260 889.727,-260 889.727,-224 764.727,-224" style="filter: url(#dropshadow)"/>
<text text-anchor="middle" x="817.727" y="-240.1" font-family="Times New Roman,serif" font-size="8.00">ResponseCardinalityType</text>
<polyline fill="none" stroke="black" points="870.727,-224 870.727,-260 "/>
<text text-anchor="middle" x="880.227" y="-240.1" font-family="Times New Roman,serif" font-size="8.00"> </text>
</g>
<!-- TextDomainTypeProperties&#45;&gt;TextDomainTypeResponseCardinalityType -->
<g id="edge4" class="edge"><title>TextDomainTypeProperties&#45;&gt;TextDomainTypeResponseCardinalityType</title>
<path fill="none" stroke="black" d="M555.366,-194.09C590.044,-200.701 627.544,-207.733 662.227,-214 696.052,-220.112 733.867,-226.592 764.654,-231.777"/>
<text text-anchor="middle" x="608.727" y="-212.6" font-family="Times New Roman,serif" font-size="8.00">ResponseCardinality</text>
</g>
<!-- TextDomainTypeContentDateOffsetType -->
<g id="ReusableTypeTextDomainTypeContentDateOffsetType" class="node"><title></title><polygon fill="#fc4a1a" stroke="black" points="709.727,-279 709.727,-315 944.727,-315 944.727,-279 709.727,-279" style="filter: url(#dropshadow)"/>
<text text-anchor="middle" x="760.727" y="-295.1" font-family="Times New Roman,serif" font-size="8.00">ContentDateOffsetType</text>
<polyline fill="none" stroke="black" points="811.727,-279 811.727,-315 "/>
<text text-anchor="start" x="819.727" y="-299.6" font-family="Times New Roman,serif" font-size="8.00">NumberOfUnits : decimal[0...1] </text>
<text text-anchor="start" x="819.727" y="-290.6" font-family="Times New Roman,serif" font-size="8.00">IsNegativeOffset : boolean[0...1] </text>
</g>
<!-- TextDomainTypeProperties&#45;&gt;TextDomainTypeContentDateOffsetType -->
<g id="edge5" class="edge"><title>TextDomainTypeProperties&#45;&gt;TextDomainTypeContentDateOffsetType</title>
<path fill="none" stroke="black" d="M478.306,-195.622C525.255,-218.561 596.767,-250.909 662.227,-270 677.325,-274.403 693.427,-278.155 709.421,-281.334"/>
<text text-anchor="middle" x="608.727" y="-265.6" font-family="Times New Roman,serif" font-size="8.00">ContentDateOffset</text>
</g>
<!-- TextDomainTypeParameterType&#45;&gt;TextDomainTypeStructuredStringType -->
<g id="edge6" class="edge"><title>TextDomainTypeParameterType&#45;&gt;TextDomainTypeStructuredStringType</title>
<path fill="none" stroke="black" d="M992.345,-144.844C1018.41,-141.008 1044.75,-137.131 1069,-133.562"/>
<text text-anchor="middle" x="1030.73" y="-143.6" font-family="Times New Roman,serif" font-size="8.00">Description</text>
</g>
<!-- GeographicRepresentationBaseType -->
<g id="ReusableTypeGeographicRepresentationBaseType" class="node"><title></title><ellipse fill="#f7b733" stroke="black" cx="81.1136" cy="-169" rx="81.2274" ry="18" style="filter: url(#dropshadow)"/>
<text text-anchor="middle" x="81.1136" y="-167.1" font-family="Times New Roman,serif" font-size="8.00">GeographicRepresentationBaseType</text>
</g>
<!-- GeographicRepresentationBaseType&#45;&gt;TextDomainTypeProperties -->
<g id="edge7" class="edge"><title>GeographicRepresentationBaseType&#45;&gt;TextDomainTypeProperties</title>
<path fill="none" stroke="black" d="M153.586,-177.138C162.545,-177.906 171.592,-178.561 180.227,-179 215.014,-180.768 252.603,-180.372 287.613,-179.017"/>
<text text-anchor="middle" x="228.727" y="-182.6" font-family="Times New Roman,serif" font-size="8.00">AlternateOffset</text>
</g>
<!-- GeographicRepresentationBaseType&#45;&gt;TextDomainTypeProperties -->
<g id="edge8" class="edge"><title>GeographicRepresentationBaseType&#45;&gt;TextDomainTypeProperties</title>
<path fill="none" stroke="black" d="M162.324,-169C199.663,-169 245.138,-169 287.649,-169"/>
<text text-anchor="middle" x="228.727" y="-171.6" font-family="Times New Roman,serif" font-size="8.00">AlternateObject</text>
</g>
<!-- GeographicRepresentationBaseType&#45;&gt;TextDomainTypeProperties -->
<g id="edge9" class="edge"><title>GeographicRepresentationBaseType&#45;&gt;TextDomainTypeProperties</title>
<path fill="none" stroke="black" d="M148.759,-158.97C159.266,-157.735 170.026,-156.673 180.227,-156 215.003,-153.706 252.588,-154.223 287.598,-155.984"/>
<text text-anchor="middle" x="228.727" y="-158.6" font-family="Times New Roman,serif" font-size="8.00">AlternateCoordinateSystem</text>
</g>
</g>
</svg>
