<?xml version="1.0" encoding="UTF-8" standalone="no"?>
<!DOCTYPE svg PUBLIC "-//W3C//DTD SVG 1.1//EN"
 "http://www.w3.org/Graphics/SVG/1.1/DTD/svg11.dtd">
<!-- Generated by graphviz version 2.38.0 (20140413.2041)
 -->
<!-- Title: G Pages: 1 -->
<svg width="1266pt" height="1718pt"
 viewBox="0.00 0.00 1266.27 1718.00" xmlns="http://www.w3.org/2000/svg" xmlns:xlink="http://www.w3.org/1999/xlink">
<filter id = "dropshadow" height = "130%" ><feGaussianBlur in= "SourceAlpha" stdDeviation = "3"/><!--stdDeviation is how much to blur--><feOffset dx = "2" dy = "2" result = "offsetblur"/><!--how much to offset--><feMerge><feMergeNode/><!--this contains the offset blurred image--><feMergeNode in= "SourceGraphic"/><!--this contains the element that the filter is applied to --></feMerge></filter>
<g id="graph0" class="graph" transform="scale(1 1) rotate(0) translate(4 1714)">
<title>G</title>
<g id="clust1" class="cluster"><title>clusterUniverse</title>
<polygon fill="#4abdac" stroke="black" points="262.269,-784 262.269,-1036 1250.27,-1036 1250.27,-784 262.269,-784" style="filter: url(#dropshadow)"/>
<text text-anchor="middle" x="756.269" y="-1025.6" font-family="Times New Roman,serif" font-size="8.00">Universe</text>
</g>
<!-- UniverseProperties -->
<g id="ItemTypeUniverseProperties" class="node"><title></title><polygon fill="#f7b733" stroke="black" points="270.269,-792.5 270.269,-863.5 528.269,-863.5 528.269,-792.5 270.269,-792.5" style="filter: url(#dropshadow)"/>
<text text-anchor="middle" x="296.769" y="-826.1" font-family="Times New Roman,serif" font-size="8.00">Properties</text>
<polyline fill="none" stroke="black" points="323.269,-792.5 323.269,-863.5 "/>
<text text-anchor="start" x="331.269" y="-853.1" font-family="Times New Roman,serif" font-size="8.00">UniverseName : NameType[0...n] </text>
<text text-anchor="start" x="331.269" y="-844.1" font-family="Times New Roman,serif" font-size="8.00">Label : LabelType[0...n] </text>
<text text-anchor="start" x="331.269" y="-835.1" font-family="Times New Roman,serif" font-size="8.00">Description : StructuredStringType[0...1] </text>
<text text-anchor="start" x="331.269" y="-826.1" font-family="Times New Roman,serif" font-size="8.00">DefiningConceptReference : Concept[0...1] </text>
<text text-anchor="start" x="331.269" y="-817.1" font-family="Times New Roman,serif" font-size="8.00">UniverseGenerationCode : CommandCodeType[0...n] </text>
<text text-anchor="start" x="331.269" y="-808.1" font-family="Times New Roman,serif" font-size="8.00">SubUniverseClassReference : SubUniverseClass[0...n] </text>
<text text-anchor="start" x="331.269" y="-799.1" font-family="Times New Roman,serif" font-size="8.00">IsInclusive : boolean[0...1] </text>
</g>
<!-- UniverseNameType -->
<g id="ReusableTypeUniverseNameType" class="node"><title></title><polygon fill="#fc4a1a" stroke="black" points="720.769,-793 720.769,-829 889.769,-829 889.769,-793 720.769,-793" style="filter: url(#dropshadow)"/>
<text text-anchor="middle" x="748.769" y="-809.1" font-family="Times New Roman,serif" font-size="8.00">NameType</text>
<polyline fill="none" stroke="black" points="776.769,-793 776.769,-829 "/>
<text text-anchor="start" x="784.769" y="-813.6" font-family="Times New Roman,serif" font-size="8.00">IsPreferred : boolean[0...1] </text>
<text text-anchor="start" x="784.769" y="-804.6" font-family="Times New Roman,serif" font-size="8.00">Context : string[0...1] </text>
</g>
<!-- UniverseProperties&#45;&gt;UniverseNameType -->
<g id="edge1" class="edge"><title>UniverseProperties&#45;&gt;UniverseNameType</title>
<path fill="none" stroke="black" d="M528.375,-822.609C591.237,-819.964 665.173,-816.853 720.675,-814.518"/>
<text text-anchor="middle" x="593.269" y="-824.6" font-family="Times New Roman,serif" font-size="8.00">UniverseName</text>
</g>
<!-- UniverseLabelType -->
<g id="ReusableTypeUniverseLabelType" class="node"><title></title><polygon fill="#fc4a1a" stroke="black" points="703.769,-848.5 703.769,-901.5 906.769,-901.5 906.769,-848.5 703.769,-848.5" style="filter: url(#dropshadow)"/>
<text text-anchor="middle" x="730.769" y="-873.1" font-family="Times New Roman,serif" font-size="8.00">LabelType</text>
<polyline fill="none" stroke="black" points="757.769,-848.5 757.769,-901.5 "/>
<text text-anchor="start" x="765.769" y="-891.1" font-family="Times New Roman,serif" font-size="8.00">TypeOfLabel : CodeValueType[0...1] </text>
<text text-anchor="start" x="765.769" y="-882.1" font-family="Times New Roman,serif" font-size="8.00">LocationVariant : string[0...1] </text>
<text text-anchor="start" x="765.769" y="-873.1" font-family="Times New Roman,serif" font-size="8.00">ValidForStartDate : cogsDate[0...1] </text>
<text text-anchor="start" x="765.769" y="-864.1" font-family="Times New Roman,serif" font-size="8.00">ValidForEndDate : cogsDate[0...1] </text>
<text text-anchor="start" x="765.769" y="-855.1" font-family="Times New Roman,serif" font-size="8.00">MaxLength : int[0...1] </text>
</g>
<!-- UniverseProperties&#45;&gt;UniverseLabelType -->
<g id="edge2" class="edge"><title>UniverseProperties&#45;&gt;UniverseLabelType</title>
<path fill="none" stroke="black" d="M528.375,-842.903C584.997,-849.491 650.603,-857.123 703.631,-863.292"/>
<text text-anchor="middle" x="593.269" y="-858.6" font-family="Times New Roman,serif" font-size="8.00">Label</text>
</g>
<!-- UniverseStructuredStringType -->
<g id="ReusableTypeUniverseStructuredStringType" class="node"><title></title><polygon fill="#fc4a1a" stroke="black" points="1029.27,-932 1029.27,-968 1242.27,-968 1242.27,-932 1029.27,-932" style="filter: url(#dropshadow)"/>
<text text-anchor="middle" x="1074.27" y="-948.1" font-family="Times New Roman,serif" font-size="8.00">StructuredStringType</text>
<polyline fill="none" stroke="black" points="1119.27,-932 1119.27,-968 "/>
<text text-anchor="start" x="1127.27" y="-948.1" font-family="Times New Roman,serif" font-size="8.00">Content : ContentType[0...n] </text>
</g>
<!-- UniverseProperties&#45;&gt;UniverseStructuredStringType -->
<g id="edge3" class="edge"><title>UniverseProperties&#45;&gt;UniverseStructuredStringType</title>
<path fill="none" stroke="black" d="M492.956,-863.523C541.488,-880.657 602.316,-899.864 658.269,-911 784.245,-936.072 932.036,-945.083 1029.24,-948.29"/>
<text text-anchor="middle" x="805.269" y="-947.6" font-family="Times New Roman,serif" font-size="8.00">Description</text>
</g>
<!-- Concept -->
<g id="ItemTypeConcept" class="node"><title></title><ellipse fill="#f7b733" stroke="black" cx="805.269" cy="-756" rx="27" ry="18" style="filter: url(#dropshadow)"/>
<text text-anchor="middle" x="805.269" y="-754.1" font-family="Times New Roman,serif" font-size="8.00">Concept</text>
</g>
<!-- UniverseProperties&#45;&gt;Concept -->
<g id="edge4" class="edge"><title>UniverseProperties&#45;&gt;Concept</title>
<path fill="none" stroke="black" d="M528.451,-803.603C569.85,-795.87 615.973,-787.41 658.269,-780 700.524,-772.597 749.78,-764.64 778.921,-760.001"/>
<text text-anchor="middle" x="593.269" y="-802.6" font-family="Times New Roman,serif" font-size="8.00">DefiningConceptReference</text>
<text text-anchor="middle" x="770.921" y="-753.601" font-family="Times New Roman,serif" font-size="8.00">0...*</text>
<text text-anchor="middle" x="536.451" y="-797.203" font-family="Times New Roman,serif" font-size="8.00">0...*</text>
</g>
<!-- UniverseCommandCodeType -->
<g id="ReusableTypeUniverseCommandCodeType" class="node"><title></title><polygon fill="#fc4a1a" stroke="black" points="658.269,-966 658.269,-1010 952.269,-1010 952.269,-966 658.269,-966" style="filter: url(#dropshadow)"/>
<text text-anchor="middle" x="702.269" y="-986.1" font-family="Times New Roman,serif" font-size="8.00">CommandCodeType</text>
<polyline fill="none" stroke="black" points="746.269,-966 746.269,-1010 "/>
<text text-anchor="start" x="754.269" y="-999.6" font-family="Times New Roman,serif" font-size="8.00">Description : StructuredStringType[0...1] </text>
<text text-anchor="start" x="754.269" y="-990.6" font-family="Times New Roman,serif" font-size="8.00">Command : CommandType[0...n] </text>
<text text-anchor="start" x="754.269" y="-981.6" font-family="Times New Roman,serif" font-size="8.00">CommandFile : CommandFileType[0...n] </text>
<text text-anchor="start" x="754.269" y="-972.6" font-family="Times New Roman,serif" font-size="8.00">StructuredCommand : StructuredCommandType[0...1] </text>
</g>
<!-- UniverseProperties&#45;&gt;UniverseCommandCodeType -->
<g id="edge5" class="edge"><title>UniverseProperties&#45;&gt;UniverseCommandCodeType</title>
<path fill="none" stroke="black" d="M435.003,-863.626C462.667,-889.802 503.696,-923.991 546.269,-943 581.04,-958.525 620.673,-968.708 658.266,-975.383"/>
<text text-anchor="middle" x="593.269" y="-973.6" font-family="Times New Roman,serif" font-size="8.00">UniverseGenerationCode</text>
<text text-anchor="middle" x="650.266" y="-968.983" font-family="Times New Roman,serif" font-size="8.00">0...*</text>
<text text-anchor="middle" x="427.003" y="-866.226" font-family="Times New Roman,serif" font-size="8.00">0...*</text>
</g>
<!-- SubUniverseClass -->
<g id="ItemTypeSubUniverseClass" class="node"><title></title><ellipse fill="#f7b733" stroke="black" cx="805.269" cy="-702" rx="43.219" ry="18" style="filter: url(#dropshadow)"/>
<text text-anchor="middle" x="805.269" y="-700.1" font-family="Times New Roman,serif" font-size="8.00">SubUniverseClass</text>
</g>
<!-- UniverseProperties&#45;&gt;SubUniverseClass -->
<g id="edge6" class="edge"><title>UniverseProperties&#45;&gt;SubUniverseClass</title>
<path fill="none" stroke="black" d="M481.133,-792.385C531.319,-771.44 597.596,-745.845 658.269,-729 693.538,-719.208 734.602,-711.972 764.18,-707.469"/>
<text text-anchor="middle" x="593.269" y="-767.6" font-family="Times New Roman,serif" font-size="8.00">SubUniverseClassReference</text>
<text text-anchor="middle" x="756.18" y="-701.069" font-family="Times New Roman,serif" font-size="8.00">0...*</text>
<text text-anchor="middle" x="473.133" y="-785.985" font-family="Times New Roman,serif" font-size="8.00">0...*</text>
</g>
<!-- UniverseCommandCodeType&#45;&gt;UniverseStructuredStringType -->
<g id="edge7" class="edge"><title>UniverseCommandCodeType&#45;&gt;UniverseStructuredStringType</title>
<path fill="none" stroke="black" d="M952.746,-971.056C978.41,-968.087 1004.66,-965.051 1028.95,-962.241"/>
<text text-anchor="middle" x="990.769" y="-971.6" font-family="Times New Roman,serif" font-size="8.00">Description</text>
<text text-anchor="middle" x="1020.95" y="-955.841" font-family="Times New Roman,serif" font-size="8.00">0...*</text>
<text text-anchor="middle" x="960.746" y="-964.656" font-family="Times New Roman,serif" font-size="8.00">0...*</text>
</g>
<!-- SubUniverseClass&#45;&gt;UniverseProperties -->
<g id="edge35" class="edge"><title>SubUniverseClass&#45;&gt;UniverseProperties</title>
<path fill="none" stroke="black" d="M762.598,-698.683C710.344,-696.015 618.817,-696.325 546.269,-723 509.601,-736.483 473.897,-761.872 446.975,-784.306"/>
<text text-anchor="middle" x="593.269" y="-725.6" font-family="Times New Roman,serif" font-size="8.00">UniverseReference</text>
<text text-anchor="middle" x="438.975" y="-777.906" font-family="Times New Roman,serif" font-size="8.00">0...*</text>
<text text-anchor="middle" x="754.598" y="-692.283" font-family="Times New Roman,serif" font-size="8.00">0...*</text>
</g>
<!-- CategoryGroup -->
<g id="ItemTypeCategoryGroup" class="node"><title></title><ellipse fill="#f7b733" stroke="black" cx="68.6346" cy="-1692" rx="39.278" ry="18" style="filter: url(#dropshadow)"/>
<text text-anchor="middle" x="68.6346" y="-1690.1" font-family="Times New Roman,serif" font-size="8.00">CategoryGroup</text>
</g>
<!-- CategoryGroup&#45;&gt;UniverseProperties -->
<g id="edge8" class="edge"><title>CategoryGroup&#45;&gt;UniverseProperties</title>
<path fill="none" stroke="black" d="M107.662,-1694.82C149.27,-1695.66 214.998,-1690 252.269,-1651 334.673,-1564.78 371.449,-1249.97 387.217,-1035.67"/>
<text text-anchor="middle" x="203.769" y="-1695.6" font-family="Times New Roman,serif" font-size="8.00">UniverseReference</text>
<text text-anchor="middle" x="395.217" y="-1029.27" font-family="Times New Roman,serif" font-size="8.00">0...*</text>
<text text-anchor="middle" x="115.662" y="-1688.42" font-family="Times New Roman,serif" font-size="8.00">0...*</text>
</g>
<!-- CodeListGroup -->
<g id="ItemTypeCodeListGroup" class="node"><title></title><ellipse fill="#f7b733" stroke="black" cx="68.6346" cy="-1638" rx="38.6432" ry="18" style="filter: url(#dropshadow)"/>
<text text-anchor="middle" x="68.6346" y="-1636.1" font-family="Times New Roman,serif" font-size="8.00">CodeListGroup</text>
</g>
<!-- CodeListGroup&#45;&gt;UniverseProperties -->
<g id="edge9" class="edge"><title>CodeListGroup&#45;&gt;UniverseProperties</title>
<path fill="none" stroke="black" d="M106.827,-1640.72C148.313,-1641.57 214.537,-1636.01 252.269,-1597 328.166,-1518.54 366.303,-1235.69 384.183,-1035.89"/>
<text text-anchor="middle" x="203.769" y="-1640.6" font-family="Times New Roman,serif" font-size="8.00">UniverseReference</text>
<text text-anchor="middle" x="392.183" y="-1038.49" font-family="Times New Roman,serif" font-size="8.00">0...*</text>
<text text-anchor="middle" x="114.827" y="-1634.32" font-family="Times New Roman,serif" font-size="8.00">0...*</text>
</g>
<!-- ConceptGroup -->
<g id="ItemTypeConceptGroup0" class="node"><title></title><ellipse fill="#f7b733" stroke="black" cx="68.6346" cy="-1584" rx="38.0086" ry="18" style="filter: url(#dropshadow)"/>
<text text-anchor="middle" x="68.6346" y="-1582.1" font-family="Times New Roman,serif" font-size="8.00">ConceptGroup</text>
</g>
<!-- ConceptGroup&#45;&gt;UniverseProperties -->
<g id="edge10" class="edge"><title>ConceptGroup&#45;&gt;UniverseProperties</title>
<path fill="none" stroke="black" d="M106.359,-1586.62C147.73,-1587.42 214.155,-1581.86 252.269,-1543 321.708,-1472.2 360.818,-1220.62 380.725,-1035.83"/>
<text text-anchor="middle" x="203.769" y="-1586.6" font-family="Times New Roman,serif" font-size="8.00">GroupingUniverseReference</text>
<text text-anchor="middle" x="372.725" y="-1029.43" font-family="Times New Roman,serif" font-size="8.00">0...*</text>
<text text-anchor="middle" x="114.359" y="-1580.22" font-family="Times New Roman,serif" font-size="8.00">0...*</text>
</g>
<!-- ConceptualVariable -->
<g id="ItemTypeConceptualVariable1" class="node"><title></title><ellipse fill="#f7b733" stroke="black" cx="68.6346" cy="-1530" rx="47.16" ry="18" style="filter: url(#dropshadow)"/>
<text text-anchor="middle" x="68.6346" y="-1528.1" font-family="Times New Roman,serif" font-size="8.00">ConceptualVariable</text>
</g>
<!-- ConceptualVariable&#45;&gt;UniverseProperties -->
<g id="edge11" class="edge"><title>ConceptualVariable&#45;&gt;UniverseProperties</title>
<path fill="none" stroke="black" d="M115.505,-1532.27C156.913,-1531.7 216.645,-1523.92 252.269,-1488 314.991,-1424.75 354.664,-1204.44 376.57,-1035.58"/>
<text text-anchor="middle" x="203.769" y="-1532.6" font-family="Times New Roman,serif" font-size="8.00">UniverseReference</text>
<text text-anchor="middle" x="368.57" y="-1038.18" font-family="Times New Roman,serif" font-size="8.00">0...*</text>
<text text-anchor="middle" x="123.505" y="-1525.87" font-family="Times New Roman,serif" font-size="8.00">0...*</text>
</g>
<!-- ConceptualVariableGroup -->
<g id="ItemTypeConceptualVariableGroup2" class="node"><title></title><ellipse fill="#f7b733" stroke="black" cx="68.6346" cy="-1476" rx="58.9835" ry="18" style="filter: url(#dropshadow)"/>
<text text-anchor="middle" x="68.6346" y="-1474.1" font-family="Times New Roman,serif" font-size="8.00">ConceptualVariableGroup</text>
</g>
<!-- ConceptualVariableGroup&#45;&gt;UniverseProperties -->
<g id="edge12" class="edge"><title>ConceptualVariableGroup&#45;&gt;UniverseProperties</title>
<path fill="none" stroke="black" d="M127.8,-1477.35C167.975,-1475.07 219.817,-1465.27 252.269,-1433 308.264,-1377.32 347.914,-1187.98 371.629,-1035.77"/>
<text text-anchor="middle" x="203.769" y="-1477.6" font-family="Times New Roman,serif" font-size="8.00">UniverseReference</text>
<text text-anchor="middle" x="363.629" y="-1029.37" font-family="Times New Roman,serif" font-size="8.00">0...*</text>
<text text-anchor="middle" x="135.8" y="-1470.95" font-family="Times New Roman,serif" font-size="8.00">0...*</text>
</g>
<!-- ControlConstructGroup -->
<g id="ItemTypeControlConstructGroup3" class="node"><title></title><ellipse fill="#f7b733" stroke="black" cx="68.6346" cy="-1422" rx="55.6769" ry="18" style="filter: url(#dropshadow)"/>
<text text-anchor="middle" x="68.6346" y="-1420.1" font-family="Times New Roman,serif" font-size="8.00">ControlConstructGroup</text>
</g>
<!-- ControlConstructGroup&#45;&gt;UniverseProperties -->
<g id="edge13" class="edge"><title>ControlConstructGroup&#45;&gt;UniverseProperties</title>
<path fill="none" stroke="black" d="M124.21,-1422.98C164.719,-1420.71 218.563,-1410.94 252.269,-1378 301.595,-1329.8 340.544,-1170.58 365.764,-1035.78"/>
<text text-anchor="middle" x="203.769" y="-1422.6" font-family="Times New Roman,serif" font-size="8.00">UniverseReference</text>
<text text-anchor="middle" x="357.764" y="-1038.38" font-family="Times New Roman,serif" font-size="8.00">0...*</text>
<text text-anchor="middle" x="132.21" y="-1416.58" font-family="Times New Roman,serif" font-size="8.00">0...*</text>
</g>
<!-- GeographicLocationGroup -->
<g id="ItemTypeGeographicLocationGroup4" class="node"><title></title><ellipse fill="#f7b733" stroke="black" cx="68.6346" cy="-1368" rx="61.0222" ry="18" style="filter: url(#dropshadow)"/>
<text text-anchor="middle" x="68.6346" y="-1366.1" font-family="Times New Roman,serif" font-size="8.00">GeographicLocationGroup</text>
</g>
<!-- GeographicLocationGroup&#45;&gt;UniverseProperties -->
<g id="edge14" class="edge"><title>GeographicLocationGroup&#45;&gt;UniverseProperties</title>
<path fill="none" stroke="black" d="M129.958,-1367.57C169.558,-1364.1 219.839,-1353.14 252.269,-1322 329.591,-1247.76 366.514,-1134.74 383.917,-1035.53"/>
<text text-anchor="middle" x="203.769" y="-1367.6" font-family="Times New Roman,serif" font-size="8.00">UniverseReference</text>
<text text-anchor="middle" x="375.917" y="-1038.13" font-family="Times New Roman,serif" font-size="8.00">0...*</text>
<text text-anchor="middle" x="137.958" y="-1361.17" font-family="Times New Roman,serif" font-size="8.00">0...*</text>
</g>
<!-- GeographicStructureGroup -->
<g id="ItemTypeGeographicStructureGroup5" class="node"><title></title><ellipse fill="#f7b733" stroke="black" cx="68.6346" cy="-1314" rx="60.8874" ry="18" style="filter: url(#dropshadow)"/>
<text text-anchor="middle" x="68.6346" y="-1312.1" font-family="Times New Roman,serif" font-size="8.00">GeographicStructureGroup</text>
</g>
<!-- GeographicStructureGroup&#45;&gt;UniverseProperties -->
<g id="edge15" class="edge"><title>GeographicStructureGroup&#45;&gt;UniverseProperties</title>
<path fill="none" stroke="black" d="M129.232,-1312.53C168.767,-1308.47 219.259,-1296.94 252.269,-1266 316.103,-1206.17 352.045,-1117.74 372.275,-1035.97"/>
<text text-anchor="middle" x="203.769" y="-1311.6" font-family="Times New Roman,serif" font-size="8.00">UniverseReference</text>
<text text-anchor="middle" x="380.275" y="-1029.57" font-family="Times New Roman,serif" font-size="8.00">0...*</text>
<text text-anchor="middle" x="137.232" y="-1306.13" font-family="Times New Roman,serif" font-size="8.00">0...*</text>
</g>
<!-- Group -->
<g id="ItemTypeGroup6" class="node"><title></title><ellipse fill="#f7b733" stroke="black" cx="68.6346" cy="-1260" rx="27" ry="18" style="filter: url(#dropshadow)"/>
<text text-anchor="middle" x="68.6346" y="-1258.1" font-family="Times New Roman,serif" font-size="8.00">Group</text>
</g>
<!-- Group&#45;&gt;UniverseProperties -->
<g id="edge16" class="edge"><title>Group&#45;&gt;UniverseProperties</title>
<path fill="none" stroke="black" d="M95.8091,-1259.78C134.752,-1258.05 208.088,-1249.23 252.269,-1209 302.237,-1163.5 335.239,-1099.01 356.98,-1035.99"/>
<text text-anchor="middle" x="203.769" y="-1255.6" font-family="Times New Roman,serif" font-size="8.00">UniverseReference</text>
<text text-anchor="middle" x="348.98" y="-1029.59" font-family="Times New Roman,serif" font-size="8.00">0...*</text>
<text text-anchor="middle" x="103.809" y="-1253.38" font-family="Times New Roman,serif" font-size="8.00">0...*</text>
</g>
<!-- InstructionGroup -->
<g id="ItemTypeInstructionGroup7" class="node"><title></title><ellipse fill="#f7b733" stroke="black" cx="68.6346" cy="-1206" rx="43.219" ry="18" style="filter: url(#dropshadow)"/>
<text text-anchor="middle" x="68.6346" y="-1204.1" font-family="Times New Roman,serif" font-size="8.00">InstructionGroup</text>
</g>
<!-- InstructionGroup&#45;&gt;UniverseProperties -->
<g id="edge17" class="edge"><title>InstructionGroup&#45;&gt;UniverseProperties</title>
<path fill="none" stroke="black" d="M111.371,-1202.97C151.809,-1197.99 212.671,-1184.82 252.269,-1150 287.358,-1119.14 314.488,-1078.17 335.291,-1035.81"/>
<text text-anchor="middle" x="203.769" y="-1198.6" font-family="Times New Roman,serif" font-size="8.00">UniverseReference</text>
<text text-anchor="middle" x="327.291" y="-1029.41" font-family="Times New Roman,serif" font-size="8.00">0...*</text>
<text text-anchor="middle" x="119.371" y="-1196.57" font-family="Times New Roman,serif" font-size="8.00">0...*</text>
</g>
<!-- InstrumentGroup -->
<g id="ItemTypeInstrumentGroup8" class="node"><title></title><ellipse fill="#f7b733" stroke="black" cx="68.6346" cy="-1152" rx="43.219" ry="18" style="filter: url(#dropshadow)"/>
<text text-anchor="middle" x="68.6346" y="-1150.1" font-family="Times New Roman,serif" font-size="8.00">InstrumentGroup</text>
</g>
<!-- InstrumentGroup&#45;&gt;UniverseProperties -->
<g id="edge18" class="edge"><title>InstrumentGroup&#45;&gt;UniverseProperties</title>
<path fill="none" stroke="black" d="M110.444,-1147.32C150.46,-1140.88 211.265,-1125.95 252.269,-1092 271.75,-1075.87 289.076,-1056.44 304.367,-1035.51"/>
<text text-anchor="middle" x="203.769" y="-1139.6" font-family="Times New Roman,serif" font-size="8.00">UniverseReference</text>
<text text-anchor="middle" x="296.367" y="-1029.11" font-family="Times New Roman,serif" font-size="8.00">0...*</text>
<text text-anchor="middle" x="118.444" y="-1140.92" font-family="Times New Roman,serif" font-size="8.00">0...*</text>
</g>
<!-- ManagedRepresentationGroup -->
<g id="ItemTypeManagedRepresentationGroup9" class="node"><title></title><ellipse fill="#f7b733" stroke="black" cx="68.6346" cy="-1098" rx="68.7695" ry="18" style="filter: url(#dropshadow)"/>
<text text-anchor="middle" x="68.6346" y="-1096.1" font-family="Times New Roman,serif" font-size="8.00">ManagedRepresentationGroup</text>
</g>
<!-- ManagedRepresentationGroup&#45;&gt;UniverseProperties -->
<g id="edge19" class="edge"><title>ManagedRepresentationGroup&#45;&gt;UniverseProperties</title>
<path fill="none" stroke="black" d="M125.421,-1087.82C163.966,-1078.67 214.834,-1062.2 252.269,-1034 255.72,-1031.4 259.121,-1028.7 262.472,-1025.9"/>
<text text-anchor="middle" x="203.769" y="-1081.6" font-family="Times New Roman,serif" font-size="8.00">UniverseReference</text>
<text text-anchor="middle" x="254.472" y="-1019.5" font-family="Times New Roman,serif" font-size="8.00">0...*</text>
<text text-anchor="middle" x="133.421" y="-1081.42" font-family="Times New Roman,serif" font-size="8.00">0...*</text>
</g>
<!-- NCube -->
<g id="ItemTypeNCube0" class="node"><title></title><ellipse fill="#f7b733" stroke="black" cx="68.6346" cy="-1044" rx="27" ry="18" style="filter: url(#dropshadow)"/>
<text text-anchor="middle" x="68.6346" y="-1042.1" font-family="Times New Roman,serif" font-size="8.00">NCube</text>
</g>
<!-- NCube&#45;&gt;UniverseProperties -->
<g id="edge20" class="edge"><title>NCube&#45;&gt;UniverseProperties</title>
<path fill="none" stroke="black" d="M94.542,-1038.4C131.232,-1029.37 200.997,-1009.18 252.269,-976 255.789,-973.723 259.29,-971.347 262.766,-968.887"/>
<text text-anchor="middle" x="203.769" y="-1023.6" font-family="Times New Roman,serif" font-size="8.00">UniverseReference</text>
<text text-anchor="middle" x="254.766" y="-962.487" font-family="Times New Roman,serif" font-size="8.00">0...*</text>
<text text-anchor="middle" x="102.542" y="-1032" font-family="Times New Roman,serif" font-size="8.00">0...*</text>
</g>
<!-- NCubeGroup -->
<g id="ItemTypeNCubeGroup1" class="node"><title></title><ellipse fill="#f7b733" stroke="black" cx="68.6346" cy="-990" rx="34.0674" ry="18" style="filter: url(#dropshadow)"/>
<text text-anchor="middle" x="68.6346" y="-988.1" font-family="Times New Roman,serif" font-size="8.00">NCubeGroup</text>
</g>
<!-- NCubeGroup&#45;&gt;UniverseProperties -->
<g id="edge21" class="edge"><title>NCubeGroup&#45;&gt;UniverseProperties</title>
<path fill="none" stroke="black" d="M98.973,-981.731C135.797,-970.831 200.417,-949.963 252.269,-924 255.754,-922.255 259.257,-920.443 262.767,-918.576"/>
<text text-anchor="middle" x="203.769" y="-965.6" font-family="Times New Roman,serif" font-size="8.00">UniverseReference</text>
<text text-anchor="middle" x="254.767" y="-912.176" font-family="Times New Roman,serif" font-size="8.00">0...*</text>
<text text-anchor="middle" x="106.973" y="-975.331" font-family="Times New Roman,serif" font-size="8.00">0...*</text>
</g>
<!-- OrganizationGroup -->
<g id="ItemTypeOrganizationGroup2" class="node"><title></title><ellipse fill="#f7b733" stroke="black" cx="68.6346" cy="-936" rx="47.16" ry="18" style="filter: url(#dropshadow)"/>
<text text-anchor="middle" x="68.6346" y="-934.1" font-family="Times New Roman,serif" font-size="8.00">OrganizationGroup</text>
</g>
<!-- OrganizationGroup&#45;&gt;UniverseProperties -->
<g id="edge22" class="edge"><title>OrganizationGroup&#45;&gt;UniverseProperties</title>
<path fill="none" stroke="black" d="M106.903,-925.436C143.947,-914.782 202.297,-897.581 252.269,-881 255.596,-879.896 258.962,-878.768 262.354,-877.62"/>
<text text-anchor="middle" x="203.769" y="-913.6" font-family="Times New Roman,serif" font-size="8.00">UniverseReference</text>
<text text-anchor="middle" x="254.354" y="-871.22" font-family="Times New Roman,serif" font-size="8.00">0...*</text>
<text text-anchor="middle" x="114.903" y="-919.036" font-family="Times New Roman,serif" font-size="8.00">0...*</text>
</g>
<!-- PhysicalStructureGroup -->
<g id="ItemTypePhysicalStructureGroup3" class="node"><title></title><ellipse fill="#f7b733" stroke="black" cx="68.6346" cy="-882" rx="55.6769" ry="18" style="filter: url(#dropshadow)"/>
<text text-anchor="middle" x="68.6346" y="-880.1" font-family="Times New Roman,serif" font-size="8.00">PhysicalStructureGroup</text>
</g>
<!-- PhysicalStructureGroup&#45;&gt;UniverseProperties -->
<g id="edge23" class="edge"><title>PhysicalStructureGroup&#45;&gt;UniverseProperties</title>
<path fill="none" stroke="black" d="M118.48,-873.974C156.569,-867.715 211.397,-858.706 262.441,-850.319"/>
<text text-anchor="middle" x="203.769" y="-870.6" font-family="Times New Roman,serif" font-size="8.00">UniverseReference</text>
<text text-anchor="middle" x="254.441" y="-843.919" font-family="Times New Roman,serif" font-size="8.00">0...*</text>
<text text-anchor="middle" x="126.48" y="-867.574" font-family="Times New Roman,serif" font-size="8.00">0...*</text>
</g>
<!-- ProcessingEventGroup -->
<g id="ItemTypeProcessingEventGroup4" class="node"><title></title><ellipse fill="#f7b733" stroke="black" cx="68.6346" cy="-828" rx="53.7736" ry="18" style="filter: url(#dropshadow)"/>
<text text-anchor="middle" x="68.6346" y="-826.1" font-family="Times New Roman,serif" font-size="8.00">ProcessingEventGroup</text>
</g>
<!-- ProcessingEventGroup&#45;&gt;UniverseProperties -->
<g id="edge24" class="edge"><title>ProcessingEventGroup&#45;&gt;UniverseProperties</title>
<path fill="none" stroke="black" d="M122.801,-828C160.72,-828 213.505,-828 262.734,-828"/>
<text text-anchor="middle" x="203.769" y="-830.6" font-family="Times New Roman,serif" font-size="8.00">UniverseReference</text>
<text text-anchor="middle" x="254.734" y="-821.6" font-family="Times New Roman,serif" font-size="8.00">0...*</text>
<text text-anchor="middle" x="130.801" y="-821.6" font-family="Times New Roman,serif" font-size="8.00">0...*</text>
</g>
<!-- ProcessingInstructionGroup -->
<g id="ItemTypeProcessingInstructionGroup5" class="node"><title></title><ellipse fill="#f7b733" stroke="black" cx="68.6346" cy="-774" rx="64.1937" ry="18" style="filter: url(#dropshadow)"/>
<text text-anchor="middle" x="68.6346" y="-772.1" font-family="Times New Roman,serif" font-size="8.00">ProcessingInstructionGroup</text>
</g>
<!-- ProcessingInstructionGroup&#45;&gt;UniverseProperties -->
<g id="edge25" class="edge"><title>ProcessingInstructionGroup&#45;&gt;UniverseProperties</title>
<path fill="none" stroke="black" d="M124.271,-782.978C162.03,-789.182 214.01,-797.723 262.553,-805.7"/>
<text text-anchor="middle" x="203.769" y="-805.6" font-family="Times New Roman,serif" font-size="8.00">UniverseReference</text>
<text text-anchor="middle" x="254.553" y="-799.3" font-family="Times New Roman,serif" font-size="8.00">0...*</text>
<text text-anchor="middle" x="132.271" y="-776.578" font-family="Times New Roman,serif" font-size="8.00">0...*</text>
</g>
<!-- QualityStatementGroup -->
<g id="ItemTypeQualityStatementGroup6" class="node"><title></title><ellipse fill="#f7b733" stroke="black" cx="68.6346" cy="-720" rx="55.6769" ry="18" style="filter: url(#dropshadow)"/>
<text text-anchor="middle" x="68.6346" y="-718.1" font-family="Times New Roman,serif" font-size="8.00">QualityStatementGroup</text>
</g>
<!-- QualityStatementGroup&#45;&gt;UniverseProperties -->
<g id="edge26" class="edge"><title>QualityStatementGroup&#45;&gt;UniverseProperties</title>
<path fill="none" stroke="black" d="M110.421,-731.938C147.543,-742.939 203.786,-759.942 252.269,-776 260.06,-778.58 268.066,-781.284 276.127,-784.045"/>
<text text-anchor="middle" x="203.769" y="-778.6" font-family="Times New Roman,serif" font-size="8.00">UniverseReference</text>
<text text-anchor="middle" x="268.127" y="-777.645" font-family="Times New Roman,serif" font-size="8.00">0...*</text>
<text text-anchor="middle" x="118.421" y="-734.538" font-family="Times New Roman,serif" font-size="8.00">0...*</text>
</g>
<!-- QuestionConstruct -->
<g id="ItemTypeQuestionConstruct7" class="node"><title></title><ellipse fill="#f7b733" stroke="black" cx="68.6346" cy="-666" rx="45.891" ry="18" style="filter: url(#dropshadow)"/>
<text text-anchor="middle" x="68.6346" y="-664.1" font-family="Times New Roman,serif" font-size="8.00">QuestionConstruct</text>
</g>
<!-- QuestionConstruct&#45;&gt;UniverseProperties -->
<g id="edge27" class="edge"><title>QuestionConstruct&#45;&gt;UniverseProperties</title>
<path fill="none" stroke="black" d="M105.6,-676.846C143.141,-688.747 203.259,-709.459 252.269,-734 281.11,-748.441 311.346,-767.231 336.772,-784.211"/>
<text text-anchor="middle" x="203.769" y="-736.6" font-family="Times New Roman,serif" font-size="8.00">UniverseReference</text>
<text text-anchor="middle" x="328.772" y="-777.811" font-family="Times New Roman,serif" font-size="8.00">0...*</text>
<text text-anchor="middle" x="113.6" y="-679.446" font-family="Times New Roman,serif" font-size="8.00">0...*</text>
</g>
<!-- QuestionGroup -->
<g id="ItemTypeQuestionGroup8" class="node"><title></title><ellipse fill="#f7b733" stroke="black" cx="68.6346" cy="-612" rx="38.6432" ry="18" style="filter: url(#dropshadow)"/>
<text text-anchor="middle" x="68.6346" y="-610.1" font-family="Times New Roman,serif" font-size="8.00">QuestionGroup</text>
</g>
<!-- QuestionGroup&#45;&gt;UniverseProperties -->
<g id="edge28" class="edge"><title>QuestionGroup&#45;&gt;UniverseProperties</title>
<path fill="none" stroke="black" d="M102.894,-620.455C141.05,-631.134 204.493,-651.946 252.269,-683 295.069,-710.819 335.576,-752.758 363.016,-784.386"/>
<text text-anchor="middle" x="203.769" y="-685.6" font-family="Times New Roman,serif" font-size="8.00">UniverseReference</text>
<text text-anchor="middle" x="355.016" y="-777.986" font-family="Times New Roman,serif" font-size="8.00">0...*</text>
<text text-anchor="middle" x="110.894" y="-614.055" font-family="Times New Roman,serif" font-size="8.00">0...*</text>
</g>
<!-- RecordLayoutGroup -->
<g id="ItemTypeRecordLayoutGroup9" class="node"><title></title><ellipse fill="#f7b733" stroke="black" cx="68.6346" cy="-558" rx="48.5642" ry="18" style="filter: url(#dropshadow)"/>
<text text-anchor="middle" x="68.6346" y="-556.1" font-family="Times New Roman,serif" font-size="8.00">RecordLayoutGroup</text>
</g>
<!-- RecordLayoutGroup&#45;&gt;UniverseProperties -->
<g id="edge29" class="edge"><title>RecordLayoutGroup&#45;&gt;UniverseProperties</title>
<path fill="none" stroke="black" d="M112.258,-566.098C151.668,-575.228 210.308,-593.138 252.269,-625 308.811,-667.934 352.694,-738.857 377.018,-784.488"/>
<text text-anchor="middle" x="203.769" y="-627.6" font-family="Times New Roman,serif" font-size="8.00">UniverseReference</text>
<text text-anchor="middle" x="385.018" y="-778.088" font-family="Times New Roman,serif" font-size="8.00">0...*</text>
<text text-anchor="middle" x="120.258" y="-559.698" font-family="Times New Roman,serif" font-size="8.00">0...*</text>
</g>
<!-- RepresentedVariable -->
<g id="ItemTypeRepresentedVariable0" class="node"><title></title><ellipse fill="#f7b733" stroke="black" cx="68.6346" cy="-504" rx="48.5642" ry="18" style="filter: url(#dropshadow)"/>
<text text-anchor="middle" x="68.6346" y="-502.1" font-family="Times New Roman,serif" font-size="8.00">RepresentedVariable</text>
</g>
<!-- RepresentedVariable&#45;&gt;UniverseProperties -->
<g id="edge30" class="edge"><title>RepresentedVariable&#45;&gt;UniverseProperties</title>
<path fill="none" stroke="black" d="M115.036,-510.032C154.989,-517.356 212.787,-533.091 252.269,-566 322.609,-624.628 365.204,-726.338 384.982,-784.277"/>
<text text-anchor="middle" x="203.769" y="-568.6" font-family="Times New Roman,serif" font-size="8.00">UniverseReference</text>
<text text-anchor="middle" x="392.982" y="-784.627" font-family="Times New Roman,serif" font-size="8.00">0...*</text>
<text text-anchor="middle" x="123.036" y="-503.632" font-family="Times New Roman,serif" font-size="8.00">0...*</text>
</g>
<!-- RepresentedVariableGroup -->
<g id="ItemTypeRepresentedVariableGroup1" class="node"><title></title><ellipse fill="#f7b733" stroke="black" cx="68.6346" cy="-450" rx="60.8874" ry="18" style="filter: url(#dropshadow)"/>
<text text-anchor="middle" x="68.6346" y="-448.1" font-family="Times New Roman,serif" font-size="8.00">RepresentedVariableGroup</text>
</g>
<!-- RepresentedVariableGroup&#45;&gt;UniverseProperties -->
<g id="edge31" class="edge"><title>RepresentedVariableGroup&#45;&gt;UniverseProperties</title>
<path fill="none" stroke="black" d="M126.256,-455.835C165.692,-462.557 217.287,-477 252.269,-508 336.479,-582.625 375.103,-715.605 390.138,-784.276"/>
<text text-anchor="middle" x="203.769" y="-510.6" font-family="Times New Roman,serif" font-size="8.00">UniverseReference</text>
<text text-anchor="middle" x="398.138" y="-777.876" font-family="Times New Roman,serif" font-size="8.00">0...*</text>
<text text-anchor="middle" x="134.256" y="-449.435" font-family="Times New Roman,serif" font-size="8.00">0...*</text>
</g>
<!-- ResourcePackage -->
<g id="ItemTypeResourcePackage2" class="node"><title></title><ellipse fill="#f7b733" stroke="black" cx="68.6346" cy="-396" rx="43.219" ry="18" style="filter: url(#dropshadow)"/>
<text text-anchor="middle" x="68.6346" y="-394.1" font-family="Times New Roman,serif" font-size="8.00">ResourcePackage</text>
</g>
<!-- ResourcePackage&#45;&gt;UniverseProperties -->
<g id="edge32" class="edge"><title>ResourcePackage&#45;&gt;UniverseProperties</title>
<path fill="none" stroke="black" d="M111.772,-397.77C152.514,-401.65 213.602,-413.496 252.269,-449 351.243,-539.875 383.767,-705.456 393.928,-784.176"/>
<text text-anchor="middle" x="203.769" y="-451.6" font-family="Times New Roman,serif" font-size="8.00">UniverseReference</text>
<text text-anchor="middle" x="385.928" y="-786.776" font-family="Times New Roman,serif" font-size="8.00">0...*</text>
<text text-anchor="middle" x="119.772" y="-391.37" font-family="Times New Roman,serif" font-size="8.00">0...*</text>
</g>
<!-- StudyUnit -->
<g id="ItemTypeStudyUnit3" class="node"><title></title><ellipse fill="#f7b733" stroke="black" cx="68.6346" cy="-342" rx="28.8574" ry="18" style="filter: url(#dropshadow)"/>
<text text-anchor="middle" x="68.6346" y="-340.1" font-family="Times New Roman,serif" font-size="8.00">StudyUnit</text>
</g>
<!-- StudyUnit&#45;&gt;UniverseProperties -->
<g id="edge33" class="edge"><title>StudyUnit&#45;&gt;UniverseProperties</title>
<path fill="none" stroke="black" d="M97.6592,-341.876C137.257,-343.233 209.513,-351.57 252.269,-392 365.629,-499.193 390.997,-696.842 396.655,-784.349"/>
<text text-anchor="middle" x="203.769" y="-394.6" font-family="Times New Roman,serif" font-size="8.00">UniverseReference</text>
<text text-anchor="middle" x="404.655" y="-786.949" font-family="Times New Roman,serif" font-size="8.00">0...*</text>
<text text-anchor="middle" x="105.659" y="-335.476" font-family="Times New Roman,serif" font-size="8.00">0...*</text>
</g>
<!-- SubGroup -->
<g id="ItemTypeSubGroup4" class="node"><title></title><ellipse fill="#f7b733" stroke="black" cx="68.6346" cy="-288" rx="27.5899" ry="18" style="filter: url(#dropshadow)"/>
<text text-anchor="middle" x="68.6346" y="-286.1" font-family="Times New Roman,serif" font-size="8.00">SubGroup</text>
</g>
<!-- SubGroup&#45;&gt;UniverseProperties -->
<g id="edge34" class="edge"><title>SubGroup&#45;&gt;UniverseProperties</title>
<path fill="none" stroke="black" d="M96.5038,-287.313C136.002,-287.809 209.655,-294.706 252.269,-336 379.596,-459.382 397.193,-688.229 398.716,-784.03"/>
<text text-anchor="middle" x="203.769" y="-338.6" font-family="Times New Roman,serif" font-size="8.00">UniverseReference</text>
<text text-anchor="middle" x="406.716" y="-777.63" font-family="Times New Roman,serif" font-size="8.00">0...*</text>
<text text-anchor="middle" x="104.504" y="-280.913" font-family="Times New Roman,serif" font-size="8.00">0...*</text>
</g>
<!-- UniverseGroup -->
<g id="ItemTypeUniverseGroup5" class="node"><title></title><ellipse fill="#f7b733" stroke="black" cx="68.6346" cy="-234" rx="38.6432" ry="18" style="filter: url(#dropshadow)"/>
<text text-anchor="middle" x="68.6346" y="-232.1" font-family="Times New Roman,serif" font-size="8.00">UniverseGroup</text>
</g>
<!-- UniverseGroup&#45;&gt;UniverseProperties -->
<g id="edge36" class="edge"><title>UniverseGroup&#45;&gt;UniverseProperties</title>
<path fill="none" stroke="black" d="M105.992,-238.749C153.143,-245.628 231.785,-259.793 252.269,-280 324.998,-351.743 375.753,-667.269 392.369,-784.203"/>
<text text-anchor="middle" x="203.769" y="-282.6" font-family="Times New Roman,serif" font-size="8.00">GroupingUniverseReference</text>
<text text-anchor="middle" x="384.369" y="-786.803" font-family="Times New Roman,serif" font-size="8.00">0...*</text>
<text text-anchor="middle" x="113.992" y="-232.349" font-family="Times New Roman,serif" font-size="8.00">0...*</text>
</g>
<!-- UniverseGroup&#45;&gt;UniverseProperties -->
<g id="edge37" class="edge"><title>UniverseGroup&#45;&gt;UniverseProperties</title>
<path fill="none" stroke="black" d="M100.508,-223.731C140.137,-212.661 208.937,-200.85 252.269,-235 339.764,-303.953 381.992,-659.262 394.315,-784.359"/>
<text text-anchor="middle" x="203.769" y="-237.6" font-family="Times New Roman,serif" font-size="8.00">UniverseReference</text>
<text text-anchor="middle" x="402.315" y="-786.959" font-family="Times New Roman,serif" font-size="8.00">0...*</text>
<text text-anchor="middle" x="108.508" y="-217.331" font-family="Times New Roman,serif" font-size="8.00">0...*</text>
</g>
<!-- UniverseScheme -->
<g id="ItemTypeUniverseScheme6" class="node"><title></title><ellipse fill="#f7b733" stroke="black" cx="68.6346" cy="-180" rx="41.9498" ry="18" style="filter: url(#dropshadow)"/>
<text text-anchor="middle" x="68.6346" y="-178.1" font-family="Times New Roman,serif" font-size="8.00">UniverseScheme</text>
</g>
<!-- UniverseScheme&#45;&gt;UniverseProperties -->
<g id="edge38" class="edge"><title>UniverseScheme&#45;&gt;UniverseProperties</title>
<path fill="none" stroke="black" d="M107.166,-172.596C148.02,-166.87 212.782,-164.965 252.269,-200 340.652,-278.417 382.553,-654.586 394.529,-784.085"/>
<text text-anchor="middle" x="203.769" y="-202.6" font-family="Times New Roman,serif" font-size="8.00">UniverseReference</text>
<text text-anchor="middle" x="402.529" y="-777.685" font-family="Times New Roman,serif" font-size="8.00">0...*</text>
<text text-anchor="middle" x="115.166" y="-166.196" font-family="Times New Roman,serif" font-size="8.00">0...*</text>
</g>
<!-- Variable -->
<g id="ItemTypeVariable7" class="node"><title></title><ellipse fill="#f7b733" stroke="black" cx="68.6346" cy="-126" rx="27" ry="18" style="filter: url(#dropshadow)"/>
<text text-anchor="middle" x="68.6346" y="-124.1" font-family="Times New Roman,serif" font-size="8.00">Variable</text>
</g>
<!-- Variable&#45;&gt;UniverseProperties -->
<g id="edge39" class="edge"><title>Variable&#45;&gt;UniverseProperties</title>
<path fill="none" stroke="black" d="M95.334,-122.209C134.667,-117.978 209.704,-116.354 252.269,-157 343.901,-244.501 384.02,-649.258 394.998,-784.134"/>
<text text-anchor="middle" x="203.769" y="-159.6" font-family="Times New Roman,serif" font-size="8.00">UniverseReference</text>
<text text-anchor="middle" x="402.998" y="-786.734" font-family="Times New Roman,serif" font-size="8.00">0...*</text>
<text text-anchor="middle" x="103.334" y="-115.809" font-family="Times New Roman,serif" font-size="8.00">0...*</text>
</g>
<!-- VariableGroup -->
<g id="ItemTypeVariableGroup8" class="node"><title></title><ellipse fill="#f7b733" stroke="black" cx="68.6346" cy="-72" rx="36.7401" ry="18" style="filter: url(#dropshadow)"/>
<text text-anchor="middle" x="68.6346" y="-70.1" font-family="Times New Roman,serif" font-size="8.00">VariableGroup</text>
</g>
<!-- VariableGroup&#45;&gt;UniverseProperties -->
<g id="edge40" class="edge"><title>VariableGroup&#45;&gt;UniverseProperties</title>
<path fill="none" stroke="black" d="M105.179,-68.5232C146.393,-66.6041 213.6,-70.3483 252.269,-109 348.657,-205.344 385.917,-642.994 395.551,-784.046"/>
<text text-anchor="middle" x="203.769" y="-111.6" font-family="Times New Roman,serif" font-size="8.00">UniverseReference</text>
<text text-anchor="middle" x="403.551" y="-777.646" font-family="Times New Roman,serif" font-size="8.00">0...*</text>
<text text-anchor="middle" x="113.179" y="-62.1232" font-family="Times New Roman,serif" font-size="8.00">0...*</text>
</g>
<!-- CoordinateRegionType -->
<g id="ReusableTypeCoordinateRegionType9" class="node"><title></title><ellipse fill="#f7b733" stroke="black" cx="68.6346" cy="-18" rx="55.6769" ry="18" style="filter: url(#dropshadow)"/>
<text text-anchor="middle" x="68.6346" y="-16.1" font-family="Times New Roman,serif" font-size="8.00">CoordinateRegionType</text>
</g>
<!-- CoordinateRegionType&#45;&gt;UniverseProperties -->
<g id="edge41" class="edge"><title>CoordinateRegionType&#45;&gt;UniverseProperties</title>
<path fill="none" stroke="black" d="M123.52,-14.9881C164.478,-15.7887 219.236,-24.0206 252.269,-58 354.53,-163.189 388.107,-637.522 396.152,-784.465"/>
<text text-anchor="middle" x="203.769" y="-60.6" font-family="Times New Roman,serif" font-size="8.00">UniverseReference</text>
<text text-anchor="middle" x="388.152" y="-778.065" font-family="Times New Roman,serif" font-size="8.00">0...*</text>
<text text-anchor="middle" x="131.52" y="-8.58806" font-family="Times New Roman,serif" font-size="8.00">0...*</text>
</g>
</g>
</svg>
