<?xml version="1.0" encoding="UTF-8" standalone="no"?>
<!DOCTYPE svg PUBLIC "-//W3C//DTD SVG 1.1//EN"
 "http://www.w3.org/Graphics/SVG/1.1/DTD/svg11.dtd">
<!-- Generated by graphviz version 2.38.0 (20140413.2041)
 -->
<!-- Title: G Pages: 1 -->
<svg width="286pt" height="422pt"
 viewBox="0.00 0.00 285.66 422.00" xmlns="http://www.w3.org/2000/svg" xmlns:xlink="http://www.w3.org/1999/xlink">
<filter id = "dropshadow" height = "130%" ><feGaussianBlur in= "SourceAlpha" stdDeviation = "3"/><!--stdDeviation is how much to blur--><feOffset dx = "2" dy = "2" result = "offsetblur"/><!--how much to offset--><feMerge><feMergeNode/><!--this contains the offset blurred image--><feMergeNode in= "SourceGraphic"/><!--this contains the element that the filter is applied to --></feMerge></filter>
<g id="graph0" class="graph" transform="scale(1 1) rotate(0) translate(4 418)">
<title>G</title>
<!-- ValueType -->
<g id="ReusableTypeValueType" class="node"><title></title><polygon fill="#f7b733" stroke="black" points="204.656,-189 204.656,-225 277.656,-225 277.656,-189 204.656,-189" style="filter: url(#dropshadow)"/>
<text text-anchor="middle" x="231.656" y="-205.1" font-family="Times New Roman,serif" font-size="8.00">ValueType</text>
<polyline fill="none" stroke="black" points="258.656,-189 258.656,-225 "/>
<text text-anchor="middle" x="268.156" y="-205.1" font-family="Times New Roman,serif" font-size="8.00"> </text>
</g>
<!-- AttributeType -->
<g id="ReusableTypeAttributeType" class="node"><title></title><ellipse fill="#f7b733" stroke="black" cx="61.8279" cy="-396" rx="38.0086" ry="18" style="filter: url(#dropshadow)"/>
<text text-anchor="middle" x="61.8279" y="-394.1" font-family="Times New Roman,serif" font-size="8.00">AttributeType</text>
</g>
<!-- AttributeType&#45;&gt;ValueType -->
<g id="edge1" class="edge"><title>AttributeType&#45;&gt;ValueType</title>
<path fill="none" stroke="black" d="M92.1472,-384.962C102.433,-380.583 113.858,-375.123 123.656,-369 154.685,-349.608 164.111,-344.82 186.656,-316 208.996,-287.442 225.467,-248.054 233.871,-225.281"/>
<text text-anchor="middle" x="164.156" y="-359.6" font-family="Times New Roman,serif" font-size="8.00">Value</text>
</g>
<!-- CategoryValueType -->
<g id="ReusableTypeCategoryValueType" class="node"><title></title><ellipse fill="#f7b733" stroke="black" cx="61.8279" cy="-342" rx="48.5642" ry="18" style="filter: url(#dropshadow)"/>
<text text-anchor="middle" x="61.8279" y="-340.1" font-family="Times New Roman,serif" font-size="8.00">CategoryValueType</text>
</g>
<!-- CategoryValueType&#45;&gt;ValueType -->
<g id="edge2" class="edge"><title>CategoryValueType&#45;&gt;ValueType</title>
<path fill="none" stroke="black" d="M96.0788,-328.986C105.243,-324.935 115.031,-320.163 123.656,-315 154.091,-296.781 160.644,-290.118 186.656,-266 200.547,-253.12 214.892,-237.129 225.227,-225.045"/>
<text text-anchor="middle" x="164.156" y="-305.6" font-family="Times New Roman,serif" font-size="8.00">Value</text>
</g>
<!-- CodeType -->
<g id="ReusableTypeCodeType" class="node"><title></title><ellipse fill="#f7b733" stroke="black" cx="61.8279" cy="-288" rx="30.1263" ry="18" style="filter: url(#dropshadow)"/>
<text text-anchor="middle" x="61.8279" y="-286.1" font-family="Times New Roman,serif" font-size="8.00">CodeType</text>
</g>
<!-- CodeType&#45;&gt;ValueType -->
<g id="edge3" class="edge"><title>CodeType&#45;&gt;ValueType</title>
<path fill="none" stroke="black" d="M87.2105,-277.845C112.315,-267.277 152.481,-250.059 186.656,-234 192.682,-231.168 199.039,-228.065 205.185,-225.002"/>
<text text-anchor="middle" x="164.156" y="-255.6" font-family="Times New Roman,serif" font-size="8.00">Value</text>
</g>
<!-- DomainSpecificValueType -->
<g id="ReusableTypeDomainSpecificValueType" class="node"><title></title><ellipse fill="#f7b733" stroke="black" cx="61.8279" cy="-234" rx="61.6562" ry="18" style="filter: url(#dropshadow)"/>
<text text-anchor="middle" x="61.8279" y="-232.1" font-family="Times New Roman,serif" font-size="8.00">DomainSpecificValueType</text>
</g>
<!-- DomainSpecificValueType&#45;&gt;ValueType -->
<g id="edge4" class="edge"><title>DomainSpecificValueType&#45;&gt;ValueType</title>
<path fill="none" stroke="black" d="M116.996,-225.752C145.413,-221.426 179.431,-216.246 204.507,-212.428"/>
<text text-anchor="middle" x="164.156" y="-223.6" font-family="Times New Roman,serif" font-size="8.00">Value</text>
</g>
<!-- ItemValueType -->
<g id="ReusableTypeItemValueType" class="node"><title></title><ellipse fill="#f7b733" stroke="black" cx="61.8279" cy="-180" rx="40.0477" ry="18" style="filter: url(#dropshadow)"/>
<text text-anchor="middle" x="61.8279" y="-178.1" font-family="Times New Roman,serif" font-size="8.00">ItemValueType</text>
</g>
<!-- ItemValueType&#45;&gt;ValueType -->
<g id="edge5" class="edge"><title>ItemValueType&#45;&gt;ValueType</title>
<path fill="none" stroke="black" d="M100.435,-185.726C131.138,-190.401 174.232,-196.962 204.417,-201.558"/>
<text text-anchor="middle" x="164.156" y="-200.6" font-family="Times New Roman,serif" font-size="8.00">Value</text>
</g>
<!-- ParameterType -->
<g id="ReusableTypeParameterType" class="node"><title></title><ellipse fill="#f7b733" stroke="black" cx="61.8279" cy="-126" rx="40.0477" ry="18" style="filter: url(#dropshadow)"/>
<text text-anchor="middle" x="61.8279" y="-124.1" font-family="Times New Roman,serif" font-size="8.00">ParameterType</text>
</g>
<!-- ParameterType&#45;&gt;ValueType -->
<g id="edge6" class="edge"><title>ParameterType&#45;&gt;ValueType</title>
<path fill="none" stroke="black" d="M92.387,-137.894C117.656,-148.241 154.864,-163.905 186.656,-179 193.19,-182.103 200.089,-185.567 206.68,-188.972"/>
<text text-anchor="middle" x="164.156" y="-181.6" font-family="Times New Roman,serif" font-size="8.00">DefaultValue</text>
</g>
<!-- RecordType -->
<g id="ReusableTypeRecordType" class="node"><title></title><ellipse fill="#f7b733" stroke="black" cx="61.8279" cy="-72" rx="33.433" ry="18" style="filter: url(#dropshadow)"/>
<text text-anchor="middle" x="61.8279" y="-70.1" font-family="Times New Roman,serif" font-size="8.00">RecordType</text>
</g>
<!-- RecordType&#45;&gt;ValueType -->
<g id="edge7" class="edge"><title>RecordType&#45;&gt;ValueType</title>
<path fill="none" stroke="black" d="M89.5127,-82.3202C100.376,-86.9088 112.885,-92.6988 123.656,-99 153.808,-116.641 160.997,-122.293 186.656,-146 201.037,-159.287 215.574,-176.129 225.857,-188.748"/>
<text text-anchor="middle" x="164.156" y="-148.6" font-family="Times New Roman,serif" font-size="8.00">Value</text>
</g>
<!-- VariableItemType -->
<g id="ReusableTypeVariableItemType" class="node"><title></title><ellipse fill="#f7b733" stroke="black" cx="61.8279" cy="-18" rx="45.2568" ry="18" style="filter: url(#dropshadow)"/>
<text text-anchor="middle" x="61.8279" y="-16.1" font-family="Times New Roman,serif" font-size="8.00">VariableItemType</text>
</g>
<!-- VariableItemType&#45;&gt;ValueType -->
<g id="edge8" class="edge"><title>VariableItemType&#45;&gt;ValueType</title>
<path fill="none" stroke="black" d="M95.2319,-30.4356C104.668,-34.5694 114.812,-39.5303 123.656,-45 154.533,-64.097 164.204,-68.4688 186.656,-97 209.375,-125.871 225.82,-165.956 234.096,-188.914"/>
<text text-anchor="middle" x="164.156" y="-99.6" font-family="Times New Roman,serif" font-size="8.00">Value</text>
</g>
</g>
</svg>
