<?xml version="1.0" encoding="UTF-8"?><svg xmlns="http://www.w3.org/2000/svg" xmlns:xlink="http://www.w3.org/1999/xlink" viewBox="0 0 207.54 56.21"><defs><style>.cls-1{clip-rule:evenodd;}.cls-1,.cls-2,.cls-3{fill:#004f71;}.cls-4{mix-blend-mode:luminosity;}.cls-5{clip-path:url(#clippath);}.cls-6,.cls-7{fill:#fff;}.cls-8{fill:#9dc6df;}.cls-9{fill:#4c8d2b;}.cls-9,.cls-10,.cls-7,.cls-11,.cls-3,.cls-12{fill-rule:evenodd;}.cls-10{fill:#7a9a01;}.cls-11{fill:#007681;}.cls-12{fill:#055072;}.cls-13{isolation:isolate;}</style><clipPath id="clippath"><path class="cls-1" d="M75.86,13.97c0,7.29-5.91,13.2-13.2,13.2s-13.2-5.91-13.2-13.2S55.38,.77,62.66,.77s13.2,5.91,13.2,13.2Z"/></clipPath></defs><g class="cls-13"><g id="Layer_1"><g><rect class="cls-8" x=".83" y="32.09" width="205.57" height="23.41" rx="11.7" ry="11.7"/><g><path class="cls-2" d="M84.22,35.43c1.2,0,2.36,.38,3.48,1.14v2.69c-1.28-.98-2.42-1.47-3.41-1.47-.6,0-1.07,.15-1.41,.44-.34,.29-.51,.69-.51,1.18,0,.59,.31,1.14,.95,1.64,.18,.15,.86,.57,2.04,1.25,1.02,.6,1.75,1.28,2.2,2.02,.45,.74,.67,1.63,.67,2.67,0,1.34-.38,2.43-1.15,3.25s-1.75,1.24-2.97,1.24c-.79,0-1.47-.11-2.04-.33-.57-.22-1.21-.6-1.92-1.14v-2.98c1.32,1.39,2.57,2.08,3.73,2.08,.58,0,1.06-.16,1.42-.48,.36-.32,.54-.75,.54-1.28,0-.72-.31-1.31-.94-1.77-.52-.36-1.19-.79-2.01-1.29-.97-.56-1.7-1.21-2.18-1.96-.48-.75-.72-1.61-.72-2.6,0-1.31,.39-2.36,1.16-3.14s1.79-1.17,3.06-1.17Z"/><path class="cls-2" d="M96.4,35.64c1.29,0,2.43,.33,3.43,1,1,.67,1.78,1.6,2.34,2.8,.55,1.2,.83,2.55,.83,4.06s-.28,2.89-.84,4.07c-.56,1.18-1.35,2.1-2.38,2.75-1.03,.65-2.21,.97-3.53,.97h-5.04v-15.65h5.18Zm-.25,13.29c1.32,0,2.38-.5,3.18-1.51,.8-1,1.2-2.32,1.2-3.95s-.4-3.02-1.21-4c-.81-.98-1.89-1.47-3.25-1.47h-2.46v10.92h2.54Z"/><path class="cls-2" d="M115.67,35.64v2.36h-4.39v13.29h-2.39v-13.29h-4.39v-2.36h11.17Z"/><path class="cls-2" d="M120.78,35.64v13.29h6v2.36h-8.39v-15.65h2.39Z"/></g><g class="cls-4"><g><g><path class="cls-11" d="M103.36,14.06c0,7.29-5.91,13.2-13.2,13.2s-13.2-5.91-13.2-13.2S82.87,.86,90.16,.86s13.2,5.91,13.2,13.2Z"/><path class="cls-9" d="M130.47,14.06c0,7.29-5.91,13.2-13.2,13.2s-13.2-5.91-13.2-13.2S109.98,.86,117.27,.86s13.2,5.91,13.2,13.2Z"/></g><path class="cls-10" d="M157.77,14.06c0,7.29-5.91,13.2-13.2,13.2s-13.2-5.91-13.2-13.2,5.91-13.2,13.2-13.2,13.2,5.91,13.2,13.2Z"/><g><path class="cls-6" d="M89.75,21.82h-5.93V6.61h5.93c4.78,0,8.08,3.28,8.08,7.56v.04c0,4.28-3.3,7.6-8.08,7.6Zm4.58-7.6c0-2.69-1.85-4.58-4.58-4.58h-2.58v9.17h2.58c2.74,0,4.58-1.85,4.58-4.54v-.04Z"/><path class="cls-6" d="M117.25,21.82h-5.93V6.61h5.93c4.78,0,8.08,3.28,8.08,7.56v.04c0,4.28-3.3,7.6-8.08,7.6Zm4.58-7.6c0-2.69-1.85-4.58-4.58-4.58h-2.59v9.17h2.59c2.74,0,4.58-1.85,4.58-4.54v-.04Z"/><path class="cls-6" d="M142.43,21.82V6.61h3.35v15.21h-3.35Z"/></g></g><g><path class="cls-12" d="M75.86,13.97c0,7.29-5.91,13.2-13.2,13.2s-13.2-5.91-13.2-13.2S55.38,.77,62.66,.77s13.2,5.91,13.2,13.2Z"/><g><path class="cls-3" d="M75.86,13.97c0,7.29-5.91,13.2-13.2,13.2s-13.2-5.91-13.2-13.2S55.38,.77,62.66,.77s13.2,5.91,13.2,13.2Z"/><g class="cls-5"><g><g><path class="cls-7" d="M59.97,19.39c-.07-.39-.17-.77-.3-1.14l1.99-1.93-.67-1.16-2.66,.76c-.26-.3-.53-.58-.83-.83l.76-2.66-1.16-.67-1.92,1.99c-.37-.13-.75-.23-1.14-.3l-.67-2.69h-1.34l-.67,2.69c-.39,.07-.77,.17-1.14,.3l-1.92-1.99-1.16,.67,.76,2.66c-.3,.26-.58,.53-.83,.83l-2.66-.76h0l-.67,1.16,1.99,1.93c-.13,.37-.23,.75-.3,1.14l-2.69,.67v1.35l2.69,.67c.07,.39,.17,.77,.3,1.14l-1.99,1.92,.67,1.16,2.66-.76,.83,.83-.76,2.66,1.16,.67,1.93-1.99c.36,.13,.74,.23,1.13,.3l.67,2.69h1.34l.67-2.69c.39-.07,.77-.17,1.13-.3l1.93,1.99,1.16-.67-.76-2.66s.58-.53,.83-.83l2.66,.76,.67-1.16-1.99-1.92c.13-.37,.23-.75,.3-1.14l2.69-.67v-1.35l-2.69-.67h0Zm-3.24,1.34c0,2.24-1.81,4.05-4.05,4.05s-4.05-1.81-4.05-4.05,1.81-4.05,4.05-4.05,4.05,1.81,4.05,4.05Z"/><path class="cls-6" d="M53.5,30.89h-1.63l-.68-2.71c-.32-.06-.63-.15-.93-.25l-1.94,2.01-1.41-.81,.77-2.7-.68-.68-2.7,.77-.81-1.41,2.01-1.94c-.1-.3-.19-.62-.25-.94l-2.71-.68v-1.63l2.71-.68c.06-.32,.15-.63,.25-.94l-2.01-1.94,.81-1.41,2.69,.77c.21-.24,.44-.47,.68-.68l-.77-2.69,1.41-.82,1.94,2.01c.31-.1,.62-.19,.94-.25l.68-2.71h1.63l.68,2.71c.32,.06,.63,.15,.94,.25l1.94-2.01,1.41,.82-.77,2.69c.24,.21,.47,.44,.68,.68l2.69-.77,.82,1.41-2.01,1.94c.1,.31,.19,.62,.25,.94l2.71,.68v1.63l-2.71,.68c-.06,.32-.15,.63-.25,.94l2.01,1.94-.82,1.41-2.69-.77c-.21,.23-.53,.54-.68,.68l.77,2.7-1.41,.81-1.94-2.01c-.31,.1-.62,.19-.93,.25l-.68,2.71Zm-1.34-.37h1.06l.67-2.66,.12-.02c.37-.07,.74-.17,1.1-.3l.11-.04,1.91,1.97,.92-.53-.75-2.64,.08-.08s.57-.53,.82-.82l.08-.09,2.64,.76,.53-.92-1.97-1.91,.04-.11c.13-.36,.23-.73,.3-1.11l.02-.11,2.66-.66v-1.06l-2.66-.67-.02-.12c-.07-.38-.17-.75-.3-1.11l-.04-.11,1.97-1.91-.53-.92-2.64,.75-.08-.09c-.25-.29-.52-.56-.81-.81l-.09-.08,.75-2.64-.92-.53-1.91,1.97-.11-.04c-.36-.13-.73-.23-1.11-.3l-.12-.02-.67-2.66h-1.06l-.66,2.66-.12,.02c-.38,.07-.75,.17-1.11,.3l-.11,.04-1.91-1.97-.92,.53,.76,2.64-.09,.08c-.29,.25-.56,.52-.81,.81l-.08,.09-2.64-.75-.53,.92,1.97,1.91-.04,.11c-.13,.36-.23,.73-.3,1.11l-.02,.11-2.66,.67v1.06l2.66,.66,.02,.11c.07,.38,.17,.75,.3,1.11l.04,.11-1.97,1.91,.53,.92,2.63-.75,.98,.98-.75,2.63,.92,.53,1.91-1.97,.11,.04c.36,.13,.73,.23,1.11,.3l.12,.02,.67,2.66Zm.53-5.56c-2.33,0-4.23-1.9-4.23-4.23s1.9-4.23,4.23-4.23,4.23,1.9,4.23,4.23-1.9,4.23-4.23,4.23Zm0-8.1c-2.13,0-3.86,1.73-3.86,3.87s1.73,3.87,3.86,3.87,3.87-1.73,3.87-3.87-1.73-3.87-3.87-3.87Z"/></g><g><g><path class="cls-7" d="M73.68,13.05c0,3.05-2.47,5.52-5.52,5.52s-5.51-2.47-5.51-5.52,2.47-5.52,5.51-5.52,5.52,2.47,5.52,5.52Z"/><path class="cls-6" d="M68.16,18.75c-3.14,0-5.7-2.56-5.7-5.7s2.56-5.7,5.7-5.7,5.7,2.56,5.7,5.7-2.56,5.7-5.7,5.7Zm0-11.03c-2.94,0-5.33,2.39-5.33,5.33s2.39,5.33,5.33,5.33,5.33-2.39,5.33-5.33-2.39-5.33-5.33-5.33Z"/></g><polygon class="cls-7" points="69.02 7.57 68.55 5.68 67.78 5.68 67.31 7.57 67 7.5 67.54 5.37 68.79 5.37 69.32 7.5 69.02 7.57"/><polyline class="cls-7" points="69.17 7.54 68.67 5.52 67.66 5.52 67.15 7.54"/><polygon class="cls-7" points="62.61 14.21 60.48 13.68 60.48 12.43 62.61 11.89 62.69 12.2 60.79 12.67 60.79 13.43 62.69 13.91 62.61 14.21"/><polyline class="cls-7" points="62.65 12.04 60.63 12.55 60.63 13.56 62.65 14.06"/><polygon class="cls-7" points="73.73 14.21 73.66 13.91 75.55 13.43 75.55 12.67 73.66 12.2 73.73 11.89 75.86 12.43 75.86 13.68 73.73 14.21"/><polyline class="cls-7" points="73.69 14.06 75.71 13.56 75.71 12.55 73.69 12.04"/><polygon class="cls-7" points="72.9 10 72.63 9.83 73.66 8.17 73.13 7.62 71.44 8.6 71.28 8.33 73.18 7.23 74.05 8.13 72.9 10"/><polyline class="cls-7" points="72.76 9.91 73.86 8.15 73.16 7.43 71.36 8.47"/><polygon class="cls-7" points="73.18 18.86 71.28 17.76 71.44 17.49 73.13 18.47 73.66 17.92 72.63 16.26 72.9 16.1 74.05 17.97 73.18 18.86"/><polyline class="cls-7" points="71.36 17.63 73.16 18.67 73.86 17.95 72.76 16.18"/><polygon class="cls-7" points="63.45 9.83 62.29 7.96 63.17 7.06 65.07 8.16 64.91 8.43 63.22 7.45 62.69 8 63.72 9.66 63.45 9.83"/><polyline class="cls-7" points="64.99 8.3 63.19 7.25 62.49 7.98 63.58 9.74"/><polygon class="cls-7" points="63.17 18.86 62.29 17.97 63.45 16.1 63.72 16.26 62.69 17.92 63.22 18.47 64.91 17.49 65.07 17.76 63.17 18.86"/><polyline class="cls-7" points="63.58 16.18 62.49 17.95 63.19 18.67 64.99 17.63"/><polygon class="cls-7" points="68.79 20.74 67.54 20.74 67 18.6 67.31 18.53 67.78 20.43 68.55 20.43 69.02 18.53 69.32 18.6 68.79 20.74"/><polyline class="cls-7" points="67.15 18.57 67.66 20.58 68.67 20.58 69.17 18.57"/><g><path class="cls-12" d="M70.74,12.94c0,1.43-1.16,2.58-2.58,2.58s-2.58-1.16-2.58-2.58,1.15-2.58,2.58-2.58,2.58,1.16,2.58,2.58Z"/><path class="cls-6" d="M68.16,15.71c-1.52,0-2.76-1.24-2.76-2.76s1.24-2.76,2.76-2.76,2.76,1.24,2.76,2.76-1.24,2.76-2.76,2.76Zm0-5.16c-1.32,0-2.4,1.08-2.4,2.4s1.08,2.4,2.4,2.4,2.4-1.08,2.4-2.4-1.08-2.4-2.4-2.4Z"/></g></g><g><g><path class="cls-7" d="M60.27,3.94c0,2.59-2.1,4.69-4.69,4.69s-4.69-2.1-4.69-4.69,2.1-4.69,4.69-4.69,4.69,2.1,4.69,4.69Z"/><path class="cls-6" d="M55.58,8.81c-2.69,0-4.87-2.18-4.87-4.87s2.18-4.87,4.87-4.87,4.87,2.18,4.87,4.87-2.18,4.87-4.87,4.87Zm0-9.38c-2.48,0-4.51,2.02-4.51,4.51s2.02,4.5,4.51,4.5,4.5-2.02,4.5-4.5-2.02-4.51-4.5-4.51Z"/></g><polygon class="cls-7" points="50.82 5.1 48.87 4.61 48.87 3.27 50.82 2.78 50.97 3.39 49.49 3.76 49.49 4.13 50.97 4.5 50.82 5.1"/><polyline class="cls-7" points="50.89 3.09 49.18 3.51 49.18 4.37 50.89 4.8"/><polygon class="cls-7" points="60.36 5.1 60.21 4.5 61.69 4.13 61.69 3.76 60.21 3.39 60.36 2.78 62.31 3.27 62.31 4.61 60.36 5.1"/><polyline class="cls-7" points="60.28 4.8 62 4.37 62 3.51 60.28 3.09"/><polygon class="cls-7" points="59.76 1.44 59.23 1.11 60.03 -.18 59.77 -.45 58.46 .32 58.14 -.22 59.88 -1.23 60.82 -.27 59.76 1.44"/><polyline class="cls-7" points="59.5 1.28 60.42 -.22 59.83 -.84 58.3 .05"/><polygon class="cls-7" points="59.88 9.11 58.15 8.1 58.46 7.56 59.77 8.33 60.03 8.06 59.23 6.77 59.76 6.44 60.82 8.15 59.88 9.11"/><polyline class="cls-7" points="58.3 7.83 59.83 8.72 60.42 8.1 59.5 6.6"/><polygon class="cls-7" points="51.43 1.3 50.37 -.41 51.31 -1.37 53.91 .06 52.73 .17 51.41 -.59 51.15 -.33 51.96 .97 51.43 1.3"/><polyline class="cls-7" points="52.89 -.1 51.36 -.98 50.76 -.37 51.69 1.13"/><polygon class="cls-7" points="51.31 9.11 50.37 8.15 51.43 6.44 51.96 6.77 51.15 8.06 51.41 8.33 52.73 7.56 53.04 8.1 51.31 9.11"/><polyline class="cls-7" points="51.69 6.6 50.76 8.1 51.36 8.72 52.89 7.83"/><polygon class="cls-7" points="56.25 10.65 54.91 10.65 54.42 8.71 55.03 8.55 55.4 10.03 55.77 10.03 56.14 8.55 56.74 8.71 56.25 10.65"/><polyline class="cls-7" points="54.73 8.63 55.15 10.34 56.01 10.34 56.44 8.63"/><g><path class="cls-12" d="M57.78,3.85c0,1.21-.98,2.19-2.19,2.19s-2.19-.98-2.19-2.19,.98-2.19,2.19-2.19,2.19,.98,2.19,2.19Z"/><path class="cls-6" d="M55.58,6.23c-1.31,0-2.38-1.07-2.38-2.38s1.07-2.38,2.38-2.38,2.38,1.06,2.38,2.38-1.07,2.38-2.38,2.38Zm0-4.39c-1.11,0-2.01,.9-2.01,2.01s.9,2.01,2.01,2.01,2.01-.9,2.01-2.01-.9-2.01-2.01-2.01Z"/></g></g></g></g></g></g></g></g></g></g></svg>