<?xml version="1.0" encoding="UTF-8"?><svg xmlns="http://www.w3.org/2000/svg" xmlns:xlink="http://www.w3.org/1999/xlink" viewBox="0 0 207.54 56.21"><defs><style>.cls-1{clip-rule:evenodd;}.cls-1,.cls-2{fill:#004f71;}.cls-3{mix-blend-mode:luminosity;}.cls-4{clip-path:url(#clippath);}.cls-5,.cls-6{fill:#fff;}.cls-7{fill:#a3b83a;}.cls-8{fill:#4c8d2b;}.cls-8,.cls-9,.cls-6,.cls-10,.cls-2,.cls-11{fill-rule:evenodd;}.cls-9{fill:#7a9a01;}.cls-10{fill:#007681;}.cls-11{fill:#055072;}.cls-12{isolation:isolate;}</style><clipPath id="clippath"><path class="cls-1" d="M76.05,14.21c0,7.29-5.91,13.2-13.2,13.2s-13.2-5.91-13.2-13.2S55.56,1.01,62.85,1.01s13.2,5.91,13.2,13.2Z"/></clipPath></defs><g class="cls-12"><g id="Layer_1"><g><rect class="cls-7" x="1.02" y="32.14" width="205.57" height="23.41" rx="11.7" ry="11.7"/><g><path class="cls-5" d="M80.5,35.68l3.41,5.3,3.35-5.3h2.97l-4.84,7.55,5.29,8.1h-3.03l-3.75-5.85-3.75,5.85h-3.01l5.24-8.1-4.89-7.55h3.01Z"/><path class="cls-5" d="M95.5,35.68v7.23h.05l4.53-7.23h2.72l-4.6,7.37,5.96,8.28h-3.06l-5.6-7.69v7.69h-2.39v-15.65h2.39Z"/><path class="cls-5" d="M111.41,35.48c1.28,0,2.43,.33,3.46,1,1.02,.67,1.84,1.63,2.45,2.89,.61,1.26,.91,2.64,.91,4.14s-.3,2.82-.89,4.07c-.59,1.25-1.41,2.22-2.44,2.91-1.04,.69-2.2,1.04-3.5,1.04s-2.44-.35-3.49-1.05c-1.05-.7-1.86-1.67-2.45-2.9-.58-1.23-.88-2.59-.88-4.07s.29-2.78,.88-4.04c.58-1.26,1.39-2.24,2.42-2.94,1.03-.7,2.21-1.05,3.54-1.05Zm-4.36,8.03c0,1.04,.19,1.97,.56,2.8,.37,.83,.89,1.47,1.55,1.93,.66,.46,1.42,.68,2.25,.68,1.27,0,2.31-.5,3.13-1.51,.82-1.01,1.23-2.31,1.23-3.9,0-1.04-.18-1.97-.55-2.81-.37-.83-.89-1.48-1.56-1.93-.67-.46-1.42-.68-2.26-.68s-1.59,.23-2.26,.69c-.67,.46-1.18,1.1-1.54,1.93-.36,.83-.54,1.76-.54,2.81Z"/><path class="cls-5" d="M124.96,35.48c1.2,0,2.36,.38,3.48,1.14v2.69c-1.28-.98-2.42-1.47-3.41-1.47-.6,0-1.07,.15-1.41,.44-.34,.29-.51,.69-.51,1.18,0,.59,.32,1.14,.95,1.64,.18,.15,.86,.57,2.04,1.25,1.02,.6,1.75,1.28,2.2,2.02s.67,1.63,.67,2.67c0,1.34-.38,2.43-1.15,3.25-.76,.83-1.75,1.24-2.97,1.24-.79,0-1.47-.11-2.04-.33-.57-.22-1.21-.6-1.92-1.14v-2.98c1.32,1.39,2.57,2.08,3.74,2.08,.58,0,1.06-.16,1.42-.48,.36-.32,.54-.75,.54-1.28,0-.72-.31-1.31-.94-1.77-.52-.36-1.19-.79-2.01-1.29-.97-.56-1.7-1.21-2.18-1.96-.48-.75-.72-1.61-.72-2.6,0-1.31,.39-2.36,1.16-3.14,.77-.78,1.79-1.17,3.06-1.17Z"/></g><g class="cls-3"><g><g><path class="cls-10" d="M103.54,14.3c0,7.29-5.91,13.2-13.2,13.2s-13.2-5.91-13.2-13.2,5.91-13.2,13.2-13.2,13.2,5.91,13.2,13.2Z"/><path class="cls-8" d="M130.65,14.3c0,7.29-5.91,13.2-13.2,13.2s-13.2-5.91-13.2-13.2,5.91-13.2,13.2-13.2,13.2,5.91,13.2,13.2Z"/></g><path class="cls-9" d="M157.95,14.3c0,7.29-5.91,13.2-13.2,13.2s-13.2-5.91-13.2-13.2,5.91-13.2,13.2-13.2,13.2,5.91,13.2,13.2Z"/><g><path class="cls-5" d="M89.94,22.06h-5.93V6.85h5.93c4.78,0,8.08,3.28,8.08,7.56v.04c0,4.28-3.3,7.6-8.08,7.6Zm4.58-7.6c0-2.69-1.85-4.58-4.58-4.58h-2.58v9.17h2.58c2.74,0,4.58-1.85,4.58-4.54v-.04Z"/><path class="cls-5" d="M117.44,22.06h-5.93V6.85h5.93c4.78,0,8.08,3.28,8.08,7.56v.04c0,4.28-3.3,7.6-8.08,7.6Zm4.58-7.6c0-2.69-1.85-4.58-4.58-4.58h-2.59v9.17h2.59c2.74,0,4.58-1.85,4.58-4.54v-.04Z"/><path class="cls-5" d="M142.62,22.06V6.85h3.35v15.21h-3.35Z"/></g></g><g><path class="cls-11" d="M76.05,14.21c0,7.29-5.91,13.2-13.2,13.2s-13.2-5.91-13.2-13.2S55.56,1.01,62.85,1.01s13.2,5.91,13.2,13.2Z"/><g><path class="cls-2" d="M76.05,14.21c0,7.29-5.91,13.2-13.2,13.2s-13.2-5.91-13.2-13.2S55.56,1.01,62.85,1.01s13.2,5.91,13.2,13.2Z"/><g class="cls-4"><g><g><path class="cls-6" d="M60.16,19.63c-.07-.39-.17-.77-.3-1.14l1.99-1.93-.67-1.16-2.66,.76c-.26-.3-.53-.58-.83-.83l.76-2.66-1.16-.67-1.92,1.99c-.37-.13-.75-.23-1.14-.3l-.67-2.69h-1.34l-.67,2.69c-.39,.07-.77,.17-1.14,.3l-1.92-1.99-1.16,.67,.76,2.66c-.3,.26-.58,.53-.83,.83l-2.66-.76h0l-.67,1.16,1.99,1.93c-.13,.37-.23,.75-.3,1.14l-2.69,.67v1.35l2.69,.67c.07,.39,.17,.77,.3,1.14l-1.99,1.92,.67,1.16,2.66-.76,.83,.83-.76,2.66,1.16,.67,1.93-1.99c.36,.13,.74,.23,1.13,.3l.67,2.69h1.34l.67-2.69c.39-.07,.77-.17,1.13-.3l1.93,1.99,1.16-.67-.76-2.66s.58-.53,.83-.83l2.66,.76,.67-1.16-1.99-1.92c.13-.37,.23-.75,.3-1.14l2.69-.67v-1.35l-2.69-.67h0Zm-3.24,1.34c0,2.24-1.81,4.05-4.05,4.05s-4.05-1.81-4.05-4.05,1.81-4.05,4.05-4.05,4.05,1.81,4.05,4.05Z"/><path class="cls-5" d="M53.68,31.13h-1.63l-.68-2.71c-.32-.06-.63-.15-.93-.25l-1.94,2.01-1.41-.81,.77-2.7-.68-.68-2.7,.77-.81-1.41,2.01-1.94c-.1-.3-.19-.62-.25-.94l-2.71-.68v-1.63l2.71-.68c.06-.32,.15-.63,.25-.94l-2.01-1.94,.81-1.41,2.69,.77c.21-.24,.44-.47,.68-.68l-.77-2.69,1.41-.82,1.94,2.01c.31-.1,.62-.19,.94-.25l.68-2.71h1.63l.68,2.71c.32,.06,.63,.15,.94,.25l1.94-2.01,1.41,.82-.77,2.69c.24,.21,.47,.44,.68,.68l2.69-.77,.82,1.41-2.01,1.94c.1,.31,.19,.62,.25,.94l2.71,.68v1.63l-2.71,.68c-.06,.32-.15,.63-.25,.94l2.01,1.94-.82,1.41-2.69-.77c-.21,.23-.53,.54-.68,.68l.77,2.7-1.41,.81-1.94-2.01c-.31,.1-.62,.19-.93,.25l-.68,2.71Zm-1.34-.37h1.06l.67-2.66,.12-.02c.37-.07,.74-.17,1.1-.3l.11-.04,1.91,1.97,.92-.53-.75-2.64,.08-.08s.57-.53,.82-.82l.08-.09,2.64,.76,.53-.92-1.97-1.91,.04-.11c.13-.36,.23-.73,.3-1.11l.02-.11,2.66-.66v-1.06l-2.66-.67-.02-.12c-.07-.38-.17-.75-.3-1.11l-.04-.11,1.97-1.91-.53-.92-2.64,.75-.08-.09c-.25-.29-.52-.56-.81-.81l-.09-.08,.75-2.64-.92-.53-1.91,1.97-.11-.04c-.36-.13-.73-.23-1.11-.3l-.12-.02-.67-2.66h-1.06l-.66,2.66-.12,.02c-.38,.07-.75,.17-1.11,.3l-.11,.04-1.91-1.97-.92,.53,.76,2.64-.09,.08c-.29,.25-.56,.52-.81,.81l-.08,.09-2.64-.75-.53,.92,1.97,1.91-.04,.11c-.13,.36-.23,.73-.3,1.11l-.02,.11-2.66,.67v1.06l2.66,.66,.02,.11c.07,.38,.17,.75,.3,1.11l.04,.11-1.97,1.91,.53,.92,2.63-.75,.98,.98-.75,2.63,.92,.53,1.91-1.97,.11,.04c.36,.13,.73,.23,1.11,.3l.12,.02,.67,2.66Zm.53-5.56c-2.33,0-4.23-1.9-4.23-4.23s1.9-4.23,4.23-4.23,4.23,1.9,4.23,4.23-1.9,4.23-4.23,4.23Zm0-8.1c-2.13,0-3.86,1.73-3.86,3.87s1.73,3.87,3.86,3.87,3.87-1.73,3.87-3.87-1.73-3.87-3.87-3.87Z"/></g><g><g><path class="cls-6" d="M73.86,13.29c0,3.05-2.47,5.52-5.52,5.52s-5.51-2.47-5.51-5.52,2.47-5.52,5.51-5.52,5.52,2.47,5.52,5.52Z"/><path class="cls-5" d="M68.35,18.99c-3.14,0-5.7-2.56-5.7-5.7s2.56-5.7,5.7-5.7,5.7,2.56,5.7,5.7-2.56,5.7-5.7,5.7Zm0-11.03c-2.94,0-5.33,2.39-5.33,5.33s2.39,5.33,5.33,5.33,5.33-2.39,5.33-5.33-2.39-5.33-5.33-5.33Z"/></g><polygon class="cls-6" points="69.2 7.82 68.73 5.92 67.96 5.92 67.49 7.82 67.19 7.74 67.72 5.61 68.97 5.61 69.51 7.74 69.2 7.82"/><polyline class="cls-6" points="69.35 7.78 68.85 5.76 67.84 5.76 67.34 7.78"/><polygon class="cls-6" points="62.79 14.45 60.66 13.92 60.66 12.67 62.79 12.13 62.87 12.44 60.97 12.91 60.97 13.68 62.87 14.15 62.79 14.45"/><polyline class="cls-6" points="62.83 12.29 60.82 12.79 60.82 13.8 62.83 14.3"/><polygon class="cls-6" points="73.91 14.45 73.84 14.15 75.74 13.68 75.74 12.91 73.84 12.44 73.91 12.13 76.05 12.67 76.05 13.92 73.91 14.45"/><polyline class="cls-6" points="73.88 14.3 75.89 13.8 75.89 12.79 73.88 12.29"/><polygon class="cls-6" points="73.08 10.24 72.82 10.07 73.85 8.41 73.31 7.86 71.62 8.85 71.47 8.58 73.37 7.47 74.24 8.37 73.08 10.24"/><polyline class="cls-6" points="72.95 10.16 74.04 8.39 73.34 7.67 71.54 8.71"/><polygon class="cls-6" points="73.37 19.11 71.47 18 71.62 17.73 73.31 18.71 73.85 18.17 72.82 16.5 73.08 16.34 74.24 18.21 73.37 19.11"/><polyline class="cls-6" points="71.54 17.87 73.34 18.91 74.04 18.19 72.95 16.42"/><polygon class="cls-6" points="63.64 10.07 62.48 8.2 63.35 7.3 65.25 8.41 65.09 8.67 63.4 7.69 62.87 8.24 63.9 9.9 63.64 10.07"/><polyline class="cls-6" points="65.17 8.54 63.38 7.5 62.67 8.22 63.77 9.99"/><polygon class="cls-6" points="63.35 19.11 62.48 18.21 63.64 16.34 63.9 16.5 62.87 18.17 63.4 18.71 65.09 17.73 65.25 18 63.35 19.11"/><polyline class="cls-6" points="63.77 16.42 62.67 18.19 63.38 18.91 65.17 17.87"/><polygon class="cls-6" points="68.97 20.98 67.72 20.98 67.19 18.85 67.49 18.77 67.96 20.67 68.73 20.67 69.2 18.77 69.51 18.85 68.97 20.98"/><polyline class="cls-6" points="67.34 18.81 67.84 20.82 68.85 20.82 69.35 18.81"/><g><path class="cls-11" d="M70.93,13.19c0,1.43-1.16,2.58-2.58,2.58s-2.58-1.16-2.58-2.58,1.15-2.58,2.58-2.58,2.58,1.16,2.58,2.58Z"/><path class="cls-5" d="M68.35,15.95c-1.52,0-2.76-1.24-2.76-2.76s1.24-2.76,2.76-2.76,2.76,1.24,2.76,2.76-1.24,2.76-2.76,2.76Zm0-5.16c-1.32,0-2.4,1.08-2.4,2.4s1.08,2.4,2.4,2.4,2.4-1.08,2.4-2.4-1.08-2.4-2.4-2.4Z"/></g></g><g><g><path class="cls-6" d="M60.45,4.19c0,2.59-2.1,4.69-4.69,4.69s-4.69-2.1-4.69-4.69,2.1-4.69,4.69-4.69,4.69,2.1,4.69,4.69Z"/><path class="cls-5" d="M55.77,9.05c-2.69,0-4.87-2.18-4.87-4.87s2.18-4.87,4.87-4.87,4.87,2.18,4.87,4.87-2.18,4.87-4.87,4.87Zm0-9.38c-2.48,0-4.51,2.02-4.51,4.51s2.02,4.5,4.51,4.5,4.5-2.02,4.5-4.5S58.25-.32,55.77-.32Z"/></g><polygon class="cls-6" points="51 5.34 49.05 4.86 49.05 3.51 51 3.03 51.15 3.63 49.68 4 49.68 4.37 51.15 4.74 51 5.34"/><polyline class="cls-6" points="51.08 3.33 49.37 3.76 49.37 4.61 51.08 5.04"/><polygon class="cls-6" points="60.54 5.34 60.39 4.74 61.87 4.37 61.87 4 60.39 3.63 60.54 3.03 62.49 3.51 62.49 4.85 60.54 5.34"/><polyline class="cls-6" points="60.47 5.04 62.18 4.61 62.18 3.76 60.47 3.33"/><polygon class="cls-6" points="59.94 1.68 59.41 1.35 60.22 .06 59.96 -.21 58.64 .56 58.33 .02 60.07 -.99 61 -.03 59.94 1.68"/><polyline class="cls-6" points="59.68 1.52 60.61 .02 60.01 -.6 58.48 .29"/><polygon class="cls-6" points="60.07 9.35 58.33 8.34 58.64 7.8 59.96 8.57 60.22 8.3 59.41 7.01 59.94 6.68 61 8.39 60.07 9.35"/><polyline class="cls-6" points="58.48 8.07 60.01 8.96 60.61 8.34 59.68 6.84"/><polygon class="cls-6" points="51.61 1.54 50.55 -.17 51.49 -1.13 54.09 .31 52.91 .41 51.6 -.35 51.34 -.09 52.14 1.21 51.61 1.54"/><polyline class="cls-6" points="53.07 .14 51.54 -.74 50.95 -.13 51.87 1.37"/><polygon class="cls-6" points="51.49 9.35 50.55 8.39 51.61 6.68 52.14 7.01 51.34 8.3 51.6 8.57 52.91 7.8 53.23 8.34 51.49 9.35"/><polyline class="cls-6" points="51.87 6.84 50.95 8.34 51.54 8.96 53.07 8.07"/><polygon class="cls-6" points="56.44 10.9 55.1 10.9 54.61 8.95 55.21 8.8 55.58 10.27 55.95 10.27 56.32 8.8 56.93 8.95 56.44 10.9"/><polyline class="cls-6" points="54.91 8.87 55.34 10.58 56.2 10.58 56.62 8.87"/><g><path class="cls-11" d="M57.96,4.09c0,1.21-.98,2.19-2.19,2.19s-2.19-.98-2.19-2.19,.98-2.19,2.19-2.19,2.19,.98,2.19,2.19Z"/><path class="cls-5" d="M55.77,6.47c-1.31,0-2.38-1.07-2.38-2.38s1.07-2.38,2.38-2.38,2.38,1.06,2.38,2.38-1.07,2.38-2.38,2.38Zm0-4.39c-1.11,0-2.01,.9-2.01,2.01s.9,2.01,2.01,2.01,2.01-.9,2.01-2.01-.9-2.01-2.01-2.01Z"/></g></g></g></g></g></g></g></g></g></g></svg>